<svg xmlns="http://www.w3.org/2000/svg" width="360" height="540" xmlns:xlink="http://www.w3.org/1999/xlink"><g transform="translate(0-512.36)"><rect y="512.86" x=".5" rx="29.944" height="539" width="359" fill="#fff" stroke="#000"/><g transform="translate(5 22.362)" fill="#f55"><path transform="translate(0 440)" d="m10 80l-5 7v7l5-7v43h5v-50h-5" fill="#f55" id="0"/><path d="m30 520c-5.54 0-10 4.46-10 10v30c0 5.54 4.46 10 10 10 5.54 0 10-4.46 10-10v-30c0-5.54-4.46-10-10-10m0 5c2.77 0 5 2.23 5 5v30c0 2.77-2.23 5-5 5-2.77 0-5-2.23-5-5v-30c0-2.77 2.23-5 5-5" fill="#f55" id="1"/></g><g fill="#f55"><g transform="matrix(-1 0 0-1 355 1542.36)"><use xlink:href="#0"/><use xlink:href="#1"/></g><path d="m100 562.36c0 0 8 13.333 17.333 22.667 9.333 9.333 22.667 17.333 22.667 17.333 0 0-13.333 8-22.667 17.333-9.333 9.333-17.333 22.667-17.333 22.667 0 0-8-13.333-17.333-22.667-9.333-9.333-22.667-17.333-22.667-17.333 0 0 13.333-8 22.667-17.333 9.333-9.333 17.333-22.667 17.333-22.667"/><path d="m330 932.36c0 0 3 5 6.5 8.5 3.5 3.5 8.5 6.5 8.5 6.5 0 0-5 3-8.5 6.5-3.5 3.5-6.5 8.5-6.5 8.5 0 0-3-5-6.5-8.5-3.5-3.5-8.5-6.5-8.5-6.5 0 0 5-3 8.5-6.5 3.5-3.5 6.5-8.5 6.5-8.5"/><path d="m30 602.36c0 0 3 5 6.5 8.5 3.5 3.5 8.5 6.5 8.5 6.5 0 0-5 3-8.5 6.5-3.5 3.5-6.5 8.5-6.5 8.5 0 0-3-5-6.5-8.5-3.5-3.5-8.5-6.5-8.5-6.5 0 0 5-3 8.5-6.5 3.5-3.5 6.5-8.5 6.5-8.5"/><path d="m260 562.36c0 0 8 13.333 17.333 22.667 9.333 9.333 22.667 17.333 22.667 17.333 0 0-13.333 8-22.667 17.333-9.333 9.333-17.333 22.667-17.333 22.667 0 0-8-13.333-17.333-22.667-9.333-9.333-22.667-17.333-22.667-17.333 0 0 13.333-8 22.667-17.333 9.333-9.333 17.333-22.667 17.333-22.667"/><path d="m260 682.36c0 0 8 13.333 17.333 22.667 9.333 9.333 22.667 17.333 22.667 17.333 0 0-13.333 8-22.667 17.333-9.333 9.333-17.333 22.667-17.333 22.667 0 0-8-13.333-17.333-22.667-9.333-9.333-22.667-17.333-22.667-17.333 0 0 13.333-8 22.667-17.333 9.333-9.333 17.333-22.667 17.333-22.667"/><path d="m260 802.36c0 0 8 13.333 17.333 22.667 9.333 9.333 22.667 17.333 22.667 17.333 0 0-13.333 8-22.667 17.333-9.333 9.333-17.333 22.667-17.333 22.667 0 0-8-13.333-17.333-22.667-9.333-9.333-22.667-17.333-22.667-17.333 0 0 13.333-8 22.667-17.333 9.333-9.333 17.333-22.667 17.333-22.667"/><path d="m260 922.36c0 0 8 13.333 17.333 22.667 9.333 9.333 22.667 17.333 22.667 17.333 0 0-13.333 8-22.667 17.333-9.333 9.333-17.333 22.667-17.333 22.667 0 0-8-13.333-17.333-22.667-9.333-9.333-22.667-17.333-22.667-17.333 0 0 13.333-8 22.667-17.333 9.333-9.333 17.333-22.667 17.333-22.667"/><path d="m100 682.36c0 0 8 13.333 17.333 22.667 9.333 9.333 22.667 17.333 22.667 17.333 0 0-13.333 8-22.667 17.333-9.333 9.333-17.333 22.667-17.333 22.667 0 0-8-13.333-17.333-22.667-9.333-9.333-22.667-17.333-22.667-17.333 0 0 13.333-8 22.667-17.333 9.333-9.333 17.333-22.667 17.333-22.667"/><path d="m100 802.36c0 0 8 13.333 17.333 22.667 9.333 9.333 22.667 17.333 22.667 17.333 0 0-13.333 8-22.667 17.333-9.333 9.333-17.333 22.667-17.333 22.667 0 0-8-13.333-17.333-22.667-9.333-9.333-22.667-17.333-22.667-17.333 0 0 13.333-8 22.667-17.333 9.333-9.333 17.333-22.667 17.333-22.667"/><path d="m100 922.36c0 0 8 13.333 17.333 22.667 9.333 9.333 22.667 17.333 22.667 17.333 0 0-13.333 8-22.667 17.333-9.333 9.333-17.333 22.667-17.333 22.667 0 0-8-13.333-17.333-22.667-9.333-9.333-22.667-17.333-22.667-17.333 0 0 13.333-8 22.667-17.333 9.333-9.333 17.333-22.667 17.333-22.667"/><path d="m180 622.36c0 0 8 13.333 17.333 22.667 9.333 9.333 22.667 17.333 22.667 17.333 0 0-13.333 8-22.667 17.333-9.333 9.333-17.333 22.667-17.333 22.667 0 0-8-13.333-17.333-22.667-9.333-9.333-22.667-17.333-22.667-17.333 0 0 13.333-8 22.667-17.333 9.333-9.333 17.333-22.667 17.333-22.667"/><path d="m180 862.36c0 0 8 13.333 17.333 22.667 9.333 9.333 22.667 17.333 22.667 17.333 0 0-13.333 8-22.667 17.333-9.333 9.333-17.333 22.667-17.333 22.667 0 0-8-13.333-17.333-22.667-9.333-9.333-22.667-17.333-22.667-17.333 0 0 13.333-8 22.667-17.333 9.333-9.333 17.333-22.667 17.333-22.667"/></g></g></svg>