<?xml version="1.0" encoding="UTF-8" standalone="no"?>
<!-- Created with Inkscape (http://www.inkscape.org/) -->

<svg
   xmlns:dc="http://purl.org/dc/elements/1.1/"
   xmlns:cc="http://creativecommons.org/ns#"
   xmlns:rdf="http://www.w3.org/1999/02/22-rdf-syntax-ns#"
   xmlns:svg="http://www.w3.org/2000/svg"
   xmlns="http://www.w3.org/2000/svg"
   xmlns:xlink="http://www.w3.org/1999/xlink"
   version="1.1"
   width="360"
   height="540"
   id="svg2">
  <metadata
     id="metadata322">
    <rdf:RDF>
      <cc:Work
         rdf:about="">
        <dc:format>image/svg+xml</dc:format>
        <dc:type
           rdf:resource="http://purl.org/dc/dcmitype/StillImage" />
        <dc:title></dc:title>
      </cc:Work>
    </rdf:RDF>
  </metadata>
  <defs
     id="defs4">
    <path
       d="m 187.20652,81.52964 a 3.093592,2.916815 0 1 1 -6.18718,0 3.093592,2.916815 0 1 1 6.18718,0 z"
       id="0"
       style="fill:#55aa55;stroke:#000000;stroke-linecap:round;stroke-linejoin:round" />
    <path
       d="m 183.5,167 a 4,4 0 1 1 -8,0 4,4 0 1 1 8,0 z"
       id="1"
       style="fill:#ffaa55;stroke:#000000;stroke-linecap:round;stroke-linejoin:round" />
  </defs>
  <g
     transform="translate(0,-512.36)"
     id="g8">
    <rect
       width="359"
       height="539"
       rx="29.944"
       x="0.5"
       y="512.85999"
       id="rect10"
       style="fill:#ffffff;stroke:#000000;stroke-linecap:round;stroke-linejoin:round" />
    <path
       d="m 20,542.36 v 50 h 5 5 c 5.54,0 10,-4.46 10,-10 v -10 c 0,-3 -1.323,-5.67 -3.406,-7.5 2.083,-1.83 3.406,-4.496 3.406,-7.5 v -5 c 0,-5.54 -4.46,-10 -10,-10 h -5 z m 5,5 h 5 c 2.77,0 5,2.23 5,5 v 5 c 0,2.77 -2.23,5 -5,5 h -5 z m 0,20 h 5 c 2.77,0 5,2.23 5,5 v 10 c 0,2.77 -2.23,5 -5,5 h -5 z"
       id="path12" />
    <path
       d="m 340,1022.36 v -50 h -5 -5 c -5.54,0 -10,4.46 -10,10 v 10 c 0,3 1.323,5.67 3.406,7.5 -2.083,1.83 -3.406,4.496 -3.406,7.5 v 5 c 0,5.54 4.46,10 10,10 h 5 z m -5,-5 h -5 c -2.77,0 -5,-2.23 -5,-5 v -5 c 0,-2.77 2.23,-5 5,-5 h 5 z m 0,-20 h -5 c -2.77,0 -5,-2.23 -5,-5 v -10 c 0,-2.77 2.23,-5 5,-5 h 5 z"
       id="path14" />
    <g
       transform="translate(0,512.36)"
       id="g16"
       style="fill:none;stroke:#000000;stroke-width:2;stroke-linecap:round;stroke-linejoin:round">
      <path
         d="M 50,30 H 330 V 410"
         id="path18" />
      <path
         d="M 310,510 H 30 V 130"
         id="path20" />
      <path
         d="M 30,270 H 330"
         id="path22" />
    </g>
    <g
       id="g24"
       style="stroke:none">
      <path
         d="m 90,552.37 c -3.999,-0.082 -6.667,1.333 -9.333,4 -2.667,2.667 -4,5.333 -4,9.333 0,4 1.518,6.372 4,9.333 2.375,2.833 4,4 5.333,6.666 1.333,2.667 2.667,8 2.667,10.666 0,2.667 0,2.398 0,4 H 86 c -2.667,0 -8,-2.667 -9.333,-4 l -4,-4 c -2.667,-2.667 -5.333,-4 -9.333,-4 -4,0 -6.667,1.333 -9.333,4 -2.667,2.667 -4,5.333 -4,9.333 0,4 1.333,6.666 4,9.333 2.667,2.667 5.333,4 9.333,4 4,0 6.667,-1.333 9.333,-4 l 4,-4 c 1.333,-1.333 6.667,-4 9.333,-4 h 2.667 c -0.066,3.776 -0.346,10.37 -1.333,13.333 -1.333,4 -4,8 -6.667,10.666 -2.667,2.667 -10.667,8 -10.667,8 v 1.333 c 0,0 13.333,-2.667 16,-2.667 h 8 c 2.667,0 16,2.667 16,2.667 v -1.333 c 0,0 -8,-5.333 -10.667,-8 -2.667,-2.667 -5.333,-6.666 -6.667,-10.666 -0.988,-2.963 -1.267,-9.557 -1.333,-13.333 H 94 c 2.667,0 8,2.667 9.333,4 l 4,4 c 2.667,2.667 5.333,4 9.333,4 4,0 6.667,-1.333 9.333,-4 2.667,-2.667 4,-5.333 4,-9.333 0,-4 -1.333,-6.666 -4,-9.333 -2.667,-2.667 -5.333,-4 -9.333,-4 -4,0 -6.667,1.333 -9.333,4 l -4,4 c -1.333,1.333 -6.667,4 -9.333,4 h -2.667 c 0,-1.855 0,-1.333 0,-4 0,-2.667 1.333,-8 2.667,-10.666 1.333,-2.667 2.667,-4 5.333,-6.666 2.653,-2.653 4,-5.333 4,-9.333 0,-4 -1.333,-6.666 -4,-9.333 -2.667,-2.667 -5.333,-4 -9.333,-4"
         id="path26" />
      <path
         d="m 30,602.36 c -1.5,-0.031 -2.5,0.5 -3.5,1.5 -1,1 -1.5,2 -1.5,3.5 0,1.5 0.569,2.39 1.5,3.5 0.891,1.063 1.5,1.5 2,2.5 0.5,1 1,3 1,4 0,1 0,0.899 0,1.5 h -1 c -1,0 -3,-1 -3.5,-1.5 l -1.5,-1.5 c -1,-1 -2,-1.5 -3.5,-1.5 -1.5,0 -2.5,0.5 -3.5,1.5 -1,1 -1.5,2 -1.5,3.5 0,1.5 0.5,2.5 1.5,3.5 1,1 2,1.5 3.5,1.5 1.5,0 2.5,-0.5 3.5,-1.5 l 1.5,-1.5 c 0.5,-0.5 2.5,-1.5 3.5,-1.5 h 1 c -0.025,1.416 -0.13,3.889 -0.5,5 -0.5,1.5 -1.5,3 -2.5,4 -1,1 -4,3 -4,3 v 0.5 c 0,0 5,-1 6,-1 h 3 c 1,0 6,1 6,1 v -0.5 c 0,0 -3,-2 -4,-3 -1,-1 -2,-2.5 -2.5,-4 -0.37,-1.111 -0.475,-3.584 -0.5,-5 h 1 c 1,0 3,1 3.5,1.5 l 1.5,1.5 c 1,1 2,1.5 3.5,1.5 1.5,0 2.5,-0.5 3.5,-1.5 1,-1 1.5,-2 1.5,-3.5 0,-1.5 -0.5,-2.5 -1.5,-3.5 -1,-1 -2,-1.5 -3.5,-1.5 -1.5,0 -2.5,0.5 -3.5,1.5 l -1.5,1.5 c -0.5,0.5 -2.5,1.5 -3.5,1.5 h -1 c 0,-0.696 0,-0.5 0,-1.5 0,-1 0.5,-3 1,-4 0.5,-1 1,-1.5 2,-2.5 0.995,-0.995 1.5,-2 1.5,-3.5 0,-1.5 -0.5,-2.5 -1.5,-3.5 -1,-1 -2,-1.5 -3.5,-1.5"
         id="path28" />
      <path
         d="m 330,962.36 c -1.5,0.031 -2.5,-0.5 -3.5,-1.5 -1,-1 -1.5,-2 -1.5,-3.5 0,-1.5 0.569,-2.39 1.5,-3.5 0.891,-1.063 1.5,-1.5 2,-2.5 0.5,-1 1,-3 1,-4 0,-1 0,-0.899 0,-1.5 h -1 c -1,0 -3,1 -3.5,1.5 l -1.5,1.5 c -1,1 -2,1.5 -3.5,1.5 -1.5,0 -2.5,-0.5 -3.5,-1.5 -1,-1 -1.5,-2 -1.5,-3.5 0,-1.5 0.5,-2.5 1.5,-3.5 1,-1 2,-1.5 3.5,-1.5 1.5,0 2.5,0.5 3.5,1.5 l 1.5,1.5 c 0.5,0.5 2.5,1.5 3.5,1.5 h 1 c -0.025,-1.416 -0.13,-3.889 -0.5,-5 -0.5,-1.5 -1.5,-3 -2.5,-4 -1,-1 -4,-3 -4,-3 v -0.5 c 0,0 5,1 6,1 h 3 c 1,0 6,-1 6,-1 v 0.5 c 0,0 -3,2 -4,3 -1,1 -2,2.5 -2.5,4 -0.37,1.111 -0.475,3.584 -0.5,5 h 1 c 1,0 3,-1 3.5,-1.5 l 1.5,-1.5 c 1,-1 2,-1.5 3.5,-1.5 1.5,0 2.5,0.5 3.5,1.5 1,1 1.5,2 1.5,3.5 0,1.5 -0.5,2.5 -1.5,3.5 -1,1 -2,1.5 -3.5,1.5 -1.5,0 -2.5,-0.5 -3.5,-1.5 l -1.5,-1.5 c -0.5,-0.5 -2.5,-1.5 -3.5,-1.5 h -1 c 0,0.696 0,0.5 0,1.5 0,1 0.5,3 1,4 0.5,1 1,1.5 2,2.5 0.995,0.995 1.5,2 1.5,3.5 0,1.5 -0.5,2.5 -1.5,3.5 -1,1 -2,1.5 -3.5,1.5"
         id="path30" />
      <path
         d="m 270,1012.36 c -3.999,0.081 -6.667,-1.333 -9.333,-4 -2.667,-2.667 -4,-5.333 -4,-9.333 0,-4 1.518,-6.372 4,-9.333 2.375,-2.833 4,-4 5.333,-6.666 1.333,-2.667 2.667,-8 2.667,-10.666 0,-2.667 0,-2.398 0,-4 H 266 c -2.667,0 -8,2.667 -9.333,4 l -4,4 c -2.667,2.667 -5.333,4 -9.333,4 -4,0 -6.667,-1.333 -9.333,-4 -2.667,-2.667 -4,-5.333 -4,-9.333 0,-4 1.333,-6.666 4,-9.333 2.667,-2.667 5.333,-4 9.333,-4 4,0 6.667,1.333 9.333,4 l 4,4 c 1.333,1.333 6.667,4 9.333,4 h 2.667 c -0.066,-3.776 -0.346,-10.37 -1.333,-13.333 -1.333,-4 -4,-8 -6.667,-10.666 -2.667,-2.667 -10.667,-8 -10.667,-8 v -1.333 c 0,0 13.333,2.667 16,2.667 h 8 c 2.667,0 16,-2.667 16,-2.667 v 1.333 c 0,0 -8,5.333 -10.667,8 -2.667,2.667 -5.333,6.666 -6.667,10.666 -0.988,2.963 -1.267,9.557 -1.333,13.333 H 274 c 2.667,0 8,-2.667 9.333,-4 l 4,-4 c 2.667,-2.667 5.333,-4 9.333,-4 4,0 6.667,1.333 9.333,4 2.667,2.667 4,5.333 4,9.333 0,4 -1.333,6.666 -4,9.333 -2.667,2.667 -5.333,4 -9.333,4 -4,0 -6.667,-1.333 -9.333,-4 l -4,-4 c -1.333,-1.333 -6.667,-4 -9.333,-4 h -2.667 c 0,1.855 0,1.333 0,4 0,2.667 1.333,8 2.667,10.666 1.333,2.667 2.667,4 5.333,6.666 2.653,2.653 4,5.333 4,9.333 0,4 -1.333,6.666 -4,9.333 -2.667,2.667 -5.333,4 -9.333,4"
         id="path32" />
    </g>
    <g
       id="g34">
      <path
         d="m 133.5,650.86 c -9.14,4.75 -19.285,7.242 -28.421,11.874 -3.202,2.152 -5.161,5.164 -6.104,8.882 -14.158,36.748 -28.317,73.5 -42.475,110.24 15.5,0.333 30,0.167 45,0 -1.738,-2.526 -5.347,-5.944 -2.997,-9.132 3.989,-9.247 5.551,-17.352 8.897,-26.832 0.754,-2.662 1.6,-4.846 4.579,-5.757 0.92,2.978 1.287,4.124 1.569,7.248 0.994,6.28 2.602,12.539 6.1,17.963 2.022,3.8 3.93,10.158 5.853,14.01 8.572,-2.233 16.28,-3.062 25.946,-3.75 12.556,-0.345 26.06,-0.423 38.969,-0.75 13.03,0 26.06,1.25 39.09,1.25 6.917,1.75 9.833,1.5 15.25,3.25 1.192,-7.686 1.754,-13.679 4.117,-21.08 2.397,-4.263 1.571,-9.258 2.633,-13.92 2.767,1.812 2.769,5.402 3.756,8.261 1.266,3.666 3.529,7.01 2.744,11.308 -0.373,3.524 -0.88,6.982 1.515,9.961 0.804,2.617 0.369,8.095 4.174,7.992 12.1,0.159 24.21,0.319 36.31,0.478 3.452,-6.679 4.231,-14.209 4,-21.632 -0.147,-5.995 0.883,-12.197 -2.104,-17.695 -2.359,-6.738 -4.474,-13.596 -8.993,-19.261 -5.324,-7.571 -9.791,-15.626 -13.562,-24.07 -3.894,-7.684 -6.535,-15.94 -11.42,-23.11 -3.456,-4.831 -5.982,-10.667 -11.535,-13.456 -4.688,-3.181 -10.271,-8.905 -16.28,-8.131 -28.346,0.152 -75.43,-17.727 -106.61,-4.139 z"
         id="2"
         style="fill:#aa0000;stroke:#000000;stroke-linecap:round;stroke-linejoin:round" />
      <path
         d="m 136.83,657.8 3.889,9.899 5.303,15.91 5.303,18.03 3.889,19.799 1.768,12.374 0.354,9.899 1.061,10.253 1.061,11.314 0.354,9.925 18.385,0.707 h 34.29 l 16.824,0.793 7.571,-25.567 2.121,-13.435 0.707,-6.718 1.768,-45.25 -1.061,-16.263 1.061,-12.374 -0.354,-2.121 -15.556,-10.607 -25.1,-6.364 -29.345,-1.061 -24.395,7.425 -12.374,7.07 3.182,8.132 z"
         id="3"
         style="fill:#5555aa;stroke:#000000" />
      <path
         d="m 146,596.11 c -2.383,2.427 -3.587,5.793 -4.388,9.04 -1.03,3.75 1.508,7.422 0.477,11.152 -1.672,2.929 -5.34,3.989 -7.08,6.932 -1.787,2.684 -1.05,6.124 -0.34,9.04 2.503,2.78 -2.317,2.174 -3.734,2.834 -3.089,1.439 -5.389,3.497 -6.893,6.199 -1.329,3.823 0.145,8.06 2.983,10.794 1.985,2.184 4.453,4 7.168,5.144 3.684,0.51 7.513,-0.041 10.156,-2.462 1.887,-1.455 3.756,-3.342 5.01,-6.5 1.316,2.625 4.01,1.194 5.145,-0.779 2.126,-2.153 4.569,-4.02 6.786,-6.05 1.597,-2.116 -2.513,-3.267 -3.259,-5.132 -4.642,-5.695 -6.286,-13.09 -7.834,-20.11 -1.272,-6.784 -1.646,-13.733 -1.19,-20.616 1.277,-3.01 -2.247,10e-5 -3.01,0.512 z"
         id="4"
         style="fill:#af5500;stroke:#000000;stroke-linecap:round;stroke-linejoin:round" />
      <path
         d="m 196.25,561.86 c 0,1.62 3.336,5.759 3.978,8.965 0.554,2.761 -0.51,5.649 -0.186,8.446 0.179,1.547 0.69,3.042 1.169,4.523 0.862,2.663 2.516,5.074 3.06,7.819 0.91,4.589 0.084,9.357 0.259,14.03 0.226,6.03 0.263,8.671 1.414,14.319 0.542,2.658 -1.14,5.096 -2.359,7.368 -0.475,0.886 -1.802,1.353 -1.884,2.354 -0.109,1.336 1.3,2.346 1.968,3.508 0.687,1.195 1.254,2.473 2.098,3.563 0.725,0.937 1.415,2.065 2.511,2.514 1.338,0.547 3.048,0.689 4.336,-0.043 0.487,2.836 0.791,2.729 1.375,4.02 2.027,4.474 3.081,10.323 7.334,12.78 2.456,1.419 5.69,0.301 8.508,-0.018 3.65,-0.413 7.669,-0.432 10.746,-2.438 1.021,-0.666 1.593,-1.867 2.178,-2.937 1.177,-2.153 2.137,-4.475 2.61,-6.883 0.569,-2.901 0.995,-6.01 0.223,-8.865 -0.615,-2.273 -2.889,-3.804 -3.713,-6.01 -0.958,-2.565 0.035,-5.727 -1.318,-8.108 -1.443,-2.541 -4.559,-3.665 -6.713,-5.641 -0.656,-0.601 -1.699,-1.018 -1.888,-1.888 -0.493,-2.273 2.534,-4.209 2.448,-6.533 -0.128,-3.436 -2.706,-6.332 -4.327,-9.364 -0.986,-1.843 -2.504,-3.405 -3.274,-5.348 -0.536,-1.352 -0.426,-2.893 -0.889,-4.271 -0.699,-2.079 -1.938,-3.936 -2.823,-5.942 -1.358,-3.079 -1.936,-6.554 -3.814,-9.346 -1.413,-2.1 -3.378,-3.826 -5.43,-5.308 -1.941,-1.402 -4.112,-2.532 -6.38,-3.297 -3.597,-1.214 -7.439,-1.535 -11.218,-1.969 z"
         id="5"
         style="fill:#af5500;stroke:#000000;stroke-linecap:round;stroke-linejoin:round" />
      <path
         d="m 149.5,593.86 c -0.85,3.872 -0.783,7.162 -0.676,10.751 0.143,4.807 0.675,9.635 1.761,14.319 1.01,4.344 2.392,8.648 4.378,12.641 1.452,2.921 2.964,6.01 5.441,8.134 2.522,2.161 5.768,3.589 9.03,4.204 3.661,0.69 7.532,0.168 11.153,-0.705 3.417,-0.823 6.666,-2.378 9.672,-4.201 4.03,-2.443 7.833,-5.396 10.99,-8.894 2.437,-2.701 5.289,-5.566 5.962,-9.141 0.741,-3.934 -2.042,-7.775 -2.454,-11.757 -0.304,-2.935 0.112,-5.903 -0.007,-8.852 -0.131,-3.246 -0.051,-6.549 -0.779,-9.715 -0.744,-3.238 -3.092,-6.01 -3.622,-9.287 -0.556,-3.439 1.377,-7.06 0.534,-10.438 -0.923,-3.699 -2.986,-8.07 -5.882,-9.809 -2.566,-1.695 -6.618,-0.261 -9.855,0.305 -6.01,1.051 -11.746,3.387 -17.402,5.674 -6.342,2.564 -11.1,8.555 -14.59,14.444 -2.039,3.443 -1.81,7.829 -3.304,11.541 -0.054,0.133 -0.143,0.25 -0.202,0.381 -0.058,0.131 -0.029,0.322 -0.147,0.405 z"
         id="6"
         style="fill:#ffaaaa;stroke:#000000;stroke-linecap:round;stroke-linejoin:round" />
      <path
         d="m 150.75,579.36 c -0.273,2.02 1.804,4.465 2.946,1.605 2.01,-3.239 5.201,-7.349 8.107,-9.903 3.906,-3.919 8.201,-4.478 13.12,-6.627 9.859,-3.703 20.694,-3.147 30.879,-1.281 5.919,1.278 11.498,4.956 14.02,10.61 1.521,1.824 0.69,8.647 4.249,6.561 2.349,-1.301 3.544,-4.786 3.12,-7.308 -0.311,-5.249 -4.419,-9.343 -8.691,-11.908 -8.533,-4.898 -18.686,-5.927 -28.329,-4.969 -8.36,0.087 -16.607,2.041 -24.282,5.307 -3.885,1.249 -7.499,3.306 -10.263,6.347 -2.193,2.406 -5.743,4.189 -5.862,7.86 -0.148,1.323 0.547,2.509 0.986,3.706 z"
         id="7"
         style="fill:#5555aa;stroke:#000000;stroke-linecap:round;stroke-linejoin:round" />
      <path
         d="m 150.5,573.86 c -1.967,4.517 2.494,8.211 1,12.858 0.118,3.583 -1.838,7.334 -4.948,9.02 -5.02,2.286 -8.702,-3.266 -10.862,-6.992 -2.43,-4.192 -0.305,-9.603 -0.752,-14.516 -0.345,-5.756 0.449,-11.1 3.749,-16.824 6.86,-5.02 12.857,-8.722 21.04,-10.849 5.122,-2.126 12.141,-4.371 17.846,-4.505 13.492,-1.148 27.21,-1.139 40.564,1.257 5.26,1.569 10.915,2.546 15.558,5.618 7.682,5.757 10.555,16.458 8.693,25.618 -1.627,4.481 -4.185,9.43 -8.573,11.699 -3.878,2.027 -10.195,2.843 -10.337,-3.362 -0.377,-4.03 5.7,-5.803 3.407,-10.488 -0.982,-5.691 -5.769,-9.562 -10.764,-11.802 -7.782,-4.309 -16.915,-4.726 -25.597,-4.227 -9.895,-0.325 -19.553,2.85 -28.472,6.863 -4.494,2.586 -8.744,6.264 -11.558,10.627 z"
         id="8"
         style="fill:#aa0000;stroke:#000000;stroke-linecap:round;stroke-linejoin:round" />
      <path
         d="m 155,579.61 c 1.732,-0.627 4.117,-1.753 6,-1 1.661,0.664 2.804,2.551 3.226,4.29 0.96,3.96 -1.275,8.05 -2.055,12.05 -0.547,2.803 -1.071,5.618 -1.838,8.369 -0.428,1.533 -1.973,2.99 -1.537,4.521 0.29,1.019 1.596,1.399 2.454,2.02 1.029,0.746 1.951,2.127 3.22,2.043 1.176,-0.078 1.633,-1.794 2.711,-2.271 0.821,-0.363 1.785,-0.205 2.669,-0.364 0.744,-0.134 1.721,0.077 2.213,-0.497 0.881,-1.028 0.895,-2.85 0.273,-4.053 -0.105,-0.203 -0.383,-0.251 -0.586,-0.358"
         id="9"
         style="fill:none;stroke:#000000;stroke-linecap:round;stroke-linejoin:round" />
      <path
         d="m 173.95,584.86 c -0.177,-0.884 -0.734,-1.774 -0.53,-2.652 0.187,-0.807 0.812,-1.527 1.51,-1.974 1.09,-0.698 2.507,-0.67 3.788,-0.854 1.845,-0.265 3.717,-0.401 5.58,-0.354 1.183,0.03 2.42,-0.016 3.527,0.403 1.187,0.449 2.116,1.406 3.122,2.18 1.297,0.999 2.439,2.189 3.747,3.174 0.207,0.156 0.431,0.287 0.646,0.431"
         id="A"
         style="fill:none;stroke:#000000;stroke-linecap:round;stroke-linejoin:round" />
      <path
         d="m 175.36,590.27 c 0.518,-0.819 0.78,-1.859 1.507,-2.511 1.134,-1.016 2.644,-1.683 4.15,-1.909 1.601,-0.24 3.318,0.025 4.812,0.648 1.633,0.681 2.593,2.509 4.204,3.241 0.582,0.264 1.288,0.135 1.881,0.374 0.802,0.322 1.307,1.168 2.185,1.394"
         id="B"
         style="fill:none;stroke:#000000;stroke-linecap:round;stroke-linejoin:round" />
      <path
         d="m 176.73,590.72 c 0.788,-1.035 2.673,-0.932 4.077,-1.184 1.076,-0.193 2.196,-0.369 3.285,-0.242 1.238,0.144 2.362,0.706 3.516,1.118 1.091,0.389 2.059,1.088 3.219,1.275 0.816,0.131 2.237,-0.816 2.486,-0.132 0.433,1.191 -2.531,1.207 -3.703,1.947 -0.735,0.464 -1.298,1.15 -2.073,1.556 -0.604,0.317 -1.276,0.54 -1.959,0.661 -1.075,0.19 -2.191,0.17 -3.282,0.084 -0.897,-0.071 -1.834,-0.135 -2.648,-0.49 -0.592,-0.258 -0.788,-0.547 -1.521,-1.146 -0.679,-0.554 -1,-1.22 -1.252,-1.934 -0.169,-0.482 -0.468,-1.09 -0.146,-1.513 z"
         id="C"
         style="fill:#ffffff;fill-opacity:0.98200001;stroke:#000000;stroke-linecap:round;stroke-linejoin:round" />
      <path
         d="m 162.99,587.97 c -0.809,-1.056 -1.313,-2.428 -2.391,-3.217 -0.835,-0.611 -1.903,-0.932 -2.934,-1.01 -1.053,-0.08 -2.091,0.318 -3.118,0.569 -0.913,0.223 -1.791,0.564 -2.694,0.83"
         id="D"
         style="fill:none;stroke:#000000;stroke-linecap:round;stroke-linejoin:round" />
      <path
         d="m 162.63,589.91 c -0.527,-1.857 -3.536,-1.695 -5.448,-1.965 -1,-0.142 -2.04,0.013 -3.038,0.197 -0.975,0.181 -2.151,0.172 -2.842,0.884 -0.402,0.414 -0.598,1.106 -0.466,1.668 0.132,0.563 0.744,0.89 1.163,1.29 0.699,0.668 1.347,1.476 2.243,1.84 1.016,0.412 2.188,0.404 3.277,0.275 0.843,-0.1 1.721,-0.315 2.417,-0.801 1.183,-0.826 3.089,-1.999 2.695,-3.387 z"
         id="E"
         style="fill:#ffffff;fill-opacity:0.98200001;stroke:#000000;stroke-linecap:round;stroke-linejoin:round" />
      <use
         transform="matrix(0.77143,0,0,0.87879,14.594,518.8)"
         id="use49"
         style="stroke-width:1.21500003"
         x="0"
         y="0"
         width="360"
         height="540"
         xlink:href="#0" />
      <use
         transform="matrix(0.85714,0,0,0.87879,25.302,520.69)"
         id="use51"
         style="stroke-width:1.15199995"
         x="0"
         y="0"
         width="360"
         height="540"
         xlink:href="#0" />
      <path
         d="m 157.50804,77.64056 a 0.707107,0.795495 0 1 1 -1.41421,0 0.707107,0.795495 0 1 1 1.41421,0 z"
         transform="translate(0,512.36)"
         id="path53"
         style="stroke:#000000;stroke-linecap:round;stroke-linejoin:round" />
      <path
         d="m 185.26198,79.5851 a 0.883885,0.972273 0 1 1 -1.76777,0 0.883885,0.972273 0 1 1 1.76777,0 z"
         transform="translate(-0.75,512.49)"
         id="F"
         style="stroke:#000000;stroke-linecap:round;stroke-linejoin:round" />
      <g
         transform="translate(1.414,-0.177)"
         id="g56"
         style="stroke-linecap:round;stroke-linejoin:round">
        <path
           d="m 158.1,619.11 c 0.327,-1 1.467,-1.285 2.222,-1.877 0.556,-0.42 0.902,-1.192 1.689,-1.227 0.882,-0.113 1.95,0.019 2.475,0.826 0.532,0.49 1.583,0.418 1.591,-0.352 0.446,-0.371 1.586,-0.326 2.095,-0.297 1.415,0.298 2.07,0.923 3.329,1.631 0.521,0.264 1.315,0.472 1.35,1.17 -0.211,0.784 -1.362,0.555 -1.736,1.249 -0.825,0.978 -1.311,1.137 -2.203,2.066 -0.671,0.859 -1.456,1.791 -2.608,1.941 -1.369,0.218 -2.753,-0.102 -4.08,-0.425 -0.869,-0.24 -1.774,-0.735 -2.059,-1.654 -0.233,-0.792 -0.749,-0.372 -1.189,-1.053 -0.338,-0.58 -0.616,-1.197 -0.88,-1.81 l -0.009,-0.095 0.014,-0.095 z"
           id="w"
           style="fill:#ff5555;stroke:#000000" />
        <path
           d="m 158.1,619.36 c 0.943,-0.071 1.896,-0.076 2.822,-0.287 0.766,-0.213 1.039,0.719 1.714,0.833 0.998,0.26 2.069,0.418 3.089,0.203 0.656,-0.207 1.168,-0.7 1.794,-0.977 0.633,-0.432 1.422,-0.522 2.16,-0.358 0.827,0.054 1.594,0.438 2.422,0.46 0.172,-0.011 0.338,-0.07 0.5,-0.125"
           id="x"
           style="fill:#ff5555;stroke:#000000" />
      </g>
      <path
         d="m 167.19,612.24 c 0.813,-0.037 2.198,-0.126 3.288,-0.014 0.825,0.085 1.661,0.214 2.433,0.517 1.313,0.516 2.52,1.304 3.631,2.173 0.38,0.297 0.727,0.644 1.021,1.026 0.609,0.793 0.769,1.919 1.507,2.592 0.347,0.317 0.81,0.647 1.277,0.594 0.549,-0.062 0.887,-0.661 1.309,-1.017 0.373,-0.315 0.65,-0.758 1.08,-0.99 0.455,-0.246 0.989,-0.34 1.505,-0.383 1.044,-0.087 2.145,-0.094 3.131,0.258 0.479,0.171 1.198,0.361 1.255,0.867 0.051,0.448 -0.494,0.827 -0.91,1 -0.913,0.381 -2.068,-0.543 -2.965,-0.125 -1.34,0.624 -1.571,2.567 -2.708,3.512 -0.551,0.458 -1.236,0.743 -1.912,0.98 -1.069,0.374 -2.202,0.43 -3.329,0.676 -0.808,0.176 -1.62,-0.465 -2.295,-0.944 -1.076,-0.763 -1.656,-2.067 -2.631,-2.956 -0.828,-0.755 -1.769,-1.38 -2.705,-1.995 -0.847,-0.556 -1.645,-1.281 -2.628,-1.529 -0.865,-0.218 -1.818,-0.165 -2.674,0.087 -0.65,0.191 -1.279,0.551 -1.745,1.044 -0.597,0.633 -0.657,1.641 -1.208,2.314 -0.384,0.469 -0.878,0.862 -1.415,1.143 -0.679,0.356 -1.441,0.688 -2.207,0.647 -0.717,-0.038 -1.341,-0.52 -1.992,-0.823 -0.468,-0.218 -0.921,-0.469 -1.375,-0.714 -0.41,-0.222 -0.819,-0.445 -1.219,-0.685 -0.506,-0.305 -1.169,-0.463 -1.492,-0.958 -0.266,-0.409 -0.428,-1 -0.225,-1.446 0.138,-0.301 0.512,-0.532 0.843,-0.526 0.771,0.014 1.144,1.304 1.915,1.297 0.692,-0.007 1.215,-0.699 1.696,-1.196 0.708,-0.732 0.895,-1.903 1.679,-2.554 0.667,-0.553 1.577,-0.725 2.398,-1 0.662,-0.225 1.331,-0.482 2.028,-0.534 0.536,-0.04 1.069,0.11 1.603,0.173 0.521,0.061 0.81,0.022 1.56,0.2 0.646,-0.142 1.77,-0.634 2.474,-0.709 z"
         id="G"
         style="fill:#aa5500;stroke:#000000;stroke-linecap:round;stroke-linejoin:round" />
      <path
         d="m 150.69,650.01 c 0.948,2.723 2.943,5.807 4.727,8.115 2.423,3.775 5.02,7.473 7.679,11.07 1.939,1.926 4.166,3.595 5.654,5.923 4.304,-4.134 8.827,-8.02 13.54,-11.677 1.628,-0.988 -1.746,-1.436 -2.483,-2.169 -2.226,-1.335 -4.352,-2.955 -6.286,-4.683 -2.045,-2.387 -4.56,-4.452 -5.655,-7.488 -1.23,-2.947 -4.382,-5.729 -6.177,-8.336 -1.547,-0.801 -2.161,1.476 -3.241,2.215 -2.61,2.315 -5.256,4.594 -7.759,7.03 z"
         id="H"
         style="fill:#ffffff;stroke:#000000;stroke-linecap:round;stroke-linejoin:round" />
      <path
         d="m 194,662.36 c 3.647,3.745 7.543,7.303 11.918,10.168 1.051,1.61 2.054,1.743 2.997,-0.026 2.061,-2.405 4.447,-4.587 5.616,-7.601 1.51,-3.337 3.566,-6.343 5.719,-9.291 -1.59,-2.261 -3.417,-4.401 -4.02,-7.17 -1.025,-3.232 -2.638,-5.794 -3.801,-8.976 -1.683,-0.121 -3.78,0.144 -5.03,-1.322 -0.944,-0.354 -0.369,2.589 -0.724,3.512 -0.144,2.897 -1.254,5.653 -2.038,8.413 -2.252,3.859 -2.51,5.883 -6.276,8.503 -0.784,0.634 -3.497,3.266 -4.355,3.791 z"
         id="I"
         style="fill:#ffffff;stroke:#000000;stroke-linecap:round;stroke-linejoin:round" />
      <path
         d="m 162.75,641.86 c 2.502,4.171 5.627,7.922 8.102,12.11 1.216,1.658 3.01,2.801 4.471,4.238 1.281,1.199 2.654,2.264 4.219,3.063 1.779,1.217 3.576,2.696 5.802,2.885 1.693,0.06 3.483,0.518 5.03,-0.425 1.64,-1.024 3.874,-1.448 5.332,-2.702 2.471,-1.858 4.452,-3.256 6.394,-5.633 1.371,-2.343 2.583,-4.792 3.285,-7.427 1.2,-2.887 1.485,-6.921 1.797,-9.989 -2.067,-1.442 -1.701,-3.285 -3.223,-4.916 -1.037,-0.961 -1.477,-2.925 -2.521,-3.078 -1.615,1.777 -4.41,4.73 -6.569,5.899 -2.788,1.826 -5.401,3.981 -8.539,5.19 -2.63,1.24 -5.421,2.119 -8.234,2.817 -2.721,0.105 -5.471,0.48 -8.183,0.369 -2.415,-0.708 -4.788,-1.551 -7.157,-2.398 z"
         id="J"
         style="fill:#ffaaaa;stroke:#000000;stroke-linecap:round;stroke-linejoin:round" />
      <path
         d="m 169.25,674.61 2.25,9.25 1.5,11.5 2.25,16.25 1.5,14.25 0.25,9.25 v 9.5 l 0.75,13.5 0.5,8.75 0.25,9 H 213 l 1,-16.75 1.25,-16.5 -0.25,-16.5 v -20.5 l -1,-11.75 -2,-15 -2,-7.5 -2,2.25 -5,-3.5 -4.5,-3.25 -2.75,-2.75 -1.5,-2 -3.75,1.5 -3.75,0.75 -3,-0.75 -1.5,-0.5 -4.25,4.25 -4.5,3.25 z"
         id="K"
         style="fill:#ffffff;stroke:#000000;stroke-linecap:round;stroke-linejoin:round" />
      <path
         d="m 187.25,664.61 3,17 1.75,14.25 2.25,16.25 1.75,16.25 0.5,12.25 v 17 l -0.5,8.75 -0.5,9.5"
         id="L"
         style="fill:none;stroke:#000000;stroke-linecap:round;stroke-linejoin:round" />
      <path
         d="m 198.75,775.86 1.25,-21.75 -0.25,-23.25 -2,-21 -2,-11 -1.5,-11 -1.25,-9.25 -2,-9.5 -0.75,-5.25"
         id="M"
         style="fill:none;stroke:#000000;stroke-linecap:round;stroke-linejoin:round" />
      <use
         transform="translate(1.25,512.61)"
         id="use67"
         x="0"
         y="0"
         width="360"
         height="540"
         xlink:href="#1" />
      <use
         transform="translate(3.5,526.61)"
         id="use69"
         x="0"
         y="0"
         width="360"
         height="540"
         xlink:href="#1" />
      <use
         transform="translate(5.75,541.86)"
         id="use71"
         x="0"
         y="0"
         width="360"
         height="540"
         xlink:href="#1" />
      <use
         transform="translate(7.25,558.11)"
         id="use73"
         x="0"
         y="0"
         width="360"
         height="540"
         xlink:href="#1" />
      <use
         transform="translate(28.25,559.11)"
         id="use75"
         x="0"
         y="0"
         width="360"
         height="540"
         xlink:href="#1" />
      <use
         transform="translate(27.5,542.11)"
         id="use77"
         x="0"
         y="0"
         width="360"
         height="540"
         xlink:href="#1" />
      <use
         transform="translate(25.5,526.36)"
         id="use79"
         x="0"
         y="0"
         width="360"
         height="540"
         xlink:href="#1" />
      <use
         transform="translate(22.75,511.61)"
         id="use81"
         x="0"
         y="0"
         width="360"
         height="540"
         xlink:href="#1" />
      <use
         transform="translate(7.25,573.36)"
         id="use83"
         x="0"
         y="0"
         width="360"
         height="540"
         xlink:href="#1" />
      <use
         transform="translate(7.75,588.11)"
         id="use85"
         x="0"
         y="0"
         width="360"
         height="540"
         xlink:href="#1" />
      <use
         transform="translate(7.5,601.61)"
         id="use87"
         x="0"
         y="0"
         width="360"
         height="540"
         xlink:href="#1" />
      <use
         transform="translate(26.75,601.36)"
         id="use89"
         x="0"
         y="0"
         width="360"
         height="540"
         xlink:href="#1" />
      <use
         transform="translate(27.25,587.11)"
         id="use91"
         x="0"
         y="0"
         width="360"
         height="540"
         xlink:href="#1" />
      <use
         transform="translate(28,573.36)"
         id="use93"
         x="0"
         y="0"
         width="360"
         height="540"
         xlink:href="#1" />
      <path
         d="m 265.17,576.48 c 4.36,-9.428 8.721,-18.856 13.08,-28.28 1.635,-2.289 2.209,0.669 2.096,2.191 -0.227,10.112 -0.454,20.224 -0.682,30.336 -1.256,-0.226 -3.725,-3.046 -4.055,-1.29 -1.544,7.312 -2.231,14.769 -3.369,22.15 2.898,-0.094 5.895,0.188 8.731,-0.14 2.073,-1.422 4.943,-2.032 5.868,-4.627 1.466,-1.369 1.208,-3.883 0.958,-5.839 -0.236,-1.844 -0.637,-3.413 -2.259,-5.099 -1.35,-1.56 1.809,-2.486 2.582,-3.747 2.699,-2.19 5.05,-4.698 6.972,-7.598 2.245,-3.126 4.771,-6.03 7.201,-9.01 2.082,2.63 4.168,5.254 5.751,8.19 2.343,4.346 4.01,9.07 5.446,13.775 1.075,4.861 2.247,9.708 2.34,14.712 0.537,5.908 0.329,11.856 -0.625,17.711 -0.696,4.104 -1.807,8.169 -2.974,12.161 -1.713,4.254 -3.18,8.629 -5.838,12.414 -2.521,4.542 -3.623,5.611 -6.298,10.07 -1.544,2.39 -5.994,7.184 -8.391,8.797 -1.302,1.097 -2.605,2.193 -3.907,3.29 -3.146,-7.674 -6.106,-15.43 -9.976,-22.781 -0.345,-1.444 -2.813,-3.405 -0.548,-4.213 1.268,-1.067 2.525,-2.165 3.127,-3.65 1.02,-2.513 1.312,-5.529 0.51,-8.12 -0.694,-2.241 -2.324,-4.333 -4.331,-5.546 -2.212,-1.336 -5.084,-2.741 -7.629,-1.381 -1.917,-0.104 -2.33,-1.742 -4.192,-1.706 -2.61,0.978 -3.615,0.744 -3.165,-1.375 -0.655,-0.956 -3.115,-0.606 -4.483,-0.726 -1.638,0.109 -2.768,2.02 -3.601,3.348 -1.239,1.126 -0.579,3.535 -1.956,4.255 -1.352,-0.11 -2.259,-2.606 -2.635,-4.02 -0.634,-1.655 -0.056,-3.593 0.69,-5.086 0.799,-1.332 3.27,-2.833 0.84,-3.839 -2.579,-2.271 -4.627,-5.084 -7.198,-7.382 2.363,-1.738 3.094,-2.91 4.95,-3.889 1.906,-1.01 6.163,-0.753 6.165,-1.944 -1.01,-1.63 -0.806,-3.317 -0.119,-5.03 0.461,-2.379 3.309,-3.121 5.267,-3.991 0.07,2.152 -0.43,4.437 1.011,6.265 0.926,1.661 2.417,3.33 4.476,3.253 0.657,-1.546 0.695,-3.955 1.115,-5.831 0.863,-5.354 1.727,-10.707 2.59,-16.06 -1.179,-0.236 -2.357,-0.471 -3.536,-0.707 z"
         id="path95"
         style="fill:#aaaaff;stroke:#000000;stroke-linecap:round;stroke-linejoin:round" />
      <path
         d="m 264.81,599.11 -3.182,18.738"
         id="N"
         style="fill:none;stroke:#000000;stroke-linecap:butt;stroke-linejoin:miter" />
      <path
         d="m 272.24,601.58 -2.828,19.09"
         id="O"
         style="fill:none;stroke:#000000;stroke-linecap:butt;stroke-linejoin:miter" />
      <path
         d="m 279.66,547.84 -7.07,27.22 3.536,4.243"
         id="P"
         style="fill:none;stroke:#000000;stroke-linecap:butt;stroke-linejoin:miter" />
      <path
         d="m 272.59,574.36 -3.536,2.475"
         id="Q"
         style="fill:none;stroke:#000000;stroke-linecap:butt;stroke-linejoin:miter" />
      <path
         d="m 298.73,605.66 c -0.972,-0.235 -1.699,-0.032 -2.494,0.475 -0.794,0.508 -1.263,1.087 -1.478,2.064 -0.215,0.977 0.029,1.637 0.476,2.494 0.428,0.819 0.762,1.191 0.944,1.914 0.182,0.723 0.222,2.096 0.078,2.748 -0.143,0.651 -0.129,0.585 -0.215,0.977 l -0.651,-0.143 c -0.651,-0.143 -1.81,-1.081 -2.064,-1.478 l -0.762,-1.191 c -0.508,-0.794 -1.087,-1.263 -2.064,-1.478 -0.977,-0.215 -1.699,-0.032 -2.494,0.475 -0.794,0.508 -1.263,1.087 -1.478,2.064 -0.215,0.977 -0.032,1.699 0.476,2.494 0.508,0.794 1.087,1.263 2.064,1.478 0.977,0.215 1.699,0.032 2.494,-0.475 l 1.191,-0.762 c 0.397,-0.254 1.843,-0.619 2.494,-0.475 l 0.651,0.143 c -0.219,0.918 -0.641,2.513 -1.041,3.184 -0.54,0.905 -1.406,1.738 -2.2,2.246 -0.794,0.508 -3.034,1.381 -3.034,1.381 l -0.072,0.326 c 0,0 3.399,0.065 4.05,0.208 l 1.953,0.43 c 0.651,0.143 3.763,1.51 3.763,1.51 l 0.072,-0.326 c 0,0 -1.667,-1.732 -2.175,-2.526 -0.508,-0.794 -0.944,-1.914 -1.055,-2.962 -0.082,-0.776 0.204,-2.402 0.39,-3.327 l 0.651,0.143 c 0.651,0.143 1.81,1.081 2.064,1.478 l 0.762,1.191 c 0.508,0.794 1.087,1.263 2.064,1.478 0.977,0.215 1.699,0.032 2.494,-0.475 0.794,-0.508 1.263,-1.087 1.478,-2.064 0.215,-0.977 0.032,-1.699 -0.476,-2.494 -0.508,-0.794 -1.087,-1.263 -2.064,-1.478 -0.977,-0.215 -1.699,-0.032 -2.494,0.475 l -1.191,0.762 c -0.397,0.254 -1.843,0.619 -2.494,0.475 l -0.651,-0.143 c 0.1,-0.453 0.072,-0.326 0.215,-0.977 0.143,-0.651 0.755,-1.882 1.224,-2.461 0.469,-0.579 0.866,-0.833 1.66,-1.341 0.79,-0.505 1.263,-1.087 1.478,-2.064 0.215,-0.977 0.032,-1.699 -0.476,-2.494 -0.508,-0.794 -1.087,-1.263 -2.064,-1.478 z"
         id="R"
         style="stroke:#000000" />
      <path
         d="m 39.5,781.86 c 2.841,-12.672 4.86,-25.499 7.06,-38.29 2.325,-11.822 5.409,-19.243 7.118,-24.21 3.568,-9.581 3.976,-10.169 8.03,-19.551 2.61,-6.44 3.772,-11.45 7.407,-17.422 2.296,-4.357 4.533,-9.105 7.717,-12.899 2.783,-3.877 6.284,-9.158 9.879,-12.336 2.633,-3.02 5.838,-5.346 9.188,-7.5 1.675,-1.411 3.193,-2.449 3,0.563 0.796,5.352 2.073,10.672 2.565,16.04 -0.219,7.449 -0.425,14.899 -1.488,22.287 -0.492,5.225 -1.102,10.43 -2.559,15.488 -2.355,10.393 -5.061,20.714 -8.29,30.868 -2.617,7.403 -4.768,14.991 -8.336,22.02 -2.998,6.72 -6.732,13.09 -9.97,19.689 -1.416,1.672 -2.502,3.99 -4.123,5.259 -9.07,0 -18.13,0 -27.2,0 z"
         id="S"
         style="fill:#ffaa55;stroke:#000000;stroke-linecap:round;stroke-linejoin:round" />
      <path
         d="m 96.17,650.02 c 1.373,8.608 3.132,17.246 2.406,26.02 -0.65,17.779 -4.823,35.24 -10.113,52.15 -4.977,14.394 -9.485,29.16 -17.711,42.12 -2.258,3.75 -4.064,7.764 -6.756,11.237 1.777,0.564 3.425,0.801 4.178,-1.269 3.356,-5.11 6.396,-10.462 9.228,-15.883 3.13,-6.489 6.347,-12.989 8.634,-19.826 2.13,-7.724 5.224,-15.14 7.12,-22.93 2.934,-11.02 5.106,-22.243 7.123,-33.461 0.501,-7.607 1.523,-15.198 1.054,-22.833 -0.25,-5.067 -1.633,-10.02 -2.29,-15.06 0.209,-2.353 -1.119,-2.773 -2.375,-0.832 -0.166,0.189 -0.331,0.379 -0.497,0.568 z"
         id="T"
         style="fill:#fffe55;stroke:#000000;stroke-linecap:round;stroke-linejoin:round" />
      <path
         d="m 52.33,781.89 c 2.995,-3.923 5.649,-8.07 8.164,-12.299 2.875,-4.834 5.568,-9.792 7.897,-14.912 3.923,-8.623 7.258,-17.522 10.193,-26.53 1.386,-4.254 2.342,-8.636 3.491,-12.96 1.499,-5.639 3.347,-11.201 4.439,-16.933 1.023,-5.371 1.676,-10.824 1.963,-16.284 0.296,-5.635 0.324,-11.313 -0.253,-16.926 -0.289,-2.808 -1.066,-5.543 -1.599,-8.315 l 2.652,-2.121 c 0.962,7.135 1.969,14.298 1.889,21.488 -0.085,7.636 -1.194,15.25 -2.512,22.772 -1.056,6.02 -2.685,11.937 -4.31,17.832 -2.04,7.401 -4.259,14.76 -6.821,21.997 -1.689,4.771 -3.568,9.478 -5.628,14.1 -2.684,6.02 -5.503,12.01 -8.758,17.741 -2.257,3.978 -5.115,7.779 -7.448,11.525 z"
         id="U"
         style="fill:#fffe55;stroke:#000000;stroke-linecap:round;stroke-linejoin:round" />
      <path
         d="m 78.14,666.99 c 1.278,0.388 3.218,0.427 2,2.132 -0.955,2.914 -2.448,5.619 -3.136,8.63 -0.611,2.403 -0.12,4.973 -0.279,7.444 0.077,1.822 -0.649,3.604 -1.189,5.3 -1.542,1.824 -2.566,4.222 -4.893,5.175 -1.333,0.55 -2.216,1.558 -2.833,2.837 -0.989,1.322 -1.136,3.03 -1.691,4.545 1.491,1.658 1.268,-0.952 1.666,-2.02 0.503,-1.372 1.537,-2.597 2.398,-3.766 1.451,-1.23 3.094,-2.082 4.946,-2.525 1.258,-0.336 2.398,0.994 3.606,1.356 0.966,0.639 0.635,2.383 0.766,3.487 -0.134,2.778 -1.465,5.394 -0.93,8.207 -0.197,1.128 1.01,3 -0.478,3.445 -2.73,1.485 -5.742,2.953 -7.317,5.765 -1.442,1.561 -1.687,3.733 -2.182,5.706 0,1.696 0,3.393 0,5.089 -1.504,-1.493 -3.173,-3.046 -3.966,-5.02 -0.325,-1.51 -0.427,-3.077 -0.984,-4.528 -1.04,0.968 -1.595,2.211 -2.184,3.433 -0.82,1.702 -1.395,3.524 -1.845,5.358 -0.575,2.345 -0.661,4.785 -1.08,7.164 -0.47,2.67 -1.812,5.202 -1.608,7.972 0.219,0.969 2.958,0.416 3.774,1.495 0.935,1.238 1.253,3.291 0.469,4.63 -0.883,1.509 -3.063,2 -4.809,2.095 -1.53,0.08 -3.127,-0.331 -4.383,-1.388 -0.763,3.03 -1.516,6.06 -2.999,8.825 -0.904,2.182 -1.856,4.379 -3.688,5.953 -0.702,0.337 -2.641,2.921 -2.407,1.556 1.408,-8.974 2.652,-17.995 4.701,-26.845 4.965,-15.12 10.3,-30.13 15.898,-45.03 3.457,-6.811 6.756,-13.719 10.312,-20.47 1.448,-2.01 2.897,-4.01 4.345,-6.02 z"
         id="V"
         style="fill:#ffff55;stroke:#000000;stroke-linecap:round;stroke-linejoin:round" />
      <path
         d="m 54.27,719.49 6.894,2.298"
         id="W"
         style="fill:none;stroke:#000000;stroke-linecap:round;stroke-linejoin:round" />
      <path
         d="m 52.5,723.38 6.894,2.121"
         id="X"
         style="fill:none;stroke:#000000;stroke-linecap:round;stroke-linejoin:round" />
      <path
         d="m 51.44,727.27 7.425,2.121"
         id="Y"
         style="fill:none;stroke:#000000;stroke-linecap:round;stroke-linejoin:round" />
      <path
         d="m 50.2,730.98 8.132,2.475"
         id="Z"
         style="fill:none;stroke:#000000;stroke-linecap:round;stroke-linejoin:round" />
      <path
         d="m 89.8,732.75 c 0,0 3.12,0.518 4.596,1.061 1.806,0.663 3.426,1.752 5.127,2.652 1.421,0.753 2.842,1.507 4.243,2.298 1.012,0.571 2.026,1.142 3.01,1.768 0.785,0.502 2.298,1.591 2.298,1.591 0,0 -1.588,2.995 -2.121,4.596 -0.534,1.601 -0.582,3.332 -1.061,4.95 -0.376,1.27 -0.979,2.462 -1.414,3.712 -0.386,1.109 -1.061,3.359 -1.061,3.359 0,0 -1.07,-2.091 -1.945,-2.828 -0.645,-0.544 -1.522,-0.73 -2.298,-1.061 -1.339,-0.57 -2.714,-1.051 -4.066,-1.591 -1.595,-0.637 -3.217,-1.215 -4.773,-1.945 -0.907,-0.425 -1.703,-1.092 -2.652,-1.414 -0.679,-0.231 -1.407,-0.294 -2.121,-0.354 -0.529,-0.044 -1.591,0 -1.591,0 0,0 2.209,-5.507 3.182,-8.308 0.972,-2.799 2.652,-8.485 2.652,-8.485 z"
         id="a"
         style="fill:#ffaa55;stroke:#000000;stroke-linecap:round;stroke-linejoin:round" />
      <path
         d="m 105.18,752.73 c -0.29,-0.703 -0.573,-1.464 -1.112,-2.01 -1.86,-1.87 -4.55,-2.676 -6.901,-3.871 -2.058,-1.046 -4.04,-2.419 -6.297,-2.884 -1.388,-0.286 -2.86,-0.208 -4.252,0.1 l 1.061,-3.712 c 2.144,-0.061 4.352,-0.163 6.423,0.397 1.843,0.499 3.417,1.703 5.114,2.577 1.699,0.875 3.571,1.49 5.073,2.671 0.945,0.743 1.648,1.755 2.388,2.703 0.034,0.044 0.094,0.137 0.094,0.137 z"
         id="path111"
         style="fill:#ffff55;stroke:#000000;stroke-linecap:round;stroke-linejoin:round" />
      <path
         d="m 112.08,740 c 0.99,-1.923 2.052,-3.814 2.82,-5.832 0.773,-2.032 1.483,-4.121 1.782,-6.275 1.238,-8.93 0.569,-18.05 -0.033,-27.05 -0.254,-3.796 -0.787,-7.578 -1.507,-11.313 -0.604,-3.135 -1.484,-6.208 -2.355,-9.285"
         id="b"
         style="fill:none;stroke:#000000;stroke-linecap:butt;stroke-linejoin:miter" />
      <path
         d="m 116.32,730.81 c 1.61,-2.446 3.501,-4.726 4.875,-7.314 1.621,-3.054 2.765,-6.344 3.923,-9.601 0.826,-2.325 1.872,-4.63 2.153,-7.081 0.096,-0.837 -0.112,-1.68 -0.168,-2.52"
         id="c"
         style="fill:none;stroke:#000000;stroke-linecap:butt;stroke-linejoin:miter" />
      <path
         d="m 254.91,750.43 c 2.042,-0.284 4.167,-0.651 5.951,-1.686 3.948,-2.291 6.811,-6.119 9.779,-9.588 0.858,-1 1.534,-2.148 2.302,-3.222 -1.24,-0.888 -2.793,-1.439 -3.78,-2.61 -0.876,-1.04 -1.394,-2.38 -1.715,-3.702 -1.175,-4.837 -0.344,-9.95 -0.638,-14.919 -0.145,-2.455 -0.105,-4.938 -0.555,-7.355 -0.286,-1.535 -0.655,-3.088 -1.353,-4.485 -1.286,-2.573 -3.089,-4.908 -5.112,-6.953 -0.957,-0.967 -2.09,-1.761 -3.262,-2.451 -3.155,-1.858 -6.871,-2.627 -10.03,-4.477 -1.135,-0.665 -1.956,-1.838 -3.165,-2.356 -0.835,-0.358 -1.892,-0.9 -2.687,-0.46 -0.719,0.398 -0.972,1.459 -0.935,2.28 0.044,0.99 0.705,1.902 1.367,2.64 0.979,1.092 2.413,1.67 3.663,2.437 2.395,1.469 5.01,2.568 7.343,4.141 1.416,0.957 2.688,2.112 4,3.204 0.859,0.713 1.689,2.909 2.539,2.185 0.493,-0.42 -0.571,-1.185 -1.016,-1.655 -1.775,-1.878 -4.142,-3.107 -6.368,-4.42 -1.928,-1.137 -3.905,-2.243 -6.02,-2.975 -2.115,-0.731 -4.41,-1.964 -6.571,-1.38 -0.92,0.249 -1.746,1.042 -2.121,1.918 -0.414,0.967 -0.252,2.159 0.086,3.155 0.548,1.616 1.791,2.942 3,4.146 1.204,1.2 3.675,2.412 4.142,2.974 0.227,0.273 -0.68,0.205 -1.025,0.286 -1.056,0.246 -2.285,0.014 -3.197,0.602 -0.875,0.564 -1.43,1.582 -1.795,2.557 -0.364,0.973 -0.616,2.102 -0.326,3.1 0.609,2.094 2.111,3.482 4.066,5.127 0.394,0.331 -1.031,0.035 -1.539,0.118 -0.797,0.13 -1.751,0.048 -2.35,0.589 -0.769,0.694 -0.921,1.894 -1.061,2.92 -0.153,1.123 -0.116,2.322 0.264,3.39 0.538,1.508 1.901,2.535 2.741,3.943 0.348,0.583 -1.367,-0.77 -1.576,1.291 -0.131,1.297 0.442,2.603 1,3.78 1.323,2.773 3.466,5.086 5.435,7.444 1.059,1.268 1.976,2.784 3.419,3.591 1.058,0.592 2.539,0.1 3.556,0.759 0.807,0.524 1.205,1.509 1.701,2.333 0.723,1.202 1.107,2.57 1.842,3.783 z"
         id="d"
         style="fill:#ffaaaa;stroke:#000000;stroke-linecap:round;stroke-linejoin:round" />
      <path
         d="m 246.07,694.24 c 0,0 2.943,1.518 4.419,2.268 0.996,0.506 2.993,1.505 2.993,1.505 l 6.377,-35.09 -7.955,-3.712 z"
         id="e"
         style="fill:#ffaa55;stroke:#000000;stroke-linecap:round;stroke-linejoin:round" />
      <g
         id="g117">
        <path
           d="m 261.28,620.32 c -1.267,1.559 -2.718,3.066 -3.393,4.998 -0.433,1.895 -0.657,3.898 -0.183,5.808 0.49,0.876 1.588,1.033 2.485,1.189 1.701,0.179 3.45,-0.224 5.118,0.28 0.73,0.164 1.607,0.238 2.072,0.889 0.493,-0.281 0.391,-1.152 0.611,-1.675 0.37,-1.746 0.727,-1.583 1.14,-3.32 0.169,-1.416 0.381,-4.04 0.364,-5.451 -0.036,-0.68 -0.745,-2.339 -1.534,-2.647 -0.685,-0.354 -1.432,-0.576 -2.096,-0.974 -0.754,-0.327 -1.607,0.099 -2.388,0.184 -0.752,0.171 -1.493,0.403 -2.196,0.72 z"
           id="y"
           style="fill:#ffaa55;stroke:#000000;stroke-linecap:round;stroke-linejoin:round" />
        <path
           d="m 257.74,626.68 c 1.218,-1 2.549,-1.878 3.674,-2.984 0.994,-0.978 2.213,-1.893 2.69,-3.203 0.101,-0.277 0,-0.589 0,-0.884"
           id="z"
           style="fill:none;stroke:#000000" />
        <path
           d="m 258.62,631.46 c 1.451,-1.411 1.613,-2.109 2.615,-2.965 1.02,-0.872 2.075,-1.231 3.396,-2.161 1.077,-0.759 1.765,-2.024 2.248,-3.25 0.341,-0.865 0.269,-2.312 0.404,-2.761"
           id="10"
           style="fill:none;stroke:#000000" />
        <path
           d="m 262.67,632.36 c 1.109,-1.041 1.132,-1.737 2.535,-2.323 0.942,-0.393 1.965,-0.919 2.664,-1.708 0.886,-1 1.511,-2.999 1.739,-3.613"
           id="11"
           style="fill:none;stroke:#000000;stroke-width:0.95599997" />
        <path
           d="m 258.09,631.81 c -1.787,-1.01 -3.866,1.682 -5.277,3.173 -1.427,1.507 -2.046,3.618 -2.913,5.504 -1.188,2.584 -2.437,5.18 -3.124,7.94 -0.678,2.723 -0.68,5.571 -0.95,8.363 -0.186,1.924 -2.082,4.722 -0.464,5.779 0.704,0.46 1.402,-1.38 2.222,-1.194 1.052,0.239 0.836,2.696 1.911,2.611 1.196,-0.094 0.448,-3.276 1.645,-3.2 1.257,0.079 0.089,3.183 1.293,3.551 0.767,0.234 1.147,-1.494 1.945,-1.414 0.954,0.096 0.989,2.205 1.945,2.121 0.765,-0.067 0.469,-1.965 1.237,-1.945 1.081,0.029 0.527,2.633 1.591,2.828 0.905,0.166 1.201,-1.791 2.121,-1.768 1.042,0.026 1.261,2.224 2.298,2.121 1.595,-0.157 1.258,-4.212 2.828,-3.889 1.302,0.268 -0.435,3.725 0.884,3.889 1.978,0.245 1.961,-3.484 2.71,-5.331 0.799,-1.973 1.588,-3.993 1.886,-6.101 0.568,-4.02 0.428,-8.176 -0.232,-12.184 -0.343,-2.082 -0.856,-4.208 -1.916,-6.03 -0.839,-1.444 -1.931,-2.882 -3.397,-3.682 -1.933,-1.055 -4.314,-0.949 -6.509,-1.14 -0.576,-0.05 -1.325,0.409 -1.734,0 z"
           id="12"
           style="fill:#ffaa55;stroke:#000000;stroke-linecap:round;stroke-linejoin:round" />
        <path
           d="m 247.75,661.24 c 0.202,-2.143 0.243,-4.307 0.566,-6.436 0.382,-2.516 0.869,-5.03 1.616,-7.462 0.926,-3.02 2.288,-5.885 3.532,-8.787 0.441,-1.029 0.756,-2.136 1.393,-3.057 0.978,-1.412 2.138,-4.493 3.636,-3.652 0.33,0.185 -0.152,0.743 -0.27,1.102 -0.766,2.32 -2,4.461 -2.834,6.759 -0.931,2.577 -1.836,5.181 -2.398,7.863 -0.603,2.878 -0.644,5.846 -1.032,8.761 -0.206,1.544 -0.593,2.608 -0.687,4.621"
           id="13"
           style="fill:none;stroke:#000000" />
        <path
           d="m 254.62,662.49 c 0.379,-3.897 0.682,-7.804 1.201,-11.685 0.301,-2.249 0.669,-4.491 1.11,-6.717 0.629,-3.179 1.065,-6.433 2.189,-9.473 0.375,-1.014 0.498,-2.47 1.5,-2.875 0.438,-0.177 1.346,-0.024 1.345,0.448 -0.005,2.18 -1.225,3.96 -1.476,6.01 -0.306,2.492 0.18,5.03 -0.024,7.532 -0.273,3.354 -1.013,6.655 -1.601,9.969 -0.418,2.356 -1.216,4.53 -1.37,7.05"
           id="14"
           style="fill:none;stroke:#000000" />
        <path
           d="m 261.5,664.11 c 0.406,-2.179 0.932,-4.339 1.25,-6.534 0.561,-3.872 1.188,-7.768 1.159,-11.681 -0.02,-2.669 -0.838,-5.287 -0.909,-7.955 -0.035,-1.318 0.095,-2.637 0.239,-3.947 0.06,-0.548 -0.187,-1.312 0.261,-1.633 0.363,-0.259 0.984,-0.066 1.319,0.228 1.405,1.235 0.992,3.614 1.659,5.362 0.368,0.965 1.018,1.821 1.29,2.818 0.517,1.896 0.516,3.901 0.607,5.865 0.078,1.679 0.113,3.369 -0.05,5.04 -0.219,2.254 -0.861,4.446 -1.242,6.678 -0.213,1.25 -0.45,2.493 -0.584,3.758"
           id="15"
           style="fill:none;stroke:#000000" />
      </g>
      <path
         d="m 125.5,779.36 c -0.836,-0.042 -0.167,0.75 -0.25,2.5 39.833,-0.083 79.67,0.083 119.5,0 -0.083,-1.833 -0.167,-1.167 -0.25,-3 -4.425,-1.089 -8.938,-1.678 -13.454,-2.159 -4.2,-0.447 -8.43,-0.559 -12.652,-0.671 -6.41,-0.171 -12.825,0.027 -19.237,-0.005 -4.834,-0.024 -9.67,-0.016 -14.503,-0.142 -4.435,-0.116 -8.862,-0.501 -13.299,-0.563 -7.449,-0.105 -14.913,-0.181 -22.346,0.318 -5.191,0.348 -10.373,0.966 -15.497,1.866 -2.7,0.474 -6.756,1.71 -8.01,1.858 z"
         id="f"
         style="fill:#ffaa55;stroke:#000000" />
      <path
         d="m 246.39,741.98 c 0,0 -2.404,-2.236 -3.419,-3.518 -1.535,-1.939 -3.993,-6.255 -3.993,-6.255 l -9.127,49.653 h 9.205 z"
         id="g"
         style="fill:#ffaa55;stroke:#000000;stroke-linecap:round;stroke-linejoin:round" />
      <path
         d="m 273,735.86 c 3.33,2.16 5.598,5.128 8.834,7.06 3.065,1.83 6.7,2.52 9.853,4.192 1.743,0.924 3.671,1.727 4.973,3.208 0.558,0.635 0.712,1.541 1.09,2.289"
         id="h"
         style="fill:none;stroke:#000000;stroke-linecap:round;stroke-linejoin:round" />
      <path
         d="m 286,744.86 c 2.429,-0.764 4.892,-1.575 7.429,-1.838 1.617,-0.168 3.278,-0.133 4.875,0.174 1.372,0.264 3.19,0.015 3.946,1.414"
         id="i"
         style="fill:none;stroke:#000000;stroke-linecap:round;stroke-linejoin:round" />
      <path
         d="m 258,761.74 c 0,0 4.452,-0.591 6.633,-1.667 2.237,-1.103 4.537,-2.448 6.514,-3.968 2.396,-1.843 4.714,-4.699 6.743,-6.939 1.095,-1.209 1.987,-2.589 2.896,-3.943 0.48,-0.715 1.347,-2.204 1.347,-2.204 0,0 -6.416,-6.207 -9.633,-7.778 -1.578,0.734 -2.412,3.721 -3.75,5.486 -1.817,2.398 -3.858,4.622 -6.172,6.545 -0.978,0.813 -2.368,1.342 -3.573,1.748 -1.603,0.54 -3.228,0.902 -4.403,1.193 0.142,1.555 0.527,2.164 0.909,3.207 0.64,1.745 1.24,2.521 1.684,4.327 0.259,1.052 0.805,3.994 0.805,3.994 z"
         id="j"
         style="fill:#ffaa55;stroke:#000000;stroke-linecap:round;stroke-linejoin:round" />
      <path
         d="m 257.75,759.36 c 1.743,-0.389 3.508,-0.728 5.187,-1.336 1.213,-0.439 2.398,-0.983 3.497,-1.659 1.458,-0.896 2.783,-2 4.058,-3.146 1.486,-1.331 2.869,-2.781 4.165,-4.297 2.02,-2.357 3.904,-4.828 5.593,-7.436"
         id="k"
         style="fill:none;stroke:#000000;stroke-linecap:round;stroke-linejoin:round" />
      <path
         d="m 201.53,562.69 c 1.531,3.865 3.209,7.814 3.715,11.957 0.338,2.77 -1,5.615 -0.486,8.357 0.446,2.361 2.413,4.222 3.01,6.549 1.176,4.566 0.931,9.392 1.035,14.11 0.135,6.124 2.995,9.576 2.904,14.506 -0.059,3.195 -0.635,6.554 -2.229,9.323 -1.298,2.255 -3.526,3.891 -5.654,5.382"
         id="l"
         style="fill:none;stroke:#000000;stroke-linecap:round;stroke-linejoin:round" />
      <path
         d="m 206.16,563.27 c 1.531,3.865 3.209,7.814 3.715,11.957 0.338,2.77 -1,5.615 -0.486,8.357 0.446,2.361 2.413,4.222 3.01,6.549 1.176,4.566 0.931,9.392 1.035,14.11 0.135,6.124 2.96,9.575 2.904,14.506 -0.043,3.782 -0.71,7.73 -2.479,11.07 -1.631,3.082 -5.03,6.141 -7.154,7.632"
         id="m"
         style="fill:none;stroke:#000000;stroke-linecap:round;stroke-linejoin:round" />
      <path
         d="m 211.66,566.02 c 1.531,3.865 3.209,7.814 3.715,11.957 0.338,2.77 -0.733,5.578 -0.486,8.357 0.381,4.285 2.46,8.283 3.01,12.549 0.331,2.554 0.065,3.01 0.169,7.725 0.135,6.124 2.637,8.232 2.886,12.501 0.191,3.269 0.077,6.701 -1.08,9.765 -1.521,4.03 -4.791,9.09 -7.419,10.577"
         id="n"
         style="fill:none;stroke:#000000;stroke-linecap:round;stroke-linejoin:round" />
      <path
         d="m 223.66,584.77 c -0.969,5.115 1.337,8.332 2.215,12.457 0.58,2.723 1.641,5.348 2.01,8.107 0.46,3.403 -0.342,6.919 0.262,10.299 0.689,3.85 4.234,6.413 3.785,11.11 -0.233,2.437 -2.038,3.187 -3.223,4.655 -2.01,2.496 -4.757,3.523 -4.908,8.49 -0.135,4.434 1.662,6.03 4.184,6.397 1.867,0.269 3.638,-0.6 4.307,-3.671 0.899,-4.124 -4.298,-5.861 -4.5,-1.25"
         id="o"
         style="fill:none;stroke:#000000;stroke-linecap:round;stroke-linejoin:round" />
      <path
         d="m 231.8,612.91 c 0.564,5.294 3.904,6.494 4.546,9.596 0.529,2.942 0.406,5.997 1.331,8.597 0.836,2.194 2.88,3.925 3.293,6.241 0.56,3.142 -0.244,6.468 -1.268,9.491 -0.651,1.922 -1.625,3.816 -3.03,5.283 -1.685,1.762 -4,3.03 -6.176,3.916"
         id="p"
         style="fill:none;stroke:#000000;stroke-linecap:round;stroke-linejoin:round" />
      <path
         d="m 148.67,598.58 c -1.269,1.55 -2.827,3 -3.448,4.897 -0.611,1.865 -0.338,3.937 -0.115,5.887 0.558,4.877 2.177,9.581 3.604,14.277 1.578,5.192 5.01,9.967 5.474,15.332 0.34,3.944 -1.841,3.213 -2.715,4.844 -0.784,1.464 -0.488,2.62 -2.269,4.436"
         id="q"
         style="fill:none;stroke:#000000;stroke-linecap:round;stroke-linejoin:round" />
      <path
         d="m 142.13,616.08 c 1.342,3.69 3.079,8.229 4.485,12.391 1.046,3.096 2.893,6.085 2.94,9.353 0.042,2.907 -0.939,5.865 -2.377,8.392 -1.377,2.419 -3.383,4.59 -5.747,6.06 -1.237,0.769 -2.719,1.37 -4.174,1.294 -1.604,-0.084 -3.196,-0.869 -4.427,-1.9 -1.839,-1.541 -3.821,-3.62 -3.953,-6.02 -0.134,-2.431 1.366,-5.05 3.315,-6.508 1.402,-1.05 3.788,-2.052 5.165,-0.968 1.586,1.249 1.919,4.824 0.314,6.05 -0.927,0.707 -2.404,-1.821 -3.319,-1.099 -1.149,0.907 -0.543,3.286 0.373,4.376 0.75,0.892 1.877,1.724 3.043,1.722 1.606,-0.002 3.061,-1.24 4.186,-2.386 1.961,-1.998 3.59,-4.29 4.02,-7.374 -0.442,-4.317 -2.477,-7.472 -4.906,-10.834"
         id="r"
         style="fill:none;stroke:#000000;stroke-linecap:round;stroke-linejoin:round" />
      <path
         d="m 135.41,633.93 c 2.742,-0.377 2.483,-3.225 3.908,-4.67 1.686,-1.71 3.673,-3.119 5.461,-4.699"
         id="s"
         style="fill:none;stroke:#000000;stroke-linecap:round;stroke-linejoin:round" />
      <path
         d="m 134.7,629.69 c 1.634,-1.453 1.679,-2.345 2.69,-3.366 1.051,-1.061 2.476,-1.719 3.472,-2.832 1.025,-1.147 2.01,-3.36 2.5,-3.878"
         id="t"
         style="fill:none;stroke:#000000;stroke-linecap:round;stroke-linejoin:round" />
      <path
         d="m 138.06,633.05 c 1.355,1 2.895,2.773 3.536,4.596 0.977,2.78 0.091,6.07 0.177,8.839"
         id="u"
         style="fill:none;stroke:#000000;stroke-linecap:round;stroke-linejoin:round" />
      <path
         d="m 217.26,570.1 c 1.531,3.865 1.35,7.798 1.965,11.707 0.451,2.865 0.073,5.748 1.014,8.607 2.696,8.188 1.832,12.341 2.01,16.05 0.175,3.591 1.459,4.419 2.624,8.987 1.04,4.078 1.809,5.329 1.588,8.06 -0.183,2.264 -1.47,4.303 -2.375,6.386 -1.363,3.136 -3.944,5.772 -4.587,9.174 -0.886,4.687 0.94,8.434 3.936,10.75 2.121,1.639 5.588,2.033 7.996,0.855 3.193,-1.561 5.187,-5.969 5.614,-9.06 0.597,-4.321 -5.479,-10.904 -10.485,-7.997"
         id="v"
         style="fill:none;stroke:#000000;stroke-linecap:round;stroke-linejoin:round" />
    </g>
    <g
       transform="matrix(-1,0,0,-1,355.62,1564.68)"
       id="g144">
      <use
         id="use146"
         x="0"
         y="0"
         width="360"
         height="540"
         xlink:href="#2" />
      <use
         id="use148"
         x="0"
         y="0"
         width="360"
         height="540"
         xlink:href="#3" />
      <use
         id="use150"
         x="0"
         y="0"
         width="360"
         height="540"
         xlink:href="#4" />
      <use
         id="use152"
         x="0"
         y="0"
         width="360"
         height="540"
         xlink:href="#5" />
      <use
         id="use154"
         x="0"
         y="0"
         width="360"
         height="540"
         xlink:href="#6" />
      <use
         id="use156"
         x="0"
         y="0"
         width="360"
         height="540"
         xlink:href="#7" />
      <use
         id="use158"
         x="0"
         y="0"
         width="360"
         height="540"
         xlink:href="#8" />
      <use
         id="use160"
         x="0"
         y="0"
         width="360"
         height="540"
         xlink:href="#9" />
      <use
         id="use162"
         x="0"
         y="0"
         width="360"
         height="540"
         xlink:href="#A" />
      <use
         id="use164"
         x="0"
         y="0"
         width="360"
         height="540"
         xlink:href="#B" />
      <use
         id="use166"
         x="0"
         y="0"
         width="360"
         height="540"
         xlink:href="#C" />
      <use
         id="use168"
         x="0"
         y="0"
         width="360"
         height="540"
         xlink:href="#D" />
      <use
         id="use170"
         x="0"
         y="0"
         width="360"
         height="540"
         xlink:href="#E" />
      <use
         transform="matrix(0.77143,0,0,0.87879,14.594,518.8)"
         id="use172"
         style="stroke-width:1.21500003"
         x="0"
         y="0"
         width="360"
         height="540"
         xlink:href="#0" />
      <use
         transform="matrix(0.85714,0,0,0.87879,25.302,520.69)"
         id="use174"
         style="stroke-width:1.15199995"
         x="0"
         y="0"
         width="360"
         height="540"
         xlink:href="#0" />
      <path
         d="m 157.50804,77.64056 a 0.707107,0.795495 0 1 1 -1.41421,0 0.707107,0.795495 0 1 1 1.41421,0 z"
         transform="translate(0,512.36)"
         id="path176"
         style="stroke:#000000;stroke-linecap:round;stroke-linejoin:round" />
      <use
         id="use178"
         x="0"
         y="0"
         width="360"
         height="540"
         xlink:href="#F" />
      <g
         transform="translate(1.414,-0.177)"
         id="g180"
         style="stroke-linecap:round;stroke-linejoin:round">
        <use
           id="use182"
           x="0"
           y="0"
           width="360"
           height="540"
           xlink:href="#w" />
        <use
           id="use184"
           x="0"
           y="0"
           width="360"
           height="540"
           xlink:href="#x" />
      </g>
      <use
         id="use186"
         x="0"
         y="0"
         width="360"
         height="540"
         xlink:href="#G" />
      <use
         id="use188"
         x="0"
         y="0"
         width="360"
         height="540"
         xlink:href="#H" />
      <use
         id="use190"
         x="0"
         y="0"
         width="360"
         height="540"
         xlink:href="#I" />
      <use
         id="use192"
         x="0"
         y="0"
         width="360"
         height="540"
         xlink:href="#J" />
      <use
         id="use194"
         x="0"
         y="0"
         width="360"
         height="540"
         xlink:href="#K" />
      <use
         id="use196"
         x="0"
         y="0"
         width="360"
         height="540"
         xlink:href="#L" />
      <use
         id="use198"
         x="0"
         y="0"
         width="360"
         height="540"
         xlink:href="#M" />
      <use
         transform="translate(1.25,512.61)"
         id="use200"
         x="0"
         y="0"
         width="360"
         height="540"
         xlink:href="#1" />
      <use
         transform="translate(3.5,526.61)"
         id="use202"
         x="0"
         y="0"
         width="360"
         height="540"
         xlink:href="#1" />
      <use
         transform="translate(5.75,541.86)"
         id="use204"
         x="0"
         y="0"
         width="360"
         height="540"
         xlink:href="#1" />
      <use
         transform="translate(7.25,558.11)"
         id="use206"
         x="0"
         y="0"
         width="360"
         height="540"
         xlink:href="#1" />
      <use
         transform="translate(28.25,559.11)"
         id="use208"
         x="0"
         y="0"
         width="360"
         height="540"
         xlink:href="#1" />
      <use
         transform="translate(27.5,542.11)"
         id="use210"
         x="0"
         y="0"
         width="360"
         height="540"
         xlink:href="#1" />
      <use
         transform="translate(25.5,526.36)"
         id="use212"
         x="0"
         y="0"
         width="360"
         height="540"
         xlink:href="#1" />
      <use
         transform="translate(22.75,511.61)"
         id="use214"
         x="0"
         y="0"
         width="360"
         height="540"
         xlink:href="#1" />
      <use
         transform="translate(7.25,573.36)"
         id="use216"
         x="0"
         y="0"
         width="360"
         height="540"
         xlink:href="#1" />
      <use
         transform="translate(7.75,588.11)"
         id="use218"
         x="0"
         y="0"
         width="360"
         height="540"
         xlink:href="#1" />
      <use
         transform="translate(7.5,601.61)"
         id="use220"
         x="0"
         y="0"
         width="360"
         height="540"
         xlink:href="#1" />
      <use
         transform="translate(26.75,601.36)"
         id="use222"
         x="0"
         y="0"
         width="360"
         height="540"
         xlink:href="#1" />
      <use
         transform="translate(27.25,587.11)"
         id="use224"
         x="0"
         y="0"
         width="360"
         height="540"
         xlink:href="#1" />
      <use
         transform="translate(28,573.36)"
         id="use226"
         x="0"
         y="0"
         width="360"
         height="540"
         xlink:href="#1" />
      <path
         d="m 265.17,576.48 c 4.36,-9.428 8.721,-18.856 13.08,-28.28 1.635,-2.289 2.209,0.669 2.096,2.191 -0.227,10.112 -0.454,20.224 -0.682,30.336 -1.256,-0.226 -3.725,-3.046 -4.055,-1.29 -1.544,7.312 -2.231,14.769 -3.369,22.15 2.898,-0.094 5.895,0.188 8.731,-0.14 2.073,-1.422 4.943,-2.032 5.868,-4.627 1.466,-1.369 1.208,-3.883 0.958,-5.839 -0.236,-1.844 -0.637,-3.413 -2.259,-5.099 -1.35,-1.56 1.809,-2.486 2.582,-3.747 2.699,-2.19 5.05,-4.698 6.972,-7.598 2.245,-3.126 4.771,-6.03 7.201,-9.01 2.082,2.63 4.168,5.254 5.751,8.19 2.343,4.346 4.01,9.07 5.446,13.775 1.075,4.861 2.247,9.708 2.34,14.712 0.537,5.908 0.329,11.856 -0.625,17.711 -0.696,4.104 -1.807,8.169 -2.974,12.161 -1.713,4.254 -3.18,8.629 -5.838,12.414 -2.521,4.542 -3.623,5.611 -6.298,10.07 -1.544,2.39 -5.994,7.184 -8.391,8.797 -1.302,1.097 -2.605,2.193 -3.907,3.29 -3.146,-7.674 -6.106,-15.43 -9.976,-22.781 -0.345,-1.444 -2.813,-3.405 -0.548,-4.213 1.268,-1.067 2.525,-2.165 3.127,-3.65 1.02,-2.513 1.312,-5.529 0.51,-8.12 -0.694,-2.241 -2.324,-4.333 -4.331,-5.546 -2.212,-1.336 -5.084,-2.741 -7.629,-1.381 -1.917,-0.104 -2.33,-1.742 -4.192,-1.706 -2.61,0.978 -3.615,0.744 -3.165,-1.375 -0.655,-0.956 -3.115,-0.606 -4.483,-0.726 -1.638,0.109 -2.768,2.02 -3.601,3.348 -1.239,1.126 -0.579,3.535 -1.956,4.255 -1.352,-0.11 -2.259,-2.606 -2.635,-4.02 -0.634,-1.655 -0.056,-3.593 0.69,-5.086 0.799,-1.332 3.27,-2.833 0.84,-3.839 -2.579,-2.271 -4.627,-5.084 -7.198,-7.382 2.363,-1.738 3.094,-2.91 4.95,-3.889 1.906,-1.01 6.163,-0.753 6.165,-1.944 -1.01,-1.63 -0.806,-3.317 -0.119,-5.03 0.461,-2.379 3.309,-3.121 5.267,-3.991 0.07,2.152 -0.43,4.437 1.011,6.265 0.926,1.661 2.417,3.33 4.476,3.253 0.657,-1.546 0.695,-3.955 1.115,-5.831 0.863,-5.354 1.727,-10.707 2.59,-16.06 -1.179,-0.236 -2.357,-0.471 -3.536,-0.707 z"
         id="path228"
         style="fill:#aaaaff;stroke:#000000;stroke-linecap:round;stroke-linejoin:round" />
      <use
         id="use230"
         x="0"
         y="0"
         width="360"
         height="540"
         xlink:href="#N" />
      <use
         id="use232"
         x="0"
         y="0"
         width="360"
         height="540"
         xlink:href="#O" />
      <use
         id="use234"
         x="0"
         y="0"
         width="360"
         height="540"
         xlink:href="#P" />
      <use
         id="use236"
         x="0"
         y="0"
         width="360"
         height="540"
         xlink:href="#Q" />
      <use
         id="use238"
         x="0"
         y="0"
         width="360"
         height="540"
         xlink:href="#R" />
      <use
         id="use240"
         x="0"
         y="0"
         width="360"
         height="540"
         xlink:href="#S" />
      <use
         id="use242"
         x="0"
         y="0"
         width="360"
         height="540"
         xlink:href="#T" />
      <use
         id="use244"
         x="0"
         y="0"
         width="360"
         height="540"
         xlink:href="#U" />
      <use
         id="use246"
         x="0"
         y="0"
         width="360"
         height="540"
         xlink:href="#V" />
      <use
         id="use248"
         x="0"
         y="0"
         width="360"
         height="540"
         xlink:href="#W" />
      <use
         id="use250"
         x="0"
         y="0"
         width="360"
         height="540"
         xlink:href="#X" />
      <use
         id="use252"
         x="0"
         y="0"
         width="360"
         height="540"
         xlink:href="#Y" />
      <use
         id="use254"
         x="0"
         y="0"
         width="360"
         height="540"
         xlink:href="#Z" />
      <use
         id="use256"
         x="0"
         y="0"
         width="360"
         height="540"
         xlink:href="#a" />
      <path
         d="m 86.62,744.06 c 1.391,-0.308 2.863,-0.386 4.252,-0.1 2.261,0.465 4.239,1.838 6.297,2.884 2.351,1.195 5.04,2 6.901,3.871 0.539,0.542 0.822,1.304 1.112,2.01 l 1.591,-3.889 c 0,0 -0.06,-0.093 -0.094,-0.137 -0.739,-0.948 -1.442,-1.96 -2.388,-2.703 -1.503,-1.181 -3.374,-1.796 -5.073,-2.671 -1.697,-0.874 -3.271,-2.078 -5.114,-2.577 -2.071,-0.56 -4.279,-0.458 -6.423,-0.397 z"
         id="path258"
         style="fill:#ffff55;stroke:#000000;stroke-linecap:round;stroke-linejoin:round" />
      <use
         id="use260"
         x="0"
         y="0"
         width="360"
         height="540"
         xlink:href="#b" />
      <use
         id="use262"
         x="0"
         y="0"
         width="360"
         height="540"
         xlink:href="#c" />
      <use
         id="use264"
         x="0"
         y="0"
         width="360"
         height="540"
         xlink:href="#d" />
      <use
         id="use266"
         x="0"
         y="0"
         width="360"
         height="540"
         xlink:href="#e" />
      <g
         id="g268">
        <use
           id="use270"
           x="0"
           y="0"
           width="360"
           height="540"
           xlink:href="#y" />
        <use
           id="use272"
           x="0"
           y="0"
           width="360"
           height="540"
           xlink:href="#z" />
        <use
           id="use274"
           x="0"
           y="0"
           width="360"
           height="540"
           xlink:href="#10" />
        <use
           id="use276"
           x="0"
           y="0"
           width="360"
           height="540"
           xlink:href="#11" />
        <use
           id="use278"
           x="0"
           y="0"
           width="360"
           height="540"
           xlink:href="#12" />
        <use
           id="use280"
           x="0"
           y="0"
           width="360"
           height="540"
           xlink:href="#13" />
        <use
           id="use282"
           x="0"
           y="0"
           width="360"
           height="540"
           xlink:href="#14" />
        <use
           id="use284"
           x="0"
           y="0"
           width="360"
           height="540"
           xlink:href="#15" />
      </g>
      <use
         id="use286"
         x="0"
         y="0"
         width="360"
         height="540"
         xlink:href="#f" />
      <use
         id="use288"
         x="0"
         y="0"
         width="360"
         height="540"
         xlink:href="#g" />
      <use
         id="use290"
         x="0"
         y="0"
         width="360"
         height="540"
         xlink:href="#h" />
      <use
         id="use292"
         x="0"
         y="0"
         width="360"
         height="540"
         xlink:href="#i" />
      <use
         id="use294"
         x="0"
         y="0"
         width="360"
         height="540"
         xlink:href="#j" />
      <use
         id="use296"
         x="0"
         y="0"
         width="360"
         height="540"
         xlink:href="#k" />
      <use
         id="use298"
         x="0"
         y="0"
         width="360"
         height="540"
         xlink:href="#l" />
      <use
         id="use300"
         x="0"
         y="0"
         width="360"
         height="540"
         xlink:href="#m" />
      <use
         id="use302"
         x="0"
         y="0"
         width="360"
         height="540"
         xlink:href="#n" />
      <use
         id="use304"
         x="0"
         y="0"
         width="360"
         height="540"
         xlink:href="#o" />
      <use
         id="use306"
         x="0"
         y="0"
         width="360"
         height="540"
         xlink:href="#p" />
      <use
         id="use308"
         x="0"
         y="0"
         width="360"
         height="540"
         xlink:href="#q" />
      <use
         id="use310"
         x="0"
         y="0"
         width="360"
         height="540"
         xlink:href="#r" />
      <use
         id="use312"
         x="0"
         y="0"
         width="360"
         height="540"
         xlink:href="#s" />
      <use
         id="use314"
         x="0"
         y="0"
         width="360"
         height="540"
         xlink:href="#t" />
      <use
         id="use316"
         x="0"
         y="0"
         width="360"
         height="540"
         xlink:href="#u" />
      <use
         id="use318"
         x="0"
         y="0"
         width="360"
         height="540"
         xlink:href="#v" />
    </g>
  </g>
</svg>
