<?xml version="1.0" encoding="UTF-8" standalone="no"?>
<!-- Created with Inkscape (http://www.inkscape.org/) -->

<svg
   xmlns:dc="http://purl.org/dc/elements/1.1/"
   xmlns:cc="http://creativecommons.org/ns#"
   xmlns:rdf="http://www.w3.org/1999/02/22-rdf-syntax-ns#"
   xmlns:svg="http://www.w3.org/2000/svg"
   xmlns="http://www.w3.org/2000/svg"
   xmlns:xlink="http://www.w3.org/1999/xlink"
   version="1.1"
   width="360"
   height="540"
   viewBox="0 0 360 540"
   id="svg2">
  <metadata
     id="metadata484">
    <rdf:RDF>
      <cc:Work
         rdf:about="">
        <dc:format>image/svg+xml</dc:format>
        <dc:type
           rdf:resource="http://purl.org/dc/dcmitype/StillImage" />
        <dc:title></dc:title>
      </cc:Work>
    </rdf:RDF>
  </metadata>
  <defs
     id="defs4">
    <path
       d="m 166.25,186.25 a 3.875,4 0 1 1 -7.75,0 3.875,4 0 1 1 7.75,0 z"
       id="0"
       style="fill:#ffaa55;stroke:#000000;stroke-linecap:round;stroke-linejoin:round" />
    <path
       d="m 49.75,171.5 a 3.25,3.25 0 1 1 -6.5,0 3.25,3.25 0 1 1 6.5,0 z"
       id="1"
       style="fill:#ffaa55;stroke:#000000;stroke-linecap:round;stroke-linejoin:round" />
  </defs>
  <g
     transform="translate(0,-512.36)"
     id="g8">
    <rect
       width="359"
       height="539"
       rx="29.944"
       x="0.5"
       y="512.85999"
       id="rect10"
       style="fill:#ffffff;stroke:#000000" />
    <g
       id="g12"
       style="fill:#ff5555">
      <path
         d="m 30,609.86 c 0,0 0.682,-4.182 2,-5.5 1.318,-1.318 3.637,-2 5.5,-2 1.863,0 4.182,0.682 5.5,2 1.318,1.318 2,3.637 2,5.5 0,1.863 -1,4.5 -2,5.5 -1,1 -2,1.5 -3,2.5 -1,1 -1.5,1 -2.5,2 -1,1 -1.5,1.5 -2.5,2.5 -1,1 -2.5,3 -3.5,5 -1,2 -1.5,5 -1.5,5 0,0 -0.5,-3 -1.5,-5 -1,-2 -2.5,-4 -3.5,-5 -1,-1 -1.5,-1.5 -2.5,-2.5 -1,-1 -1.5,-1 -2.5,-2 -1,-1 -2,-1.5 -3,-2.5 -1,-1 -2,-3.637 -2,-5.5 0,-1.863 0.682,-4.182 2,-5.5 1.318,-1.318 3.637,-2 5.5,-2 1.863,0 4.182,0.682 5.5,2 1.318,1.318 2,5.5 2,5.5"
         id="path14" />
      <path
         d="m 330,954.86 c 0,0 0.682,4.182 2,5.5 1.318,1.318 3.637,2 5.5,2 1.863,0 4.182,-0.682 5.5,-2 1.318,-1.318 2,-3.637 2,-5.5 0,-1.863 -1,-4.5 -2,-5.5 -1,-1 -2,-1.5 -3,-2.5 -1,-1 -1.5,-1 -2.5,-2 -1,-1 -1.5,-1.5 -2.5,-2.5 -1,-1 -2.5,-3 -3.5,-5 -1,-2 -1.5,-5 -1.5,-5 0,0 -0.5,3 -1.5,5 -1,2 -2.5,4 -3.5,5 -1,1 -1.5,1.5 -2.5,2.5 -1,1 -1.5,1 -2.5,2 -1,1 -2,1.5 -3,2.5 -1,1 -2,3.637 -2,5.5 0,1.863 0.682,4.182 2,5.5 1.318,1.318 3.637,2 5.5,2 1.863,0 4.182,-0.682 5.5,-2 1.318,-1.318 2,-5.5 2,-5.5"
         id="path16" />
      <path
         d="m 90,572.36 c 0,0 1.82,-11.153 5.333,-14.667 3.514,-3.514 9.698,-5.333 14.667,-5.333 4.969,0 11.153,1.82 14.667,5.333 3.514,3.514 5.333,9.698 5.333,14.667 0,4.969 -2.667,12 -5.333,14.667 -2.667,2.667 -5.333,4 -8,6.667 -2.667,2.667 -4,2.667 -6.667,5.333 -2.667,2.667 -4,4 -6.667,6.667 -2.667,2.667 -6.667,8 -9.333,13.333 -2.667,5.333 -4,13.333 -4,13.333 0,0 -1.333,-8 -4,-13.333 -2.667,-5.333 -6.667,-10.667 -9.333,-13.333 -2.667,-2.667 -4,-4 -6.667,-6.667 -2.667,-2.667 -4,-2.667 -6.667,-5.333 -2.667,-2.667 -5.333,-4 -8,-6.667 C 52.666,584.36 50,577.329 50,572.36 c 0,-4.969 1.82,-11.153 5.333,-14.667 3.514,-3.514 9.698,-5.333 14.667,-5.333 4.969,0 11.153,1.82 14.667,5.333 C 88.181,561.207 90,572.36 90,572.36"
         id="path18" />
      <path
         d="m 270,992.36 c 0,0 1.82,11.153 5.333,14.667 3.514,3.514 9.698,5.333 14.667,5.333 4.969,0 11.153,-1.82 14.667,-5.333 3.514,-3.514 5.333,-9.698 5.333,-14.667 0,-4.969 -2.667,-12 -5.333,-14.667 -2.667,-2.667 -5.333,-4 -8,-6.667 -2.667,-2.667 -4,-2.667 -6.667,-5.333 -2.667,-2.667 -4,-4 -6.667,-6.667 -2.667,-2.667 -6.667,-8 -9.333,-13.333 -2.667,-5.333 -4,-13.333 -4,-13.333 0,0 -1.333,8 -4,13.333 -2.667,5.333 -6.667,10.667 -9.333,13.333 -2.667,2.667 -4,4 -6.667,6.667 -2.667,2.667 -4,2.667 -6.667,5.333 -2.667,2.667 -5.333,4 -8,6.667 -2.667,2.667 -5.333,9.698 -5.333,14.667 0,4.969 1.82,11.153 5.333,14.667 3.514,3.514 9.698,5.333 14.667,5.333 4.969,0 11.153,-1.82 14.667,-5.333 3.514,-3.514 5.333,-14.667 5.333,-14.667"
         id="path20" />
      <path
         d="m 20,542.36 v 50 h 5 5 c 5.54,0 10,-4.46 10,-10 v -10 c 0,-3 -1.323,-5.67 -3.406,-7.5 2.083,-1.83 3.406,-4.496 3.406,-7.5 v -5 c 0,-5.54 -4.46,-10 -10,-10 h -5 z m 5,5 h 5 c 2.77,0 5,2.23 5,5 v 5 c 0,2.77 -2.23,5 -5,5 h -5 z m 0,20 h 5 c 2.77,0 5,2.23 5,5 v 10 c 0,2.77 -2.23,5 -5,5 h -5 z"
         id="path22" />
      <path
         d="m 340,1022.36 v -50 h -5 -5 c -5.54,0 -10,4.46 -10,10 v 10 c 0,3 1.323,5.67 3.406,7.5 -2.083,1.83 -3.406,4.496 -3.406,7.5 v 5 c 0,5.54 4.46,10 10,10 h 5 z m -5,-5 h -5 c -2.77,0 -5,-2.23 -5,-5 v -5 c 0,-2.77 2.23,-5 5,-5 h 5 z m 0,-20 h -5 c -2.77,0 -5,-2.23 -5,-5 v -10 c 0,-2.77 2.23,-5 5,-5 h 5 z"
         id="path24" />
    </g>
    <g
       transform="translate(0,512.36)"
       id="g26"
       style="fill:none;stroke:#000000;stroke-width:2;stroke-linecap:square">
      <path
         d="M 50,30 H 330 V 410"
         id="path28" />
      <path
         d="M 310,510 H 30 V 130"
         id="path30" />
      <path
         d="M 30,270 H 330"
         id="path32" />
    </g>
    <g
       id="g34">
      <path
         d="m 318.37,746.49 -0.25,5.625 -0.25,4 -1,3.5 -1,3.75 -0.875,2.125 0.375,2.75 -0.25,4.25 -0.375,2.375 -1.125,3 -1,2.875 -0.75,1.25 -42.875,-0.25 -0.875,-1.5 -1.375,-3.75 -1.125,-2.25 -1.125,-3.375 -0.75,-5.25 -0.5,-5 0.125,-3 -0.625,-2.375 -0.5,-3.75 -1.125,-4 -1.5,-2.375 -0.5,-2.75 -0.625,-2.75 -0.625,0.375 -1.375,4.375 -1.75,4.125 -0.75,3 -1.25,4.125 -0.875,2.25 -0.5,3.125 0.125,3.625 -0.375,1.375 -0.125,1.75 -0.5,0.75 -2.875,1.875 -3.125,1.5 -4.375,0.875 -4.75,1.125 -4.125,0.375 -4.75,0.5 -2.875,-0.25 12.375,-13.5 8.875,-9.375 6.125,-8 6.75,-9.125 8.375,-13.75 3.25,-5.875 11.75,-19.875 3.375,-4.75 6.75,-0.25 0.375,36 -1,0.375 -3.75,4.75 -1.25,2.125 -5.25,8.875 -1.375,2.75 -1.125,1.75 3.625,4.625 5,3.375 3.5,1.5 5.75,-0.375 4.875,-1 h 3.75 l 5.375,-2.5 4,-2.25 z"
         id="2"
         style="fill:#5555aa;stroke:#000000;stroke-linecap:round;stroke-linejoin:round" />
      <path
         d="m 208,673.86 -2.25,38.5 c 0,0 12.03,-17.705 17.75,-26.75 5.354,-8.468 15.5,-25.75 15.5,-25.75 l -15.5,-6 z"
         id="3"
         style="fill:#5555aa;stroke:#000000" />
      <path
         d="m 98,676.11 c 4.795,-2.727 9.879,-4.803 14.936,-6.971 7.281,-3.01 13.874,-8.777 21.479,-11.01 6.695,-2.423 13.39,-3.596 20.09,-6.02 -0.019,10.318 0.397,20.652 0.099,30.961 -1.366,17.68 -2.732,35.36 -4.098,53.04 -1.667,1.5 -3.333,3 -5,4.5 -4.597,-2.906 -9.618,4.187 -12.12,2.092 -11.795,-22.2 -23.59,-44.39 -35.38,-66.59 z"
         id="4"
         style="fill:#5555aa;stroke:#000000" />
      <g
         id="g39">
        <path
           d="m 153.75,168.5 -2,15 -1,18.25 -1,16.25 1.75,43.5 51.75,-22.25 3.25,-45.25 1,-18.25 0.75,-13.25 -13.25,-13.25 -25.5,-0.5 -10.75,7.75 z"
           transform="translate(0,512.36)"
           id="W"
           style="fill:#aa0000;stroke:#000000" />
        <path
           d="m 175.5,156.25 -1.75,10.75 -1,13.75 -0.75,16.5 -0.25,10.75 -0.75,12 11,-3.25 -0.25,-15.75 1,-22 1.5,-15 0.75,-8.25 -5.25,0.75 z"
           transform="translate(0,512.36)"
           id="X"
           style="fill:#ffaa55;stroke:#000000" />
        <path
           d="m 180,156.75 -1.25,8.5 -1.25,11 -0.5,15.25 -0.5,11.5 v 8.75 l -0.25,6.75"
           transform="translate(0,512.36)"
           id="Y"
           style="fill:none;stroke:#000000" />
        <use
           transform="translate(-0.5,512.61)"
           id="use44"
           x="0"
           y="0"
           width="360"
           height="540"
           xlink:href="#0" />
        <use
           transform="translate(0.125,496.36)"
           id="use46"
           x="0"
           y="0"
           width="360"
           height="540"
           xlink:href="#0" />
        <use
           transform="translate(-1.125,529.61)"
           id="use48"
           x="0"
           y="0"
           width="360"
           height="540"
           xlink:href="#0" />
        <use
           transform="translate(32.875,497.36)"
           id="use50"
           x="0"
           y="0"
           width="360"
           height="540"
           xlink:href="#0" />
        <use
           transform="translate(31.625,512.86)"
           id="use52"
           x="0"
           y="0"
           width="360"
           height="540"
           xlink:href="#0" />
        <use
           transform="translate(31.375,529.36)"
           id="use54"
           x="0"
           y="0"
           width="360"
           height="540"
           xlink:href="#0" />
      </g>
      <path
         d="m 130,774.86 c 4.833,0 9.667,0 14.5,0 2.056,-0.882 4.199,-1.585 6.099,-2.79 1.611,-0.919 3.266,-1.796 4.787,-2.846 0.813,-0.753 1.473,-1.718 2.562,-2.088 0.85,-0.425 1.701,-0.85 2.551,-1.276 -0.146,-0.451 0.32,-1.513 -0.289,-1.5 -1.594,-0.119 -3.147,0.249 -4.711,0.5 -1.356,-0.115 -2.749,-0.112 -4.083,-0.3 -1.276,-0.82 -2.668,-1.492 -3.872,-2.405 -1.12,-1.163 -2.335,-2.25 -3.397,-3.46 -0.623,-1.065 -1.353,-2.093 -1.91,-3.182 -0.17,-2.045 -0.636,-4.081 -0.398,-6.137 0.103,-1.058 0.019,-2.162 0.239,-3.192 0.461,-0.884 0.745,-1.899 1.315,-2.701 0.618,-0.541 1.237,-1.082 1.855,-1.623 0,-0.583 0,-1.167 0,-1.75 -0.862,-0.215 -1.732,-0.605 -2.59,-0.715 -1.683,0.649 -3.399,1.225 -4.943,2.175 -1.306,0.82 -2.781,1.26 -4.217,1.79 -1.167,10.5 -2.333,21 -3.5,31.5 z"
         id="5"
         style="fill:#ffaa55;stroke:#000000" />
      <path
         d="m 152.91,655.32 c -2.158,3.374 -2.808,7.501 -1.775,11.378 0.87,4.154 3.175,8.173 2.328,12.533 -0.006,3.19 2.666,0.992 2.939,-0.815 3.01,-4.224 7.691,-7.06 12.526,-8.731 3.788,-0.777 7.715,-1.585 11.556,-0.654 3.881,0.216 7.816,-1.465 11.658,-0.095 3.52,1.089 4.858,5.06 7.966,6.89 2.336,0.811 1.775,4.785 3.778,4.685 1.838,-0.092 2.756,-5.633 5.379,-7.548 2.757,-3.867 6.929,-6.534 9.176,-10.781 1.854,-3.177 5.05,-5.662 5.417,-9.56 1.376,-4.762 2.821,-10.324 -0.248,-14.777 -2.272,-4.06 -7.215,-4.739 -11.286,-5.869 -17.09,-3.735 -35.654,-0.463 -50.46,8.845 -2.862,1.823 -6.06,3.841 -6.857,7.402 -0.767,2.345 -1.121,4.818 -2.094,7.096 z"
         id="6"
         style="fill:#ffffff;stroke:#000000" />
      <g
         id="g58">
        <path
           d="m 30.75,687.77 c 7.725,-3.934 9.3,-12.13 9.689,-18.482 6.103,1.594 13.632,2.128 20.07,2 9.609,-0.579 20.1,-4.75 28.06,-9.887 3.789,4.907 6.766,10.915 12.328,18.755 10.04,14.887 21.2,29.09 29.518,45.04 3.174,10.938 3.643,16.13 3.63,23.968 0.055,12.304 -1.388,21.574 -5.764,29.922 -2.452,2.672 -3.313,3.146 -8.325,3.02 -17.07,0 -34.13,0 -51.2,0 -7.124,-4 -14.4,-7.759 -20.03,-13.841 -6.924,-7.312 -10.941,-12.846 -18.218,-20.16 0.167,-20 0.083,-40.34 0.25,-60.34 z"
           id="path60"
           style="fill:#ffaa55;stroke:#000000;stroke-linecap:round;stroke-linejoin:round" />
        <path
           d="m 30.406,714.01 c 2.269,-0.809 4.793,-1.154 6.902,-2.256 3.189,-2.777 6.473,-5.536 9.179,-8.785 1.876,-2.591 3.969,-5.057 4.982,-8.145 0.579,-1.368 1.142,-3.452 3.049,-3.088 3.846,0.021 7.701,0.152 11.482,-0.679 4.921,-0.954 9.894,-2.112 14.449,-4.234 1.91,-1.17 2.29,-1.237 3.493,0.889 4.096,6.73 8.334,12.333 13.08,18.619 4.944,7.03 7.611,11.09 10.562,16.835 1.763,3.081 3.03,5.771 4.04,9.181 1.265,4.02 2.077,8.189 2.276,12.404 0.56,7.607 -0.672,15.21 -2.175,22.646 -3.675,1.137 -7.58,0.918 -11.374,1.213 -4.794,-0.59 -9.663,-0.799 -14.412,-1.6 -5.289,-1.609 -10.731,-3.148 -15.313,-6.348 -2.792,-1.898 -6.13,-3 -8.355,-5.648 -3.37,-3.497 -6.65,-7.114 -9.748,-10.854 -5.317,-6.972 -8.263,-9.439 -13.865,-16.182 -1.497,-1.866 -5.531,-6.192 -8.156,-8.868 -0.031,-1.7 -0.063,-3.4 -0.094,-5.101 z"
           id="Z"
           style="fill:#aaaaaa;stroke:#000000;stroke-linecap:round;stroke-linejoin:round" />
        <path
           d="m 30.25,198 4.25,-1.25 4.25,-2.75 5,-5.25 3.5,-5 2,-5.75 0.75,-2 1.25,-0.5 5.5,0.75 7.25,-0.5 8.25,-1.5 5,-1.75 3.5,-1.5 c 1.665,-0.573 1.841,-1.025 3.25,-1.25 l 7,10.5 c 0,0 9.216,13.13 13.75,19.75 2.443,3.565 5.33,6.878 7.25,10.75 2.072,4.179 3.532,8.687 4.5,13.25 0.955,4.502 1.346,9.149 1.25,13.75 -0.053,2.522 -0.614,5.01 -1,7.5 -0.44,2.843 -1.5,8.5 -1.5,8.5 l -1.5,4.5 -7,1 -8.25,-0.25 -8,-1 -8,-1.25 -8.5,-3 -8,-4.25 -6.25,-4 -4,-4.5 L 35.5,217.5 30.25,211 z"
           transform="translate(0,512.36)"
           id="a"
           style="fill:none;stroke:#000000;stroke-linecap:round;stroke-linejoin:round" />
        <path
           d="m 30.25,691.86 c 2.797,-1.029 6.277,-1.543 7.714,-4.496 2.72,-3.526 5.03,-7.51 5.536,-12 1.89,-1.055 4.132,0.427 6.204,0.32 4.676,0.68 9.507,0.766 14.08,-0.543 5.331,-1.033 10.746,-1.972 15.592,-4.564 2.461,-1.089 7.87,-3.964 7.87,-3.964 0,0 0.464,0.619 4.71,6.723 10.253,15.187 19.49,28.1 29.593,43.38 2.759,4.466 5.554,9 6.8,14.155 2.42,8.695 1.809,17.809 2.147,26.74 -1.645,7.533 -2.301,15.621 -6.557,22.243 -0.902,1.934 -2.379,2.717 -4.478,2.257 -14.07,0 -28.14,0 -42.22,0 -6.158,-2.987 -12.709,-5.41 -18.226,-9.461 -6.163,-4.525 -11.5,-10.16 -16.178,-16.257 -4.136,-4.722 -8.139,-9.61 -12.846,-13.782 0.083,-16.917 0.167,-33.833 0.25,-50.75 z"
           id="b"
           style="fill:none;stroke:#000000;stroke-linecap:round;stroke-linejoin:round" />
        <use
           transform="translate(1.5,511.11)"
           id="use65"
           x="0"
           y="0"
           width="360"
           height="540"
           xlink:href="#1" />
        <use
           transform="translate(20,508.86)"
           id="use67"
           x="0"
           y="0"
           width="360"
           height="540"
           xlink:href="#1" />
        <use
           transform="translate(38,503.86)"
           id="use69"
           x="0"
           y="0"
           width="360"
           height="540"
           xlink:href="#1" />
        <use
           transform="translate(49.25,517.11)"
           id="use71"
           x="0"
           y="0"
           width="360"
           height="540"
           xlink:href="#1" />
        <use
           transform="translate(62,535.86)"
           id="use73"
           x="0"
           y="0"
           width="360"
           height="540"
           xlink:href="#1" />
        <use
           transform="translate(73.5,555.36)"
           id="use75"
           x="0"
           y="0"
           width="360"
           height="540"
           xlink:href="#1" />
        <use
           transform="translate(77.5,577.86)"
           id="use77"
           x="0"
           y="0"
           width="360"
           height="540"
           xlink:href="#1" />
        <use
           transform="translate(71,604.11)"
           id="use79"
           x="0"
           y="0"
           width="360"
           height="540"
           xlink:href="#1" />
        <use
           transform="translate(50.25,605.61)"
           id="use81"
           x="0"
           y="0"
           width="360"
           height="540"
           xlink:href="#1" />
        <use
           transform="translate(30.5,603.36)"
           id="use83"
           x="0"
           y="0"
           width="360"
           height="540"
           xlink:href="#1" />
        <use
           transform="translate(12,592.61)"
           id="use85"
           x="0"
           y="0"
           width="360"
           height="540"
           xlink:href="#1" />
        <use
           transform="translate(-3.75,576.11)"
           id="use87"
           x="0"
           y="0"
           width="360"
           height="540"
           xlink:href="#1" />
        <use
           transform="translate(-13,528.36)"
           id="use89"
           x="0"
           y="0"
           width="360"
           height="540"
           xlink:href="#1" />
      </g>
      <g
         id="g91">
        <path
           d="m 148.08,738.92 c 3.896,-2.988 5.875,-5.235 11.427,-8.585 2.871,-1.733 3.638,-3.544 7.491,-4.481 3.853,-0.937 10.564,-1.081 14.28,-1.644 4.415,-0.669 5.508,-0.268 10.08,0.107 1.661,-0.023 8.246,-1.107 6.786,0.313 -3.233,4.818 -9.163,11.611 -14.01,17.198 -4.35,5.02 -7.979,10.966 -13.506,14.65 -2.131,1.421 -4.978,1.392 -7.218,2.634 -1.338,0.741 -2.256,2.126 -3.619,2.821 -2.872,1.465 -6.135,3.333 -9.293,2.682 -2.957,-0.61 -5.482,-3.14 -7,-5.75 -1.743,-2.997 -1.925,-6.787 -1.763,-10.25 0.103,-2.192 0.471,-4.549 1.719,-6.355 1.081,-1.564 3.114,-2.183 4.622,-3.34 z"
           id="path93"
           style="fill:#ffaaaa;fill-opacity:0.98200001;stroke:#000000" />
        <path
           d="m 191.73,220.46 c 0,0 -5.909,-1.058 -8.891,-1.01 -2.709,0.047 -8.04,1.194 -8.04,1.194"
           transform="translate(0,512.36)"
           id="c"
           style="fill:none;stroke:#000000;stroke-linecap:round;stroke-linejoin:round" />
        <path
           d="m 183.79,229.29 c 0,0 -4.165,-0.729 -6.268,-0.704 -1.64,0.019 -4.877,0.664 -4.877,0.664"
           transform="translate(0,512.36)"
           id="d"
           style="fill:none;stroke:#000000;stroke-linecap:round;stroke-linejoin:round" />
        <path
           d="m 177.75,236.54 c 0,0 -3.582,-0.318 -5.364,-0.155 -0.789,0.072 -2.323,0.498 -2.323,0.498"
           transform="translate(0,512.36)"
           id="e"
           style="fill:none;stroke:#000000;stroke-linecap:round;stroke-linejoin:round" />
        <path
           d="m 164.4,749.19 c 0.072,-0.861 1.042,-1.223 1.237,-1.945"
           id="f"
           style="fill:none;stroke:#000000;stroke-linecap:round;stroke-linejoin:round" />
        <path
           d="m 164.23,742.12 c 0.302,-0.563 1.01,-0.816 1.414,-1.238"
           id="g"
           style="fill:none;stroke:#000000;stroke-linecap:round;stroke-linejoin:round" />
        <path
           d="m 164.93,734.52 c 0.052,-0.814 0.898,-1.235 1.591,-1.414"
           id="h"
           style="fill:none;stroke:#000000;stroke-linecap:round;stroke-linejoin:round" />
      </g>
      <path
         d="m 144.6,775 7.601,-3.889 6.187,-3.889 5.834,-5.127 5.834,-5.303 10.43,-10.607 9.02,-11.49 8.485,-10.96 9.02,-12.728 12.728,-19.799 12.02,-18.562 6.364,-12.02 4.596,-7.955 10.783,6.541 8.132,5.303 6.01,5.303 2.298,1.061 -4.419,9.192 -11.314,20.683 -12.374,19.445 -17.15,22.627 -10.43,12.198 -10.607,10.43 -10.96,9.546 z"
         id="7"
         style="fill:#aa0000;stroke:#000000" />
      <path
         d="m 154.15,774.99 c 13.811,-7.172 23.308,-19.882 33.17,-31.518 19.886,-23.47 36.25,-49.831 51.723,-76.43 2.307,-4.125 4.548,-8.288 6.716,-12.488"
         id="8"
         style="fill:none;stroke:#000000" />
      <path
         d="m 266.68,668.97 c -13.454,32.796 -34.462,60.63 -57.58,86.38 -6.079,6.771 -14.521,14.44 -22.401,19.636"
         id="9"
         style="fill:none;stroke:#000000" />
      <path
         d="m 152.93,577.27 c -3.865,1.303 -8.23,-1.145 -10.562,-4.26 -3.267,-3.814 -1.465,-9.225 0.158,-13.338 2.766,-4.805 7.679,-7.839 12.02,-11.09 10.576,-5.416 22.842,-5.64 34.466,-5.793 8.855,0.132 18.03,0.512 26.295,3.972 7.777,3.946 15.584,10.766 20.633,18.315 5.712,7.551 10.552,15.93 11.244,25.659 0.204,4.279 -3.613,7.324 -6.951,9.276 -4.068,1.237 -9.285,1.152 -12.315,-2.28 -5.124,-4.52 -7.526,-11.12 -11.784,-16.301 -4.226,-4.635 -10.41,-6.676 -16.05,-9 -10.03,-2.846 -20.566,-3.487 -30.949,-3.611 -5.306,0.481 -11.391,0.373 -15.485,4.328 -1.09,1.263 0.162,2.969 -0.717,4.123 z"
         id="A"
         style="fill:#5555aa;stroke:#000000" />
      <g
         id="g105">
        <path
           d="m 153.5,582.11 c -2.943,2.403 -4.21,7.409 -7.219,10.392 -2.053,4.641 1.341,10.265 -1.506,14.615 -1.823,3.628 -0.856,8.105 -4.774,10.743 -1.197,5.132 -0.256,9.712 -3.03,14.557 -2.33,1.82 0.869,7.146 -4.39,4.769 -7.08,0.562 -2.72,11.268 -8.27,13.445 -3.12,3.64 -0.834,8.466 2.509,10.332 3.02,2.34 7.182,-3.053 11.183,-2.352 4.67,-0.896 9.304,-1.773 13.37,-4.288 3.621,-2.638 7.399,-2.498 9.719,-5.386 2.699,-3.36 3.106,-7.285 3.681,-12.395 2.503,-13.358 4.76,-27.35 1.415,-40.763 -1.597,-6.297 -5.989,-12.339 -12.685,-13.668 z"
           id="i"
           style="fill:#aa5500;stroke:#000000;stroke-linecap:round;stroke-linejoin:round" />
        <path
           d="m 139.01,626.2 c 0.697,2.183 -0.264,10 -1.044,12.554 -0.675,2.207 -0.132,6.326 -2.473,6.641 -1.847,0.248 -5.855,-1.848 -4.139,-4.04 1.194,-1.525 3.57,0.019 3.57,0.019"
           id="j"
           style="fill:none;stroke:#000000;stroke-linecap:round;stroke-linejoin:round" />
        <path
           d="m 152.9,595.78 c -2.726,7.509 -3.497,15.488 -5.231,23.24 -0.628,2.805 -1.5,5.567 -1.873,8.418 -0.705,5.389 0.954,11.11 -0.674,16.291 -0.742,2.365 -2.597,4.224 -3.994,6.272 -1.575,2.31 -2.475,5.462 -4.942,6.778 -2.135,1.139 -5.766,2.195 -7.254,0.287 -1.366,-1.752 -0.337,-6.215 1.878,-6.396 1.351,-0.11 4.445,2.294 1.763,3.666"
           id="k"
           style="fill:none;stroke:#000000;stroke-linecap:round;stroke-linejoin:round" />
        <path
           d="m 126.15,649.21 c 2.02,-1.845 5.441,-2.086 7.958,-0.69 1.934,1.263 4.338,-0.054 5.168,-1.958 1.274,-1.869 2.01,-4.672 2.13,-6.998 0.661,-2.503 0.893,-5.077 0.896,-8.92 1.114,-3.53 0.326,-4.353 1.565,-8.148 0.526,-5.01 1.804,-8.317 3.145,-11.54 1.789,-3.92 1.588,-8.278 1.873,-12.472 0.477,-3.691 1.589,-7.615 4.317,-10.283"
           id="l"
           style="fill:none;stroke:#000000;stroke-linecap:round;stroke-linejoin:round" />
        <path
           d="m 152.9,611.86 c -1.872,4.111 -2.564,8.615 -3.278,13.04 -0.748,4.634 -0.332,9.404 -1.04,14.04 -0.699,4.58 -1.265,9.306 -3.154,13.537 -0.961,2.153 -2.5,4.03 -4.057,5.796"
           id="m"
           style="fill:none;stroke:#000000" />
        <path
           d="m 152.9,624.91 c -0.461,6.352 -0.625,12.755 -1.758,19.02 -0.604,3.34 -1.095,6.822 -2.675,9.826 -0.611,1.162 -1.59,2.108 -2.545,3.01"
           id="n"
           style="fill:none;stroke:#000000" />
        <path
           d="m 151.99,654.03 c 1.112,-3.953 2.744,-5.067 2.847,-10.569 0.045,-2.4 2.315,-4.556 1.324,-7.079"
           id="o"
           style="fill:none;stroke:#000000;stroke-linecap:round;stroke-linejoin:round" />
        <path
           d="m 159.88,642.2 c -1.745,2.272 -1.33,2.969 -1.947,4.473 -0.676,1.648 -0.719,3.339 -1.923,4.986"
           id="p"
           style="fill:none;stroke:#000000;stroke-linecap:round;stroke-linejoin:round" />
      </g>
      <path
         d="m 154,577.61 c -1.228,2.108 -0.833,4.816 -1,7.25 -0.137,1.995 -0.105,4 0,6 0.083,1.59 0.37,3.163 0.5,4.75 0.116,1.414 0.256,2.831 0.25,4.25 -0.001,2.506 -0.21,5.01 -0.5,7.5 -0.176,1.51 -0.625,2.984 -0.75,4.5 -0.213,2.575 -0.103,5.169 0,7.75 0.083,2.088 0.051,4.209 0.5,6.25 0.362,1.648 1.243,3.141 1.75,4.75 0.492,1.562 0.621,3.239 1.25,4.75 0.632,1.517 1.644,2.847 2.5,4.25 0.975,1.599 1.913,3.225 3,4.75 0.929,1.304 2.248,2.337 3,3.75 0.656,1.233 0.807,2.675 1.25,4 0.393,1.175 0.72,2.38 1.25,3.5 0.623,1.318 1.464,2.522 2.25,3.75 1.196,1.869 2.242,3.872 3.75,5.5 1.088,1.174 2.328,2.266 3.75,3 1.078,0.557 2.291,0.895 3.5,1 1.586,0.138 3.196,-0.153 4.75,-0.5 1.98,-0.442 4.054,-0.886 5.75,-2 2.367,-1.553 3.79,-4.207 5.75,-6.25 1.795,-1.871 3.713,-3.621 5.5,-5.5 1.627,-1.71 3.24,-3.436 4.75,-5.25 1.141,-1.371 2.213,-2.799 3.25,-4.25 1.397,-1.956 2.988,-3.82 4,-6 1.644,-3.54 2.762,-7.377 3.25,-11.25 0.344,-2.73 0.005,-5.511 -0.25,-8.25 -0.399,-4.283 -1.089,-8.545 -2,-12.75 -0.659,-3.043 -1.614,-6.02 -2.5,-9 -0.945,-3.184 -1.913,-6.362 -3,-9.5 -1.312,-3.788 -1.489,-8.344 -4.25,-11.25 -2,-2.11 -5.212,-2.662 -8,-3.5 -4.212,-1.266 -8.606,-2.061 -13,-2.25 -2.925,-0.126 -5.827,0.588 -8.75,0.75 -3.329,0.184 -6.702,-0.239 -10,0.25 -2.48,0.367 -5,0.885 -7.25,2 -1.597,0.793 -3.352,1.709 -4.25,3.25 z"
         id="B"
         style="fill:#ffaaaa;stroke:#000000" />
      <path
         d="m 162.62,632.99 c 0.327,-1 1.467,-1.285 2.222,-1.877 0.556,-0.42 0.902,-1.192 1.689,-1.227 0.882,-0.113 1.95,0.019 2.475,0.826 0.532,0.49 1.583,0.418 1.591,-0.352 0.446,-0.371 1.586,-0.326 2.095,-0.297 1.415,0.298 2.07,0.923 3.329,1.631 0.521,0.264 1.315,0.472 1.35,1.17 -0.211,0.784 -1.362,0.555 -1.736,1.249 -0.825,0.978 -1.311,1.137 -2.203,2.066 -0.671,0.859 -1.456,1.791 -2.608,1.941 -1.369,0.218 -2.753,-0.102 -4.08,-0.425 -0.869,-0.24 -1.774,-0.735 -2.059,-1.654 -0.233,-0.792 -0.749,-0.372 -1.189,-1.053 -0.338,-0.58 -0.616,-1.197 -0.88,-1.81 l -0.009,-0.095 0.014,-0.095 z"
         id="C"
         style="fill:#ff5555;stroke:#000000" />
      <path
         d="m 154.36,578.16 c 2,-0.131 2.796,-1.099 5.518,-1.896 3.253,-1.406 6.684,-1.692 10.165,-1.491 6.381,0.026 12.818,-0.382 19.15,0.547 6.571,1.425 13.239,2.934 19.277,5.985 2.042,1.203 3.995,2.565 5.997,3.806 2.33,0.368 3.203,-3.56 1.501,-4.866 -2.305,-2.426 -5.651,-3.377 -8.474,-5.04 -9.06,-4.287 -19.1,-6.143 -29.06,-6.663 -7.06,-0.095 -14.368,-0.377 -21.11,2.081 -2.297,0.794 -4.481,2.794 -5.121,5.385 -0.64,2.591 0.147,2.282 2.151,2.151 z"
         id="D"
         style="fill:#ffaa55;stroke:#000000" />
      <path
         d="m 153,590.11 c 2.953,0.213 5.916,0.287 8.876,0.264 1.259,0.948 3.25,1.64 3.294,3.497 0.191,2.051 0.843,4.081 0.671,6.151 -0.328,1.926 -1.083,3.747 -1.478,5.66 -0.844,3.351 -1.732,6.707 -2.36,10.1 -0.722,2.682 0.21,3.881 1.98,4.68 0.855,1.04 1.283,2.763 2.806,2.991 2.078,-0.034 2.232,-2.711 3.88,-3.414 1.416,-0.406 2.885,0.333 3.795,1.407 1.616,0.305 2.206,-1.71 1.992,-2.975 -0.186,-1.241 -1.028,-2.393 -2.206,-2.861"
         id="E"
         style="fill:none;stroke:#000000;stroke-linecap:round;stroke-linejoin:round" />
      <path
         d="m 198.25,594.61 c -1.399,-0.798 -2.866,-1.523 -4.11,-2.556 -0.726,-0.728 -1.355,-1.693 -2.45,-1.876 -1.638,-0.367 -3.315,0.051 -4.971,-0.086 -2.178,-0.048 -4.357,0.006 -6.533,0.072 -1.057,0.109 -2.123,0.368 -3.07,0.854 -1.015,0.499 -0.808,1.692 -0.616,2.592"
         id="F"
         style="fill:none;stroke:#000000;stroke-linecap:round" />
      <path
         d="m 154,596.36 c 0,0 2.795,-1 4.25,-1 1.455,0 2.865,0.552 4.25,1 1.02,0.33 2.97,1.235 2.97,1.235"
         id="G"
         style="fill:none;stroke:#000000;stroke-linecap:round;stroke-linejoin:round" />
      <path
         d="m 154.12,599.99 c 0,0 3.492,-1.643 5.375,-1.875 0.914,-0.112 1.885,-0.064 2.75,0.25 1.239,0.449 3.25,2.25 3.25,2.25 l -1.25,3.25 c 0,0 -2.156,0.551 -3.25,0.75 -1.241,0.225 -2.49,0.55 -3.75,0.5 -1.192,-0.047 -3.5,-0.75 -3.5,-0.75 z"
         id="H"
         style="fill:#ffffff;stroke:#000000" />
      <path
         d="m 179.25,597.86 c 0,0 1.919,-1.213 3,-1.5 1.452,-0.386 2.998,-0.208 4.5,-0.25 0.833,-0.023 1.682,-0.158 2.5,0 1.322,0.255 2.559,0.873 3.75,1.5 1.064,0.56 2,1.333 3,2 0.25,0.167 0.75,0.5 0.75,0.5"
         id="I"
         style="fill:none;stroke:#000000;stroke-linecap:round;stroke-linejoin:round" />
      <path
         d="m 179.25,602.86 c 0.621,-0.876 1.115,-1.903 2,-2.5 0.721,-0.487 1.639,-0.624 2.5,-0.75 1.814,-0.266 3.674,-0.16 5.5,0 1.433,0.125 2.812,0.704 4.25,0.75 0.754,0.024 1.923,-0.93 2.25,-0.25 0.613,1.275 -1.906,2.103 -3,3 -0.929,0.762 -1.86,1.618 -3,2 -1.346,0.451 -2.835,0.358 -4.25,0.25 -1.19,-0.091 -2.396,-0.298 -3.5,-0.75 -1.01,-0.412 -2.13,-0.767 -2.75,-1.75 z"
         id="J"
         style="fill:#ffffff;stroke:#000000;stroke-linecap:round;stroke-linejoin:round" />
      <path
         d="m 187.75,90 a 2.25,2 0 1 1 -4.5,0 2.25,2 0 1 1 4.5,0 z"
         transform="matrix(1.16369,0,0,1.37165,-30.11,479.04)"
         id="K"
         style="fill:#5555aa;stroke:#000000;stroke-width:0.792;stroke-linecap:round;stroke-linejoin:round" />
      <path
         d="m 161,89.625 a 2.5,2.625 0 1 1 -5,0 2.5,2.625 0 1 1 5,0 z"
         transform="translate(0,511.86)"
         id="L"
         style="fill:#5555aa;stroke:#000000;stroke-linecap:round;stroke-linejoin:round" />
      <path
         d="m 186.75,90.125 a 0.625,0.875 0 1 1 -1.25,0 0.625,0.875 0 1 1 1.25,0 z"
         transform="translate(0,512.36)"
         id="M"
         style="stroke:#000000;stroke-linecap:round;stroke-linejoin:round" />
      <path
         d="m 159,89.125 a 0.5,0.625 0 1 1 -1,0 0.5,0.625 0 1 1 1,0 z"
         transform="translate(0,512.61)"
         id="N"
         style="stroke:#000000;stroke-linecap:round;stroke-linejoin:round" />
      <path
         d="m 162.62,633.24 c 0.943,-0.071 1.896,-0.076 2.822,-0.287 0.766,-0.213 1.039,0.719 1.714,0.833 0.998,0.26 2.069,0.418 3.089,0.203 0.656,-0.207 1.168,-0.7 1.794,-0.977 0.633,-0.432 1.422,-0.522 2.16,-0.358 0.827,0.054 1.594,0.438 2.422,0.46 0.172,-0.011 0.338,-0.07 0.5,-0.125"
         id="O"
         style="fill:#ff5555;stroke:#000000" />
      <path
         d="m 167.5,626.36 c -1.035,0.851 -0.753,2.441 -1.641,3.426 -0.756,1.592 -2.078,2.989 -3.893,3.271 -1.815,0.417 -3.889,0.251 -5.319,-1.056 -1.227,-1.305 -3.486,-1.146 -4.44,-2.679 0.353,-1.739 2.722,-0.091 3.788,0.258 1.605,0.941 3.01,-1.054 3.583,-2.346 0.402,-1.899 2.285,-1.816 3.778,-1.994 1.206,-0.6 2.38,-1.357 3.782,-1.372 1.94,-0.235 3.902,-0.008 5.748,0.622 1.77,0.546 4.04,-0.627 5.427,1 1.087,1.372 2.079,2.853 3.371,4.04 1.834,1.15 4.183,0.67 6.145,0.142 1.145,-0.628 2.335,-1.301 3.698,-1.142 1.521,-0.145 3.621,1.37 2.859,2.972 -1.698,1.247 -1.857,-2.01 -3.51,-1.083 -1.893,0.653 -3.71,1.512 -5.393,2.596 -1.949,0.71 -4.068,0.462 -6.091,0.774 -1.414,0.217 -2.479,-0.841 -3.263,-1.865 -1.158,-1.224 -2.921,-1.546 -4.205,-2.613 -1.317,-0.648 -2.178,-1.877 -2.638,-3.088 -0.565,-0.259 -1.262,-0.189 -1.786,0.133 z"
         id="P"
         style="fill:#aa5500;stroke:#000000" />
      <path
         d="m 163.52,647.01 c 1.154,1.297 2.02,2.92 3.438,3.924 1.817,1.284 4.061,1.857 6.199,2.471 0.74,0.212 1.503,0.388 2.272,0.412 2.377,0.074 4.805,-0.157 7.084,-0.832 1.927,-0.57 3.635,-1.721 5.407,-2.67 1.902,-1.019 3.874,-1.952 5.602,-3.245 2.527,-1.891 4.651,-4.271 6.864,-6.521 0.699,-0.711 1.385,-1.433 2.024,-2.201"
         id="Q"
         style="fill:none;stroke:#000000;stroke-linecap:round;stroke-linejoin:round" />
      <g
         id="g131">
        <path
           d="m 296.28,30.18 -0.707,6.718 -2.475,12.374 -1.768,6.364 -1.414,5.303 -2.121,4.243 v 2.121 l 6.01,0.354 -0.354,13.789 -2.121,1.414 v 2.121 0.707 l -1.768,1.061 -0.354,1.414 2.828,0.707 v 19.799 l 0.25,44.634 9.942,5.846 -0.5,-49.937 1.021,-20.57 1.661,-1.186 0.707,-1.061 -0.354,-3.889 -2.121,-1.061 -0.354,-1.061 -0.354,-12.728 6.093,0.621 0.271,-1.328 -2.828,-8.485 -2.475,-10.607 -1.414,-8.485 -1.061,-4.95 -0.354,-4.243 z"
           transform="translate(0,512.36)"
           id="q"
           style="fill:#aaaaff;stroke:#000000;stroke-linecap:round;stroke-linejoin:round" />
        <path
           d="m 272.24,555.62 c -3.384,4.486 -7.218,8.66 -10.257,13.39 -2.632,4.097 -5.05,8.376 -6.855,12.901 -1.635,4.108 -2.799,8.426 -3.528,12.787 -0.822,4.916 -1.124,9.944 -0.927,14.925 0.176,4.438 0.815,8.878 1.875,13.191 0.969,3.944 2.355,7.803 4.073,11.484 2.31,4.951 5.107,9.703 8.318,14.12 1.827,2.515 3.652,5.174 6.177,6.987 0.968,0.696 2.414,3.499 3.296,1.389 3.048,-4.03 6.095,-8.05 9.142,-12.08 -1.383,-1.87 -3.378,-3.396 -4.282,-5.551 -0.873,-2.08 -1.22,-4.466 -0.928,-6.703 0.327,-2.506 1.282,-5.079 2.934,-6.991 1.731,-2 4.264,-3.346 6.8,-4.104 2.87,-0.858 5.996,-0.155 8.979,-0.34 2.562,0.101 5.25,-0.452 7.565,0.932 1.626,0.222 1.976,2.137 2.267,3.459 0.599,1.296 -1.13,3.729 -0.207,4.049 1.792,-0.175 4.05,0.676 5.413,-0.714 1.756,-0.536 1.388,-2.908 1.578,-4.443 0.14,-2.655 2.095,-4.698 3.319,-6.946 1.12,-1.899 2.568,-3.546 4.04,-5.175 -1.625,-1.312 -3.577,-2.348 -4.253,-4.463 -1.401,-1.945 -1.762,-4.247 -2.064,-6.568 -0.235,-1.818 0.465,-3.845 -0.919,-5.343 -0.308,-1.347 -3.192,-1.975 -3.01,-0.097 -0.536,2.403 -0.737,3.61 -2.484,5.326 -2.049,-0.022 -4.613,-0.228 -6.706,0.229 -4.721,0.039 -9.557,0.676 -14.15,-0.396 -2.232,-0.521 -4.434,-1.471 -6.249,-2.87 -1.595,-1.229 -2.963,-2.852 -3.836,-4.667 -0.749,-1.557 -1.146,-3.345 -1.074,-5.071 0.08,-1.917 0.723,-3.837 1.658,-5.512 1.287,-2.305 2.901,-4.576 5.259,-5.922 -3.653,-7.07 -7.307,-14.14 -10.96,-21.21 z"
           id="r"
           style="fill:#aaaaff;stroke:#000000;stroke-linecap:round;stroke-linejoin:round" />
        <path
           d="m 269,608.3 c 0,0 0.455,-2.788 1.333,-3.667 0.878,-0.878 2.424,-1.333 3.667,-1.333 1.242,0 2.788,0.455 3.667,1.333 0.878,0.878 1.333,2.424 1.333,3.667 0,1.242 -0.667,3 -1.333,3.667 -0.667,0.667 -1.333,1 -2,1.667 -0.667,0.667 -1,0.667 -1.667,1.333 -0.667,0.667 -1,1 -1.667,1.667 -0.667,0.667 -1.667,2 -2.333,3.333 -0.667,1.333 -1,3.333 -1,3.333 0,0 -0.333,-2 -1,-3.333 -0.667,-1.333 -1.667,-2.667 -2.333,-3.333 -0.667,-0.667 -1,-1 -1.667,-1.667 -0.667,-0.667 -1,-0.667 -1.667,-1.333 -0.667,-0.667 -1.333,-1 -2,-1.667 C 259.666,611.3 259,609.543 259,608.3 c 0,-1.242 0.455,-2.788 1.333,-3.667 0.878,-0.878 2.424,-1.333 3.667,-1.333 1.242,0 2.788,0.455 3.667,1.333 0.878,0.878 1.333,3.667 1.333,3.667 z"
           id="s"
           style="fill:#ff5555;stroke:#000000" />
        <path
           d="m 293.8,580.01 c 0.631,-3.873 1.428,-7.717 2.04,-11.594 0.849,-4.639 0.662,-7.599 1.366,-14.05 0.254,-4.062 0.292,-9.989 0.837,-12.181 0.954,2.027 1.246,8.465 1.162,12.329 0.89,6.839 0.81,10.388 1.311,13.917 0.205,3.491 1.257,8.722 1.321,11.322"
           id="t"
           style="fill:none;stroke:#000000;stroke-linecap:round;stroke-linejoin:round" />
        <path
           d="m 293.45,81.09 c 2.711,0.118 8.999,-0.652 8.632,-0.021"
           transform="translate(0,512.36)"
           id="u"
           style="fill:none;stroke:#000000" />
        <path
           d="m 290.97,86.04 13.664,-0.043"
           transform="translate(0,512.36)"
           id="v"
           style="fill:none;stroke:#000000" />
      </g>
      <path
         d="m 316,717.61 c 0.639,-0.78 1.13,-2.853 2.046,-1.204 0.846,0.741 0.438,2.181 0.248,3.176 -0.403,1.428 -0.647,3.192 0.411,4.386 0.822,1.316 1.816,2.729 2.01,4.266 -0.514,3.144 0.422,6.262 0.784,9.376 0.196,1.288 0.831,2.344 1.75,3.25 -0.076,1.192 -0.211,2.359 -1.187,3.172 -3.346,2.622 -6.684,5.327 -10.495,7.259 -3.266,1.673 -6.593,3.706 -10.376,3.706 -3.088,0.014 -6.02,1.513 -9.127,0.997 -1.498,-0.078 -3.057,0.072 -4.324,-0.889 -2.109,-1.062 -4.338,-1.945 -5.974,-3.715 -1.767,-1.348 -3.163,-3.11 -4.266,-5.03 2.74,-5.154 5.877,-10.07 9,-15 0.685,-1.66 1.491,-3.273 2,-5 1.366,-0.446 1.968,0.725 3.034,1.178 1.724,0.574 3.417,1.344 5.279,1.072 2.627,-0.126 5.352,0.409 7.843,-0.647 2.694,-0.613 5.112,-1.942 7.594,-3.103 1.246,-1.969 2.738,-3.877 3.75,-5.938 0,-0.437 0,-0.875 0,-1.312 z"
         id="R"
         style="fill:#ffaa55;stroke:#000000;stroke-linecap:round;stroke-linejoin:round" />
      <path
         d="m 266.25,764.36 c 0.862,-1.863 1.675,-3.753 2.568,-5.598 1.508,-2.16 2.984,-4.346 4.512,-6.49 1.557,-1.72 3.113,-3.441 4.67,-5.161 -1.343,2.206 -2.731,4.39 -4.046,6.61 -0.985,2.401 -2,4.792 -2.966,7.198 -0.322,1.688 -0.706,3.369 -0.988,5.061 0,2.377 0,4.754 0,7.131"
         id="S"
         style="fill:none;stroke:#000000;stroke-linecap:round;stroke-linejoin:round" />
      <path
         d="m 315,765.86 c -1.34,2.186 -2.696,4.364 -4.03,6.556 -0.849,1.804 -1.663,3.624 -2.575,5.397 -0.05,0.099 -0.099,0.198 -0.149,0.298"
         id="T"
         style="fill:none;stroke:#000000;stroke-linecap:round;stroke-linejoin:round" />
      <path
         d="m 56,774.86 -0.5,7 h 13 z"
         id="U"
         style="fill:#5555aa;stroke:#000000;stroke-linecap:round;stroke-linejoin:round" />
      <g
         id="g143">
        <path
           d="m 124.75,269.5 131,-0.25 c 0,0 0.061,-1.835 0,-2.75 -0.083,-1.258 -0.313,-2.503 -0.5,-3.75 -0.15,-1 -0.283,-2.01 -0.5,-3 -0.203,-0.928 -0.273,-1.928 -0.75,-2.75 -0.237,-0.408 -0.594,-0.761 -1,-1 -0.523,-0.308 -1.75,-0.5 -1.75,-0.5 0,0 -3.95,3.09 -6.25,4 -3.389,1.341 -7.124,1.627 -10.75,2 -3.98,0.409 -8,0.182 -12,0.25 -6.416,0.108 -12.834,0.151 -19.25,0.25 -4.667,0.072 -9.334,0.158 -14,0.25 -7.667,0.152 -15.332,0.478 -23,0.5 -5.167,0.014 -10.333,-0.166 -15.5,-0.25 -5.083,-0.083 -10.169,-0.081 -15.25,-0.25 -1.668,-0.055 -5,-0.25 -5,-0.25 0,0 -1.182,3.361 -2.25,4.75 -0.865,1.125 -3.25,2.75 -3.25,2.75 z"
           transform="translate(0,512.36)"
           id="w"
           style="fill:#ffaa55;stroke:#000000;stroke-linecap:round;stroke-linejoin:round" />
        <path
           d="m 129.58,777.12 c 28.2,0.318 56.41,0.368 84.6,-0.189 7.765,-0.153 15.945,0.209 23.282,-0.868 6.06,-0.89 9.453,-1.629 16.569,-5.66"
           id="x"
           style="fill:none;stroke:#000000" />
        <path
           d="m 129.58,264.58 2.298,4.773 2.828,-4.419 3.182,4.596 3.01,-4.419 2.652,4.066 2.828,-3.889 2.652,3.712 3.359,-3.889 2.828,4.419 3.182,-4.419 2.652,4.243 3.01,-4.066 3.01,4.243 3.01,-4.066 2.828,3.889 3.182,-4.419 2.475,3.889 3.182,-3.712 2.652,4.066 3.182,-3.889 2.298,3.889 3.182,-4.066 2.828,4.419 3.01,-4.419 2.828,3.889 3.359,-3.889 2.652,4.066 2.828,-4.243 2.652,3.889 3.01,-4.066 3.182,4.419 2.828,-4.419 2.828,4.243 3.182,-4.773 3.182,4.95 2.475,-5.127 3.01,5.127 2.828,-5.834 2.652,5.303 2.475,-6.364 3.182,6.364 1.768,-8.485 5.303,8.485"
           transform="translate(0,512.36)"
           id="y"
           style="fill:none;stroke:#000000;stroke-linecap:round;stroke-linejoin:round" />
      </g>
      <g
         id="g148"
         style="stroke:#000000;stroke-linecap:round;stroke-linejoin:round">
        <path
           d="m 192.16,262.05 32.09,0.198 c 0,0 6.659,-7.507 10,-11.25 4.323,-4.843 8.971,-9.411 13,-14.5 5.611,-7.087 10.686,-14.6 15.5,-22.25 3.876,-6.159 7.07,-12.723 10.75,-19 2.517,-4.29 5.344,-8.397 7.75,-12.75 1.713,-3.099 5.302,-6 4.75,-9.5 -1.094,-6.927 -14.75,-15 -14.75,-15 h -1.5 c 0,0 -9.566,20.329 -15.25,30 -5.294,9.01 -11.35,17.555 -17.5,26 -5.555,7.627 -11.379,15.07 -17.5,22.25 -3.826,4.488 -7.914,8.747 -12,13 -2.205,2.295 -4.315,4.701 -6.75,6.75 -2.681,2.256 -8.593,6.05 -8.593,6.05 z"
           transform="translate(0,512.36)"
           id="z"
           style="fill:#ffaa55;stroke:#000000" />
        <path
           d="m 268.5,673.11 c 0,0 4.265,2.173 6.25,3.5 1.677,1.121 3.266,2.384 4.75,3.75 1.258,1.158 2.36,2.476 3.5,3.75 1.024,1.145 3,3.5 3,3.5"
           id="10"
           style="fill:none;stroke:#000000" />
        <path
           d="m 267.25,675.86 c 0,0 4.265,2.173 6.25,3.5 1.677,1.121 3.266,2.384 4.75,3.75 1.258,1.158 2.36,2.476 3.5,3.75 1.024,1.145 3,3.5 3,3.5"
           id="11"
           style="fill:none;stroke:#000000" />
        <path
           d="m 266,678.61 c 0,0 4.02,1.985 5.893,3.198 1.581,1.025 3.079,2.178 4.479,3.427 1.186,1.058 2.225,2.262 3.3,3.427 0.966,1.047 2.829,3.198 2.829,3.198"
           id="12"
           style="fill:none;stroke:#000000" />
        <path
           d="m 264.25,681.74 c 0,0 3.96,1.948 5.804,3.138 1.557,1.01 3.03,2.137 4.411,3.362 1.168,1.038 2.191,2.22 3.25,3.362 0.951,1.027 2.786,3.138 2.786,3.138"
           id="13"
           style="fill:none;stroke:#000000" />
        <path
           d="m 262.75,684.74 c 0,0 4.02,1.985 5.893,3.198 1.581,1.025 3.079,2.178 4.479,3.427 1.186,1.058 2.225,2.262 3.3,3.427 0.966,1.047 2.829,3.198 2.829,3.198"
           id="14"
           style="fill:none;stroke:#000000" />
        <path
           d="m 261.37,687.92 c 0,0 3.96,1.873 5.804,3.02 1.557,0.967 3.03,2.055 4.411,3.233 1.168,0.998 2.191,2.134 3.25,3.233 0.951,0.987 2.786,3.02 2.786,3.02"
           id="15"
           style="fill:none;stroke:#000000" />
        <path
           d="m 260.12,690.67 c 0,0 3.778,1.836 5.536,2.957 1.485,0.947 2.893,2.01 4.207,3.168 1.114,0.978 2.09,2.091 3.1,3.168 0.907,0.968 2.657,2.957 2.657,2.957"
           id="16"
           style="fill:none;stroke:#000000" />
        <path
           d="m 258.87,693.42 c 0,0 3.717,1.873 5.446,3.02 1.461,0.967 2.846,2.055 4.139,3.233 1.096,0.998 2.057,2.134 3.05,3.233 0.893,0.987 2.614,3.02 2.614,3.02"
           id="17"
           style="fill:none;stroke:#000000" />
        <path
           d="m 256.87,696.3 c 0,0 3.839,1.836 5.625,2.957 1.509,0.947 2.939,2.01 4.275,3.168 1.132,0.978 2.124,2.091 3.15,3.168 0.922,0.968 2.7,2.957 2.7,2.957"
           id="18"
           style="fill:none;stroke:#000000" />
        <path
           d="m 255.87,699.3 c 0,0 3.656,1.873 5.357,3.02 1.437,0.967 2.799,2.055 4.071,3.233 1.078,0.998 2.023,2.134 3,3.233 0.878,0.987 2.571,3.02 2.571,3.02"
           id="19"
           style="fill:none;stroke:#000000" />
        <path
           d="m 254.06,701.77 c 0,0 3.717,2.023 5.446,3.259 1.461,1.044 2.846,2.219 4.139,3.491 1.096,1.078 2.057,2.305 3.05,3.491 0.893,1.066 2.614,3.259 2.614,3.259"
           id="1A"
           style="fill:none;stroke:#000000" />
        <path
           d="m 252.06,704.27 c 0,0 3.9,2.06 5.714,3.319 1.533,1.063 2.986,2.26 4.343,3.556 1.15,1.098 2.158,2.348 3.2,3.556 0.937,1.086 2.743,3.319 2.743,3.319"
           id="1B"
           style="fill:none;stroke:#000000" />
        <path
           d="m 250.81,707.52 c 0,0 3.778,1.911 5.536,3.078 1.485,0.986 2.893,2.096 4.207,3.297 1.114,1.018 2.09,2.177 3.1,3.297 0.907,1.01 2.657,3.078 2.657,3.078"
           id="1C"
           style="fill:none;stroke:#000000" />
        <path
           d="m 249.31,710.14 c 0,0 3.656,1.911 5.357,3.078 1.437,0.986 2.799,2.096 4.071,3.297 1.078,1.018 2.023,2.177 3,3.297 0.878,1.01 2.571,3.078 2.571,3.078"
           id="1D"
           style="fill:none;stroke:#000000" />
        <path
           d="m 247.06,712.64 c 0,0 3.778,1.948 5.536,3.138 1.485,1.01 2.893,2.137 4.207,3.362 1.114,1.038 2.09,2.22 3.1,3.362 0.907,1.027 2.657,3.138 2.657,3.138"
           id="1E"
           style="fill:none;stroke:#000000" />
        <path
           d="m 244.69,715.58 c 0,0 3.96,1.873 5.804,3.02 1.557,0.967 3.03,2.055 4.411,3.233 1.168,0.998 2.191,2.134 3.25,3.233 0.951,0.987 2.786,3.02 2.786,3.02"
           id="1F"
           style="fill:none;stroke:#000000" />
        <path
           d="m 243.44,718.33 c 0,0 3.778,1.911 5.536,3.078 1.485,0.986 2.893,2.096 4.207,3.297 1.114,1.018 2.09,2.177 3.1,3.297 0.907,1.01 2.657,3.078 2.657,3.078"
           id="1G"
           style="fill:none;stroke:#000000" />
        <path
           d="m 241.94,720.83 c 0,0 3.778,1.911 5.536,3.078 1.485,0.986 2.893,2.096 4.207,3.297 1.114,1.018 2.09,2.177 3.1,3.297 0.907,1.01 2.657,3.078 2.657,3.078"
           id="1H"
           style="fill:none;stroke:#000000" />
        <path
           d="m 239.19,723.46 c 0,0 4.082,1.911 5.982,3.078 1.605,0.986 3.126,2.096 4.546,3.297 1.204,1.018 2.259,2.177 3.35,3.297 0.981,1.01 2.871,3.078 2.871,3.078"
           id="1I"
           style="fill:none;stroke:#000000" />
        <path
           d="m 237.94,726.46 c 0,0 3.96,1.948 5.804,3.138 1.557,1.01 3.03,2.137 4.411,3.362 1.168,1.038 2.191,2.22 3.25,3.362 0.951,1.027 2.786,3.138 2.786,3.138"
           id="1J"
           style="fill:none;stroke:#000000" />
        <path
           d="m 235.31,728.77 c 0,0 3.96,1.985 5.804,3.198 1.557,1.025 3.03,2.178 4.411,3.427 1.168,1.058 2.191,2.262 3.25,3.427 0.951,1.047 2.786,3.198 2.786,3.198"
           id="1K"
           style="fill:none;stroke:#000000" />
        <path
           d="m 232.81,731.52 c 0,0 4.143,2.06 6.071,3.319 1.629,1.063 3.173,2.26 4.614,3.556 1.222,1.098 2.293,2.348 3.4,3.556 0.995,1.086 2.914,3.319 2.914,3.319"
           id="1L"
           style="fill:none;stroke:#000000" />
        <path
           d="m 215.06,754.27 c 0,0 3.778,1.911 5.536,3.078 1.485,0.986 2.893,2.096 4.207,3.297 1.114,1.018 2.09,2.177 3.1,3.297 0.907,1.01 2.657,3.078 2.657,3.078"
           id="1M"
           style="fill:none;stroke:#000000" />
        <path
           d="m 230.56,734.89 c 0,0 3.96,1.948 5.804,3.138 1.557,1.01 3.03,2.137 4.411,3.362 1.168,1.038 2.191,2.22 3.25,3.362 0.951,1.027 2.786,3.138 2.786,3.138"
           id="1N"
           style="fill:none;stroke:#000000" />
        <path
           d="m 228.81,737.89 c 0,0 4.02,1.985 5.893,3.198 1.581,1.025 3.079,2.178 4.479,3.427 1.186,1.058 2.225,2.262 3.3,3.427 0.966,1.047 2.829,3.198 2.829,3.198"
           id="1O"
           style="fill:none;stroke:#000000" />
        <path
           d="m 226.19,740.58 c 0,0 3.96,1.873 5.804,3.02 1.557,0.967 3.03,2.055 4.411,3.233 1.168,0.998 2.191,2.134 3.25,3.233 0.951,0.987 2.786,3.02 2.786,3.02"
           id="1P"
           style="fill:none;stroke:#000000" />
        <path
           d="m 224.19,743.58 c 0,0 3.9,1.985 5.714,3.198 1.533,1.025 2.986,2.178 4.343,3.427 1.15,1.058 2.158,2.262 3.2,3.427 0.937,1.047 2.743,3.198 2.743,3.198"
           id="1Q"
           style="fill:none;stroke:#000000" />
        <path
           d="m 221.94,746.58 c 0,0 3.717,1.873 5.446,3.02 1.461,0.967 2.846,2.055 4.139,3.233 1.096,0.998 2.057,2.134 3.05,3.233 0.893,0.987 2.614,3.02 2.614,3.02"
           id="1R"
           style="fill:none;stroke:#000000" />
        <path
           d="m 219.69,749.46 c 0,0 3.839,1.836 5.625,2.957 1.509,0.947 2.939,2.01 4.275,3.168 1.132,0.978 2.124,2.091 3.15,3.168 0.922,0.968 2.7,2.957 2.7,2.957"
           id="1S"
           style="fill:none;stroke:#000000" />
        <path
           d="m 217.69,751.96 c 0,0 3.656,1.873 5.357,3.02 1.437,0.967 2.799,2.055 4.071,3.233 1.078,0.998 2.023,2.134 3,3.233 0.878,0.987 2.571,3.02 2.571,3.02"
           id="1T"
           style="fill:none;stroke:#000000" />
        <path
           d="m 202.94,767.08 c 0,0 2.498,1.124 3.661,1.81 1.891,1.071 3.407,2.47 4.832,3.879 0.6,0.592 1.757,1.81 1.757,1.81"
           id="1U"
           style="fill:none;stroke:#000000" />
        <path
           d="m 213.31,756.64 c 0,0 3.595,1.948 5.268,3.138 1.413,1.01 2.753,2.137 4,3.362 1.06,1.038 1.989,2.22 2.95,3.362 0.863,1.027 2.529,3.138 2.529,3.138"
           id="1V"
           style="fill:none;stroke:#000000" />
        <path
           d="m 209.81,759.39 c 0,0 3.9,1.873 5.714,3.02 1.533,0.967 2.986,2.055 4.343,3.233 1.15,0.998 2.158,2.134 3.2,3.233 0.937,0.987 2.743,3.02 2.743,3.02"
           id="1W"
           style="fill:none;stroke:#000000" />
        <path
           d="m 207.56,762.27 c 0,0 3.839,1.836 5.625,2.957 1.509,0.947 2.939,2.01 4.275,3.168 1.132,0.978 2.124,2.091 3.15,3.168 0.922,0.968 2.7,2.957 2.7,2.957"
           id="1X"
           style="fill:none;stroke:#000000" />
        <path
           d="m 205.56,764.77 c 0,0 3.168,1.461 4.643,2.353 1.246,0.754 2.426,1.603 3.529,2.522 0.934,0.779 1.753,1.665 2.6,2.522 0.761,0.77 2.229,2.353 2.229,2.353"
           id="1Y"
           style="fill:none;stroke:#000000" />
        <path
           d="m 195.25,260.37 c 1.5,0.354 2.625,1.083 3.188,1.625"
           transform="translate(0,512.36)"
           id="1Z"
           style="fill:none;stroke:#000000" />
        <path
           d="m 200.25,256.75 c 0,0 2.582,1.198 3.75,2 1.363,0.937 3.75,3.25 3.75,3.25"
           transform="translate(0,512.36)"
           id="1a"
           style="fill:none;stroke:#000000" />
        <path
           d="m 197.62,258.56 c 2.229,0.75 3.896,2.125 5.313,3.438"
           transform="translate(0,512.36)"
           id="1b"
           style="fill:none;stroke:#000000" />
      </g>
      <g
         id="g189">
        <path
           d="m 307.84,670.48 c 2.487,2.132 4.58,3.834 4.4,8.662 0.497,5.917 1.76,11.722 2.658,17.582 0.359,3.843 0.806,7.723 0.221,11.566 -0.28,3.037 -0.257,6.15 0.704,9.07 0.248,3.618 -3.146,5.996 -5.398,8.307 -2.6,1.892 -5.886,1.552 -8.842,2.192 -1.968,0.978 -2.655,-0.843 -2.385,-2.416 -0.148,-7.193 -0.797,-15.636 -0.945,-22.829 -3.442,-2.185 -5.175,-3.093 -8.729,-3.269 -3.504,-0.097 -4.997,1.209 -4.958,-3.421 0.304,-3.521 3.411,-5.54 6.809,-4.18 2.469,0.724 2.108,0.25 4.379,1.62 -3.403,-0.636 -3.565,-1.414 -6.936,-2.147 -2.403,0.637 -4.264,0.803 -4.482,-2.703 -1.377,-3.483 0.591,-4.973 3.071,-6.157 3.146,-0.144 2.268,0.799 5.489,0.413 1.089,0.056 3.537,1.68 4.919,2.233 -3.113,-0.392 -5.63,-2.929 -8.812,-2.64 -2.064,-0.899 -4.217,3.894 -6.05,-2.093 -0.196,-3.095 2.91,-4.767 4.888,-6.587 1.635,-1.3 3.97,-0.393 5.801,0.044 1.902,0.76 3.975,1.308 5.91,1.833 -3.614,-0.09 -6.78,-2.378 -10.437,-2.13 -3.476,0.402 -4.593,5.494 -6.613,2.131 -1.376,-3.345 1.02,-6.555 3.188,-8.898 2.02,-0.669 2.86,-1.634 5.976,-1.913 1.972,0.583 4.1,1.483 6.04,2.186 3.075,0.042 7.152,3.02 10.133,3.539 z"
           id="1c"
           style="fill:#ffaaaa;stroke:#000000;stroke-linecap:round;stroke-linejoin:round" />
        <path
           d="m 308.5,167.62 c 0,0 0.288,1.078 0.25,1.625 -0.06,0.868 -0.75,2.5 -0.75,2.5"
           transform="translate(0,512.36)"
           id="1d"
           style="fill:none;stroke:#000000;stroke-linecap:round;stroke-linejoin:round" />
        <path
           d="m 307.12,178.25 c 0,0 -0.021,0.845 -0.125,1.25 -0.158,0.615 -0.75,1.75 -0.75,1.75"
           transform="translate(0,512.36)"
           id="1e"
           style="fill:none;stroke:#000000;stroke-linecap:round;stroke-linejoin:round" />
        <path
           d="m 304.25,698.86 c 0,0 -0.694,2.371 -1.5,3.25 -0.454,0.495 -1.089,0.882 -1.75,1 -0.499,0.089 -1.5,-0.25 -1.5,-0.25"
           id="1f"
           style="fill:none;stroke:#000000;stroke-linecap:round;stroke-linejoin:round" />
      </g>
      <path
         d="m 291.5,781.86 h 8.75 l 0.061,-78.53 c -3.02,-3 -5.915,-3.221 -9.06,-3.707 z"
         id="V"
         style="fill:#ffaa55;stroke:#000000" />
      <g
         id="g196">
        <path
           d="m 200.04,577.99 c 0.642,1.888 1.551,3.588 2.028,5.475 0.887,3.509 0.534,7.27 1.521,10.752 0.86,3.03 2.492,5.788 3.787,8.661 1.196,2.653 2.767,5.153 3.68,7.917 0.523,1.583 0.866,3.238 1.01,4.899 0.352,4.123 -0.216,8.273 -0.404,12.407 -0.076,1.68 -0.62,3.386 -0.293,5.04 0.381,1.919 1.186,3.885 2.552,5.286 1.089,1.118 3.211,0.906 4.16,2.145 2.041,2.663 0.514,6.897 2.128,9.839 1.51,2.752 4.208,4.707 6.692,6.627 2.259,1.747 4.564,3.832 7.368,4.373 1.996,0.385 4,-1.148 6.03,-0.937 2.251,0.235 4.085,2.423 6.347,2.407 1.842,-0.013 3.569,-1.068 5.138,-2.034 2.057,-1.266 4.153,-2.753 5.416,-4.812 0.623,-1.015 0.829,-2.267 0.906,-3.455 0.134,-2.065 -0.03,-4.232 -0.783,-6.159 -0.449,-1.149 -1.206,-2.215 -2.145,-3.01 -1.164,-0.991 -2.957,-1.027 -4.113,-2.027 -0.703,-0.608 -1.228,-1.438 -1.58,-2.299 -0.543,-1.331 -0.209,-2.912 -0.741,-4.247 -1.193,-2.996 -3.219,-5.638 -5.342,-8.06 -1.518,-1.735 -4.02,-2.573 -5.21,-4.549 -1.118,-1.861 -1.01,-4.223 -1.477,-6.344 -0.443,-2.01 -0.684,-4.074 -1.255,-6.05 -0.919,-3.191 -1.69,-6.538 -3.478,-9.337 -1.8,-2.818 -4.962,-4.523 -7.06,-7.13 -2.746,-3.419 -2.847,-10.134 -7.135,-11.05 -1.155,-0.247 0.322,2.898 -2.972,1.928 -4.217,-1.241 -6.852,-3.182 -10.349,-4.604 -1.457,-0.592 -3.672,-1.412 -4.426,-1.634 z"
           id="1g"
           style="fill:#aa5500;stroke:#000000" />
        <path
           d="m 204.7,580.12 c 0.918,2.443 1.627,4.941 2.351,7.439 0.574,1.981 0.881,4.04 1.578,5.981 1.131,3.148 3.072,5.964 4.203,9.112 0.905,2.521 1.434,5.163 2.046,7.771 0.555,2.363 1.254,4.714 1.475,7.131 0.282,3.086 -0.437,6.206 -0.201,9.296 0.144,1.875 0.21,3.84 0.979,5.556 1.327,2.959 4.925,4.585 6.03,7.634 0.664,1.832 -0.31,3.952 0.158,5.844 0.411,1.664 1.045,3.416 2.271,4.614 1.548,1.514 3.876,1.947 5.892,2.738 2.845,1.117 5.789,1.97 8.722,2.826 1.575,0.46 3.142,0.994 4.765,1.241 1.568,0.239 3.283,0.823 4.752,0.226 2.052,-0.834 4.05,-2.697 4.535,-4.858 0.368,-1.644 -0.679,-3.367 -1.544,-4.813 -0.623,-1.042 -1.363,-2.284 -2.529,-2.619 -1.392,-0.401 -3.036,0.208 -4.22,1.044 -0.864,0.611 -1.5,1.621 -1.749,2.65 -0.252,1.046 -0.422,2.464 0.354,3.209 0.705,0.676 2.065,0.667 2.923,0.201 0.758,-0.412 0.838,-1.508 1.257,-2.263"
           id="1h"
           style="fill:none;stroke:#000000;stroke-linecap:round;stroke-linejoin:round" />
        <path
           d="m 207.29,580.77 c 1.448,2.512 3.154,4.887 4.46,7.479 1.686,3.344 3.097,6.831 4.333,10.366 0.945,2.703 1.626,5.492 2.349,8.262 0.786,3.01 1.796,5.997 2.16,9.09 0.45,3.824 -0.975,7.829 0.013,11.551 0.269,1.012 0.963,1.864 1.555,2.728 1.749,2.554 4.786,4.302 5.859,7.206 0.637,1.725 -0.339,3.739 0.14,5.515 0.506,1.877 1.028,3.984 2.805,5.115 2.02,1.284 5.162,3.477 7.845,2.944 2.683,-0.532 4.906,-3.789 6.498,-3.506"
           id="1i"
           style="fill:none;stroke:#000000;stroke-linecap:round;stroke-linejoin:round" />
        <path
           d="m 213.45,584.01 c 2.205,3.753 3.862,7.81 5.484,11.849 1.949,4.852 3.913,9.744 5.091,14.839 0.979,4.231 0.537,8.721 1.613,12.928 0.628,2.456 1.688,4.792 2.797,7.07 1.017,2.091 2.475,3.945 3.518,6.02 1.314,2.618 0.832,6.746 3.435,8.089 2.57,1.326 5.682,-1.108 8.474,-1.862 1.248,-0.337 2.711,-0.346 3.691,-1.187 0.764,-0.655 0.9,-1.8 1.35,-2.7"
           id="1j"
           style="fill:none;stroke:#000000;stroke-linecap:round;stroke-linejoin:round" />
        <path
           d="m 217.33,584.01 c 1.429,3.099 3.43,5.901 4.789,9.02 1.131,2.597 1.873,5.347 2.78,8.03 1.311,3.878 2.946,7.669 3.85,11.661 0.898,3.965 0.346,8.211 1.537,12.1 1.02,3.326 3.093,6.234 4.715,9.313 0.989,1.878 1.222,4.522 3.059,5.587 1.722,0.998 4.197,0.791 5.969,-0.115 0.892,-0.457 1.594,-1.426 1.805,-2.406 0.261,-1.212 0.158,-2.853 -0.808,-3.631 -0.661,-0.532 -1.952,-0.617 -2.545,-0.011 -0.514,0.526 -0.195,1.514 0.058,2.205 0.001,0.028 0.057,0.071 0.057,0.071"
           id="1k"
           style="fill:none;stroke:#000000;stroke-linecap:round;stroke-linejoin:round" />
        <path
           d="m 226.73,595.67 c 0.981,2.087 2.298,4.03 3.08,6.208 1.789,4.975 2.344,10.311 3.615,15.443 0.793,3.201 0.752,6.776 2.502,9.57 0.582,0.93 1.491,1.711 2.5,2.14 1.983,0.843 4.316,0.229 6.435,0.617 0.442,0.081 0.868,0.237 1.302,0.355"
           id="1l"
           style="fill:none;stroke:#000000;stroke-linecap:round;stroke-linejoin:round" />
      </g>
    </g>
    <g
       transform="matrix(-1,0,0,-1,360,1564.47)"
       id="g204">
      <use
         id="use206"
         x="0"
         y="0"
         width="360"
         height="540"
         xlink:href="#2" />
      <use
         id="use208"
         x="0"
         y="0"
         width="360"
         height="540"
         xlink:href="#3" />
      <use
         id="use210"
         x="0"
         y="0"
         width="360"
         height="540"
         xlink:href="#4" />
      <g
         id="g212">
        <use
           id="use214"
           x="0"
           y="0"
           width="360"
           height="540"
           xlink:href="#W" />
        <use
           id="use216"
           x="0"
           y="0"
           width="360"
           height="540"
           xlink:href="#X" />
        <use
           id="use218"
           x="0"
           y="0"
           width="360"
           height="540"
           xlink:href="#Y" />
        <use
           transform="translate(-0.5,512.61)"
           id="use220"
           x="0"
           y="0"
           width="360"
           height="540"
           xlink:href="#0" />
        <use
           transform="translate(0.125,496.36)"
           id="use222"
           x="0"
           y="0"
           width="360"
           height="540"
           xlink:href="#0" />
        <use
           transform="translate(-1.125,529.61)"
           id="use224"
           x="0"
           y="0"
           width="360"
           height="540"
           xlink:href="#0" />
        <use
           transform="translate(32.875,497.36)"
           id="use226"
           x="0"
           y="0"
           width="360"
           height="540"
           xlink:href="#0" />
        <use
           transform="translate(31.625,512.86)"
           id="use228"
           x="0"
           y="0"
           width="360"
           height="540"
           xlink:href="#0" />
        <use
           transform="translate(31.375,529.36)"
           id="use230"
           x="0"
           y="0"
           width="360"
           height="540"
           xlink:href="#0" />
      </g>
      <use
         id="use232"
         x="0"
         y="0"
         width="360"
         height="540"
         xlink:href="#5" />
      <use
         id="use234"
         x="0"
         y="0"
         width="360"
         height="540"
         xlink:href="#6" />
      <g
         id="g236">
        <path
           d="m 30.75,687.77 c 7.725,-3.934 9.3,-12.13 9.689,-18.482 6.103,1.594 13.632,2.128 20.07,2 9.609,-0.579 20.1,-4.75 28.06,-9.887 3.789,4.907 6.766,10.915 12.328,18.755 10.04,14.887 21.2,29.09 29.518,45.04 3.174,10.938 3.643,16.13 3.63,23.968 0.055,12.304 -1.388,21.574 -5.764,29.922 -2.452,2.672 -3.313,3.146 -8.325,3.02 -17.07,0 -34.13,0 -51.2,0 -7.124,-4 -14.4,-7.759 -20.03,-13.841 -6.924,-7.312 -10.941,-12.846 -18.218,-20.16 0.167,-20 0.083,-40.34 0.25,-60.34 z"
           id="path238"
           style="fill:#ffaa55;stroke:#000000;stroke-linecap:round;stroke-linejoin:round" />
        <use
           id="use240"
           x="0"
           y="0"
           width="360"
           height="540"
           xlink:href="#Z" />
        <use
           id="use242"
           x="0"
           y="0"
           width="360"
           height="540"
           xlink:href="#a" />
        <use
           id="use244"
           x="0"
           y="0"
           width="360"
           height="540"
           xlink:href="#b" />
        <use
           transform="translate(1.5,511.11)"
           id="use246"
           x="0"
           y="0"
           width="360"
           height="540"
           xlink:href="#1" />
        <use
           transform="translate(20,508.86)"
           id="use248"
           x="0"
           y="0"
           width="360"
           height="540"
           xlink:href="#1" />
        <use
           transform="translate(38,503.86)"
           id="use250"
           x="0"
           y="0"
           width="360"
           height="540"
           xlink:href="#1" />
        <use
           transform="translate(49.25,517.11)"
           id="use252"
           x="0"
           y="0"
           width="360"
           height="540"
           xlink:href="#1" />
        <use
           transform="translate(62,535.86)"
           id="use254"
           x="0"
           y="0"
           width="360"
           height="540"
           xlink:href="#1" />
        <use
           transform="translate(73.5,555.36)"
           id="use256"
           x="0"
           y="0"
           width="360"
           height="540"
           xlink:href="#1" />
        <use
           transform="translate(77.5,577.86)"
           id="use258"
           x="0"
           y="0"
           width="360"
           height="540"
           xlink:href="#1" />
        <use
           transform="translate(71,604.11)"
           id="use260"
           x="0"
           y="0"
           width="360"
           height="540"
           xlink:href="#1" />
        <use
           transform="translate(50.25,605.61)"
           id="use262"
           x="0"
           y="0"
           width="360"
           height="540"
           xlink:href="#1" />
        <use
           transform="translate(30.5,603.36)"
           id="use264"
           x="0"
           y="0"
           width="360"
           height="540"
           xlink:href="#1" />
        <use
           transform="translate(12,592.61)"
           id="use266"
           x="0"
           y="0"
           width="360"
           height="540"
           xlink:href="#1" />
        <use
           transform="translate(-3.75,576.11)"
           id="use268"
           x="0"
           y="0"
           width="360"
           height="540"
           xlink:href="#1" />
        <use
           transform="translate(-13,528.36)"
           id="use270"
           x="0"
           y="0"
           width="360"
           height="540"
           xlink:href="#1" />
      </g>
      <g
         id="g272">
        <path
           d="m 148.08,738.92 c 3.896,-2.988 5.875,-5.235 11.427,-8.585 2.871,-1.733 3.638,-3.544 7.491,-4.481 3.853,-0.937 10.564,-1.081 14.28,-1.644 4.415,-0.669 5.508,-0.268 10.08,0.107 1.661,-0.023 8.246,-1.107 6.786,0.313 -3.233,4.818 -9.163,11.611 -14.01,17.198 -4.35,5.02 -7.979,10.966 -13.506,14.65 -2.131,1.421 -4.978,1.392 -7.218,2.634 -1.338,0.741 -2.256,2.126 -3.619,2.821 -2.872,1.465 -6.135,3.333 -9.293,2.682 -2.957,-0.61 -5.482,-3.14 -7,-5.75 -1.743,-2.997 -1.925,-6.787 -1.763,-10.25 0.103,-2.192 0.471,-4.549 1.719,-6.355 1.081,-1.564 3.114,-2.183 4.622,-3.34 z"
           id="path274"
           style="fill:#ffaaaa;fill-opacity:0.98200001;stroke:#000000" />
        <use
           id="use276"
           x="0"
           y="0"
           width="360"
           height="540"
           xlink:href="#c" />
        <use
           id="use278"
           x="0"
           y="0"
           width="360"
           height="540"
           xlink:href="#d" />
        <use
           id="use280"
           x="0"
           y="0"
           width="360"
           height="540"
           xlink:href="#e" />
        <use
           id="use282"
           x="0"
           y="0"
           width="360"
           height="540"
           xlink:href="#f" />
        <use
           id="use284"
           x="0"
           y="0"
           width="360"
           height="540"
           xlink:href="#g" />
        <use
           id="use286"
           x="0"
           y="0"
           width="360"
           height="540"
           xlink:href="#h" />
      </g>
      <use
         id="use288"
         x="0"
         y="0"
         width="360"
         height="540"
         xlink:href="#7" />
      <use
         id="use290"
         x="0"
         y="0"
         width="360"
         height="540"
         xlink:href="#8" />
      <use
         id="use292"
         x="0"
         y="0"
         width="360"
         height="540"
         xlink:href="#9" />
      <use
         id="use294"
         x="0"
         y="0"
         width="360"
         height="540"
         xlink:href="#A" />
      <g
         id="g296">
        <use
           id="use298"
           x="0"
           y="0"
           width="360"
           height="540"
           xlink:href="#i" />
        <use
           id="use300"
           x="0"
           y="0"
           width="360"
           height="540"
           xlink:href="#j" />
        <use
           id="use302"
           x="0"
           y="0"
           width="360"
           height="540"
           xlink:href="#k" />
        <use
           id="use304"
           x="0"
           y="0"
           width="360"
           height="540"
           xlink:href="#l" />
        <use
           id="use306"
           x="0"
           y="0"
           width="360"
           height="540"
           xlink:href="#m" />
        <use
           id="use308"
           x="0"
           y="0"
           width="360"
           height="540"
           xlink:href="#n" />
        <use
           id="use310"
           x="0"
           y="0"
           width="360"
           height="540"
           xlink:href="#o" />
        <use
           id="use312"
           x="0"
           y="0"
           width="360"
           height="540"
           xlink:href="#p" />
      </g>
      <use
         id="use314"
         x="0"
         y="0"
         width="360"
         height="540"
         xlink:href="#B" />
      <use
         id="use316"
         x="0"
         y="0"
         width="360"
         height="540"
         xlink:href="#C" />
      <use
         id="use318"
         x="0"
         y="0"
         width="360"
         height="540"
         xlink:href="#D" />
      <use
         id="use320"
         x="0"
         y="0"
         width="360"
         height="540"
         xlink:href="#E" />
      <use
         id="use322"
         x="0"
         y="0"
         width="360"
         height="540"
         xlink:href="#F" />
      <use
         id="use324"
         x="0"
         y="0"
         width="360"
         height="540"
         xlink:href="#G" />
      <use
         id="use326"
         x="0"
         y="0"
         width="360"
         height="540"
         xlink:href="#H" />
      <use
         id="use328"
         x="0"
         y="0"
         width="360"
         height="540"
         xlink:href="#I" />
      <use
         id="use330"
         x="0"
         y="0"
         width="360"
         height="540"
         xlink:href="#J" />
      <use
         id="use332"
         x="0"
         y="0"
         width="360"
         height="540"
         xlink:href="#K" />
      <use
         id="use334"
         x="0"
         y="0"
         width="360"
         height="540"
         xlink:href="#L" />
      <use
         id="use336"
         x="0"
         y="0"
         width="360"
         height="540"
         xlink:href="#M" />
      <use
         id="use338"
         x="0"
         y="0"
         width="360"
         height="540"
         xlink:href="#N" />
      <use
         id="use340"
         x="0"
         y="0"
         width="360"
         height="540"
         xlink:href="#O" />
      <use
         id="use342"
         x="0"
         y="0"
         width="360"
         height="540"
         xlink:href="#P" />
      <use
         id="use344"
         x="0"
         y="0"
         width="360"
         height="540"
         xlink:href="#Q" />
      <g
         id="g346">
        <use
           id="use348"
           x="0"
           y="0"
           width="360"
           height="540"
           xlink:href="#q" />
        <use
           id="use350"
           x="0"
           y="0"
           width="360"
           height="540"
           xlink:href="#r" />
        <use
           id="use352"
           x="0"
           y="0"
           width="360"
           height="540"
           xlink:href="#s" />
        <use
           id="use354"
           x="0"
           y="0"
           width="360"
           height="540"
           xlink:href="#t" />
        <use
           id="use356"
           x="0"
           y="0"
           width="360"
           height="540"
           xlink:href="#u" />
        <use
           id="use358"
           x="0"
           y="0"
           width="360"
           height="540"
           xlink:href="#v" />
      </g>
      <use
         id="use360"
         x="0"
         y="0"
         width="360"
         height="540"
         xlink:href="#R" />
      <use
         id="use362"
         x="0"
         y="0"
         width="360"
         height="540"
         xlink:href="#S" />
      <use
         id="use364"
         x="0"
         y="0"
         width="360"
         height="540"
         xlink:href="#T" />
      <use
         id="use366"
         x="0"
         y="0"
         width="360"
         height="540"
         xlink:href="#U" />
      <g
         id="g368">
        <use
           id="use370"
           x="0"
           y="0"
           width="360"
           height="540"
           xlink:href="#w" />
        <use
           id="use372"
           x="0"
           y="0"
           width="360"
           height="540"
           xlink:href="#x" />
        <use
           id="use374"
           x="0"
           y="0"
           width="360"
           height="540"
           xlink:href="#y" />
      </g>
      <g
         id="g376"
         style="stroke:#000000;stroke-linecap:round;stroke-linejoin:round">
        <use
           id="use378"
           x="0"
           y="0"
           width="360"
           height="540"
           xlink:href="#z" />
        <use
           id="use380"
           x="0"
           y="0"
           width="360"
           height="540"
           xlink:href="#10" />
        <use
           id="use382"
           x="0"
           y="0"
           width="360"
           height="540"
           xlink:href="#11" />
        <use
           id="use384"
           x="0"
           y="0"
           width="360"
           height="540"
           xlink:href="#12" />
        <use
           id="use386"
           x="0"
           y="0"
           width="360"
           height="540"
           xlink:href="#13" />
        <use
           id="use388"
           x="0"
           y="0"
           width="360"
           height="540"
           xlink:href="#14" />
        <use
           id="use390"
           x="0"
           y="0"
           width="360"
           height="540"
           xlink:href="#15" />
        <use
           id="use392"
           x="0"
           y="0"
           width="360"
           height="540"
           xlink:href="#16" />
        <use
           id="use394"
           x="0"
           y="0"
           width="360"
           height="540"
           xlink:href="#17" />
        <use
           id="use396"
           x="0"
           y="0"
           width="360"
           height="540"
           xlink:href="#18" />
        <use
           id="use398"
           x="0"
           y="0"
           width="360"
           height="540"
           xlink:href="#19" />
        <use
           id="use400"
           x="0"
           y="0"
           width="360"
           height="540"
           xlink:href="#1A" />
        <use
           id="use402"
           x="0"
           y="0"
           width="360"
           height="540"
           xlink:href="#1B" />
        <use
           id="use404"
           x="0"
           y="0"
           width="360"
           height="540"
           xlink:href="#1C" />
        <use
           id="use406"
           x="0"
           y="0"
           width="360"
           height="540"
           xlink:href="#1D" />
        <use
           id="use408"
           x="0"
           y="0"
           width="360"
           height="540"
           xlink:href="#1E" />
        <use
           id="use410"
           x="0"
           y="0"
           width="360"
           height="540"
           xlink:href="#1F" />
        <use
           id="use412"
           x="0"
           y="0"
           width="360"
           height="540"
           xlink:href="#1G" />
        <use
           id="use414"
           x="0"
           y="0"
           width="360"
           height="540"
           xlink:href="#1H" />
        <use
           id="use416"
           x="0"
           y="0"
           width="360"
           height="540"
           xlink:href="#1I" />
        <use
           id="use418"
           x="0"
           y="0"
           width="360"
           height="540"
           xlink:href="#1J" />
        <use
           id="use420"
           x="0"
           y="0"
           width="360"
           height="540"
           xlink:href="#1K" />
        <use
           id="use422"
           x="0"
           y="0"
           width="360"
           height="540"
           xlink:href="#1L" />
        <use
           id="use424"
           x="0"
           y="0"
           width="360"
           height="540"
           xlink:href="#1M" />
        <use
           id="use426"
           x="0"
           y="0"
           width="360"
           height="540"
           xlink:href="#1N" />
        <use
           id="use428"
           x="0"
           y="0"
           width="360"
           height="540"
           xlink:href="#1O" />
        <use
           id="use430"
           x="0"
           y="0"
           width="360"
           height="540"
           xlink:href="#1P" />
        <use
           id="use432"
           x="0"
           y="0"
           width="360"
           height="540"
           xlink:href="#1Q" />
        <use
           id="use434"
           x="0"
           y="0"
           width="360"
           height="540"
           xlink:href="#1R" />
        <use
           id="use436"
           x="0"
           y="0"
           width="360"
           height="540"
           xlink:href="#1S" />
        <use
           id="use438"
           x="0"
           y="0"
           width="360"
           height="540"
           xlink:href="#1T" />
        <use
           id="use440"
           x="0"
           y="0"
           width="360"
           height="540"
           xlink:href="#1U" />
        <use
           id="use442"
           x="0"
           y="0"
           width="360"
           height="540"
           xlink:href="#1V" />
        <use
           id="use444"
           x="0"
           y="0"
           width="360"
           height="540"
           xlink:href="#1W" />
        <use
           id="use446"
           x="0"
           y="0"
           width="360"
           height="540"
           xlink:href="#1X" />
        <use
           id="use448"
           x="0"
           y="0"
           width="360"
           height="540"
           xlink:href="#1Y" />
        <use
           id="use450"
           x="0"
           y="0"
           width="360"
           height="540"
           xlink:href="#1Z" />
        <use
           id="use452"
           x="0"
           y="0"
           width="360"
           height="540"
           xlink:href="#1a" />
        <use
           id="use454"
           x="0"
           y="0"
           width="360"
           height="540"
           xlink:href="#1b" />
      </g>
      <g
         id="g456">
        <use
           id="use458"
           x="0"
           y="0"
           width="360"
           height="540"
           xlink:href="#1c" />
        <use
           id="use460"
           x="0"
           y="0"
           width="360"
           height="540"
           xlink:href="#1d" />
        <use
           id="use462"
           x="0"
           y="0"
           width="360"
           height="540"
           xlink:href="#1e" />
        <use
           id="use464"
           x="0"
           y="0"
           width="360"
           height="540"
           xlink:href="#1f" />
      </g>
      <use
         id="use466"
         x="0"
         y="0"
         width="360"
         height="540"
         xlink:href="#V" />
      <g
         id="g468">
        <use
           id="use470"
           x="0"
           y="0"
           width="360"
           height="540"
           xlink:href="#1g" />
        <use
           id="use472"
           x="0"
           y="0"
           width="360"
           height="540"
           xlink:href="#1h" />
        <use
           id="use474"
           x="0"
           y="0"
           width="360"
           height="540"
           xlink:href="#1i" />
        <use
           id="use476"
           x="0"
           y="0"
           width="360"
           height="540"
           xlink:href="#1j" />
        <use
           id="use478"
           x="0"
           y="0"
           width="360"
           height="540"
           xlink:href="#1k" />
        <use
           id="use480"
           x="0"
           y="0"
           width="360"
           height="540"
           xlink:href="#1l" />
      </g>
    </g>
  </g>
</svg>
