<?xml version="1.0" encoding="UTF-8" standalone="no"?>
<!-- Created with Inkscape (http://www.inkscape.org/) -->

<svg
   xmlns:dc="http://purl.org/dc/elements/1.1/"
   xmlns:cc="http://creativecommons.org/ns#"
   xmlns:rdf="http://www.w3.org/1999/02/22-rdf-syntax-ns#"
   xmlns:svg="http://www.w3.org/2000/svg"
   xmlns="http://www.w3.org/2000/svg"
   version="1.1"
   width="360"
   height="540"
   id="svg2">
  <metadata
     id="metadata22">
    <rdf:RDF>
      <cc:Work
         rdf:about="">
        <dc:format>image/svg+xml</dc:format>
        <dc:type
           rdf:resource="http://purl.org/dc/dcmitype/StillImage" />
        <dc:title></dc:title>
      </cc:Work>
    </rdf:RDF>
  </metadata>
  <defs
     id="defs20" />
  <g
     transform="translate(-29.5,657.14)"
     id="g4">
    <rect
       width="359"
       height="539"
       rx="29.944"
       x="30"
       y="-656.64001"
       id="rect6"
       style="fill:#ffffff;stroke:#000000" />
    <path
       d="m 209.5,-427.13 c -3.999,-0.081 -6.667,1.333 -9.333,4 -2.667,2.667 -4,5.333 -4,9.333 0,4 1.518,6.372 4,9.333 2.375,2.833 4,4 5.333,6.666 1.333,2.667 2.667,8 2.667,10.666 0,2.667 0,2.398 0,4 H 205.5 c -2.667,0 -8,-2.667 -9.333,-4 l -4,-4 c -2.667,-2.667 -5.333,-4 -9.333,-4 -4,0 -6.667,1.333 -9.333,4 -2.667,2.667 -4,5.333 -4,9.333 0,4 1.333,6.666 4,9.333 2.667,2.667 5.333,4 9.333,4 4,0 6.667,-1.333 9.333,-4 l 4,-4 c 1.333,-1.333 6.667,-4 9.333,-4 h 2.667 c -0.066,3.776 -0.346,10.37 -1.333,13.333 -1.333,4 -4,8 -6.667,10.666 -2.667,2.667 -10.667,8 -10.667,8 v 1.333 c 0,0 13.333,-2.667 16,-2.667 h 8 c 2.667,0 16,2.667 16,2.667 v -1.333 c 0,0 -8,-5.333 -10.667,-8 -2.667,-2.667 -5.333,-6.666 -6.667,-10.666 -0.988,-2.963 -1.267,-9.557 -1.333,-13.333 h 2.667 c 2.667,0 8,2.667 9.333,4 l 4,4 c 2.667,2.667 5.333,4 9.333,4 4,0 6.667,-1.333 9.333,-4 2.667,-2.667 4,-5.333 4,-9.333 0,-4 -1.333,-6.666 -4,-9.333 -2.667,-2.667 -5.333,-4 -9.333,-4 -4,0 -6.667,1.333 -9.333,4 l -4,4 c -1.333,1.333 -6.667,4 -9.333,4 h -2.667 c 0,-1.855 0,-1.333 0,-4 0,-2.667 1.333,-8 2.667,-10.666 1.333,-2.667 2.667,-4 5.333,-6.666 2.653,-2.653 4,-5.333 4,-9.333 0,-4 -1.333,-6.666 -4,-9.333 -2.667,-2.667 -5.333,-4 -9.333,-4"
       id="path8" />
    <path
       d="m 59.5,-567.14 c -1.5,-0.031 -2.5,0.5 -3.5,1.5 -1,1 -1.5,2 -1.5,3.5 0,1.5 0.569,2.39 1.5,3.5 0.891,1.063 1.5,1.5 2,2.5 0.5,1 1,3 1,4 0,1 0,0.899 0,1.5 h -1 c -1,0 -3,-1 -3.5,-1.5 l -1.5,-1.5 c -1,-1 -2,-1.5 -3.5,-1.5 -1.5,0 -2.5,0.5 -3.5,1.5 -1,1 -1.5,2 -1.5,3.5 0,1.5 0.5,2.5 1.5,3.5 1,1 2,1.5 3.5,1.5 1.5,0 2.5,-0.5 3.5,-1.5 l 1.5,-1.5 c 0.5,-0.5 2.5,-1.5 3.5,-1.5 h 1 c -0.025,1.416 -0.13,3.889 -0.5,5 -0.5,1.5 -1.5,3 -2.5,4 -1,1 -4,3 -4,3 v 0.5 c 0,0 5,-1 6,-1 h 3 c 1,0 6,1 6,1 v -0.5 c 0,0 -3,-2 -4,-3 -1,-1 -2,-2.5 -2.5,-4 -0.37,-1.111 -0.475,-3.584 -0.5,-5 h 1 c 1,0 3,1 3.5,1.5 l 1.5,1.5 c 1,1 2,1.5 3.5,1.5 1.5,0 2.5,-0.5 3.5,-1.5 1,-1 1.5,-2 1.5,-3.5 0,-1.5 -0.5,-2.5 -1.5,-3.5 -1,-1 -2,-1.5 -3.5,-1.5 -1.5,0 -2.5,0.5 -3.5,1.5 l -1.5,1.5 c -0.5,0.5 -2.5,1.5 -3.5,1.5 h -1 c 0,-0.696 0,-0.5 0,-1.5 0,-1 0.5,-3 1,-4 0.5,-1 1,-1.5 2,-2.5 0.995,-0.995 1.5,-2 1.5,-3.5 0,-1.5 -0.5,-2.5 -1.5,-3.5 -1,-1 -2,-1.5 -3.5,-1.5"
       id="path10" />
    <path
       d="m 359.5,-207.14 c 1.5,0.031 2.5,-0.5 3.5,-1.5 1,-1 1.5,-2 1.5,-3.5 0,-1.5 -0.569,-2.39 -1.5,-3.5 -0.891,-1.063 -1.5,-1.5 -2,-2.5 -0.5,-1 -1,-3 -1,-4 0,-1 0,-0.899 0,-1.5 h 1 c 1,0 3,1 3.5,1.5 l 1.5,1.5 c 1,1 2,1.5 3.5,1.5 1.5,0 2.5,-0.5 3.5,-1.5 1,-1 1.5,-2 1.5,-3.5 0,-1.5 -0.5,-2.5 -1.5,-3.5 -1,-1 -2,-1.5 -3.5,-1.5 -1.5,0 -2.5,0.5 -3.5,1.5 l -1.5,1.5 c -0.5,0.5 -2.5,1.5 -3.5,1.5 h -1 c 0.025,-1.416 0.13,-3.889 0.5,-5 0.5,-1.5 1.5,-3 2.5,-4 1,-1 4,-3 4,-3 v -0.5 c 0,0 -5,1 -6,1 h -3 c -1,0 -6,-1 -6,-1 v 0.5 c 0,0 3,2 4,3 1,1 2,2.5 2.5,4 0.37,1.111 0.475,3.584 0.5,5 h -1 c -1,0 -3,-1 -3.5,-1.5 l -1.5,-1.5 c -1,-1 -2,-1.5 -3.5,-1.5 -1.5,0 -2.5,0.5 -3.5,1.5 -1,1 -1.5,2 -1.5,3.5 0,1.5 0.5,2.5 1.5,3.5 1,1 2,1.5 3.5,1.5 1.5,0 2.5,-0.5 3.5,-1.5 l 1.5,-1.5 c 0.5,-0.5 2.5,-1.5 3.5,-1.5 h 1 c 0,0.696 0,0.5 0,1.5 0,1 -0.5,3 -1,4 -0.5,1 -1,1.5 -2,2.5 -0.995,0.995 -1.5,2 -1.5,3.5 0,1.5 0.5,2.5 1.5,3.5 1,1 2,1.5 3.5,1.5"
       id="path12" />
    <path
       d="m 49.5,-627.14 v 5 h 7.6 v 45 h 5 v -45 h 7.4 v -5 h -7.4 -5 z"
       id="path14" />
    <path
       d="m 349.5,-147.14 v -5 h 7.6 v -45 h 5 v 45 h 7.4 v 5 h -7.4 -5 z"
       id="path16" />
  </g>
</svg>
