<?xml version="1.0" encoding="UTF-8" standalone="no"?>
<!-- Created with Inkscape (http://www.inkscape.org/) -->

<svg
   xmlns:dc="http://purl.org/dc/elements/1.1/"
   xmlns:cc="http://creativecommons.org/ns#"
   xmlns:rdf="http://www.w3.org/1999/02/22-rdf-syntax-ns#"
   xmlns:svg="http://www.w3.org/2000/svg"
   xmlns="http://www.w3.org/2000/svg"
   version="1.1"
   width="360"
   height="540"
   id="svg2">
  <metadata
     id="metadata26">
    <rdf:RDF>
      <cc:Work
         rdf:about="">
        <dc:format>image/svg+xml</dc:format>
        <dc:type
           rdf:resource="http://purl.org/dc/dcmitype/StillImage" />
        <dc:title></dc:title>
      </cc:Work>
    </rdf:RDF>
  </metadata>
  <defs
     id="defs24" />
  <g
     transform="translate(0,-512.36)"
     id="g4">
    <rect
       width="359"
       height="539"
       rx="29.944"
       x="0.5"
       y="512.85999"
       id="rect6"
       style="fill:#ffffff;stroke:#000000" />
    <g
       id="g8"
       style="fill:#ff5555">
      <path
         d="m 180,562.36 c 0,0 8,13.333 17.333,22.667 9.333,9.333 22.667,17.333 22.667,17.333 0,0 -13.333,8 -22.667,17.333 C 188,629.026 180,642.36 180,642.36 c 0,0 -8,-13.333 -17.333,-22.667 C 153.334,610.36 140,602.36 140,602.36 c 0,0 13.333,-8 22.667,-17.333 C 172,575.694 180,562.36 180,562.36"
         id="path10" />
      <path
         d="m 180,922.36 c 0,0 8,13.333 17.333,22.667 9.333,9.333 22.667,17.333 22.667,17.333 0,0 -13.333,8 -22.667,17.333 C 188,989.026 180,1002.36 180,1002.36 c 0,0 -8,-13.333 -17.333,-22.667 C 153.334,970.36 140,962.36 140,962.36 c 0,0 13.333,-8 22.667,-17.333 C 172,935.694 180,922.36 180,922.36"
         id="path12" />
      <path
         d="m 330,932.36 c 0,0 3,5 6.5,8.5 3.5,3.5 8.5,6.5 8.5,6.5 0,0 -5,3 -8.5,6.5 -3.5,3.5 -6.5,8.5 -6.5,8.5 0,0 -3,-5 -6.5,-8.5 -3.5,-3.5 -8.5,-6.5 -8.5,-6.5 0,0 5,-3 8.5,-6.5 3.5,-3.5 6.5,-8.5 6.5,-8.5"
         id="path14" />
      <path
         d="m 30,602.36 c 0,0 3,5 6.5,8.5 3.5,3.5 8.5,6.5 8.5,6.5 0,0 -5,3 -8.5,6.5 -3.5,3.5 -6.5,8.5 -6.5,8.5 0,0 -3,-5 -6.5,-8.5 -3.5,-3.5 -8.5,-6.5 -8.5,-6.5 0,0 5,-3 8.5,-6.5 3.5,-3.5 6.5,-8.5 6.5,-8.5"
         id="path16" />
      <path
         d="m 30,542.36 c -5.54,0 -10,4.46 -10,10 v 5 h 5 v -5 c 0,-2.77 2.23,-5 5,-5 2.77,0 5,2.23 5,5 v 5 c 0,1.128 -0.375,3.065 -1,3.9 -4.463,9.104 -9.278,17.13 -14,26.1 v 5 h 10 10 v -5 -5 h -5 v 5 h -5 -4.5 c 4.489,-7.915 8.218,-15.572 12.5,-23.6 1.25,-1.669 2,-4.145 2,-6.4 v -5 c 0,-5.54 -4.46,-10 -10,-10"
         id="path18" />
      <path
         d="m 330,1022.36 c 5.54,0 10,-4.46 10,-10 v -5 h -5 v 5 c 0,2.77 -2.23,5 -5,5 -2.77,0 -5,-2.23 -5,-5 v -5 c 0,-1.128 0.375,-3.065 1,-3.9 4.463,-9.104 9.278,-17.13 14,-26.1 v -5 h -10 -10 v 5 5 h 5 v -5 h 5 4.5 c -4.489,7.915 -8.218,15.572 -12.5,23.6 -1.25,1.669 -2,4.145 -2,6.4 v 5 c 0,5.54 4.46,10 10,10"
         id="path20" />
    </g>
  </g>
</svg>
