<?xml version="1.0" encoding="UTF-8" standalone="no"?>
<!-- Created with Inkscape (http://www.inkscape.org/) -->

<svg
   xmlns:dc="http://purl.org/dc/elements/1.1/"
   xmlns:cc="http://creativecommons.org/ns#"
   xmlns:rdf="http://www.w3.org/1999/02/22-rdf-syntax-ns#"
   xmlns:svg="http://www.w3.org/2000/svg"
   xmlns="http://www.w3.org/2000/svg"
   version="1.1"
   width="360"
   height="540"
   id="svg2">
  <metadata
     id="metadata26">
    <rdf:RDF>
      <cc:Work
         rdf:about="">
        <dc:format>image/svg+xml</dc:format>
        <dc:type
           rdf:resource="http://purl.org/dc/dcmitype/StillImage" />
        <dc:title></dc:title>
      </cc:Work>
    </rdf:RDF>
  </metadata>
  <defs
     id="defs24" />
  <g
     transform="translate(0,-512.36)"
     id="g4">
    <rect
       width="359"
       height="539"
       rx="29.944"
       x="0.5"
       y="512.85999"
       id="rect6"
       style="fill:#ffffff;stroke:#000000" />
    <path
       d="m 30,542.36 c -5.54,0 -10,4.46 -10,10 v 5 h 5 v -5 c 0,-2.77 2.23,-5 5,-5 2.77,0 5,2.23 5,5 v 5 c 0,2.77 -2.23,5 -5,5 h -5 v 5 h 5 c 2.77,0 5,2.23 5,5 v 10 c 0,2.77 -2.23,5 -5,5 -2.77,0 -5,-2.23 -5,-5 v -5 h -5 v 5 c 0,5.54 4.46,10 10,10 5.54,0 10,-4.46 10,-10 v -10 c 0,-3 -1.323,-5.67 -3.406,-7.5 2.083,-1.83 3.406,-4.496 3.406,-7.5 v -5 c 0,-5.54 -4.46,-10 -10,-10"
       id="path8" />
    <path
       d="m 330,1022.36 c 5.54,0 10,-4.46 10,-10 v -5 h -5 v 5 c 0,2.77 -2.23,5 -5,5 -2.77,0 -5,-2.23 -5,-5 v -5 c 0,-2.77 2.23,-5 5,-5 h 5 v -5 h -5 c -2.77,0 -5,-2.23 -5,-5 v -10 c 0,-2.77 2.23,-5 5,-5 2.77,0 5,2.23 5,5 v 5 h 5 v -5 c 0,-5.54 -4.46,-10 -10,-10 -5.54,0 -10,4.46 -10,10 v 10 c 0,3 1.323,5.67 3.406,7.5 -2.083,1.83 -3.406,4.496 -3.406,7.5 v 5 c 0,5.54 4.46,10 10,10"
       id="path10" />
    <path
       d="m 180,562.36 c -1.333,6.667 -2.855,8.392 -5.333,12 -2.135,3.109 -5.122,5.562 -8,8 -2.917,2.471 -6.248,4.408 -9.333,6.667 -3.586,2.625 -7.819,4.588 -10.667,8 -3.184,3.815 -6.667,8.364 -6.667,13.333 0,3.975 2.408,7.975 5.333,10.667 3.523,3.241 8.548,5.444 13.333,5.333 5.369,-0.124 10.8,-2.94 14.667,-6.667 2.862,-2.758 5.333,-10.667 5.333,-10.667 v 2.667 c 0,1.333 -0.133,7.29 -1.333,10.667 -1.404,3.951 -3.83,7.579 -6.667,10.667 -3.01,3.273 -10.667,8 -10.667,8 v 1.333 c 0,0 10.612,-2.221 16,-2.667 2.658,-0.22 5.342,-0.22 8,0 5.388,0.446 16,2.667 16,2.667 v -1.333 c 0,0 -7.66,-4.727 -10.667,-8 -2.836,-3.088 -5.263,-6.716 -6.667,-10.667 -1.2,-3.376 -1.333,-10.667 -1.333,-10.667 v -2.667 c 0,0 2.471,7.908 5.333,10.667 3.867,3.726 9.298,6.543 14.667,6.667 4.786,0.11 9.811,-2.092 13.333,-5.333 2.925,-2.692 5.333,-6.691 5.333,-10.667 0,-4.969 -3.483,-9.518 -6.667,-13.333 -2.848,-3.412 -7.08,-5.375 -10.667,-8 -3.085,-2.258 -6.416,-4.195 -9.333,-6.667 -2.878,-2.438 -5.865,-4.891 -8,-8 -2.478,-3.608 -4,-5.333 -5.333,-12"
       id="path12" />
    <path
       d="m 180,742.36 c -1.333,6.667 -2.855,8.392 -5.333,12 -2.135,3.109 -5.122,5.562 -8,8 -2.917,2.471 -6.248,4.408 -9.333,6.667 -3.586,2.625 -7.819,4.588 -10.667,8 -3.184,3.815 -6.667,8.364 -6.667,13.333 0,3.975 2.408,7.975 5.333,10.667 3.523,3.241 8.548,5.444 13.333,5.333 5.369,-0.124 10.8,-2.94 14.667,-6.667 2.862,-2.758 5.333,-10.667 5.333,-10.667 v 2.667 c 0,1.333 -0.133,7.29 -1.333,10.667 -1.404,3.951 -3.83,7.579 -6.667,10.667 -3.01,3.273 -10.667,8 -10.667,8 v 1.333 c 0,0 10.612,-2.221 16,-2.667 2.658,-0.22 5.342,-0.22 8,0 5.388,0.446 16,2.667 16,2.667 v -1.333 c 0,0 -7.66,-4.727 -10.667,-8 -2.836,-3.088 -5.263,-6.716 -6.667,-10.667 -1.2,-3.376 -1.333,-10.667 -1.333,-10.667 v -2.667 c 0,0 2.471,7.908 5.333,10.667 3.867,3.726 9.298,6.543 14.667,6.667 4.786,0.11 9.811,-2.092 13.333,-5.333 2.925,-2.692 5.333,-6.691 5.333,-10.667 0,-4.969 -3.483,-9.518 -6.667,-13.333 -2.848,-3.412 -7.08,-5.375 -10.667,-8 -3.085,-2.258 -6.416,-4.195 -9.333,-6.667 -2.878,-2.438 -5.865,-4.891 -8,-8 -2.478,-3.608 -4,-5.333 -5.333,-12"
       id="path14" />
    <path
       d="m 180,1002.36 c -1.333,-6.667 -2.855,-8.392 -5.333,-12 -2.135,-3.109 -5.122,-5.562 -8,-8 -2.917,-2.471 -6.248,-4.408 -9.333,-6.667 -3.586,-2.625 -7.819,-4.588 -10.667,-8 -3.184,-3.815 -6.667,-8.364 -6.667,-13.333 0,-3.975 2.408,-7.975 5.333,-10.667 3.523,-3.241 8.548,-5.444 13.333,-5.333 5.369,0.124 10.8,2.94 14.667,6.667 2.862,2.758 5.333,10.667 5.333,10.667 v -2.667 c 0,-1.333 -0.133,-7.29 -1.333,-10.667 -1.404,-3.951 -3.83,-7.579 -6.667,-10.667 -3.01,-3.273 -10.667,-8 -10.667,-8 v -1.333 c 0,0 10.612,2.221 16,2.667 2.658,0.22 5.342,0.22 8,0 5.388,-0.446 16,-2.667 16,-2.667 v 1.333 c 0,0 -7.66,4.727 -10.667,8 -2.836,3.088 -5.263,6.716 -6.667,10.667 -1.2,3.376 -1.333,10.667 -1.333,10.667 v 2.667 c 0,0 2.471,-7.908 5.333,-10.667 3.867,-3.726 9.298,-6.543 14.667,-6.667 4.786,-0.11 9.811,2.092 13.333,5.333 2.925,2.692 5.333,6.691 5.333,10.667 0,4.969 -3.483,9.518 -6.667,13.333 -2.848,3.412 -7.08,5.375 -10.667,8 -3.085,2.258 -6.416,4.195 -9.333,6.667 -2.878,2.438 -5.865,4.891 -8,8 -2.478,3.608 -4,5.333 -5.333,12"
       id="path16" />
    <path
       d="m 30,602.36 c -0.5,2.5 -1.071,3.147 -2,4.5 -0.801,1.166 -1.921,2.086 -3,3 -1.094,0.927 -2.343,1.653 -3.5,2.5 -1.345,0.984 -2.932,1.72 -4,3 -1.194,1.431 -2.5,3.137 -2.5,5 0,1.491 0.903,2.991 2,4 1.321,1.215 3.205,2.041 5,2 2.01,-0.046 4.05,-1.103 5.5,-2.5 1.073,-1.034 2,-4 2,-4 v 1 c 0,0.5 -0.05,2.734 -0.5,4 -0.527,1.482 -1.436,2.842 -2.5,4 -1.127,1.227 -4,3 -4,3 v 0.5 c 0,0 3.979,-0.833 6,-1 0.997,-0.082 2,-0.082 3,0 2.02,0.167 6,1 6,1 v -0.5 c 0,0 -2.873,-1.773 -4,-3 -1.064,-1.158 -1.973,-2.518 -2.5,-4 -0.45,-1.266 -0.5,-4 -0.5,-4 v -1 c 0,0 0.927,2.966 2,4 1.45,1.397 3.487,2.454 5.5,2.5 1.795,0.041 3.679,-0.785 5,-2 1.097,-1.01 2,-2.509 2,-4 0,-1.863 -1.306,-3.569 -2.5,-5 -1.068,-1.28 -2.655,-2.02 -4,-3 -1.157,-0.847 -2.406,-1.573 -3.5,-2.5 -1.079,-0.914 -2.199,-1.834 -3,-3 -0.929,-1.353 -1.5,-2 -2,-4.5"
       id="path18" />
    <path
       d="m 330,962.36 c -0.5,-2.5 -1.071,-3.147 -2,-4.5 -0.801,-1.166 -1.921,-2.086 -3,-3 -1.094,-0.927 -2.343,-1.653 -3.5,-2.5 -1.345,-0.984 -2.932,-1.72 -4,-3 -1.194,-1.431 -2.5,-3.137 -2.5,-5 0,-1.491 0.903,-2.991 2,-4 1.321,-1.215 3.205,-2.041 5,-2 2.01,0.046 4.05,1.103 5.5,2.5 1.073,1.034 2,4 2,4 v -1 c 0,-0.5 -0.05,-2.734 -0.5,-4 -0.527,-1.482 -1.436,-2.842 -2.5,-4 -1.127,-1.227 -4,-3 -4,-3 v -0.5 c 0,0 3.979,0.833 6,1 0.997,0.082 2,0.082 3,0 2.02,-0.167 6,-1 6,-1 v 0.5 c 0,0 -2.873,1.773 -4,3 -1.064,1.158 -1.973,2.518 -2.5,4 -0.45,1.266 -0.5,4 -0.5,4 v 1 c 0,0 0.927,-2.966 2,-4 1.45,-1.397 3.487,-2.454 5.5,-2.5 1.795,-0.041 3.679,0.785 5,2 1.097,1.01 2,2.509 2,4 0,1.863 -1.306,3.569 -2.5,5 -1.068,1.28 -2.655,2.02 -4,3 -1.157,0.847 -2.406,1.573 -3.5,2.5 -1.079,0.914 -2.199,1.834 -3,3 -0.929,1.353 -1.5,2 -2,4.5"
       id="path20" />
  </g>
</svg>
