<svg xmlns="http://www.w3.org/2000/svg" width="360" height="540"><g transform="translate(0-512.36)"><rect y="512.86" x=".5" rx="29.944" height="539" width="359" fill="#fff" stroke="#000"/><g fill="#f55"><path d="m100 562.36c0 0 8 13.333 17.333 22.667 9.333 9.333 22.667 17.333 22.667 17.333 0 0-13.333 8-22.667 17.333-9.333 9.333-17.333 22.667-17.333 22.667 0 0-8-13.333-17.333-22.667-9.333-9.333-22.667-17.333-22.667-17.333 0 0 13.333-8 22.667-17.333 9.333-9.333 17.333-22.667 17.333-22.667"/><path d="m260 562.36c0 0 8 13.333 17.333 22.667 9.333 9.333 22.667 17.333 22.667 17.333 0 0-13.333 8-22.667 17.333-9.333 9.333-17.333 22.667-17.333 22.667 0 0-8-13.333-17.333-22.667-9.333-9.333-22.667-17.333-22.667-17.333 0 0 13.333-8 22.667-17.333 9.333-9.333 17.333-22.667 17.333-22.667"/><path d="m100 922.36c0 0 8 13.333 17.333 22.667 9.333 9.333 22.667 17.333 22.667 17.333 0 0-13.333 8-22.667 17.333-9.333 9.333-17.333 22.667-17.333 22.667 0 0-8-13.333-17.333-22.667-9.333-9.333-22.667-17.333-22.667-17.333 0 0 13.333-8 22.667-17.333 9.333-9.333 17.333-22.667 17.333-22.667"/><path d="m260 922.36c0 0 8 13.333 17.333 22.667 9.333 9.333 22.667 17.333 22.667 17.333 0 0-13.333 8-22.667 17.333-9.333 9.333-17.333 22.667-17.333 22.667 0 0-8-13.333-17.333-22.667-9.333-9.333-22.667-17.333-22.667-17.333 0 0 13.333-8 22.667-17.333 9.333-9.333 17.333-22.667 17.333-22.667"/><path d="m330 932.36c0 0 3 5 6.5 8.5 3.5 3.5 8.5 6.5 8.5 6.5 0 0-5 3-8.5 6.5-3.5 3.5-6.5 8.5-6.5 8.5 0 0-3-5-6.5-8.5-3.5-3.5-8.5-6.5-8.5-6.5 0 0 5-3 8.5-6.5 3.5-3.5 6.5-8.5 6.5-8.5"/><path d="m30 602.36c0 0 3 5 6.5 8.5 3.5 3.5 8.5 6.5 8.5 6.5 0 0-5 3-8.5 6.5-3.5 3.5-6.5 8.5-6.5 8.5 0 0-3-5-6.5-8.5-3.5-3.5-8.5-6.5-8.5-6.5 0 0 5-3 8.5-6.5 3.5-3.5 6.5-8.5 6.5-8.5"/><path d="m30 542.36l-10 35v5h12v10h5v-10h3v-5h-3v-15h-5v15h-6.8l10-35z"/><path d="m330 1022.36l10-35v-5h-12v-10h-5v10h-3v5h3v15h5v-15h6.8l-10 35z"/></g></g></svg>