<?xml version="1.0" encoding="UTF-8" standalone="no"?>
<!-- Created with Inkscape (http://www.inkscape.org/) -->

<svg
   xmlns:dc="http://purl.org/dc/elements/1.1/"
   xmlns:cc="http://creativecommons.org/ns#"
   xmlns:rdf="http://www.w3.org/1999/02/22-rdf-syntax-ns#"
   xmlns:svg="http://www.w3.org/2000/svg"
   xmlns="http://www.w3.org/2000/svg"
   xmlns:xlink="http://www.w3.org/1999/xlink"
   version="1.1"
   width="360"
   height="540"
   id="svg2">
  <metadata
     id="metadata46">
    <rdf:RDF>
      <cc:Work
         rdf:about="">
        <dc:format>image/svg+xml</dc:format>
        <dc:type
           rdf:resource="http://purl.org/dc/dcmitype/StillImage" />
        <dc:title></dc:title>
      </cc:Work>
    </rdf:RDF>
  </metadata>
  <defs
     id="defs44" />
  <g
     transform="translate(0,-512.36)"
     id="g4">
    <rect
       width="359"
       height="539"
       rx="29.944"
       x="0.5"
       y="512.85999"
       id="rect6"
       style="fill:#ffffff;stroke:#000000" />
    <g
       transform="translate(5,22.362)"
       id="g8">
      <path
         d="m 10,80 -5,7 v 7 l 5,-7 v 43 h 5 V 80 h -5"
         transform="translate(0,440)"
         id="0" />
      <path
         d="m 30,520 c -5.54,0 -10,4.46 -10,10 v 30 c 0,5.54 4.46,10 10,10 5.54,0 10,-4.46 10,-10 v -30 c 0,-5.54 -4.46,-10 -10,-10 m 0,5 c 2.77,0 5,2.23 5,5 v 30 c 0,2.77 -2.23,5 -5,5 -2.77,0 -5,-2.23 -5,-5 v -30 c 0,-2.77 2.23,-5 5,-5"
         id="1" />
    </g>
    <g
       transform="matrix(-1,0,0,-1,355,1542.36)"
       id="g12">
      <use
         id="use14"
         x="0"
         y="0"
         width="360"
         height="540"
         xlink:href="#0" />
      <use
         id="use16"
         x="0"
         y="0"
         width="360"
         height="540"
         xlink:href="#1" />
    </g>
    <path
       d="m 100,562.37 c -3.999,-0.082 -6.667,1.333 -9.333,4 -2.667,2.667 -4,5.333 -4,9.333 0,4 1.518,6.372 4,9.333 2.375,2.833 4,4 5.333,6.666 1.333,2.667 2.667,8 2.667,10.666 0,2.667 0,2.398 0,4 H 96 c -2.667,0 -8,-2.667 -9.333,-4 l -4,-4 c -2.667,-2.667 -5.333,-4 -9.333,-4 -4,0 -6.667,1.333 -9.333,4 -2.667,2.667 -4,5.333 -4,9.333 0,4 1.333,6.666 4,9.333 2.667,2.667 5.333,4 9.333,4 4,0 6.667,-1.333 9.333,-4 l 4,-4 c 1.333,-1.333 6.667,-4 9.333,-4 h 2.667 c -0.066,3.776 -0.346,10.37 -1.333,13.333 -1.333,4 -4,8 -6.667,10.666 -2.667,2.667 -10.667,8 -10.667,8 v 1.333 c 0,0 13.333,-2.667 16,-2.667 h 8 c 2.667,0 16,2.667 16,2.667 v -1.333 c 0,0 -8,-5.333 -10.667,-8 -2.667,-2.667 -5.333,-6.666 -6.667,-10.666 -0.988,-2.963 -1.267,-9.557 -1.333,-13.333 H 104 c 2.667,0 8,2.667 9.333,4 l 4,4 c 2.667,2.667 5.333,4 9.333,4 4,0 6.667,-1.333 9.333,-4 2.667,-2.667 4,-5.333 4,-9.333 0,-4 -1.333,-6.666 -4,-9.333 -2.667,-2.667 -5.333,-4 -9.333,-4 -4,0 -6.667,1.333 -9.333,4 l -4,4 c -1.333,1.333 -6.667,4 -9.333,4 h -2.667 c 0,-1.855 0,-1.333 0,-4 0,-2.667 1.333,-8 2.667,-10.666 1.333,-2.667 2.667,-4 5.333,-6.666 2.653,-2.653 4,-5.333 4,-9.333 0,-4 -1.333,-6.666 -4,-9.333 -2.667,-2.667 -5.333,-4 -9.333,-4"
       id="path18" />
    <path
       d="m 260,562.37 c -3.999,-0.082 -6.667,1.333 -9.333,4 -2.667,2.667 -4,5.333 -4,9.333 0,4 1.518,6.372 4,9.333 2.375,2.833 4,4 5.333,6.666 1.333,2.667 2.667,8 2.667,10.666 0,2.667 0,2.398 0,4 H 256 c -2.667,0 -8,-2.667 -9.333,-4 l -4,-4 c -2.667,-2.667 -5.333,-4 -9.333,-4 -4,0 -6.667,1.333 -9.333,4 -2.667,2.667 -4,5.333 -4,9.333 0,4 1.333,6.666 4,9.333 2.667,2.667 5.333,4 9.333,4 4,0 6.667,-1.333 9.333,-4 l 4,-4 c 1.333,-1.333 6.667,-4 9.333,-4 h 2.667 c -0.066,3.776 -0.346,10.37 -1.333,13.333 -1.333,4 -4,8 -6.667,10.666 -2.667,2.667 -10.667,8 -10.667,8 v 1.333 c 0,0 13.333,-2.667 16,-2.667 h 8 c 2.667,0 16,2.667 16,2.667 v -1.333 c 0,0 -8,-5.333 -10.667,-8 -2.667,-2.667 -5.333,-6.666 -6.667,-10.666 -0.988,-2.963 -1.267,-9.557 -1.333,-13.333 H 264 c 2.667,0 8,2.667 9.333,4 l 4,4 c 2.667,2.667 5.333,4 9.333,4 4,0 6.667,-1.333 9.333,-4 2.667,-2.667 4,-5.333 4,-9.333 0,-4 -1.333,-6.666 -4,-9.333 -2.667,-2.667 -5.333,-4 -9.333,-4 -4,0 -6.667,1.333 -9.333,4 l -4,4 c -1.333,1.333 -6.667,4 -9.333,4 h -2.667 c 0,-1.855 0,-1.333 0,-4 0,-2.667 1.333,-8 2.667,-10.666 1.333,-2.667 2.667,-4 5.333,-6.666 2.653,-2.653 4,-5.333 4,-9.333 0,-4 -1.333,-6.666 -4,-9.333 -2.667,-2.667 -5.333,-4 -9.333,-4"
       id="path20" />
    <path
       d="m 180,622.37 c -3.999,-0.082 -6.667,1.333 -9.333,4 -2.667,2.667 -4,5.333 -4,9.333 0,4 1.518,6.372 4,9.333 2.375,2.833 4,4 5.333,6.666 1.333,2.667 2.667,8 2.667,10.666 0,2.667 0,2.398 0,4 H 176 c -2.667,0 -8,-2.667 -9.333,-4 l -4,-4 c -2.667,-2.667 -5.333,-4 -9.333,-4 -4,0 -6.667,1.333 -9.333,4 -2.667,2.667 -4,5.333 -4,9.333 0,4 1.333,6.666 4,9.333 2.667,2.667 5.333,4 9.333,4 4,0 6.667,-1.333 9.333,-4 l 4,-4 c 1.333,-1.333 6.667,-4 9.333,-4 h 2.667 c -0.066,3.776 -0.346,10.37 -1.333,13.333 -1.333,4 -4,8 -6.667,10.666 -2.667,2.667 -10.667,8 -10.667,8 v 1.333 c 0,0 13.333,-2.667 16,-2.667 h 8 c 2.667,0 16,2.667 16,2.667 v -1.333 c 0,0 -8,-5.333 -10.667,-8 -2.667,-2.667 -5.333,-6.666 -6.667,-10.666 -0.988,-2.963 -1.267,-9.557 -1.333,-13.333 H 184 c 2.667,0 8,2.667 9.333,4 l 4,4 c 2.667,2.667 5.333,4 9.333,4 4,0 6.667,-1.333 9.333,-4 2.667,-2.667 4,-5.333 4,-9.333 0,-4 -1.333,-6.666 -4,-9.333 -2.667,-2.667 -5.333,-4 -9.333,-4 -4,0 -6.667,1.333 -9.333,4 l -4,4 c -1.333,1.333 -6.667,4 -9.333,4 h -2.667 c 0,-1.855 0,-1.333 0,-4 0,-2.667 1.333,-8 2.667,-10.666 1.333,-2.667 2.667,-4 5.333,-6.666 2.653,-2.653 4,-5.333 4,-9.333 0,-4 -1.333,-6.666 -4,-9.333 -2.667,-2.667 -5.333,-4 -9.333,-4"
       id="path22" />
    <path
       d="m 100,682.37 c -3.999,-0.082 -6.667,1.333 -9.333,4 -2.667,2.667 -4,5.333 -4,9.333 0,4 1.518,6.372 4,9.333 2.375,2.833 4,4 5.333,6.666 1.333,2.667 2.667,8 2.667,10.666 0,2.667 0,2.398 0,4 H 96 c -2.667,0 -8,-2.667 -9.333,-4 l -4,-4 c -2.667,-2.667 -5.333,-4 -9.333,-4 -4,0 -6.667,1.333 -9.333,4 -2.667,2.667 -4,5.333 -4,9.333 0,4 1.333,6.666 4,9.333 2.667,2.667 5.333,4 9.333,4 4,0 6.667,-1.333 9.333,-4 l 4,-4 c 1.333,-1.333 6.667,-4 9.333,-4 h 2.667 c -0.066,3.776 -0.346,10.37 -1.333,13.333 -1.333,4 -4,8 -6.667,10.666 -2.667,2.667 -10.667,8 -10.667,8 v 1.333 c 0,0 13.333,-2.667 16,-2.667 h 8 c 2.667,0 16,2.667 16,2.667 v -1.333 c 0,0 -8,-5.333 -10.667,-8 -2.667,-2.667 -5.333,-6.666 -6.667,-10.666 -0.988,-2.963 -1.267,-9.557 -1.333,-13.333 H 104 c 2.667,0 8,2.667 9.333,4 l 4,4 c 2.667,2.667 5.333,4 9.333,4 4,0 6.667,-1.333 9.333,-4 2.667,-2.667 4,-5.333 4,-9.333 0,-4 -1.333,-6.666 -4,-9.333 -2.667,-2.667 -5.333,-4 -9.333,-4 -4,0 -6.667,1.333 -9.333,4 l -4,4 c -1.333,1.333 -6.667,4 -9.333,4 h -2.667 c 0,-1.855 0,-1.333 0,-4 0,-2.667 1.333,-8 2.667,-10.666 1.333,-2.667 2.667,-4 5.333,-6.666 2.653,-2.653 4,-5.333 4,-9.333 0,-4 -1.333,-6.666 -4,-9.333 -2.667,-2.667 -5.333,-4 -9.333,-4"
       id="path24" />
    <path
       d="m 260,682.37 c -3.999,-0.082 -6.667,1.333 -9.333,4 -2.667,2.667 -4,5.333 -4,9.333 0,4 1.518,6.372 4,9.333 2.375,2.833 4,4 5.333,6.666 1.333,2.667 2.667,8 2.667,10.666 0,2.667 0,2.398 0,4 H 256 c -2.667,0 -8,-2.667 -9.333,-4 l -4,-4 c -2.667,-2.667 -5.333,-4 -9.333,-4 -4,0 -6.667,1.333 -9.333,4 -2.667,2.667 -4,5.333 -4,9.333 0,4 1.333,6.666 4,9.333 2.667,2.667 5.333,4 9.333,4 4,0 6.667,-1.333 9.333,-4 l 4,-4 c 1.333,-1.333 6.667,-4 9.333,-4 h 2.667 c -0.066,3.776 -0.346,10.37 -1.333,13.333 -1.333,4 -4,8 -6.667,10.666 -2.667,2.667 -10.667,8 -10.667,8 v 1.333 c 0,0 13.333,-2.667 16,-2.667 h 8 c 2.667,0 16,2.667 16,2.667 v -1.333 c 0,0 -8,-5.333 -10.667,-8 -2.667,-2.667 -5.333,-6.666 -6.667,-10.666 -0.988,-2.963 -1.267,-9.557 -1.333,-13.333 H 264 c 2.667,0 8,2.667 9.333,4 l 4,4 c 2.667,2.667 5.333,4 9.333,4 4,0 6.667,-1.333 9.333,-4 2.667,-2.667 4,-5.333 4,-9.333 0,-4 -1.333,-6.666 -4,-9.333 -2.667,-2.667 -5.333,-4 -9.333,-4 -4,0 -6.667,1.333 -9.333,4 l -4,4 c -1.333,1.333 -6.667,4 -9.333,4 h -2.667 c 0,-1.855 0,-1.333 0,-4 0,-2.667 1.333,-8 2.667,-10.666 1.333,-2.667 2.667,-4 5.333,-6.666 2.653,-2.653 4,-5.333 4,-9.333 0,-4 -1.333,-6.666 -4,-9.333 -2.667,-2.667 -5.333,-4 -9.333,-4"
       id="path26" />
    <path
       d="m 180,942.36 c -3.999,0.082 -6.667,-1.333 -9.333,-4 -2.667,-2.667 -4,-5.333 -4,-9.333 0,-4 1.518,-6.372 4,-9.333 2.375,-2.833 4,-4 5.333,-6.666 1.333,-2.667 2.667,-8 2.667,-10.666 0,-2.667 0,-2.398 0,-4 H 176 c -2.667,0 -8,2.667 -9.333,4 l -4,4 c -2.667,2.667 -5.333,4 -9.333,4 -4,0 -6.667,-1.333 -9.333,-4 -2.667,-2.667 -4,-5.333 -4,-9.333 0,-4 1.333,-6.666 4,-9.333 2.667,-2.667 5.333,-4 9.333,-4 4,0 6.667,1.333 9.333,4 l 4,4 c 1.333,1.333 6.667,4 9.333,4 h 2.667 c -0.066,-3.776 -0.346,-10.37 -1.333,-13.333 -1.333,-4 -4,-8 -6.667,-10.666 -2.667,-2.667 -10.667,-8 -10.667,-8 v -1.333 c 0,0 13.333,2.667 16,2.667 h 8 c 2.667,0 16,-2.667 16,-2.667 v 1.333 c 0,0 -8,5.333 -10.667,8 -2.667,2.667 -5.333,6.666 -6.667,10.666 -0.988,2.963 -1.267,9.557 -1.333,13.333 H 184 c 2.667,0 8,-2.667 9.333,-4 l 4,-4 c 2.667,-2.667 5.333,-4 9.333,-4 4,0 6.667,1.333 9.333,4 2.667,2.667 4,5.333 4,9.333 0,4 -1.333,6.666 -4,9.333 -2.667,2.667 -5.333,4 -9.333,4 -4,0 -6.667,-1.333 -9.333,-4 l -4,-4 c -1.333,-1.333 -6.667,-4 -9.333,-4 h -2.667 c 0,1.855 0,1.333 0,4 0,2.667 1.333,8 2.667,10.666 1.333,2.667 2.667,4 5.333,6.666 2.653,2.653 4,5.333 4,9.333 0,4 -1.333,6.666 -4,9.333 -2.667,2.667 -5.333,4 -9.333,4"
       id="path28" />
    <path
       d="m 260,1002.36 c -3.999,0.082 -6.667,-1.333 -9.333,-4 -2.667,-2.667 -4,-5.333 -4,-9.333 0,-4 1.518,-6.372 4,-9.333 2.375,-2.833 4,-4 5.333,-6.666 1.333,-2.667 2.667,-8 2.667,-10.666 0,-2.667 0,-2.398 0,-4 H 256 c -2.667,0 -8,2.667 -9.333,4 l -4,4 c -2.667,2.667 -5.333,4 -9.333,4 -4,0 -6.667,-1.333 -9.333,-4 -2.667,-2.667 -4,-5.333 -4,-9.333 0,-4 1.333,-6.666 4,-9.333 2.667,-2.667 5.333,-4 9.333,-4 4,0 6.667,1.333 9.333,4 l 4,4 c 1.333,1.333 6.667,4 9.333,4 h 2.667 c -0.066,-3.776 -0.346,-10.37 -1.333,-13.333 -1.333,-4 -4,-8 -6.667,-10.666 -2.667,-2.667 -10.667,-8 -10.667,-8 v -1.333 c 0,0 13.333,2.667 16,2.667 h 8 c 2.667,0 16,-2.667 16,-2.667 v 1.333 c 0,0 -8,5.333 -10.667,8 -2.667,2.667 -5.333,6.666 -6.667,10.666 -0.988,2.963 -1.267,9.557 -1.333,13.333 H 264 c 2.667,0 8,-2.667 9.333,-4 l 4,-4 c 2.667,-2.667 5.333,-4 9.333,-4 4,0 6.667,1.333 9.333,4 2.667,2.667 4,5.333 4,9.333 0,4 -1.333,6.666 -4,9.333 -2.667,2.667 -5.333,4 -9.333,4 -4,0 -6.667,-1.333 -9.333,-4 l -4,-4 c -1.333,-1.333 -6.667,-4 -9.333,-4 h -2.667 c 0,1.855 0,1.333 0,4 0,2.667 1.333,8 2.667,10.666 1.333,2.667 2.667,4 5.333,6.666 2.653,2.653 4,5.333 4,9.333 0,4 -1.333,6.666 -4,9.333 -2.667,2.667 -5.333,4 -9.333,4"
       id="path30" />
    <path
       d="m 100,882.36 c -3.999,0.082 -6.667,-1.333 -9.333,-4 -2.667,-2.667 -4,-5.333 -4,-9.333 0,-4 1.518,-6.372 4,-9.333 2.375,-2.833 4,-4 5.333,-6.666 1.333,-2.667 2.667,-8 2.667,-10.666 0,-2.667 0,-2.398 0,-4 H 96 c -2.667,0 -8,2.667 -9.333,4 l -4,4 c -2.667,2.667 -5.333,4 -9.333,4 -4,0 -6.667,-1.333 -9.333,-4 -2.667,-2.667 -4,-5.333 -4,-9.333 0,-4 1.333,-6.666 4,-9.333 2.667,-2.667 5.333,-4 9.333,-4 4,0 6.667,1.333 9.333,4 l 4,4 c 1.333,1.333 6.667,4 9.333,4 h 2.667 c -0.066,-3.776 -0.346,-10.37 -1.333,-13.333 -1.333,-4 -4,-8 -6.667,-10.666 C 88,809.03 80,803.697 80,803.697 v -1.333 c 0,0 13.333,2.667 16,2.667 h 8 c 2.667,0 16,-2.667 16,-2.667 v 1.333 c 0,0 -8,5.333 -10.667,8 -2.667,2.667 -5.333,6.666 -6.667,10.666 -0.988,2.963 -1.267,9.557 -1.333,13.333 H 104 c 2.667,0 8,-2.667 9.333,-4 l 4,-4 c 2.667,-2.667 5.333,-4 9.333,-4 4,0 6.667,1.333 9.333,4 2.667,2.667 4,5.333 4,9.333 0,4 -1.333,6.666 -4,9.333 -2.667,2.667 -5.333,4 -9.333,4 -4,0 -6.667,-1.333 -9.333,-4 l -4,-4 c -1.333,-1.333 -6.667,-4 -9.333,-4 h -2.667 c 0,1.855 0,1.333 0,4 0,2.667 1.333,8 2.667,10.666 1.333,2.667 2.667,4 5.333,6.666 2.653,2.653 4,5.333 4,9.333 0,4 -1.333,6.666 -4,9.333 -2.667,2.667 -5.333,4 -9.333,4"
       id="path32" />
    <path
       d="m 260,882.36 c -3.999,0.082 -6.667,-1.333 -9.333,-4 -2.667,-2.667 -4,-5.333 -4,-9.333 0,-4 1.518,-6.372 4,-9.333 2.375,-2.833 4,-4 5.333,-6.666 1.333,-2.667 2.667,-8 2.667,-10.666 0,-2.667 0,-2.398 0,-4 H 256 c -2.667,0 -8,2.667 -9.333,4 l -4,4 c -2.667,2.667 -5.333,4 -9.333,4 -4,0 -6.667,-1.333 -9.333,-4 -2.667,-2.667 -4,-5.333 -4,-9.333 0,-4 1.333,-6.666 4,-9.333 2.667,-2.667 5.333,-4 9.333,-4 4,0 6.667,1.333 9.333,4 l 4,4 c 1.333,1.333 6.667,4 9.333,4 h 2.667 c -0.066,-3.776 -0.346,-10.37 -1.333,-13.333 -1.333,-4 -4,-8 -6.667,-10.666 -2.667,-2.667 -10.667,-8 -10.667,-8 v -1.333 c 0,0 13.333,2.667 16,2.667 h 8 c 2.667,0 16,-2.667 16,-2.667 v 1.333 c 0,0 -8,5.333 -10.667,8 -2.667,2.667 -5.333,6.666 -6.667,10.666 -0.988,2.963 -1.267,9.557 -1.333,13.333 H 264 c 2.667,0 8,-2.667 9.333,-4 l 4,-4 c 2.667,-2.667 5.333,-4 9.333,-4 4,0 6.667,1.333 9.333,4 2.667,2.667 4,5.333 4,9.333 0,4 -1.333,6.666 -4,9.333 -2.667,2.667 -5.333,4 -9.333,4 -4,0 -6.667,-1.333 -9.333,-4 l -4,-4 c -1.333,-1.333 -6.667,-4 -9.333,-4 h -2.667 c 0,1.855 0,1.333 0,4 0,2.667 1.333,8 2.667,10.666 1.333,2.667 2.667,4 5.333,6.666 2.653,2.653 4,5.333 4,9.333 0,4 -1.333,6.666 -4,9.333 -2.667,2.667 -5.333,4 -9.333,4"
       id="path34" />
    <path
       d="m 100,1002.36 c -3.999,0.082 -6.667,-1.333 -9.333,-4 -2.667,-2.667 -4,-5.333 -4,-9.333 0,-4 1.518,-6.372 4,-9.333 2.375,-2.833 4,-4 5.333,-6.666 1.333,-2.667 2.667,-8 2.667,-10.666 0,-2.667 0,-2.398 0,-4 H 96 c -2.667,0 -8,2.667 -9.333,4 l -4,4 c -2.667,2.667 -5.333,4 -9.333,4 -4,0 -6.667,-1.333 -9.333,-4 -2.667,-2.667 -4,-5.333 -4,-9.333 0,-4 1.333,-6.666 4,-9.333 2.667,-2.667 5.333,-4 9.333,-4 4,0 6.667,1.333 9.333,4 l 4,4 c 1.333,1.333 6.667,4 9.333,4 h 2.667 c -0.066,-3.776 -0.346,-10.37 -1.333,-13.333 -1.333,-4 -4,-8 -6.667,-10.666 C 88,929.03 80,923.697 80,923.697 v -1.333 c 0,0 13.333,2.667 16,2.667 h 8 c 2.667,0 16,-2.667 16,-2.667 v 1.333 c 0,0 -8,5.333 -10.667,8 -2.667,2.667 -5.333,6.666 -6.667,10.666 -0.988,2.963 -1.267,9.557 -1.333,13.333 H 104 c 2.667,0 8,-2.667 9.333,-4 l 4,-4 c 2.667,-2.667 5.333,-4 9.333,-4 4,0 6.667,1.333 9.333,4 2.667,2.667 4,5.333 4,9.333 0,4 -1.333,6.666 -4,9.333 -2.667,2.667 -5.333,4 -9.333,4 -4,0 -6.667,-1.333 -9.333,-4 l -4,-4 c -1.333,-1.333 -6.667,-4 -9.333,-4 h -2.667 c 0,1.855 0,1.333 0,4 0,2.667 1.333,8 2.667,10.666 1.333,2.667 2.667,4 5.333,6.666 2.653,2.653 4,5.333 4,9.333 0,4 -1.333,6.666 -4,9.333 -2.667,2.667 -5.333,4 -9.333,4"
       id="path36" />
    <path
       d="m 30,602.36 c -1.5,-0.031 -2.5,0.5 -3.5,1.5 -1,1 -1.5,2 -1.5,3.5 0,1.5 0.569,2.39 1.5,3.5 0.891,1.063 1.5,1.5 2,2.5 0.5,1 1,3 1,4 0,1 0,0.899 0,1.5 h -1 c -1,0 -3,-1 -3.5,-1.5 l -1.5,-1.5 c -1,-1 -2,-1.5 -3.5,-1.5 -1.5,0 -2.5,0.5 -3.5,1.5 -1,1 -1.5,2 -1.5,3.5 0,1.5 0.5,2.5 1.5,3.5 1,1 2,1.5 3.5,1.5 1.5,0 2.5,-0.5 3.5,-1.5 l 1.5,-1.5 c 0.5,-0.5 2.5,-1.5 3.5,-1.5 h 1 c -0.025,1.416 -0.13,3.889 -0.5,5 -0.5,1.5 -1.5,3 -2.5,4 -1,1 -4,3 -4,3 v 0.5 c 0,0 5,-1 6,-1 h 3 c 1,0 6,1 6,1 v -0.5 c 0,0 -3,-2 -4,-3 -1,-1 -2,-2.5 -2.5,-4 -0.37,-1.111 -0.475,-3.584 -0.5,-5 h 1 c 1,0 3,1 3.5,1.5 l 1.5,1.5 c 1,1 2,1.5 3.5,1.5 1.5,0 2.5,-0.5 3.5,-1.5 1,-1 1.5,-2 1.5,-3.5 0,-1.5 -0.5,-2.5 -1.5,-3.5 -1,-1 -2,-1.5 -3.5,-1.5 -1.5,0 -2.5,0.5 -3.5,1.5 l -1.5,1.5 c -0.5,0.5 -2.5,1.5 -3.5,1.5 h -1 c 0,-0.696 0,-0.5 0,-1.5 0,-1 0.5,-3 1,-4 0.5,-1 1,-1.5 2,-2.5 0.995,-0.995 1.5,-2 1.5,-3.5 0,-1.5 -0.5,-2.5 -1.5,-3.5 -1,-1 -2,-1.5 -3.5,-1.5"
       id="path38" />
    <path
       d="m 330,962.36 c -1.5,0.031 -2.5,-0.5 -3.5,-1.5 -1,-1 -1.5,-2 -1.5,-3.5 0,-1.5 0.569,-2.39 1.5,-3.5 0.891,-1.063 1.5,-1.5 2,-2.5 0.5,-1 1,-3 1,-4 0,-1 0,-0.899 0,-1.5 h -1 c -1,0 -3,1 -3.5,1.5 l -1.5,1.5 c -1,1 -2,1.5 -3.5,1.5 -1.5,0 -2.5,-0.5 -3.5,-1.5 -1,-1 -1.5,-2 -1.5,-3.5 0,-1.5 0.5,-2.5 1.5,-3.5 1,-1 2,-1.5 3.5,-1.5 1.5,0 2.5,0.5 3.5,1.5 l 1.5,1.5 c 0.5,0.5 2.5,1.5 3.5,1.5 h 1 c -0.025,-1.416 -0.13,-3.889 -0.5,-5 -0.5,-1.5 -1.5,-3 -2.5,-4 -1,-1 -4,-3 -4,-3 v -0.5 c 0,0 5,1 6,1 h 3 c 1,0 6,-1 6,-1 v 0.5 c 0,0 -3,2 -4,3 -1,1 -2,2.5 -2.5,4 -0.37,1.111 -0.475,3.584 -0.5,5 h 1 c 1,0 3,-1 3.5,-1.5 l 1.5,-1.5 c 1,-1 2,-1.5 3.5,-1.5 1.5,0 2.5,0.5 3.5,1.5 1,1 1.5,2 1.5,3.5 0,1.5 -0.5,2.5 -1.5,3.5 -1,1 -2,1.5 -3.5,1.5 -1.5,0 -2.5,-0.5 -3.5,-1.5 l -1.5,-1.5 c -0.5,-0.5 -2.5,-1.5 -3.5,-1.5 h -1 c 0,0.696 0,0.5 0,1.5 0,1 0.5,3 1,4 0.5,1 1,1.5 2,2.5 0.995,0.995 1.5,2 1.5,3.5 0,1.5 -0.5,2.5 -1.5,3.5 -1,1 -2,1.5 -3.5,1.5"
       id="path40" />
  </g>
</svg>
