<?xml version="1.0" encoding="UTF-8" standalone="no"?>
<!-- Created with Inkscape (http://www.inkscape.org/) -->

<svg
   xmlns:dc="http://purl.org/dc/elements/1.1/"
   xmlns:cc="http://creativecommons.org/ns#"
   xmlns:rdf="http://www.w3.org/1999/02/22-rdf-syntax-ns#"
   xmlns:svg="http://www.w3.org/2000/svg"
   xmlns="http://www.w3.org/2000/svg"
   xmlns:xlink="http://www.w3.org/1999/xlink"
   version="1.1"
   width="360"
   height="540"
   id="svg2">
  <metadata
     id="metadata484">
    <rdf:RDF>
      <cc:Work
         rdf:about="">
        <dc:format>image/svg+xml</dc:format>
        <dc:type
           rdf:resource="http://purl.org/dc/dcmitype/StillImage" />
        <dc:title></dc:title>
      </cc:Work>
    </rdf:RDF>
  </metadata>
  <defs
     id="defs482" />
  <g
     transform="translate(0,-512.36)"
     id="g4">
    <rect
       width="359"
       height="539"
       rx="29.944"
       x="0.5"
       y="512.85999"
       id="rect6"
       style="fill:#ffffff;stroke:#000000;stroke-linecap:round;stroke-linejoin:round" />
    <path
       d="m 20,542.36 v 50 h 5 5 c 5.54,0 10,-4.46 10,-10 v -10 c 0,-3 -1.323,-5.67 -3.406,-7.5 2.083,-1.83 3.406,-4.496 3.406,-7.5 v -5 c 0,-5.54 -4.46,-10 -10,-10 h -5 z m 5,5 h 5 c 2.77,0 5,2.23 5,5 v 5 c 0,2.77 -2.23,5 -5,5 h -5 z m 0,20 h 5 c 2.77,0 5,2.23 5,5 v 10 c 0,2.77 -2.23,5 -5,5 h -5 z"
       id="path8" />
    <path
       d="m 340,1022.36 v -50 h -5 -5 c -5.54,0 -10,4.46 -10,10 v 10 c 0,3 1.323,5.67 3.406,7.5 -2.083,1.83 -3.406,4.496 -3.406,7.5 v 5 c 0,5.54 4.46,10 10,10 h 5 z m -5,-5 h -5 c -2.77,0 -5,-2.23 -5,-5 v -5 c 0,-2.77 2.23,-5 5,-5 h 5 z m 0,-20 h -5 c -2.77,0 -5,-2.23 -5,-5 v -10 c 0,-2.77 2.23,-5 5,-5 h 5 z"
       id="path10" />
    <g
       transform="translate(0,512.36)"
       id="g12"
       style="fill:none;stroke:#000000;stroke-width:2;stroke-linecap:round;stroke-linejoin:round">
      <path
         d="M 50,30 H 330 V 410"
         id="path14" />
      <path
         d="M 310,510 H 30 V 130"
         id="path16" />
      <path
         d="M 30,270 H 330"
         id="path18" />
    </g>
    <g
       transform="matrix(1,0,0,0.99584,0,3.01)"
       id="g20">
      <path
         d="m 139.12,269.35 -1.237,-15.91 -1.237,-1.414 -15.38,8.662 -1.237,8.485 z"
         transform="translate(0,512.36)"
         id="0"
         style="fill:#555555;stroke:#000000" />
      <path
         d="m 274.75,123 8.875,63.25 1.625,-0.625 2.75,-1.125 2.375,-1.125 1,-1.125 L 283.75,121 z"
         transform="translate(0,512.36)"
         id="1"
         style="fill:#ffaa55;stroke:#000000;stroke-linecap:round;stroke-linejoin:round" />
      <g
         id="g24">
        <path
           d="m 120.25,542.61 c -3.328,1.442 -7.267,2.824 -9,6.25 -1.315,2.598 2.164,6.116 -0.38,7.951 -2.955,2.131 -2.91,5.941 -2.601,9.01 0.324,3.221 2.676,6.348 5.814,7.301 1.625,0.493 2.858,1.375 1.146,2.928 -2.463,2.233 0.157,5.987 2.271,8.06 1.56,1.528 3.207,1.218 5.471,1.195 1.923,-0.019 -1.787,3.949 0.707,5.777 2.643,1.937 6.087,3.757 9.286,2.607 2.806,-1.01 4.673,-3.646 5.286,-6.33 0.469,-2.054 0.619,-2.112 0.817,-0.093 0.195,1.991 4.148,2.61 4.622,-0.297 0.543,-3.334 2.02,-6.46 2.311,-9.86 0.199,-2.342 1.499,-4.801 0.902,-7 -0.579,-2.135 -1.498,-3.294 -0.47,-5.634 1.413,-3.217 -3.803,-6.03 -2.435,-9.609 1.276,-3.339 3.945,-5.885 6.752,-8.01 2.035,-1.538 3.987,-3.184 6,-4.75 -12.167,0.167 -24.333,0.333 -36.5,0.5 z"
           id="1J"
           style="fill:#aaaaaa;stroke:#000000;stroke-linecap:round;stroke-linejoin:round" />
        <path
           d="m 151.25,546.11 c -3.579,-1.108 -7.354,-1.541 -11.08,-0.727 -5.83,1.273 -11.663,3.32 -16.302,7.04 -2.541,2.037 -3.362,5.501 -3.581,8.745 -0.345,5.085 -0.628,10.351 0.998,15.195 0.872,2.599 3.091,4.841 5.616,5.91 2.628,1.113 4.726,-1.894 4.983,-4.512 0.225,-2.291 2.534,2.978 4.958,1.803 2.24,-1.086 3.397,-3.657 3.995,-5.861 0.227,-0.837 0.158,-1.727 0.166,-2.593"
           id="1K"
           style="fill:none;stroke:#000000;stroke-linecap:round;stroke-linejoin:round" />
        <path
           d="m 132,545.61 c -2.662,-0.985 -5.97,-0.685 -7.75,1.75 -0.945,1.293 -1.198,2.957 -1.5,4.5"
           id="1L"
           style="fill:none;stroke:#000000;stroke-linecap:round;stroke-linejoin:round" />
        <path
           d="m 120,549.11 c -2.811,1.348 -6.446,2.652 -7.5,5.75 -0.83,2.441 0.651,5.123 1.791,7.353 0.59,1.155 1.713,1.707 2.959,1.897"
           id="1M"
           style="fill:none;stroke:#000000;stroke-linecap:round;stroke-linejoin:round" />
        <path
           d="m 113.31,563.86 c -0.876,3.01 -0.641,6.34 1.898,8.809 1.724,1.676 3.033,3.869 5.541,3.441"
           id="1N"
           style="fill:none;stroke:#000000;stroke-linecap:round;stroke-linejoin:round" />
        <path
           d="m 124.75,586.61 c 2.348,0.967 5.089,1.035 7.178,-0.893 1.757,-1.62 0.591,-6.33 3.943,-4.222 2.841,1.787 5.743,-0.968 6.558,-3.548 0.389,-1.229 0.694,-2.538 0.571,-3.837"
           id="1O"
           style="fill:none;stroke:#000000;stroke-linecap:round;stroke-linejoin:round" />
        <path
           d="m 126.75,590.11 c 1.852,1.605 4.421,1.808 6.48,0.035 1.936,-1.667 1.148,-4.983 3.058,-5.689 2.091,-0.772 4.967,0.012 6.071,-2.262 0.608,-1.252 1.186,-2.518 1.64,-3.834"
           id="1P"
           style="fill:none;stroke:#000000;stroke-linecap:round;stroke-linejoin:round" />
        <path
           d="m 141.25,547.86 c -0.872,1.912 -1.852,4.238 -0.396,6.226 0.804,1.098 1.052,2.651 2.396,3.274"
           id="1Q"
           style="fill:none;stroke:#000000;stroke-linecap:round;stroke-linejoin:round" />
        <path
           d="m 137.25,551.11 c -1.191,2.313 -2.354,5.67 -0.366,7.737 1.326,1.379 3.698,2.204 5.616,1.513"
           id="1R"
           style="fill:none;stroke:#000000;stroke-linecap:round;stroke-linejoin:round" />
        <path
           d="m 133,552.61 c -0.808,2.865 -0.748,6.222 1.406,8.513 1.288,1.37 2.862,3.034 4.844,2.987 0.902,-0.021 4.27,-2.577 2.984,-0.752 -1.338,1.898 -4.104,3.276 -2.538,5.646 1.309,1.981 3.886,3.492 6.304,2.606"
           id="1S"
           style="fill:none;stroke:#000000;stroke-linecap:round;stroke-linejoin:round" />
        <path
           d="m 127.75,555.86 c -1.512,2.636 -0.391,5.319 2,7.25 1.874,1.514 3.836,3.123 6.293,2.685 0.401,-0.071 0.806,-0.112 1.207,-0.185"
           id="1T"
           style="fill:none;stroke:#000000;stroke-linecap:round;stroke-linejoin:round" />
        <path
           d="m 126.25,563.86 c -0.164,2.96 2.157,4.633 4.797,5.486 2.16,0.698 4.687,0.736 6.453,-0.736"
           id="1U"
           style="fill:none;stroke:#000000;stroke-linecap:round;stroke-linejoin:round" />
        <path
           d="m 125,569.61 c 0.656,2.738 2.532,4.944 5.25,6 3.216,1.25 7.137,-0.524 8.5,-3.25 l 0.25,-0.5"
           id="1V"
           style="fill:none;stroke:#000000;stroke-linecap:round;stroke-linejoin:round" />
        <path
           d="m 117.75,577.11 c -1.052,2.959 2.183,5.75 5,5.25 0.631,-0.112 1.195,-0.443 1.75,-0.75"
           id="1W"
           style="fill:none;stroke:#000000;stroke-linecap:round;stroke-linejoin:round" />
        <path
           d="m 150,547.11 c -3.257,-0.386 -6.513,-0.189 -9.75,0.5 -5.608,1.194 -11.358,3.034 -15.545,7.06 -2.776,2.669 -2.629,6.805 -3.329,10.337 -0.696,3.513 1.267,6.665 1.721,10.05 0.336,2.503 2.174,4.996 4.652,5.309 1.629,0.206 3.089,-1.241 4.5,-2"
           id="1X"
           style="fill:none;stroke:#000000;stroke-linecap:round;stroke-linejoin:round" />
      </g>
      <path
         d="m 137.62,665.62 c 1.054,3.82 1.915,5.274 3.447,8.927 10.65,1.032 21.578,2.828 32.26,3.403 10.707,0.577 21.49,0.518 32.17,-0.428 5.558,-0.492 10.985,-1.912 16.389,-3.335 1.619,-0.426 3.19,-0.948 4.748,-1.541 0,-2.593 0,-5.185 0,-7.778 -1.718,-1.441 -3.726,-2.728 -4.486,-4.988 -0.534,-1.588 -0.772,-3.239 -2.229,-4.379 -1.29,-1.01 -3.03,-1.075 -4.393,-2.02 -1.142,-0.79 -3.384,0.094 -4.01,-1.01 -1.544,-2.736 -3.43,-5.302 -4.178,-8.326 -0.312,-1.261 -0.588,-2.922 0.127,-4.01 0.88,-1.336 2.782,-2.398 2.872,-3.947 0.222,-3.845 -2.663,-7.414 -2.09,-11.274 0.19,-1.283 1.791,-2.399 0.601,-3.62 -0.548,-0.562 -2.532,-2.49 -2.716,-1.228 -1.438,6.128 -3.616,12.04 -6.04,17.835 -1.349,3.226 -3.318,6.17 -5.147,9.143 -1.253,2.038 -2.896,3.676 -4.641,5.297 -1.849,1.717 -3.893,3.32 -6.275,4.04 -2.225,0.671 -4.736,0.679 -6.995,0.177 -1.985,-0.441 -3.991,-0.903 -5.565,-2.33 -1.799,-1.63 -3.369,-2.907 -4.517,-5.201 -0.745,-1.489 -1.818,-4.176 -2.374,-5.958 -1.965,-1.408 -3.706,-1.656 -5,-3.695 -0.895,-1.411 -3.08,-2.986 -4.187,-4.206 -1.134,0.994 -0.742,3.352 -1.293,4.707 -0.705,1.735 -2.282,0.333 -3.236,1.413 -1.647,1.866 -1.011,4.41 -1.141,6.645 -0.151,2.602 -0.855,5.687 -3.346,7.03 -1.075,0.582 -1.961,2.297 -3.265,1.891 -1.347,-0.419 -1.346,-2.714 -3.03,-1.546 -1.621,1.127 -1.402,3.467 -2.543,5.05 -0.769,1.068 -0.066,0.557 -1.138,1.893 0.185,0.594 0.977,2.304 1.222,3.36 z"
         id="2"
         style="fill:#ffffff;stroke:#000000;stroke-linecap:round;stroke-linejoin:round" />
      <path
         d="m 142.47,166.41 12.28,1.088 14.25,1.25 9.25,0.25 H 187 l 10.5,-0.5 8.75,-0.5 7.25,-1 5.75,-1.75 4.75,-1.5 2,-0.25 -2.024,17.555 -2.475,17.943 -2.033,12.286 -4.066,15.998 -5.127,17.678 -4.154,14.14 -0.265,1.149 -10.783,0.53 -11.579,0.265 h -11.05 l -4.508,-11.05 -4.596,-14.672 -3.801,-13.789 -4.861,-13.877 -3.889,-12.728 -3.094,-11.225 -2.475,-9.458 z"
         transform="translate(0,512.36)"
         id="3"
         style="fill:#ffaa55;stroke:#000000;stroke-linecap:round;stroke-linejoin:round" />
      <path
         d="m 146.25,582.36 c -3.093,0 -2.967,5.484 -4.876,7.905 -1.324,1.679 -2.964,3.055 -3.809,5.099 -0.495,1.198 -0.83,2.285 -0.815,3.589 0.022,1.94 0.61,3.917 1.781,5.407 0.875,1.114 -0.4,2.02 -0.858,2.962 -0.55,1.129 -1.193,2.691 -2.357,3.038 -1.076,0.32 -2.141,-0.122 -2.978,0.912 -0.765,0.946 -1.416,1.75 -1.862,2.911 -0.642,1.669 -0.725,3.45 0.024,4.927 0.493,0.972 5.084,3 6.135,2.759 1.882,-0.432 -1.968,-0.466 -2.526,0.664 -0.489,0.99 -2.18,0.632 -3.041,1.422 -1.059,0.973 -2.313,1.698 -2.81,3.138 -0.544,1.576 -1.322,3.225 -1.258,4.885 0.058,1.526 0.107,3.15 -0.436,5.621 -1.226,-1.103 -0.972,-2.258 -3.79,-2.148 -1.57,0.061 -2.878,2.02 -3.525,3.409 -0.698,1.499 0.462,3.205 1.317,4.598 0.699,1.139 1.657,1.637 -0.287,1.515 -1.194,-0.075 -2.105,0.45 -3.139,1.088 -1.438,0.887 -2.045,2.323 -2.391,3.799 -0.267,1.137 -0.213,2.342 0.7,3.356 1.227,1.363 2.344,2.773 3.965,3.585 0.85,0.426 2.286,-0.837 2.658,0.672 0.358,1.453 0.735,2.856 1.969,3.93 0.886,0.771 1.68,1.293 2.808,1.644 1.648,0.512 3.158,-0.309 4.686,-0.726 1.49,-0.407 2.807,0.87 4.32,0.54 0.983,-0.214 1.057,-1.855 1.556,-2.71 0.922,-1.581 1.441,-3.434 2.48,-4.931 0.981,-1.415 0.787,0.007 1.861,0.924 1.216,1.039 3.593,0.443 4.826,-0.269 2.124,-1.227 1.696,-2.786 2.423,-5.01 0.689,-2.114 0.354,-3.999 0.863,-6.134 0.288,-1.209 0.143,-3.119 1.137,-3.866 0.853,-0.64 2.103,0.306 2.836,-0.938 0.658,-1.117 0.455,-2.198 0.808,-3.178 1.547,-0.6 0.77,-1.618 0.063,-2.623 -1.126,-1.811 -2.151,-3.634 -2.698,-5.733 -1.37,-5.25 -3.758,-10.285 -4.521,-15.647 -0.563,-3.958 -0.271,-7.979 -0.834,-11.949 -0.452,-3.189 -0.098,-6.446 -0.311,-9.667 -0.193,-2.917 -0.075,-5.843 -0.093,-8.765 z"
         id="4"
         style="fill:#aa5555;stroke:#000000;stroke-linecap:round;stroke-linejoin:round" />
      <path
         d="m 147.01,569.05 c -0.361,1.498 -0.345,1.435 -0.462,3.166 -0.354,5.255 -1.126,6.514 -1.503,11.763 -0.274,5.355 -0.255,13.216 0.017,18.563 0.397,4.87 1.786,10.491 2.848,15.271 0.734,3.764 2.173,6.194 3.314,9.849 1.016,2.033 1.496,4.425 2.869,6.219 2.816,2.329 4.093,4.216 6.223,7.107 1.322,1.074 2.56,1.587 4.481,2.095 0.159,1.864 0.939,4.565 1.55,5.591 0.51,1.399 1.784,2.518 2.849,3.537 2.139,1.31 4.186,2.883 6.388,4.02 2.564,0.148 5.172,0.915 7.658,-0.068 3.27,-0.488 5.658,-3.03 7.993,-5.17 2.416,-2.062 4.07,-4.852 5.959,-7.365 3.364,-7.519 8.427,-15.169 10.895,-23.03 0.63,-1.353 1.031,-2.652 -0.531,-3.487 -0.753,-1.039 -2.537,-1.689 -2.02,-3.209 0.835,-1.793 -1.133,-1.872 -1.348,-3.286 -1.207,-1.701 1.67,-1.799 1.334,-3.384 0.022,-2.662 0.801,-5.249 1.338,-7.813 0.249,-1.497 -0.848,-2.518 -1.394,-3.713 -0.196,-1.886 0.212,-3.679 0.884,-5.432 0.593,-1.83 -0.928,-2.073 -2.092,-2.925 -1.583,-0.65 -0.992,-2.136 -1.601,-3.316 -0.793,-1.35 0.137,-3.048 0.08,-4.55 -0.017,-1.234 -0.543,-2.01 -0.963,-3.328 -0.25,-1.263 -0.364,-1.178 -0.664,-3.176 -2.861,-0.9 -6.665,-1.825 -9.125,-2.852 -3.957,-2.297 -8.122,-3.157 -12.383,-3.484 -4.346,-0.756 -9.13,-0.297 -13.525,-0.282 -4.641,0.546 -8.945,1.329 -13.574,2.507 -1.05,0.267 -1.613,0.105 -2.682,0.313 z"
         id="5"
         style="fill:#ffaaaa;stroke:#000000;stroke-linecap:round;stroke-linejoin:round" />
      <path
         d="m 146.26,583.27 c 0.678,-0.917 1.952,-0.77 2.806,-1.431 1.339,-1.035 3.135,-0.847 4.732,-0.903 1.878,-0.065 3.803,0.135 5.547,0.83 1.067,0.425 2.041,1.212 2.648,2.189 0.493,0.794 0.396,1.816 0.521,2.729 0.055,0.405 0.079,0.814 0.143,1.219"
         id="6"
         style="fill:none;stroke:#000000;stroke-linecap:round;stroke-linejoin:round" />
      <path
         d="m 162.66,587.33 c 0.355,3.695 0.275,4.921 0.031,8.104 -0.178,2.317 -0.255,3.039 -0.406,5.338 -0.065,0.989 -0.122,2.948 -0.417,3.879 -0.286,0.903 -0.618,2.916 -0.586,3.858 0.033,0.962 -0.026,2.947 1.021,3.361 1.428,0.564 2.442,-0.3 3.844,0.242 0.646,0.25 1.609,0.995 2.159,0.599 1.042,-0.751 1.531,-0.086 2.462,-0.944 0.528,-0.487 1.367,-1.109 2.058,-0.907 1.01,0.294 2.108,1.124 3.02,0.619 0.602,-0.333 1.052,-1.374 0.258,-1.901 -0.087,-0.057 -0.781,-1.355 -0.85,-1.431"
         id="7"
         style="fill:none;stroke:#000000;stroke-linecap:round;stroke-linejoin:round" />
      <path
         d="m 172.26,585.02 c 0.871,-0.934 1.416,-2.304 2.569,-2.864 1.511,-0.733 3.212,-1.103 4.959,-1.069 2.343,0.045 4.688,-0.243 7.02,0.112 1.205,0.184 2.564,-0.128 3.653,0.349 1.234,0.54 1.772,0.332 3.173,1.157"
         id="8"
         style="fill:none;stroke:#000000;stroke-linecap:round;stroke-linejoin:round" />
      <g
         transform="matrix(1.06615,0,0,0.89639,-10.607,62.55)"
         id="g48">
        <path
           d="m 161.28,623.32 c 0.327,-0.822 1.467,-1.054 2.222,-1.539 0.556,-0.345 0.902,-0.978 1.689,-1.01 0.882,-0.092 1.95,0.015 2.475,0.678 0.532,0.402 1.583,0.343 1.591,-0.288 0.446,-0.305 1.586,-0.267 2.095,-0.243 1.415,0.244 2.07,0.757 3.329,1.338 0.521,0.217 1.315,0.387 1.35,0.96 -0.211,0.643 -1.362,0.455 -1.736,1.025 -0.825,0.802 -1.311,0.933 -2.203,1.694 -0.671,0.705 -1.456,1.469 -2.608,1.592 -1.369,0.179 -2.753,-0.084 -4.08,-0.348 -0.869,-0.197 -1.774,-0.602 -2.059,-1.356 -0.233,-0.649 -0.749,-0.305 -1.189,-0.863 -0.338,-0.476 -0.616,-0.981 -0.88,-1.485 l -0.009,-0.078 0.014,-0.078 z"
           id="1Y"
           style="fill:#ff5555;stroke:#000000;stroke-width:1.02499998" />
        <path
           d="m 161.59,623.93 c 0.943,-0.071 1.896,-0.076 2.822,-0.287 0.766,-0.213 1.039,0.719 1.714,0.833 0.998,0.26 2.069,0.418 3.089,0.203 0.656,-0.207 1.168,-0.7 1.794,-0.977 0.633,-0.432 1.422,-0.522 2.16,-0.358 0.827,0.054 1.594,0.438 2.422,0.46 0.172,-0.011 0.338,-0.07 0.5,-0.125"
           id="1Z"
           style="fill:#ff5555;stroke:#000000;stroke-width:1.02499998" />
      </g>
      <path
         d="m 165.29,131.06 c 0,0 3.055,0.579 4.596,0.53 2.334,-0.073 4.623,-0.698 6.894,-1.237 2.213,-0.526 4.439,-1.075 6.541,-1.945 2.29,-0.947 4.469,-2.176 6.541,-3.536 1.754,-1.151 3.442,-2.43 4.95,-3.889 1.382,-1.338 2.551,-2.885 3.712,-4.419 1.075,-1.42 2.179,-2.841 3.01,-4.419 0.761,-1.454 1.768,-4.596 1.768,-4.596"
         transform="translate(0,512.36)"
         id="9"
         style="fill:none;stroke:#000000;stroke-linecap:round;stroke-linejoin:round" />
      <path
         d="m 148.91,589.85 c 0.479,-0.768 0.682,-1.782 1.399,-2.34 0.879,-0.684 1.911,-1.451 3.03,-1.539 1.864,-0.147 3.701,0.441 5.539,0.794 0.66,0.127 0.829,0.807 1.252,1.198 0.425,0.393 0.036,0.047 0.053,0.07 0.013,0.016 0.038,0.05 0.038,0.05"
         id="A"
         style="fill:none;stroke:#000000;stroke-linecap:round;stroke-linejoin:round" />
      <path
         d="m 175.1,589.29 c 0.367,-0.708 0.47,-1.724 1.062,-2.172 0.995,-0.754 2.14,-1.386 3.319,-1.605 1.078,-0.2 2.216,-0.159 3.282,0.094 1.777,0.42 3.637,0.709 5.282,1.536 0.595,0.299 0.962,0.983 1.442,1.474"
         id="B"
         style="fill:none;stroke:#000000;stroke-linecap:round;stroke-linejoin:round" />
      <g
         transform="matrix(1.06615,0,0,1,-11.807,0)"
         id="g55">
        <path
           d="m 150.47,592.12 c 1.368,-0.571 1.979,-2.078 3.474,-2.349 1.847,-0.335 3.716,-0.235 5.581,-0.384 1,-0.08 1.996,0.566 2.987,0.706 -0.199,0.756 -0.281,1.538 -0.893,2.131 -0.814,0.788 -1.098,1.287 -2.023,1.917 -0.913,0.621 -2.01,1.132 -3.11,1.252 -0.804,0.088 -1.73,0.236 -2.447,-0.094 -0.792,-0.364 -1.679,-0.716 -2.243,-1.347 -0.734,-0.822 -0.628,-0.981 -1.326,-1.831 z"
           id="1a"
           style="fill:#ffffff;stroke:#000000;stroke-width:0.97100002;stroke-linecap:round;stroke-linejoin:round" />
        <path
           d="m 157.5,80 a 2.125,1.875 0 1 1 -4.25,0 2.125,1.875 0 1 1 4.25,0 z"
           transform="matrix(1,0,0,1.46667,1.5,474.9)"
           id="1b"
           style="fill:#aa5500;stroke:#000000;stroke-width:0.801;stroke-linecap:round;stroke-linejoin:round;stroke-dashoffset:1" />
        <path
           d="m 156.625,79.625 a 0.5625,1 0 1 1 -1.125,0 0.5625,1 0 1 1 1.125,0 z"
           transform="translate(1,512.36)"
           id="1c"
           style="stroke:#000000;stroke-width:0.97100002;stroke-linecap:round;stroke-linejoin:round;stroke-dashoffset:1" />
      </g>
      <g
         transform="matrix(0.96664,-0.19269,0.18982,0.98126,-107.5,46.549)"
         id="g60">
        <path
           d="m 176.48,589.21 c 1.152,-0.272 2.274,-0.822 3.448,-0.884 1.711,-0.09 1.425,-0.044 3.125,0.243 1.449,0.244 2.98,0.196 4.357,0.717 0.985,0.372 2,0.801 2.824,1.464 0.522,0.42 0.929,0.977 1.393,1.465 -0.792,0.522 -1.464,1.352 -2.351,1.63 -1.338,0.419 -2.712,0.739 -4.131,0.668 -1.065,-0.053 -2.121,0.005 -3.165,-0.284 -1.558,-0.431 -1.271,-0.445 -2.708,-1.187 -0.731,-0.377 -1.432,-0.978 -1.855,-1.696 -0.392,-0.667 -0.625,-1.424 -0.938,-2.136 z"
           id="1d"
           style="fill:#ffffff;stroke:#000000;stroke-width:1.00999999;stroke-linecap:round;stroke-linejoin:round" />
        <path
           d="m 187.375,79.3125 a 3,2.6875 0 1 1 -6,0 3,2.6875 0 1 1 6,0 z"
           transform="matrix(0.91667,0,0,1.02326,15.11,510.46)"
           id="1e"
           style="fill:#aa5500;stroke:#000000;stroke-width:1.04200006;stroke-linecap:round;stroke-linejoin:round;stroke-dashoffset:1" />
        <path
           d="m 185.25,78.875 a 0.75,1.25 0 1 1 -1.5,0 0.75,1.25 0 1 1 1.5,0 z"
           transform="translate(0,512.36)"
           id="1f"
           style="stroke:#000000;stroke-width:1.00999999;stroke-linecap:round;stroke-linejoin:round;stroke-dashoffset:1" />
      </g>
      <path
         d="m 164.73,613.02 c -1.261,0 -1.476,1.615 -2.607,2.23 -0.909,0.494 -1.609,0.494 -2.652,1.854 -0.819,1.067 -2.329,1.364 -3.257,2.305 -0.481,0.487 -1.93,-0.245 -2.203,0.417 -0.27,0.655 -0.456,1.621 0.306,1.591 0.445,-0.018 1.28,0.457 1.65,0.177 0.37,-0.28 0.394,-0.326 0.959,-0.376 0.895,-0.079 1.743,-0.613 2.64,-0.597 0.507,0.009 0.884,0.63 1.434,0.456 0.637,-0.202 1.406,0.002 1.971,-0.368 1.074,-0.705 1.859,-1.4 3.089,-1.59 1.054,-0.163 1.183,-2.437 2.257,-2.361 0.458,0.033 0.445,0.245 1.131,-0.045 0.474,-0.201 1.506,1.853 1.998,1.787 0.753,-0.101 1.503,0.013 2.235,0.274 0.701,0.249 1.2,0.945 1.877,1.277 0.463,0.227 0.847,0.627 1.407,0.524 0.66,-0.121 1.324,-0.193 1.984,0.118 0.477,0.225 0.972,0.577 1.516,0.28 0.751,-0.41 1.516,-0.517 2.333,-0.513 1.325,0.006 2.629,0.471 3.956,0.387 0.485,-0.031 1.42,-1.076 1.608,-1.551 0.149,-0.377 -0.597,-1.302 -1.059,-0.84 -1.217,1.216 -2.073,0.803 -3.323,0.398 -0.862,-0.279 -2.17,-0.668 -2.998,-1.121 -0.745,-0.408 -0.735,-1.113 -1.441,-1.579 -1.044,-0.69 -2.229,-0.437 -3.331,-1.045 -0.685,-0.379 -1.718,-2.069 -2.448,-2.269 -1.185,-0.324 -1.732,0.134 -2.928,0.004 -0.486,-0.053 -0.905,-0.445 -1.408,-0.161 -0.892,0.504 -1.897,0.884 -2.886,0.848 -0.621,-0.023 -1.187,-0.511 -1.809,-0.511 z"
         id="C"
         style="fill:#aa5555;stroke:#000000" />
      <path
         d="m 200.25,574.86 c -2.779,0 1.155,5.581 0.417,8.216 -0.378,1.351 -0.27,2.491 0.458,3.804 0.915,1.649 2.994,2.139 3.5,3.802 0.652,2.144 -1.478,4.554 -0.89,6.687 0.376,1.365 1.395,2.354 1.265,3.863 -0.208,2.414 -1.969,4.505 -1.5,6.99 0.277,1.467 -1.304,2.063 -1.01,3.402 0.277,1.26 2.01,2.159 1.496,3.261 -0.701,1.505 0.593,2.558 1.504,3.439 1.222,1.413 0.969,1.755 2.01,2.409 1.454,0.827 2.445,1.945 2.031,3.616 -0.311,1.257 -1.257,2.248 -1.031,3.683 0.319,2.026 0.018,4.344 1,6.121 0.769,1.385 0.719,0.798 -0.322,2.096 -1.383,1.725 -1.595,4.086 -2.088,6.206 -0.322,1.384 0.901,3.838 1.633,5.101 0.812,1.402 1.679,2.474 1.897,4.331 0.214,1.827 3.256,0.734 4.75,1.472 1.553,0.767 2.688,1.818 4.375,2.208 1.876,0.434 1.525,2.875 2.142,4.419 0.611,1.529 1.775,2.85 3.108,3.798 1.907,1.357 4.494,1.918 6.92,1.16 2.122,-0.663 4.103,-1.45 5.939,-2.785 0.86,-0.625 2.583,0.441 3.01,1.659 0.491,1.405 2.299,1.787 3.632,2.297 1.34,0.512 3.203,0.236 3.745,-1.101 0.634,-1.562 2.01,-0.226 3.03,-0.234 1.129,-0.009 2.413,-1.107 3.037,-1.999 1.782,-2.548 1.198,-5.752 1.065,-8.66 -0.094,-2.049 -0.727,-4.31 -2.06,-5.907 -1.115,-1.336 -2.156,-3.393 -3.872,-3.639 -1.906,-0.274 -1.522,-1.178 -1.694,-2.624 -0.202,-1.702 -0.382,-3.48 -1.8,-4.775 -1.409,-1.286 -2.862,-2.647 -4.919,-2.462 -1.35,0.121 -0.061,-2.331 -0.405,-3.312 -0.699,-1.993 -1.41,-4.01 -3.086,-5.458 -1.038,-0.894 -2.838,-1.192 -3.459,-2.357 -0.665,-1.247 -0.318,-2.6 0.043,-3.991 0.345,-1.329 1.421,-2.084 1.34,-3.585 -0.147,-2.737 0.117,-5.565 -1.307,-8.05 -0.719,-1.254 -2.344,-1.554 -3.523,-2.305 -2.261,-1.441 -4.603,-2.89 -6.132,-5.04 -1.413,-1.987 -1.085,-4.699 -1.258,-7.105 -0.109,-1.516 -1.791,-2.359 -2.801,-3.426 -2.499,-2.639 -4.199,-5.84 -6.451,-8.658 -1.134,-1.419 -2.342,-3.03 -3.834,-4 -1.796,0.041 -3.475,-0.252 -5.126,-1.031 -1.512,-0.713 -3.163,-1.098 -4.78,-1.536 z"
         id="D"
         style="fill:#aa5555;stroke:#000000" />
      <path
         d="m 187.06,705.11 c 0,0 -1.07,3.465 -2,5 -0.796,1.314 -1.867,2.463 -3,3.5 -1.058,0.968 -2.343,1.653 -3.5,2.5 -1.345,0.984 -2.932,1.72 -4,3 -1.194,1.431 -2.5,3.137 -2.5,5 0,1.491 0.903,2.991 2,4 1.321,1.215 3.205,2.041 5,2 2.01,-0.046 4.05,-1.103 5.5,-2.5 1.073,-1.034 2,-4 2,-4 v 1 c 0,0.5 -0.141,2.052 -0.5,3 -0.557,1.471 -1.436,2.842 -2.5,4 -1.127,1.227 -4,3 -4,3 v 0.5 c 0,0 3.979,-0.833 6,-1 0.997,-0.082 2,-0.082 3,0 2.02,0.167 6,1 6,1 v -0.5 c 0,0 -2.873,-1.773 -4,-3 -1.064,-1.158 -1.943,-2.529 -2.5,-4 -0.359,-0.948 -0.5,-2.5 -0.5,-3 v -1 c 0,0 0.927,2.966 2,4 1.45,1.397 3.487,2.454 5.5,2.5 1.795,0.041 3.679,-0.785 5,-2 1.097,-1.01 2,-2.509 2,-4 0,-1.863 -1.306,-3.569 -2.5,-5 -1.068,-1.28 -2.655,-2.02 -4,-3 -1.157,-0.847 -2.442,-1.532 -3.5,-2.5 -1.133,-1.037 -2.204,-2.186 -3,-3.5 -0.93,-1.535 -2,-5 -2,-5"
         id="E" />
      <path
         d="m 149.55,139.42 c 0,0 1.985,3.74 3.182,5.48 1.116,1.622 2.337,3.186 3.712,4.596 1.08,1.107 2.334,2.031 3.536,3.01 1.273,1.032 3.889,3.01 3.889,3.01 0,0 2.893,-3.246 4.243,-4.95 1.178,-1.488 2.153,-3.131 3.359,-4.596 0.662,-0.805 2.121,-2.298 2.121,-2.298"
         transform="translate(0,512.36)"
         id="F"
         style="fill:none;stroke:#000000;stroke-linecap:round;stroke-linejoin:round" />
      <path
         d="m 186.85,142.78 c 0,0 3.715,3.366 5.657,4.95 1.434,1.17 3.02,2.323 4.331,3.624 0.955,0.945 2.563,2.917 2.563,2.917 0,0 2.622,-1.846 3.889,-2.828 1.389,-1.077 2.838,-2.101 4.066,-3.359 0.733,-0.751 1.31,-1.639 1.945,-2.475 0.663,-0.873 1.373,-1.716 1.945,-2.652 0.412,-0.675 1.061,-2.121 1.061,-2.121"
         transform="translate(0,512.36)"
         id="G"
         style="fill:none;stroke:#000000;stroke-linecap:round;stroke-linejoin:round" />
      <path
         d="m 121.27,658.15 c -4.714,1.532 -9.428,3.064 -14.14,4.596 5.539,14.849 11.08,29.698 16.617,44.548 1.887,0.11 2.881,1.672 3.613,2.738 2.165,-1.161 4.73,-1.043 6.749,0.368 1.557,0.67 2.703,1.671 2.897,3.435 0.69,2.427 -2.243,1.911 -2.248,3.458 -0.587,2.284 1.311,2.325 3.05,2.509 1.593,0.421 3.416,0.709 3.7,2.64 0.747,1.777 -0.021,3.749 -0.437,5.535 1.91,-0.155 3.02,0.965 3.832,2.569 0.57,1.91 0.383,3.939 0.411,5.916 -2.838,0.488 1.884,0.801 1.024,2.823 0.292,1.86 -0.083,3.607 -1.201,5.132 1.671,0.11 3.957,-0.361 3.182,2.063 0.152,2.425 -0.186,5.057 -1.462,7.102 -1.34,0.509 -0.945,3.71 0.301,3.936 1.999,-0.103 1.915,2.263 1.867,3.693 -0.561,1.855 1.415,2.656 2.944,2.409 4.631,0.34 9.451,0.238 13.851,1.834 2.098,0.282 1.449,3.041 -0.484,3.072 -2.528,1.352 -5.471,1.41 -8.179,2.231 0.257,1.269 -1.165,4.314 1.163,3.393 4.767,-0.603 9.555,-0.988 14.363,-0.82 -2.57,-5.807 -5.04,-11.652 -6.889,-17.734 -3.217,-9.256 -5.01,-18.953 -8.539,-28.11 -2.523,-7.04 -4.889,-14.14 -6.759,-21.387 -1.82,-7.101 -4.38,-13.982 -5.974,-21.14 -2.513,-7.583 -5.359,-15.05 -8.05,-22.569 -2.664,0.525 -5.425,-0.934 -7.986,0.391 -1.537,1.048 -3.02,-0.235 -4.09,-1.33 -1.247,-0.931 -1.668,-2.664 -3.127,-3.304 z"
         id="H"
         style="fill:#5555aa;stroke:#000000;stroke-linecap:round;stroke-linejoin:round" />
      <path
         d="m 226.27,152.68 0.177,7.425 -1.061,10.96 -1.591,11.667 -1.768,12.374 -2.121,14.319 -4.066,16.09 -3.889,13.965 -3.359,12.374 -2.798,7.998 5.096,0.134 7.248,0.354 5.834,0.53 3.712,-13.258 4.95,-17.501 3.536,-13.965 3.182,-15.203 2.475,-12.02 2.121,-14.496 1.414,-10.43 0.707,-9.899 -2.121,-0.53 -1.768,-0.707 -1.061,-1.414 -0.884,-1.237 -1.591,-1.061 -2.121,1.414 -2.652,1.591 -2.121,0.707 -2.121,0.177 z"
         transform="translate(0,512.36)"
         id="I"
         style="fill:#5555aa;stroke:#000000;stroke-linecap:round;stroke-linejoin:round" />
      <path
         d="m 270.25,598.24 c 0.654,3.26 1.344,9.217 2.02,14.996 0.335,2.861 1.07,8 1.229,10.879 -1.193,0.129 -2.526,-0.165 -3.602,0.32 -1.036,0.467 -2.127,1.102 -2.771,2.02 -0.813,1.161 -1.445,2.423 -1.721,3.856 -0.225,1.167 -0.45,2.394 -0.196,3.537 0.394,1.778 2,2.917 2.959,4.409 0.808,0.554 0.104,1.298 -0.116,1.98 -0.561,0.435 -1.43,0.685 -2.178,0.753 -1.222,0.112 -2.507,0.223 -3.642,-0.432 -1.492,-0.86 -3.087,-1.483 -4.434,-2.604 -1.281,-1.067 -2.341,-2.343 -3.302,-3.677 -0.62,-0.861 -1.07,-1.786 -1.201,-2.884 -0.263,-2.206 -0.322,-3.317 -0.257,-5.521 -1.578,-0.555 -2.439,-0.772 -3.02,-0.893 -1.849,-0.384 -2.197,-1.618 -3.705,-2.778 -1.721,-1.324 -3.317,-2.799 -5.064,-4.087 1.522,-1.846 2.323,-3.16 3.542,-5.239 0.556,-0.948 1.753,-2.662 2.696,-3.186 1.276,-0.71 2.23,-1.808 3.694,-2.052 -0.166,-0.53 -1,-1.119 -1.213,-1.768 -0.543,-1.693 -0.861,-3.44 -0.908,-5.226 -0.026,-0.991 -0.284,-2.077 0.04,-3 0.552,-1.579 1.491,-2.955 2.403,-4.367 0.501,-0.775 1.158,-1.198 1.948,-1.573 1.527,-0.724 3.065,-1.429 4.671,-1.96 -0.182,1.321 -0.821,2.617 -0.388,3.964 0.443,1.378 0.334,2.988 1.033,4.236 0.61,1.089 1.341,2.152 2.511,2.736 0.811,0.405 1.439,1.203 2.461,1.025 1.023,-0.178 2.063,-0.018 3.02,-0.567 0.881,-0.508 1.828,-0.831 2.438,-1.7 0.352,-0.399 0.704,-0.797 1.055,-1.196 z"
         id="J"
         style="fill:#aaaaff;stroke:#000000;stroke-linecap:round;stroke-linejoin:round" />
      <path
         d="m 268,600.24 c 0.042,-7.333 0.083,-14.667 0.125,-22 -0.585,-2.034 -1.861,0.363 -2.844,0.881 -1.27,0.947 -2.396,2.289 -3.755,2.994 -1.915,0.519 -2.152,-0.588 -1.831,-2.236 0.223,-7.496 0.354,-14.997 1.175,-22.458 0.365,-4.865 0.983,-9.706 1.505,-14.556 2.292,0 4.583,0 6.875,0 2.027,7.573 3.82,15.28 7.253,22.37 1.642,4.263 3.171,9.264 4.117,12.942 -0.55,1.18 -1.553,2.306 -2.864,2.813 -1.381,-0.05 -1.972,-1.865 -3.01,-2.672 -0.709,-0.845 -2.064,-2.824 -2.66,-1.12 2.461,6.343 5.078,12.647 7.442,19.01 1.409,12.902 2.621,25.827 4.442,38.679 0.452,4.459 1.523,9.133 0.382,13.512 -0.885,1.104 -1.832,2.098 -3.349,2.08 -1.238,0.19 -2.146,-1.699 -2.395,-2.829 -0.69,-3.255 -1.712,-6.409 -2.9,-9.509 -2.431,-10.487 -3.261,-21.242 -4.745,-31.884 -0.32,-2.507 -0.639,-5.01 -0.959,-7.522 -0.667,0.5 -1.333,1 -2,1.5 z"
         id="K"
         style="fill:#aaaaff;stroke:#000000;stroke-linecap:round;stroke-linejoin:round" />
      <path
         d="m 264.87,543.36 c 0.75,11.25 1.5,22.5 2.25,33.75"
         id="L"
         style="fill:#aaaaff;stroke:#000000;stroke-linecap:round;stroke-linejoin:round" />
      <path
         d="m 266.25,543.24 c 2.208,11.04 4.417,22.08 6.625,33.12"
         id="M"
         style="fill:#aaaaff;stroke:#000000;stroke-linecap:round;stroke-linejoin:round" />
      <path
         d="m 281,119.6875 a 1.75,2.3125 0 1 1 -3.5,0 1.75,2.3125 0 1 1 3.5,0 z"
         transform="translate(0,512.36)"
         id="N"
         style="fill:#aaaaff;stroke:#000000;stroke-linecap:round;stroke-linejoin:round;stroke-dashoffset:1" />
      <path
         d="m 282.625,130.1875 a 1.4375,1.8125 0 1 1 -2.875,0 1.4375,1.8125 0 1 1 2.875,0 z"
         transform="translate(0,512.36)"
         id="O"
         style="fill:#aaaaff;stroke:#000000;stroke-linecap:round;stroke-linejoin:round;stroke-dashoffset:1" />
      <path
         d="m 279.5,83.5 3.25,0.5 4,-3.25 1.5,-5 0.5,-3.25 V 68 l -1.5,-3 -0.75,-1.75 -2.25,-2.5 5.25,-8.5 2.75,-6.5 2.25,-6.25 2.25,0.5 5.25,4.5 5.5,5.5 5,7.25 4.5,9 2.5,6.75 2.75,10.5 0.75,9.5 v 5.75 l -0.75,7.75 -1.5,8 -2.25,9 -3.75,9 -3.75,6.5 -5,7.75 -6,-6.5 -5,-5.5 -4.5,-3 3.5,-4.75 v -5 l -2,-6 -3.5,-2.75 -2.75,-1.25 -3.5,-0.25 z"
         transform="translate(0,512.36)"
         id="P"
         style="fill:#aaaaff;stroke:#000000" />
      <path
         d="m 299.7,596.61 c 0,0 -0.328,2.784 -0.819,4.082 -0.421,1.111 -1.074,2.134 -1.79,3.082 -0.668,0.884 -1.55,1.586 -2.311,2.392 -0.885,0.937 -1.988,1.719 -2.621,2.842 -0.707,1.255 -1.461,2.736 -1.2,4.152 0.209,1.133 1.106,2.147 2.082,2.761 1.175,0.739 2.724,1.103 4.082,0.819 1.524,-0.318 2.925,-1.406 3.831,-2.672 0.671,-0.937 0.96,-3.322 0.96,-3.322 l 0.14,0.76 c 0.07,0.38 0.181,1.58 0.041,2.351 -0.217,1.196 -0.694,2.362 -1.34,3.392 -0.685,1.091 -2.621,2.842 -2.621,2.842 l 0.07,0.38 c 0,0 2.909,-1.191 4.422,-1.602 0.746,-0.203 1.512,-0.344 2.281,-0.421 1.56,-0.156 4.702,-0.081 4.702,-0.081 l -0.07,-0.38 c 0,0 -2.433,-0.945 -3.462,-1.72 -0.971,-0.731 -1.832,-1.651 -2.462,-2.691 -0.406,-0.671 -0.731,-1.831 -0.801,-2.211 l -0.14,-0.76 c 0,0 1.12,2.125 2.082,2.761 1.299,0.859 2.995,1.377 4.533,1.129 1.37,-0.22 2.687,-1.113 3.521,-2.222 0.693,-0.921 1.169,-2.188 0.96,-3.322 -0.261,-1.417 -1.494,-2.531 -2.602,-3.451 -0.991,-0.823 -2.302,-1.16 -3.462,-1.72 -0.998,-0.482 -2.072,-0.822 -3.01,-1.41 -1.01,-0.63 -1.982,-1.353 -2.772,-2.24 -0.922,-1.037 -2.222,-3.521 -2.222,-3.521"
         id="Q" />
      <path
         d="m 246.07,666.28 c 1.686,0.244 2.171,-2.19 3.414,-2.033 1.363,0.172 2.707,0.682 3.657,-0.53 0.985,-1.255 2.281,1.104 3.404,1.525 2.471,0.928 4.837,2.368 6.645,4.241 4.218,4.371 7.443,9.76 9.484,15.447 1.123,3.129 0.835,6.621 -0.235,9.935 -1.758,5.446 -3.102,11.08 -3.151,16.857 -0.031,3.634 -1.307,7.663 0.503,10.967 1.748,3.191 2.985,4.659 4.751,7.842 0.759,1.368 1.323,2.958 1.973,4.283 -4.127,4.858 -8.679,11.415 -12.415,16.584 -2.434,3.367 -3.584,7.546 -6.47,10.609 -0.908,0.964 -1.937,1.687 -2.497,3.238 -0.973,-1.045 -0.933,-3.923 -1.254,-5.971 -0.246,-1.569 -0.647,-3.816 -0.849,-5.02 -1.4,0.235 -2.587,3.063 -3.167,4.326 -1.986,4.326 -3.407,7.23 -4.484,11.486 -0.397,1.569 -0.888,2.993 -1.785,4.31 -6.528,-0.555 -13.06,-1.103 -19.622,-1.061 2.724,-9.786 5.899,-19.457 8.282,-29.331 3.275,-13.57 6.688,-27.13 9.04,-40.896 1.323,-7.755 2.793,-15.504 3.622,-23.324 0.476,-4.487 0.771,-8.992 1.156,-13.488 z"
         id="R"
         style="fill:#aa0000;stroke:#000000;stroke-linecap:round;stroke-linejoin:round" />
      <path
         d="m 264.19,720.38 c -2.466,4.418 -5.411,8.693 -6.963,13.514 -1.643,5.103 -1.794,10.532 -3.038,15.746 -0.375,1.569 -0.603,3.155 -1.136,4.681"
         id="S"
         style="fill:none;stroke:#000000;stroke-linecap:round;stroke-linejoin:round" />
      <path
         d="m 257.03,685.46 c -0.2,8.959 0.303,18.01 -0.971,26.876 -0.745,5.184 -1.161,10.354 -1.806,15.531 -0.818,6.564 -2.02,13.1 -1.858,19.739 0.051,2.151 0.19,4.296 0.304,6.443"
         id="T"
         style="fill:none;stroke:#000000;stroke-linecap:round;stroke-linejoin:round" />
      <path
         d="m 106.75,662.61 c -7.842,3.52 -15.796,7.99 -22.323,13.561 -3.427,2.925 -5.362,6.346 -6.907,10.622 -3.649,8.436 -7.832,16.665 -10.596,25.453 -2.372,6.994 -4.308,14.14 -6.136,21.294 -2.809,11.723 -6.198,23.296 -8.965,35.03 -0.559,2.563 -1.304,1.954 -0.959,4.594 2.928,-3.549 7.228,-8.733 10.459,-12 3.865,-3.239 7.532,-6.747 11.979,-9.198 3.051,-1.707 6.238,-3.275 9.478,-4.572 2.866,-0.774 5.683,-1.912 8.708,-1.532 3.535,0.023 6.692,-0.348 9.956,-1.92 1.58,-0.273 3.405,-0.489 5.065,-0.252 2.696,0.967 3.685,0.378 7.097,0.107 1.84,-3.463 3.01,-9.539 5.517,-12.649 1.114,-1.938 2.635,-3.871 4.087,-5.302 0.047,-1.592 -0.194,-2.344 -0.791,-2.57 -0.596,-0.226 -1.547,0.074 -2.918,0.587 -1.624,-0.108 -3.541,-1.241 -3.25,-3.079 -0.119,-1.896 -0.093,-3.756 1.151,-5.308 0.409,-2.044 2.874,-0.637 4.01,-1.934 2.162,-0.628 -0.375,-2.508 0.335,-4.047 0.598,-1.84 0.008,-1.043 2.162,-2.526 -5.346,-13.993 -11.817,-30.362 -17.16,-44.36 z"
         id="U"
         style="fill:#aa0000;stroke:#000000;stroke-linecap:round;stroke-linejoin:round" />
      <path
         d="m 92.28,680.6 c 1.363,5.614 2.746,11.224 3.829,16.901 0.744,3.897 1.747,7.758 2.249,11.692 0.953,7.461 0.963,15.01 1.7,22.496 0.361,3.664 1.704,7.177 1.987,10.86 0.03,0.388 0.089,0.774 0.134,1.16"
         id="V"
         style="fill:none;stroke:#000000;stroke-linecap:round;stroke-linejoin:round" />
      <path
         d="m 87.5,705 c 2.134,4.64 4.219,9.297 6.151,14.03 1.326,3.248 2.387,6.619 4.165,9.658 0.849,1.45 0.844,3.198 1.172,4.815 0.723,3.567 1.297,7.163 1.947,10.744"
         id="W"
         style="fill:none;stroke:#000000;stroke-linecap:round;stroke-linejoin:round" />
      <path
         d="m 142.27,678.69 12.25,1.25 14.25,1.25 9.25,0.25 h 8.75 l 10.5,-0.5 8.75,-0.5 7.25,-1 5.75,-1.75 4.75,-1.5 2.281,-0.688 0.125,-2.719 c -1.489,0.559 -2.985,1.093 -4.531,1.5 -5.404,1.423 -10.848,2.82 -16.406,3.313 -10.677,0.946 -21.449,1.014 -32.16,0.438 -10.679,-0.575 -21.6,-2.374 -32.25,-3.406 0.791,1.906 1.05,1.903 1.438,4.063 z"
         id="X"
         style="fill:#ffff55;stroke:#000000;stroke-linecap:round;stroke-linejoin:round;stroke-dashoffset:1" />
      <path
         d="m 147.25,694.36 c -6.859,-1.21 13.901,0.892 20.872,0.75 1.959,-0.04 3.919,0 5.878,0 0.543,3.933 1.527,7.833 1.25,11.83 0.008,1.311 0.429,3.01 -1.486,2.519 -1.662,-0.106 -3.134,0.459 -4.548,1.293 -1.501,0.885 -3.316,1.313 -4.161,3.02 -0.951,1.928 -2.754,3.445 -2.898,5.718 -0.112,1.764 -0.847,3.439 -0.119,5.231 1,2.469 1.167,5.419 2.962,7.385 1.614,1.769 4.388,1.629 6.721,2.01 1.792,-0.263 1.35,1.597 1.628,2.773 0.557,3.134 0.776,6.29 0.651,9.471 1.927,0.47 4.158,0.251 5.851,1.24 2.259,1.319 4.452,2.784 6,4.998 0.89,1.272 2.221,3.397 2.285,5.03 0.831,0.126 1.508,-2.63 2.02,-3.609 1.094,-2.087 1.781,-2.478 3.515,-4.03 1.327,-1.186 2.8,-2.488 4.497,-2.94 1.491,-0.398 3.053,-0.458 4.579,-0.687 -0.268,-3.179 -0.12,-6.386 -0.4,-9.553 -0.183,-1.305 -0.858,-2.914 1.063,-2.918 1.874,-0.537 3.584,-1.317 5.173,-2.501 1.357,-1.012 2.532,-2.033 3.462,-3.475 1.017,-1.577 1.386,-3.464 1.441,-5.265 0.065,-2.125 1.086,-4.452 -0.079,-6.404 -1.263,-2.115 -1.679,-4.228 -3.745,-5.53 -2.778,-1.75 -7.846,-2.494 -11.164,-1.854 0.251,-4.58 0.284,-9.164 0.25,-13.75 2.779,0.151 5.579,0.911 8.342,0.625 5.71,-0.591 11.279,-2.04 16.908,-3.125 -0.167,1.75 -0.333,3.5 -0.5,5.25 -3.929,0.841 -7.873,1.549 -11.893,1.768 -2.474,0.134 -6.01,-0.383 -8.49,-0.291 -0.118,1.945 -0.236,3.889 -0.354,5.834 1.943,0.02 4.872,0.54 6.761,1.288 2.261,0.895 4.273,2.217 5.79,4.02 1.329,1.576 2.394,3.558 2.72,5.584 0.364,2.267 0.498,4.516 -0.008,6.824 -0.568,2.591 -0.901,5.342 -2.323,7.549 -1.276,1.98 -3.116,3.479 -5.165,4.734 -1.504,0.922 -3.306,0.961 -4.947,1.471 0.466,4.115 0.866,8.236 1.061,12.374 -2.279,0.572 -4.7,0.546 -6.894,1.414 -2.484,0.983 -4.616,3.072 -6.02,5.334 -1.633,2.639 -3.884,8.454 -3.884,8.454 0,0 -1.111,0.29 -2.931,0.089 -0.073,-2.246 -0.803,-5.773 -1.877,-7.489 -1.778,-2.841 -4.63,-4.775 -7.781,-5.922 -2.143,-0.78 -4.448,-0.855 -6.679,-0.643 0.18,-4.226 -0.277,-8.418 -0.654,-12.62 -0.019,-1.351 -2.149,-0.941 -3.183,-1.264 -1.553,-0.486 -3.372,-0.659 -4.608,-1.659 -2.497,-2.02 -3.37,-5.336 -4.283,-8.322 -0.674,-2.206 -0.977,-4.487 -0.467,-6.859 0.698,-3.241 2.579,-5.933 4.384,-8.601 1.095,-1.618 2.901,-2.421 4.595,-3.163 1.665,-0.729 3.465,-1.121 5.276,-1.353 -0.51,-2.689 -0.873,-5.389 -0.707,-8.132 -3.783,0.31 -7.555,0.627 -11.355,0.275 -3.633,-0.336 -7.289,-0.072 -10.919,0.255 -0.473,-1.482 -0.946,-2.964 -1.419,-4.447 z"
         id="Y"
         style="fill:#ffff55;stroke:#000000;stroke-linecap:round;stroke-linejoin:round" />
      <path
         d="m 162.28101,175.04451 a 4.065865,2.740039 0 1 1 -8.13173,0 4.065865,2.740039 0 1 1 8.13173,0 z"
         transform="matrix(0.97826,0,0,1.29032,3.351,462.34)"
         id="Z"
         style="fill:#ffff55;stroke:#000000;stroke-width:0.89200002;stroke-linecap:round;stroke-linejoin:round;stroke-dashoffset:1" />
      <path
         d="m 188.62073,177.51938 a 3.623922,3.270369 0 1 1 -7.24784,0 3.623922,3.270369 0 1 1 7.24784,0 z"
         transform="translate(0,512.36)"
         id="a"
         style="fill:#ffff55;stroke:#000000;stroke-linecap:round;stroke-linejoin:round;stroke-dashoffset:1" />
      <path
         d="m 212.66237,176.19356 a 3.27037,2.828428 0 1 1 -6.54074,0 3.27037,2.828428 0 1 1 6.54074,0 z"
         transform="translate(0,511.66)"
         id="b"
         style="fill:#ffff55;stroke:#000000;stroke-linecap:round;stroke-linejoin:round;stroke-dashoffset:1" />
      <path
         d="m 165.31,629.82 c 0,0 0.576,-0.561 0.933,-0.75 0.428,-0.227 0.914,-0.364 1.399,-0.438 0.592,-0.09 1.211,-0.111 1.799,0 0.449,0.085 0.878,0.272 1.266,0.5 0.2,0.117 0.533,0.438 0.533,0.438"
         id="c"
         style="fill:none;stroke:#000000;stroke-linecap:round;stroke-linejoin:round" />
      <g
         transform="matrix(1.01871,0,0,1,-4.472,2)"
         id="g92">
        <path
           d="m 158.3,540.69 c -3.423,2.164 -6.652,4.417 -9.415,7.348 -1.053,1.117 -3.126,5.367 -2.888,7.03 0.183,1.279 0.29,4.913 0.763,6.05 0.528,1.271 0.297,1.253 1.198,2.643 5.335,-1.736 13.01,-3.992 18.551,-4.927 3.516,-0.593 7.145,-0.404 10.699,-0.194 4.241,0.251 8.409,1.077 12.536,2.161 3.397,0.892 6.764,2.01 9.752,3.813 3.281,1.979 5.975,4.794 8.454,7.755 2.434,2.908 5.05,5.717 7.093,8.907 1.47,2.299 2.708,4.748 4.753,6.597 1.509,1.365 2.502,3.455 4.594,4.01 1.361,0.363 2.564,1.173 4.059,0.654 1.587,-0.551 3.303,-0.575 4.517,-1.903 1.248,-1.365 3.17,-2.14 3.62,-4.12 0.433,-1.903 1.862,-3.651 1.873,-5.578 0.018,-3.073 -0.444,-6.119 -1.397,-9.07 -0.663,-2.053 -1,-4.168 -2.405,-5.926 -3.045,-3.823 -5.347,-8.203 -8.741,-11.759 -2.334,-2.446 -4.6,-4.966 -6.998,-7.344 -1.461,-1.449 -3.196,-2.392 -5.086,-3.375 -2.109,-1.098 -3.855,-2.415 -5.823,-2.6 -17.05,0 -32.665,-0.177 -49.713,-0.177 z"
           id="1g"
           style="fill:#5555aa;stroke:#000000;stroke-width:0.99299997;stroke-linecap:round;stroke-linejoin:round" />
        <path
           d="m 170.25,551.86 c 0.611,2.933 2.972,4.95 5.874,5.524 0.713,0.141 1.412,0.339 2.126,0.476"
           id="1h"
           style="fill:none;stroke:#000000;stroke-width:0.99299997;stroke-linecap:round;stroke-linejoin:round" />
        <path
           d="m 175,549.11 c 0.738,2.448 1.958,5.113 4.704,5.858 3.54,0.961 7.239,2.065 9.796,4.892"
           id="1i"
           style="fill:none;stroke:#000000;stroke-width:0.99299997;stroke-linecap:round;stroke-linejoin:round" />
        <path
           d="m 190.25,551.61 c 1.87,2.608 4.199,4.867 7.185,6.212 4.233,1.906 6.949,6.05 9.114,10.01 1.47,2.685 2.959,5.359 4.451,8.03"
           id="1j"
           style="fill:none;stroke:#000000;stroke-width:0.99299997;stroke-linecap:round;stroke-linejoin:round" />
        <path
           d="m 209.25,562.11 c 2.283,4.01 4.734,7.922 6.995,11.94 1.583,2.813 1.85,6.146 1.255,9.31"
           id="1k"
           style="fill:none;stroke:#000000;stroke-width:0.99299997;stroke-linecap:round;stroke-linejoin:round" />
        <path
           d="m 209.66,553.85 c 2.849,6.05 6.769,11.622 8.895,17.982 1.288,3.853 0.808,9.279 0.868,13.32"
           id="1l"
           style="fill:none;stroke:#000000;stroke-width:0.99299997;stroke-linecap:round;stroke-linejoin:round" />
        <path
           d="m 213.19,551.02 c 0.97,3.898 2.66,7.522 4.633,11.03 3.673,6.531 5.329,14.268 4.604,21.761 -0.043,0.446 -0.386,3.635 -0.467,4.076"
           id="1m"
           style="fill:none;stroke:#000000;stroke-width:0.99299997;stroke-linecap:round;stroke-linejoin:round" />
        <path
           d="m 215.84,548.2 c 0.839,3.4 2.398,6.524 4.085,9.575 2.17,3.925 3.332,8.268 4.43,12.605 0.759,2.996 1.534,6.04 0.834,9.153 -0.451,2.01 -1.094,7.845 -1.246,9.893"
           id="1n"
           style="fill:none;stroke:#000000;stroke-width:0.99299997;stroke-linecap:round;stroke-linejoin:round" />
        <path
           d="m 224.68,560.57 c 0.522,3.377 1.257,6.711 2.504,9.913 1.279,3.283 0.637,6.843 0.688,10.285 0.029,1.981 -1.575,7.664 -2.19,9.538"
           id="1o"
           style="fill:none;stroke:#000000;stroke-width:0.99299997;stroke-linecap:round;stroke-linejoin:round" />
        <path
           d="m 228.4,563.04 c 0.286,3.169 1.04,6.221 2.152,9.249 1.881,5.124 -0.685,13.07 -3.054,18.03"
           id="1p"
           style="fill:none;stroke:#000000;stroke-width:0.99299997;stroke-linecap:round;stroke-linejoin:round" />
        <path
           d="m 232.81,569.94 c 1.636,2.47 2.243,5.422 1.956,8.381 -0.361,3.712 -2.535,10.489 -5.294,12.461"
           id="1q"
           style="fill:none;stroke:#000000;stroke-width:0.99299997;stroke-linecap:round;stroke-linejoin:round" />
      </g>
      <path
         d="m 149.59,564.66 c -0.85,0.184 -1.737,0.333 -2.5,0.75 -0.674,0.368 -1.517,0.768 -1.75,1.5 -0.209,0.655 0.048,3.482 0.5,4 0.59,0.676 0.588,0.899 2.375,1.25 1.227,0.241 2.693,0.156 3.875,-0.25 1.774,-0.609 4.653,-1.728 6.412,-2.01 2.49,-0.403 4.979,-0.941 7.5,-1 2.927,-0.069 5.855,-1.276 8.75,-0.841 3.12,0.469 6.222,0.176 9.25,1.061 2.986,0.873 5.883,2.041 8.75,3.25 1.614,0.681 3.068,1.76 4.75,2.25 1.29,0.376 2.647,0.438 3.938,0.813 1.504,0.436 2.838,1.162 4.313,1.688 0.971,0.346 1.985,0.568 3,0.75 0.743,0.133 2.25,0.25 2.25,0.25 0,0 -2.291,-3.512 -3.75,-5 -2.369,-2.416 -5.074,-4.925 -8,-6.625 -4.362,-2.535 -9.08,-4.259 -14,-5.375 -4.314,-0.979 -8.828,-0.87 -13.25,-0.75 -3.02,0.082 -6.01,0.612 -9,1 -2.256,0.292 -4.498,1.21 -6.75,1.53 -1.832,0.261 -4.853,1.371 -6.662,1.763 z"
         id="d"
         style="fill:#ffaa55;stroke:#000000;stroke-linecap:round;stroke-linejoin:round" />
      <path
         d="m 141.86,590.48 c -0.083,2.62 0.61,5.505 -0.553,7.874 -1.347,2.746 2.03,7.214 1.123,10.346 -0.717,2.478 -6.242,3.171 -5.274,5.543 0.796,1.953 -0.363,5.753 -3.132,4.232 -1.662,-0.913 -0.929,-3.817 0.599,-3.478"
         id="e"
         style="fill:none;stroke:#000000;stroke-linecap:round;stroke-linejoin:round" />
      <path
         d="m 136.83,626.15 c -3.43,1.962 -5.711,6.985 -6.443,10.764 -0.504,2.601 -1.661,5.345 -3.778,7.097 -1.328,1.098 -3.083,1.788 -4.628,0.877"
         id="f"
         style="fill:none;stroke:#000000;stroke-linecap:round;stroke-linejoin:round" />
      <path
         d="m 140.54,654.88 c -2.605,-1.392 -1.316,-4.827 -1.945,-6.629 -0.851,-2.441 -2.136,-5.02 -1.768,-7.601 0.419,-2.935 0.513,-14.03 0.619,-17.06 l 0.181,-2.103 1.5,-2.375 1.25,-1.5 v -2.375 l 1.625,-1.25 2.375,-1.25 1.5,-1.5 0.25,-1.875"
         id="g"
         style="fill:none;stroke:#000000;stroke-linecap:round;stroke-linejoin:round" />
      <path
         d="m 121.98,656.56 c 3.235,-0.058 4.301,-0.697 5.714,-2.733 1.489,-2.145 2.574,-5.376 4.1,-7.356 1.432,-1.859 2.612,-9.33 5.538,-10.04"
         id="h"
         style="fill:none;stroke:#000000;stroke-linecap:round;stroke-linejoin:round" />
      <path
         d="m 201.87,575.74 c 0.628,4 2.543,7.671 3.03,11.693 0.439,3.646 3.766,6.471 3.136,10.176 -0.599,3.528 0.189,7.18 -1.038,10.631 -1.337,3.76 2.251,5.908 3.385,9.01 1.194,3.261 1.176,6.582 4.395,8.876 3.506,2.498 -0.56,6.937 -1.628,9.894 -1.327,3.673 -2.033,8.443 0.21,11.858 2,3.046 6.522,1.058 8.453,5.505 1.317,3.03 2.821,6.647 5.959,7.858 3.386,1.306 7.866,0.644 10.406,-1.876 2.75,-2.729 0.007,-8.912 -4.362,-9.12 -3.513,-0.168 -6.707,7.861 -1.193,6.124"
         id="i"
         style="fill:none;stroke:#000000;stroke-linecap:round;stroke-linejoin:round" />
      <path
         d="m 204.76,576.61 c 2.368,3.634 3.398,9.481 4.358,13.652 0.724,3.146 1.507,6.02 1.339,9.322 -0.202,3.992 0.731,7.677 1.422,11.778 0.533,3.167 0.857,6.568 3.125,8.625 2.651,2.404 6.777,3.118 6.389,7.13 -0.384,3.967 -1.475,7.724 -3.01,11.37 -1.596,3.783 2.544,8.444 5.375,9.875 3.01,1.524 8.674,0.254 9.09,-3.634 0.469,-4.365 -1.094,-8.913 -3.3,-4.571 -1.625,3.199 -6.785,1.638 -5.57,-3.086 0.927,-3.605 3.315,-3.221 3.653,-6.541 0.348,-3.424 -0.843,-4.919 -1.583,-8.126 -0.788,-3.413 -7.278,-3.517 -8.894,-7.147 -1.607,-3.611 -1.842,-7.715 -2.148,-11.645 -0.432,-5.553 -0.617,-11.176 -2.383,-16.567 -0.938,-2.864 -0.256,-5.81 -2.367,-8.308"
         id="j"
         style="fill:none;stroke:#000000;stroke-linecap:round;stroke-linejoin:round" />
      <path
         d="m 217,588.11 c 1.419,3.674 1.753,7.608 2.821,11.403 1.167,4.146 2.898,7.853 2.844,12.197 -0.05,3.989 4.134,5.03 5.777,8.437 1.647,3.413 2.089,6.447 2.455,9.846 0.333,3.099 -2.907,7.946 2.3,8.375 3.03,0.25 5.852,1.597 7.432,4.422 2.063,3.687 1.426,7.829 0.997,11.821 -0.302,2.804 1.316,6.298 -2.5,7.125"
         id="k"
         style="fill:none;stroke:#000000;stroke-linecap:round;stroke-linejoin:round" />
      <path
         d="m 225,602.49 c 0.886,2.306 0.958,4.937 2.205,7.05 1.648,2.79 7.939,3.51 5.67,7.825 -1.905,3.623 1.229,7.07 1.405,10.625 0.171,3.474 1.191,9.189 4.22,8.5 4.272,-0.972 3.375,2.297 4.694,4.154 1.863,2.623 3.898,4.125 3.785,7.658 -0.105,3.283 -2.816,5.444 -2.844,9.188 -0.02,2.739 3.454,4.159 4.364,6.501"
         id="l"
         style="fill:none;stroke:#000000;stroke-linecap:round;stroke-linejoin:round" />
      <path
         d="m 249.75,644.74 c 1.042,3.696 2.494,7.141 2.906,11.126 0.292,2.822 -3.03,5.818 -4.287,1.82 -0.453,-1.436 0.905,-2.595 1.631,-3.821"
         id="m"
         style="fill:none;stroke:#000000;stroke-linecap:round;stroke-linejoin:round" />
      <path
         d="m 122.95,639.32 c -0.069,0.471 -0.27,0.965 0.073,1.418 0.438,0.578 1.136,0.964 1.857,0.745 0.655,-0.198 1.212,-0.679 1.379,-1.363 0.158,-0.645 0.257,-1.291 0.315,-1.949"
         id="n"
         style="fill:none;stroke:#000000;stroke-linecap:round;stroke-linejoin:round" />
      <path
         d="m 121.09,645.07 c 0.645,0.47 1.431,0.82 1.797,1.59 0.523,1.1 0.858,2.429 0.306,3.564 -0.343,0.705 -0.396,1.681 -1.099,2.097 -0.767,0.456 -1.751,-0.1 -2.366,-0.659 -0.449,-0.409 -0.096,-1.046 -0.141,-1.554"
         id="o"
         style="fill:none;stroke:#000000;stroke-linecap:round;stroke-linejoin:round" />
      <path
         d="m 137.9,646.79 c -0.686,1.281 -1.495,2.511 -1.782,3.949 -0.372,1.864 -0.873,3.745 -1.789,5.447 -0.845,1.57 -1.894,3.038 -3.059,4.429 -0.43,0.513 -0.805,1.058 -1.477,1.333 -0.69,0.282 -1.287,0.745 -1.994,0.989 -0.624,0.216 -2.538,0.081 -2.533,-0.678"
         id="p"
         style="fill:none;stroke:#000000;stroke-linecap:round;stroke-linejoin:round" />
      <path
         d="m 147.12,614.49 c -0.595,1.11 -1.13,2.458 -2.443,2.869 -1.214,1.01 -1.755,2.617 -2.184,4.091 -0.631,2.267 -1.537,4.51 -1.405,6.913 -0.013,3.133 0.329,6.26 0.156,9.395 0.035,2.57 -0.403,4.658 1.047,6.899 1.111,1.296 3.322,2.487 4.199,4.03 0.584,1.356 0.806,3.396 -0.598,4.327 -1.634,0.944 -4.266,-0.643 -3.697,-2.125 0.184,-0.539 0.87,-1.638 1.293,-1.552"
         id="q"
         style="fill:none;stroke:#000000;stroke-linecap:round;stroke-linejoin:round" />
      <path
         d="m 148.24,618.36 c -1.016,1.875 -1.952,3.82 -2.314,5.942 -0.211,1.67 -0.97,3.242 -0.879,4.953 -0.052,3.282 0.196,4.262 0.241,7.544 0.108,1.926 0.948,3 2.191,5.78 1.61,1.46 1.517,5.748 1.715,7.765 0.085,0.892 -0.146,1.764 -0.265,2.641"
         id="r"
         style="fill:none;stroke:#000000;stroke-linecap:round;stroke-linejoin:round" />
      <path
         d="m 150.62,114.87 c 0,0 -0.997,1.603 -1.25,2.5 -0.261,0.926 -0.35,1.918 -0.25,2.875 0.104,0.996 0.378,2.01 0.875,2.875 0.336,0.589 0.897,1.019 1.375,1.5 0.561,0.565 1.39,0.915 1.75,1.625 0.323,0.636 0.25,2.125 0.25,2.125"
         transform="translate(0,512.36)"
         id="s"
         style="fill:none;stroke:#000000;stroke-linecap:round;stroke-linejoin:round" />
      <path
         d="m 119.87,781.61 c -2.564,-0.511 -4.936,-1.69 -7.248,-2.937 -1.307,-0.705 -2.604,-1.574 -3.549,-2.691 -1.081,-1.277 -1.755,-2.777 -2.353,-4.376 -0.535,-1.431 -1.231,-3.223 -0.225,-4.246 0.869,-0.883 1.331,-0.706 1.419,-1.77 0.164,-1.98 -0.358,-3.932 -0.264,-5.88 0.081,-1.675 0.643,-3.26 1.51,-4.74 1.6,-2.731 2.386,-5.848 3.745,-8.708 1.386,-2.918 1.932,-6.164 3.236,-9.105 1.221,-2.753 2.649,-5.413 4.476,-7.818 1.024,-1.348 2.01,-2.841 3.378,-3.831 2.455,-1.771 4.856,-3.722 7.759,-4.714 1.153,-0.394 2.204,-1.408 3.391,-1.405 1.433,0.003 2.961,0.291 4.216,0.946 1.051,0.548 1.656,1.543 2.16,2.66 0.76,1.687 0.049,3.585 -1.148,4.806 -0.708,0.722 -1.949,0.556 -2.887,0.932 -2.287,0.917 -4.851,0.684 -7.174,1.404 -1.696,0.525 -2.853,1.904 -4.196,3.02 -0.93,0.775 -0.391,1.511 0.35,0.683 1.023,-1.144 1.998,-2.853 3.48,-3.198 3.716,-0.867 7.435,-1.889 11.202,-2.391 1.194,-0.159 2.525,0.295 3.206,1.532 0.923,1.677 1.522,3.571 1.017,5.324 -0.36,1.249 -1.735,2.129 -3.192,2.214 -2.289,0.133 -4.567,0.462 -6.83,0.828 -2.201,0.356 -3.638,1.809 -5.426,3.15 -0.933,0.7 -0.999,1.588 -0.052,0.808 2.666,-2.196 3.117,-2.548 5.096,-3.157 2.228,-0.686 4.473,-0.966 6.725,-1.513 1.363,-0.331 2.936,0.029 4.101,0.833 0.657,0.454 0.636,1.676 0.828,2.49 0.24,1.012 -0.267,1.803 -0.889,2.592 -0.788,0.998 -2.1,1.405 -3.208,1.954 -1.586,0.787 -3.441,0.928 -4.916,1.971 -0.752,0.532 -1.671,1.237 -2.387,1.713 -0.692,0.46 -1.381,0.698 -1.222,1.234 0.108,0.364 1.681,-0.633 2.369,-1.048 2.748,-1.658 5.1,-4.135 8.195,-5.09 0.863,-0.266 1.073,0.315 2.01,0.785 0.975,0.488 1.464,0.868 1.393,1.982 -0.082,1.28 0.594,2.7 0.19,3.878 -0.57,1.662 -2.297,2.593 -3.936,3.148 -1.236,0.419 -2.268,1.233 -3.227,2.101 -0.854,0.772 -1.392,1.74 -2.43,2.298 -1,0.537 -2.434,0.689 -2.945,1.702 -0.307,0.609 2.219,-1.377 2.25,-0.416 0.038,1.165 -0.061,2.253 -0.596,3.325 -0.506,1.013 -0.85,2.048 -1.781,2.785 -2.095,1.657 -3.164,4.415 -5.263,5.991 -1.894,1.421 -4.438,1.673 -6.815,1.744 -0.99,0.03 -1.688,0.066 -1.919,1.321 -0.216,1.173 0.05,2.309 0,3.5 -0.061,1.449 -0.506,3.599 -1,3.5 z"
         id="t"
         style="fill:#ffaaaa;stroke:#000000;stroke-linecap:round;stroke-linejoin:round" />
      <path
         d="m 118.5,738.61 c 0.167,0.917 0.333,1.833 0.5,2.75 0.851,0.82 2.15,0.909 3.125,0.25"
         id="u"
         style="fill:none;stroke:#000000;stroke-linecap:round;stroke-linejoin:round" />
      <path
         d="m 121.12,743.24 c 0.145,1.66 -0.508,3.812 1.178,4.908 0.884,0.656 2.027,0.641 3.072,0.592"
         id="v"
         style="fill:none;stroke:#000000;stroke-linecap:round;stroke-linejoin:round" />
      <path
         d="m 126.62,754.36 c -0.018,1.215 0.179,2.566 1.544,2.847 0.445,0.376 0.834,-0.024 1.206,-0.222"
         id="w"
         style="fill:none;stroke:#000000;stroke-linecap:round;stroke-linejoin:round" />
      <path
         d="m 45,269.75 c 0,0 2.238,-2.866 3,-4.5 l 1.75,-3.75 3.5,-3.125 4.25,-5.25 4.375,-4.5 3.625,-3.625 5.75,-4.125 5.875,-3.125 6.125,-3 5.625,-1.375 4,0.375 3,-0.875 4.25,-0.625 3.5,-0.875 1.75,-0.125 2,0.125 1.875,0.75 1.75,-0.375 1.625,-0.125 c 0.343,-0.026 1,-0.25 1,-0.25 0,0 -0.523,1.493 -0.75,2.25 l -0.75,2.5 L 111,239 l -0.875,2.125 -1.5,2.875 -1.125,2.875 v 1.625 1.5 l -0.5,0.875 -1.25,0.625 H 104.375 103 l -0.625,1.25 -2,1.75 -1.75,-0.125 H 96.75 95.125 l -2.25,2.375 -1.875,2.5 -1.75,3 -1.875,2.75 -0.5,1.375 -0.25,1.125 0.75,-1.375 0.875,1.625 c 0.322,0.597 0.375,2 0.375,2 l -43.12,-0.125 z"
         transform="translate(0,512.36)"
         id="x"
         style="fill:#5555aa;stroke:#000000;stroke-linecap:round;stroke-linejoin:round" />
      <path
         d="m 59.12,781.74 c 1.915,-3.569 4.269,-6.904 6.875,-10"
         id="y"
         style="fill:none;stroke:#000000;stroke-linecap:round;stroke-linejoin:round" />
      <path
         d="m 62.875,781.61 c 1.742,-2.628 3.608,-5.172 5.875,-7.375"
         id="z"
         style="fill:none;stroke:#000000;stroke-linecap:round;stroke-linejoin:round" />
      <path
         d="m 66.62,781.49 c 1.54,-1.714 3.321,-3.249 4.5,-5.25"
         id="10"
         style="fill:none;stroke:#000000;stroke-linecap:round;stroke-linejoin:round" />
      <path
         d="m 72.875,781.36 c 0.799,-0.989 1.593,-1.958 2.125,-3.125"
         id="11"
         style="fill:none;stroke:#000000;stroke-linecap:round;stroke-linejoin:round" />
      <path
         d="m 77.25,769.24 c 0.933,-2.054 1.52,-4.28 2.893,-6.113 1.528,-2.04 3.104,-4.125 5.09,-5.707 3,-2.391 6.534,-4.045 9.673,-6.247 1.347,-0.945 2.531,-2.12 4.099,-2.704 1.3,-0.485 2.077,-1.756 2.923,-2.799 0.739,-0.91 1.729,-1.262 2.697,-1.804"
         id="12"
         style="fill:none;stroke:#000000;stroke-linecap:round;stroke-linejoin:round" />
      <path
         d="m 101.12,750.36 c 1.105,-0.991 2.04,-2.523 3.636,-2.625 0.868,-0.056 1.761,0.151 2.489,-0.5 0.872,-0.78 1.396,-1.959 2.125,-2.875"
         id="13"
         style="fill:none;stroke:#000000;stroke-linecap:round;stroke-linejoin:round" />
      <path
         d="m 101.37,758.99 c -2.269,2.971 -4.852,5.679 -7.08,8.686 -2.025,2.738 -4.542,5.183 -6.14,8.18 -1.026,1.924 -1.532,4.068 -2.534,6.01"
         id="14"
         style="fill:none;stroke:#000000;stroke-linecap:round;stroke-linejoin:round" />
      <path
         d="m 107.5,758.61 c -1.614,1.731 -3.124,3.547 -4.625,5.375"
         id="15"
         style="fill:none;stroke:#000000;stroke-linecap:round;stroke-linejoin:round" />
      <g
         id="g134">
        <path
           d="m 264.9,269.18 0.354,-2.21 0.972,-1.856 0.972,-2.21 0.619,-2.386 0.177,-2.475 0.707,-2.828 0.884,-2.386 1.503,-3.01 0.796,-3.624 v -2.475 l 0.177,-2.74 0.884,-2.652 1.503,-2.386 1.237,-1.945 0.442,1.945 0.972,1.503 2.386,1.768 2.74,2.563 2.828,1.326 2.563,0.707 2.033,0.354 h 1.414 l 3.977,-1.237 1.679,-1.149 1.945,-1.237 1.591,-0.796 0.088,-1.679 1.591,4.861 2.033,4.243 1.326,3.094 1.503,3.712 1.414,4.773 0.53,4.861 -0.177,4.508 0.177,1.237 z"
           transform="translate(0,512.36)"
           id="1r"
           style="fill:#aa0000;stroke:#000000;stroke-linecap:round;stroke-linejoin:round" />
        <path
           d="m 277.62,744.86 c -0.696,-0.133 -1.593,0.35 -1.875,1 -0.455,1.048 0.331,2.311 0.884,3.311 0.456,0.824 1.216,1.449 1.925,2.069 1.501,1.314 3.165,2.447 4.883,3.461 1.078,0.636 2.178,1.287 3.381,1.633 1.182,0.34 2.439,0.456 3.668,0.405 1.266,-0.052 2.526,-0.335 3.73,-0.728 1.202,-0.393 2.378,-0.916 3.435,-1.611 0.955,-0.629 2.048,-1.257 2.567,-2.276 0.417,-0.818 0.364,-1.829 0.268,-2.743 -0.042,-0.399 0.025,-1.055 -0.365,-1.147 -1.291,-0.304 -1.737,2.027 -2.774,2.855 -1.129,0.901 -2.352,1.74 -3.702,2.252 -1.053,0.4 -2.198,0.618 -3.324,0.601 -1.139,-0.017 -2.302,-0.248 -3.344,-0.708 -1.818,-0.801 -3.345,-2.169 -4.845,-3.472 -1.145,-0.993 -2.128,-2.16 -3.142,-3.287 -0.472,-0.525 -0.675,-1.484 -1.368,-1.617 z"
           id="1s"
           style="fill:#ffffff;stroke:#000000;stroke-linecap:round;stroke-linejoin:round" />
        <path
           d="m 292.48,762.98 c -1.582,0.428 -3.269,0.315 -4.88,0.089 -1.432,-0.201 -2.817,-0.705 -4.148,-1.27 -0.708,-0.301 -1.359,-0.723 -2.02,-1.117"
           id="1t"
           style="fill:none;stroke:#000000;stroke-linecap:round;stroke-linejoin:round" />
        <path
           d="m 292.65,767.22 c -1.811,0.813 -3.799,1.153 -5.762,1.25 -2.097,0.104 -4.239,-0.037 -6.258,-0.72"
           id="1u"
           style="fill:none;stroke:#000000;stroke-linecap:round;stroke-linejoin:round" />
        <path
           d="m 293.54,771.64 c -1.752,1.153 -3.708,2.06 -5.757,2.448 -1.36,0.258 -2.768,-0.064 -4.152,-0.114 -0.91,-0.033 -1.821,-0.109 -2.73,-0.124"
           id="1v"
           style="fill:none;stroke:#000000;stroke-linecap:round;stroke-linejoin:round" />
        <path
           d="m 293.98,776.24 c -1.878,0.332 -3.628,1.191 -5.5,1.536 -2.143,0.394 -4.33,0.633 -6.509,0.598 -0.271,-0.004 -0.539,-0.064 -0.808,-0.101"
           id="1w"
           style="fill:none;stroke:#000000;stroke-linecap:round;stroke-linejoin:round" />
        <path
           d="m 302.11,756.61 c -0.095,1.383 0.192,2.758 0.461,4.11 0.31,1.562 0.905,3.054 1.321,4.592 0.445,1.642 0.972,3.27 1.257,4.947 0.331,1.949 0.374,3.936 0.519,5.907 0.028,0.375 0.044,0.751 0.067,1.127"
           id="1x"
           style="fill:none;stroke:#000000;stroke-linecap:round;stroke-linejoin:round" />
      </g>
      <path
         d="m 291.62,753.61 c -1.833,-0.069 -3.37,0.343 -5,-0.5 -2.552,-1.32 -4.715,-3.56 -6.679,-5.644 -0.603,-0.98 -1.253,-1.921 -2.196,-2.606 0.198,-1.932 0.744,-3.867 0.226,-5.794 -0.267,-2.46 -0.835,-4.971 -2.344,-6.984 -2.119,-3.263 -3.906,-6.742 -5.796,-10.129 -0.478,-1.672 -0.884,-3.353 -0.711,-5.105 0.027,-3.88 0.188,-7.799 0.923,-11.611 0.657,-2.219 1.297,-4.442 1.376,-6.77 0.188,-1.504 1.016,-2.882 1.63,-4.251 0.865,-1.512 2.061,-2.787 3.133,-4.13 0.442,-1.144 1.227,-2.244 0.755,-3.506 -0.068,-1.37 0.7,-2.677 1.558,-3.72 1.123,0.261 2.502,0.04 3.147,1.202 1.112,0.823 1.342,2.191 1.603,3.46 0.082,2.048 -0.031,4.078 -0.53,6.073 -0.323,1.79 -1.131,3.515 -2.47,4.765 -1.044,0.084 -1.348,0.332 -2.293,-0.146 0.713,0.701 1.027,0.884 1.561,1.682 -0.21,1.738 0.927,0.188 1.612,-0.258 1.577,-1.076 3.531,-1.518 5.281,-2.285 1.885,-0.617 3.814,-1.338 5.128,-2.906 1.01,-0.375 2.265,-0.889 2.42,-0.919 2.194,0.199 3.837,-0.112 6.04,-0.042 1.384,1.135 2.375,2.747 2.489,4.559 0.283,1.042 0.045,2.271 -0.989,2.782 -0.95,0.784 -1.717,1.777 -2.875,2.284 1.556,0.413 3.234,0.541 4.745,0.984 0.816,0.628 1.546,1.303 1.438,2.421 0.123,1.725 0.32,3.54 0.103,5.23 -0.812,1.697 -2.744,2.185 -4.285,2.991 -0.821,-0.13 1.568,0.732 1.58,1.439 0.343,0.975 1.01,1.822 1.43,2.722 -0.033,1.666 0.606,3.292 0.136,4.938 -0.868,0.687 -2.278,0.945 -3.433,1.151 -1.8,-0.299 0.058,0.806 0.598,1.405 0.811,0.594 1.5,1.539 1.632,2.496 -0.437,1.16 -0.761,2.736 -2.229,2.93 -1.686,0.768 -2.4,1.096 -1.652,3.107 0.372,2.637 -0.116,5.296 0.128,7.948 -0.189,2.498 0.951,4.814 1,7.293 0.123,0.987 0.334,2.215 -1.052,2.043 -2.171,0.494 -4.248,1.823 -6.556,1.442 -0.195,-0.013 -0.39,-0.026 -0.585,-0.039 z"
         id="16"
         style="fill:#ffaaaa;stroke:#000000;stroke-linecap:round;stroke-linejoin:round" />
      <path
         d="m 279.48,700.75 c -0.236,0.589 -0.795,1.139 -0.707,1.768 0.097,0.693 0.545,1.511 1.153,1.788 0.788,0.359 1.725,0.616 2.567,0.47 2.127,-0.37 4.23,-0.829 6.356,-1.196 0.877,-0.151 1.663,-0.802 2.597,-0.598 1.882,0.41 3.854,0.659 5.765,0.213 0.566,-0.132 1.143,-0.214 1.714,-0.321"
         id="17"
         style="fill:none;stroke:#000000" />
      <path
         d="m 284.02,704.6 c -1.132,0.863 -3.479,1.243 -4.119,2.516 -0.296,0.589 -0.291,2.699 0.291,3.01 2.028,1.072 4.398,1.36 6.646,1.8 1.509,0.295 3.112,0.476 4.579,0.912 1.51,0.449 2.897,1.01 4.426,1.358 1.147,0.265 2.398,-0.025 3.53,0.271 0.396,0.104 0.766,0.287 1.149,0.431"
         id="18"
         style="fill:none;stroke:#000000;stroke-linecap:round;stroke-linejoin:round" />
      <path
         d="m 286,711.93 c -0.707,0.059 -3.182,-0.013 -3.684,0.489 -0.548,0.548 -0.702,2.231 -0.354,2.923 0.702,1.394 2.204,1.578 3.488,2.472 1.027,0.716 1.922,1.626 3.139,2.049 1.756,0.611 3.506,1.254 5.099,2.245 1.636,1.017 3.31,1.976 5.114,2.673 0.284,0.11 0.558,0.244 0.837,0.366"
         id="19"
         style="fill:none;stroke:#000000;stroke-linecap:round;stroke-linejoin:round" />
      <path
         d="m 294.58,722.75 c -1.469,-0.306 -3.123,-0.969 -4.633,-0.915 -0.439,0.016 -3.873,-0.273 -4.706,0.007 -0.823,0.277 -1.696,0.191 -2.155,0.927 -0.438,0.702 -0.747,2.259 -0.239,2.912 1.059,1.362 2.777,2.052 4.387,2.735 2.562,1.087 5.111,2.188 7.721,3.149 0.857,0.316 1.765,0.835 2.651,0.794 0.564,-0.026 0.989,0.089 1.532,0.111 0.341,0.014 0.71,-0.534 1.034,-0.426"
         id="1A"
         style="fill:none;stroke:#000000;stroke-linecap:round;stroke-linejoin:round" />
      <path
         d="m 288.15,216.85 6.894,52.5 9.205,0.177 -6.553,-49.5 -3.359,-1.061 -2.652,-0.884 z"
         transform="translate(0,512.36)"
         id="1B"
         style="fill:#ffaa55;stroke:#000000" />
      <path
         d="m 278.6,720.2 c -0.217,1.621 -0.824,3.244 -0.687,4.865 0.205,2.42 1.022,4.763 1.796,7.06 0.1,0.296 0.321,0.535 0.482,0.803"
         id="1C"
         style="fill:none;stroke:#000000;stroke-linecap:round;stroke-linejoin:round" />
      <path
         d="m 276.48,733.46 c 1.064,1.143 1.986,2.446 3.162,3.464 0.798,0.69 1.876,1.066 2.604,1.817 0.309,0.319 0.516,0.722 0.774,1.084"
         id="1D"
         style="fill:none;stroke:#000000;stroke-linecap:round;stroke-linejoin:round" />
      <g
         id="g151">
        <path
           d="m 123,725.86 c -0.042,-0.583 -0.083,-1.167 -0.125,-1.75 -0.417,-0.375 0.042,-0.375 -0.375,-0.75 -0.728,0.234 -2.327,0.182 -3.058,0.362 -0.533,-0.142 -1.1,-0.216 -1.613,-0.399 -0.433,-0.389 -0.966,-0.722 -1.338,-1.146 -0.102,-0.913 -0.346,-1.82 -0.351,-2.738 0.06,-0.747 0.032,-1.523 0.145,-2.251 0.595,-0.768 1.043,-1.666 1.838,-2.255 0.296,-0.316 0.636,-0.554 1.071,-0.622 0.859,-0.255 1.708,-0.54 2.557,-0.825 0.034,-0.487 0.24,-0.996 -0.052,-1.442 -0.287,-0.568 -0.404,-1.181 -0.457,-1.81 -0.004,-0.396 -0.273,-0.861 0.098,-1.158 0.33,-0.401 0.603,-0.881 0.967,-1.233 0.528,-0.148 1.04,-0.471 1.598,-0.281 0.415,0.084 0.875,0.076 1.262,0.216 0.689,0.682 1.387,1.376 1.977,2.139 0.132,0.28 0.153,0.975 0.496,0.455 0.492,-0.4 0.888,-0.961 1.542,-1.095 0.543,-0.158 1.06,-0.493 1.621,-0.53 0.621,0.058 1.267,0.04 1.872,0.146 0.961,0.617 1.943,1.218 2.861,1.891 0.36,0.529 0.828,1.01 1.12,1.567 0.133,0.626 0.402,1.247 0.448,1.877 -0.105,0.424 -0.11,0.907 -0.275,1.295 -0.669,0.526 -1.356,1.034 -1.861,1.73 -0.194,0.284 -0.168,0.706 -0.198,1.039 0.14,0.319 0.117,0.8 0.57,0.806 0.661,0.105 0.172,0.245 -0.196,0.38 -1.495,0.613 -3.01,1.176 -4.494,1.82 -1.854,1.176 -3.756,2.294 -5.498,3.633 -0.592,0.518 -1.184,1.036 -1.776,1.554 -0.125,-0.208 -0.25,-0.417 -0.375,-0.625 z"
           id="1y"
           style="fill:#ffaa55;stroke:#000000;stroke-linecap:round;stroke-linejoin:round" />
        <path
           d="m 122.75,723.24 c 0.125,-0.75 0.375,-1.875 0.5,-2.625 0.522,0.237 1.027,0.56 1.559,0.746 0.749,-0.104 1.557,0.033 2.237,-0.355 0.413,-0.22 0.925,-0.311 1.276,-0.61 0.556,-0.742 1.172,-1.454 1.691,-2.214 0.199,-0.892 0.442,-1.769 0.824,-2.602 0.224,-0.169 0.692,0.152 1.012,0.175 0.842,0.217 1.655,0.568 2.538,0.565 0.677,0.133 1.327,-0.218 1.987,-0.331"
           id="1z"
           style="fill:none;stroke:#000000;stroke-linecap:round;stroke-linejoin:round" />
        <path
           d="m 121.87,713.36 c 0.658,0.281 2,0.58 2.528,1.052 0.394,0.719 0.805,1.429 1.097,2.198 -0.248,0.6 -0.339,0.147 -0.438,-0.252 -0.192,-0.571 -0.305,-1.161 -0.437,-1.748"
           id="20"
           style="fill:none;stroke:#000000;stroke-linecap:round;stroke-linejoin:round" />
        <path
           d="m 127.75,710.61 c 0.054,0.669 -0.388,1.701 -0.083,2.292 0.236,0.143 0.612,0.881 0.677,0.301 0.013,-0.367 -0.249,-0.728 -0.344,-1.093 -0.292,-0.375 0.042,-1.125 -0.25,-1.5 z"
           id="21"
           style="fill:none;stroke:#000000;stroke-linecap:round;stroke-linejoin:round" />
      </g>
      <g
         id="g157">
        <path
           d="m 88.75,269.56 28.25,-0.313 -1.625,-1.188 -2.313,-1.25 -3.125,-2.188 -1.438,-1.688 -1.375,-2.375 -0.438,-2.375 -0.563,-1.438 0.063,-1.563 0.875,-0.813 0.938,-1 v -1.438 l -0.25,-1.938 -1,1.125 -1.125,0.375 -1.313,0.063 -1.125,0.125 -0.625,1.375 -1.313,0.938 -1.813,0.438 h -2.438 l -1.688,-0.188 -2.375,2.375 -1.625,2.5 -1.813,2.75 -1.75,2.938 -0.438,0.875 0.438,1 0.5,1.063 0.375,0.75 z"
           transform="translate(0,512.36)"
           id="22"
           style="fill:#aa0000;stroke:#000000;stroke-linecap:round;stroke-linejoin:round" />
        <path
           d="m 88.69,268.5 1.313,-2.438 1.688,-2.125 1.688,-1.938 1.625,-2.313 1.625,-2.5 0.938,-1.125 1.125,-1.25"
           transform="translate(0,512.36)"
           id="23"
           style="fill:none;stroke:#000000;stroke-linecap:round;stroke-linejoin:round" />
        <path
           d="m 101.62,264.75 0.875,0.938 1.313,1.125 1.375,0.688 1.625,0.688 1.688,0.563 1.25,0.375"
           transform="translate(0,512.36)"
           id="24"
           style="fill:none;stroke:#000000;stroke-linecap:round;stroke-linejoin:round" />
      </g>
      <g
         id="g162">
        <path
           d="m 137.8,246.73 1.856,-1.503 2.121,-2.033 1.945,-1.149 1.856,-1.061 0.795,-0.177 v 1.326 l -0.177,1.591 0.354,1.061 1.237,0.53 1.061,0.884 0.088,1.945 0.177,1.326 0.53,1.061 1.679,0.707 1.768,0.177 2.033,-0.088 3.01,0.088 2.652,0.53 2.475,0.265 2.033,0.265 1.149,0.972 0.442,1.679 -1.149,0.884 -3.182,1.061 -3.624,0.795 -1.149,0.707 -0.795,0.088 v 1.237 l -0.088,0.884 v 0.707 l -1.679,0.707 -0.796,0.265 v 1.414 l 0.53,1.591 0.884,2.563 0.53,1.237 -4.685,0.354 -6.01,-0.177 -3.801,0.177 -2.74,-0.265 -0.619,-1.679 -0.619,-1.149 -2.21,0.884 -2.121,0.442 -1.945,0.884 -1.679,0.354 -2.033,0.354 -1.591,-0.177 -0.972,-0.354 -0.354,-1.591 0.53,-1.061 -0.354,-1.061 -0.707,-0.796 0.177,-1.503 1.149,-1.061 2.033,-0.707 3.182,-1.237 2.121,-1.237 1.591,-1.149 1.237,-1.503 1.856,-2.298 -1.237,-1.326 0.53,-2.033 0.972,-1.945 z"
           transform="translate(0,512.36)"
           id="25"
           style="fill:#ffaa55;stroke:#000000;stroke-linecap:round;stroke-linejoin:round" />
        <path
           d="m 126.04,265.73 7.07,-1.503 5.48,-2.475 6.099,-1.679 5.922,-1.768 4.508,-0.972 4.773,-0.884 4.154,-0.442 1.503,-0.53"
           transform="translate(0,512.36)"
           id="26"
           style="fill:#ffaa55;fill-opacity:0.331;stroke:#000000;stroke-linecap:round;stroke-linejoin:round" />
        <path
           d="m 138.2,779.03 3.775,-0.922 6.123,-1.664 3.494,-0.673 2.513,-0.556"
           id="27"
           style="fill:#ffaa55;fill-opacity:0.331;stroke:#000000;stroke-linecap:round;stroke-linejoin:round" />
        <path
           d="m 138.15,761.74 c 1.267,-0.837 2.568,-1.627 3.949,-2.262 1.09,-0.53 2.01,-1.334 3.02,-1.98 0.281,-0.174 0.634,-0.098 0.951,-0.15 0.129,-0.009 0.258,-0.018 0.387,-0.028"
           id="28"
           style="fill:none;stroke:#000000;stroke-linecap:round;stroke-linejoin:round" />
        <path
           d="m 138.24,765.54 c 0.914,-0.501 1.774,-1.112 2.724,-1.539 0.595,-0.135 1.189,-0.27 1.784,-0.405 0.612,0.377 1.216,0.821 1.942,0.939 0.512,0.269 1.072,0.159 1.577,-0.055 0.449,-0.175 1.021,-0.189 1.36,-0.56 0.436,-0.461 0.872,-0.923 1.307,-1.384"
           id="29"
           style="fill:none;stroke:#000000;stroke-linecap:round;stroke-linejoin:round" />
      </g>
      <path
         d="m 156.5,269.37 -1.5,-2.75 -0.625,-2.125 -0.125,-1.25 1.25,-0.875 2.375,-0.5 9.125,-0.75 7.5,-0.5 h 9.5 l 15,-0.5 9.75,0.125 h 8 l 8.375,0.25 7.75,0.375 5.375,0.5 5.25,0.75 0.5,2.375 v 2.75 2 z"
         transform="translate(0,512.36)"
         id="1E"
         style="fill:#ffaa55;stroke:#000000" />
      <path
         d="m 155,265.12 5.25,-0.625 8.625,-0.875 10.125,-0.625 14.625,-0.625 H 208 l 9.25,-0.125 8.625,0.25 6.75,0.375 7.5,0.75 3.625,0.375 0.125,1.625 -5.375,-0.125 -9.625,-0.875 -9.75,-0.25 H 209.5 l -9.25,-0.125 -14.75,0.5 -10.125,0.5 -8,0.75 -6,0.75 c -1.867,0.109 -3.816,0.423 -5.625,0.875 z"
         transform="translate(0,512.36)"
         id="1F"
         style="fill:#ffff55;stroke:#000000" />
      <path
         d="m 244,268.75 -3.5,-2.75 -3.5,2.875 -3.375,-3.5 -3.125,3.5 -3.625,-3.625 -4.75,3.375 -4.5,-3.25 -3.375,3.125 -3.625,-3 -3.375,3.5 -4.25,-3.625 -3.25,3.375 -4.75,-3.375 -3.25,3.25 -4.5,-3 -4,3.125 -3.375,-2.75 -5,3 -4.375,-2.25 -3.75,2.375 -4.5,-2 -4.25,2.125"
         transform="translate(0,512.36)"
         id="1G"
         style="fill:none;stroke:#000000;stroke-linecap:round;stroke-linejoin:round" />
      <path
         d="m 276.5,222.37 -2.75,3.375 -4.625,6.125 -5.5,8.25 -2.875,5.375 -3,4.5 -2.25,2.75 -1.625,4.875 -0.875,3.875 -0.625,1.5 -0.875,2.125 -0.125,1.875 v 2.25 H 265 l 0.5,-2.875 1.125,-2 0.875,-2.375 0.5,-3.375 0.875,-4.125 1.625,-3.5 1.125,-3.75 0.25,-3.875 v -2.125 l 1.875,-4.25 2,-3.375 2,-1.5 0.75,-3.75 -0.625,-2.875 z"
         transform="translate(0,512.36)"
         id="1H"
         style="fill:#5555aa;stroke:#000000;stroke-linecap:round;stroke-linejoin:round" />
      <path
         d="m 271.5,241.5 -1.875,2.75 -2.375,3.875 -1.625,3.625 -1.625,4.125 -1.375,4 -0.875,4.125"
         transform="translate(0,512.36)"
         id="1I"
         style="fill:none;stroke:#000000;stroke-linecap:round;stroke-linejoin:round" />
      <g
         id="g174">
        <path
           d="m 300.96,740.26 c 1.892,1.446 2.711,2.988 4.242,5.01 2.11,4.271 4.178,7.876 5.755,13.07 1.242,3.03 1.241,6.395 2.456,9.448 1.326,3.674 0.929,7.612 1.161,11.426 0.306,1.391 0.552,3.14 -1.345,2.562 -1.497,-0.022 -2.995,-0.044 -4.492,-0.066 -0.59,-2.901 0.73,-5.777 0.077,-8.681 -1,-7.867 -5.86,-14.473 -8.01,-21.984 -0.388,-2.415 -1.45,-4.679 -1.437,-7.165 -0.18,-1.321 -1.191,-3.737 -0.707,-5.04 z"
           id="2A"
           style="fill:#5555aa;stroke:#000000;stroke-linecap:round;stroke-linejoin:round" />
        <path
           d="m 299.81,743.98 c 1.25,1.333 2.562,2.657 3.462,4.262 0.644,1.357 0.805,2.887 1.48,4.235 0.608,1.294 1.087,2.667 1.148,4.107 0.161,1.953 0.233,5.149 0.274,7.108"
           id="2B"
           style="fill:none;stroke:#000000;stroke-linecap:round;stroke-linejoin:round" />
      </g>
    </g>
    <g
       transform="matrix(-1,0,0,-0.99584,360,1561.72)"
       id="g178">
      <use
         id="use180"
         x="0"
         y="0"
         width="360"
         height="540"
         xlink:href="#0" />
      <use
         id="use182"
         x="0"
         y="0"
         width="360"
         height="540"
         xlink:href="#1" />
      <g
         id="g184">
        <use
           id="use186"
           x="0"
           y="0"
           width="360"
           height="540"
           xlink:href="#1J" />
        <use
           id="use188"
           x="0"
           y="0"
           width="360"
           height="540"
           xlink:href="#1K" />
        <use
           id="use190"
           x="0"
           y="0"
           width="360"
           height="540"
           xlink:href="#1L" />
        <use
           id="use192"
           x="0"
           y="0"
           width="360"
           height="540"
           xlink:href="#1M" />
        <use
           id="use194"
           x="0"
           y="0"
           width="360"
           height="540"
           xlink:href="#1N" />
        <use
           id="use196"
           x="0"
           y="0"
           width="360"
           height="540"
           xlink:href="#1O" />
        <use
           id="use198"
           x="0"
           y="0"
           width="360"
           height="540"
           xlink:href="#1P" />
        <use
           id="use200"
           x="0"
           y="0"
           width="360"
           height="540"
           xlink:href="#1Q" />
        <use
           id="use202"
           x="0"
           y="0"
           width="360"
           height="540"
           xlink:href="#1R" />
        <use
           id="use204"
           x="0"
           y="0"
           width="360"
           height="540"
           xlink:href="#1S" />
        <use
           id="use206"
           x="0"
           y="0"
           width="360"
           height="540"
           xlink:href="#1T" />
        <use
           id="use208"
           x="0"
           y="0"
           width="360"
           height="540"
           xlink:href="#1U" />
        <use
           id="use210"
           x="0"
           y="0"
           width="360"
           height="540"
           xlink:href="#1V" />
        <use
           id="use212"
           x="0"
           y="0"
           width="360"
           height="540"
           xlink:href="#1W" />
        <use
           id="use214"
           x="0"
           y="0"
           width="360"
           height="540"
           xlink:href="#1X" />
      </g>
      <use
         id="use216"
         x="0"
         y="0"
         width="360"
         height="540"
         xlink:href="#2" />
      <use
         id="use218"
         x="0"
         y="0"
         width="360"
         height="540"
         xlink:href="#3" />
      <use
         id="use220"
         x="0"
         y="0"
         width="360"
         height="540"
         xlink:href="#4" />
      <use
         id="use222"
         x="0"
         y="0"
         width="360"
         height="540"
         xlink:href="#5" />
      <use
         id="use224"
         x="0"
         y="0"
         width="360"
         height="540"
         xlink:href="#6" />
      <use
         id="use226"
         x="0"
         y="0"
         width="360"
         height="540"
         xlink:href="#7" />
      <use
         id="use228"
         x="0"
         y="0"
         width="360"
         height="540"
         xlink:href="#8" />
      <g
         transform="matrix(1.06615,0,0,0.89639,-10.607,62.55)"
         id="g230">
        <use
           id="use232"
           x="0"
           y="0"
           width="360"
           height="540"
           xlink:href="#1Y" />
        <use
           id="use234"
           x="0"
           y="0"
           width="360"
           height="540"
           xlink:href="#1Z" />
      </g>
      <use
         id="use236"
         x="0"
         y="0"
         width="360"
         height="540"
         xlink:href="#9" />
      <use
         id="use238"
         x="0"
         y="0"
         width="360"
         height="540"
         xlink:href="#A" />
      <use
         id="use240"
         x="0"
         y="0"
         width="360"
         height="540"
         xlink:href="#B" />
      <g
         transform="matrix(1.06615,0,0,1,-11.807,0)"
         id="g242">
        <use
           id="use244"
           x="0"
           y="0"
           width="360"
           height="540"
           xlink:href="#1a" />
        <use
           id="use246"
           x="0"
           y="0"
           width="360"
           height="540"
           xlink:href="#1b" />
        <use
           id="use248"
           x="0"
           y="0"
           width="360"
           height="540"
           xlink:href="#1c" />
      </g>
      <g
         transform="matrix(0.96664,-0.19269,0.18982,0.98126,-107.5,46.549)"
         id="g250">
        <use
           id="use252"
           x="0"
           y="0"
           width="360"
           height="540"
           xlink:href="#1d" />
        <use
           id="use254"
           x="0"
           y="0"
           width="360"
           height="540"
           xlink:href="#1e" />
        <use
           id="use256"
           x="0"
           y="0"
           width="360"
           height="540"
           xlink:href="#1f" />
      </g>
      <use
         id="use258"
         x="0"
         y="0"
         width="360"
         height="540"
         xlink:href="#C" />
      <use
         id="use260"
         x="0"
         y="0"
         width="360"
         height="540"
         xlink:href="#D" />
      <use
         id="use262"
         x="0"
         y="0"
         width="360"
         height="540"
         xlink:href="#E" />
      <use
         id="use264"
         x="0"
         y="0"
         width="360"
         height="540"
         xlink:href="#F" />
      <use
         id="use266"
         x="0"
         y="0"
         width="360"
         height="540"
         xlink:href="#G" />
      <use
         id="use268"
         x="0"
         y="0"
         width="360"
         height="540"
         xlink:href="#H" />
      <use
         id="use270"
         x="0"
         y="0"
         width="360"
         height="540"
         xlink:href="#I" />
      <use
         id="use272"
         x="0"
         y="0"
         width="360"
         height="540"
         xlink:href="#J" />
      <use
         id="use274"
         x="0"
         y="0"
         width="360"
         height="540"
         xlink:href="#K" />
      <use
         id="use276"
         x="0"
         y="0"
         width="360"
         height="540"
         xlink:href="#L" />
      <use
         id="use278"
         x="0"
         y="0"
         width="360"
         height="540"
         xlink:href="#M" />
      <use
         id="use280"
         x="0"
         y="0"
         width="360"
         height="540"
         xlink:href="#N" />
      <use
         id="use282"
         x="0"
         y="0"
         width="360"
         height="540"
         xlink:href="#O" />
      <use
         id="use284"
         x="0"
         y="0"
         width="360"
         height="540"
         xlink:href="#P" />
      <use
         id="use286"
         x="0"
         y="0"
         width="360"
         height="540"
         xlink:href="#Q" />
      <use
         id="use288"
         x="0"
         y="0"
         width="360"
         height="540"
         xlink:href="#R" />
      <use
         id="use290"
         x="0"
         y="0"
         width="360"
         height="540"
         xlink:href="#S" />
      <use
         id="use292"
         x="0"
         y="0"
         width="360"
         height="540"
         xlink:href="#T" />
      <use
         id="use294"
         x="0"
         y="0"
         width="360"
         height="540"
         xlink:href="#U" />
      <use
         id="use296"
         x="0"
         y="0"
         width="360"
         height="540"
         xlink:href="#V" />
      <use
         id="use298"
         x="0"
         y="0"
         width="360"
         height="540"
         xlink:href="#W" />
      <use
         id="use300"
         x="0"
         y="0"
         width="360"
         height="540"
         xlink:href="#X" />
      <use
         id="use302"
         x="0"
         y="0"
         width="360"
         height="540"
         xlink:href="#Y" />
      <use
         id="use304"
         x="0"
         y="0"
         width="360"
         height="540"
         xlink:href="#Z" />
      <use
         id="use306"
         x="0"
         y="0"
         width="360"
         height="540"
         xlink:href="#a" />
      <use
         id="use308"
         x="0"
         y="0"
         width="360"
         height="540"
         xlink:href="#b" />
      <use
         id="use310"
         x="0"
         y="0"
         width="360"
         height="540"
         xlink:href="#c" />
      <g
         transform="matrix(1.01871,0,0,1,-4.472,2)"
         id="g312">
        <use
           id="use314"
           x="0"
           y="0"
           width="360"
           height="540"
           xlink:href="#1g" />
        <use
           id="use316"
           x="0"
           y="0"
           width="360"
           height="540"
           xlink:href="#1h" />
        <use
           id="use318"
           x="0"
           y="0"
           width="360"
           height="540"
           xlink:href="#1i" />
        <use
           id="use320"
           x="0"
           y="0"
           width="360"
           height="540"
           xlink:href="#1j" />
        <use
           id="use322"
           x="0"
           y="0"
           width="360"
           height="540"
           xlink:href="#1k" />
        <use
           id="use324"
           x="0"
           y="0"
           width="360"
           height="540"
           xlink:href="#1l" />
        <use
           id="use326"
           x="0"
           y="0"
           width="360"
           height="540"
           xlink:href="#1m" />
        <use
           id="use328"
           x="0"
           y="0"
           width="360"
           height="540"
           xlink:href="#1n" />
        <use
           id="use330"
           x="0"
           y="0"
           width="360"
           height="540"
           xlink:href="#1o" />
        <use
           id="use332"
           x="0"
           y="0"
           width="360"
           height="540"
           xlink:href="#1p" />
        <use
           id="use334"
           x="0"
           y="0"
           width="360"
           height="540"
           xlink:href="#1q" />
      </g>
      <use
         id="use336"
         x="0"
         y="0"
         width="360"
         height="540"
         xlink:href="#d" />
      <use
         id="use338"
         x="0"
         y="0"
         width="360"
         height="540"
         xlink:href="#e" />
      <use
         id="use340"
         x="0"
         y="0"
         width="360"
         height="540"
         xlink:href="#f" />
      <use
         id="use342"
         x="0"
         y="0"
         width="360"
         height="540"
         xlink:href="#g" />
      <use
         id="use344"
         x="0"
         y="0"
         width="360"
         height="540"
         xlink:href="#h" />
      <use
         id="use346"
         x="0"
         y="0"
         width="360"
         height="540"
         xlink:href="#i" />
      <use
         id="use348"
         x="0"
         y="0"
         width="360"
         height="540"
         xlink:href="#j" />
      <use
         id="use350"
         x="0"
         y="0"
         width="360"
         height="540"
         xlink:href="#k" />
      <use
         id="use352"
         x="0"
         y="0"
         width="360"
         height="540"
         xlink:href="#l" />
      <use
         id="use354"
         x="0"
         y="0"
         width="360"
         height="540"
         xlink:href="#m" />
      <use
         id="use356"
         x="0"
         y="0"
         width="360"
         height="540"
         xlink:href="#n" />
      <use
         id="use358"
         x="0"
         y="0"
         width="360"
         height="540"
         xlink:href="#o" />
      <use
         id="use360"
         x="0"
         y="0"
         width="360"
         height="540"
         xlink:href="#p" />
      <use
         id="use362"
         x="0"
         y="0"
         width="360"
         height="540"
         xlink:href="#q" />
      <use
         id="use364"
         x="0"
         y="0"
         width="360"
         height="540"
         xlink:href="#r" />
      <use
         id="use366"
         x="0"
         y="0"
         width="360"
         height="540"
         xlink:href="#s" />
      <use
         id="use368"
         x="0"
         y="0"
         width="360"
         height="540"
         xlink:href="#t" />
      <use
         id="use370"
         x="0"
         y="0"
         width="360"
         height="540"
         xlink:href="#u" />
      <use
         id="use372"
         x="0"
         y="0"
         width="360"
         height="540"
         xlink:href="#v" />
      <use
         id="use374"
         x="0"
         y="0"
         width="360"
         height="540"
         xlink:href="#w" />
      <use
         id="use376"
         x="0"
         y="0"
         width="360"
         height="540"
         xlink:href="#x" />
      <use
         id="use378"
         x="0"
         y="0"
         width="360"
         height="540"
         xlink:href="#y" />
      <use
         id="use380"
         x="0"
         y="0"
         width="360"
         height="540"
         xlink:href="#z" />
      <use
         id="use382"
         x="0"
         y="0"
         width="360"
         height="540"
         xlink:href="#10" />
      <use
         id="use384"
         x="0"
         y="0"
         width="360"
         height="540"
         xlink:href="#11" />
      <use
         id="use386"
         x="0"
         y="0"
         width="360"
         height="540"
         xlink:href="#12" />
      <use
         id="use388"
         x="0"
         y="0"
         width="360"
         height="540"
         xlink:href="#13" />
      <use
         id="use390"
         x="0"
         y="0"
         width="360"
         height="540"
         xlink:href="#14" />
      <use
         id="use392"
         x="0"
         y="0"
         width="360"
         height="540"
         xlink:href="#15" />
      <g
         id="g394">
        <use
           id="use396"
           x="0"
           y="0"
           width="360"
           height="540"
           xlink:href="#1r" />
        <use
           id="use398"
           x="0"
           y="0"
           width="360"
           height="540"
           xlink:href="#1s" />
        <use
           id="use400"
           x="0"
           y="0"
           width="360"
           height="540"
           xlink:href="#1t" />
        <use
           id="use402"
           x="0"
           y="0"
           width="360"
           height="540"
           xlink:href="#1u" />
        <use
           id="use404"
           x="0"
           y="0"
           width="360"
           height="540"
           xlink:href="#1v" />
        <use
           id="use406"
           x="0"
           y="0"
           width="360"
           height="540"
           xlink:href="#1w" />
        <use
           id="use408"
           x="0"
           y="0"
           width="360"
           height="540"
           xlink:href="#1x" />
      </g>
      <use
         id="use410"
         x="0"
         y="0"
         width="360"
         height="540"
         xlink:href="#16" />
      <use
         id="use412"
         x="0"
         y="0"
         width="360"
         height="540"
         xlink:href="#17" />
      <use
         id="use414"
         x="0"
         y="0"
         width="360"
         height="540"
         xlink:href="#18" />
      <use
         id="use416"
         x="0"
         y="0"
         width="360"
         height="540"
         xlink:href="#19" />
      <use
         id="use418"
         x="0"
         y="0"
         width="360"
         height="540"
         xlink:href="#1A" />
      <use
         id="use420"
         x="0"
         y="0"
         width="360"
         height="540"
         xlink:href="#1B" />
      <use
         id="use422"
         x="0"
         y="0"
         width="360"
         height="540"
         xlink:href="#1C" />
      <use
         id="use424"
         x="0"
         y="0"
         width="360"
         height="540"
         xlink:href="#1D" />
      <g
         id="g426">
        <use
           id="use428"
           x="0"
           y="0"
           width="360"
           height="540"
           xlink:href="#1y" />
        <use
           id="use430"
           x="0"
           y="0"
           width="360"
           height="540"
           xlink:href="#1z" />
        <use
           id="use432"
           x="0"
           y="0"
           width="360"
           height="540"
           xlink:href="#20" />
        <use
           id="use434"
           x="0"
           y="0"
           width="360"
           height="540"
           xlink:href="#21" />
      </g>
      <g
         id="g436">
        <use
           id="use438"
           x="0"
           y="0"
           width="360"
           height="540"
           xlink:href="#22" />
        <use
           id="use440"
           x="0"
           y="0"
           width="360"
           height="540"
           xlink:href="#23" />
        <use
           id="use442"
           x="0"
           y="0"
           width="360"
           height="540"
           xlink:href="#24" />
      </g>
      <g
         id="g444">
        <use
           id="use446"
           x="0"
           y="0"
           width="360"
           height="540"
           xlink:href="#25" />
        <use
           id="use448"
           x="0"
           y="0"
           width="360"
           height="540"
           xlink:href="#26" />
        <use
           id="use450"
           x="0"
           y="0"
           width="360"
           height="540"
           xlink:href="#27" />
        <use
           id="use452"
           x="0"
           y="0"
           width="360"
           height="540"
           xlink:href="#28" />
        <use
           id="use454"
           x="0"
           y="0"
           width="360"
           height="540"
           xlink:href="#29" />
      </g>
      <use
         id="use456"
         x="0"
         y="0"
         width="360"
         height="540"
         xlink:href="#1E" />
      <use
         id="use458"
         x="0"
         y="0"
         width="360"
         height="540"
         xlink:href="#1F" />
      <use
         id="use460"
         x="0"
         y="0"
         width="360"
         height="540"
         xlink:href="#1G" />
      <use
         id="use462"
         x="0"
         y="0"
         width="360"
         height="540"
         xlink:href="#1H" />
      <use
         id="use464"
         x="0"
         y="0"
         width="360"
         height="540"
         xlink:href="#1I" />
      <g
         id="g466">
        <use
           id="use468"
           x="0"
           y="0"
           width="360"
           height="540"
           xlink:href="#2A" />
        <use
           id="use470"
           x="0"
           y="0"
           width="360"
           height="540"
           xlink:href="#2B" />
      </g>
    </g>
    <path
       d="m 80,552.36 c -1.333,6.667 -2.855,8.392 -5.333,12 -2.135,3.109 -5.122,5.562 -8,8 -2.917,2.471 -6.248,4.408 -9.333,6.667 -3.586,2.625 -7.819,4.588 -10.667,8 -3.184,3.815 -6.667,8.364 -6.667,13.333 0,3.975 2.408,7.975 5.333,10.667 3.523,3.241 8.548,5.444 13.333,5.333 5.369,-0.124 10.8,-2.94 14.667,-6.667 2.862,-2.758 5.333,-10.667 5.333,-10.667 v 2.667 c 0,1.333 -0.133,7.29 -1.333,10.667 -1.404,3.951 -3.83,7.579 -6.667,10.667 -3.01,3.273 -10.667,8 -10.667,8 v 1.333 c 0,0 10.612,-2.221 16,-2.667 2.658,-0.22 5.342,-0.22 8,0 5.388,0.446 16,2.667 16,2.667 v -1.333 c 0,0 -7.66,-4.727 -10.667,-8 -2.836,-3.088 -5.263,-6.716 -6.667,-10.667 -1.2,-3.376 -1.333,-10.667 -1.333,-10.667 v -2.667 c 0,0 2.471,7.908 5.333,10.667 3.867,3.726 9.298,6.543 14.667,6.667 4.786,0.11 9.811,-2.092 13.333,-5.333 2.925,-2.692 5.333,-6.691 5.333,-10.667 0,-4.969 -3.483,-9.518 -6.667,-13.333 -2.848,-3.412 -7.08,-5.375 -10.667,-8 -3.085,-2.258 -6.416,-4.195 -9.333,-6.667 -2.878,-2.438 -5.865,-4.891 -8,-8 -2.478,-3.608 -4,-5.333 -5.333,-12"
       id="path472" />
    <path
       d="m 280,1012.36 c -1.333,-6.667 -2.855,-8.392 -5.333,-12 -2.135,-3.109 -5.122,-5.562 -8,-8 -2.917,-2.471 -6.248,-4.408 -9.333,-6.667 -3.586,-2.625 -7.819,-4.588 -10.667,-8 -3.184,-3.815 -6.667,-8.364 -6.667,-13.333 0,-3.975 2.408,-7.975 5.333,-10.667 3.523,-3.241 8.548,-5.444 13.333,-5.333 5.369,0.124 10.8,2.94 14.667,6.667 2.862,2.758 5.333,10.667 5.333,10.667 v -2.667 c 0,-1.333 -0.133,-7.29 -1.333,-10.667 -1.404,-3.951 -3.83,-7.579 -6.667,-10.667 -3.01,-3.273 -10.667,-8 -10.667,-8 v -1.333 c 0,0 10.612,2.221 16,2.667 2.658,0.22 5.342,0.22 8,0 5.388,-0.446 16,-2.667 16,-2.667 v 1.333 c 0,0 -7.66,4.727 -10.667,8 -2.836,3.088 -5.263,6.716 -6.667,10.667 -1.2,3.376 -1.333,10.667 -1.333,10.667 v 2.667 c 0,0 2.471,-7.908 5.333,-10.667 3.867,-3.726 9.298,-6.543 14.667,-6.667 4.786,-0.11 9.811,2.092 13.333,5.333 2.925,2.692 5.333,6.691 5.333,10.667 0,4.969 -3.483,9.518 -6.667,13.333 -2.848,3.412 -7.08,5.375 -10.667,8 -3.085,2.258 -6.416,4.195 -9.333,6.667 -2.878,2.438 -5.865,4.891 -8,8 -2.478,3.608 -4,5.333 -5.333,12"
       id="path474" />
    <path
       d="m 30,602.36 c -0.5,2.5 -1.071,3.147 -2,4.5 -0.801,1.166 -1.921,2.086 -3,3 -1.094,0.927 -2.343,1.653 -3.5,2.5 -1.345,0.984 -2.932,1.72 -4,3 -1.194,1.431 -2.5,3.137 -2.5,5 0,1.491 0.903,2.991 2,4 1.321,1.215 3.205,2.041 5,2 2.01,-0.047 4.05,-1.103 5.5,-2.5 1.073,-1.034 2,-4 2,-4 v 1 c 0,0.5 -0.05,2.734 -0.5,4 -0.527,1.482 -1.436,2.842 -2.5,4 -1.127,1.227 -4,3 -4,3 v 0.5 c 0,0 3.979,-0.833 6,-1 0.997,-0.082 2,-0.082 3,0 2.02,0.167 6,1 6,1 v -0.5 c 0,0 -2.873,-1.773 -4,-3 -1.064,-1.158 -1.973,-2.518 -2.5,-4 -0.45,-1.266 -0.5,-4 -0.5,-4 v -1 c 0,0 0.927,2.966 2,4 1.45,1.397 3.487,2.454 5.5,2.5 1.795,0.041 3.679,-0.785 5,-2 1.097,-1.01 2,-2.509 2,-4 0,-1.863 -1.306,-3.569 -2.5,-5 -1.068,-1.28 -2.655,-2.02 -4,-3 -1.157,-0.847 -2.406,-1.573 -3.5,-2.5 -1.079,-0.914 -2.199,-1.834 -3,-3 -0.929,-1.353 -1.5,-2 -2,-4.5"
       id="path476" />
    <path
       d="m 330,962.36 c -0.5,-2.5 -1.071,-3.147 -2,-4.5 -0.801,-1.166 -1.921,-2.086 -3,-3 -1.094,-0.927 -2.343,-1.653 -3.5,-2.5 -1.345,-0.984 -2.932,-1.72 -4,-3 -1.194,-1.431 -2.5,-3.137 -2.5,-5 0,-1.491 0.903,-2.991 2,-4 1.321,-1.215 3.205,-2.041 5,-2 2.01,0.047 4.05,1.103 5.5,2.5 1.073,1.034 2,4 2,4 v -1 c 0,-0.5 -0.05,-2.734 -0.5,-4 -0.527,-1.482 -1.436,-2.842 -2.5,-4 -1.127,-1.227 -4,-3 -4,-3 v -0.5 c 0,0 3.979,0.833 6,1 0.997,0.082 2,0.082 3,0 2.02,-0.167 6,-1 6,-1 v 0.5 c 0,0 -2.873,1.773 -4,3 -1.064,1.158 -1.973,2.518 -2.5,4 -0.45,1.266 -0.5,4 -0.5,4 v 1 c 0,0 0.927,-2.966 2,-4 1.45,-1.397 3.487,-2.454 5.5,-2.5 1.795,-0.041 3.679,0.785 5,2 1.097,1.01 2,2.509 2,4 0,1.863 -1.306,3.569 -2.5,5 -1.068,1.28 -2.655,2.02 -4,3 -1.157,0.847 -2.406,1.573 -3.5,2.5 -1.079,0.914 -2.199,1.834 -3,3 -0.929,1.353 -1.5,2 -2,4.5"
       id="path478" />
  </g>
</svg>
