<svg xmlns="http://www.w3.org/2000/svg" width="360" height="540"><g transform="translate(-30 1227.62)"><rect y="-1227.14" x="30.5" rx="29.944" height="539" width="359" fill="#fff" stroke="#000"/><g fill="#f55"><path d="m50-1197.64v5h7.6v45h5v-45h7.4v-5h-7.4-5z"/><path d="m210-997.64c0 0 8 13.333 17.333 22.667 9.333 9.333 22.667 17.333 22.667 17.333 0 0-13.333 8-22.667 17.333-9.333 9.333-17.333 22.667-17.333 22.667 0 0-8-13.333-17.333-22.667-9.333-9.333-22.667-17.333-22.667-17.333 0 0 13.333-8 22.667-17.333 9.333-9.333 17.333-22.667 17.333-22.667"/><path d="m360-807.64c0 0 3 5 6.5 8.5 3.5 3.5 8.5 6.5 8.5 6.5 0 0-5 3-8.5 6.5-3.5 3.5-6.5 8.5-6.5 8.5 0 0-3-5-6.5-8.5-3.5-3.5-8.5-6.5-8.5-6.5 0 0 5-3 8.5-6.5 3.5-3.5 6.5-8.5 6.5-8.5"/><path d="m60-1137.64c0 0 3 5 6.5 8.5 3.5 3.5 8.5 6.5 8.5 6.5 0 0-5 3-8.5 6.5-3.5 3.5-6.5 8.5-6.5 8.5 0 0-3-5-6.5-8.5-3.5-3.5-8.5-6.5-8.5-6.5 0 0 5-3 8.5-6.5 3.5-3.5 6.5-8.5 6.5-8.5"/><path d="m350-717.64v-5h7.6v-45h5v45h7.4v5h-7.4-5z"/></g></g></svg>