<svg xmlns="http://www.w3.org/2000/svg" width="360" height="540"><g transform="translate(0-512.36)"><rect y="512.86" x=".5" rx="29.944" height="539" width="359" fill="#fff" stroke="#000"/><g fill="#f55"><path d="m100 562.36c0 0 8 13.333 17.333 22.667 9.333 9.333 22.667 17.333 22.667 17.333 0 0-13.333 8-22.667 17.333-9.333 9.333-17.333 22.667-17.333 22.667 0 0-8-13.333-17.333-22.667-9.333-9.333-22.667-17.333-22.667-17.333 0 0 13.333-8 22.667-17.333 9.333-9.333 17.333-22.667 17.333-22.667"/><path d="m260 562.36c0 0 8 13.333 17.333 22.667 9.333 9.333 22.667 17.333 22.667 17.333 0 0-13.333 8-22.667 17.333-9.333 9.333-17.333 22.667-17.333 22.667 0 0-8-13.333-17.333-22.667-9.333-9.333-22.667-17.333-22.667-17.333 0 0 13.333-8 22.667-17.333 9.333-9.333 17.333-22.667 17.333-22.667"/><path d="m180 652.36c0 0 8 13.333 17.333 22.667 9.333 9.333 22.667 17.333 22.667 17.333 0 0-13.333 8-22.667 17.333-9.333 9.333-17.333 22.667-17.333 22.667 0 0-8-13.333-17.333-22.667-9.333-9.333-22.667-17.333-22.667-17.333 0 0 13.333-8 22.667-17.333 9.333-9.333 17.333-22.667 17.333-22.667"/><path d="m100 742.36c0 0 8 13.333 17.333 22.667 9.333 9.333 22.667 17.333 22.667 17.333 0 0-13.333 8-22.667 17.333-9.333 9.333-17.333 22.667-17.333 22.667 0 0-8-13.333-17.333-22.667-9.333-9.333-22.667-17.333-22.667-17.333 0 0 13.333-8 22.667-17.333 9.333-9.333 17.333-22.667 17.333-22.667"/><path d="m260 742.36c0 0 8 13.333 17.333 22.667 9.333 9.333 22.667 17.333 22.667 17.333 0 0-13.333 8-22.667 17.333-9.333 9.333-17.333 22.667-17.333 22.667 0 0-8-13.333-17.333-22.667-9.333-9.333-22.667-17.333-22.667-17.333 0 0 13.333-8 22.667-17.333 9.333-9.333 17.333-22.667 17.333-22.667"/><path d="m100 922.36c0 0 8 13.333 17.333 22.667 9.333 9.333 22.667 17.333 22.667 17.333 0 0-13.333 8-22.667 17.333-9.333 9.333-17.333 22.667-17.333 22.667 0 0-8-13.333-17.333-22.667-9.333-9.333-22.667-17.333-22.667-17.333 0 0 13.333-8 22.667-17.333 9.333-9.333 17.333-22.667 17.333-22.667"/><path d="m260 922.36c0 0 8 13.333 17.333 22.667 9.333 9.333 22.667 17.333 22.667 17.333 0 0-13.333 8-22.667 17.333-9.333 9.333-17.333 22.667-17.333 22.667 0 0-8-13.333-17.333-22.667-9.333-9.333-22.667-17.333-22.667-17.333 0 0 13.333-8 22.667-17.333 9.333-9.333 17.333-22.667 17.333-22.667"/><path d="m330 932.36c0 0 3 5 6.5 8.5 3.5 3.5 8.5 6.5 8.5 6.5 0 0-5 3-8.5 6.5-3.5 3.5-6.5 8.5-6.5 8.5 0 0-3-5-6.5-8.5-3.5-3.5-8.5-6.5-8.5-6.5 0 0 5-3 8.5-6.5 3.5-3.5 6.5-8.5 6.5-8.5"/><path d="m30 602.36c0 0 3 5 6.5 8.5 3.5 3.5 8.5 6.5 8.5 6.5 0 0-5 3-8.5 6.5-3.5 3.5-6.5 8.5-6.5 8.5 0 0-3-5-6.5-8.5-3.5-3.5-8.5-6.5-8.5-6.5 0 0 5-3 8.5-6.5 3.5-3.5 6.5-8.5 6.5-8.5"/><path d="m20 542.36v5 5h5v-5h10l-10 45h5l10-45v-5h-20"/><path d="m340 1022.36v-5-5h-5v5h-10l10-45h-5l-10 45v5h20"/></g></g></svg>