<?xml version="1.0" encoding="UTF-8" standalone="no"?>
<svg xmlns="http://www.w3.org/2000/svg" version="1.1" width="360" height="540">
 <metadata id="metadata40"/>
 <g transform="translate(0,-512.36)" id="g4">
  <rect width="359" height="539" rx="29.944" x="0.5" y="512.86" id="rect6" fill="#ffffff" stroke="#000000"/>
  <g id="g8" fill="#ff5555">
   <path d="m 100,562.36 c 0,0 8,13.333 17.333,22.667 9.333,9.333 22.667,17.333 22.667,17.333 0,0 -13.333,8 -22.667,17.333 C 108,629.026 100,642.36 100,642.36 c 0,0 -8,-13.333 -17.333,-22.667 C 73.334,610.36 60,602.36 60,602.36 c 0,0 13.333,-8 22.667,-17.333 C 92,575.694 100,562.36 100,562.36" id="path10"/>
   <path d="m 260,562.36 c 0,0 8,13.333 17.333,22.667 9.333,9.333 22.667,17.333 22.667,17.333 0,0 -13.333,8 -22.667,17.333 C 268,629.026 260,642.36 260,642.36 c 0,0 -8,-13.333 -17.333,-22.667 C 233.334,610.36 220,602.36 220,602.36 c 0,0 13.333,-8 22.667,-17.333 C 252,575.694 260,562.36 260,562.36" id="path12"/>
   <path d="m 180,742.36 c 0,0 8,13.333 17.333,22.667 9.333,9.333 22.667,17.333 22.667,17.333 0,0 -13.333,8 -22.667,17.333 C 188,809.026 180,822.36 180,822.36 c 0,0 -8,-13.333 -17.333,-22.667 C 153.334,790.36 140,782.36 140,782.36 c 0,0 13.333,-8 22.667,-17.333 C 172,755.694 180,742.36 180,742.36" id="path14"/>
   <path d="m 100,682.36 c 0,0 8,13.333 17.333,22.667 9.333,9.333 22.667,17.333 22.667,17.333 0,0 -13.333,8 -22.667,17.333 C 108,749.026 100,762.36 100,762.36 c 0,0 -8,-13.333 -17.333,-22.667 C 73.334,730.36 60,722.36 60,722.36 c 0,0 13.333,-8 22.667,-17.333 C 92,695.694 100,682.36 100,682.36" id="path16"/>
   <path d="m 260,682.36 c 0,0 8,13.333 17.333,22.667 9.333,9.333 22.667,17.333 22.667,17.333 0,0 -13.333,8 -22.667,17.333 C 268,749.026 260,762.36 260,762.36 c 0,0 -8,-13.333 -17.333,-22.667 C 233.334,730.36 220,722.36 220,722.36 c 0,0 13.333,-8 22.667,-17.333 C 252,695.694 260,682.36 260,682.36" id="path18"/>
   <path d="m 100,802.36 c 0,0 8,13.333 17.333,22.667 9.333,9.333 22.667,17.333 22.667,17.333 0,0 -13.333,8 -22.667,17.333 C 108,869.026 100,882.36 100,882.36 c 0,0 -8,-13.333 -17.333,-22.667 C 73.334,850.36 60,842.36 60,842.36 c 0,0 13.333,-8 22.667,-17.333 C 92,815.694 100,802.36 100,802.36" id="path20"/>
   <path d="m 260,802.36 c 0,0 8,13.333 17.333,22.667 9.333,9.333 22.667,17.333 22.667,17.333 0,0 -13.333,8 -22.667,17.333 C 268,869.026 260,882.36 260,882.36 c 0,0 -8,-13.333 -17.333,-22.667 C 233.334,850.36 220,842.36 220,842.36 c 0,0 13.333,-8 22.667,-17.333 C 252,815.694 260,802.36 260,802.36" id="path22"/>
   <path d="m 100,922.36 c 0,0 8,13.333 17.333,22.667 9.333,9.333 22.667,17.333 22.667,17.333 0,0 -13.333,8 -22.667,17.333 C 108,989.026 100,1002.36 100,1002.36 c 0,0 -8,-13.333 -17.333,-22.667 C 73.334,970.36 60,962.36 60,962.36 c 0,0 13.333,-8 22.667,-17.333 C 92,935.694 100,922.36 100,922.36" id="path24"/>
   <path d="m 260,922.36 c 0,0 8,13.333 17.333,22.667 9.333,9.333 22.667,17.333 22.667,17.333 0,0 -13.333,8 -22.667,17.333 C 268,989.026 260,1002.36 260,1002.36 c 0,0 -8,-13.333 -17.333,-22.667 C 233.334,970.36 220,962.36 220,962.36 c 0,0 13.333,-8 22.667,-17.333 C 252,935.694 260,922.36 260,922.36" id="path26"/>
   <path d="m 330,932.36 c 0,0 3,5 6.5,8.5 3.5,3.5 8.5,6.5 8.5,6.5 0,0 -5,3 -8.5,6.5 -3.5,3.5 -6.5,8.5 -6.5,8.5 0,0 -3,-5 -6.5,-8.5 -3.5,-3.5 -8.5,-6.5 -8.5,-6.5 0,0 5,-3 8.5,-6.5 3.5,-3.5 6.5,-8.5 6.5,-8.5" id="path28"/>
   <path d="m 30,602.36 c 0,0 3,5 6.5,8.5 3.5,3.5 8.5,6.5 8.5,6.5 0,0 -5,3 -8.5,6.5 -3.5,3.5 -6.5,8.5 -6.5,8.5 0,0 -3,-5 -6.5,-8.5 -3.5,-3.5 -8.5,-6.5 -8.5,-6.5 0,0 5,-3 8.5,-6.5 3.5,-3.5 6.5,-8.5 6.5,-8.5" id="path30"/>
   <path d="m 30,592.36 c 5.54,0 10,-4.46 10,-10 v -20 -10 c 0,-5.54 -4.46,-10 -10,-10 -5.54,0 -10,4.46 -10,10 v 10 c 0,5.54 4.46,10 10,10 1.823,0 3.532,-0.499 5,-1.344 v 11.344 c 0,2.77 -2.23,5 -5,5 -2.77,0 -5,-2.23 -5,-5 v -1 h -5 v 1 c 0,5.54 4.46,10 10,10 m 0,-25 c -2.77,0 -5,-2.23 -5,-5 v -10 c 0,-2.77 2.23,-5 5,-5 2.77,0 5,2.23 5,5 v 10 c 0,2.77 -2.23,5 -5,5" id="path32"/>
   <path d="m 330,972.36 c -5.54,0 -10,4.46 -10,10 v 20 10 c 0,5.54 4.46,10 10,10 5.54,0 10,-4.46 10,-10 v -10 c 0,-5.54 -4.46,-10 -10,-10 -1.823,0 -3.532,0.499 -5,1.344 V 982.36 c 0,-2.77 2.23,-5 5,-5 2.77,0 5,2.23 5,5 v 1 h 5 v -1 c 0,-5.54 -4.46,-10 -10,-10 m 0,25 c 2.77,0 5,2.23 5,5 v 10 c 0,2.77 -2.23,5 -5,5 -2.77,0 -5,-2.23 -5,-5 v -10 c 0,-2.77 2.23,-5 5,-5" id="path34"/>
  </g>
 </g>
</svg>
