<?xml version="1.0" encoding="UTF-8"?>
<svg xmlns="http://www.w3.org/2000/svg" xmlns:xlink="http://www.w3.org/1999/xlink" width="371pt" height="540pt" viewBox="0 0 371 540" version="1.1">
<g id="surface1">
<path style="fill-rule:nonzero;fill:rgb(100%,100%,100%);fill-opacity:1;stroke-width:0.5;stroke-linecap:butt;stroke-linejoin:miter;stroke:rgb(0%,0%,0%);stroke-opacity:1;stroke-miterlimit:4;" d="M 166.836617 235.89229 C 166.836617 239.68485 163.750894 242.783692 159.966749 242.783692 L 7.110884 242.783692 C 3.335536 242.783692 0.249813 239.68485 0.249813 235.89229 L 0.249813 6.77519 C 0.249813 2.987912 3.335536 -0.116212 7.110884 -0.116212 L 159.966749 -0.116212 C 163.750894 -0.116212 166.836617 2.987912 166.836617 6.77519 Z M 166.836617 235.89229 " transform="matrix(2.220408,0,0,2.218571,0,0.812511)"/>
<path style=" stroke:none;fill-rule:nonzero;fill:rgb(0%,0%,0%);fill-opacity:1;" d="M 21.785156 58.210938 L 21.785156 54.949219 L 25.117188 54.949219 L 25.117188 22.5625 L 21.367188 27.496094 L 21.367188 23.5 L 25.871094 17.441406 L 29.625 17.441406 L 29.625 54.949219 L 33.027344 54.949219 L 33.027344 58.210938 Z M 21.785156 58.210938 "/>
<path style=" stroke:none;fill-rule:nonzero;fill:rgb(0%,0%,0%);fill-opacity:1;" d="M 43.960938 58.972656 C 41.566406 58.972656 39.734375 57.191406 38.460938 53.625 C 37.191406 50.058594 36.558594 44.925781 36.558594 38.222656 C 36.558594 31.519531 37.191406 26.378906 38.460938 22.804688 C 39.734375 19.230469 41.566406 17.441406 43.960938 17.441406 C 46.339844 17.441406 48.164063 19.230469 49.433594 22.804688 C 50.703125 26.378906 51.339844 31.519531 51.339844 38.222656 C 51.339844 44.925781 50.703125 50.058594 49.433594 53.625 C 48.164063 57.191406 46.339844 58.972656 43.960938 58.972656 Z M 43.960938 55.851563 C 44.917969 55.851563 45.578125 54.878906 45.9375 52.925781 C 46.296875 50.976563 46.480469 46.074219 46.480469 38.21875 C 46.480469 30.421875 46.296875 25.527344 45.9375 23.542969 C 45.578125 21.554688 44.917969 20.5625 43.960938 20.5625 C 42.984375 20.5625 42.316406 21.539063 41.957031 23.488281 C 41.59375 25.4375 41.414063 30.347656 41.414063 38.21875 C 41.414063 46.074219 41.59375 50.976563 41.957031 52.925781 C 42.316406 54.878906 42.984375 55.851563 43.960938 55.851563 Z M 43.960938 55.851563 "/>
<path style=" stroke:none;fill-rule:nonzero;fill:rgb(0%,0%,0%);fill-opacity:1;" d="M 349.214844 481.789063 L 349.214844 485.050781 L 345.886719 485.050781 L 345.886719 517.4375 L 349.632813 512.503906 L 349.632813 516.5 L 345.125 522.558594 L 341.375 522.558594 L 341.375 485.050781 L 337.976563 485.050781 L 337.976563 481.789063 Z M 349.214844 481.789063 "/>
<path style=" stroke:none;fill-rule:nonzero;fill:rgb(0%,0%,0%);fill-opacity:1;" d="M 327.039063 481.027344 C 329.4375 481.027344 331.269531 482.8125 332.535156 486.378906 C 333.808594 489.941406 334.441406 495.074219 334.441406 501.78125 C 334.441406 508.484375 333.808594 513.621094 332.535156 517.195313 C 331.269531 520.773438 329.4375 522.558594 327.039063 522.558594 C 324.660156 522.558594 322.835938 520.773438 321.570313 517.195313 C 320.296875 513.621094 319.660156 508.484375 319.660156 501.78125 C 319.660156 495.074219 320.296875 489.941406 321.570313 486.378906 C 322.835938 482.8125 324.660156 481.027344 327.039063 481.027344 Z M 327.039063 484.148438 C 326.082031 484.148438 325.425781 485.121094 325.058594 487.074219 C 324.699219 489.023438 324.519531 493.925781 324.519531 501.78125 C 324.519531 509.578125 324.699219 514.472656 325.058594 516.460938 C 325.425781 518.445313 326.082031 519.4375 327.039063 519.4375 C 328.011719 519.4375 328.679688 518.460938 329.046875 516.511719 C 329.40625 514.5625 329.582031 509.652344 329.582031 501.78125 C 329.582031 493.925781 329.40625 489.023438 329.046875 487.074219 C 328.679688 485.121094 328.011719 484.148438 327.039063 484.148438 Z M 327.039063 484.148438 "/>
<path style=" stroke:none;fill-rule:nonzero;fill:rgb(0%,0%,0%);fill-opacity:1;" d="M 334.695313 473.457031 C 337.230469 473.457031 339.285156 471.402344 339.285156 468.871094 C 339.285156 467.5625 338.730469 466.386719 337.851563 465.550781 C 337.171875 464.90625 336.203125 463.441406 335.882813 462.265625 C 336.511719 462.644531 337.078125 463.078125 337.417969 463.433594 C 338.253906 464.3125 339.429688 464.851563 340.738281 464.851563 C 343.273438 464.851563 345.328125 462.796875 345.328125 460.265625 C 345.328125 457.730469 343.273438 455.679688 340.738281 455.679688 C 339.429688 455.679688 338.253906 456.234375 337.417969 457.113281 C 337.058594 457.488281 336.453125 457.964844 335.78125 458.363281 C 335.875 454.15625 337.320313 451.410156 339.953125 451.410156 C 339.953125 451.410156 329.421875 451.410156 329.421875 451.410156 C 332.0625 451.410156 333.523438 454.171875 333.613281 458.398438 C 332.90625 457.992188 332.25 457.503906 331.875 457.113281 C 331.039063 456.234375 329.863281 455.679688 328.554688 455.679688 C 326.019531 455.679688 323.964844 457.730469 323.964844 460.265625 C 323.964844 462.796875 326.019531 464.851563 328.554688 464.851563 C 329.863281 464.851563 331.039063 464.3125 331.875 463.433594 C 332.230469 463.0625 332.847656 462.621094 333.511719 462.234375 C 333.199219 463.414063 332.210938 464.898438 331.523438 465.550781 C 330.644531 466.386719 330.105469 467.5625 330.105469 468.871094 C 330.105469 471.402344 332.160156 473.457031 334.695313 473.457031 Z M 334.695313 473.457031 "/>
<path style=" stroke:none;fill-rule:nonzero;fill:rgb(0%,0%,0%);fill-opacity:1;" d="M 36.304688 65.867188 C 33.769531 65.867188 31.714844 67.917969 31.714844 70.453125 C 31.714844 71.757813 32.269531 72.933594 33.148438 73.769531 C 33.828125 74.417969 34.796875 75.882813 35.117188 77.054688 C 34.488281 76.675781 33.921875 76.246094 33.582031 75.886719 C 32.746094 75.011719 31.570313 74.472656 30.261719 74.472656 C 27.726563 74.472656 25.671875 76.523438 25.671875 79.058594 C 25.671875 81.589844 27.726563 83.644531 30.261719 83.644531 C 31.570313 83.644531 32.746094 83.085938 33.582031 82.210938 C 33.941406 81.832031 34.546875 81.355469 35.21875 80.957031 C 35.125 85.164063 33.679688 87.914063 31.046875 87.914063 C 31.046875 87.914063 41.578125 87.914063 41.578125 87.914063 C 38.9375 87.914063 37.476563 85.148438 37.386719 80.925781 C 38.09375 81.328125 38.75 81.816406 39.125 82.210938 C 39.960938 83.085938 41.136719 83.644531 42.445313 83.644531 C 44.980469 83.644531 47.035156 81.589844 47.035156 79.058594 C 47.035156 76.523438 44.980469 74.472656 42.445313 74.472656 C 41.136719 74.472656 39.960938 75.011719 39.125 75.886719 C 38.769531 76.261719 38.152344 76.703125 37.488281 77.089844 C 37.800781 75.910156 38.789063 74.421875 39.476563 73.769531 C 40.355469 72.933594 40.894531 71.757813 40.894531 70.453125 C 40.894531 67.917969 38.839844 65.867188 36.304688 65.867188 Z M 36.304688 65.867188 "/>
<path style=" stroke:none;fill-rule:nonzero;fill:rgb(0%,0%,0%);fill-opacity:1;" d="M 105.832031 510.417969 C 97.398438 510.417969 90.566406 503.589844 90.566406 495.164063 C 90.566406 490.816406 92.414063 486.90625 95.339844 484.125 C 97.597656 481.976563 100.816406 477.105469 101.890625 473.199219 C 99.796875 474.460938 97.914063 475.894531 96.78125 477.082031 C 94 480.003906 90.089844 481.796875 85.734375 481.796875 C 77.304688 481.796875 70.46875 474.96875 70.46875 466.542969 C 70.46875 458.117188 77.304688 451.292969 85.734375 451.292969 C 90.089844 451.292969 94 453.140625 96.78125 456.0625 C 97.976563 457.3125 99.992188 458.898438 102.222656 460.222656 C 101.910156 446.234375 97.105469 437.09375 88.34375 437.09375 C 88.34375 437.09375 123.371094 437.09375 123.371094 437.09375 C 114.589844 437.09375 109.726563 446.28125 109.4375 460.332031 C 111.789063 458.984375 113.972656 457.363281 115.210938 456.0625 C 117.996094 453.140625 121.90625 451.292969 126.257813 451.292969 C 134.691406 451.292969 141.523438 458.117188 141.523438 466.542969 C 141.523438 474.96875 134.691406 481.796875 126.257813 481.796875 C 121.90625 481.796875 117.996094 480.003906 115.210938 477.082031 C 114.03125 475.84375 111.984375 474.378906 109.773438 473.089844 C 110.808594 477.015625 114.09375 481.957031 116.378906 484.125 C 119.300781 486.90625 121.097656 490.816406 121.097656 495.164063 C 121.097656 503.589844 114.261719 510.417969 105.832031 510.417969 Z M 105.832031 510.417969 "/>
<path style=" stroke:none;fill-rule:nonzero;fill:rgb(0%,0%,0%);fill-opacity:1;" d="M 105.832031 29.535156 C 97.398438 29.535156 90.566406 36.359375 90.566406 44.785156 C 90.566406 49.136719 92.414063 53.042969 95.339844 55.824219 C 97.597656 57.972656 100.816406 62.84375 101.890625 66.75 C 99.796875 65.492188 97.914063 64.054688 96.78125 62.867188 C 94 59.945313 90.089844 58.152344 85.734375 58.152344 C 77.304688 58.152344 70.46875 64.980469 70.46875 73.40625 C 70.46875 81.832031 77.304688 88.660156 85.734375 88.660156 C 90.089844 88.660156 94 86.8125 96.78125 83.890625 C 97.976563 82.636719 99.992188 81.050781 102.222656 79.730469 C 101.910156 93.71875 97.105469 102.859375 88.34375 102.859375 C 88.34375 102.859375 123.371094 102.859375 123.371094 102.859375 C 114.589844 102.859375 109.726563 93.671875 109.4375 79.617188 C 111.789063 80.964844 113.972656 82.589844 115.210938 83.890625 C 117.996094 86.8125 121.90625 88.660156 126.257813 88.660156 C 134.691406 88.660156 141.523438 81.832031 141.523438 73.40625 C 141.523438 64.980469 134.691406 58.152344 126.257813 58.152344 C 121.90625 58.152344 117.996094 59.945313 115.210938 62.867188 C 114.03125 64.105469 111.984375 65.574219 109.773438 66.863281 C 110.808594 62.9375 114.09375 57.996094 116.378906 55.824219 C 119.300781 53.042969 121.097656 49.136719 121.097656 44.785156 C 121.097656 36.359375 114.261719 29.535156 105.832031 29.535156 Z M 105.832031 29.535156 "/>
<path style=" stroke:none;fill-rule:nonzero;fill:rgb(0%,0%,0%);fill-opacity:1;" d="M 105.832031 165.386719 C 97.398438 165.386719 90.566406 172.214844 90.566406 180.640625 C 90.566406 184.988281 92.414063 188.894531 95.339844 191.675781 C 97.597656 193.828125 100.816406 198.695313 101.890625 202.605469 C 99.796875 201.34375 97.914063 199.910156 96.78125 198.722656 C 94 195.800781 90.089844 194.007813 85.734375 194.007813 C 77.304688 194.007813 70.46875 200.832031 70.46875 209.257813 C 70.46875 217.683594 77.304688 224.511719 85.734375 224.511719 C 90.089844 224.511719 94 222.664063 96.78125 219.742188 C 97.976563 218.488281 99.992188 216.902344 102.222656 215.582031 C 101.910156 229.570313 97.105469 238.710938 88.34375 238.710938 C 88.34375 238.710938 123.371094 238.710938 123.371094 238.710938 C 114.589844 238.710938 109.726563 229.523438 109.4375 215.472656 C 111.789063 216.820313 113.972656 218.441406 115.210938 219.742188 C 117.996094 222.664063 121.90625 224.511719 126.257813 224.511719 C 134.691406 224.511719 141.523438 217.683594 141.523438 209.257813 C 141.523438 200.832031 134.691406 194.007813 126.257813 194.007813 C 121.90625 194.007813 117.996094 195.800781 115.210938 198.722656 C 114.03125 199.957031 111.984375 201.425781 109.773438 202.714844 C 110.808594 198.789063 114.09375 193.847656 116.378906 191.675781 C 119.300781 188.894531 121.097656 184.988281 121.097656 180.640625 C 121.097656 172.214844 114.261719 165.386719 105.832031 165.386719 Z M 105.832031 165.386719 "/>
<path style=" stroke:none;fill-rule:nonzero;fill:rgb(0%,0%,0%);fill-opacity:1;" d="M 262.746094 29.535156 C 254.316406 29.535156 247.480469 36.359375 247.480469 44.785156 C 247.480469 49.136719 249.332031 53.042969 252.257813 55.824219 C 254.515625 57.972656 257.734375 62.84375 258.804688 66.75 C 256.714844 65.492188 254.832031 64.054688 253.699219 62.867188 C 250.917969 59.945313 247.003906 58.152344 242.652344 58.152344 C 234.21875 58.152344 227.386719 64.980469 227.386719 73.40625 C 227.386719 81.832031 234.21875 88.660156 242.652344 88.660156 C 247.003906 88.660156 250.917969 86.8125 253.699219 83.890625 C 254.894531 82.636719 256.910156 81.050781 259.140625 79.730469 C 258.828125 93.71875 254.023438 102.859375 245.261719 102.859375 C 245.261719 102.859375 280.289063 102.859375 280.289063 102.859375 C 271.503906 102.859375 266.644531 93.671875 266.355469 79.617188 C 268.707031 80.964844 270.890625 82.589844 272.128906 83.890625 C 274.914063 86.8125 278.824219 88.660156 283.175781 88.660156 C 291.609375 88.660156 298.441406 81.832031 298.441406 73.40625 C 298.441406 64.980469 291.609375 58.152344 283.175781 58.152344 C 278.824219 58.152344 274.914063 59.945313 272.128906 62.867188 C 270.949219 64.105469 268.902344 65.574219 266.6875 66.863281 C 267.726563 62.9375 271.011719 57.996094 273.292969 55.824219 C 276.21875 53.042969 278.011719 49.136719 278.011719 44.785156 C 278.011719 36.359375 271.179688 29.535156 262.746094 29.535156 Z M 262.746094 29.535156 "/>
<path style=" stroke:none;fill-rule:nonzero;fill:rgb(0%,0%,0%);fill-opacity:1;" d="M 262.746094 165.386719 C 254.316406 165.386719 247.480469 172.214844 247.480469 180.640625 C 247.480469 184.988281 249.332031 188.894531 252.257813 191.675781 C 254.515625 193.824219 257.734375 198.695313 258.804688 202.605469 C 256.714844 201.34375 254.832031 199.910156 253.699219 198.722656 C 250.917969 195.800781 247.003906 194.007813 242.652344 194.007813 C 234.21875 194.007813 227.386719 200.832031 227.386719 209.257813 C 227.386719 217.683594 234.21875 224.511719 242.652344 224.511719 C 247.003906 224.511719 250.917969 222.664063 253.699219 219.742188 C 254.894531 218.488281 256.910156 216.902344 259.140625 215.582031 C 258.828125 229.570313 254.023438 238.710938 245.261719 238.710938 C 245.261719 238.710938 280.289063 238.710938 280.289063 238.710938 C 271.503906 238.710938 266.644531 229.523438 266.355469 215.472656 C 268.707031 216.820313 270.890625 218.441406 272.128906 219.742188 C 274.914063 222.664063 278.824219 224.511719 283.175781 224.511719 C 291.609375 224.511719 298.441406 217.683594 298.441406 209.257813 C 298.441406 200.832031 291.609375 194.007813 283.175781 194.007813 C 278.824219 194.007813 274.914063 195.800781 272.128906 198.722656 C 270.949219 199.957031 268.902344 201.425781 266.6875 202.714844 C 267.726563 198.789063 271.011719 193.847656 273.292969 191.675781 C 276.21875 188.894531 278.011719 184.988281 278.011719 180.640625 C 278.011719 172.214844 271.179688 165.386719 262.746094 165.386719 Z M 262.746094 165.386719 "/>
<path style=" stroke:none;fill-rule:nonzero;fill:rgb(0%,0%,0%);fill-opacity:1;" d="M 262.746094 510.417969 C 254.316406 510.417969 247.480469 503.589844 247.480469 495.164063 C 247.480469 490.816406 249.332031 486.90625 252.257813 484.125 C 254.515625 481.976563 257.734375 477.105469 258.804688 473.199219 C 256.714844 474.460938 254.832031 475.894531 253.699219 477.082031 C 250.917969 480.003906 247.003906 481.796875 242.652344 481.796875 C 234.21875 481.796875 227.386719 474.96875 227.386719 466.542969 C 227.386719 458.117188 234.21875 451.292969 242.652344 451.292969 C 247.003906 451.292969 250.917969 453.140625 253.699219 456.0625 C 254.894531 457.3125 256.910156 458.898438 259.140625 460.222656 C 258.828125 446.234375 254.023438 437.09375 245.261719 437.09375 C 245.261719 437.09375 280.289063 437.09375 280.289063 437.09375 C 271.503906 437.09375 266.644531 446.28125 266.355469 460.332031 C 268.707031 458.984375 270.890625 457.363281 272.128906 456.0625 C 274.914063 453.140625 278.824219 451.292969 283.175781 451.292969 C 291.609375 451.292969 298.441406 458.117188 298.441406 466.542969 C 298.441406 474.96875 291.609375 481.796875 283.175781 481.796875 C 278.824219 481.796875 274.914063 480.003906 272.128906 477.082031 C 270.949219 475.84375 268.902344 474.378906 266.6875 473.089844 C 267.726563 477.015625 271.011719 481.957031 273.292969 484.125 C 276.21875 486.90625 278.011719 490.816406 278.011719 495.164063 C 278.011719 503.589844 271.179688 510.417969 262.746094 510.417969 Z M 262.746094 510.417969 "/>
<path style=" stroke:none;fill-rule:nonzero;fill:rgb(0%,0%,0%);fill-opacity:1;" d="M 260.078125 374.5625 C 251.644531 374.5625 244.8125 367.738281 244.8125 359.3125 C 244.8125 354.960938 246.664063 351.054688 249.585938 348.273438 C 251.847656 346.125 255.066406 341.253906 256.136719 337.347656 C 254.046875 338.605469 252.164063 340.042969 251.03125 341.230469 C 248.246094 344.152344 244.335938 345.945313 239.984375 345.945313 C 231.550781 345.945313 224.71875 339.117188 224.71875 330.691406 C 224.71875 322.265625 231.550781 315.4375 239.984375 315.4375 C 244.335938 315.4375 248.246094 317.289063 251.03125 320.207031 C 252.222656 321.460938 254.242188 323.046875 256.46875 324.367188 C 256.15625 310.378906 251.351563 301.238281 242.59375 301.238281 C 242.59375 301.238281 277.621094 301.238281 277.621094 301.238281 C 268.835938 301.238281 263.976563 310.429688 263.6875 324.480469 C 266.035156 323.132813 268.21875 321.507813 269.460938 320.207031 C 272.242188 317.289063 276.152344 315.4375 280.507813 315.4375 C 288.9375 315.4375 295.773438 322.265625 295.773438 330.691406 C 295.773438 339.117188 288.9375 345.945313 280.507813 345.945313 C 276.152344 345.945313 272.242188 344.152344 269.460938 341.230469 C 268.28125 339.992188 266.234375 338.527344 264.019531 337.234375 C 265.058594 341.160156 268.34375 346.101563 270.625 348.273438 C 273.550781 351.054688 275.34375 354.960938 275.34375 359.3125 C 275.34375 367.738281 268.511719 374.5625 260.078125 374.5625 Z M 260.078125 374.5625 "/>
<path style=" stroke:none;fill-rule:nonzero;fill:rgb(0%,0%,0%);fill-opacity:1;" d="M 105.832031 374.5625 C 97.398438 374.5625 90.566406 367.738281 90.566406 359.3125 C 90.566406 354.960938 92.414063 351.054688 95.339844 348.273438 C 97.597656 346.125 100.816406 341.253906 101.890625 337.347656 C 99.796875 338.605469 97.914063 340.042969 96.78125 341.230469 C 94 344.152344 90.089844 345.945313 85.734375 345.945313 C 77.304688 345.945313 70.46875 339.117188 70.46875 330.691406 C 70.46875 322.265625 77.304688 315.4375 85.734375 315.4375 C 90.089844 315.4375 94 317.289063 96.78125 320.207031 C 97.976563 321.460938 99.992188 323.046875 102.222656 324.367188 C 101.910156 310.378906 97.105469 301.238281 88.34375 301.238281 C 88.34375 301.238281 123.371094 301.238281 123.371094 301.238281 C 114.589844 301.238281 109.726563 310.429688 109.4375 324.480469 C 111.789063 323.132813 113.972656 321.507813 115.210938 320.207031 C 117.996094 317.289063 121.90625 315.4375 126.257813 315.4375 C 134.691406 315.4375 141.523438 322.265625 141.523438 330.691406 C 141.523438 339.117188 134.691406 345.945313 126.257813 345.945313 C 121.90625 345.945313 117.996094 344.152344 115.210938 341.230469 C 114.03125 339.992188 111.984375 338.527344 109.773438 337.234375 C 110.808594 341.160156 114.09375 346.101563 116.378906 348.273438 C 119.300781 351.054688 121.097656 354.960938 121.097656 359.3125 C 121.097656 367.738281 114.261719 374.5625 105.832031 374.5625 Z M 105.832031 374.5625 "/>
<path style=" stroke:none;fill-rule:nonzero;fill:rgb(0%,0%,0%);fill-opacity:1;" d="M 185.332031 97.460938 C 176.902344 97.460938 170.066406 104.289063 170.066406 112.714844 C 170.066406 117.0625 171.917969 120.96875 174.84375 123.75 C 177.101563 125.898438 180.320313 130.769531 181.390625 134.675781 C 179.300781 133.417969 177.417969 131.984375 176.285156 130.792969 C 173.503906 127.875 169.589844 126.082031 165.238281 126.082031 C 156.804688 126.082031 149.972656 132.90625 149.972656 141.332031 C 149.972656 149.757813 156.804688 156.585938 165.238281 156.585938 C 169.589844 156.585938 173.503906 154.738281 176.285156 151.816406 C 177.480469 150.5625 179.496094 148.976563 181.726563 147.65625 C 181.414063 161.644531 176.609375 170.785156 167.847656 170.785156 C 167.847656 170.785156 202.875 170.785156 202.875 170.785156 C 194.089844 170.785156 189.230469 161.597656 188.941406 147.542969 C 191.292969 148.890625 193.476563 150.515625 194.714844 151.816406 C 197.496094 154.738281 201.410156 156.585938 205.761719 156.585938 C 214.195313 156.585938 221.027344 149.757813 221.027344 141.332031 C 221.027344 132.90625 214.195313 126.082031 205.761719 126.082031 C 201.410156 126.082031 197.496094 127.875 194.714844 130.792969 C 193.535156 132.03125 191.488281 133.5 189.273438 134.789063 C 190.3125 130.863281 193.597656 125.921875 195.878906 123.75 C 198.804688 120.96875 200.597656 117.0625 200.597656 112.714844 C 200.597656 104.289063 193.765625 97.460938 185.332031 97.460938 Z M 185.332031 97.460938 "/>
<path style=" stroke:none;fill-rule:nonzero;fill:rgb(0%,0%,0%);fill-opacity:1;" d="M 185.332031 442.488281 C 176.902344 442.488281 170.066406 435.664063 170.066406 427.238281 C 170.066406 422.886719 171.917969 418.980469 174.84375 416.199219 C 177.101563 414.050781 180.320313 409.179688 181.390625 405.273438 C 179.300781 406.53125 177.417969 407.96875 176.285156 409.15625 C 173.503906 412.078125 169.589844 413.871094 165.238281 413.871094 C 156.804688 413.871094 149.972656 407.042969 149.972656 398.617188 C 149.972656 390.191406 156.804688 383.363281 165.238281 383.363281 C 169.589844 383.363281 173.503906 385.214844 176.285156 388.136719 C 177.480469 389.386719 179.496094 390.972656 181.726563 392.292969 C 181.414063 378.304688 176.609375 369.167969 167.847656 369.167969 C 167.847656 369.167969 202.875 369.167969 202.875 369.167969 C 194.089844 369.167969 189.230469 378.355469 188.941406 392.40625 C 191.292969 391.058594 193.476563 389.4375 194.714844 388.136719 C 197.496094 385.214844 201.410156 383.363281 205.761719 383.363281 C 214.195313 383.363281 221.027344 390.191406 221.027344 398.617188 C 221.027344 407.042969 214.195313 413.871094 205.761719 413.871094 C 201.410156 413.871094 197.496094 412.078125 194.714844 409.15625 C 193.535156 407.917969 191.488281 406.453125 189.273438 405.164063 C 190.3125 409.089844 193.597656 414.03125 195.878906 416.199219 C 198.804688 418.980469 200.597656 422.886719 200.597656 427.238281 C 200.597656 435.664063 193.765625 442.488281 185.332031 442.488281 Z M 185.332031 442.488281 "/>
</g>
</svg>
