<?xml version="1.0" encoding="UTF-8"?>
<svg xmlns="http://www.w3.org/2000/svg" xmlns:xlink="http://www.w3.org/1999/xlink" width="371pt" height="540pt" viewBox="0 0 371 540" version="1.1">
<g id="surface1">
<path style="fill-rule:nonzero;fill:rgb(100%,100%,100%);fill-opacity:1;stroke-width:0.5;stroke-linecap:butt;stroke-linejoin:miter;stroke:rgb(0%,0%,0%);stroke-opacity:1;stroke-miterlimit:4;" d="M 166.836617 235.89229 C 166.836617 239.68485 163.750894 242.783692 159.966749 242.783692 L 7.110884 242.783692 C 3.335536 242.783692 0.249813 239.68485 0.249813 235.89229 L 0.249813 6.77519 C 0.249813 2.987912 3.335536 -0.116212 7.110884 -0.116212 L 159.966749 -0.116212 C 163.750894 -0.116212 166.836617 2.987912 166.836617 6.77519 Z M 166.836617 235.89229 " transform="matrix(2.220408,0,0,2.218571,0,0.812511)"/>
<path style=" stroke:none;fill-rule:nonzero;fill:rgb(90.196078%,7.843137%,3.137255%);fill-opacity:1;" d="M 21.785156 58.210938 L 21.785156 54.949219 L 25.117188 54.949219 L 25.117188 22.5625 L 21.367188 27.496094 L 21.367188 23.5 L 25.871094 17.441406 L 29.625 17.441406 L 29.625 54.949219 L 33.027344 54.949219 L 33.027344 58.210938 Z M 21.785156 58.210938 "/>
<path style=" stroke:none;fill-rule:nonzero;fill:rgb(90.196078%,7.843137%,3.137255%);fill-opacity:1;" d="M 43.960938 58.972656 C 41.566406 58.972656 39.734375 57.191406 38.460938 53.625 C 37.191406 50.058594 36.558594 44.925781 36.558594 38.222656 C 36.558594 31.519531 37.191406 26.378906 38.460938 22.804688 C 39.734375 19.230469 41.566406 17.441406 43.960938 17.441406 C 46.339844 17.441406 48.164063 19.230469 49.433594 22.804688 C 50.703125 26.378906 51.339844 31.519531 51.339844 38.222656 C 51.339844 44.925781 50.703125 50.058594 49.433594 53.625 C 48.164063 57.191406 46.339844 58.972656 43.960938 58.972656 Z M 43.960938 55.851563 C 44.917969 55.851563 45.578125 54.878906 45.9375 52.925781 C 46.296875 50.976563 46.480469 46.074219 46.480469 38.21875 C 46.480469 30.421875 46.296875 25.527344 45.9375 23.542969 C 45.578125 21.554688 44.917969 20.5625 43.960938 20.5625 C 42.984375 20.5625 42.316406 21.539063 41.957031 23.488281 C 41.59375 25.4375 41.414063 30.347656 41.414063 38.21875 C 41.414063 46.074219 41.59375 50.976563 41.957031 52.925781 C 42.316406 54.878906 42.984375 55.851563 43.960938 55.851563 Z M 43.960938 55.851563 "/>
<path style=" stroke:none;fill-rule:nonzero;fill:rgb(90.196078%,7.843137%,3.137255%);fill-opacity:1;" d="M 349.214844 481.789063 L 349.214844 485.050781 L 345.886719 485.050781 L 345.886719 517.4375 L 349.632813 512.503906 L 349.632813 516.5 L 345.125 522.558594 L 341.375 522.558594 L 341.375 485.050781 L 337.976563 485.050781 L 337.976563 481.789063 Z M 349.214844 481.789063 "/>
<path style=" stroke:none;fill-rule:nonzero;fill:rgb(90.196078%,7.843137%,3.137255%);fill-opacity:1;" d="M 327.039063 481.027344 C 329.4375 481.027344 331.269531 482.8125 332.535156 486.378906 C 333.808594 489.941406 334.441406 495.074219 334.441406 501.78125 C 334.441406 508.484375 333.808594 513.621094 332.535156 517.195313 C 331.269531 520.773438 329.4375 522.558594 327.039063 522.558594 C 324.660156 522.558594 322.835938 520.773438 321.570313 517.195313 C 320.296875 513.621094 319.660156 508.484375 319.660156 501.78125 C 319.660156 495.074219 320.296875 489.941406 321.570313 486.378906 C 322.835938 482.8125 324.660156 481.027344 327.039063 481.027344 Z M 327.039063 484.148438 C 326.082031 484.148438 325.425781 485.121094 325.058594 487.074219 C 324.699219 489.023438 324.519531 493.925781 324.519531 501.78125 C 324.519531 509.578125 324.699219 514.472656 325.058594 516.460938 C 325.425781 518.445313 326.082031 519.4375 327.039063 519.4375 C 328.011719 519.4375 328.679688 518.460938 329.046875 516.511719 C 329.40625 514.5625 329.582031 509.652344 329.582031 501.78125 C 329.582031 493.925781 329.40625 489.023438 329.046875 487.074219 C 328.679688 485.121094 328.011719 484.148438 327.039063 484.148438 Z M 327.039063 484.148438 "/>
<path style=" stroke:none;fill-rule:nonzero;fill:rgb(90.196078%,7.843137%,3.137255%);fill-opacity:1;" d="M 105.996094 31 C 105.9375 32.984375 104.757813 40.4375 91.894531 52.773438 C 79.515625 64.644531 73.734375 66.070313 71.996094 66.195313 C 73.734375 66.320313 79.515625 67.746094 91.894531 79.617188 C 104.757813 91.953125 105.9375 99.40625 105.996094 101.394531 C 106.054688 99.40625 107.234375 91.953125 120.097656 79.617188 C 132.480469 67.746094 138.261719 66.320313 139.996094 66.195313 C 138.261719 66.070313 132.480469 64.644531 120.097656 52.773438 C 107.234375 40.4375 106.054688 32.984375 105.996094 31 Z M 105.996094 31 "/>
<path style=" stroke:none;fill-rule:nonzero;fill:rgb(90.196078%,7.843137%,3.137255%);fill-opacity:1;" d="M 36.351563 66.746094 C 36.335938 67.34375 35.980469 69.585938 32.113281 73.292969 C 28.390625 76.863281 26.652344 77.292969 26.128906 77.328125 C 26.652344 77.367188 28.390625 77.796875 32.113281 81.363281 C 35.980469 85.074219 36.335938 87.316406 36.351563 87.914063 C 36.371094 87.316406 36.726563 85.074219 40.59375 81.363281 C 44.316406 77.796875 46.054688 77.367188 46.578125 77.328125 C 46.054688 77.292969 44.316406 76.863281 40.59375 73.292969 C 36.726563 69.585938 36.371094 67.34375 36.351563 66.746094 Z M 36.351563 66.746094 "/>
<path style=" stroke:none;fill-rule:nonzero;fill:rgb(90.196078%,7.843137%,3.137255%);fill-opacity:1;" d="M 334.648438 451.851563 C 334.628906 452.449219 334.273438 454.6875 330.40625 458.398438 C 326.683594 461.96875 324.945313 462.394531 324.421875 462.433594 C 324.945313 462.472656 326.683594 462.898438 330.40625 466.46875 C 334.273438 470.179688 334.628906 472.417969 334.648438 473.015625 C 334.664063 472.417969 335.019531 470.179688 338.886719 466.46875 C 342.609375 462.898438 344.347656 462.472656 344.871094 462.433594 C 344.347656 462.394531 342.609375 461.96875 338.886719 458.398438 C 335.019531 454.6875 334.664063 452.449219 334.648438 451.851563 Z M 334.648438 451.851563 "/>
<path style=" stroke:none;fill-rule:nonzero;fill:rgb(90.196078%,7.843137%,3.137255%);fill-opacity:1;" d="M 262.914063 31 C 262.855469 32.984375 261.675781 40.4375 248.8125 52.773438 C 236.433594 64.644531 230.652344 66.070313 228.914063 66.195313 C 230.652344 66.320313 236.433594 67.746094 248.8125 79.617188 C 261.675781 91.953125 262.855469 99.40625 262.914063 101.394531 C 262.972656 99.40625 264.152344 91.953125 277.015625 79.617188 C 289.394531 67.746094 295.175781 66.320313 296.914063 66.195313 C 295.175781 66.070313 289.394531 64.644531 277.015625 52.773438 C 264.152344 40.4375 262.972656 32.984375 262.914063 31 Z M 262.914063 31 "/>
<path style=" stroke:none;fill-rule:nonzero;fill:rgb(90.196078%,7.843137%,3.137255%);fill-opacity:1;" d="M 185.5 98.925781 C 185.441406 100.910156 184.261719 108.363281 171.398438 120.699219 C 159.019531 132.574219 153.238281 133.996094 151.5 134.121094 C 153.238281 134.246094 159.019531 135.671875 171.398438 147.542969 C 184.261719 159.878906 185.441406 167.332031 185.5 169.320313 C 185.558594 167.332031 186.738281 159.878906 199.601563 147.542969 C 211.980469 135.671875 217.761719 134.246094 219.5 134.121094 C 217.761719 133.996094 211.980469 132.574219 199.601563 120.699219 C 186.738281 108.367188 185.558594 100.910156 185.5 98.925781 Z M 185.5 98.925781 "/>
<path style=" stroke:none;fill-rule:nonzero;fill:rgb(90.196078%,7.843137%,3.137255%);fill-opacity:1;" d="M 105.996094 166.851563 C 105.9375 168.839844 104.757813 176.292969 91.894531 188.625 C 79.515625 200.5 73.734375 201.925781 71.996094 202.050781 C 73.734375 202.175781 79.515625 203.597656 91.894531 215.472656 C 104.757813 227.804688 105.9375 235.257813 105.996094 237.246094 C 106.054688 235.257813 107.234375 227.804688 120.097656 215.472656 C 132.480469 203.597656 138.261719 202.175781 139.996094 202.050781 C 138.261719 201.925781 132.480469 200.5 120.097656 188.625 C 107.234375 176.292969 106.054688 168.839844 105.996094 166.851563 Z M 105.996094 166.851563 "/>
<path style=" stroke:none;fill-rule:nonzero;fill:rgb(90.196078%,7.843137%,3.137255%);fill-opacity:1;" d="M 262.914063 166.851563 C 262.855469 168.839844 261.675781 176.292969 248.8125 188.625 C 236.433594 200.5 230.652344 201.925781 228.914063 202.050781 C 230.652344 202.175781 236.433594 203.597656 248.8125 215.472656 C 261.675781 227.804688 262.855469 235.257813 262.914063 237.246094 C 262.972656 235.257813 264.152344 227.804688 277.015625 215.472656 C 289.394531 203.597656 295.175781 202.175781 296.914063 202.050781 C 295.175781 201.925781 289.394531 200.5 277.015625 188.625 C 264.152344 176.292969 262.972656 168.839844 262.914063 166.851563 Z M 262.914063 166.851563 "/>
<path style=" stroke:none;fill-rule:nonzero;fill:rgb(90.196078%,7.843137%,3.137255%);fill-opacity:1;" d="M 105.996094 302.703125 C 105.9375 304.691406 104.757813 312.144531 91.894531 324.480469 C 79.515625 336.351563 73.734375 337.777344 71.996094 337.902344 C 73.734375 338.027344 79.515625 339.453125 91.894531 351.324219 C 104.757813 363.660156 105.9375 371.113281 105.996094 373.101563 C 106.054688 371.113281 107.234375 363.660156 120.097656 351.324219 C 132.480469 339.453125 138.261719 338.027344 139.996094 337.902344 C 138.261719 337.777344 132.480469 336.351563 120.097656 324.480469 C 107.234375 312.144531 106.054688 304.691406 105.996094 302.703125 Z M 105.996094 302.703125 "/>
<path style=" stroke:none;fill-rule:nonzero;fill:rgb(90.196078%,7.843137%,3.137255%);fill-opacity:1;" d="M 260.246094 302.703125 C 260.1875 304.691406 259.007813 312.144531 246.144531 324.480469 C 233.761719 336.351563 227.980469 337.777344 226.242188 337.902344 C 227.980469 338.027344 233.761719 339.453125 246.144531 351.324219 C 259.007813 363.660156 260.1875 371.113281 260.246094 373.101563 C 260.304688 371.113281 261.484375 363.660156 274.347656 351.324219 C 286.726563 339.453125 292.507813 338.027344 294.246094 337.902344 C 292.507813 337.777344 286.726563 336.351563 274.347656 324.480469 C 261.484375 312.144531 260.304688 304.691406 260.246094 302.703125 Z M 260.246094 302.703125 "/>
<path style=" stroke:none;fill-rule:nonzero;fill:rgb(90.196078%,7.843137%,3.137255%);fill-opacity:1;" d="M 185.5 370.628906 C 185.441406 372.617188 184.261719 380.070313 171.398438 392.40625 C 159.019531 404.277344 153.238281 405.703125 151.5 405.828125 C 153.238281 405.953125 159.019531 407.378906 171.398438 419.25 C 184.261719 431.585938 185.441406 439.039063 185.5 441.027344 C 185.558594 439.039063 186.738281 431.585938 199.601563 419.25 C 211.980469 407.378906 217.761719 405.953125 219.5 405.828125 C 217.761719 405.703125 211.980469 404.277344 199.601563 392.40625 C 186.738281 380.070313 185.558594 372.617188 185.5 370.628906 Z M 185.5 370.628906 "/>
<path style=" stroke:none;fill-rule:nonzero;fill:rgb(90.196078%,7.843137%,3.137255%);fill-opacity:1;" d="M 105.996094 438.554688 C 105.9375 440.542969 104.757813 447.996094 91.894531 460.332031 C 79.515625 472.203125 73.734375 473.628906 71.996094 473.753906 C 73.734375 473.878906 79.515625 475.304688 91.894531 487.175781 C 104.757813 499.511719 105.9375 506.964844 105.996094 508.953125 C 106.054688 506.964844 107.234375 499.511719 120.097656 487.175781 C 132.480469 475.304688 138.261719 473.878906 139.996094 473.753906 C 138.261719 473.628906 132.480469 472.203125 120.097656 460.332031 C 107.234375 447.996094 106.054688 440.542969 105.996094 438.554688 Z M 105.996094 438.554688 "/>
<path style=" stroke:none;fill-rule:nonzero;fill:rgb(90.196078%,7.843137%,3.137255%);fill-opacity:1;" d="M 262.914063 438.554688 C 262.855469 440.542969 261.675781 447.996094 248.8125 460.332031 C 236.433594 472.203125 230.652344 473.628906 228.914063 473.753906 C 230.652344 473.878906 236.433594 475.304688 248.8125 487.175781 C 261.675781 499.511719 262.855469 506.964844 262.914063 508.953125 C 262.972656 506.964844 264.152344 499.511719 277.015625 487.175781 C 289.394531 475.304688 295.175781 473.878906 296.914063 473.753906 C 295.175781 473.628906 289.394531 472.203125 277.015625 460.332031 C 264.152344 447.996094 262.972656 440.542969 262.914063 438.554688 Z M 262.914063 438.554688 "/>
</g>
</svg>
