<?xml version="1.0" encoding="UTF-8"?>
<svg xmlns="http://www.w3.org/2000/svg" xmlns:xlink="http://www.w3.org/1999/xlink" width="371pt" height="540pt" viewBox="0 0 371 540" version="1.1">
<g id="surface1">
<path style="fill-rule:nonzero;fill:rgb(100%,100%,100%);fill-opacity:1;stroke-width:0.5;stroke-linecap:butt;stroke-linejoin:miter;stroke:rgb(0%,0%,0%);stroke-opacity:1;stroke-miterlimit:4;" d="M 166.836617 235.89229 C 166.836617 239.68485 163.750894 242.783692 159.966749 242.783692 L 7.110884 242.783692 C 3.335536 242.783692 0.249813 239.68485 0.249813 235.89229 L 0.249813 6.77519 C 0.249813 2.987912 3.335536 -0.116212 7.110884 -0.116212 L 159.966749 -0.116212 C 163.750894 -0.116212 166.836617 2.987912 166.836617 6.77519 Z M 166.836617 235.89229 " transform="matrix(2.220408,0,0,2.218571,0,0.812511)"/>
<path style=" stroke:none;fill-rule:nonzero;fill:rgb(0%,0%,0%);fill-opacity:1;" d="M 21.785156 58.210938 L 21.785156 54.949219 L 25.117188 54.949219 L 25.117188 22.5625 L 21.367188 27.496094 L 21.367188 23.5 L 25.871094 17.441406 L 29.625 17.441406 L 29.625 54.949219 L 33.027344 54.949219 L 33.027344 58.210938 Z M 21.785156 58.210938 "/>
<path style=" stroke:none;fill-rule:nonzero;fill:rgb(0%,0%,0%);fill-opacity:1;" d="M 43.960938 58.972656 C 41.566406 58.972656 39.734375 57.191406 38.460938 53.625 C 37.191406 50.058594 36.558594 44.925781 36.558594 38.222656 C 36.558594 31.519531 37.191406 26.378906 38.460938 22.804688 C 39.734375 19.230469 41.566406 17.441406 43.960938 17.441406 C 46.339844 17.441406 48.164063 19.230469 49.433594 22.804688 C 50.703125 26.378906 51.339844 31.519531 51.339844 38.222656 C 51.339844 44.925781 50.703125 50.058594 49.433594 53.625 C 48.164063 57.191406 46.339844 58.972656 43.960938 58.972656 Z M 43.960938 55.851563 C 44.917969 55.851563 45.578125 54.878906 45.9375 52.925781 C 46.296875 50.976563 46.480469 46.074219 46.480469 38.21875 C 46.480469 30.421875 46.296875 25.527344 45.9375 23.542969 C 45.578125 21.554688 44.917969 20.5625 43.960938 20.5625 C 42.984375 20.5625 42.316406 21.539063 41.957031 23.488281 C 41.59375 25.4375 41.414063 30.347656 41.414063 38.21875 C 41.414063 46.074219 41.59375 50.976563 41.957031 52.925781 C 42.316406 54.878906 42.984375 55.851563 43.960938 55.851563 Z M 43.960938 55.851563 "/>
<path style=" stroke:none;fill-rule:nonzero;fill:rgb(0%,0%,0%);fill-opacity:1;" d="M 349.214844 481.789063 L 349.214844 485.050781 L 345.886719 485.050781 L 345.886719 517.4375 L 349.632813 512.503906 L 349.632813 516.5 L 345.125 522.558594 L 341.375 522.558594 L 341.375 485.050781 L 337.976563 485.050781 L 337.976563 481.789063 Z M 349.214844 481.789063 "/>
<path style=" stroke:none;fill-rule:nonzero;fill:rgb(0%,0%,0%);fill-opacity:1;" d="M 327.039063 481.027344 C 329.4375 481.027344 331.269531 482.8125 332.535156 486.378906 C 333.808594 489.941406 334.441406 495.074219 334.441406 501.78125 C 334.441406 508.484375 333.808594 513.621094 332.535156 517.195313 C 331.269531 520.773438 329.4375 522.558594 327.039063 522.558594 C 324.660156 522.558594 322.835938 520.773438 321.570313 517.195313 C 320.296875 513.621094 319.660156 508.484375 319.660156 501.78125 C 319.660156 495.074219 320.296875 489.941406 321.570313 486.378906 C 322.835938 482.8125 324.660156 481.027344 327.039063 481.027344 Z M 327.039063 484.148438 C 326.082031 484.148438 325.425781 485.121094 325.058594 487.074219 C 324.699219 489.023438 324.519531 493.925781 324.519531 501.78125 C 324.519531 509.578125 324.699219 514.472656 325.058594 516.460938 C 325.425781 518.445313 326.082031 519.4375 327.039063 519.4375 C 328.011719 519.4375 328.679688 518.460938 329.046875 516.511719 C 329.40625 514.5625 329.582031 509.652344 329.582031 501.78125 C 329.582031 493.925781 329.40625 489.023438 329.046875 487.074219 C 328.679688 485.121094 328.011719 484.148438 327.039063 484.148438 Z M 327.039063 484.148438 "/>
<path style=" stroke:none;fill-rule:nonzero;fill:rgb(0%,0%,0%);fill-opacity:1;" d="M 105.996094 29.523438 C 98.925781 42.238281 74.828125 53.886719 74.78125 69.957031 C 74.761719 77.542969 81.769531 83.65625 90.390625 83.65625 C 95.882813 83.65625 100.761719 81.191406 103.542969 77.417969 C 102.382813 88.34375 99.265625 100.554688 87.882813 102.871094 L 124.113281 102.871094 C 112.730469 100.554688 109.613281 88.34375 108.449219 77.417969 C 111.230469 81.191406 116.113281 83.65625 121.605469 83.65625 C 130.226563 83.65625 137.234375 77.542969 137.210938 69.957031 C 137.164063 53.886719 113.066406 42.238281 105.996094 29.523438 Z M 105.996094 29.523438 "/>
<path style=" stroke:none;fill-rule:nonzero;fill:rgb(0%,0%,0%);fill-opacity:1;" d="M 36.351563 65.867188 C 34.226563 69.6875 26.992188 73.1875 26.972656 78.019531 C 26.972656 80.300781 29.070313 82.136719 31.664063 82.136719 C 33.3125 82.136719 34.78125 81.398438 35.617188 80.261719 C 35.265625 83.546875 34.328125 87.214844 30.910156 87.914063 L 41.796875 87.914063 C 38.378906 87.214844 37.441406 83.546875 37.089844 80.261719 C 37.925781 81.398438 39.394531 82.136719 41.042969 82.136719 C 43.636719 82.136719 45.734375 80.300781 45.734375 78.019531 C 45.714844 73.1875 38.480469 69.6875 36.351563 65.867188 Z M 36.351563 65.867188 "/>
<path style=" stroke:none;fill-rule:nonzero;fill:rgb(0%,0%,0%);fill-opacity:1;" d="M 334.648438 473.457031 C 332.519531 469.636719 325.285156 466.132813 325.265625 461.304688 C 325.265625 459.023438 327.363281 457.183594 329.957031 457.183594 C 331.605469 457.183594 333.074219 457.925781 333.910156 459.058594 C 333.558594 455.777344 332.621094 452.105469 329.203125 451.410156 L 340.089844 451.410156 C 336.671875 452.105469 335.734375 455.777344 335.382813 459.058594 C 336.21875 457.925781 337.6875 457.183594 339.335938 457.183594 C 341.929688 457.183594 344.027344 459.023438 344.027344 461.304688 C 344.007813 466.132813 336.773438 469.636719 334.648438 473.457031 Z M 334.648438 473.457031 "/>
<path style=" stroke:none;fill-rule:nonzero;fill:rgb(0%,0%,0%);fill-opacity:1;" d="M 262.914063 510.429688 C 255.84375 497.710938 231.746094 486.0625 231.699219 469.996094 C 231.679688 462.40625 238.6875 456.292969 247.308594 456.292969 C 252.800781 456.292969 257.679688 458.757813 260.460938 462.53125 C 259.300781 451.605469 256.183594 439.398438 244.800781 437.082031 L 281.03125 437.082031 C 269.644531 439.398438 266.527344 451.605469 265.367188 462.53125 C 268.148438 458.757813 273.027344 456.292969 278.519531 456.292969 C 287.140625 456.292969 294.148438 462.40625 294.128906 469.996094 C 294.082031 486.0625 269.984375 497.710938 262.914063 510.429688 Z M 262.914063 510.429688 "/>
<path style=" stroke:none;fill-rule:nonzero;fill:rgb(0%,0%,0%);fill-opacity:1;" d="M 105.996094 510.429688 C 98.925781 497.710938 74.828125 486.0625 74.78125 469.996094 C 74.761719 462.40625 81.769531 456.292969 90.390625 456.292969 C 95.882813 456.292969 100.761719 458.757813 103.542969 462.53125 C 102.382813 451.605469 99.265625 439.398438 87.882813 437.082031 L 124.113281 437.082031 C 112.730469 439.398438 109.613281 451.605469 108.449219 462.53125 C 111.230469 458.757813 116.113281 456.292969 121.605469 456.292969 C 130.226563 456.292969 137.234375 462.40625 137.210938 469.996094 C 137.164063 486.0625 113.066406 497.710938 105.996094 510.429688 Z M 105.996094 510.429688 "/>
<path style=" stroke:none;fill-rule:nonzero;fill:rgb(0%,0%,0%);fill-opacity:1;" d="M 185.5 442.503906 C 178.429688 429.785156 154.332031 418.136719 154.285156 402.070313 C 154.265625 394.480469 161.273438 388.367188 169.894531 388.367188 C 175.386719 388.367188 180.265625 390.832031 183.046875 394.605469 C 181.886719 383.679688 178.769531 371.472656 167.386719 369.152344 L 203.613281 369.152344 C 192.230469 371.472656 189.113281 383.679688 187.953125 394.605469 C 190.734375 390.832031 195.613281 388.367188 201.105469 388.367188 C 209.726563 388.367188 216.734375 394.480469 216.714844 402.070313 C 216.667969 418.136719 192.570313 429.785156 185.5 442.503906 Z M 185.5 442.503906 "/>
<path style=" stroke:none;fill-rule:nonzero;fill:rgb(0%,0%,0%);fill-opacity:1;" d="M 260.246094 374.574219 C 253.175781 361.859375 229.078125 350.210938 229.03125 334.140625 C 229.007813 326.554688 236.015625 320.441406 244.636719 320.441406 C 250.128906 320.441406 255.011719 322.90625 257.792969 326.679688 C 256.628906 315.753906 253.511719 303.542969 242.128906 301.226563 L 278.359375 301.226563 C 266.976563 303.542969 263.859375 315.753906 262.699219 326.679688 C 265.480469 322.90625 270.359375 320.441406 275.851563 320.441406 C 284.472656 320.441406 291.480469 326.554688 291.457031 334.140625 C 291.414063 350.210938 267.316406 361.859375 260.246094 374.574219 Z M 260.246094 374.574219 "/>
<path style=" stroke:none;fill-rule:nonzero;fill:rgb(0%,0%,0%);fill-opacity:1;" d="M 105.996094 374.574219 C 98.925781 361.859375 74.828125 350.210938 74.78125 334.140625 C 74.761719 326.554688 81.769531 320.441406 90.390625 320.441406 C 95.882813 320.441406 100.761719 322.90625 103.542969 326.679688 C 102.382813 315.753906 99.265625 303.542969 87.882813 301.226563 L 124.113281 301.226563 C 112.730469 303.542969 109.613281 315.753906 108.449219 326.679688 C 111.230469 322.90625 116.113281 320.441406 121.605469 320.441406 C 130.226563 320.441406 137.234375 326.554688 137.210938 334.140625 C 137.164063 350.210938 113.066406 361.859375 105.996094 374.574219 Z M 105.996094 374.574219 "/>
<path style=" stroke:none;fill-rule:nonzero;fill:rgb(0%,0%,0%);fill-opacity:1;" d="M 262.914063 165.375 C 255.84375 178.089844 231.746094 189.738281 231.699219 205.808594 C 231.679688 213.394531 238.6875 219.507813 247.308594 219.507813 C 252.800781 219.507813 257.679688 217.046875 260.460938 213.269531 C 259.300781 224.195313 256.183594 236.40625 244.800781 238.722656 L 281.03125 238.722656 C 269.644531 236.40625 266.527344 224.195313 265.367188 213.269531 C 268.148438 217.046875 273.027344 219.507813 278.519531 219.507813 C 287.140625 219.507813 294.148438 213.394531 294.128906 205.808594 C 294.082031 189.738281 269.984375 178.089844 262.914063 165.375 Z M 262.914063 165.375 "/>
<path style=" stroke:none;fill-rule:nonzero;fill:rgb(0%,0%,0%);fill-opacity:1;" d="M 105.996094 165.375 C 98.925781 178.089844 74.828125 189.738281 74.78125 205.808594 C 74.761719 213.394531 81.769531 219.507813 90.390625 219.507813 C 95.882813 219.507813 100.761719 217.046875 103.542969 213.269531 C 102.382813 224.195313 99.265625 236.40625 87.882813 238.722656 L 124.113281 238.722656 C 112.730469 236.40625 109.613281 224.195313 108.449219 213.269531 C 111.230469 217.046875 116.113281 219.507813 121.605469 219.507813 C 130.226563 219.507813 137.234375 213.394531 137.210938 205.808594 C 137.164063 189.738281 113.066406 178.089844 105.996094 165.375 Z M 105.996094 165.375 "/>
<path style=" stroke:none;fill-rule:nonzero;fill:rgb(0%,0%,0%);fill-opacity:1;" d="M 185.5 97.449219 C 178.429688 110.164063 154.332031 121.8125 154.285156 137.882813 C 154.265625 145.46875 161.273438 151.582031 169.894531 151.582031 C 175.386719 151.582031 180.265625 149.121094 183.046875 145.34375 C 181.886719 156.269531 178.769531 168.480469 167.386719 170.796875 L 203.613281 170.796875 C 192.230469 168.480469 189.113281 156.269531 187.953125 145.34375 C 190.734375 149.121094 195.613281 151.582031 201.105469 151.582031 C 209.726563 151.582031 216.734375 145.46875 216.714844 137.882813 C 216.667969 121.8125 192.570313 110.164063 185.5 97.449219 Z M 185.5 97.449219 "/>
<path style=" stroke:none;fill-rule:nonzero;fill:rgb(0%,0%,0%);fill-opacity:1;" d="M 262.914063 29.523438 C 255.84375 42.238281 231.746094 53.886719 231.699219 69.957031 C 231.679688 77.542969 238.6875 83.65625 247.308594 83.65625 C 252.800781 83.65625 257.679688 81.191406 260.460938 77.417969 C 259.300781 88.34375 256.183594 100.554688 244.800781 102.871094 L 281.03125 102.871094 C 269.644531 100.554688 266.527344 88.34375 265.367188 77.417969 C 268.148438 81.191406 273.027344 83.65625 278.519531 83.65625 C 287.140625 83.65625 294.148438 77.542969 294.128906 69.957031 C 294.082031 53.886719 269.984375 42.238281 262.914063 29.523438 Z M 262.914063 29.523438 "/>
</g>
</svg>
