<?xml version="1.0" encoding="UTF-8"?>
<svg xmlns="http://www.w3.org/2000/svg" xmlns:xlink="http://www.w3.org/1999/xlink" width="371pt" height="540pt" viewBox="0 0 371 540" version="1.1">
<g id="surface1">
<path style="fill-rule:nonzero;fill:rgb(100%,100%,100%);fill-opacity:1;stroke-width:0.5;stroke-linecap:butt;stroke-linejoin:miter;stroke:rgb(0%,0%,0%);stroke-opacity:1;stroke-miterlimit:4;" d="M 166.836617 235.89229 C 166.836617 239.68485 163.750894 242.783692 159.966749 242.783692 L 7.110884 242.783692 C 3.335536 242.783692 0.249813 239.68485 0.249813 235.89229 L 0.249813 6.77519 C 0.249813 2.987912 3.335536 -0.116212 7.110884 -0.116212 L 159.966749 -0.116212 C 163.750894 -0.116212 166.836617 2.987912 166.836617 6.77519 Z M 166.836617 235.89229 " transform="matrix(2.220408,0,0,2.218571,0,0.812511)"/>
<path style=" stroke:none;fill-rule:nonzero;fill:rgb(0%,0%,0%);fill-opacity:1;" d="M 334.695313 473.457031 C 337.230469 473.457031 339.285156 471.402344 339.285156 468.871094 C 339.285156 467.5625 338.730469 466.386719 337.851563 465.550781 C 337.171875 464.90625 336.203125 463.441406 335.882813 462.265625 C 336.511719 462.644531 337.078125 463.078125 337.417969 463.433594 C 338.253906 464.3125 339.429688 464.851563 340.738281 464.851563 C 343.273438 464.851563 345.328125 462.796875 345.328125 460.265625 C 345.328125 457.730469 343.273438 455.679688 340.738281 455.679688 C 339.429688 455.679688 338.253906 456.234375 337.417969 457.113281 C 337.058594 457.488281 336.453125 457.964844 335.78125 458.363281 C 335.875 454.15625 337.320313 451.410156 339.953125 451.410156 C 339.953125 451.410156 329.421875 451.410156 329.421875 451.410156 C 332.0625 451.410156 333.523438 454.171875 333.613281 458.398438 C 332.90625 457.992188 332.25 457.503906 331.875 457.113281 C 331.039063 456.234375 329.863281 455.679688 328.554688 455.679688 C 326.019531 455.679688 323.964844 457.730469 323.964844 460.265625 C 323.964844 462.796875 326.019531 464.851563 328.554688 464.851563 C 329.863281 464.851563 331.039063 464.3125 331.875 463.433594 C 332.230469 463.0625 332.847656 462.621094 333.511719 462.234375 C 333.199219 463.414063 332.210938 464.898438 331.523438 465.550781 C 330.644531 466.386719 330.105469 467.5625 330.105469 468.871094 C 330.105469 471.402344 332.160156 473.457031 334.695313 473.457031 Z M 334.695313 473.457031 "/>
<path style=" stroke:none;fill-rule:nonzero;fill:rgb(0%,0%,0%);fill-opacity:1;" d="M 36.304688 65.867188 C 33.769531 65.867188 31.714844 67.917969 31.714844 70.453125 C 31.714844 71.757813 32.269531 72.933594 33.148438 73.769531 C 33.828125 74.417969 34.796875 75.882813 35.117188 77.054688 C 34.488281 76.675781 33.921875 76.246094 33.582031 75.886719 C 32.746094 75.011719 31.570313 74.472656 30.261719 74.472656 C 27.726563 74.472656 25.671875 76.523438 25.671875 79.058594 C 25.671875 81.589844 27.726563 83.644531 30.261719 83.644531 C 31.570313 83.644531 32.746094 83.085938 33.582031 82.210938 C 33.941406 81.832031 34.546875 81.355469 35.21875 80.957031 C 35.125 85.164063 33.679688 87.914063 31.046875 87.914063 C 31.046875 87.914063 41.578125 87.914063 41.578125 87.914063 C 38.9375 87.914063 37.476563 85.148438 37.386719 80.925781 C 38.09375 81.328125 38.75 81.816406 39.125 82.210938 C 39.960938 83.085938 41.136719 83.644531 42.445313 83.644531 C 44.980469 83.644531 47.035156 81.589844 47.035156 79.058594 C 47.035156 76.523438 44.980469 74.472656 42.445313 74.472656 C 41.136719 74.472656 39.960938 75.011719 39.125 75.886719 C 38.769531 76.261719 38.152344 76.703125 37.488281 77.089844 C 37.800781 75.910156 38.789063 74.421875 39.476563 73.769531 C 40.355469 72.933594 40.894531 71.757813 40.894531 70.453125 C 40.894531 67.917969 38.839844 65.867188 36.304688 65.867188 Z M 36.304688 65.867188 "/>
<path style=" stroke:none;fill-rule:nonzero;fill:rgb(0%,0%,0%);fill-opacity:1;" d="M 340.058594 481.410156 L 340.058594 484.667969 L 336.726563 484.667969 L 336.726563 517.054688 L 340.476563 512.121094 L 340.476563 516.117188 L 335.972656 522.175781 L 332.21875 522.175781 L 332.21875 484.667969 L 328.816406 484.667969 L 328.816406 481.410156 Z M 340.058594 481.410156 "/>
<path style=" stroke:none;fill-rule:nonzero;fill:rgb(0%,0%,0%);fill-opacity:1;" d="M 185.332031 233.339844 C 176.902344 233.339844 170.066406 240.164063 170.066406 248.589844 C 170.066406 252.941406 171.917969 256.847656 174.84375 259.628906 C 177.101563 261.777344 180.320313 266.648438 181.390625 270.554688 C 179.300781 269.296875 177.417969 267.859375 176.285156 266.671875 C 173.503906 263.75 169.589844 261.957031 165.238281 261.957031 C 156.804688 261.957031 149.972656 268.785156 149.972656 277.210938 C 149.972656 285.636719 156.804688 292.464844 165.238281 292.464844 C 169.589844 292.464844 173.503906 290.613281 176.285156 287.691406 C 177.480469 286.441406 179.496094 284.855469 181.726563 283.535156 C 181.414063 297.523438 176.609375 306.660156 167.847656 306.660156 C 167.847656 306.660156 202.875 306.660156 202.875 306.660156 C 194.089844 306.660156 189.230469 297.472656 188.941406 283.421875 C 191.292969 284.769531 193.476563 286.390625 194.714844 287.691406 C 197.496094 290.613281 201.410156 292.464844 205.761719 292.464844 C 214.195313 292.464844 221.027344 285.636719 221.027344 277.210938 C 221.027344 268.785156 214.195313 261.957031 205.761719 261.957031 C 201.410156 261.957031 197.496094 263.75 194.714844 266.671875 C 193.535156 267.910156 191.488281 269.375 189.273438 270.664063 C 190.3125 266.738281 193.597656 261.796875 195.878906 259.628906 C 198.804688 256.847656 200.597656 252.941406 200.597656 248.589844 C 200.597656 240.164063 193.765625 233.339844 185.332031 233.339844 Z M 185.332031 233.339844 "/>
<path style=" stroke:none;fill-rule:nonzero;fill:rgb(0%,0%,0%);fill-opacity:1;" d="M 30.941406 58.589844 L 30.941406 55.332031 L 34.273438 55.332031 L 34.273438 22.945313 L 30.523438 27.878906 L 30.523438 23.882813 L 35.027344 17.824219 L 38.78125 17.824219 L 38.78125 55.332031 L 42.183594 55.332031 L 42.183594 58.589844 Z M 30.941406 58.589844 "/>
</g>
</svg>
