<?xml version="1.0" encoding="UTF-8"?>
<svg xmlns="http://www.w3.org/2000/svg" xmlns:xlink="http://www.w3.org/1999/xlink" width="371pt" height="540pt" viewBox="0 0 371 540" version="1.1">
<g id="surface1">
<path style="fill-rule:nonzero;fill:rgb(100%,100%,100%);fill-opacity:1;stroke-width:0.5;stroke-linecap:butt;stroke-linejoin:miter;stroke:rgb(0%,0%,0%);stroke-opacity:1;stroke-miterlimit:4;" d="M 166.836617 235.89229 C 166.836617 239.68485 163.750894 242.783692 159.966749 242.783692 L 7.110884 242.783692 C 3.335536 242.783692 0.249813 239.68485 0.249813 235.89229 L 0.249813 6.77519 C 0.249813 2.987912 3.335536 -0.116212 7.110884 -0.116212 L 159.966749 -0.116212 C 163.750894 -0.116212 166.836617 2.987912 166.836617 6.77519 Z M 166.836617 235.89229 " transform="matrix(2.220408,0,0,2.218571,0,0.812511)"/>
<path style=" stroke:none;fill-rule:nonzero;fill:rgb(90.196078%,7.843137%,3.137255%);fill-opacity:1;" d="M 340.058594 481.410156 L 340.058594 484.667969 L 336.726563 484.667969 L 336.726563 517.054688 L 340.476563 512.121094 L 340.476563 516.117188 L 335.972656 522.175781 L 332.21875 522.175781 L 332.21875 484.667969 L 328.816406 484.667969 L 328.816406 481.410156 Z M 340.058594 481.410156 "/>
<path style=" stroke:none;fill-rule:nonzero;fill:rgb(90.196078%,7.843137%,3.137255%);fill-opacity:1;" d="M 30.941406 58.589844 L 30.941406 55.332031 L 34.273438 55.332031 L 34.273438 22.945313 L 30.523438 27.878906 L 30.523438 23.882813 L 35.027344 17.824219 L 38.78125 17.824219 L 38.78125 55.332031 L 42.183594 55.332031 L 42.183594 58.589844 Z M 30.941406 58.589844 "/>
<path style=" stroke:none;fill-rule:nonzero;fill:rgb(90.196078%,7.843137%,3.137255%);fill-opacity:1;" d="M 185.5 234.800781 C 185.441406 236.789063 184.261719 244.242188 171.398438 256.578125 C 159.019531 268.449219 153.238281 269.875 151.5 270 C 153.238281 270.125 159.019531 271.550781 171.398438 283.421875 C 184.261719 295.757813 185.441406 303.210938 185.5 305.199219 C 185.558594 303.210938 186.738281 295.757813 199.601563 283.421875 C 211.980469 271.550781 217.761719 270.125 219.5 270 C 217.761719 269.875 211.980469 268.449219 199.601563 256.578125 C 186.738281 244.242188 185.558594 236.789063 185.5 234.800781 Z M 185.5 234.800781 "/>
<path style=" stroke:none;fill-rule:nonzero;fill:rgb(90.196078%,7.843137%,3.137255%);fill-opacity:1;" d="M 36.351563 66.304688 C 36.335938 66.902344 35.980469 69.144531 32.113281 72.851563 C 28.390625 76.421875 26.652344 76.851563 26.128906 76.890625 C 26.652344 76.925781 28.390625 77.355469 32.113281 80.925781 C 35.980469 84.632813 36.335938 86.875 36.351563 87.472656 C 36.371094 86.875 36.726563 84.632813 40.59375 80.925781 C 44.316406 77.355469 46.054688 76.925781 46.578125 76.890625 C 46.054688 76.851563 44.316406 76.421875 40.59375 72.851563 C 36.726563 69.144531 36.371094 66.902344 36.351563 66.304688 Z M 36.351563 66.304688 "/>
<path style=" stroke:none;fill-rule:nonzero;fill:rgb(90.196078%,7.843137%,3.137255%);fill-opacity:1;" d="M 334.648438 451.851563 C 334.628906 452.449219 334.273438 454.6875 330.40625 458.398438 C 326.683594 461.96875 324.945313 462.394531 324.421875 462.433594 C 324.945313 462.472656 326.683594 462.898438 330.40625 466.46875 C 334.273438 470.179688 334.628906 472.417969 334.648438 473.015625 C 334.664063 472.417969 335.019531 470.179688 338.886719 466.46875 C 342.609375 462.898438 344.347656 462.472656 344.871094 462.433594 C 344.347656 462.394531 342.609375 461.96875 338.886719 458.398438 C 335.019531 454.6875 334.664063 452.449219 334.648438 451.851563 Z M 334.648438 451.851563 "/>
</g>
</svg>
