<?xml version="1.0" encoding="UTF-8"?>
<svg xmlns="http://www.w3.org/2000/svg" xmlns:xlink="http://www.w3.org/1999/xlink" width="371pt" height="540pt" viewBox="0 0 371 540" version="1.1">
<g id="surface1">
<path style="fill-rule:nonzero;fill:rgb(100%,100%,100%);fill-opacity:1;stroke-width:0.5;stroke-linecap:butt;stroke-linejoin:miter;stroke:rgb(0%,0%,0%);stroke-opacity:1;stroke-miterlimit:4;" d="M 166.836617 235.89229 C 166.836617 239.68485 163.750894 242.783692 159.966749 242.783692 L 7.110884 242.783692 C 3.335536 242.783692 0.249813 239.68485 0.249813 235.89229 L 0.249813 6.77519 C 0.249813 2.987912 3.335536 -0.116212 7.110884 -0.116212 L 159.966749 -0.116212 C 163.750894 -0.116212 166.836617 2.987912 166.836617 6.77519 Z M 166.836617 235.89229 " transform="matrix(2.220408,0,0,2.218571,0,0.812511)"/>
<path style=" stroke:none;fill-rule:nonzero;fill:rgb(0%,0%,0%);fill-opacity:1;" d="M 340.058594 481.410156 L 340.058594 484.667969 L 336.726563 484.667969 L 336.726563 517.054688 L 340.476563 512.121094 L 340.476563 516.117188 L 335.972656 522.175781 L 332.21875 522.175781 L 332.21875 484.667969 L 328.816406 484.667969 L 328.816406 481.410156 Z M 340.058594 481.410156 "/>
<path style=" stroke:none;fill-rule:nonzero;fill:rgb(0%,0%,0%);fill-opacity:1;" d="M 30.941406 58.589844 L 30.941406 55.332031 L 34.273438 55.332031 L 34.273438 22.945313 L 30.523438 27.878906 L 30.523438 23.882813 L 35.027344 17.824219 L 38.78125 17.824219 L 38.78125 55.332031 L 42.183594 55.332031 L 42.183594 58.589844 Z M 30.941406 58.589844 "/>
<path style=" stroke:none;fill-rule:nonzero;fill:rgb(0%,0%,0%);fill-opacity:1;" d="M 185.5 233.324219 C 178.429688 246.042969 154.332031 257.691406 154.285156 273.757813 C 154.265625 281.347656 161.273438 287.460938 169.894531 287.460938 C 175.386719 287.460938 180.265625 284.996094 183.046875 281.222656 C 181.886719 292.148438 178.769531 304.355469 167.386719 306.675781 L 203.613281 306.675781 C 192.230469 304.355469 189.113281 292.148438 187.953125 281.222656 C 190.734375 284.996094 195.613281 287.460938 201.105469 287.460938 C 209.726563 287.460938 216.734375 281.347656 216.714844 273.757813 C 216.667969 257.691406 192.570313 246.042969 185.5 233.324219 Z M 185.5 233.324219 "/>
<path style=" stroke:none;fill-rule:nonzero;fill:rgb(0%,0%,0%);fill-opacity:1;" d="M 36.351563 65.867188 C 34.226563 69.6875 26.992188 73.1875 26.972656 78.019531 C 26.972656 80.300781 29.070313 82.136719 31.664063 82.136719 C 33.3125 82.136719 34.78125 81.398438 35.617188 80.261719 C 35.265625 83.546875 34.328125 87.214844 30.910156 87.914063 L 41.796875 87.914063 C 38.378906 87.214844 37.441406 83.546875 37.089844 80.261719 C 37.925781 81.398438 39.394531 82.136719 41.042969 82.136719 C 43.636719 82.136719 45.734375 80.300781 45.734375 78.019531 C 45.714844 73.1875 38.480469 69.6875 36.351563 65.867188 Z M 36.351563 65.867188 "/>
<path style=" stroke:none;fill-rule:nonzero;fill:rgb(0%,0%,0%);fill-opacity:1;" d="M 334.648438 473.457031 C 332.519531 469.636719 325.285156 466.132813 325.265625 461.304688 C 325.265625 459.023438 327.363281 457.183594 329.957031 457.183594 C 331.605469 457.183594 333.074219 457.925781 333.910156 459.058594 C 333.558594 455.777344 332.621094 452.105469 329.203125 451.410156 L 340.089844 451.410156 C 336.671875 452.105469 335.734375 455.777344 335.382813 459.058594 C 336.21875 457.925781 337.6875 457.183594 339.335938 457.183594 C 341.929688 457.183594 344.027344 459.023438 344.027344 461.304688 C 344.007813 466.132813 336.773438 469.636719 334.648438 473.457031 Z M 334.648438 473.457031 "/>
</g>
</svg>
