<?xml version="1.0" encoding="UTF-8"?>
<svg xmlns="http://www.w3.org/2000/svg" xmlns:xlink="http://www.w3.org/1999/xlink" width="371pt" height="540pt" viewBox="0 0 371 540" version="1.1">
<g id="surface1">
<path style="fill-rule:nonzero;fill:rgb(100%,100%,100%);fill-opacity:1;stroke-width:0.5;stroke-linecap:butt;stroke-linejoin:miter;stroke:rgb(0%,0%,0%);stroke-opacity:1;stroke-miterlimit:4;" d="M 166.836617 235.89229 C 166.836617 239.68485 163.750894 242.783692 159.966749 242.783692 L 7.110884 242.783692 C 3.335536 242.783692 0.249813 239.68485 0.249813 235.89229 L 0.249813 6.77519 C 0.249813 2.987912 3.335536 -0.116212 7.110884 -0.116212 L 159.966749 -0.116212 C 163.750894 -0.116212 166.836617 2.987912 166.836617 6.77519 Z M 166.836617 235.89229 " transform="matrix(2.220408,0,0,2.218571,0,0.812511)"/>
<path style=" stroke:none;fill-rule:nonzero;fill:rgb(0%,0%,0%);fill-opacity:1;" d="M 31.324219 28.433594 L 29.867188 28.433594 L 29.867188 19.835938 C 30.851563 19.164063 31.820313 18.664063 32.777344 18.328125 C 33.734375 17.992188 34.695313 17.824219 35.664063 17.824219 C 37.9375 17.824219 39.710938 18.867188 40.992188 20.953125 C 42.269531 23.039063 42.910156 25.941406 42.910156 29.664063 C 42.910156 32.3125 42.558594 34.6875 41.855469 36.789063 C 41.152344 38.894531 39.8125 41.386719 37.835938 44.265625 L 32.855469 51.589844 L 41.316406 51.589844 L 41.316406 46.875 L 42.980469 46.875 L 42.980469 58.589844 L 29.726563 58.589844 L 29.726563 52.066406 L 32.371094 47.972656 C 34.652344 44.480469 36.167969 41.507813 36.921875 39.050781 C 37.675781 36.597656 38.054688 33.734375 38.054688 30.457031 C 38.054688 27.355469 37.765625 24.996094 37.191406 23.375 C 36.617188 21.753906 35.785156 20.945313 34.6875 20.945313 C 33.734375 20.945313 32.976563 21.585938 32.414063 22.863281 C 31.847656 24.144531 31.484375 26 31.324219 28.433594 Z M 31.324219 28.433594 "/>
<path style=" stroke:none;fill-rule:nonzero;fill:rgb(0%,0%,0%);fill-opacity:1;" d="M 339.675781 511.566406 L 341.132813 511.566406 L 341.132813 520.164063 C 340.148438 520.835938 339.179688 521.339844 338.222656 521.671875 C 337.265625 522.007813 336.304688 522.175781 335.335938 522.175781 C 333.0625 522.175781 331.289063 521.132813 330.007813 519.050781 C 328.730469 516.960938 328.089844 514.058594 328.089844 510.335938 C 328.089844 507.691406 328.441406 505.3125 329.144531 503.210938 C 329.847656 501.109375 331.1875 498.617188 333.164063 495.734375 L 338.140625 488.410156 L 329.683594 488.410156 L 329.683594 493.125 L 328.019531 493.125 L 328.019531 481.410156 L 341.273438 481.410156 L 341.273438 487.933594 L 338.628906 492.03125 C 336.347656 495.523438 334.832031 498.496094 334.078125 500.949219 C 333.324219 503.402344 332.945313 506.269531 332.945313 509.542969 C 332.945313 512.644531 333.234375 515.003906 333.808594 516.625 C 334.382813 518.246094 335.214844 519.054688 336.3125 519.054688 C 337.265625 519.054688 338.019531 518.417969 338.589844 517.136719 C 339.152344 515.859375 339.515625 514.003906 339.675781 511.566406 Z M 339.675781 511.566406 "/>
<path style=" stroke:none;fill-rule:nonzero;fill:rgb(0%,0%,0%);fill-opacity:1;" d="M 334.695313 473.457031 C 337.230469 473.457031 339.285156 471.402344 339.285156 468.871094 C 339.285156 467.5625 338.730469 466.386719 337.851563 465.550781 C 337.171875 464.90625 336.203125 463.441406 335.882813 462.265625 C 336.511719 462.644531 337.078125 463.078125 337.417969 463.433594 C 338.253906 464.3125 339.429688 464.851563 340.738281 464.851563 C 343.273438 464.851563 345.328125 462.796875 345.328125 460.265625 C 345.328125 457.730469 343.273438 455.679688 340.738281 455.679688 C 339.429688 455.679688 338.253906 456.234375 337.417969 457.113281 C 337.058594 457.488281 336.453125 457.964844 335.78125 458.363281 C 335.875 454.15625 337.320313 451.410156 339.953125 451.410156 C 339.953125 451.410156 329.421875 451.410156 329.421875 451.410156 C 332.0625 451.410156 333.523438 454.171875 333.613281 458.398438 C 332.90625 457.992188 332.25 457.503906 331.875 457.113281 C 331.039063 456.234375 329.863281 455.679688 328.554688 455.679688 C 326.019531 455.679688 323.964844 457.730469 323.964844 460.265625 C 323.964844 462.796875 326.019531 464.851563 328.554688 464.851563 C 329.863281 464.851563 331.039063 464.3125 331.875 463.433594 C 332.230469 463.0625 332.847656 462.621094 333.511719 462.234375 C 333.199219 463.414063 332.210938 464.898438 331.523438 465.550781 C 330.644531 466.386719 330.105469 467.5625 330.105469 468.871094 C 330.105469 471.402344 332.160156 473.457031 334.695313 473.457031 Z M 334.695313 473.457031 "/>
<path style=" stroke:none;fill-rule:nonzero;fill:rgb(0%,0%,0%);fill-opacity:1;" d="M 36.304688 65.867188 C 33.769531 65.867188 31.714844 67.917969 31.714844 70.453125 C 31.714844 71.757813 32.269531 72.933594 33.148438 73.769531 C 33.828125 74.417969 34.796875 75.882813 35.117188 77.054688 C 34.488281 76.675781 33.921875 76.246094 33.582031 75.886719 C 32.746094 75.011719 31.570313 74.472656 30.261719 74.472656 C 27.726563 74.472656 25.671875 76.523438 25.671875 79.058594 C 25.671875 81.589844 27.726563 83.644531 30.261719 83.644531 C 31.570313 83.644531 32.746094 83.085938 33.582031 82.210938 C 33.941406 81.832031 34.546875 81.355469 35.21875 80.957031 C 35.125 85.164063 33.679688 87.914063 31.046875 87.914063 C 31.046875 87.914063 41.578125 87.914063 41.578125 87.914063 C 38.9375 87.914063 37.476563 85.148438 37.386719 80.925781 C 38.09375 81.328125 38.75 81.816406 39.125 82.210938 C 39.960938 83.085938 41.136719 83.644531 42.445313 83.644531 C 44.980469 83.644531 47.035156 81.589844 47.035156 79.058594 C 47.035156 76.523438 44.980469 74.472656 42.445313 74.472656 C 41.136719 74.472656 39.960938 75.011719 39.125 75.886719 C 38.769531 76.261719 38.152344 76.703125 37.488281 77.089844 C 37.800781 75.910156 38.789063 74.421875 39.476563 73.769531 C 40.355469 72.933594 40.894531 71.757813 40.894531 70.453125 C 40.894531 67.917969 38.839844 65.867188 36.304688 65.867188 Z M 36.304688 65.867188 "/>
<path style=" stroke:none;fill-rule:nonzero;fill:rgb(0%,0%,0%);fill-opacity:1;" d="M 185.332031 29.582031 C 176.902344 29.582031 170.066406 36.410156 170.066406 44.835938 C 170.066406 49.183594 171.917969 53.09375 174.84375 55.875 C 177.101563 58.023438 180.320313 62.894531 181.390625 66.800781 C 179.300781 65.539063 177.417969 64.105469 176.285156 62.917969 C 173.503906 59.996094 169.589844 58.203125 165.238281 58.203125 C 156.804688 58.203125 149.972656 65.03125 149.972656 73.457031 C 149.972656 81.882813 156.804688 88.707031 165.238281 88.707031 C 169.589844 88.707031 173.503906 86.859375 176.285156 83.9375 C 177.480469 82.6875 179.496094 81.101563 181.726563 79.777344 C 181.414063 93.765625 176.609375 102.90625 167.847656 102.90625 C 167.847656 102.90625 202.875 102.90625 202.875 102.90625 C 194.089844 102.90625 189.230469 93.71875 188.941406 79.667969 C 191.292969 81.015625 193.476563 82.636719 194.714844 83.9375 C 197.496094 86.859375 201.410156 88.707031 205.761719 88.707031 C 214.195313 88.707031 221.027344 81.882813 221.027344 73.457031 C 221.027344 65.03125 214.195313 58.203125 205.761719 58.203125 C 201.410156 58.203125 197.496094 59.996094 194.714844 62.917969 C 193.535156 64.15625 191.488281 65.621094 189.273438 66.910156 C 190.3125 62.984375 193.597656 58.042969 195.878906 55.875 C 198.804688 53.09375 200.597656 49.183594 200.597656 44.835938 C 200.597656 36.410156 193.765625 29.582031 185.332031 29.582031 Z M 185.332031 29.582031 "/>
<path style=" stroke:none;fill-rule:nonzero;fill:rgb(0%,0%,0%);fill-opacity:1;" d="M 185.332031 510.417969 C 176.902344 510.417969 170.066406 503.589844 170.066406 495.164063 C 170.066406 490.816406 171.917969 486.90625 174.84375 484.125 C 177.101563 481.976563 180.320313 477.105469 181.390625 473.199219 C 179.300781 474.460938 177.417969 475.894531 176.285156 477.082031 C 173.503906 480.003906 169.589844 481.796875 165.238281 481.796875 C 156.804688 481.796875 149.972656 474.96875 149.972656 466.542969 C 149.972656 458.117188 156.804688 451.292969 165.238281 451.292969 C 169.589844 451.292969 173.503906 453.140625 176.285156 456.0625 C 177.480469 457.3125 179.496094 458.898438 181.726563 460.222656 C 181.414063 446.234375 176.609375 437.09375 167.847656 437.09375 C 167.847656 437.09375 202.875 437.09375 202.875 437.09375 C 194.089844 437.09375 189.230469 446.28125 188.941406 460.332031 C 191.292969 458.984375 193.476563 457.363281 194.714844 456.0625 C 197.496094 453.140625 201.410156 451.292969 205.761719 451.292969 C 214.195313 451.292969 221.027344 458.117188 221.027344 466.542969 C 221.027344 474.96875 214.195313 481.796875 205.761719 481.796875 C 201.410156 481.796875 197.496094 480.003906 194.714844 477.082031 C 193.535156 475.84375 191.488281 474.378906 189.273438 473.089844 C 190.3125 477.015625 193.597656 481.957031 195.878906 484.125 C 198.804688 486.90625 200.597656 490.816406 200.597656 495.164063 C 200.597656 503.589844 193.765625 510.417969 185.332031 510.417969 Z M 185.332031 510.417969 "/>
</g>
</svg>
