<?xml version="1.0" encoding="UTF-8"?>
<svg xmlns="http://www.w3.org/2000/svg" xmlns:xlink="http://www.w3.org/1999/xlink" width="371pt" height="540pt" viewBox="0 0 371 540" version="1.1">
<g id="surface1">
<path style="fill-rule:nonzero;fill:rgb(100%,100%,100%);fill-opacity:1;stroke-width:0.5;stroke-linecap:butt;stroke-linejoin:miter;stroke:rgb(0%,0%,0%);stroke-opacity:1;stroke-miterlimit:4;" d="M 166.836617 235.89229 C 166.836617 239.68485 163.750894 242.783692 159.966749 242.783692 L 7.110884 242.783692 C 3.335536 242.783692 0.249813 239.68485 0.249813 235.89229 L 0.249813 6.77519 C 0.249813 2.987912 3.335536 -0.116212 7.110884 -0.116212 L 159.966749 -0.116212 C 163.750894 -0.116212 166.836617 2.987912 166.836617 6.77519 Z M 166.836617 235.89229 " transform="matrix(2.220408,0,0,2.218571,0,0.812511)"/>
<path style=" stroke:none;fill-rule:nonzero;fill:rgb(90.196078%,7.843137%,3.137255%);fill-opacity:1;" d="M 31.324219 28.433594 L 29.867188 28.433594 L 29.867188 19.835938 C 30.851563 19.164063 31.820313 18.664063 32.777344 18.328125 C 33.734375 17.992188 34.695313 17.824219 35.664063 17.824219 C 37.9375 17.824219 39.710938 18.867188 40.992188 20.953125 C 42.269531 23.039063 42.910156 25.941406 42.910156 29.664063 C 42.910156 32.3125 42.558594 34.6875 41.855469 36.789063 C 41.152344 38.894531 39.8125 41.386719 37.835938 44.265625 L 32.855469 51.589844 L 41.316406 51.589844 L 41.316406 46.875 L 42.980469 46.875 L 42.980469 58.589844 L 29.726563 58.589844 L 29.726563 52.066406 L 32.371094 47.972656 C 34.652344 44.480469 36.167969 41.507813 36.921875 39.050781 C 37.675781 36.597656 38.054688 33.734375 38.054688 30.457031 C 38.054688 27.355469 37.765625 24.996094 37.191406 23.375 C 36.617188 21.753906 35.785156 20.945313 34.6875 20.945313 C 33.734375 20.945313 32.976563 21.585938 32.414063 22.863281 C 31.847656 24.144531 31.484375 26 31.324219 28.433594 Z M 31.324219 28.433594 "/>
<path style=" stroke:none;fill-rule:nonzero;fill:rgb(90.196078%,7.843137%,3.137255%);fill-opacity:1;" d="M 339.675781 511.566406 L 341.132813 511.566406 L 341.132813 520.164063 C 340.148438 520.835938 339.179688 521.339844 338.222656 521.671875 C 337.265625 522.007813 336.304688 522.175781 335.335938 522.175781 C 333.0625 522.175781 331.289063 521.132813 330.007813 519.050781 C 328.730469 516.960938 328.089844 514.058594 328.089844 510.335938 C 328.089844 507.691406 328.441406 505.3125 329.144531 503.210938 C 329.847656 501.109375 331.1875 498.617188 333.164063 495.734375 L 338.140625 488.410156 L 329.683594 488.410156 L 329.683594 493.125 L 328.019531 493.125 L 328.019531 481.410156 L 341.273438 481.410156 L 341.273438 487.933594 L 338.628906 492.03125 C 336.347656 495.523438 334.832031 498.496094 334.078125 500.949219 C 333.324219 503.402344 332.945313 506.269531 332.945313 509.542969 C 332.945313 512.644531 333.234375 515.003906 333.808594 516.625 C 334.382813 518.246094 335.214844 519.054688 336.3125 519.054688 C 337.265625 519.054688 338.019531 518.417969 338.589844 517.136719 C 339.152344 515.859375 339.515625 514.003906 339.675781 511.566406 Z M 339.675781 511.566406 "/>
<path style=" stroke:none;fill-rule:nonzero;fill:rgb(90.196078%,7.843137%,3.137255%);fill-opacity:1;" d="M 185.5 31.046875 C 185.441406 33.035156 184.261719 40.488281 171.398438 52.824219 C 159.019531 64.695313 153.238281 66.121094 151.5 66.246094 C 153.238281 66.371094 159.019531 67.796875 171.398438 79.667969 C 184.261719 92.003906 185.441406 99.457031 185.5 101.445313 C 185.558594 99.457031 186.738281 92.003906 199.601563 79.667969 C 211.980469 67.796875 217.761719 66.371094 219.5 66.246094 C 217.761719 66.121094 211.980469 64.695313 199.601563 52.824219 C 186.738281 40.488281 185.558594 33.035156 185.5 31.046875 Z M 185.5 31.046875 "/>
<path style=" stroke:none;fill-rule:nonzero;fill:rgb(90.196078%,7.843137%,3.137255%);fill-opacity:1;" d="M 36.351563 66.304688 C 36.335938 66.902344 35.980469 69.144531 32.113281 72.851563 C 28.390625 76.421875 26.652344 76.851563 26.128906 76.890625 C 26.652344 76.925781 28.390625 77.355469 32.113281 80.925781 C 35.980469 84.632813 36.335938 86.875 36.351563 87.472656 C 36.371094 86.875 36.726563 84.632813 40.59375 80.925781 C 44.316406 77.355469 46.054688 76.925781 46.578125 76.890625 C 46.054688 76.851563 44.316406 76.421875 40.59375 72.851563 C 36.726563 69.144531 36.371094 66.902344 36.351563 66.304688 Z M 36.351563 66.304688 "/>
<path style=" stroke:none;fill-rule:nonzero;fill:rgb(90.196078%,7.843137%,3.137255%);fill-opacity:1;" d="M 334.648438 451.851563 C 334.628906 452.449219 334.273438 454.6875 330.40625 458.398438 C 326.683594 461.96875 324.945313 462.394531 324.421875 462.433594 C 324.945313 462.472656 326.683594 462.898438 330.40625 466.46875 C 334.273438 470.179688 334.628906 472.417969 334.648438 473.015625 C 334.664063 472.417969 335.019531 470.179688 338.886719 466.46875 C 342.609375 462.898438 344.347656 462.472656 344.871094 462.433594 C 344.347656 462.394531 342.609375 461.96875 338.886719 458.398438 C 335.019531 454.6875 334.664063 452.449219 334.648438 451.851563 Z M 334.648438 451.851563 "/>
<path style=" stroke:none;fill-rule:nonzero;fill:rgb(90.196078%,7.843137%,3.137255%);fill-opacity:1;" d="M 185.5 438.554688 C 185.441406 440.542969 184.261719 447.996094 171.398438 460.332031 C 159.019531 472.203125 153.238281 473.628906 151.5 473.753906 C 153.238281 473.878906 159.019531 475.304688 171.398438 487.175781 C 184.261719 499.511719 185.441406 506.964844 185.5 508.953125 C 185.558594 506.964844 186.738281 499.511719 199.601563 487.175781 C 211.980469 475.304688 217.761719 473.878906 219.5 473.753906 C 217.761719 473.628906 211.980469 472.203125 199.601563 460.332031 C 186.738281 447.996094 185.558594 440.542969 185.5 438.554688 Z M 185.5 438.554688 "/>
</g>
</svg>
