<?xml version="1.0" encoding="UTF-8"?>
<svg xmlns="http://www.w3.org/2000/svg" xmlns:xlink="http://www.w3.org/1999/xlink" width="371pt" height="540pt" viewBox="0 0 371 540" version="1.1">
<g id="surface1">
<path style="fill-rule:nonzero;fill:rgb(100%,100%,100%);fill-opacity:1;stroke-width:0.5;stroke-linecap:butt;stroke-linejoin:miter;stroke:rgb(0%,0%,0%);stroke-opacity:1;stroke-miterlimit:4;" d="M 166.836617 235.89229 C 166.836617 239.68485 163.750894 242.783692 159.966749 242.783692 L 7.110884 242.783692 C 3.335536 242.783692 0.249813 239.68485 0.249813 235.89229 L 0.249813 6.77519 C 0.249813 2.987912 3.335536 -0.116212 7.110884 -0.116212 L 159.966749 -0.116212 C 163.750894 -0.116212 166.836617 2.987912 166.836617 6.77519 Z M 166.836617 235.89229 " transform="matrix(2.220408,0,0,2.218571,0,0.812511)"/>
<path style=" stroke:none;fill-rule:nonzero;fill:rgb(0%,0%,0%);fill-opacity:1;" d="M 31.324219 28.433594 L 29.867188 28.433594 L 29.867188 19.835938 C 30.851563 19.164063 31.820313 18.664063 32.777344 18.328125 C 33.734375 17.992188 34.695313 17.824219 35.664063 17.824219 C 37.9375 17.824219 39.710938 18.867188 40.992188 20.953125 C 42.269531 23.039063 42.910156 25.941406 42.910156 29.664063 C 42.910156 32.3125 42.558594 34.6875 41.855469 36.789063 C 41.152344 38.894531 39.8125 41.386719 37.835938 44.265625 L 32.855469 51.589844 L 41.316406 51.589844 L 41.316406 46.875 L 42.980469 46.875 L 42.980469 58.589844 L 29.726563 58.589844 L 29.726563 52.066406 L 32.371094 47.972656 C 34.652344 44.480469 36.167969 41.507813 36.921875 39.050781 C 37.675781 36.597656 38.054688 33.734375 38.054688 30.457031 C 38.054688 27.355469 37.765625 24.996094 37.191406 23.375 C 36.617188 21.753906 35.785156 20.945313 34.6875 20.945313 C 33.734375 20.945313 32.976563 21.585938 32.414063 22.863281 C 31.847656 24.144531 31.484375 26 31.324219 28.433594 Z M 31.324219 28.433594 "/>
<path style=" stroke:none;fill-rule:nonzero;fill:rgb(0%,0%,0%);fill-opacity:1;" d="M 339.675781 511.566406 L 341.132813 511.566406 L 341.132813 520.164063 C 340.148438 520.835938 339.179688 521.339844 338.222656 521.671875 C 337.265625 522.007813 336.304688 522.175781 335.335938 522.175781 C 333.0625 522.175781 331.289063 521.132813 330.007813 519.050781 C 328.730469 516.960938 328.089844 514.058594 328.089844 510.335938 C 328.089844 507.691406 328.441406 505.3125 329.144531 503.210938 C 329.847656 501.109375 331.1875 498.617188 333.164063 495.734375 L 338.140625 488.410156 L 329.683594 488.410156 L 329.683594 493.125 L 328.019531 493.125 L 328.019531 481.410156 L 341.273438 481.410156 L 341.273438 487.933594 L 338.628906 492.03125 C 336.347656 495.523438 334.832031 498.496094 334.078125 500.949219 C 333.324219 503.402344 332.945313 506.269531 332.945313 509.542969 C 332.945313 512.644531 333.234375 515.003906 333.808594 516.625 C 334.382813 518.246094 335.214844 519.054688 336.3125 519.054688 C 337.265625 519.054688 338.019531 518.417969 338.589844 517.136719 C 339.152344 515.859375 339.515625 514.003906 339.675781 511.566406 Z M 339.675781 511.566406 "/>
<path style=" stroke:none;fill-rule:nonzero;fill:rgb(0%,0%,0%);fill-opacity:1;" d="M 185.5 29.570313 C 178.429688 42.289063 154.332031 53.9375 154.285156 70.003906 C 154.265625 77.59375 161.273438 83.707031 169.894531 83.707031 C 175.386719 83.707031 180.265625 81.242188 183.046875 77.46875 C 181.886719 88.394531 178.769531 100.601563 167.386719 102.917969 L 203.613281 102.917969 C 192.230469 100.601563 189.113281 88.394531 187.953125 77.46875 C 190.734375 81.242188 195.613281 83.707031 201.105469 83.707031 C 209.726563 83.707031 216.734375 77.59375 216.714844 70.003906 C 216.667969 53.9375 192.570313 42.289063 185.5 29.570313 Z M 185.5 29.570313 "/>
<path style=" stroke:none;fill-rule:nonzero;fill:rgb(0%,0%,0%);fill-opacity:1;" d="M 36.351563 65.867188 C 34.226563 69.6875 26.992188 73.1875 26.972656 78.019531 C 26.972656 80.300781 29.070313 82.136719 31.664063 82.136719 C 33.3125 82.136719 34.78125 81.398438 35.617188 80.261719 C 35.265625 83.546875 34.328125 87.214844 30.910156 87.914063 L 41.796875 87.914063 C 38.378906 87.214844 37.441406 83.546875 37.089844 80.261719 C 37.925781 81.398438 39.394531 82.136719 41.042969 82.136719 C 43.636719 82.136719 45.734375 80.300781 45.734375 78.019531 C 45.714844 73.1875 38.480469 69.6875 36.351563 65.867188 Z M 36.351563 65.867188 "/>
<path style=" stroke:none;fill-rule:nonzero;fill:rgb(0%,0%,0%);fill-opacity:1;" d="M 334.648438 473.457031 C 332.519531 469.636719 325.285156 466.132813 325.265625 461.304688 C 325.265625 459.023438 327.363281 457.183594 329.957031 457.183594 C 331.605469 457.183594 333.074219 457.925781 333.910156 459.058594 C 333.558594 455.777344 332.621094 452.105469 329.203125 451.410156 L 340.089844 451.410156 C 336.671875 452.105469 335.734375 455.777344 335.382813 459.058594 C 336.21875 457.925781 337.6875 457.183594 339.335938 457.183594 C 341.929688 457.183594 344.027344 459.023438 344.027344 461.304688 C 344.007813 466.132813 336.773438 469.636719 334.648438 473.457031 Z M 334.648438 473.457031 "/>
<path style=" stroke:none;fill-rule:nonzero;fill:rgb(0%,0%,0%);fill-opacity:1;" d="M 185.5 510.429688 C 178.429688 497.710938 154.332031 486.0625 154.285156 469.996094 C 154.265625 462.40625 161.273438 456.292969 169.894531 456.292969 C 175.386719 456.292969 180.265625 458.757813 183.046875 462.53125 C 181.886719 451.605469 178.769531 439.398438 167.386719 437.082031 L 203.613281 437.082031 C 192.230469 439.398438 189.113281 451.605469 187.953125 462.53125 C 190.734375 458.757813 195.613281 456.292969 201.105469 456.292969 C 209.726563 456.292969 216.734375 462.40625 216.714844 469.996094 C 216.667969 486.0625 192.570313 497.710938 185.5 510.429688 Z M 185.5 510.429688 "/>
</g>
</svg>
