<?xml version="1.0" encoding="UTF-8"?>
<svg xmlns="http://www.w3.org/2000/svg" xmlns:xlink="http://www.w3.org/1999/xlink" width="371pt" height="540pt" viewBox="0 0 371 540" version="1.1">
<g id="surface1">
<path style="fill-rule:nonzero;fill:rgb(100%,100%,100%);fill-opacity:1;stroke-width:0.5;stroke-linecap:butt;stroke-linejoin:miter;stroke:rgb(0%,0%,0%);stroke-opacity:1;stroke-miterlimit:4;" d="M 166.836617 235.89229 C 166.836617 239.68485 163.750894 242.783692 159.966749 242.783692 L 7.110884 242.783692 C 3.335536 242.783692 0.249813 239.68485 0.249813 235.89229 L 0.249813 6.77519 C 0.249813 2.987912 3.335536 -0.116212 7.110884 -0.116212 L 159.966749 -0.116212 C 163.750894 -0.116212 166.836617 2.987912 166.836617 6.77519 Z M 166.836617 235.89229 " transform="matrix(2.220408,0,0,2.218571,0,0.812511)"/>
<path style=" stroke:none;fill-rule:nonzero;fill:rgb(0%,0%,0%);fill-opacity:1;" d="M 29.867188 19.316406 C 30.925781 18.691406 31.949219 18.222656 32.945313 17.910156 C 33.941406 17.597656 34.90625 17.441406 35.835938 17.441406 C 38.007813 17.441406 39.671875 18.308594 40.828125 20.035156 C 41.984375 21.761719 42.5625 24.238281 42.5625 27.460938 C 42.5625 29.878906 42.230469 31.835938 41.570313 33.339844 C 40.90625 34.84375 39.929688 35.855469 38.640625 36.375 C 40.1875 36.929688 41.34375 38.117188 42.109375 39.9375 C 42.875 41.757813 43.257813 44.246094 43.257813 47.40625 C 43.257813 51.136719 42.59375 53.996094 41.269531 55.988281 C 39.945313 57.976563 38.027344 58.972656 35.519531 58.972656 C 34.589844 58.972656 33.617188 58.792969 32.605469 58.433594 C 31.589844 58.078125 30.539063 57.539063 29.449219 56.824219 L 29.449219 48.019531 L 30.90625 48.019531 C 30.996094 50.566406 31.355469 52.511719 31.984375 53.847656 C 32.613281 55.183594 33.484375 55.851563 34.597656 55.851563 C 35.800781 55.851563 36.738281 55.097656 37.402344 53.585938 C 38.066406 52.078125 38.402344 49.9375 38.402344 47.164063 C 38.402344 44.269531 38.058594 42.035156 37.375 40.464844 C 36.691406 38.890625 35.71875 38.105469 34.460938 38.105469 L 33.683594 38.105469 L 33.683594 34.914063 L 34.300781 34.914063 C 35.480469 34.914063 36.367188 34.304688 36.957031 33.082031 C 37.546875 31.863281 37.84375 30.042969 37.84375 27.617188 C 37.84375 25.339844 37.566406 23.59375 37.007813 22.378906 C 36.445313 21.167969 35.640625 20.5625 34.597656 20.5625 C 33.640625 20.5625 32.882813 21.136719 32.324219 22.285156 C 31.761719 23.433594 31.429688 25.101563 31.324219 27.289063 L 29.867188 27.289063 Z M 29.867188 19.316406 "/>
<path style=" stroke:none;fill-rule:nonzero;fill:rgb(0%,0%,0%);fill-opacity:1;" d="M 341.132813 520.683594 C 340.074219 521.308594 339.046875 521.777344 338.054688 522.089844 C 337.058594 522.402344 336.09375 522.558594 335.164063 522.558594 C 332.988281 522.558594 331.328125 521.695313 330.171875 519.964844 C 329.011719 518.238281 328.4375 515.761719 328.4375 512.539063 C 328.4375 510.125 328.765625 508.164063 329.429688 506.660156 C 330.09375 505.15625 331.070313 504.144531 332.355469 503.625 C 330.808594 503.070313 329.65625 501.882813 328.886719 500.0625 C 328.125 498.242188 327.742188 495.753906 327.742188 492.59375 C 327.742188 488.863281 328.40625 486.003906 329.730469 484.011719 C 331.054688 482.023438 332.972656 481.027344 335.480469 481.027344 C 336.410156 481.027344 337.382813 481.210938 338.394531 481.566406 C 339.410156 481.925781 340.457031 482.460938 341.550781 483.175781 L 341.550781 491.980469 L 340.09375 491.980469 C 340.003906 489.433594 339.640625 487.492188 339.011719 486.152344 C 338.386719 484.816406 337.511719 484.148438 336.398438 484.148438 C 335.199219 484.148438 334.261719 484.902344 333.597656 486.414063 C 332.933594 487.925781 332.597656 490.066406 332.597656 492.835938 C 332.597656 495.730469 332.941406 497.964844 333.621094 499.539063 C 334.308594 501.113281 335.28125 501.894531 336.539063 501.894531 L 337.316406 501.894531 L 337.316406 505.085938 L 336.699219 505.085938 C 335.519531 505.085938 334.632813 505.695313 334.039063 506.917969 C 333.449219 508.136719 333.15625 509.960938 333.15625 512.382813 C 333.15625 514.660156 333.433594 516.40625 333.992188 517.621094 C 334.550781 518.832031 335.359375 519.4375 336.402344 519.4375 C 337.355469 519.4375 338.117188 518.863281 338.675781 517.714844 C 339.234375 516.570313 339.570313 514.898438 339.675781 512.710938 L 341.132813 512.710938 Z M 341.132813 520.683594 "/>
<path style=" stroke:none;fill-rule:nonzero;fill:rgb(0%,0%,0%);fill-opacity:1;" d="M 334.695313 473.457031 C 337.230469 473.457031 339.285156 471.402344 339.285156 468.871094 C 339.285156 467.5625 338.730469 466.386719 337.851563 465.550781 C 337.171875 464.90625 336.203125 463.441406 335.882813 462.265625 C 336.511719 462.644531 337.078125 463.078125 337.417969 463.433594 C 338.253906 464.3125 339.429688 464.851563 340.738281 464.851563 C 343.273438 464.851563 345.328125 462.796875 345.328125 460.265625 C 345.328125 457.730469 343.273438 455.679688 340.738281 455.679688 C 339.429688 455.679688 338.253906 456.234375 337.417969 457.113281 C 337.058594 457.488281 336.453125 457.964844 335.78125 458.363281 C 335.875 454.15625 337.320313 451.410156 339.953125 451.410156 C 339.953125 451.410156 329.421875 451.410156 329.421875 451.410156 C 332.0625 451.410156 333.523438 454.171875 333.613281 458.398438 C 332.90625 457.992188 332.25 457.503906 331.875 457.113281 C 331.039063 456.234375 329.863281 455.679688 328.554688 455.679688 C 326.019531 455.679688 323.964844 457.730469 323.964844 460.265625 C 323.964844 462.796875 326.019531 464.851563 328.554688 464.851563 C 329.863281 464.851563 331.039063 464.3125 331.875 463.433594 C 332.230469 463.0625 332.847656 462.621094 333.511719 462.234375 C 333.199219 463.414063 332.210938 464.898438 331.523438 465.550781 C 330.644531 466.386719 330.105469 467.5625 330.105469 468.871094 C 330.105469 471.402344 332.160156 473.457031 334.695313 473.457031 Z M 334.695313 473.457031 "/>
<path style=" stroke:none;fill-rule:nonzero;fill:rgb(0%,0%,0%);fill-opacity:1;" d="M 36.304688 65.867188 C 33.769531 65.867188 31.714844 67.917969 31.714844 70.453125 C 31.714844 71.757813 32.269531 72.933594 33.148438 73.769531 C 33.828125 74.417969 34.796875 75.882813 35.117188 77.054688 C 34.488281 76.675781 33.921875 76.246094 33.582031 75.886719 C 32.746094 75.011719 31.570313 74.472656 30.261719 74.472656 C 27.726563 74.472656 25.671875 76.523438 25.671875 79.058594 C 25.671875 81.589844 27.726563 83.644531 30.261719 83.644531 C 31.570313 83.644531 32.746094 83.085938 33.582031 82.210938 C 33.941406 81.832031 34.546875 81.355469 35.21875 80.957031 C 35.125 85.164063 33.679688 87.914063 31.046875 87.914063 C 31.046875 87.914063 41.578125 87.914063 41.578125 87.914063 C 38.9375 87.914063 37.476563 85.148438 37.386719 80.925781 C 38.09375 81.328125 38.75 81.816406 39.125 82.210938 C 39.960938 83.085938 41.136719 83.644531 42.445313 83.644531 C 44.980469 83.644531 47.035156 81.589844 47.035156 79.058594 C 47.035156 76.523438 44.980469 74.472656 42.445313 74.472656 C 41.136719 74.472656 39.960938 75.011719 39.125 75.886719 C 38.769531 76.261719 38.152344 76.703125 37.488281 77.089844 C 37.800781 75.910156 38.789063 74.421875 39.476563 73.769531 C 40.355469 72.933594 40.894531 71.757813 40.894531 70.453125 C 40.894531 67.917969 38.839844 65.867188 36.304688 65.867188 Z M 36.304688 65.867188 "/>
<path style=" stroke:none;fill-rule:nonzero;fill:rgb(0%,0%,0%);fill-opacity:1;" d="M 185.332031 29.582031 C 176.902344 29.582031 170.066406 36.410156 170.066406 44.835938 C 170.066406 49.183594 171.917969 53.09375 174.84375 55.875 C 177.101563 58.023438 180.320313 62.894531 181.390625 66.800781 C 179.300781 65.539063 177.417969 64.105469 176.285156 62.917969 C 173.503906 59.996094 169.589844 58.203125 165.238281 58.203125 C 156.804688 58.203125 149.972656 65.03125 149.972656 73.457031 C 149.972656 81.882813 156.804688 88.707031 165.238281 88.707031 C 169.589844 88.707031 173.503906 86.859375 176.285156 83.9375 C 177.480469 82.6875 179.496094 81.101563 181.726563 79.777344 C 181.414063 93.765625 176.609375 102.90625 167.847656 102.90625 C 167.847656 102.90625 202.875 102.90625 202.875 102.90625 C 194.089844 102.90625 189.230469 93.71875 188.941406 79.667969 C 191.292969 81.015625 193.476563 82.636719 194.714844 83.9375 C 197.496094 86.859375 201.410156 88.707031 205.761719 88.707031 C 214.195313 88.707031 221.027344 81.882813 221.027344 73.457031 C 221.027344 65.03125 214.195313 58.203125 205.761719 58.203125 C 201.410156 58.203125 197.496094 59.996094 194.714844 62.917969 C 193.535156 64.15625 191.488281 65.621094 189.273438 66.910156 C 190.3125 62.984375 193.597656 58.042969 195.878906 55.875 C 198.804688 53.09375 200.597656 49.183594 200.597656 44.835938 C 200.597656 36.410156 193.765625 29.582031 185.332031 29.582031 Z M 185.332031 29.582031 "/>
<path style=" stroke:none;fill-rule:nonzero;fill:rgb(0%,0%,0%);fill-opacity:1;" d="M 185.332031 510.417969 C 176.902344 510.417969 170.066406 503.589844 170.066406 495.164063 C 170.066406 490.816406 171.917969 486.90625 174.84375 484.125 C 177.101563 481.976563 180.320313 477.105469 181.390625 473.199219 C 179.300781 474.460938 177.417969 475.894531 176.285156 477.082031 C 173.503906 480.003906 169.589844 481.796875 165.238281 481.796875 C 156.804688 481.796875 149.972656 474.96875 149.972656 466.542969 C 149.972656 458.117188 156.804688 451.292969 165.238281 451.292969 C 169.589844 451.292969 173.503906 453.140625 176.285156 456.0625 C 177.480469 457.3125 179.496094 458.898438 181.726563 460.222656 C 181.414063 446.234375 176.609375 437.09375 167.847656 437.09375 C 167.847656 437.09375 202.875 437.09375 202.875 437.09375 C 194.089844 437.09375 189.230469 446.28125 188.941406 460.332031 C 191.292969 458.984375 193.476563 457.363281 194.714844 456.0625 C 197.496094 453.140625 201.410156 451.292969 205.761719 451.292969 C 214.195313 451.292969 221.027344 458.117188 221.027344 466.542969 C 221.027344 474.96875 214.195313 481.796875 205.761719 481.796875 C 201.410156 481.796875 197.496094 480.003906 194.714844 477.082031 C 193.535156 475.84375 191.488281 474.378906 189.273438 473.089844 C 190.3125 477.015625 193.597656 481.957031 195.878906 484.125 C 198.804688 486.90625 200.597656 490.816406 200.597656 495.164063 C 200.597656 503.589844 193.765625 510.417969 185.332031 510.417969 Z M 185.332031 510.417969 "/>
<path style=" stroke:none;fill-rule:nonzero;fill:rgb(0%,0%,0%);fill-opacity:1;" d="M 185.332031 233.339844 C 176.902344 233.339844 170.066406 240.164063 170.066406 248.589844 C 170.066406 252.941406 171.917969 256.847656 174.84375 259.628906 C 177.101563 261.777344 180.320313 266.648438 181.390625 270.554688 C 179.300781 269.296875 177.417969 267.859375 176.285156 266.671875 C 173.503906 263.75 169.589844 261.957031 165.238281 261.957031 C 156.804688 261.957031 149.972656 268.785156 149.972656 277.210938 C 149.972656 285.636719 156.804688 292.464844 165.238281 292.464844 C 169.589844 292.464844 173.503906 290.613281 176.285156 287.691406 C 177.480469 286.441406 179.496094 284.855469 181.726563 283.535156 C 181.414063 297.523438 176.609375 306.660156 167.847656 306.660156 C 167.847656 306.660156 202.875 306.660156 202.875 306.660156 C 194.089844 306.660156 189.230469 297.472656 188.941406 283.421875 C 191.292969 284.769531 193.476563 286.390625 194.714844 287.691406 C 197.496094 290.613281 201.410156 292.464844 205.761719 292.464844 C 214.195313 292.464844 221.027344 285.636719 221.027344 277.210938 C 221.027344 268.785156 214.195313 261.957031 205.761719 261.957031 C 201.410156 261.957031 197.496094 263.75 194.714844 266.671875 C 193.535156 267.910156 191.488281 269.375 189.273438 270.664063 C 190.3125 266.738281 193.597656 261.796875 195.878906 259.628906 C 198.804688 256.847656 200.597656 252.941406 200.597656 248.589844 C 200.597656 240.164063 193.765625 233.339844 185.332031 233.339844 Z M 185.332031 233.339844 "/>
</g>
</svg>
