<?xml version="1.0" encoding="UTF-8"?>
<svg xmlns="http://www.w3.org/2000/svg" xmlns:xlink="http://www.w3.org/1999/xlink" width="371pt" height="540pt" viewBox="0 0 371 540" version="1.1">
<g id="surface1">
<path style="fill-rule:nonzero;fill:rgb(100%,100%,100%);fill-opacity:1;stroke-width:0.5;stroke-linecap:butt;stroke-linejoin:miter;stroke:rgb(0%,0%,0%);stroke-opacity:1;stroke-miterlimit:4;" d="M 166.836617 235.89229 C 166.836617 239.68485 163.750894 242.783692 159.966749 242.783692 L 7.110884 242.783692 C 3.335536 242.783692 0.249813 239.68485 0.249813 235.89229 L 0.249813 6.77519 C 0.249813 2.987912 3.335536 -0.116212 7.110884 -0.116212 L 159.966749 -0.116212 C 163.750894 -0.116212 166.836617 2.987912 166.836617 6.77519 Z M 166.836617 235.89229 " transform="matrix(2.220408,0,0,2.218571,0,0.812511)"/>
<path style=" stroke:none;fill-rule:nonzero;fill:rgb(90.196078%,7.843137%,3.137255%);fill-opacity:1;" d="M 29.867188 19.316406 C 30.925781 18.691406 31.949219 18.222656 32.945313 17.910156 C 33.941406 17.597656 34.90625 17.441406 35.835938 17.441406 C 38.007813 17.441406 39.671875 18.308594 40.828125 20.035156 C 41.984375 21.761719 42.5625 24.238281 42.5625 27.460938 C 42.5625 29.878906 42.230469 31.835938 41.570313 33.339844 C 40.90625 34.84375 39.929688 35.855469 38.640625 36.375 C 40.1875 36.929688 41.34375 38.117188 42.109375 39.9375 C 42.875 41.757813 43.257813 44.246094 43.257813 47.40625 C 43.257813 51.136719 42.59375 53.996094 41.269531 55.988281 C 39.945313 57.976563 38.027344 58.972656 35.519531 58.972656 C 34.589844 58.972656 33.617188 58.792969 32.605469 58.433594 C 31.589844 58.078125 30.539063 57.539063 29.449219 56.824219 L 29.449219 48.019531 L 30.90625 48.019531 C 30.996094 50.566406 31.355469 52.511719 31.984375 53.847656 C 32.613281 55.183594 33.484375 55.851563 34.597656 55.851563 C 35.800781 55.851563 36.738281 55.097656 37.402344 53.585938 C 38.066406 52.078125 38.402344 49.9375 38.402344 47.164063 C 38.402344 44.269531 38.058594 42.035156 37.375 40.464844 C 36.691406 38.890625 35.71875 38.105469 34.460938 38.105469 L 33.683594 38.105469 L 33.683594 34.914063 L 34.300781 34.914063 C 35.480469 34.914063 36.367188 34.304688 36.957031 33.082031 C 37.546875 31.863281 37.84375 30.042969 37.84375 27.617188 C 37.84375 25.339844 37.566406 23.59375 37.007813 22.378906 C 36.445313 21.167969 35.640625 20.5625 34.597656 20.5625 C 33.640625 20.5625 32.882813 21.136719 32.324219 22.285156 C 31.761719 23.433594 31.429688 25.101563 31.324219 27.289063 L 29.867188 27.289063 Z M 29.867188 19.316406 "/>
<path style=" stroke:none;fill-rule:nonzero;fill:rgb(90.196078%,7.843137%,3.137255%);fill-opacity:1;" d="M 341.132813 520.683594 C 340.074219 521.308594 339.046875 521.777344 338.054688 522.089844 C 337.058594 522.402344 336.09375 522.558594 335.164063 522.558594 C 332.988281 522.558594 331.328125 521.695313 330.171875 519.964844 C 329.011719 518.238281 328.4375 515.761719 328.4375 512.539063 C 328.4375 510.125 328.765625 508.164063 329.429688 506.660156 C 330.09375 505.15625 331.070313 504.144531 332.355469 503.625 C 330.808594 503.070313 329.65625 501.882813 328.886719 500.0625 C 328.125 498.242188 327.742188 495.753906 327.742188 492.59375 C 327.742188 488.863281 328.40625 486.003906 329.730469 484.011719 C 331.054688 482.023438 332.972656 481.027344 335.480469 481.027344 C 336.410156 481.027344 337.382813 481.210938 338.394531 481.566406 C 339.410156 481.925781 340.457031 482.460938 341.550781 483.175781 L 341.550781 491.980469 L 340.09375 491.980469 C 340.003906 489.433594 339.640625 487.492188 339.011719 486.152344 C 338.386719 484.816406 337.511719 484.148438 336.398438 484.148438 C 335.199219 484.148438 334.261719 484.902344 333.597656 486.414063 C 332.933594 487.925781 332.597656 490.066406 332.597656 492.835938 C 332.597656 495.730469 332.941406 497.964844 333.621094 499.539063 C 334.308594 501.113281 335.28125 501.894531 336.539063 501.894531 L 337.316406 501.894531 L 337.316406 505.085938 L 336.699219 505.085938 C 335.519531 505.085938 334.632813 505.695313 334.039063 506.917969 C 333.449219 508.136719 333.15625 509.960938 333.15625 512.382813 C 333.15625 514.660156 333.433594 516.40625 333.992188 517.621094 C 334.550781 518.832031 335.359375 519.4375 336.402344 519.4375 C 337.355469 519.4375 338.117188 518.863281 338.675781 517.714844 C 339.234375 516.570313 339.570313 514.898438 339.675781 512.710938 L 341.132813 512.710938 Z M 341.132813 520.683594 "/>
<path style=" stroke:none;fill-rule:nonzero;fill:rgb(90.196078%,7.843137%,3.137255%);fill-opacity:1;" d="M 185.5 31.046875 C 185.441406 33.035156 184.261719 40.488281 171.398438 52.824219 C 159.019531 64.695313 153.238281 66.121094 151.5 66.246094 C 153.238281 66.371094 159.019531 67.796875 171.398438 79.667969 C 184.261719 92.003906 185.441406 99.457031 185.5 101.445313 C 185.558594 99.457031 186.738281 92.003906 199.601563 79.667969 C 211.980469 67.796875 217.761719 66.371094 219.5 66.246094 C 217.761719 66.121094 211.980469 64.695313 199.601563 52.824219 C 186.738281 40.488281 185.558594 33.035156 185.5 31.046875 Z M 185.5 31.046875 "/>
<path style=" stroke:none;fill-rule:nonzero;fill:rgb(90.196078%,7.843137%,3.137255%);fill-opacity:1;" d="M 36.351563 66.304688 C 36.335938 66.902344 35.980469 69.144531 32.113281 72.851563 C 28.390625 76.421875 26.652344 76.851563 26.128906 76.890625 C 26.652344 76.925781 28.390625 77.355469 32.113281 80.925781 C 35.980469 84.632813 36.335938 86.875 36.351563 87.472656 C 36.371094 86.875 36.726563 84.632813 40.59375 80.925781 C 44.316406 77.355469 46.054688 76.925781 46.578125 76.890625 C 46.054688 76.851563 44.316406 76.421875 40.59375 72.851563 C 36.726563 69.144531 36.371094 66.902344 36.351563 66.304688 Z M 36.351563 66.304688 "/>
<path style=" stroke:none;fill-rule:nonzero;fill:rgb(90.196078%,7.843137%,3.137255%);fill-opacity:1;" d="M 334.648438 451.851563 C 334.628906 452.449219 334.273438 454.6875 330.40625 458.398438 C 326.683594 461.96875 324.945313 462.394531 324.421875 462.433594 C 324.945313 462.472656 326.683594 462.898438 330.40625 466.46875 C 334.273438 470.179688 334.628906 472.417969 334.648438 473.015625 C 334.664063 472.417969 335.019531 470.179688 338.886719 466.46875 C 342.609375 462.898438 344.347656 462.472656 344.871094 462.433594 C 344.347656 462.394531 342.609375 461.96875 338.886719 458.398438 C 335.019531 454.6875 334.664063 452.449219 334.648438 451.851563 Z M 334.648438 451.851563 "/>
<path style=" stroke:none;fill-rule:nonzero;fill:rgb(90.196078%,7.843137%,3.137255%);fill-opacity:1;" d="M 185.5 234.800781 C 185.441406 236.789063 184.261719 244.242188 171.398438 256.578125 C 159.019531 268.449219 153.238281 269.875 151.5 270 C 153.238281 270.125 159.019531 271.550781 171.398438 283.421875 C 184.261719 295.757813 185.441406 303.210938 185.5 305.199219 C 185.558594 303.210938 186.738281 295.757813 199.601563 283.421875 C 211.980469 271.550781 217.761719 270.125 219.5 270 C 217.761719 269.875 211.980469 268.449219 199.601563 256.578125 C 186.738281 244.242188 185.558594 236.789063 185.5 234.800781 Z M 185.5 234.800781 "/>
<path style=" stroke:none;fill-rule:nonzero;fill:rgb(90.196078%,7.843137%,3.137255%);fill-opacity:1;" d="M 185.5 438.554688 C 185.441406 440.542969 184.261719 447.996094 171.398438 460.332031 C 159.019531 472.203125 153.238281 473.628906 151.5 473.753906 C 153.238281 473.878906 159.019531 475.304688 171.398438 487.175781 C 184.261719 499.511719 185.441406 506.964844 185.5 508.953125 C 185.558594 506.964844 186.738281 499.511719 199.601563 487.175781 C 211.980469 475.304688 217.761719 473.878906 219.5 473.753906 C 217.761719 473.628906 211.980469 472.203125 199.601563 460.332031 C 186.738281 447.996094 185.558594 440.542969 185.5 438.554688 Z M 185.5 438.554688 "/>
</g>
</svg>
