<?xml version="1.0" encoding="UTF-8"?>
<svg xmlns="http://www.w3.org/2000/svg" xmlns:xlink="http://www.w3.org/1999/xlink" width="371pt" height="540pt" viewBox="0 0 371 540" version="1.1">
<g id="surface1">
<path style="fill-rule:nonzero;fill:rgb(100%,100%,100%);fill-opacity:1;stroke-width:0.5;stroke-linecap:butt;stroke-linejoin:miter;stroke:rgb(0%,0%,0%);stroke-opacity:1;stroke-miterlimit:4;" d="M 166.836617 235.89229 C 166.836617 239.68485 163.750894 242.783692 159.966749 242.783692 L 7.110884 242.783692 C 3.335536 242.783692 0.249813 239.68485 0.249813 235.89229 L 0.249813 6.77519 C 0.249813 2.987912 3.335536 -0.116212 7.110884 -0.116212 L 159.966749 -0.116212 C 163.750894 -0.116212 166.836617 2.987912 166.836617 6.77519 Z M 166.836617 235.89229 " transform="matrix(2.220408,0,0,2.218571,0,0.812511)"/>
<path style=" stroke:none;fill-rule:nonzero;fill:rgb(0%,0%,0%);fill-opacity:1;" d="M 29.867188 19.316406 C 30.925781 18.691406 31.949219 18.222656 32.945313 17.910156 C 33.941406 17.597656 34.90625 17.441406 35.835938 17.441406 C 38.007813 17.441406 39.671875 18.308594 40.828125 20.035156 C 41.984375 21.761719 42.5625 24.238281 42.5625 27.460938 C 42.5625 29.878906 42.230469 31.835938 41.570313 33.339844 C 40.90625 34.84375 39.929688 35.855469 38.640625 36.375 C 40.1875 36.929688 41.34375 38.117188 42.109375 39.9375 C 42.875 41.757813 43.257813 44.246094 43.257813 47.40625 C 43.257813 51.136719 42.59375 53.996094 41.269531 55.988281 C 39.945313 57.976563 38.027344 58.972656 35.519531 58.972656 C 34.589844 58.972656 33.617188 58.792969 32.605469 58.433594 C 31.589844 58.078125 30.539063 57.539063 29.449219 56.824219 L 29.449219 48.019531 L 30.90625 48.019531 C 30.996094 50.566406 31.355469 52.511719 31.984375 53.847656 C 32.613281 55.183594 33.484375 55.851563 34.597656 55.851563 C 35.800781 55.851563 36.738281 55.097656 37.402344 53.585938 C 38.066406 52.078125 38.402344 49.9375 38.402344 47.164063 C 38.402344 44.269531 38.058594 42.035156 37.375 40.464844 C 36.691406 38.890625 35.71875 38.105469 34.460938 38.105469 L 33.683594 38.105469 L 33.683594 34.914063 L 34.300781 34.914063 C 35.480469 34.914063 36.367188 34.304688 36.957031 33.082031 C 37.546875 31.863281 37.84375 30.042969 37.84375 27.617188 C 37.84375 25.339844 37.566406 23.59375 37.007813 22.378906 C 36.445313 21.167969 35.640625 20.5625 34.597656 20.5625 C 33.640625 20.5625 32.882813 21.136719 32.324219 22.285156 C 31.761719 23.433594 31.429688 25.101563 31.324219 27.289063 L 29.867188 27.289063 Z M 29.867188 19.316406 "/>
<path style=" stroke:none;fill-rule:nonzero;fill:rgb(0%,0%,0%);fill-opacity:1;" d="M 341.132813 520.683594 C 340.074219 521.308594 339.046875 521.777344 338.054688 522.089844 C 337.058594 522.402344 336.09375 522.558594 335.164063 522.558594 C 332.988281 522.558594 331.328125 521.695313 330.171875 519.964844 C 329.011719 518.238281 328.4375 515.761719 328.4375 512.539063 C 328.4375 510.125 328.765625 508.164063 329.429688 506.660156 C 330.09375 505.15625 331.070313 504.144531 332.355469 503.625 C 330.808594 503.070313 329.65625 501.882813 328.886719 500.0625 C 328.125 498.242188 327.742188 495.753906 327.742188 492.59375 C 327.742188 488.863281 328.40625 486.003906 329.730469 484.011719 C 331.054688 482.023438 332.972656 481.027344 335.480469 481.027344 C 336.410156 481.027344 337.382813 481.210938 338.394531 481.566406 C 339.410156 481.925781 340.457031 482.460938 341.550781 483.175781 L 341.550781 491.980469 L 340.09375 491.980469 C 340.003906 489.433594 339.640625 487.492188 339.011719 486.152344 C 338.386719 484.816406 337.511719 484.148438 336.398438 484.148438 C 335.199219 484.148438 334.261719 484.902344 333.597656 486.414063 C 332.933594 487.925781 332.597656 490.066406 332.597656 492.835938 C 332.597656 495.730469 332.941406 497.964844 333.621094 499.539063 C 334.308594 501.113281 335.28125 501.894531 336.539063 501.894531 L 337.316406 501.894531 L 337.316406 505.085938 L 336.699219 505.085938 C 335.519531 505.085938 334.632813 505.695313 334.039063 506.917969 C 333.449219 508.136719 333.15625 509.960938 333.15625 512.382813 C 333.15625 514.660156 333.433594 516.40625 333.992188 517.621094 C 334.550781 518.832031 335.359375 519.4375 336.402344 519.4375 C 337.355469 519.4375 338.117188 518.863281 338.675781 517.714844 C 339.234375 516.570313 339.570313 514.898438 339.675781 512.710938 L 341.132813 512.710938 Z M 341.132813 520.683594 "/>
<path style=" stroke:none;fill-rule:nonzero;fill:rgb(0%,0%,0%);fill-opacity:1;" d="M 203.636719 306.683594 C 195.914063 306.691406 191.851563 298.460938 189.71875 290.230469 C 187.582031 281.996094 187.382813 273.761719 187.382813 273.761719 L 183.441406 273.722656 C 183.441406 273.722656 182.699219 306.660156 167.253906 306.675781 Z M 203.636719 306.683594 "/>
<path style=" stroke:none;fill-rule:nonzero;fill:rgb(0%,0%,0%);fill-opacity:1;" d="M 216.710938 273.753906 C 216.644531 257.683594 192.570313 246.03125 185.496094 233.316406 C 178.433594 246.03125 154.355469 257.683594 154.289063 273.753906 C 154.257813 281.339844 161.277344 287.484375 169.894531 287.484375 C 178.511719 287.484375 185.496094 281.339844 185.496094 273.753906 C 185.496094 281.339844 192.488281 287.484375 201.105469 287.484375 C 209.726563 287.484375 216.710938 281.339844 216.710938 273.753906 Z M 216.710938 273.753906 "/>
<path style=" stroke:none;fill-rule:nonzero;fill:rgb(0%,0%,0%);fill-opacity:1;" d="M 42.0625 88.4375 C 39.632813 88.441406 38.351563 85.847656 37.679688 83.257813 C 37.007813 80.664063 36.945313 78.074219 36.945313 78.074219 L 35.707031 78.0625 C 35.707031 78.0625 35.472656 88.433594 30.609375 88.4375 Z M 42.0625 88.4375 "/>
<path style=" stroke:none;fill-rule:nonzero;fill:rgb(0%,0%,0%);fill-opacity:1;" d="M 46.179688 78.070313 C 46.160156 73.011719 38.578125 69.34375 36.351563 65.339844 C 34.128906 69.34375 26.546875 73.011719 26.527344 78.070313 C 26.515625 80.460938 28.726563 82.394531 31.441406 82.394531 C 34.152344 82.394531 36.351563 80.460938 36.351563 78.070313 C 36.351563 80.460938 38.554688 82.394531 41.265625 82.394531 C 43.980469 82.394531 46.179688 80.460938 46.179688 78.070313 Z M 46.179688 78.070313 "/>
<path style=" stroke:none;fill-rule:nonzero;fill:rgb(0%,0%,0%);fill-opacity:1;" d="M 328.9375 450.882813 C 331.367188 450.878906 332.648438 453.472656 333.320313 456.0625 C 333.988281 458.65625 334.054688 461.25 334.054688 461.25 L 335.292969 461.261719 C 335.292969 461.261719 335.527344 450.890625 340.390625 450.886719 Z M 328.9375 450.882813 "/>
<path style=" stroke:none;fill-rule:nonzero;fill:rgb(0%,0%,0%);fill-opacity:1;" d="M 324.820313 461.25 C 324.84375 466.308594 332.421875 469.980469 334.648438 473.984375 C 336.871094 469.980469 344.449219 466.308594 344.472656 461.25 C 344.484375 458.859375 342.273438 456.929688 339.558594 456.929688 C 336.847656 456.929688 334.648438 458.859375 334.648438 461.25 C 334.648438 458.859375 332.445313 456.929688 329.734375 456.929688 C 327.019531 456.929688 324.820313 458.859375 324.820313 461.25 Z M 324.820313 461.25 "/>
<path style=" stroke:none;fill-rule:nonzero;fill:rgb(0%,0%,0%);fill-opacity:1;" d="M 203.636719 102.929688 C 195.914063 102.9375 191.851563 94.707031 189.71875 86.476563 C 187.582031 78.242188 187.382813 70.007813 187.382813 70.007813 L 183.441406 69.96875 C 183.441406 69.96875 182.699219 102.90625 167.253906 102.921875 Z M 203.636719 102.929688 "/>
<path style=" stroke:none;fill-rule:nonzero;fill:rgb(0%,0%,0%);fill-opacity:1;" d="M 216.710938 70 C 216.644531 53.929688 192.570313 42.277344 185.496094 29.5625 C 178.433594 42.277344 154.355469 53.929688 154.289063 70 C 154.257813 77.585938 161.277344 83.730469 169.894531 83.730469 C 178.511719 83.730469 185.496094 77.585938 185.496094 70 C 185.496094 77.585938 192.488281 83.730469 201.105469 83.730469 C 209.726563 83.730469 216.710938 77.585938 216.710938 70 Z M 216.710938 70 "/>
<path style=" stroke:none;fill-rule:nonzero;fill:rgb(0%,0%,0%);fill-opacity:1;" d="M 203.636719 437.070313 C 195.914063 437.0625 191.851563 445.292969 189.71875 453.523438 C 187.582031 461.757813 187.382813 469.992188 187.382813 469.992188 L 183.441406 470.03125 C 183.441406 470.03125 182.699219 437.09375 167.253906 437.078125 Z M 203.636719 437.070313 "/>
<path style=" stroke:none;fill-rule:nonzero;fill:rgb(0%,0%,0%);fill-opacity:1;" d="M 216.710938 470 C 216.644531 486.070313 192.570313 497.722656 185.496094 510.4375 C 178.433594 497.722656 154.355469 486.070313 154.289063 470 C 154.257813 462.414063 161.277344 456.269531 169.894531 456.269531 C 178.511719 456.269531 185.496094 462.414063 185.496094 470 C 185.496094 462.414063 192.488281 456.269531 201.105469 456.269531 C 209.726563 456.269531 216.710938 462.414063 216.710938 470 Z M 216.710938 470 "/>
</g>
</svg>
