<?xml version="1.0" encoding="UTF-8"?>
<svg xmlns="http://www.w3.org/2000/svg" xmlns:xlink="http://www.w3.org/1999/xlink" width="371pt" height="540pt" viewBox="0 0 371 540" version="1.1">
<g id="surface1">
<path style="fill-rule:nonzero;fill:rgb(100%,100%,100%);fill-opacity:1;stroke-width:0.5;stroke-linecap:butt;stroke-linejoin:miter;stroke:rgb(0%,0%,0%);stroke-opacity:1;stroke-miterlimit:4;" d="M 166.836617 235.89229 C 166.836617 239.68485 163.750894 242.783692 159.966749 242.783692 L 7.110884 242.783692 C 3.335536 242.783692 0.249813 239.68485 0.249813 235.89229 L 0.249813 6.77519 C 0.249813 2.987912 3.335536 -0.116212 7.110884 -0.116212 L 159.966749 -0.116212 C 163.750894 -0.116212 166.836617 2.987912 166.836617 6.77519 Z M 166.836617 235.89229 " transform="matrix(2.220408,0,0,2.218571,0,0.812511)"/>
<path style=" stroke:none;fill-rule:nonzero;fill:rgb(0%,0%,0%);fill-opacity:1;" d="M 43.464844 58.589844 L 33.683594 58.589844 L 33.683594 55.332031 L 36.320313 55.332031 L 36.320313 48.050781 L 28.824219 48.050781 L 28.824219 44.96875 L 36.316406 17.824219 L 40.828125 17.824219 L 40.828125 44.585938 L 43.882813 44.585938 L 43.882813 48.050781 L 40.828125 48.050781 L 40.828125 55.332031 L 43.464844 55.332031 Z M 36.320313 44.585938 L 36.320313 25.144531 L 30.96875 44.585938 Z M 36.320313 44.585938 "/>
<path style=" stroke:none;fill-rule:nonzero;fill:rgb(0%,0%,0%);fill-opacity:1;" d="M 327.535156 481.410156 L 337.316406 481.410156 L 337.316406 484.667969 L 334.679688 484.667969 L 334.679688 491.949219 L 342.175781 491.949219 L 342.175781 495.03125 L 334.679688 522.175781 L 330.171875 522.175781 L 330.171875 495.414063 L 327.117188 495.414063 L 327.117188 491.949219 L 330.171875 491.949219 L 330.171875 484.667969 L 327.535156 484.667969 Z M 334.679688 495.414063 L 334.679688 514.855469 L 340.03125 495.414063 Z M 334.679688 495.414063 "/>
<path style=" stroke:none;fill-rule:nonzero;fill:rgb(0%,0%,0%);fill-opacity:1;" d="M 334.695313 473.457031 C 337.230469 473.457031 339.285156 471.402344 339.285156 468.871094 C 339.285156 467.5625 338.730469 466.386719 337.851563 465.550781 C 337.171875 464.90625 336.203125 463.441406 335.882813 462.265625 C 336.511719 462.644531 337.078125 463.078125 337.417969 463.433594 C 338.253906 464.3125 339.429688 464.851563 340.738281 464.851563 C 343.273438 464.851563 345.328125 462.796875 345.328125 460.265625 C 345.328125 457.730469 343.273438 455.679688 340.738281 455.679688 C 339.429688 455.679688 338.253906 456.234375 337.417969 457.113281 C 337.058594 457.488281 336.453125 457.964844 335.78125 458.363281 C 335.875 454.15625 337.320313 451.410156 339.953125 451.410156 C 339.953125 451.410156 329.421875 451.410156 329.421875 451.410156 C 332.0625 451.410156 333.523438 454.171875 333.613281 458.398438 C 332.90625 457.992188 332.25 457.503906 331.875 457.113281 C 331.039063 456.234375 329.863281 455.679688 328.554688 455.679688 C 326.019531 455.679688 323.964844 457.730469 323.964844 460.265625 C 323.964844 462.796875 326.019531 464.851563 328.554688 464.851563 C 329.863281 464.851563 331.039063 464.3125 331.875 463.433594 C 332.230469 463.0625 332.847656 462.621094 333.511719 462.234375 C 333.199219 463.414063 332.210938 464.898438 331.523438 465.550781 C 330.644531 466.386719 330.105469 467.5625 330.105469 468.871094 C 330.105469 471.402344 332.160156 473.457031 334.695313 473.457031 Z M 334.695313 473.457031 "/>
<path style=" stroke:none;fill-rule:nonzero;fill:rgb(0%,0%,0%);fill-opacity:1;" d="M 36.304688 65.867188 C 33.769531 65.867188 31.714844 67.917969 31.714844 70.453125 C 31.714844 71.757813 32.269531 72.933594 33.148438 73.769531 C 33.828125 74.417969 34.796875 75.882813 35.117188 77.054688 C 34.488281 76.675781 33.921875 76.246094 33.582031 75.886719 C 32.746094 75.011719 31.570313 74.472656 30.261719 74.472656 C 27.726563 74.472656 25.671875 76.523438 25.671875 79.058594 C 25.671875 81.589844 27.726563 83.644531 30.261719 83.644531 C 31.570313 83.644531 32.746094 83.085938 33.582031 82.210938 C 33.941406 81.832031 34.546875 81.355469 35.21875 80.957031 C 35.125 85.164063 33.679688 87.914063 31.046875 87.914063 C 31.046875 87.914063 41.578125 87.914063 41.578125 87.914063 C 38.9375 87.914063 37.476563 85.148438 37.386719 80.925781 C 38.09375 81.328125 38.75 81.816406 39.125 82.210938 C 39.960938 83.085938 41.136719 83.644531 42.445313 83.644531 C 44.980469 83.644531 47.035156 81.589844 47.035156 79.058594 C 47.035156 76.523438 44.980469 74.472656 42.445313 74.472656 C 41.136719 74.472656 39.960938 75.011719 39.125 75.886719 C 38.769531 76.261719 38.152344 76.703125 37.488281 77.089844 C 37.800781 75.910156 38.789063 74.421875 39.476563 73.769531 C 40.355469 72.933594 40.894531 71.757813 40.894531 70.453125 C 40.894531 67.917969 38.839844 65.867188 36.304688 65.867188 Z M 36.304688 65.867188 "/>
<path style=" stroke:none;fill-rule:nonzero;fill:rgb(0%,0%,0%);fill-opacity:1;" d="M 105.832031 29.535156 C 97.398438 29.535156 90.566406 36.359375 90.566406 44.785156 C 90.566406 49.136719 92.414063 53.042969 95.339844 55.824219 C 97.597656 57.972656 100.816406 62.84375 101.890625 66.75 C 99.796875 65.492188 97.914063 64.054688 96.78125 62.867188 C 94 59.945313 90.089844 58.152344 85.734375 58.152344 C 77.304688 58.152344 70.46875 64.980469 70.46875 73.40625 C 70.46875 81.832031 77.304688 88.660156 85.734375 88.660156 C 90.089844 88.660156 94 86.8125 96.78125 83.890625 C 97.976563 82.636719 99.992188 81.050781 102.222656 79.730469 C 101.910156 93.71875 97.105469 102.859375 88.34375 102.859375 C 88.34375 102.859375 123.371094 102.859375 123.371094 102.859375 C 114.589844 102.859375 109.726563 93.671875 109.4375 79.617188 C 111.789063 80.964844 113.972656 82.589844 115.210938 83.890625 C 117.996094 86.8125 121.90625 88.660156 126.257813 88.660156 C 134.691406 88.660156 141.523438 81.832031 141.523438 73.40625 C 141.523438 64.980469 134.691406 58.152344 126.257813 58.152344 C 121.90625 58.152344 117.996094 59.945313 115.210938 62.867188 C 114.03125 64.105469 111.984375 65.574219 109.773438 66.863281 C 110.808594 62.9375 114.09375 57.996094 116.378906 55.824219 C 119.300781 53.042969 121.097656 49.136719 121.097656 44.785156 C 121.097656 36.359375 114.261719 29.535156 105.832031 29.535156 Z M 105.832031 29.535156 "/>
<path style=" stroke:none;fill-rule:nonzero;fill:rgb(0%,0%,0%);fill-opacity:1;" d="M 105.832031 510.417969 C 97.398438 510.417969 90.566406 503.589844 90.566406 495.164063 C 90.566406 490.816406 92.414063 486.90625 95.339844 484.125 C 97.597656 481.976563 100.816406 477.105469 101.890625 473.199219 C 99.796875 474.460938 97.914063 475.894531 96.78125 477.082031 C 94 480.003906 90.089844 481.796875 85.734375 481.796875 C 77.304688 481.796875 70.46875 474.96875 70.46875 466.542969 C 70.46875 458.117188 77.304688 451.292969 85.734375 451.292969 C 90.089844 451.292969 94 453.140625 96.78125 456.0625 C 97.976563 457.3125 99.992188 458.898438 102.222656 460.222656 C 101.910156 446.234375 97.105469 437.09375 88.34375 437.09375 C 88.34375 437.09375 123.371094 437.09375 123.371094 437.09375 C 114.589844 437.09375 109.726563 446.28125 109.4375 460.332031 C 111.789063 458.984375 113.972656 457.363281 115.210938 456.0625 C 117.996094 453.140625 121.90625 451.292969 126.257813 451.292969 C 134.691406 451.292969 141.523438 458.117188 141.523438 466.542969 C 141.523438 474.96875 134.691406 481.796875 126.257813 481.796875 C 121.90625 481.796875 117.996094 480.003906 115.210938 477.082031 C 114.03125 475.84375 111.984375 474.378906 109.773438 473.089844 C 110.808594 477.015625 114.09375 481.957031 116.378906 484.125 C 119.300781 486.90625 121.097656 490.816406 121.097656 495.164063 C 121.097656 503.589844 114.261719 510.417969 105.832031 510.417969 Z M 105.832031 510.417969 "/>
<path style=" stroke:none;fill-rule:nonzero;fill:rgb(0%,0%,0%);fill-opacity:1;" d="M 262.746094 29.535156 C 254.316406 29.535156 247.480469 36.359375 247.480469 44.785156 C 247.480469 49.136719 249.332031 53.042969 252.257813 55.824219 C 254.515625 57.972656 257.734375 62.84375 258.804688 66.75 C 256.714844 65.492188 254.832031 64.054688 253.699219 62.867188 C 250.917969 59.945313 247.003906 58.152344 242.652344 58.152344 C 234.21875 58.152344 227.386719 64.980469 227.386719 73.40625 C 227.386719 81.832031 234.21875 88.660156 242.652344 88.660156 C 247.003906 88.660156 250.917969 86.8125 253.699219 83.890625 C 254.894531 82.636719 256.910156 81.050781 259.140625 79.730469 C 258.828125 93.71875 254.023438 102.859375 245.261719 102.859375 C 245.261719 102.859375 280.289063 102.859375 280.289063 102.859375 C 271.503906 102.859375 266.644531 93.671875 266.355469 79.617188 C 268.707031 80.964844 270.890625 82.589844 272.128906 83.890625 C 274.914063 86.8125 278.824219 88.660156 283.175781 88.660156 C 291.609375 88.660156 298.441406 81.832031 298.441406 73.40625 C 298.441406 64.980469 291.609375 58.152344 283.175781 58.152344 C 278.824219 58.152344 274.914063 59.945313 272.128906 62.867188 C 270.949219 64.105469 268.902344 65.574219 266.6875 66.863281 C 267.726563 62.9375 271.011719 57.996094 273.292969 55.824219 C 276.21875 53.042969 278.011719 49.136719 278.011719 44.785156 C 278.011719 36.359375 271.179688 29.535156 262.746094 29.535156 Z M 262.746094 29.535156 "/>
<path style=" stroke:none;fill-rule:nonzero;fill:rgb(0%,0%,0%);fill-opacity:1;" d="M 262.746094 510.417969 C 254.316406 510.417969 247.480469 503.589844 247.480469 495.164063 C 247.480469 490.816406 249.332031 486.90625 252.257813 484.125 C 254.515625 481.976563 257.734375 477.105469 258.804688 473.199219 C 256.714844 474.460938 254.832031 475.894531 253.699219 477.082031 C 250.917969 480.003906 247.003906 481.796875 242.652344 481.796875 C 234.21875 481.796875 227.386719 474.96875 227.386719 466.542969 C 227.386719 458.117188 234.21875 451.292969 242.652344 451.292969 C 247.003906 451.292969 250.917969 453.140625 253.699219 456.0625 C 254.894531 457.3125 256.910156 458.898438 259.140625 460.222656 C 258.828125 446.234375 254.023438 437.09375 245.261719 437.09375 C 245.261719 437.09375 280.289063 437.09375 280.289063 437.09375 C 271.503906 437.09375 266.644531 446.28125 266.355469 460.332031 C 268.707031 458.984375 270.890625 457.363281 272.128906 456.0625 C 274.914063 453.140625 278.824219 451.292969 283.175781 451.292969 C 291.609375 451.292969 298.441406 458.117188 298.441406 466.542969 C 298.441406 474.96875 291.609375 481.796875 283.175781 481.796875 C 278.824219 481.796875 274.914063 480.003906 272.128906 477.082031 C 270.949219 475.84375 268.902344 474.378906 266.6875 473.089844 C 267.726563 477.015625 271.011719 481.957031 273.292969 484.125 C 276.21875 486.90625 278.011719 490.816406 278.011719 495.164063 C 278.011719 503.589844 271.179688 510.417969 262.746094 510.417969 Z M 262.746094 510.417969 "/>
</g>
</svg>
