<?xml version="1.0" encoding="UTF-8"?>
<svg xmlns="http://www.w3.org/2000/svg" xmlns:xlink="http://www.w3.org/1999/xlink" width="371pt" height="540pt" viewBox="0 0 371 540" version="1.1">
<g id="surface1">
<path style="fill-rule:nonzero;fill:rgb(100%,100%,100%);fill-opacity:1;stroke-width:0.5;stroke-linecap:butt;stroke-linejoin:miter;stroke:rgb(0%,0%,0%);stroke-opacity:1;stroke-miterlimit:4;" d="M 166.836617 235.89229 C 166.836617 239.68485 163.750894 242.783692 159.966749 242.783692 L 7.110884 242.783692 C 3.335536 242.783692 0.249813 239.68485 0.249813 235.89229 L 0.249813 6.77519 C 0.249813 2.987912 3.335536 -0.116212 7.110884 -0.116212 L 159.966749 -0.116212 C 163.750894 -0.116212 166.836617 2.987912 166.836617 6.77519 Z M 166.836617 235.89229 " transform="matrix(2.220408,0,0,2.218571,0,0.812511)"/>
<path style=" stroke:none;fill-rule:nonzero;fill:rgb(90.196078%,7.843137%,3.137255%);fill-opacity:1;" d="M 43.464844 58.589844 L 33.683594 58.589844 L 33.683594 55.332031 L 36.320313 55.332031 L 36.320313 48.050781 L 28.824219 48.050781 L 28.824219 44.96875 L 36.316406 17.824219 L 40.828125 17.824219 L 40.828125 44.585938 L 43.882813 44.585938 L 43.882813 48.050781 L 40.828125 48.050781 L 40.828125 55.332031 L 43.464844 55.332031 Z M 36.320313 44.585938 L 36.320313 25.144531 L 30.96875 44.585938 Z M 36.320313 44.585938 "/>
<path style=" stroke:none;fill-rule:nonzero;fill:rgb(90.196078%,7.843137%,3.137255%);fill-opacity:1;" d="M 327.535156 481.410156 L 337.316406 481.410156 L 337.316406 484.667969 L 334.679688 484.667969 L 334.679688 491.949219 L 342.175781 491.949219 L 342.175781 495.03125 L 334.679688 522.175781 L 330.171875 522.175781 L 330.171875 495.414063 L 327.117188 495.414063 L 327.117188 491.949219 L 330.171875 491.949219 L 330.171875 484.667969 L 327.535156 484.667969 Z M 334.679688 495.414063 L 334.679688 514.855469 L 340.03125 495.414063 Z M 334.679688 495.414063 "/>
<path style=" stroke:none;fill-rule:nonzero;fill:rgb(90.196078%,7.843137%,3.137255%);fill-opacity:1;" d="M 105.996094 31 C 105.9375 32.984375 104.757813 40.4375 91.894531 52.773438 C 79.515625 64.644531 73.734375 66.070313 71.996094 66.195313 C 73.734375 66.320313 79.515625 67.746094 91.894531 79.617188 C 104.757813 91.953125 105.9375 99.40625 105.996094 101.394531 C 106.054688 99.40625 107.234375 91.953125 120.097656 79.617188 C 132.480469 67.746094 138.261719 66.320313 139.996094 66.195313 C 138.261719 66.070313 132.480469 64.644531 120.097656 52.773438 C 107.234375 40.4375 106.054688 32.984375 105.996094 31 Z M 105.996094 31 "/>
<path style=" stroke:none;fill-rule:nonzero;fill:rgb(90.196078%,7.843137%,3.137255%);fill-opacity:1;" d="M 36.351563 66.304688 C 36.335938 66.902344 35.980469 69.144531 32.113281 72.851563 C 28.390625 76.421875 26.652344 76.851563 26.128906 76.890625 C 26.652344 76.925781 28.390625 77.355469 32.113281 80.925781 C 35.980469 84.632813 36.335938 86.875 36.351563 87.472656 C 36.371094 86.875 36.726563 84.632813 40.59375 80.925781 C 44.316406 77.355469 46.054688 76.925781 46.578125 76.890625 C 46.054688 76.851563 44.316406 76.421875 40.59375 72.851563 C 36.726563 69.144531 36.371094 66.902344 36.351563 66.304688 Z M 36.351563 66.304688 "/>
<path style=" stroke:none;fill-rule:nonzero;fill:rgb(90.196078%,7.843137%,3.137255%);fill-opacity:1;" d="M 334.648438 451.851563 C 334.628906 452.449219 334.273438 454.6875 330.40625 458.398438 C 326.683594 461.96875 324.945313 462.394531 324.421875 462.433594 C 324.945313 462.472656 326.683594 462.898438 330.40625 466.46875 C 334.273438 470.179688 334.628906 472.417969 334.648438 473.015625 C 334.664063 472.417969 335.019531 470.179688 338.886719 466.46875 C 342.609375 462.898438 344.347656 462.472656 344.871094 462.433594 C 344.347656 462.394531 342.609375 461.96875 338.886719 458.398438 C 335.019531 454.6875 334.664063 452.449219 334.648438 451.851563 Z M 334.648438 451.851563 "/>
<path style=" stroke:none;fill-rule:nonzero;fill:rgb(90.196078%,7.843137%,3.137255%);fill-opacity:1;" d="M 262.914063 31 C 262.855469 32.984375 261.675781 40.4375 248.8125 52.773438 C 236.433594 64.644531 230.652344 66.070313 228.914063 66.195313 C 230.652344 66.320313 236.433594 67.746094 248.8125 79.617188 C 261.675781 91.953125 262.855469 99.40625 262.914063 101.394531 C 262.972656 99.40625 264.152344 91.953125 277.015625 79.617188 C 289.394531 67.746094 295.175781 66.320313 296.914063 66.195313 C 295.175781 66.070313 289.394531 64.644531 277.015625 52.773438 C 264.152344 40.4375 262.972656 32.984375 262.914063 31 Z M 262.914063 31 "/>
<path style=" stroke:none;fill-rule:nonzero;fill:rgb(90.196078%,7.843137%,3.137255%);fill-opacity:1;" d="M 105.996094 438.554688 C 105.9375 440.542969 104.757813 447.996094 91.894531 460.332031 C 79.515625 472.203125 73.734375 473.628906 71.996094 473.753906 C 73.734375 473.878906 79.515625 475.304688 91.894531 487.175781 C 104.757813 499.511719 105.9375 506.964844 105.996094 508.953125 C 106.054688 506.964844 107.234375 499.511719 120.097656 487.175781 C 132.480469 475.304688 138.261719 473.878906 139.996094 473.753906 C 138.261719 473.628906 132.480469 472.203125 120.097656 460.332031 C 107.234375 447.996094 106.054688 440.542969 105.996094 438.554688 Z M 105.996094 438.554688 "/>
<path style=" stroke:none;fill-rule:nonzero;fill:rgb(90.196078%,7.843137%,3.137255%);fill-opacity:1;" d="M 262.914063 438.554688 C 262.855469 440.542969 261.675781 447.996094 248.8125 460.332031 C 236.433594 472.203125 230.652344 473.628906 228.914063 473.753906 C 230.652344 473.878906 236.433594 475.304688 248.8125 487.175781 C 261.675781 499.511719 262.855469 506.964844 262.914063 508.953125 C 262.972656 506.964844 264.152344 499.511719 277.015625 487.175781 C 289.394531 475.304688 295.175781 473.878906 296.914063 473.753906 C 295.175781 473.628906 289.394531 472.203125 277.015625 460.332031 C 264.152344 447.996094 262.972656 440.542969 262.914063 438.554688 Z M 262.914063 438.554688 "/>
</g>
</svg>
