<?xml version="1.0" encoding="UTF-8"?>
<svg xmlns="http://www.w3.org/2000/svg" xmlns:xlink="http://www.w3.org/1999/xlink" width="371pt" height="540pt" viewBox="0 0 371 540" version="1.1">
<g id="surface1">
<path style="fill-rule:nonzero;fill:rgb(100%,100%,100%);fill-opacity:1;stroke-width:0.5;stroke-linecap:butt;stroke-linejoin:miter;stroke:rgb(0%,0%,0%);stroke-opacity:1;stroke-miterlimit:4;" d="M 166.836617 235.89229 C 166.836617 239.68485 163.750894 242.783692 159.966749 242.783692 L 7.110884 242.783692 C 3.335536 242.783692 0.249813 239.68485 0.249813 235.89229 L 0.249813 6.77519 C 0.249813 2.987912 3.335536 -0.116212 7.110884 -0.116212 L 159.966749 -0.116212 C 163.750894 -0.116212 166.836617 2.987912 166.836617 6.77519 Z M 166.836617 235.89229 " transform="matrix(2.220408,0,0,2.218571,0,0.812511)"/>
<path style=" stroke:none;fill-rule:nonzero;fill:rgb(90.196078%,7.843137%,3.137255%);fill-opacity:1;" d="M 43.464844 58.589844 L 33.683594 58.589844 L 33.683594 55.332031 L 36.320313 55.332031 L 36.320313 48.050781 L 28.824219 48.050781 L 28.824219 44.96875 L 36.316406 17.824219 L 40.828125 17.824219 L 40.828125 44.585938 L 43.882813 44.585938 L 43.882813 48.050781 L 40.828125 48.050781 L 40.828125 55.332031 L 43.464844 55.332031 Z M 36.320313 44.585938 L 36.320313 25.144531 L 30.96875 44.585938 Z M 36.320313 44.585938 "/>
<path style=" stroke:none;fill-rule:nonzero;fill:rgb(90.196078%,7.843137%,3.137255%);fill-opacity:1;" d="M 327.535156 481.410156 L 337.316406 481.410156 L 337.316406 484.667969 L 334.679688 484.667969 L 334.679688 491.949219 L 342.175781 491.949219 L 342.175781 495.03125 L 334.679688 522.175781 L 330.171875 522.175781 L 330.171875 495.414063 L 327.117188 495.414063 L 327.117188 491.949219 L 330.171875 491.949219 L 330.171875 484.667969 L 327.535156 484.667969 Z M 334.679688 495.414063 L 334.679688 514.855469 L 340.03125 495.414063 Z M 334.679688 495.414063 "/>
<path style=" stroke:none;fill-rule:nonzero;fill:rgb(90.196078%,7.843137%,3.137255%);fill-opacity:1;" d="M 88.523438 30.386719 C 78.957031 30.40625 71.179688 38.574219 71.242188 48.597656 C 71.378906 69.851563 98.09375 85.21875 105.96875 102.007813 C 113.84375 85.21875 140.617188 69.851563 140.75 48.597656 C 140.8125 38.574219 133.035156 30.40625 123.472656 30.386719 C 113.90625 30.367188 105.996094 38.5 105.96875 48.542969 C 105.941406 38.5 98.085938 30.367188 88.523438 30.386719 Z M 88.523438 30.386719 "/>
<path style=" stroke:none;fill-rule:nonzero;fill:rgb(90.196078%,7.843137%,3.137255%);fill-opacity:1;" d="M 31.097656 66.121094 C 28.222656 66.128906 25.882813 68.582031 25.902344 71.597656 C 25.945313 77.988281 33.976563 82.609375 36.34375 87.65625 C 38.714844 82.609375 46.761719 77.988281 46.804688 71.597656 C 46.824219 68.582031 44.484375 66.128906 41.609375 66.121094 C 38.730469 66.117188 36.355469 68.5625 36.34375 71.582031 C 36.335938 68.5625 33.976563 66.117188 31.097656 66.121094 Z M 31.097656 66.121094 "/>
<path style=" stroke:none;fill-rule:nonzero;fill:rgb(90.196078%,7.843137%,3.137255%);fill-opacity:1;" d="M 329.390625 473.199219 C 326.515625 473.195313 324.175781 470.738281 324.195313 467.726563 C 324.238281 461.335938 332.269531 456.714844 334.636719 451.664063 C 337.007813 456.714844 345.054688 461.335938 345.097656 467.726563 C 345.117188 470.738281 342.777344 473.195313 339.902344 473.199219 C 337.023438 473.207031 334.648438 470.761719 334.636719 467.742188 C 334.628906 470.761719 332.269531 473.207031 329.390625 473.199219 Z M 329.390625 473.199219 "/>
<path style=" stroke:none;fill-rule:nonzero;fill:rgb(90.196078%,7.843137%,3.137255%);fill-opacity:1;" d="M 245.441406 30.386719 C 235.875 30.40625 228.097656 38.574219 228.160156 48.597656 C 228.292969 69.851563 255.011719 85.21875 262.886719 102.007813 C 270.761719 85.21875 297.535156 69.851563 297.667969 48.597656 C 297.730469 38.574219 289.953125 30.40625 280.386719 30.386719 C 270.824219 30.367188 262.914063 38.5 262.886719 48.542969 C 262.859375 38.5 255.003906 30.367188 245.441406 30.386719 Z M 245.441406 30.386719 "/>
<path style=" stroke:none;fill-rule:nonzero;fill:rgb(90.196078%,7.843137%,3.137255%);fill-opacity:1;" d="M 88.523438 509.566406 C 78.957031 509.542969 71.179688 501.375 71.242188 491.355469 C 71.378906 470.101563 98.09375 454.730469 105.96875 437.945313 C 113.84375 454.730469 140.617188 470.101563 140.75 491.355469 C 140.8125 501.375 133.035156 509.542969 123.472656 509.566406 C 113.90625 509.585938 105.996094 501.453125 105.96875 491.410156 C 105.941406 501.453125 98.085938 509.585938 88.523438 509.566406 Z M 88.523438 509.566406 "/>
<path style=" stroke:none;fill-rule:nonzero;fill:rgb(90.196078%,7.843137%,3.137255%);fill-opacity:1;" d="M 245.441406 509.566406 C 235.875 509.542969 228.097656 501.375 228.160156 491.355469 C 228.292969 470.101563 255.011719 454.730469 262.886719 437.945313 C 270.761719 454.730469 297.535156 470.101563 297.667969 491.355469 C 297.730469 501.375 289.953125 509.542969 280.386719 509.566406 C 270.824219 509.585938 262.914063 501.453125 262.886719 491.410156 C 262.859375 501.453125 255.003906 509.585938 245.441406 509.566406 Z M 245.441406 509.566406 "/>
</g>
</svg>
