<?xml version="1.0" encoding="UTF-8"?>
<svg xmlns="http://www.w3.org/2000/svg" xmlns:xlink="http://www.w3.org/1999/xlink" width="371pt" height="540pt" viewBox="0 0 371 540" version="1.1">
<g id="surface1">
<path style="fill-rule:nonzero;fill:rgb(100%,100%,100%);fill-opacity:1;stroke-width:0.5;stroke-linecap:butt;stroke-linejoin:miter;stroke:rgb(0%,0%,0%);stroke-opacity:1;stroke-miterlimit:4;" d="M 166.836617 235.89229 C 166.836617 239.68485 163.750894 242.783692 159.966749 242.783692 L 7.110884 242.783692 C 3.335536 242.783692 0.249813 239.68485 0.249813 235.89229 L 0.249813 6.77519 C 0.249813 2.987912 3.335536 -0.116212 7.110884 -0.116212 L 159.966749 -0.116212 C 163.750894 -0.116212 166.836617 2.987912 166.836617 6.77519 Z M 166.836617 235.89229 " transform="matrix(2.220408,0,0,2.218571,0,0.812511)"/>
<path style=" stroke:none;fill-rule:nonzero;fill:rgb(0%,0%,0%);fill-opacity:1;" d="M 43.464844 58.589844 L 33.683594 58.589844 L 33.683594 55.332031 L 36.320313 55.332031 L 36.320313 48.050781 L 28.824219 48.050781 L 28.824219 44.96875 L 36.316406 17.824219 L 40.828125 17.824219 L 40.828125 44.585938 L 43.882813 44.585938 L 43.882813 48.050781 L 40.828125 48.050781 L 40.828125 55.332031 L 43.464844 55.332031 Z M 36.320313 44.585938 L 36.320313 25.144531 L 30.96875 44.585938 Z M 36.320313 44.585938 "/>
<path style=" stroke:none;fill-rule:nonzero;fill:rgb(0%,0%,0%);fill-opacity:1;" d="M 327.535156 481.410156 L 337.316406 481.410156 L 337.316406 484.667969 L 334.679688 484.667969 L 334.679688 491.949219 L 342.175781 491.949219 L 342.175781 495.03125 L 334.679688 522.175781 L 330.171875 522.175781 L 330.171875 495.414063 L 327.117188 495.414063 L 327.117188 491.949219 L 330.171875 491.949219 L 330.171875 484.667969 L 327.535156 484.667969 Z M 334.679688 495.414063 L 334.679688 514.855469 L 340.03125 495.414063 Z M 334.679688 495.414063 "/>
<path style=" stroke:none;fill-rule:nonzero;fill:rgb(0%,0%,0%);fill-opacity:1;" d="M 124.136719 102.878906 C 116.410156 102.886719 112.347656 94.65625 110.214844 86.425781 C 108.082031 78.195313 107.882813 69.957031 107.882813 69.957031 L 103.9375 69.917969 C 103.9375 69.917969 103.199219 102.859375 87.75 102.871094 Z M 124.136719 102.878906 "/>
<path style=" stroke:none;fill-rule:nonzero;fill:rgb(0%,0%,0%);fill-opacity:1;" d="M 137.207031 69.949219 C 137.140625 53.882813 113.066406 42.226563 105.996094 29.511719 C 98.929688 42.226563 74.855469 53.882813 74.785156 69.949219 C 74.753906 77.535156 81.773438 83.679688 90.390625 83.679688 C 99.007813 83.679688 105.996094 77.535156 105.996094 69.949219 C 105.996094 77.535156 112.984375 83.679688 121.601563 83.679688 C 130.222656 83.679688 137.207031 77.535156 137.207031 69.949219 Z M 137.207031 69.949219 "/>
<path style=" stroke:none;fill-rule:nonzero;fill:rgb(0%,0%,0%);fill-opacity:1;" d="M 42.0625 88.4375 C 39.632813 88.441406 38.351563 85.847656 37.679688 83.257813 C 37.007813 80.664063 36.945313 78.074219 36.945313 78.074219 L 35.707031 78.0625 C 35.707031 78.0625 35.472656 88.433594 30.609375 88.4375 Z M 42.0625 88.4375 "/>
<path style=" stroke:none;fill-rule:nonzero;fill:rgb(0%,0%,0%);fill-opacity:1;" d="M 46.179688 78.070313 C 46.160156 73.011719 38.578125 69.34375 36.351563 65.339844 C 34.128906 69.34375 26.546875 73.011719 26.527344 78.070313 C 26.515625 80.460938 28.726563 82.394531 31.441406 82.394531 C 34.152344 82.394531 36.351563 80.460938 36.351563 78.070313 C 36.351563 80.460938 38.554688 82.394531 41.265625 82.394531 C 43.980469 82.394531 46.179688 80.460938 46.179688 78.070313 Z M 46.179688 78.070313 "/>
<path style=" stroke:none;fill-rule:nonzero;fill:rgb(0%,0%,0%);fill-opacity:1;" d="M 328.9375 450.882813 C 331.367188 450.878906 332.648438 453.472656 333.320313 456.0625 C 333.988281 458.65625 334.054688 461.25 334.054688 461.25 L 335.292969 461.261719 C 335.292969 461.261719 335.527344 450.890625 340.390625 450.886719 Z M 328.9375 450.882813 "/>
<path style=" stroke:none;fill-rule:nonzero;fill:rgb(0%,0%,0%);fill-opacity:1;" d="M 324.820313 461.25 C 324.84375 466.308594 332.421875 469.980469 334.648438 473.984375 C 336.871094 469.980469 344.449219 466.308594 344.472656 461.25 C 344.484375 458.859375 342.273438 456.929688 339.558594 456.929688 C 336.847656 456.929688 334.648438 458.859375 334.648438 461.25 C 334.648438 458.859375 332.445313 456.929688 329.734375 456.929688 C 327.019531 456.929688 324.820313 458.859375 324.820313 461.25 Z M 324.820313 461.25 "/>
<path style=" stroke:none;fill-rule:nonzero;fill:rgb(0%,0%,0%);fill-opacity:1;" d="M 281.050781 102.878906 C 273.328125 102.886719 269.265625 94.65625 267.132813 86.425781 C 264.996094 78.195313 264.796875 69.957031 264.796875 69.957031 L 260.855469 69.917969 C 260.855469 69.917969 260.113281 102.859375 244.667969 102.871094 Z M 281.050781 102.878906 "/>
<path style=" stroke:none;fill-rule:nonzero;fill:rgb(0%,0%,0%);fill-opacity:1;" d="M 294.125 69.949219 C 294.058594 53.882813 269.984375 42.226563 262.910156 29.511719 C 255.847656 42.226563 231.769531 53.882813 231.703125 69.949219 C 231.671875 77.535156 238.691406 83.679688 247.308594 83.679688 C 255.925781 83.679688 262.910156 77.535156 262.910156 69.949219 C 262.910156 77.535156 269.902344 83.679688 278.519531 83.679688 C 287.140625 83.679688 294.125 77.535156 294.125 69.949219 Z M 294.125 69.949219 "/>
<path style=" stroke:none;fill-rule:nonzero;fill:rgb(0%,0%,0%);fill-opacity:1;" d="M 124.136719 437.070313 C 116.410156 437.0625 112.347656 445.292969 110.214844 453.523438 C 108.082031 461.757813 107.882813 469.992188 107.882813 469.992188 L 103.9375 470.03125 C 103.9375 470.03125 103.199219 437.09375 87.75 437.078125 Z M 124.136719 437.070313 "/>
<path style=" stroke:none;fill-rule:nonzero;fill:rgb(0%,0%,0%);fill-opacity:1;" d="M 137.207031 470 C 137.140625 486.070313 113.066406 497.722656 105.996094 510.4375 C 98.929688 497.722656 74.855469 486.070313 74.785156 470 C 74.753906 462.414063 81.773438 456.269531 90.390625 456.269531 C 99.007813 456.269531 105.996094 462.414063 105.996094 470 C 105.996094 462.414063 112.984375 456.269531 121.601563 456.269531 C 130.222656 456.269531 137.207031 462.414063 137.207031 470 Z M 137.207031 470 "/>
<path style=" stroke:none;fill-rule:nonzero;fill:rgb(0%,0%,0%);fill-opacity:1;" d="M 281.050781 437.070313 C 273.328125 437.0625 269.265625 445.292969 267.132813 453.523438 C 264.996094 461.757813 264.796875 469.992188 264.796875 469.992188 L 260.855469 470.03125 C 260.855469 470.03125 260.113281 437.09375 244.667969 437.078125 Z M 281.050781 437.070313 "/>
<path style=" stroke:none;fill-rule:nonzero;fill:rgb(0%,0%,0%);fill-opacity:1;" d="M 294.125 470 C 294.058594 486.070313 269.984375 497.722656 262.910156 510.4375 C 255.847656 497.722656 231.769531 486.070313 231.703125 470 C 231.671875 462.414063 238.691406 456.269531 247.308594 456.269531 C 255.925781 456.269531 262.910156 462.414063 262.910156 470 C 262.910156 462.414063 269.902344 456.269531 278.519531 456.269531 C 287.140625 456.269531 294.125 462.414063 294.125 470 Z M 294.125 470 "/>
</g>
</svg>
