<?xml version="1.0" encoding="UTF-8"?>
<svg xmlns="http://www.w3.org/2000/svg" xmlns:xlink="http://www.w3.org/1999/xlink" width="371pt" height="540pt" viewBox="0 0 371 540" version="1.1">
<g id="surface1">
<path style="fill-rule:nonzero;fill:rgb(100%,100%,100%);fill-opacity:1;stroke-width:0.5;stroke-linecap:butt;stroke-linejoin:miter;stroke:rgb(0%,0%,0%);stroke-opacity:1;stroke-miterlimit:4;" d="M 166.836617 235.89229 C 166.836617 239.68485 163.750894 242.783692 159.966749 242.783692 L 7.110884 242.783692 C 3.335536 242.783692 0.249813 239.68485 0.249813 235.89229 L 0.249813 6.77519 C 0.249813 2.987912 3.335536 -0.116212 7.110884 -0.116212 L 159.966749 -0.116212 C 163.750894 -0.116212 166.836617 2.987912 166.836617 6.77519 Z M 166.836617 235.89229 " transform="matrix(2.220408,0,0,2.218571,0,0.812511)"/>
<path style=" stroke:none;fill-rule:nonzero;fill:rgb(0%,0%,0%);fill-opacity:1;" d="M 41.558594 17.824219 L 41.558594 24.828125 L 32.050781 24.828125 L 32.050781 33.644531 C 32.585938 32.726563 33.171875 32.03125 33.8125 31.5625 C 34.453125 31.09375 35.128906 30.859375 35.84375 30.859375 C 38.050781 30.859375 39.785156 32.105469 41.050781 34.597656 C 42.3125 37.089844 42.945313 40.476563 42.945313 44.765625 C 42.945313 49.125 42.3125 52.519531 41.042969 54.945313 C 39.773438 57.375 37.988281 58.589844 35.683594 58.589844 C 34.71875 58.589844 33.753906 58.410156 32.789063 58.050781 C 31.824219 57.6875 30.816406 57.128906 29.761719 56.371094 L 29.761719 47.636719 L 31.21875 47.636719 C 31.273438 50.273438 31.582031 52.242188 32.144531 53.53125 C 32.707031 54.824219 33.535156 55.472656 34.625 55.472656 C 35.808594 55.472656 36.679688 54.59375 37.242188 52.835938 C 37.804688 51.074219 38.089844 48.394531 38.089844 44.789063 C 38.089844 41.238281 37.8125 38.582031 37.257813 36.824219 C 36.707031 35.066406 35.867188 34.1875 34.746094 34.1875 C 34.136719 34.1875 33.597656 34.46875 33.125 35.027344 C 32.652344 35.589844 32.210938 36.453125 31.800781 37.628906 L 30.59375 37.628906 L 30.59375 17.824219 Z M 41.558594 17.824219 "/>
<path style=" stroke:none;fill-rule:nonzero;fill:rgb(0%,0%,0%);fill-opacity:1;" d="M 329.441406 522.175781 L 329.441406 515.171875 L 338.949219 515.171875 L 338.949219 506.355469 C 338.414063 507.277344 337.824219 507.972656 337.1875 508.441406 C 336.546875 508.90625 335.871094 509.140625 335.15625 509.140625 C 332.949219 509.140625 331.214844 507.894531 329.949219 505.402344 C 328.6875 502.914063 328.054688 499.523438 328.054688 495.238281 C 328.054688 490.878906 328.6875 487.484375 329.957031 485.054688 C 331.226563 482.625 333.011719 481.410156 335.3125 481.410156 C 336.28125 481.410156 337.246094 481.589844 338.210938 481.949219 C 339.175781 482.3125 340.183594 482.871094 341.238281 483.628906 L 341.238281 492.363281 L 339.78125 492.363281 C 339.726563 489.726563 339.417969 487.761719 338.851563 486.46875 C 338.289063 485.175781 337.464844 484.527344 336.371094 484.527344 C 335.191406 484.527344 334.320313 485.410156 333.757813 487.167969 C 333.195313 488.925781 332.910156 491.605469 332.910156 495.210938 C 332.910156 498.761719 333.1875 501.417969 333.738281 503.175781 C 334.292969 504.933594 335.132813 505.8125 336.253906 505.8125 C 336.863281 505.8125 337.398438 505.535156 337.875 504.972656 C 338.347656 504.414063 338.789063 503.546875 339.195313 502.375 L 340.40625 502.375 L 340.40625 522.175781 Z M 329.441406 522.175781 "/>
<path style=" stroke:none;fill-rule:nonzero;fill:rgb(0%,0%,0%);fill-opacity:1;" d="M 334.695313 473.457031 C 337.230469 473.457031 339.285156 471.402344 339.285156 468.871094 C 339.285156 467.5625 338.730469 466.386719 337.851563 465.550781 C 337.171875 464.90625 336.203125 463.441406 335.882813 462.265625 C 336.511719 462.644531 337.078125 463.078125 337.417969 463.433594 C 338.253906 464.3125 339.429688 464.851563 340.738281 464.851563 C 343.273438 464.851563 345.328125 462.796875 345.328125 460.265625 C 345.328125 457.730469 343.273438 455.679688 340.738281 455.679688 C 339.429688 455.679688 338.253906 456.234375 337.417969 457.113281 C 337.058594 457.488281 336.453125 457.964844 335.78125 458.363281 C 335.875 454.15625 337.320313 451.410156 339.953125 451.410156 C 339.953125 451.410156 329.421875 451.410156 329.421875 451.410156 C 332.0625 451.410156 333.523438 454.171875 333.613281 458.398438 C 332.90625 457.992188 332.25 457.503906 331.875 457.113281 C 331.039063 456.234375 329.863281 455.679688 328.554688 455.679688 C 326.019531 455.679688 323.964844 457.730469 323.964844 460.265625 C 323.964844 462.796875 326.019531 464.851563 328.554688 464.851563 C 329.863281 464.851563 331.039063 464.3125 331.875 463.433594 C 332.230469 463.0625 332.847656 462.621094 333.511719 462.234375 C 333.199219 463.414063 332.210938 464.898438 331.523438 465.550781 C 330.644531 466.386719 330.105469 467.5625 330.105469 468.871094 C 330.105469 471.402344 332.160156 473.457031 334.695313 473.457031 Z M 334.695313 473.457031 "/>
<path style=" stroke:none;fill-rule:nonzero;fill:rgb(0%,0%,0%);fill-opacity:1;" d="M 36.304688 65.867188 C 33.769531 65.867188 31.714844 67.917969 31.714844 70.453125 C 31.714844 71.757813 32.269531 72.933594 33.148438 73.769531 C 33.828125 74.417969 34.796875 75.882813 35.117188 77.054688 C 34.488281 76.675781 33.921875 76.246094 33.582031 75.886719 C 32.746094 75.011719 31.570313 74.472656 30.261719 74.472656 C 27.726563 74.472656 25.671875 76.523438 25.671875 79.058594 C 25.671875 81.589844 27.726563 83.644531 30.261719 83.644531 C 31.570313 83.644531 32.746094 83.085938 33.582031 82.210938 C 33.941406 81.832031 34.546875 81.355469 35.21875 80.957031 C 35.125 85.164063 33.679688 87.914063 31.046875 87.914063 C 31.046875 87.914063 41.578125 87.914063 41.578125 87.914063 C 38.9375 87.914063 37.476563 85.148438 37.386719 80.925781 C 38.09375 81.328125 38.75 81.816406 39.125 82.210938 C 39.960938 83.085938 41.136719 83.644531 42.445313 83.644531 C 44.980469 83.644531 47.035156 81.589844 47.035156 79.058594 C 47.035156 76.523438 44.980469 74.472656 42.445313 74.472656 C 41.136719 74.472656 39.960938 75.011719 39.125 75.886719 C 38.769531 76.261719 38.152344 76.703125 37.488281 77.089844 C 37.800781 75.910156 38.789063 74.421875 39.476563 73.769531 C 40.355469 72.933594 40.894531 71.757813 40.894531 70.453125 C 40.894531 67.917969 38.839844 65.867188 36.304688 65.867188 Z M 36.304688 65.867188 "/>
<path style=" stroke:none;fill-rule:nonzero;fill:rgb(0%,0%,0%);fill-opacity:1;" d="M 105.832031 29.535156 C 97.398438 29.535156 90.566406 36.359375 90.566406 44.785156 C 90.566406 49.136719 92.414063 53.042969 95.339844 55.824219 C 97.597656 57.972656 100.816406 62.84375 101.890625 66.75 C 99.796875 65.492188 97.914063 64.054688 96.78125 62.867188 C 94 59.945313 90.089844 58.152344 85.734375 58.152344 C 77.304688 58.152344 70.46875 64.980469 70.46875 73.40625 C 70.46875 81.832031 77.304688 88.660156 85.734375 88.660156 C 90.089844 88.660156 94 86.8125 96.78125 83.890625 C 97.976563 82.636719 99.992188 81.050781 102.222656 79.730469 C 101.910156 93.71875 97.105469 102.859375 88.34375 102.859375 C 88.34375 102.859375 123.371094 102.859375 123.371094 102.859375 C 114.589844 102.859375 109.726563 93.671875 109.4375 79.617188 C 111.789063 80.964844 113.972656 82.589844 115.210938 83.890625 C 117.996094 86.8125 121.90625 88.660156 126.257813 88.660156 C 134.691406 88.660156 141.523438 81.832031 141.523438 73.40625 C 141.523438 64.980469 134.691406 58.152344 126.257813 58.152344 C 121.90625 58.152344 117.996094 59.945313 115.210938 62.867188 C 114.03125 64.105469 111.984375 65.574219 109.773438 66.863281 C 110.808594 62.9375 114.09375 57.996094 116.378906 55.824219 C 119.300781 53.042969 121.097656 49.136719 121.097656 44.785156 C 121.097656 36.359375 114.261719 29.535156 105.832031 29.535156 Z M 105.832031 29.535156 "/>
<path style=" stroke:none;fill-rule:nonzero;fill:rgb(0%,0%,0%);fill-opacity:1;" d="M 105.832031 510.417969 C 97.398438 510.417969 90.566406 503.589844 90.566406 495.164063 C 90.566406 490.816406 92.414063 486.90625 95.339844 484.125 C 97.597656 481.976563 100.816406 477.105469 101.890625 473.199219 C 99.796875 474.460938 97.914063 475.894531 96.78125 477.082031 C 94 480.003906 90.089844 481.796875 85.734375 481.796875 C 77.304688 481.796875 70.46875 474.96875 70.46875 466.542969 C 70.46875 458.117188 77.304688 451.292969 85.734375 451.292969 C 90.089844 451.292969 94 453.140625 96.78125 456.0625 C 97.976563 457.3125 99.992188 458.898438 102.222656 460.222656 C 101.910156 446.234375 97.105469 437.09375 88.34375 437.09375 C 88.34375 437.09375 123.371094 437.09375 123.371094 437.09375 C 114.589844 437.09375 109.726563 446.28125 109.4375 460.332031 C 111.789063 458.984375 113.972656 457.363281 115.210938 456.0625 C 117.996094 453.140625 121.90625 451.292969 126.257813 451.292969 C 134.691406 451.292969 141.523438 458.117188 141.523438 466.542969 C 141.523438 474.96875 134.691406 481.796875 126.257813 481.796875 C 121.90625 481.796875 117.996094 480.003906 115.210938 477.082031 C 114.03125 475.84375 111.984375 474.378906 109.773438 473.089844 C 110.808594 477.015625 114.09375 481.957031 116.378906 484.125 C 119.300781 486.90625 121.097656 490.816406 121.097656 495.164063 C 121.097656 503.589844 114.261719 510.417969 105.832031 510.417969 Z M 105.832031 510.417969 "/>
<path style=" stroke:none;fill-rule:nonzero;fill:rgb(0%,0%,0%);fill-opacity:1;" d="M 262.746094 29.535156 C 254.316406 29.535156 247.480469 36.359375 247.480469 44.785156 C 247.480469 49.136719 249.332031 53.042969 252.257813 55.824219 C 254.515625 57.972656 257.734375 62.84375 258.804688 66.75 C 256.714844 65.492188 254.832031 64.054688 253.699219 62.867188 C 250.917969 59.945313 247.003906 58.152344 242.652344 58.152344 C 234.21875 58.152344 227.386719 64.980469 227.386719 73.40625 C 227.386719 81.832031 234.21875 88.660156 242.652344 88.660156 C 247.003906 88.660156 250.917969 86.8125 253.699219 83.890625 C 254.894531 82.636719 256.910156 81.050781 259.140625 79.730469 C 258.828125 93.71875 254.023438 102.859375 245.261719 102.859375 C 245.261719 102.859375 280.289063 102.859375 280.289063 102.859375 C 271.503906 102.859375 266.644531 93.671875 266.355469 79.617188 C 268.707031 80.964844 270.890625 82.589844 272.128906 83.890625 C 274.914063 86.8125 278.824219 88.660156 283.175781 88.660156 C 291.609375 88.660156 298.441406 81.832031 298.441406 73.40625 C 298.441406 64.980469 291.609375 58.152344 283.175781 58.152344 C 278.824219 58.152344 274.914063 59.945313 272.128906 62.867188 C 270.949219 64.105469 268.902344 65.574219 266.6875 66.863281 C 267.726563 62.9375 271.011719 57.996094 273.292969 55.824219 C 276.21875 53.042969 278.011719 49.136719 278.011719 44.785156 C 278.011719 36.359375 271.179688 29.535156 262.746094 29.535156 Z M 262.746094 29.535156 "/>
<path style=" stroke:none;fill-rule:nonzero;fill:rgb(0%,0%,0%);fill-opacity:1;" d="M 262.746094 510.417969 C 254.316406 510.417969 247.480469 503.589844 247.480469 495.164063 C 247.480469 490.816406 249.332031 486.90625 252.257813 484.125 C 254.515625 481.976563 257.734375 477.105469 258.804688 473.199219 C 256.714844 474.460938 254.832031 475.894531 253.699219 477.082031 C 250.917969 480.003906 247.003906 481.796875 242.652344 481.796875 C 234.21875 481.796875 227.386719 474.96875 227.386719 466.542969 C 227.386719 458.117188 234.21875 451.292969 242.652344 451.292969 C 247.003906 451.292969 250.917969 453.140625 253.699219 456.0625 C 254.894531 457.3125 256.910156 458.898438 259.140625 460.222656 C 258.828125 446.234375 254.023438 437.09375 245.261719 437.09375 C 245.261719 437.09375 280.289063 437.09375 280.289063 437.09375 C 271.503906 437.09375 266.644531 446.28125 266.355469 460.332031 C 268.707031 458.984375 270.890625 457.363281 272.128906 456.0625 C 274.914063 453.140625 278.824219 451.292969 283.175781 451.292969 C 291.609375 451.292969 298.441406 458.117188 298.441406 466.542969 C 298.441406 474.96875 291.609375 481.796875 283.175781 481.796875 C 278.824219 481.796875 274.914063 480.003906 272.128906 477.082031 C 270.949219 475.84375 268.902344 474.378906 266.6875 473.089844 C 267.726563 477.015625 271.011719 481.957031 273.292969 484.125 C 276.21875 486.90625 278.011719 490.816406 278.011719 495.164063 C 278.011719 503.589844 271.179688 510.417969 262.746094 510.417969 Z M 262.746094 510.417969 "/>
<path style=" stroke:none;fill-rule:nonzero;fill:rgb(0%,0%,0%);fill-opacity:1;" d="M 185.332031 233.339844 C 176.902344 233.339844 170.066406 240.164063 170.066406 248.589844 C 170.066406 252.941406 171.917969 256.847656 174.84375 259.628906 C 177.101563 261.777344 180.320313 266.648438 181.390625 270.554688 C 179.300781 269.296875 177.417969 267.859375 176.285156 266.671875 C 173.503906 263.75 169.589844 261.957031 165.238281 261.957031 C 156.804688 261.957031 149.972656 268.785156 149.972656 277.210938 C 149.972656 285.636719 156.804688 292.464844 165.238281 292.464844 C 169.589844 292.464844 173.503906 290.613281 176.285156 287.691406 C 177.480469 286.441406 179.496094 284.855469 181.726563 283.535156 C 181.414063 297.523438 176.609375 306.660156 167.847656 306.660156 C 167.847656 306.660156 202.875 306.660156 202.875 306.660156 C 194.089844 306.660156 189.230469 297.472656 188.941406 283.421875 C 191.292969 284.769531 193.476563 286.390625 194.714844 287.691406 C 197.496094 290.613281 201.410156 292.464844 205.761719 292.464844 C 214.195313 292.464844 221.027344 285.636719 221.027344 277.210938 C 221.027344 268.785156 214.195313 261.957031 205.761719 261.957031 C 201.410156 261.957031 197.496094 263.75 194.714844 266.671875 C 193.535156 267.910156 191.488281 269.375 189.273438 270.664063 C 190.3125 266.738281 193.597656 261.796875 195.878906 259.628906 C 198.804688 256.847656 200.597656 252.941406 200.597656 248.589844 C 200.597656 240.164063 193.765625 233.339844 185.332031 233.339844 Z M 185.332031 233.339844 "/>
</g>
</svg>
