<?xml version="1.0" encoding="UTF-8"?>
<svg xmlns="http://www.w3.org/2000/svg" xmlns:xlink="http://www.w3.org/1999/xlink" width="371pt" height="540pt" viewBox="0 0 371 540" version="1.1">
<g id="surface1">
<path style="fill-rule:nonzero;fill:rgb(100%,100%,100%);fill-opacity:1;stroke-width:0.5;stroke-linecap:butt;stroke-linejoin:miter;stroke:rgb(0%,0%,0%);stroke-opacity:1;stroke-miterlimit:4;" d="M 166.836617 235.89229 C 166.836617 239.68485 163.750894 242.783692 159.966749 242.783692 L 7.110884 242.783692 C 3.335536 242.783692 0.249813 239.68485 0.249813 235.89229 L 0.249813 6.77519 C 0.249813 2.987912 3.335536 -0.116212 7.110884 -0.116212 L 159.966749 -0.116212 C 163.750894 -0.116212 166.836617 2.987912 166.836617 6.77519 Z M 166.836617 235.89229 " transform="matrix(2.220408,0,0,2.218571,0,0.812511)"/>
<path style=" stroke:none;fill-rule:nonzero;fill:rgb(90.196078%,7.843137%,3.137255%);fill-opacity:1;" d="M 41.558594 17.824219 L 41.558594 24.828125 L 32.050781 24.828125 L 32.050781 33.644531 C 32.585938 32.726563 33.171875 32.03125 33.8125 31.5625 C 34.453125 31.09375 35.128906 30.859375 35.84375 30.859375 C 38.050781 30.859375 39.785156 32.105469 41.050781 34.597656 C 42.3125 37.089844 42.945313 40.476563 42.945313 44.765625 C 42.945313 49.125 42.3125 52.519531 41.042969 54.945313 C 39.773438 57.375 37.988281 58.589844 35.683594 58.589844 C 34.71875 58.589844 33.753906 58.410156 32.789063 58.050781 C 31.824219 57.6875 30.816406 57.128906 29.761719 56.371094 L 29.761719 47.636719 L 31.21875 47.636719 C 31.273438 50.273438 31.582031 52.242188 32.144531 53.53125 C 32.707031 54.824219 33.535156 55.472656 34.625 55.472656 C 35.808594 55.472656 36.679688 54.59375 37.242188 52.835938 C 37.804688 51.074219 38.089844 48.394531 38.089844 44.789063 C 38.089844 41.238281 37.8125 38.582031 37.257813 36.824219 C 36.707031 35.066406 35.867188 34.1875 34.746094 34.1875 C 34.136719 34.1875 33.597656 34.46875 33.125 35.027344 C 32.652344 35.589844 32.210938 36.453125 31.800781 37.628906 L 30.59375 37.628906 L 30.59375 17.824219 Z M 41.558594 17.824219 "/>
<path style=" stroke:none;fill-rule:nonzero;fill:rgb(90.196078%,7.843137%,3.137255%);fill-opacity:1;" d="M 329.441406 522.175781 L 329.441406 515.171875 L 338.949219 515.171875 L 338.949219 506.355469 C 338.414063 507.277344 337.824219 507.972656 337.1875 508.441406 C 336.546875 508.90625 335.871094 509.140625 335.15625 509.140625 C 332.949219 509.140625 331.214844 507.894531 329.949219 505.402344 C 328.6875 502.914063 328.054688 499.523438 328.054688 495.238281 C 328.054688 490.878906 328.6875 487.484375 329.957031 485.054688 C 331.226563 482.625 333.011719 481.410156 335.3125 481.410156 C 336.28125 481.410156 337.246094 481.589844 338.210938 481.949219 C 339.175781 482.3125 340.183594 482.871094 341.238281 483.628906 L 341.238281 492.363281 L 339.78125 492.363281 C 339.726563 489.726563 339.417969 487.761719 338.851563 486.46875 C 338.289063 485.175781 337.464844 484.527344 336.371094 484.527344 C 335.191406 484.527344 334.320313 485.410156 333.757813 487.167969 C 333.195313 488.925781 332.910156 491.605469 332.910156 495.210938 C 332.910156 498.761719 333.1875 501.417969 333.738281 503.175781 C 334.292969 504.933594 335.132813 505.8125 336.253906 505.8125 C 336.863281 505.8125 337.398438 505.535156 337.875 504.972656 C 338.347656 504.414063 338.789063 503.546875 339.195313 502.375 L 340.40625 502.375 L 340.40625 522.175781 Z M 329.441406 522.175781 "/>
<path style=" stroke:none;fill-rule:nonzero;fill:rgb(90.196078%,7.843137%,3.137255%);fill-opacity:1;" d="M 105.996094 31 C 105.9375 32.984375 104.757813 40.4375 91.894531 52.773438 C 79.515625 64.644531 73.734375 66.070313 71.996094 66.195313 C 73.734375 66.320313 79.515625 67.746094 91.894531 79.617188 C 104.757813 91.953125 105.9375 99.40625 105.996094 101.394531 C 106.054688 99.40625 107.234375 91.953125 120.097656 79.617188 C 132.480469 67.746094 138.261719 66.320313 139.996094 66.195313 C 138.261719 66.070313 132.480469 64.644531 120.097656 52.773438 C 107.234375 40.4375 106.054688 32.984375 105.996094 31 Z M 105.996094 31 "/>
<path style=" stroke:none;fill-rule:nonzero;fill:rgb(90.196078%,7.843137%,3.137255%);fill-opacity:1;" d="M 36.351563 66.304688 C 36.335938 66.902344 35.980469 69.144531 32.113281 72.851563 C 28.390625 76.421875 26.652344 76.851563 26.128906 76.890625 C 26.652344 76.925781 28.390625 77.355469 32.113281 80.925781 C 35.980469 84.632813 36.335938 86.875 36.351563 87.472656 C 36.371094 86.875 36.726563 84.632813 40.59375 80.925781 C 44.316406 77.355469 46.054688 76.925781 46.578125 76.890625 C 46.054688 76.851563 44.316406 76.421875 40.59375 72.851563 C 36.726563 69.144531 36.371094 66.902344 36.351563 66.304688 Z M 36.351563 66.304688 "/>
<path style=" stroke:none;fill-rule:nonzero;fill:rgb(90.196078%,7.843137%,3.137255%);fill-opacity:1;" d="M 334.648438 451.851563 C 334.628906 452.449219 334.273438 454.6875 330.40625 458.398438 C 326.683594 461.96875 324.945313 462.394531 324.421875 462.433594 C 324.945313 462.472656 326.683594 462.898438 330.40625 466.46875 C 334.273438 470.179688 334.628906 472.417969 334.648438 473.015625 C 334.664063 472.417969 335.019531 470.179688 338.886719 466.46875 C 342.609375 462.898438 344.347656 462.472656 344.871094 462.433594 C 344.347656 462.394531 342.609375 461.96875 338.886719 458.398438 C 335.019531 454.6875 334.664063 452.449219 334.648438 451.851563 Z M 334.648438 451.851563 "/>
<path style=" stroke:none;fill-rule:nonzero;fill:rgb(90.196078%,7.843137%,3.137255%);fill-opacity:1;" d="M 262.914063 31 C 262.855469 32.984375 261.675781 40.4375 248.8125 52.773438 C 236.433594 64.644531 230.652344 66.070313 228.914063 66.195313 C 230.652344 66.320313 236.433594 67.746094 248.8125 79.617188 C 261.675781 91.953125 262.855469 99.40625 262.914063 101.394531 C 262.972656 99.40625 264.152344 91.953125 277.015625 79.617188 C 289.394531 67.746094 295.175781 66.320313 296.914063 66.195313 C 295.175781 66.070313 289.394531 64.644531 277.015625 52.773438 C 264.152344 40.4375 262.972656 32.984375 262.914063 31 Z M 262.914063 31 "/>
<path style=" stroke:none;fill-rule:nonzero;fill:rgb(90.196078%,7.843137%,3.137255%);fill-opacity:1;" d="M 185.5 234.800781 C 185.441406 236.789063 184.261719 244.242188 171.398438 256.578125 C 159.019531 268.449219 153.238281 269.875 151.5 270 C 153.238281 270.125 159.019531 271.550781 171.398438 283.421875 C 184.261719 295.757813 185.441406 303.210938 185.5 305.199219 C 185.558594 303.210938 186.738281 295.757813 199.601563 283.421875 C 211.980469 271.550781 217.761719 270.125 219.5 270 C 217.761719 269.875 211.980469 268.449219 199.601563 256.578125 C 186.738281 244.242188 185.558594 236.789063 185.5 234.800781 Z M 185.5 234.800781 "/>
<path style=" stroke:none;fill-rule:nonzero;fill:rgb(90.196078%,7.843137%,3.137255%);fill-opacity:1;" d="M 105.996094 438.554688 C 105.9375 440.542969 104.757813 447.996094 91.894531 460.332031 C 79.515625 472.203125 73.734375 473.628906 71.996094 473.753906 C 73.734375 473.878906 79.515625 475.304688 91.894531 487.175781 C 104.757813 499.511719 105.9375 506.964844 105.996094 508.953125 C 106.054688 506.964844 107.234375 499.511719 120.097656 487.175781 C 132.480469 475.304688 138.261719 473.878906 139.996094 473.753906 C 138.261719 473.628906 132.480469 472.203125 120.097656 460.332031 C 107.234375 447.996094 106.054688 440.542969 105.996094 438.554688 Z M 105.996094 438.554688 "/>
<path style=" stroke:none;fill-rule:nonzero;fill:rgb(90.196078%,7.843137%,3.137255%);fill-opacity:1;" d="M 262.914063 438.554688 C 262.855469 440.542969 261.675781 447.996094 248.8125 460.332031 C 236.433594 472.203125 230.652344 473.628906 228.914063 473.753906 C 230.652344 473.878906 236.433594 475.304688 248.8125 487.175781 C 261.675781 499.511719 262.855469 506.964844 262.914063 508.953125 C 262.972656 506.964844 264.152344 499.511719 277.015625 487.175781 C 289.394531 475.304688 295.175781 473.878906 296.914063 473.753906 C 295.175781 473.628906 289.394531 472.203125 277.015625 460.332031 C 264.152344 447.996094 262.972656 440.542969 262.914063 438.554688 Z M 262.914063 438.554688 "/>
</g>
</svg>
