<?xml version="1.0" encoding="UTF-8"?>
<svg xmlns="http://www.w3.org/2000/svg" xmlns:xlink="http://www.w3.org/1999/xlink" width="371pt" height="540pt" viewBox="0 0 371 540" version="1.1">
<g id="surface1">
<path style="fill-rule:nonzero;fill:rgb(100%,100%,100%);fill-opacity:1;stroke-width:0.5;stroke-linecap:butt;stroke-linejoin:miter;stroke:rgb(0%,0%,0%);stroke-opacity:1;stroke-miterlimit:4;" d="M 166.836617 235.89229 C 166.836617 239.68485 163.750894 242.783692 159.966749 242.783692 L 7.110884 242.783692 C 3.335536 242.783692 0.249813 239.68485 0.249813 235.89229 L 0.249813 6.77519 C 0.249813 2.987912 3.335536 -0.116212 7.110884 -0.116212 L 159.966749 -0.116212 C 163.750894 -0.116212 166.836617 2.987912 166.836617 6.77519 Z M 166.836617 235.89229 " transform="matrix(2.220408,0,0,2.218571,0,0.812511)"/>
<path style=" stroke:none;fill-rule:nonzero;fill:rgb(90.196078%,7.843137%,3.137255%);fill-opacity:1;" d="M 41.558594 17.824219 L 41.558594 24.828125 L 32.050781 24.828125 L 32.050781 33.644531 C 32.585938 32.726563 33.171875 32.03125 33.8125 31.5625 C 34.453125 31.09375 35.128906 30.859375 35.84375 30.859375 C 38.050781 30.859375 39.785156 32.105469 41.050781 34.597656 C 42.3125 37.089844 42.945313 40.476563 42.945313 44.765625 C 42.945313 49.125 42.3125 52.519531 41.042969 54.945313 C 39.773438 57.375 37.988281 58.589844 35.683594 58.589844 C 34.71875 58.589844 33.753906 58.410156 32.789063 58.050781 C 31.824219 57.6875 30.816406 57.128906 29.761719 56.371094 L 29.761719 47.636719 L 31.21875 47.636719 C 31.273438 50.273438 31.582031 52.242188 32.144531 53.53125 C 32.707031 54.824219 33.535156 55.472656 34.625 55.472656 C 35.808594 55.472656 36.679688 54.59375 37.242188 52.835938 C 37.804688 51.074219 38.089844 48.394531 38.089844 44.789063 C 38.089844 41.238281 37.8125 38.582031 37.257813 36.824219 C 36.707031 35.066406 35.867188 34.1875 34.746094 34.1875 C 34.136719 34.1875 33.597656 34.46875 33.125 35.027344 C 32.652344 35.589844 32.210938 36.453125 31.800781 37.628906 L 30.59375 37.628906 L 30.59375 17.824219 Z M 41.558594 17.824219 "/>
<path style=" stroke:none;fill-rule:nonzero;fill:rgb(90.196078%,7.843137%,3.137255%);fill-opacity:1;" d="M 329.441406 522.175781 L 329.441406 515.171875 L 338.949219 515.171875 L 338.949219 506.355469 C 338.414063 507.277344 337.824219 507.972656 337.1875 508.441406 C 336.546875 508.90625 335.871094 509.140625 335.15625 509.140625 C 332.949219 509.140625 331.214844 507.894531 329.949219 505.402344 C 328.6875 502.914063 328.054688 499.523438 328.054688 495.238281 C 328.054688 490.878906 328.6875 487.484375 329.957031 485.054688 C 331.226563 482.625 333.011719 481.410156 335.3125 481.410156 C 336.28125 481.410156 337.246094 481.589844 338.210938 481.949219 C 339.175781 482.3125 340.183594 482.871094 341.238281 483.628906 L 341.238281 492.363281 L 339.78125 492.363281 C 339.726563 489.726563 339.417969 487.761719 338.851563 486.46875 C 338.289063 485.175781 337.464844 484.527344 336.371094 484.527344 C 335.191406 484.527344 334.320313 485.410156 333.757813 487.167969 C 333.195313 488.925781 332.910156 491.605469 332.910156 495.210938 C 332.910156 498.761719 333.1875 501.417969 333.738281 503.175781 C 334.292969 504.933594 335.132813 505.8125 336.253906 505.8125 C 336.863281 505.8125 337.398438 505.535156 337.875 504.972656 C 338.347656 504.414063 338.789063 503.546875 339.195313 502.375 L 340.40625 502.375 L 340.40625 522.175781 Z M 329.441406 522.175781 "/>
<path style=" stroke:none;fill-rule:nonzero;fill:rgb(90.196078%,7.843137%,3.137255%);fill-opacity:1;" d="M 168.027344 234.1875 C 158.460938 234.210938 150.683594 242.378906 150.746094 252.402344 C 150.878906 273.652344 177.597656 289.023438 185.472656 305.8125 C 193.347656 289.023438 220.121094 273.652344 220.253906 252.402344 C 220.316406 242.378906 212.539063 234.210938 202.972656 234.1875 C 193.410156 234.167969 185.5 242.304688 185.472656 252.34375 C 185.445313 242.304688 177.589844 234.167969 168.027344 234.1875 Z M 168.027344 234.1875 "/>
<path style=" stroke:none;fill-rule:nonzero;fill:rgb(90.196078%,7.843137%,3.137255%);fill-opacity:1;" d="M 31.097656 66.121094 C 28.222656 66.128906 25.882813 68.582031 25.902344 71.597656 C 25.945313 77.988281 33.976563 82.609375 36.34375 87.65625 C 38.714844 82.609375 46.761719 77.988281 46.804688 71.597656 C 46.824219 68.582031 44.484375 66.128906 41.609375 66.121094 C 38.730469 66.117188 36.355469 68.5625 36.34375 71.582031 C 36.335938 68.5625 33.976563 66.117188 31.097656 66.121094 Z M 31.097656 66.121094 "/>
<path style=" stroke:none;fill-rule:nonzero;fill:rgb(90.196078%,7.843137%,3.137255%);fill-opacity:1;" d="M 329.390625 473.199219 C 326.515625 473.195313 324.175781 470.738281 324.195313 467.726563 C 324.238281 461.335938 332.269531 456.714844 334.636719 451.664063 C 337.007813 456.714844 345.054688 461.335938 345.097656 467.726563 C 345.117188 470.738281 342.777344 473.195313 339.902344 473.199219 C 337.023438 473.207031 334.648438 470.761719 334.636719 467.742188 C 334.628906 470.761719 332.269531 473.207031 329.390625 473.199219 Z M 329.390625 473.199219 "/>
<path style=" stroke:none;fill-rule:nonzero;fill:rgb(90.196078%,7.843137%,3.137255%);fill-opacity:1;" d="M 88.523438 30.386719 C 78.957031 30.40625 71.179688 38.574219 71.242188 48.597656 C 71.378906 69.851563 98.09375 85.21875 105.96875 102.007813 C 113.84375 85.21875 140.617188 69.851563 140.75 48.597656 C 140.8125 38.574219 133.035156 30.40625 123.472656 30.386719 C 113.90625 30.367188 105.996094 38.5 105.96875 48.542969 C 105.941406 38.5 98.085938 30.367188 88.523438 30.386719 Z M 88.523438 30.386719 "/>
<path style=" stroke:none;fill-rule:nonzero;fill:rgb(90.196078%,7.843137%,3.137255%);fill-opacity:1;" d="M 245.441406 30.386719 C 235.875 30.40625 228.097656 38.574219 228.160156 48.597656 C 228.292969 69.851563 255.011719 85.21875 262.886719 102.007813 C 270.761719 85.21875 297.535156 69.851563 297.667969 48.597656 C 297.730469 38.574219 289.953125 30.40625 280.386719 30.386719 C 270.824219 30.367188 262.914063 38.5 262.886719 48.542969 C 262.859375 38.5 255.003906 30.367188 245.441406 30.386719 Z M 245.441406 30.386719 "/>
<path style=" stroke:none;fill-rule:nonzero;fill:rgb(90.196078%,7.843137%,3.137255%);fill-opacity:1;" d="M 88.523438 509.566406 C 78.957031 509.542969 71.179688 501.375 71.242188 491.355469 C 71.378906 470.101563 98.09375 454.730469 105.96875 437.945313 C 113.84375 454.730469 140.617188 470.101563 140.75 491.355469 C 140.8125 501.375 133.035156 509.542969 123.472656 509.566406 C 113.90625 509.585938 105.996094 501.453125 105.96875 491.410156 C 105.941406 501.453125 98.085938 509.585938 88.523438 509.566406 Z M 88.523438 509.566406 "/>
<path style=" stroke:none;fill-rule:nonzero;fill:rgb(90.196078%,7.843137%,3.137255%);fill-opacity:1;" d="M 245.441406 509.566406 C 235.875 509.542969 228.097656 501.375 228.160156 491.355469 C 228.292969 470.101563 255.011719 454.730469 262.886719 437.945313 C 270.761719 454.730469 297.535156 470.101563 297.667969 491.355469 C 297.730469 501.375 289.953125 509.542969 280.386719 509.566406 C 270.824219 509.585938 262.914063 501.453125 262.886719 491.410156 C 262.859375 501.453125 255.003906 509.585938 245.441406 509.566406 Z M 245.441406 509.566406 "/>
</g>
</svg>
