<?xml version="1.0" encoding="UTF-8"?>
<svg xmlns="http://www.w3.org/2000/svg" xmlns:xlink="http://www.w3.org/1999/xlink" width="371pt" height="540pt" viewBox="0 0 371 540" version="1.1">
<g id="surface1">
<path style="fill-rule:nonzero;fill:rgb(100%,100%,100%);fill-opacity:1;stroke-width:0.5;stroke-linecap:butt;stroke-linejoin:miter;stroke:rgb(0%,0%,0%);stroke-opacity:1;stroke-miterlimit:4;" d="M 166.836617 235.89229 C 166.836617 239.68485 163.750894 242.783692 159.966749 242.783692 L 7.110884 242.783692 C 3.335536 242.783692 0.249813 239.68485 0.249813 235.89229 L 0.249813 6.77519 C 0.249813 2.987912 3.335536 -0.116212 7.110884 -0.116212 L 159.966749 -0.116212 C 163.750894 -0.116212 166.836617 2.987912 166.836617 6.77519 Z M 166.836617 235.89229 " transform="matrix(2.220408,0,0,2.218571,0,0.812511)"/>
<path style=" stroke:none;fill-rule:nonzero;fill:rgb(0%,0%,0%);fill-opacity:1;" d="M 41.558594 17.824219 L 41.558594 24.828125 L 32.050781 24.828125 L 32.050781 33.644531 C 32.585938 32.726563 33.171875 32.03125 33.8125 31.5625 C 34.453125 31.09375 35.128906 30.859375 35.84375 30.859375 C 38.050781 30.859375 39.785156 32.105469 41.050781 34.597656 C 42.3125 37.089844 42.945313 40.476563 42.945313 44.765625 C 42.945313 49.125 42.3125 52.519531 41.042969 54.945313 C 39.773438 57.375 37.988281 58.589844 35.683594 58.589844 C 34.71875 58.589844 33.753906 58.410156 32.789063 58.050781 C 31.824219 57.6875 30.816406 57.128906 29.761719 56.371094 L 29.761719 47.636719 L 31.21875 47.636719 C 31.273438 50.273438 31.582031 52.242188 32.144531 53.53125 C 32.707031 54.824219 33.535156 55.472656 34.625 55.472656 C 35.808594 55.472656 36.679688 54.59375 37.242188 52.835938 C 37.804688 51.074219 38.089844 48.394531 38.089844 44.789063 C 38.089844 41.238281 37.8125 38.582031 37.257813 36.824219 C 36.707031 35.066406 35.867188 34.1875 34.746094 34.1875 C 34.136719 34.1875 33.597656 34.46875 33.125 35.027344 C 32.652344 35.589844 32.210938 36.453125 31.800781 37.628906 L 30.59375 37.628906 L 30.59375 17.824219 Z M 41.558594 17.824219 "/>
<path style=" stroke:none;fill-rule:nonzero;fill:rgb(0%,0%,0%);fill-opacity:1;" d="M 329.441406 522.175781 L 329.441406 515.171875 L 338.949219 515.171875 L 338.949219 506.355469 C 338.414063 507.277344 337.824219 507.972656 337.1875 508.441406 C 336.546875 508.90625 335.871094 509.140625 335.15625 509.140625 C 332.949219 509.140625 331.214844 507.894531 329.949219 505.402344 C 328.6875 502.914063 328.054688 499.523438 328.054688 495.238281 C 328.054688 490.878906 328.6875 487.484375 329.957031 485.054688 C 331.226563 482.625 333.011719 481.410156 335.3125 481.410156 C 336.28125 481.410156 337.246094 481.589844 338.210938 481.949219 C 339.175781 482.3125 340.183594 482.871094 341.238281 483.628906 L 341.238281 492.363281 L 339.78125 492.363281 C 339.726563 489.726563 339.417969 487.761719 338.851563 486.46875 C 338.289063 485.175781 337.464844 484.527344 336.371094 484.527344 C 335.191406 484.527344 334.320313 485.410156 333.757813 487.167969 C 333.195313 488.925781 332.910156 491.605469 332.910156 495.210938 C 332.910156 498.761719 333.1875 501.417969 333.738281 503.175781 C 334.292969 504.933594 335.132813 505.8125 336.253906 505.8125 C 336.863281 505.8125 337.398438 505.535156 337.875 504.972656 C 338.347656 504.414063 338.789063 503.546875 339.195313 502.375 L 340.40625 502.375 L 340.40625 522.175781 Z M 329.441406 522.175781 "/>
<path style=" stroke:none;fill-rule:nonzero;fill:rgb(0%,0%,0%);fill-opacity:1;" d="M 124.136719 102.878906 C 116.410156 102.886719 112.347656 94.65625 110.214844 86.425781 C 108.082031 78.195313 107.882813 69.957031 107.882813 69.957031 L 103.9375 69.917969 C 103.9375 69.917969 103.199219 102.859375 87.75 102.871094 Z M 124.136719 102.878906 "/>
<path style=" stroke:none;fill-rule:nonzero;fill:rgb(0%,0%,0%);fill-opacity:1;" d="M 137.207031 69.949219 C 137.140625 53.882813 113.066406 42.226563 105.996094 29.511719 C 98.929688 42.226563 74.855469 53.882813 74.785156 69.949219 C 74.753906 77.535156 81.773438 83.679688 90.390625 83.679688 C 99.007813 83.679688 105.996094 77.535156 105.996094 69.949219 C 105.996094 77.535156 112.984375 83.679688 121.601563 83.679688 C 130.222656 83.679688 137.207031 77.535156 137.207031 69.949219 Z M 137.207031 69.949219 "/>
<path style=" stroke:none;fill-rule:nonzero;fill:rgb(0%,0%,0%);fill-opacity:1;" d="M 42.0625 88.4375 C 39.632813 88.441406 38.351563 85.847656 37.679688 83.257813 C 37.007813 80.664063 36.945313 78.074219 36.945313 78.074219 L 35.707031 78.0625 C 35.707031 78.0625 35.472656 88.433594 30.609375 88.4375 Z M 42.0625 88.4375 "/>
<path style=" stroke:none;fill-rule:nonzero;fill:rgb(0%,0%,0%);fill-opacity:1;" d="M 46.179688 78.070313 C 46.160156 73.011719 38.578125 69.34375 36.351563 65.339844 C 34.128906 69.34375 26.546875 73.011719 26.527344 78.070313 C 26.515625 80.460938 28.726563 82.394531 31.441406 82.394531 C 34.152344 82.394531 36.351563 80.460938 36.351563 78.070313 C 36.351563 80.460938 38.554688 82.394531 41.265625 82.394531 C 43.980469 82.394531 46.179688 80.460938 46.179688 78.070313 Z M 46.179688 78.070313 "/>
<path style=" stroke:none;fill-rule:nonzero;fill:rgb(0%,0%,0%);fill-opacity:1;" d="M 328.9375 450.882813 C 331.367188 450.878906 332.648438 453.472656 333.320313 456.0625 C 333.988281 458.65625 334.054688 461.25 334.054688 461.25 L 335.292969 461.261719 C 335.292969 461.261719 335.527344 450.890625 340.390625 450.886719 Z M 328.9375 450.882813 "/>
<path style=" stroke:none;fill-rule:nonzero;fill:rgb(0%,0%,0%);fill-opacity:1;" d="M 324.820313 461.25 C 324.84375 466.308594 332.421875 469.980469 334.648438 473.984375 C 336.871094 469.980469 344.449219 466.308594 344.472656 461.25 C 344.484375 458.859375 342.273438 456.929688 339.558594 456.929688 C 336.847656 456.929688 334.648438 458.859375 334.648438 461.25 C 334.648438 458.859375 332.445313 456.929688 329.734375 456.929688 C 327.019531 456.929688 324.820313 458.859375 324.820313 461.25 Z M 324.820313 461.25 "/>
<path style=" stroke:none;fill-rule:nonzero;fill:rgb(0%,0%,0%);fill-opacity:1;" d="M 281.050781 102.878906 C 273.328125 102.886719 269.265625 94.65625 267.132813 86.425781 C 264.996094 78.195313 264.796875 69.957031 264.796875 69.957031 L 260.855469 69.917969 C 260.855469 69.917969 260.113281 102.859375 244.667969 102.871094 Z M 281.050781 102.878906 "/>
<path style=" stroke:none;fill-rule:nonzero;fill:rgb(0%,0%,0%);fill-opacity:1;" d="M 294.125 69.949219 C 294.058594 53.882813 269.984375 42.226563 262.910156 29.511719 C 255.847656 42.226563 231.769531 53.882813 231.703125 69.949219 C 231.671875 77.535156 238.691406 83.679688 247.308594 83.679688 C 255.925781 83.679688 262.910156 77.535156 262.910156 69.949219 C 262.910156 77.535156 269.902344 83.679688 278.519531 83.679688 C 287.140625 83.679688 294.125 77.535156 294.125 69.949219 Z M 294.125 69.949219 "/>
<path style=" stroke:none;fill-rule:nonzero;fill:rgb(0%,0%,0%);fill-opacity:1;" d="M 203.636719 306.683594 C 195.914063 306.691406 191.851563 298.460938 189.71875 290.230469 C 187.582031 281.996094 187.382813 273.761719 187.382813 273.761719 L 183.441406 273.722656 C 183.441406 273.722656 182.699219 306.660156 167.253906 306.675781 Z M 203.636719 306.683594 "/>
<path style=" stroke:none;fill-rule:nonzero;fill:rgb(0%,0%,0%);fill-opacity:1;" d="M 216.710938 273.753906 C 216.644531 257.683594 192.570313 246.03125 185.496094 233.316406 C 178.433594 246.03125 154.355469 257.683594 154.289063 273.753906 C 154.257813 281.339844 161.277344 287.484375 169.894531 287.484375 C 178.511719 287.484375 185.496094 281.339844 185.496094 273.753906 C 185.496094 281.339844 192.488281 287.484375 201.105469 287.484375 C 209.726563 287.484375 216.710938 281.339844 216.710938 273.753906 Z M 216.710938 273.753906 "/>
<path style=" stroke:none;fill-rule:nonzero;fill:rgb(0%,0%,0%);fill-opacity:1;" d="M 124.136719 437.070313 C 116.410156 437.0625 112.347656 445.292969 110.214844 453.523438 C 108.082031 461.757813 107.882813 469.992188 107.882813 469.992188 L 103.9375 470.03125 C 103.9375 470.03125 103.199219 437.09375 87.75 437.078125 Z M 124.136719 437.070313 "/>
<path style=" stroke:none;fill-rule:nonzero;fill:rgb(0%,0%,0%);fill-opacity:1;" d="M 137.207031 470 C 137.140625 486.070313 113.066406 497.722656 105.996094 510.4375 C 98.929688 497.722656 74.855469 486.070313 74.785156 470 C 74.753906 462.414063 81.773438 456.269531 90.390625 456.269531 C 99.007813 456.269531 105.996094 462.414063 105.996094 470 C 105.996094 462.414063 112.984375 456.269531 121.601563 456.269531 C 130.222656 456.269531 137.207031 462.414063 137.207031 470 Z M 137.207031 470 "/>
<path style=" stroke:none;fill-rule:nonzero;fill:rgb(0%,0%,0%);fill-opacity:1;" d="M 281.050781 437.070313 C 273.328125 437.0625 269.265625 445.292969 267.132813 453.523438 C 264.996094 461.757813 264.796875 469.992188 264.796875 469.992188 L 260.855469 470.03125 C 260.855469 470.03125 260.113281 437.09375 244.667969 437.078125 Z M 281.050781 437.070313 "/>
<path style=" stroke:none;fill-rule:nonzero;fill:rgb(0%,0%,0%);fill-opacity:1;" d="M 294.125 470 C 294.058594 486.070313 269.984375 497.722656 262.910156 510.4375 C 255.847656 497.722656 231.769531 486.070313 231.703125 470 C 231.671875 462.414063 238.691406 456.269531 247.308594 456.269531 C 255.925781 456.269531 262.910156 462.414063 262.910156 470 C 262.910156 462.414063 269.902344 456.269531 278.519531 456.269531 C 287.140625 456.269531 294.125 462.414063 294.125 470 Z M 294.125 470 "/>
</g>
</svg>
