<?xml version="1.0" encoding="UTF-8"?>
<svg xmlns="http://www.w3.org/2000/svg" xmlns:xlink="http://www.w3.org/1999/xlink" width="371pt" height="540pt" viewBox="0 0 371 540" version="1.1">
<g id="surface1">
<path style="fill-rule:nonzero;fill:rgb(100%,100%,100%);fill-opacity:1;stroke-width:0.5;stroke-linecap:butt;stroke-linejoin:miter;stroke:rgb(0%,0%,0%);stroke-opacity:1;stroke-miterlimit:4;" d="M 166.836617 235.89229 C 166.836617 239.68485 163.750894 242.783692 159.966749 242.783692 L 7.110884 242.783692 C 3.335536 242.783692 0.249813 239.68485 0.249813 235.89229 L 0.249813 6.77519 C 0.249813 2.987912 3.335536 -0.116212 7.110884 -0.116212 L 159.966749 -0.116212 C 163.750894 -0.116212 166.836617 2.987912 166.836617 6.77519 Z M 166.836617 235.89229 " transform="matrix(2.220408,0,0,2.218571,0,0.812511)"/>
<path style=" stroke:none;fill-rule:nonzero;fill:rgb(90.196078%,7.843137%,3.137255%);fill-opacity:1;" d="M 33.75 34.441406 C 34.285156 33.515625 34.871094 32.816406 35.503906 32.351563 C 36.136719 31.890625 36.835938 31.65625 37.605469 31.65625 C 39.425781 31.65625 40.855469 32.855469 41.898438 35.25 C 42.941406 37.648438 43.464844 40.941406 43.464844 45.125 C 43.464844 49.546875 42.875 52.957031 41.695313 55.363281 C 40.511719 57.769531 38.839844 58.972656 36.675781 58.972656 C 34.242188 58.972656 32.394531 57.324219 31.132813 54.027344 C 29.871094 50.726563 29.242188 45.878906 29.242188 39.480469 C 29.242188 32.207031 29.9375 26.714844 31.328125 23.007813 C 32.722656 19.296875 34.792969 17.441406 37.539063 17.441406 C 38.253906 17.441406 39.023438 17.578125 39.84375 17.839844 C 40.664063 18.109375 41.546875 18.507813 42.496094 19.039063 L 42.496094 26.109375 L 41.039063 26.109375 C 40.84375 24.289063 40.464844 22.910156 39.90625 21.96875 C 39.347656 21.03125 38.632813 20.5625 37.765625 20.5625 C 36.367188 20.5625 35.351563 21.652344 34.722656 23.832031 C 34.09375 26.011719 33.769531 29.550781 33.75 34.441406 Z M 36.386719 55.851563 C 37.214844 55.851563 37.800781 55.070313 38.152344 53.5 C 38.503906 51.933594 38.679688 49.21875 38.679688 45.347656 C 38.679688 41.480469 38.503906 38.761719 38.152344 37.195313 C 37.800781 35.628906 37.214844 34.84375 36.386719 34.84375 C 35.5625 34.84375 34.972656 35.628906 34.625 37.195313 C 34.273438 38.761719 34.097656 41.480469 34.097656 45.347656 C 34.097656 49.21875 34.273438 51.933594 34.625 53.5 C 34.972656 55.070313 35.5625 55.851563 36.386719 55.851563 Z M 36.386719 55.851563 "/>
<path style=" stroke:none;fill-rule:nonzero;fill:rgb(90.196078%,7.843137%,3.137255%);fill-opacity:1;" d="M 337.25 505.558594 C 336.714844 506.488281 336.128906 507.183594 335.496094 507.648438 C 334.863281 508.113281 334.160156 508.34375 333.394531 508.34375 C 331.574219 508.34375 330.144531 507.144531 329.101563 504.75 C 328.054688 502.351563 327.535156 499.058594 327.535156 494.875 C 327.535156 490.457031 328.125 487.042969 329.304688 484.636719 C 330.488281 482.234375 332.160156 481.027344 334.324219 481.027344 C 336.757813 481.027344 338.605469 482.679688 339.867188 485.976563 C 341.128906 489.273438 341.757813 494.121094 341.757813 500.519531 C 341.757813 507.792969 341.058594 513.285156 339.667969 516.992188 C 338.277344 520.703125 336.207031 522.558594 333.457031 522.558594 C 332.746094 522.558594 331.976563 522.425781 331.15625 522.160156 C 330.335938 521.894531 329.449219 521.496094 328.503906 520.960938 L 328.503906 513.890625 L 329.960938 513.890625 C 330.15625 515.714844 330.535156 517.09375 331.09375 518.03125 C 331.648438 518.96875 332.367188 519.4375 333.234375 519.4375 C 334.632813 519.4375 335.648438 518.347656 336.277344 516.167969 C 336.90625 513.992188 337.230469 510.453125 337.25 505.558594 Z M 334.613281 484.148438 C 333.785156 484.148438 333.199219 484.933594 332.847656 486.5 C 332.496094 488.066406 332.320313 490.785156 332.320313 494.652344 C 332.320313 498.519531 332.496094 501.238281 332.847656 502.804688 C 333.199219 504.371094 333.785156 505.15625 334.613281 505.15625 C 335.4375 505.15625 336.027344 504.371094 336.375 502.804688 C 336.726563 501.238281 336.902344 498.519531 336.902344 494.652344 C 336.902344 490.785156 336.726563 488.066406 336.375 486.5 C 336.027344 484.933594 335.4375 484.148438 334.613281 484.148438 Z M 334.613281 484.148438 "/>
<path style=" stroke:none;fill-rule:nonzero;fill:rgb(90.196078%,7.843137%,3.137255%);fill-opacity:1;" d="M 105.996094 31 C 105.9375 32.984375 104.757813 40.4375 91.894531 52.773438 C 79.515625 64.644531 73.734375 66.070313 71.996094 66.195313 C 73.734375 66.320313 79.515625 67.746094 91.894531 79.617188 C 104.757813 91.953125 105.9375 99.40625 105.996094 101.394531 C 106.054688 99.40625 107.234375 91.953125 120.097656 79.617188 C 132.480469 67.746094 138.261719 66.320313 139.996094 66.195313 C 138.261719 66.070313 132.480469 64.644531 120.097656 52.773438 C 107.234375 40.4375 106.054688 32.984375 105.996094 31 Z M 105.996094 31 "/>
<path style=" stroke:none;fill-rule:nonzero;fill:rgb(90.196078%,7.843137%,3.137255%);fill-opacity:1;" d="M 36.351563 66.304688 C 36.335938 66.902344 35.980469 69.144531 32.113281 72.851563 C 28.390625 76.421875 26.652344 76.851563 26.128906 76.890625 C 26.652344 76.925781 28.390625 77.355469 32.113281 80.925781 C 35.980469 84.632813 36.335938 86.875 36.351563 87.472656 C 36.371094 86.875 36.726563 84.632813 40.59375 80.925781 C 44.316406 77.355469 46.054688 76.925781 46.578125 76.890625 C 46.054688 76.851563 44.316406 76.421875 40.59375 72.851563 C 36.726563 69.144531 36.371094 66.902344 36.351563 66.304688 Z M 36.351563 66.304688 "/>
<path style=" stroke:none;fill-rule:nonzero;fill:rgb(90.196078%,7.843137%,3.137255%);fill-opacity:1;" d="M 334.648438 451.851563 C 334.628906 452.449219 334.273438 454.6875 330.40625 458.398438 C 326.683594 461.96875 324.945313 462.394531 324.421875 462.433594 C 324.945313 462.472656 326.683594 462.898438 330.40625 466.46875 C 334.273438 470.179688 334.628906 472.417969 334.648438 473.015625 C 334.664063 472.417969 335.019531 470.179688 338.886719 466.46875 C 342.609375 462.898438 344.347656 462.472656 344.871094 462.433594 C 344.347656 462.394531 342.609375 461.96875 338.886719 458.398438 C 335.019531 454.6875 334.664063 452.449219 334.648438 451.851563 Z M 334.648438 451.851563 "/>
<path style=" stroke:none;fill-rule:nonzero;fill:rgb(90.196078%,7.843137%,3.137255%);fill-opacity:1;" d="M 262.914063 31 C 262.855469 32.984375 261.675781 40.4375 248.8125 52.773438 C 236.433594 64.644531 230.652344 66.070313 228.914063 66.195313 C 230.652344 66.320313 236.433594 67.746094 248.8125 79.617188 C 261.675781 91.953125 262.855469 99.40625 262.914063 101.394531 C 262.972656 99.40625 264.152344 91.953125 277.015625 79.617188 C 289.394531 67.746094 295.175781 66.320313 296.914063 66.195313 C 295.175781 66.070313 289.394531 64.644531 277.015625 52.773438 C 264.152344 40.4375 262.972656 32.984375 262.914063 31 Z M 262.914063 31 "/>
<path style=" stroke:none;fill-rule:nonzero;fill:rgb(90.196078%,7.843137%,3.137255%);fill-opacity:1;" d="M 105.996094 234.800781 C 105.9375 236.789063 104.757813 244.242188 91.894531 256.578125 C 79.515625 268.449219 73.734375 269.875 71.996094 270 C 73.734375 270.125 79.515625 271.550781 91.894531 283.421875 C 104.757813 295.757813 105.9375 303.210938 105.996094 305.199219 C 106.054688 303.210938 107.234375 295.757813 120.097656 283.421875 C 132.480469 271.550781 138.261719 270.125 139.996094 270 C 138.261719 269.875 132.480469 268.449219 120.097656 256.578125 C 107.234375 244.242188 106.054688 236.789063 105.996094 234.800781 Z M 105.996094 234.800781 "/>
<path style=" stroke:none;fill-rule:nonzero;fill:rgb(90.196078%,7.843137%,3.137255%);fill-opacity:1;" d="M 262.914063 234.800781 C 262.855469 236.789063 261.675781 244.242188 248.8125 256.578125 C 236.433594 268.449219 230.652344 269.875 228.914063 270 C 230.652344 270.125 236.433594 271.550781 248.8125 283.421875 C 261.675781 295.757813 262.855469 303.210938 262.914063 305.199219 C 262.972656 303.210938 264.152344 295.757813 277.015625 283.421875 C 289.394531 271.550781 295.175781 270.125 296.914063 270 C 295.175781 269.875 289.394531 268.449219 277.015625 256.578125 C 264.152344 244.242188 262.972656 236.789063 262.914063 234.800781 Z M 262.914063 234.800781 "/>
<path style=" stroke:none;fill-rule:nonzero;fill:rgb(90.196078%,7.843137%,3.137255%);fill-opacity:1;" d="M 105.996094 438.554688 C 105.9375 440.542969 104.757813 447.996094 91.894531 460.332031 C 79.515625 472.203125 73.734375 473.628906 71.996094 473.753906 C 73.734375 473.878906 79.515625 475.304688 91.894531 487.175781 C 104.757813 499.511719 105.9375 506.964844 105.996094 508.953125 C 106.054688 506.964844 107.234375 499.511719 120.097656 487.175781 C 132.480469 475.304688 138.261719 473.878906 139.996094 473.753906 C 138.261719 473.628906 132.480469 472.203125 120.097656 460.332031 C 107.234375 447.996094 106.054688 440.542969 105.996094 438.554688 Z M 105.996094 438.554688 "/>
<path style=" stroke:none;fill-rule:nonzero;fill:rgb(90.196078%,7.843137%,3.137255%);fill-opacity:1;" d="M 262.914063 438.554688 C 262.855469 440.542969 261.675781 447.996094 248.8125 460.332031 C 236.433594 472.203125 230.652344 473.628906 228.914063 473.753906 C 230.652344 473.878906 236.433594 475.304688 248.8125 487.175781 C 261.675781 499.511719 262.855469 506.964844 262.914063 508.953125 C 262.972656 506.964844 264.152344 499.511719 277.015625 487.175781 C 289.394531 475.304688 295.175781 473.878906 296.914063 473.753906 C 295.175781 473.628906 289.394531 472.203125 277.015625 460.332031 C 264.152344 447.996094 262.972656 440.542969 262.914063 438.554688 Z M 262.914063 438.554688 "/>
</g>
</svg>
