<?xml version="1.0" encoding="UTF-8"?>
<svg xmlns="http://www.w3.org/2000/svg" xmlns:xlink="http://www.w3.org/1999/xlink" width="371pt" height="540pt" viewBox="0 0 371 540" version="1.1">
<g id="surface1">
<path style="fill-rule:nonzero;fill:rgb(100%,100%,100%);fill-opacity:1;stroke-width:0.5;stroke-linecap:butt;stroke-linejoin:miter;stroke:rgb(0%,0%,0%);stroke-opacity:1;stroke-miterlimit:4;" d="M 166.836617 235.89229 C 166.836617 239.68485 163.750894 242.783692 159.966749 242.783692 L 7.110884 242.783692 C 3.335536 242.783692 0.249813 239.68485 0.249813 235.89229 L 0.249813 6.77519 C 0.249813 2.987912 3.335536 -0.116212 7.110884 -0.116212 L 159.966749 -0.116212 C 163.750894 -0.116212 166.836617 2.987912 166.836617 6.77519 Z M 166.836617 235.89229 " transform="matrix(2.220408,0,0,2.218571,0,0.812511)"/>
<path style=" stroke:none;fill-rule:nonzero;fill:rgb(90.196078%,7.843137%,3.137255%);fill-opacity:1;" d="M 33.75 34.441406 C 34.285156 33.515625 34.871094 32.816406 35.503906 32.351563 C 36.136719 31.890625 36.835938 31.65625 37.605469 31.65625 C 39.425781 31.65625 40.855469 32.855469 41.898438 35.25 C 42.941406 37.648438 43.464844 40.941406 43.464844 45.125 C 43.464844 49.546875 42.875 52.957031 41.695313 55.363281 C 40.511719 57.769531 38.839844 58.972656 36.675781 58.972656 C 34.242188 58.972656 32.394531 57.324219 31.132813 54.027344 C 29.871094 50.726563 29.242188 45.878906 29.242188 39.480469 C 29.242188 32.207031 29.9375 26.714844 31.328125 23.007813 C 32.722656 19.296875 34.792969 17.441406 37.539063 17.441406 C 38.253906 17.441406 39.023438 17.578125 39.84375 17.839844 C 40.664063 18.109375 41.546875 18.507813 42.496094 19.039063 L 42.496094 26.109375 L 41.039063 26.109375 C 40.84375 24.289063 40.464844 22.910156 39.90625 21.96875 C 39.347656 21.03125 38.632813 20.5625 37.765625 20.5625 C 36.367188 20.5625 35.351563 21.652344 34.722656 23.832031 C 34.09375 26.011719 33.769531 29.550781 33.75 34.441406 Z M 36.386719 55.851563 C 37.214844 55.851563 37.800781 55.070313 38.152344 53.5 C 38.503906 51.933594 38.679688 49.21875 38.679688 45.347656 C 38.679688 41.480469 38.503906 38.761719 38.152344 37.195313 C 37.800781 35.628906 37.214844 34.84375 36.386719 34.84375 C 35.5625 34.84375 34.972656 35.628906 34.625 37.195313 C 34.273438 38.761719 34.097656 41.480469 34.097656 45.347656 C 34.097656 49.21875 34.273438 51.933594 34.625 53.5 C 34.972656 55.070313 35.5625 55.851563 36.386719 55.851563 Z M 36.386719 55.851563 "/>
<path style=" stroke:none;fill-rule:nonzero;fill:rgb(90.196078%,7.843137%,3.137255%);fill-opacity:1;" d="M 337.25 505.558594 C 336.714844 506.488281 336.128906 507.183594 335.496094 507.648438 C 334.863281 508.113281 334.160156 508.34375 333.394531 508.34375 C 331.574219 508.34375 330.144531 507.144531 329.101563 504.75 C 328.054688 502.351563 327.535156 499.058594 327.535156 494.875 C 327.535156 490.457031 328.125 487.042969 329.304688 484.636719 C 330.488281 482.234375 332.160156 481.027344 334.324219 481.027344 C 336.757813 481.027344 338.605469 482.679688 339.867188 485.976563 C 341.128906 489.273438 341.757813 494.121094 341.757813 500.519531 C 341.757813 507.792969 341.058594 513.285156 339.667969 516.992188 C 338.277344 520.703125 336.207031 522.558594 333.457031 522.558594 C 332.746094 522.558594 331.976563 522.425781 331.15625 522.160156 C 330.335938 521.894531 329.449219 521.496094 328.503906 520.960938 L 328.503906 513.890625 L 329.960938 513.890625 C 330.15625 515.714844 330.535156 517.09375 331.09375 518.03125 C 331.648438 518.96875 332.367188 519.4375 333.234375 519.4375 C 334.632813 519.4375 335.648438 518.347656 336.277344 516.167969 C 336.90625 513.992188 337.230469 510.453125 337.25 505.558594 Z M 334.613281 484.148438 C 333.785156 484.148438 333.199219 484.933594 332.847656 486.5 C 332.496094 488.066406 332.320313 490.785156 332.320313 494.652344 C 332.320313 498.519531 332.496094 501.238281 332.847656 502.804688 C 333.199219 504.371094 333.785156 505.15625 334.613281 505.15625 C 335.4375 505.15625 336.027344 504.371094 336.375 502.804688 C 336.726563 501.238281 336.902344 498.519531 336.902344 494.652344 C 336.902344 490.785156 336.726563 488.066406 336.375 486.5 C 336.027344 484.933594 335.4375 484.148438 334.613281 484.148438 Z M 334.613281 484.148438 "/>
<path style=" stroke:none;fill-rule:nonzero;fill:rgb(90.196078%,7.843137%,3.137255%);fill-opacity:1;" d="M 88.523438 30.386719 C 78.957031 30.40625 71.179688 38.574219 71.242188 48.597656 C 71.378906 69.851563 98.09375 85.21875 105.96875 102.007813 C 113.84375 85.21875 140.617188 69.851563 140.75 48.597656 C 140.8125 38.574219 133.035156 30.40625 123.472656 30.386719 C 113.90625 30.367188 105.996094 38.5 105.96875 48.542969 C 105.941406 38.5 98.085938 30.367188 88.523438 30.386719 Z M 88.523438 30.386719 "/>
<path style=" stroke:none;fill-rule:nonzero;fill:rgb(90.196078%,7.843137%,3.137255%);fill-opacity:1;" d="M 31.097656 66.121094 C 28.222656 66.128906 25.882813 68.582031 25.902344 71.597656 C 25.945313 77.988281 33.976563 82.609375 36.34375 87.65625 C 38.714844 82.609375 46.761719 77.988281 46.804688 71.597656 C 46.824219 68.582031 44.484375 66.128906 41.609375 66.121094 C 38.730469 66.117188 36.355469 68.5625 36.34375 71.582031 C 36.335938 68.5625 33.976563 66.117188 31.097656 66.121094 Z M 31.097656 66.121094 "/>
<path style=" stroke:none;fill-rule:nonzero;fill:rgb(90.196078%,7.843137%,3.137255%);fill-opacity:1;" d="M 329.390625 473.199219 C 326.515625 473.195313 324.175781 470.738281 324.195313 467.726563 C 324.238281 461.335938 332.269531 456.714844 334.636719 451.664063 C 337.007813 456.714844 345.054688 461.335938 345.097656 467.726563 C 345.117188 470.738281 342.777344 473.195313 339.902344 473.199219 C 337.023438 473.207031 334.648438 470.761719 334.636719 467.742188 C 334.628906 470.761719 332.269531 473.207031 329.390625 473.199219 Z M 329.390625 473.199219 "/>
<path style=" stroke:none;fill-rule:nonzero;fill:rgb(90.196078%,7.843137%,3.137255%);fill-opacity:1;" d="M 245.441406 234.1875 C 235.875 234.210938 228.097656 242.378906 228.160156 252.402344 C 228.292969 273.652344 255.011719 289.023438 262.886719 305.8125 C 270.761719 289.023438 297.535156 273.652344 297.667969 252.402344 C 297.730469 242.378906 289.953125 234.210938 280.386719 234.1875 C 270.824219 234.167969 262.914063 242.304688 262.886719 252.34375 C 262.859375 242.304688 255.003906 234.167969 245.441406 234.1875 Z M 245.441406 234.1875 "/>
<path style=" stroke:none;fill-rule:nonzero;fill:rgb(90.196078%,7.843137%,3.137255%);fill-opacity:1;" d="M 88.523438 234.1875 C 78.957031 234.210938 71.179688 242.378906 71.242188 252.402344 C 71.378906 273.652344 98.09375 289.023438 105.96875 305.8125 C 113.84375 289.023438 140.617188 273.652344 140.75 252.402344 C 140.8125 242.378906 133.035156 234.210938 123.472656 234.1875 C 113.90625 234.167969 105.996094 242.304688 105.96875 252.34375 C 105.941406 242.304688 98.085938 234.167969 88.523438 234.1875 Z M 88.523438 234.1875 "/>
<path style=" stroke:none;fill-rule:nonzero;fill:rgb(90.196078%,7.843137%,3.137255%);fill-opacity:1;" d="M 245.441406 30.386719 C 235.875 30.40625 228.097656 38.574219 228.160156 48.597656 C 228.292969 69.851563 255.011719 85.21875 262.886719 102.007813 C 270.761719 85.21875 297.535156 69.851563 297.667969 48.597656 C 297.730469 38.574219 289.953125 30.40625 280.386719 30.386719 C 270.824219 30.367188 262.914063 38.5 262.886719 48.542969 C 262.859375 38.5 255.003906 30.367188 245.441406 30.386719 Z M 245.441406 30.386719 "/>
<path style=" stroke:none;fill-rule:nonzero;fill:rgb(90.196078%,7.843137%,3.137255%);fill-opacity:1;" d="M 88.523438 509.566406 C 78.957031 509.542969 71.179688 501.375 71.242188 491.355469 C 71.378906 470.101563 98.09375 454.730469 105.96875 437.945313 C 113.84375 454.730469 140.617188 470.101563 140.75 491.355469 C 140.8125 501.375 133.035156 509.542969 123.472656 509.566406 C 113.90625 509.585938 105.996094 501.453125 105.96875 491.410156 C 105.941406 501.453125 98.085938 509.585938 88.523438 509.566406 Z M 88.523438 509.566406 "/>
<path style=" stroke:none;fill-rule:nonzero;fill:rgb(90.196078%,7.843137%,3.137255%);fill-opacity:1;" d="M 245.441406 509.566406 C 235.875 509.542969 228.097656 501.375 228.160156 491.355469 C 228.292969 470.101563 255.011719 454.730469 262.886719 437.945313 C 270.761719 454.730469 297.535156 470.101563 297.667969 491.355469 C 297.730469 501.375 289.953125 509.542969 280.386719 509.566406 C 270.824219 509.585938 262.914063 501.453125 262.886719 491.410156 C 262.859375 501.453125 255.003906 509.585938 245.441406 509.566406 Z M 245.441406 509.566406 "/>
</g>
</svg>
