<?xml version="1.0" encoding="UTF-8"?>
<svg xmlns="http://www.w3.org/2000/svg" xmlns:xlink="http://www.w3.org/1999/xlink" width="371pt" height="540pt" viewBox="0 0 371 540" version="1.1">
<g id="surface1">
<path style="fill-rule:nonzero;fill:rgb(100%,100%,100%);fill-opacity:1;stroke-width:0.5;stroke-linecap:butt;stroke-linejoin:miter;stroke:rgb(0%,0%,0%);stroke-opacity:1;stroke-miterlimit:4;" d="M 166.836617 235.89229 C 166.836617 239.68485 163.750894 242.783692 159.966749 242.783692 L 7.110884 242.783692 C 3.335536 242.783692 0.249813 239.68485 0.249813 235.89229 L 0.249813 6.77519 C 0.249813 2.987912 3.335536 -0.116212 7.110884 -0.116212 L 159.966749 -0.116212 C 163.750894 -0.116212 166.836617 2.987912 166.836617 6.77519 Z M 166.836617 235.89229 " transform="matrix(2.220408,0,0,2.218571,0,0.812511)"/>
<path style=" stroke:none;fill-rule:nonzero;fill:rgb(0%,0%,0%);fill-opacity:1;" d="M 33.75 34.441406 C 34.285156 33.515625 34.871094 32.816406 35.503906 32.351563 C 36.136719 31.890625 36.835938 31.65625 37.605469 31.65625 C 39.425781 31.65625 40.855469 32.855469 41.898438 35.25 C 42.941406 37.648438 43.464844 40.941406 43.464844 45.125 C 43.464844 49.546875 42.875 52.957031 41.695313 55.363281 C 40.511719 57.769531 38.839844 58.972656 36.675781 58.972656 C 34.242188 58.972656 32.394531 57.324219 31.132813 54.027344 C 29.871094 50.726563 29.242188 45.878906 29.242188 39.480469 C 29.242188 32.207031 29.9375 26.714844 31.328125 23.007813 C 32.722656 19.296875 34.792969 17.441406 37.539063 17.441406 C 38.253906 17.441406 39.023438 17.578125 39.84375 17.839844 C 40.664063 18.109375 41.546875 18.507813 42.496094 19.039063 L 42.496094 26.109375 L 41.039063 26.109375 C 40.84375 24.289063 40.464844 22.910156 39.90625 21.96875 C 39.347656 21.03125 38.632813 20.5625 37.765625 20.5625 C 36.367188 20.5625 35.351563 21.652344 34.722656 23.832031 C 34.09375 26.011719 33.769531 29.550781 33.75 34.441406 Z M 36.386719 55.851563 C 37.214844 55.851563 37.800781 55.070313 38.152344 53.5 C 38.503906 51.933594 38.679688 49.21875 38.679688 45.347656 C 38.679688 41.480469 38.503906 38.761719 38.152344 37.195313 C 37.800781 35.628906 37.214844 34.84375 36.386719 34.84375 C 35.5625 34.84375 34.972656 35.628906 34.625 37.195313 C 34.273438 38.761719 34.097656 41.480469 34.097656 45.347656 C 34.097656 49.21875 34.273438 51.933594 34.625 53.5 C 34.972656 55.070313 35.5625 55.851563 36.386719 55.851563 Z M 36.386719 55.851563 "/>
<path style=" stroke:none;fill-rule:nonzero;fill:rgb(0%,0%,0%);fill-opacity:1;" d="M 337.25 505.558594 C 336.714844 506.488281 336.128906 507.183594 335.496094 507.648438 C 334.863281 508.113281 334.160156 508.34375 333.394531 508.34375 C 331.574219 508.34375 330.144531 507.144531 329.101563 504.75 C 328.054688 502.351563 327.535156 499.058594 327.535156 494.875 C 327.535156 490.457031 328.125 487.042969 329.304688 484.636719 C 330.488281 482.234375 332.160156 481.027344 334.324219 481.027344 C 336.757813 481.027344 338.605469 482.679688 339.867188 485.976563 C 341.128906 489.273438 341.757813 494.121094 341.757813 500.519531 C 341.757813 507.792969 341.058594 513.285156 339.667969 516.992188 C 338.277344 520.703125 336.207031 522.558594 333.457031 522.558594 C 332.746094 522.558594 331.976563 522.425781 331.15625 522.160156 C 330.335938 521.894531 329.449219 521.496094 328.503906 520.960938 L 328.503906 513.890625 L 329.960938 513.890625 C 330.15625 515.714844 330.535156 517.09375 331.09375 518.03125 C 331.648438 518.96875 332.367188 519.4375 333.234375 519.4375 C 334.632813 519.4375 335.648438 518.347656 336.277344 516.167969 C 336.90625 513.992188 337.230469 510.453125 337.25 505.558594 Z M 334.613281 484.148438 C 333.785156 484.148438 333.199219 484.933594 332.847656 486.5 C 332.496094 488.066406 332.320313 490.785156 332.320313 494.652344 C 332.320313 498.519531 332.496094 501.238281 332.847656 502.804688 C 333.199219 504.371094 333.785156 505.15625 334.613281 505.15625 C 335.4375 505.15625 336.027344 504.371094 336.375 502.804688 C 336.726563 501.238281 336.902344 498.519531 336.902344 494.652344 C 336.902344 490.785156 336.726563 488.066406 336.375 486.5 C 336.027344 484.933594 335.4375 484.148438 334.613281 484.148438 Z M 334.613281 484.148438 "/>
<path style=" stroke:none;fill-rule:nonzero;fill:rgb(0%,0%,0%);fill-opacity:1;" d="M 124.136719 102.878906 C 116.410156 102.886719 112.347656 94.65625 110.214844 86.425781 C 108.082031 78.195313 107.882813 69.957031 107.882813 69.957031 L 103.9375 69.917969 C 103.9375 69.917969 103.199219 102.859375 87.75 102.871094 Z M 124.136719 102.878906 "/>
<path style=" stroke:none;fill-rule:nonzero;fill:rgb(0%,0%,0%);fill-opacity:1;" d="M 137.207031 69.949219 C 137.140625 53.882813 113.066406 42.226563 105.996094 29.511719 C 98.929688 42.226563 74.855469 53.882813 74.785156 69.949219 C 74.753906 77.535156 81.773438 83.679688 90.390625 83.679688 C 99.007813 83.679688 105.996094 77.535156 105.996094 69.949219 C 105.996094 77.535156 112.984375 83.679688 121.601563 83.679688 C 130.222656 83.679688 137.207031 77.535156 137.207031 69.949219 Z M 137.207031 69.949219 "/>
<path style=" stroke:none;fill-rule:nonzero;fill:rgb(0%,0%,0%);fill-opacity:1;" d="M 42.0625 88.4375 C 39.632813 88.441406 38.351563 85.847656 37.679688 83.257813 C 37.007813 80.664063 36.945313 78.074219 36.945313 78.074219 L 35.707031 78.0625 C 35.707031 78.0625 35.472656 88.433594 30.609375 88.4375 Z M 42.0625 88.4375 "/>
<path style=" stroke:none;fill-rule:nonzero;fill:rgb(0%,0%,0%);fill-opacity:1;" d="M 46.179688 78.070313 C 46.160156 73.011719 38.578125 69.34375 36.351563 65.339844 C 34.128906 69.34375 26.546875 73.011719 26.527344 78.070313 C 26.515625 80.460938 28.726563 82.394531 31.441406 82.394531 C 34.152344 82.394531 36.351563 80.460938 36.351563 78.070313 C 36.351563 80.460938 38.554688 82.394531 41.265625 82.394531 C 43.980469 82.394531 46.179688 80.460938 46.179688 78.070313 Z M 46.179688 78.070313 "/>
<path style=" stroke:none;fill-rule:nonzero;fill:rgb(0%,0%,0%);fill-opacity:1;" d="M 328.9375 450.882813 C 331.367188 450.878906 332.648438 453.472656 333.320313 456.0625 C 333.988281 458.65625 334.054688 461.25 334.054688 461.25 L 335.292969 461.261719 C 335.292969 461.261719 335.527344 450.890625 340.390625 450.886719 Z M 328.9375 450.882813 "/>
<path style=" stroke:none;fill-rule:nonzero;fill:rgb(0%,0%,0%);fill-opacity:1;" d="M 324.820313 461.25 C 324.84375 466.308594 332.421875 469.980469 334.648438 473.984375 C 336.871094 469.980469 344.449219 466.308594 344.472656 461.25 C 344.484375 458.859375 342.273438 456.929688 339.558594 456.929688 C 336.847656 456.929688 334.648438 458.859375 334.648438 461.25 C 334.648438 458.859375 332.445313 456.929688 329.734375 456.929688 C 327.019531 456.929688 324.820313 458.859375 324.820313 461.25 Z M 324.820313 461.25 "/>
<path style=" stroke:none;fill-rule:nonzero;fill:rgb(0%,0%,0%);fill-opacity:1;" d="M 281.050781 437.070313 C 273.328125 437.0625 269.265625 445.292969 267.132813 453.523438 C 264.996094 461.757813 264.796875 469.992188 264.796875 469.992188 L 260.855469 470.03125 C 260.855469 470.03125 260.113281 437.09375 244.667969 437.078125 Z M 281.050781 437.070313 "/>
<path style=" stroke:none;fill-rule:nonzero;fill:rgb(0%,0%,0%);fill-opacity:1;" d="M 294.125 470 C 294.058594 486.070313 269.984375 497.722656 262.910156 510.4375 C 255.847656 497.722656 231.769531 486.070313 231.703125 470 C 231.671875 462.414063 238.691406 456.269531 247.308594 456.269531 C 255.925781 456.269531 262.910156 462.414063 262.910156 470 C 262.910156 462.414063 269.902344 456.269531 278.519531 456.269531 C 287.140625 456.269531 294.125 462.414063 294.125 470 Z M 294.125 470 "/>
<path style=" stroke:none;fill-rule:nonzero;fill:rgb(0%,0%,0%);fill-opacity:1;" d="M 124.136719 437.070313 C 116.410156 437.0625 112.347656 445.292969 110.214844 453.523438 C 108.082031 461.757813 107.882813 469.992188 107.882813 469.992188 L 103.9375 470.03125 C 103.9375 470.03125 103.199219 437.09375 87.75 437.078125 Z M 124.136719 437.070313 "/>
<path style=" stroke:none;fill-rule:nonzero;fill:rgb(0%,0%,0%);fill-opacity:1;" d="M 137.207031 470 C 137.140625 486.070313 113.066406 497.722656 105.996094 510.4375 C 98.929688 497.722656 74.855469 486.070313 74.785156 470 C 74.753906 462.414063 81.773438 456.269531 90.390625 456.269531 C 99.007813 456.269531 105.996094 462.414063 105.996094 470 C 105.996094 462.414063 112.984375 456.269531 121.601563 456.269531 C 130.222656 456.269531 137.207031 462.414063 137.207031 470 Z M 137.207031 470 "/>
<path style=" stroke:none;fill-rule:nonzero;fill:rgb(0%,0%,0%);fill-opacity:1;" d="M 281.050781 102.878906 C 273.328125 102.886719 269.265625 94.65625 267.132813 86.425781 C 264.996094 78.195313 264.796875 69.957031 264.796875 69.957031 L 260.855469 69.917969 C 260.855469 69.917969 260.113281 102.859375 244.667969 102.871094 Z M 281.050781 102.878906 "/>
<path style=" stroke:none;fill-rule:nonzero;fill:rgb(0%,0%,0%);fill-opacity:1;" d="M 294.125 69.949219 C 294.058594 53.882813 269.984375 42.226563 262.910156 29.511719 C 255.847656 42.226563 231.769531 53.882813 231.703125 69.949219 C 231.671875 77.535156 238.691406 83.679688 247.308594 83.679688 C 255.925781 83.679688 262.910156 77.535156 262.910156 69.949219 C 262.910156 77.535156 269.902344 83.679688 278.519531 83.679688 C 287.140625 83.679688 294.125 77.535156 294.125 69.949219 Z M 294.125 69.949219 "/>
<path style=" stroke:none;fill-rule:nonzero;fill:rgb(0%,0%,0%);fill-opacity:1;" d="M 124.136719 306.683594 C 116.410156 306.691406 112.347656 298.460938 110.214844 290.230469 C 108.082031 281.996094 107.882813 273.761719 107.882813 273.761719 L 103.9375 273.722656 C 103.9375 273.722656 103.199219 306.660156 87.75 306.675781 Z M 124.136719 306.683594 "/>
<path style=" stroke:none;fill-rule:nonzero;fill:rgb(0%,0%,0%);fill-opacity:1;" d="M 137.207031 273.753906 C 137.140625 257.683594 113.066406 246.03125 105.996094 233.316406 C 98.929688 246.03125 74.855469 257.683594 74.785156 273.753906 C 74.753906 281.339844 81.773438 287.484375 90.390625 287.484375 C 99.007813 287.484375 105.996094 281.339844 105.996094 273.753906 C 105.996094 281.339844 112.984375 287.484375 121.601563 287.484375 C 130.222656 287.484375 137.207031 281.339844 137.207031 273.753906 Z M 137.207031 273.753906 "/>
<path style=" stroke:none;fill-rule:nonzero;fill:rgb(0%,0%,0%);fill-opacity:1;" d="M 281.050781 306.683594 C 273.328125 306.691406 269.265625 298.460938 267.132813 290.230469 C 264.996094 281.996094 264.796875 273.761719 264.796875 273.761719 L 260.855469 273.722656 C 260.855469 273.722656 260.113281 306.660156 244.667969 306.675781 Z M 281.050781 306.683594 "/>
<path style=" stroke:none;fill-rule:nonzero;fill:rgb(0%,0%,0%);fill-opacity:1;" d="M 294.125 273.753906 C 294.058594 257.683594 269.984375 246.03125 262.910156 233.316406 C 255.847656 246.03125 231.769531 257.683594 231.703125 273.753906 C 231.671875 281.339844 238.691406 287.484375 247.308594 287.484375 C 255.925781 287.484375 262.910156 281.339844 262.910156 273.753906 C 262.910156 281.339844 269.902344 287.484375 278.519531 287.484375 C 287.140625 287.484375 294.125 281.339844 294.125 273.753906 Z M 294.125 273.753906 "/>
</g>
</svg>
