<?xml version="1.0" encoding="UTF-8"?>
<svg xmlns="http://www.w3.org/2000/svg" xmlns:xlink="http://www.w3.org/1999/xlink" width="371pt" height="540pt" viewBox="0 0 371 540" version="1.1">
<g id="surface1">
<path style="fill-rule:nonzero;fill:rgb(100%,100%,100%);fill-opacity:1;stroke-width:0.5;stroke-linecap:butt;stroke-linejoin:miter;stroke:rgb(0%,0%,0%);stroke-opacity:1;stroke-miterlimit:4;" d="M 166.836617 235.89229 C 166.836617 239.68485 163.750894 242.783692 159.966749 242.783692 L 7.110884 242.783692 C 3.335536 242.783692 0.249813 239.68485 0.249813 235.89229 L 0.249813 6.77519 C 0.249813 2.987912 3.335536 -0.116212 7.110884 -0.116212 L 159.966749 -0.116212 C 163.750894 -0.116212 166.836617 2.987912 166.836617 6.77519 Z M 166.836617 235.89229 " transform="matrix(2.220408,0,0,2.218571,0,0.812511)"/>
<path style=" stroke:none;fill-rule:nonzero;fill:rgb(90.196078%,7.843137%,3.137255%);fill-opacity:1;" d="M 42.910156 25.011719 L 35.535156 58.210938 L 33.097656 58.210938 L 40.28125 25.761719 L 31.460938 25.761719 L 31.460938 31.171875 L 29.796875 31.171875 L 29.796875 18.207031 L 42.910156 18.207031 Z M 42.910156 25.011719 "/>
<path style=" stroke:none;fill-rule:nonzero;fill:rgb(90.196078%,7.843137%,3.137255%);fill-opacity:1;" d="M 328.089844 514.988281 L 335.460938 481.789063 L 337.902344 481.789063 L 330.71875 514.238281 L 339.539063 514.238281 L 339.539063 508.828125 L 341.203125 508.828125 L 341.203125 521.792969 L 328.089844 521.792969 Z M 328.089844 514.988281 "/>
<path style=" stroke:none;fill-rule:nonzero;fill:rgb(90.196078%,7.843137%,3.137255%);fill-opacity:1;" d="M 88.523438 30.386719 C 78.957031 30.40625 71.179688 38.574219 71.242188 48.597656 C 71.378906 69.851563 98.09375 85.21875 105.96875 102.007813 C 113.84375 85.21875 140.617188 69.851563 140.75 48.597656 C 140.8125 38.574219 133.035156 30.40625 123.472656 30.386719 C 113.90625 30.367188 105.996094 38.5 105.96875 48.542969 C 105.941406 38.5 98.085938 30.367188 88.523438 30.386719 Z M 88.523438 30.386719 "/>
<path style=" stroke:none;fill-rule:nonzero;fill:rgb(90.196078%,7.843137%,3.137255%);fill-opacity:1;" d="M 31.097656 66.121094 C 28.222656 66.128906 25.882813 68.582031 25.902344 71.597656 C 25.945313 77.988281 33.976563 82.609375 36.34375 87.65625 C 38.714844 82.609375 46.761719 77.988281 46.804688 71.597656 C 46.824219 68.582031 44.484375 66.128906 41.609375 66.121094 C 38.730469 66.117188 36.355469 68.5625 36.34375 71.582031 C 36.335938 68.5625 33.976563 66.117188 31.097656 66.121094 Z M 31.097656 66.121094 "/>
<path style=" stroke:none;fill-rule:nonzero;fill:rgb(90.196078%,7.843137%,3.137255%);fill-opacity:1;" d="M 329.390625 473.199219 C 326.515625 473.195313 324.175781 470.738281 324.195313 467.726563 C 324.238281 461.335938 332.269531 456.714844 334.636719 451.664063 C 337.007813 456.714844 345.054688 461.335938 345.097656 467.726563 C 345.117188 470.738281 342.777344 473.195313 339.902344 473.199219 C 337.023438 473.207031 334.648438 470.761719 334.636719 467.742188 C 334.628906 470.761719 332.269531 473.207031 329.390625 473.199219 Z M 329.390625 473.199219 "/>
<path style=" stroke:none;fill-rule:nonzero;fill:rgb(90.196078%,7.843137%,3.137255%);fill-opacity:1;" d="M 245.441406 30.386719 C 235.875 30.40625 228.097656 38.574219 228.160156 48.597656 C 228.292969 69.851563 255.011719 85.21875 262.886719 102.007813 C 270.761719 85.21875 297.535156 69.851563 297.667969 48.597656 C 297.730469 38.574219 289.953125 30.40625 280.386719 30.386719 C 270.824219 30.367188 262.914063 38.5 262.886719 48.542969 C 262.859375 38.5 255.003906 30.367188 245.441406 30.386719 Z M 245.441406 30.386719 "/>
<path style=" stroke:none;fill-rule:nonzero;fill:rgb(90.196078%,7.843137%,3.137255%);fill-opacity:1;" d="M 168.027344 132.289063 C 158.460938 132.308594 150.683594 140.476563 150.746094 150.5 C 150.878906 171.753906 177.597656 187.121094 185.472656 203.910156 C 193.347656 187.121094 220.121094 171.753906 220.253906 150.5 C 220.316406 140.476563 212.539063 132.308594 202.972656 132.289063 C 193.410156 132.269531 185.5 140.402344 185.472656 150.445313 C 185.445313 140.402344 177.589844 132.269531 168.027344 132.289063 Z M 168.027344 132.289063 "/>
<path style=" stroke:none;fill-rule:nonzero;fill:rgb(90.196078%,7.843137%,3.137255%);fill-opacity:1;" d="M 88.523438 234.1875 C 78.957031 234.210938 71.179688 242.378906 71.242188 252.402344 C 71.378906 273.652344 98.09375 289.023438 105.96875 305.8125 C 113.84375 289.023438 140.617188 273.652344 140.75 252.402344 C 140.8125 242.378906 133.035156 234.210938 123.472656 234.1875 C 113.90625 234.167969 105.996094 242.304688 105.96875 252.34375 C 105.941406 242.304688 98.085938 234.167969 88.523438 234.1875 Z M 88.523438 234.1875 "/>
<path style=" stroke:none;fill-rule:nonzero;fill:rgb(90.196078%,7.843137%,3.137255%);fill-opacity:1;" d="M 245.441406 234.1875 C 235.875 234.210938 228.097656 242.378906 228.160156 252.402344 C 228.292969 273.652344 255.011719 289.023438 262.886719 305.8125 C 270.761719 289.023438 297.535156 273.652344 297.667969 252.402344 C 297.730469 242.378906 289.953125 234.210938 280.386719 234.1875 C 270.824219 234.167969 262.914063 242.304688 262.886719 252.34375 C 262.859375 242.304688 255.003906 234.167969 245.441406 234.1875 Z M 245.441406 234.1875 "/>
<path style=" stroke:none;fill-rule:nonzero;fill:rgb(90.196078%,7.843137%,3.137255%);fill-opacity:1;" d="M 88.523438 509.566406 C 78.957031 509.542969 71.179688 501.375 71.242188 491.355469 C 71.378906 470.101563 98.09375 454.730469 105.96875 437.945313 C 113.84375 454.730469 140.617188 470.101563 140.75 491.355469 C 140.8125 501.375 133.035156 509.542969 123.472656 509.566406 C 113.90625 509.585938 105.996094 501.453125 105.96875 491.410156 C 105.941406 501.453125 98.085938 509.585938 88.523438 509.566406 Z M 88.523438 509.566406 "/>
<path style=" stroke:none;fill-rule:nonzero;fill:rgb(90.196078%,7.843137%,3.137255%);fill-opacity:1;" d="M 245.441406 509.566406 C 235.875 509.542969 228.097656 501.375 228.160156 491.355469 C 228.292969 470.101563 255.011719 454.730469 262.886719 437.945313 C 270.761719 454.730469 297.535156 470.101563 297.667969 491.355469 C 297.730469 501.375 289.953125 509.542969 280.386719 509.566406 C 270.824219 509.585938 262.914063 501.453125 262.886719 491.410156 C 262.859375 501.453125 255.003906 509.585938 245.441406 509.566406 Z M 245.441406 509.566406 "/>
</g>
</svg>
