<?xml version="1.0" encoding="UTF-8"?>
<svg xmlns="http://www.w3.org/2000/svg" xmlns:xlink="http://www.w3.org/1999/xlink" width="371pt" height="540pt" viewBox="0 0 371 540" version="1.1">
<g id="surface1">
<path style="fill-rule:nonzero;fill:rgb(100%,100%,100%);fill-opacity:1;stroke-width:0.5;stroke-linecap:butt;stroke-linejoin:miter;stroke:rgb(0%,0%,0%);stroke-opacity:1;stroke-miterlimit:4;" d="M 166.836617 235.89229 C 166.836617 239.68485 163.750894 242.783692 159.966749 242.783692 L 7.110884 242.783692 C 3.335536 242.783692 0.249813 239.68485 0.249813 235.89229 L 0.249813 6.77519 C 0.249813 2.987912 3.335536 -0.116212 7.110884 -0.116212 L 159.966749 -0.116212 C 163.750894 -0.116212 166.836617 2.987912 166.836617 6.77519 Z M 166.836617 235.89229 " transform="matrix(2.220408,0,0,2.218571,0,0.812511)"/>
<path style=" stroke:none;fill-rule:nonzero;fill:rgb(0%,0%,0%);fill-opacity:1;" d="M 42.910156 25.011719 L 35.535156 58.210938 L 33.097656 58.210938 L 40.28125 25.761719 L 31.460938 25.761719 L 31.460938 31.171875 L 29.796875 31.171875 L 29.796875 18.207031 L 42.910156 18.207031 Z M 42.910156 25.011719 "/>
<path style=" stroke:none;fill-rule:nonzero;fill:rgb(0%,0%,0%);fill-opacity:1;" d="M 328.089844 514.988281 L 335.460938 481.789063 L 337.902344 481.789063 L 330.71875 514.238281 L 339.539063 514.238281 L 339.539063 508.828125 L 341.203125 508.828125 L 341.203125 521.792969 L 328.089844 521.792969 Z M 328.089844 514.988281 "/>
<path style=" stroke:none;fill-rule:nonzero;fill:rgb(0%,0%,0%);fill-opacity:1;" d="M 105.996094 29.523438 C 98.925781 42.238281 74.828125 53.886719 74.78125 69.957031 C 74.761719 77.542969 81.769531 83.65625 90.390625 83.65625 C 95.882813 83.65625 100.761719 81.191406 103.542969 77.417969 C 102.382813 88.34375 99.265625 100.554688 87.882813 102.871094 L 124.113281 102.871094 C 112.730469 100.554688 109.613281 88.34375 108.449219 77.417969 C 111.230469 81.191406 116.113281 83.65625 121.605469 83.65625 C 130.226563 83.65625 137.234375 77.542969 137.210938 69.957031 C 137.164063 53.886719 113.066406 42.238281 105.996094 29.523438 Z M 105.996094 29.523438 "/>
<path style=" stroke:none;fill-rule:nonzero;fill:rgb(0%,0%,0%);fill-opacity:1;" d="M 36.351563 65.867188 C 34.226563 69.6875 26.992188 73.1875 26.972656 78.019531 C 26.972656 80.300781 29.070313 82.136719 31.664063 82.136719 C 33.3125 82.136719 34.78125 81.398438 35.617188 80.261719 C 35.265625 83.546875 34.328125 87.214844 30.910156 87.914063 L 41.796875 87.914063 C 38.378906 87.214844 37.441406 83.546875 37.089844 80.261719 C 37.925781 81.398438 39.394531 82.136719 41.042969 82.136719 C 43.636719 82.136719 45.734375 80.300781 45.734375 78.019531 C 45.714844 73.1875 38.480469 69.6875 36.351563 65.867188 Z M 36.351563 65.867188 "/>
<path style=" stroke:none;fill-rule:nonzero;fill:rgb(0%,0%,0%);fill-opacity:1;" d="M 334.648438 473.457031 C 332.519531 469.636719 325.285156 466.132813 325.265625 461.304688 C 325.265625 459.023438 327.363281 457.183594 329.957031 457.183594 C 331.605469 457.183594 333.074219 457.925781 333.910156 459.058594 C 333.558594 455.777344 332.621094 452.105469 329.203125 451.410156 L 340.089844 451.410156 C 336.671875 452.105469 335.734375 455.777344 335.382813 459.058594 C 336.21875 457.925781 337.6875 457.183594 339.335938 457.183594 C 341.929688 457.183594 344.027344 459.023438 344.027344 461.304688 C 344.007813 466.132813 336.773438 469.636719 334.648438 473.457031 Z M 334.648438 473.457031 "/>
<path style=" stroke:none;fill-rule:nonzero;fill:rgb(0%,0%,0%);fill-opacity:1;" d="M 262.914063 510.429688 C 255.84375 497.710938 231.746094 486.0625 231.699219 469.996094 C 231.679688 462.40625 238.6875 456.292969 247.308594 456.292969 C 252.800781 456.292969 257.679688 458.757813 260.460938 462.53125 C 259.300781 451.605469 256.183594 439.398438 244.800781 437.082031 L 281.03125 437.082031 C 269.644531 439.398438 266.527344 451.605469 265.367188 462.53125 C 268.148438 458.757813 273.027344 456.292969 278.519531 456.292969 C 287.140625 456.292969 294.148438 462.40625 294.128906 469.996094 C 294.082031 486.0625 269.984375 497.710938 262.914063 510.429688 Z M 262.914063 510.429688 "/>
<path style=" stroke:none;fill-rule:nonzero;fill:rgb(0%,0%,0%);fill-opacity:1;" d="M 105.996094 510.429688 C 98.925781 497.710938 74.828125 486.0625 74.78125 469.996094 C 74.761719 462.40625 81.769531 456.292969 90.390625 456.292969 C 95.882813 456.292969 100.761719 458.757813 103.542969 462.53125 C 102.382813 451.605469 99.265625 439.398438 87.882813 437.082031 L 124.113281 437.082031 C 112.730469 439.398438 109.613281 451.605469 108.449219 462.53125 C 111.230469 458.757813 116.113281 456.292969 121.605469 456.292969 C 130.226563 456.292969 137.234375 462.40625 137.210938 469.996094 C 137.164063 486.0625 113.066406 497.710938 105.996094 510.429688 Z M 105.996094 510.429688 "/>
<path style=" stroke:none;fill-rule:nonzero;fill:rgb(0%,0%,0%);fill-opacity:1;" d="M 262.914063 29.523438 C 255.84375 42.238281 231.746094 53.886719 231.699219 69.957031 C 231.679688 77.542969 238.6875 83.65625 247.308594 83.65625 C 252.800781 83.65625 257.679688 81.191406 260.460938 77.417969 C 259.300781 88.34375 256.183594 100.554688 244.800781 102.871094 L 281.03125 102.871094 C 269.644531 100.554688 266.527344 88.34375 265.367188 77.417969 C 268.148438 81.191406 273.027344 83.65625 278.519531 83.65625 C 287.140625 83.65625 294.148438 77.542969 294.128906 69.957031 C 294.082031 53.886719 269.984375 42.238281 262.914063 29.523438 Z M 262.914063 29.523438 "/>
<path style=" stroke:none;fill-rule:nonzero;fill:rgb(0%,0%,0%);fill-opacity:1;" d="M 185.5 131.425781 C 178.429688 144.140625 154.332031 155.789063 154.285156 171.855469 C 154.265625 179.445313 161.273438 185.558594 169.894531 185.558594 C 175.386719 185.558594 180.265625 183.09375 183.046875 179.320313 C 181.886719 190.246094 178.769531 202.457031 167.382813 204.773438 L 203.613281 204.773438 C 192.230469 202.457031 189.113281 190.246094 187.953125 179.320313 C 190.734375 183.09375 195.613281 185.558594 201.105469 185.558594 C 209.726563 185.558594 216.734375 179.445313 216.714844 171.855469 C 216.667969 155.789063 192.570313 144.140625 185.5 131.425781 Z M 185.5 131.425781 "/>
<path style=" stroke:none;fill-rule:nonzero;fill:rgb(0%,0%,0%);fill-opacity:1;" d="M 105.996094 233.324219 C 98.925781 246.042969 74.828125 257.691406 74.78125 273.757813 C 74.761719 281.347656 81.769531 287.460938 90.390625 287.460938 C 95.882813 287.460938 100.761719 284.996094 103.542969 281.222656 C 102.382813 292.148438 99.265625 304.355469 87.882813 306.675781 L 124.113281 306.675781 C 112.730469 304.355469 109.613281 292.148438 108.449219 281.222656 C 111.230469 284.996094 116.113281 287.460938 121.605469 287.460938 C 130.226563 287.460938 137.234375 281.347656 137.210938 273.757813 C 137.164063 257.691406 113.066406 246.042969 105.996094 233.324219 Z M 105.996094 233.324219 "/>
<path style=" stroke:none;fill-rule:nonzero;fill:rgb(0%,0%,0%);fill-opacity:1;" d="M 262.914063 233.324219 C 255.84375 246.042969 231.746094 257.691406 231.699219 273.757813 C 231.679688 281.347656 238.6875 287.460938 247.308594 287.460938 C 252.800781 287.460938 257.679688 284.996094 260.460938 281.222656 C 259.300781 292.148438 256.183594 304.355469 244.800781 306.675781 L 281.03125 306.675781 C 269.644531 304.355469 266.527344 292.148438 265.367188 281.222656 C 268.148438 284.996094 273.027344 287.460938 278.519531 287.460938 C 287.140625 287.460938 294.148438 281.347656 294.128906 273.757813 C 294.082031 257.691406 269.984375 246.042969 262.914063 233.324219 Z M 262.914063 233.324219 "/>
</g>
</svg>
