<?xml version="1.0" encoding="UTF-8"?>
<svg xmlns="http://www.w3.org/2000/svg" xmlns:xlink="http://www.w3.org/1999/xlink" width="371pt" height="540pt" viewBox="0 0 371 540" version="1.1">
<g id="surface1">
<path style="fill-rule:nonzero;fill:rgb(100%,100%,100%);fill-opacity:1;stroke-width:0.5;stroke-linecap:butt;stroke-linejoin:miter;stroke:rgb(0%,0%,0%);stroke-opacity:1;stroke-miterlimit:4;" d="M 166.836617 235.89229 C 166.836617 239.68485 163.750894 242.783692 159.966749 242.783692 L 7.110884 242.783692 C 3.335536 242.783692 0.249813 239.68485 0.249813 235.89229 L 0.249813 6.77519 C 0.249813 2.987912 3.335536 -0.116212 7.110884 -0.116212 L 159.966749 -0.116212 C 163.750894 -0.116212 166.836617 2.987912 166.836617 6.77519 Z M 166.836617 235.89229 " transform="matrix(2.220408,0,0,2.218571,0,0.812511)"/>
<path style=" stroke:none;fill-rule:nonzero;fill:rgb(90.196078%,7.843137%,3.137255%);fill-opacity:1;" d="M 39.21875 36.851563 C 40.652344 37.371094 41.742188 38.542969 42.488281 40.367188 C 43.230469 42.191406 43.605469 44.582031 43.605469 47.535156 C 43.605469 51.222656 42.980469 54.050781 41.738281 56.019531 C 40.492188 57.988281 38.699219 58.972656 36.351563 58.972656 C 34.007813 58.972656 32.214844 57.988281 30.96875 56.019531 C 29.722656 54.050781 29.101563 51.222656 29.101563 47.535156 C 29.101563 44.582031 29.472656 42.191406 30.210938 40.367188 C 30.949219 38.542969 32.019531 37.371094 33.425781 36.851563 C 32.191406 36.207031 31.269531 35.132813 30.652344 33.625 C 30.035156 32.117188 29.726563 30.203125 29.726563 27.882813 C 29.726563 24.492188 30.292969 21.90625 31.421875 20.121094 C 32.554688 18.335938 34.199219 17.441406 36.351563 17.441406 C 38.492188 17.441406 40.128906 18.335938 41.269531 20.121094 C 42.410156 21.90625 42.980469 24.492188 42.980469 27.882813 C 42.980469 30.203125 42.667969 32.117188 42.046875 33.625 C 41.421875 35.132813 40.480469 36.207031 39.21875 36.851563 Z M 38.816406 47.085938 C 38.816406 43.804688 38.632813 41.542969 38.261719 40.304688 C 37.894531 39.070313 37.25 38.449219 36.332031 38.449219 C 35.414063 38.449219 34.765625 39.070313 34.386719 40.304688 C 34.007813 41.542969 33.820313 43.804688 33.820313 47.085938 C 33.820313 50.402344 34.007813 52.691406 34.386719 53.957031 C 34.765625 55.21875 35.414063 55.851563 36.332031 55.851563 C 37.230469 55.851563 37.871094 55.21875 38.25 53.957031 C 38.628906 52.691406 38.816406 50.402344 38.816406 47.085938 Z M 38.332031 27.988281 C 38.332031 25.164063 38.179688 23.222656 37.882813 22.15625 C 37.582031 21.09375 37.074219 20.5625 36.351563 20.5625 C 35.613281 20.5625 35.101563 21.09375 34.8125 22.15625 C 34.519531 23.222656 34.375 25.164063 34.375 27.988281 C 34.375 30.792969 34.519531 32.71875 34.8125 33.761719 C 35.101563 34.808594 35.613281 35.332031 36.351563 35.332031 C 37.074219 35.332031 37.582031 34.808594 37.882813 33.761719 C 38.179688 32.71875 38.332031 30.792969 38.332031 27.988281 Z M 38.332031 27.988281 "/>
<path style=" stroke:none;fill-rule:nonzero;fill:rgb(90.196078%,7.843137%,3.137255%);fill-opacity:1;" d="M 331.785156 503.152344 C 330.347656 502.632813 329.257813 501.457031 328.515625 499.632813 C 327.769531 497.808594 327.394531 495.417969 327.394531 492.464844 C 327.394531 488.777344 328.019531 485.949219 329.261719 483.984375 C 330.507813 482.011719 332.300781 481.027344 334.648438 481.027344 C 336.992188 481.027344 338.789063 482.011719 340.03125 483.984375 C 341.277344 485.949219 341.898438 488.777344 341.898438 492.464844 C 341.898438 495.417969 341.527344 497.808594 340.792969 499.632813 C 340.050781 501.457031 338.980469 502.632813 337.574219 503.152344 C 338.808594 503.792969 339.734375 504.867188 340.347656 506.375 C 340.964844 507.886719 341.273438 509.796875 341.273438 512.117188 C 341.273438 515.507813 340.710938 518.097656 339.578125 519.882813 C 338.445313 521.664063 336.800781 522.558594 334.648438 522.558594 C 332.507813 522.558594 330.871094 521.664063 329.730469 519.882813 C 328.589844 518.097656 328.019531 515.507813 328.019531 512.117188 C 328.019531 509.796875 328.332031 507.886719 328.953125 506.375 C 329.578125 504.867188 330.519531 503.792969 331.785156 503.152344 Z M 332.183594 492.917969 C 332.183594 496.199219 332.371094 498.457031 332.738281 499.695313 C 333.105469 500.933594 333.75 501.550781 334.667969 501.550781 C 335.585938 501.550781 336.234375 500.933594 336.609375 499.695313 C 336.992188 498.457031 337.179688 496.199219 337.179688 492.917969 C 337.179688 489.597656 336.992188 487.308594 336.609375 486.046875 C 336.234375 484.78125 335.585938 484.148438 334.667969 484.148438 C 333.769531 484.148438 333.128906 484.78125 332.75 486.046875 C 332.375 487.308594 332.183594 489.597656 332.183594 492.917969 Z M 332.667969 512.015625 C 332.667969 514.835938 332.820313 516.78125 333.117188 517.84375 C 333.417969 518.90625 333.925781 519.4375 334.648438 519.4375 C 335.382813 519.4375 335.898438 518.90625 336.191406 517.84375 C 336.480469 516.78125 336.625 514.835938 336.625 512.015625 C 336.625 509.207031 336.480469 507.28125 336.191406 506.238281 C 335.898438 505.195313 335.382813 504.667969 334.648438 504.667969 C 333.925781 504.667969 333.417969 505.195313 333.117188 506.238281 C 332.820313 507.28125 332.667969 509.207031 332.667969 512.015625 Z M 332.667969 512.015625 "/>
<path style=" stroke:none;fill-rule:nonzero;fill:rgb(90.196078%,7.843137%,3.137255%);fill-opacity:1;" d="M 105.996094 31 C 105.9375 32.984375 104.757813 40.4375 91.894531 52.773438 C 79.515625 64.644531 73.734375 66.070313 71.996094 66.195313 C 73.734375 66.320313 79.515625 67.746094 91.894531 79.617188 C 104.757813 91.953125 105.9375 99.40625 105.996094 101.394531 C 106.054688 99.40625 107.234375 91.953125 120.097656 79.617188 C 132.480469 67.746094 138.261719 66.320313 139.996094 66.195313 C 138.261719 66.070313 132.480469 64.644531 120.097656 52.773438 C 107.234375 40.4375 106.054688 32.984375 105.996094 31 Z M 105.996094 31 "/>
<path style=" stroke:none;fill-rule:nonzero;fill:rgb(90.196078%,7.843137%,3.137255%);fill-opacity:1;" d="M 36.351563 66.304688 C 36.335938 66.902344 35.980469 69.144531 32.113281 72.851563 C 28.390625 76.421875 26.652344 76.851563 26.128906 76.890625 C 26.652344 76.925781 28.390625 77.355469 32.113281 80.925781 C 35.980469 84.632813 36.335938 86.875 36.351563 87.472656 C 36.371094 86.875 36.726563 84.632813 40.59375 80.925781 C 44.316406 77.355469 46.054688 76.925781 46.578125 76.890625 C 46.054688 76.851563 44.316406 76.421875 40.59375 72.851563 C 36.726563 69.144531 36.371094 66.902344 36.351563 66.304688 Z M 36.351563 66.304688 "/>
<path style=" stroke:none;fill-rule:nonzero;fill:rgb(90.196078%,7.843137%,3.137255%);fill-opacity:1;" d="M 334.648438 451.851563 C 334.628906 452.449219 334.273438 454.6875 330.40625 458.398438 C 326.683594 461.96875 324.945313 462.394531 324.421875 462.433594 C 324.945313 462.472656 326.683594 462.898438 330.40625 466.46875 C 334.273438 470.179688 334.628906 472.417969 334.648438 473.015625 C 334.664063 472.417969 335.019531 470.179688 338.886719 466.46875 C 342.609375 462.898438 344.347656 462.472656 344.871094 462.433594 C 344.347656 462.394531 342.609375 461.96875 338.886719 458.398438 C 335.019531 454.6875 334.664063 452.449219 334.648438 451.851563 Z M 334.648438 451.851563 "/>
<path style=" stroke:none;fill-rule:nonzero;fill:rgb(90.196078%,7.843137%,3.137255%);fill-opacity:1;" d="M 262.914063 31 C 262.855469 32.984375 261.675781 40.4375 248.8125 52.773438 C 236.433594 64.644531 230.652344 66.070313 228.914063 66.195313 C 230.652344 66.320313 236.433594 67.746094 248.8125 79.617188 C 261.675781 91.953125 262.855469 99.40625 262.914063 101.394531 C 262.972656 99.40625 264.152344 91.953125 277.015625 79.617188 C 289.394531 67.746094 295.175781 66.320313 296.914063 66.195313 C 295.175781 66.070313 289.394531 64.644531 277.015625 52.773438 C 264.152344 40.4375 262.972656 32.984375 262.914063 31 Z M 262.914063 31 "/>
<path style=" stroke:none;fill-rule:nonzero;fill:rgb(90.196078%,7.843137%,3.137255%);fill-opacity:1;" d="M 185.5 132.898438 C 185.441406 134.886719 184.261719 142.339844 171.398438 154.675781 C 159.019531 166.546875 153.238281 167.972656 151.5 168.097656 C 153.238281 168.222656 159.019531 169.648438 171.398438 181.519531 C 184.261719 193.855469 185.441406 201.308594 185.5 203.296875 C 185.558594 201.308594 186.738281 193.855469 199.601563 181.519531 C 211.980469 169.648438 217.761719 168.222656 219.5 168.097656 C 217.761719 167.972656 211.980469 166.546875 199.601563 154.675781 C 186.738281 142.339844 185.558594 134.886719 185.5 132.898438 Z M 185.5 132.898438 "/>
<path style=" stroke:none;fill-rule:nonzero;fill:rgb(90.196078%,7.843137%,3.137255%);fill-opacity:1;" d="M 105.996094 234.800781 C 105.9375 236.789063 104.757813 244.242188 91.894531 256.578125 C 79.515625 268.449219 73.734375 269.875 71.996094 270 C 73.734375 270.125 79.515625 271.550781 91.894531 283.421875 C 104.757813 295.757813 105.9375 303.210938 105.996094 305.199219 C 106.054688 303.210938 107.234375 295.757813 120.097656 283.421875 C 132.480469 271.550781 138.261719 270.125 139.996094 270 C 138.261719 269.875 132.480469 268.449219 120.097656 256.578125 C 107.234375 244.242188 106.054688 236.789063 105.996094 234.800781 Z M 105.996094 234.800781 "/>
<path style=" stroke:none;fill-rule:nonzero;fill:rgb(90.196078%,7.843137%,3.137255%);fill-opacity:1;" d="M 262.914063 234.800781 C 262.855469 236.789063 261.675781 244.242188 248.8125 256.578125 C 236.433594 268.449219 230.652344 269.875 228.914063 270 C 230.652344 270.125 236.433594 271.550781 248.8125 283.421875 C 261.675781 295.757813 262.855469 303.210938 262.914063 305.199219 C 262.972656 303.210938 264.152344 295.757813 277.015625 283.421875 C 289.394531 271.550781 295.175781 270.125 296.914063 270 C 295.175781 269.875 289.394531 268.449219 277.015625 256.578125 C 264.152344 244.242188 262.972656 236.789063 262.914063 234.800781 Z M 262.914063 234.800781 "/>
<path style=" stroke:none;fill-rule:nonzero;fill:rgb(90.196078%,7.843137%,3.137255%);fill-opacity:1;" d="M 185.5 336.679688 C 185.441406 338.667969 184.261719 346.121094 171.398438 358.457031 C 159.019531 370.328125 153.238281 371.753906 151.5 371.878906 C 153.238281 372.003906 159.019531 373.425781 171.398438 385.300781 C 184.261719 397.632813 185.441406 405.085938 185.5 407.074219 C 185.558594 405.089844 186.738281 397.632813 199.601563 385.300781 C 211.980469 373.425781 217.761719 372.003906 219.5 371.878906 C 217.761719 371.753906 211.980469 370.328125 199.601563 358.457031 C 186.738281 346.121094 185.558594 338.667969 185.5 336.679688 Z M 185.5 336.679688 "/>
<path style=" stroke:none;fill-rule:nonzero;fill:rgb(90.196078%,7.843137%,3.137255%);fill-opacity:1;" d="M 105.996094 438.554688 C 105.9375 440.542969 104.757813 447.996094 91.894531 460.332031 C 79.515625 472.203125 73.734375 473.628906 71.996094 473.753906 C 73.734375 473.878906 79.515625 475.304688 91.894531 487.175781 C 104.757813 499.511719 105.9375 506.964844 105.996094 508.953125 C 106.054688 506.964844 107.234375 499.511719 120.097656 487.175781 C 132.480469 475.304688 138.261719 473.878906 139.996094 473.753906 C 138.261719 473.628906 132.480469 472.203125 120.097656 460.332031 C 107.234375 447.996094 106.054688 440.542969 105.996094 438.554688 Z M 105.996094 438.554688 "/>
<path style=" stroke:none;fill-rule:nonzero;fill:rgb(90.196078%,7.843137%,3.137255%);fill-opacity:1;" d="M 262.914063 438.554688 C 262.855469 440.542969 261.675781 447.996094 248.8125 460.332031 C 236.433594 472.203125 230.652344 473.628906 228.914063 473.753906 C 230.652344 473.878906 236.433594 475.304688 248.8125 487.175781 C 261.675781 499.511719 262.855469 506.964844 262.914063 508.953125 C 262.972656 506.964844 264.152344 499.511719 277.015625 487.175781 C 289.394531 475.304688 295.175781 473.878906 296.914063 473.753906 C 295.175781 473.628906 289.394531 472.203125 277.015625 460.332031 C 264.152344 447.996094 262.972656 440.542969 262.914063 438.554688 Z M 262.914063 438.554688 "/>
</g>
</svg>
