<?xml version="1.0" encoding="UTF-8"?>
<svg xmlns="http://www.w3.org/2000/svg" xmlns:xlink="http://www.w3.org/1999/xlink" width="371pt" height="540pt" viewBox="0 0 371 540" version="1.1">
<g id="surface1">
<path style="fill-rule:nonzero;fill:rgb(100%,100%,100%);fill-opacity:1;stroke-width:0.5;stroke-linecap:butt;stroke-linejoin:miter;stroke:rgb(0%,0%,0%);stroke-opacity:1;stroke-miterlimit:4;" d="M 166.836617 235.89229 C 166.836617 239.68485 163.750894 242.783692 159.966749 242.783692 L 7.110884 242.783692 C 3.335536 242.783692 0.249813 239.68485 0.249813 235.89229 L 0.249813 6.77519 C 0.249813 2.987912 3.335536 -0.116212 7.110884 -0.116212 L 159.966749 -0.116212 C 163.750894 -0.116212 166.836617 2.987912 166.836617 6.77519 Z M 166.836617 235.89229 " transform="matrix(2.220408,0,0,2.218571,0,0.812511)"/>
<path style=" stroke:none;fill-rule:nonzero;fill:rgb(90.196078%,7.843137%,3.137255%);fill-opacity:1;" d="M 39.21875 36.851563 C 40.652344 37.371094 41.742188 38.542969 42.488281 40.367188 C 43.230469 42.191406 43.605469 44.582031 43.605469 47.535156 C 43.605469 51.222656 42.980469 54.050781 41.738281 56.019531 C 40.492188 57.988281 38.699219 58.972656 36.351563 58.972656 C 34.007813 58.972656 32.214844 57.988281 30.96875 56.019531 C 29.722656 54.050781 29.101563 51.222656 29.101563 47.535156 C 29.101563 44.582031 29.472656 42.191406 30.210938 40.367188 C 30.949219 38.542969 32.019531 37.371094 33.425781 36.851563 C 32.191406 36.207031 31.269531 35.132813 30.652344 33.625 C 30.035156 32.117188 29.726563 30.203125 29.726563 27.882813 C 29.726563 24.492188 30.292969 21.90625 31.421875 20.121094 C 32.554688 18.335938 34.199219 17.441406 36.351563 17.441406 C 38.492188 17.441406 40.128906 18.335938 41.269531 20.121094 C 42.410156 21.90625 42.980469 24.492188 42.980469 27.882813 C 42.980469 30.203125 42.667969 32.117188 42.046875 33.625 C 41.421875 35.132813 40.480469 36.207031 39.21875 36.851563 Z M 38.816406 47.085938 C 38.816406 43.804688 38.632813 41.542969 38.261719 40.304688 C 37.894531 39.070313 37.25 38.449219 36.332031 38.449219 C 35.414063 38.449219 34.765625 39.070313 34.386719 40.304688 C 34.007813 41.542969 33.820313 43.804688 33.820313 47.085938 C 33.820313 50.402344 34.007813 52.691406 34.386719 53.957031 C 34.765625 55.21875 35.414063 55.851563 36.332031 55.851563 C 37.230469 55.851563 37.871094 55.21875 38.25 53.957031 C 38.628906 52.691406 38.816406 50.402344 38.816406 47.085938 Z M 38.332031 27.988281 C 38.332031 25.164063 38.179688 23.222656 37.882813 22.15625 C 37.582031 21.09375 37.074219 20.5625 36.351563 20.5625 C 35.613281 20.5625 35.101563 21.09375 34.8125 22.15625 C 34.519531 23.222656 34.375 25.164063 34.375 27.988281 C 34.375 30.792969 34.519531 32.71875 34.8125 33.761719 C 35.101563 34.808594 35.613281 35.332031 36.351563 35.332031 C 37.074219 35.332031 37.582031 34.808594 37.882813 33.761719 C 38.179688 32.71875 38.332031 30.792969 38.332031 27.988281 Z M 38.332031 27.988281 "/>
<path style=" stroke:none;fill-rule:nonzero;fill:rgb(90.196078%,7.843137%,3.137255%);fill-opacity:1;" d="M 331.785156 503.152344 C 330.347656 502.632813 329.257813 501.457031 328.515625 499.632813 C 327.769531 497.808594 327.394531 495.417969 327.394531 492.464844 C 327.394531 488.777344 328.019531 485.949219 329.261719 483.984375 C 330.507813 482.011719 332.300781 481.027344 334.648438 481.027344 C 336.992188 481.027344 338.789063 482.011719 340.03125 483.984375 C 341.277344 485.949219 341.898438 488.777344 341.898438 492.464844 C 341.898438 495.417969 341.527344 497.808594 340.792969 499.632813 C 340.050781 501.457031 338.980469 502.632813 337.574219 503.152344 C 338.808594 503.792969 339.734375 504.867188 340.347656 506.375 C 340.964844 507.886719 341.273438 509.796875 341.273438 512.117188 C 341.273438 515.507813 340.710938 518.097656 339.578125 519.882813 C 338.445313 521.664063 336.800781 522.558594 334.648438 522.558594 C 332.507813 522.558594 330.871094 521.664063 329.730469 519.882813 C 328.589844 518.097656 328.019531 515.507813 328.019531 512.117188 C 328.019531 509.796875 328.332031 507.886719 328.953125 506.375 C 329.578125 504.867188 330.519531 503.792969 331.785156 503.152344 Z M 332.183594 492.917969 C 332.183594 496.199219 332.371094 498.457031 332.738281 499.695313 C 333.105469 500.933594 333.75 501.550781 334.667969 501.550781 C 335.585938 501.550781 336.234375 500.933594 336.609375 499.695313 C 336.992188 498.457031 337.179688 496.199219 337.179688 492.917969 C 337.179688 489.597656 336.992188 487.308594 336.609375 486.046875 C 336.234375 484.78125 335.585938 484.148438 334.667969 484.148438 C 333.769531 484.148438 333.128906 484.78125 332.75 486.046875 C 332.375 487.308594 332.183594 489.597656 332.183594 492.917969 Z M 332.667969 512.015625 C 332.667969 514.835938 332.820313 516.78125 333.117188 517.84375 C 333.417969 518.90625 333.925781 519.4375 334.648438 519.4375 C 335.382813 519.4375 335.898438 518.90625 336.191406 517.84375 C 336.480469 516.78125 336.625 514.835938 336.625 512.015625 C 336.625 509.207031 336.480469 507.28125 336.191406 506.238281 C 335.898438 505.195313 335.382813 504.667969 334.648438 504.667969 C 333.925781 504.667969 333.417969 505.195313 333.117188 506.238281 C 332.820313 507.28125 332.667969 509.207031 332.667969 512.015625 Z M 332.667969 512.015625 "/>
<path style=" stroke:none;fill-rule:nonzero;fill:rgb(90.196078%,7.843137%,3.137255%);fill-opacity:1;" d="M 88.523438 30.386719 C 78.957031 30.40625 71.179688 38.574219 71.242188 48.597656 C 71.378906 69.851563 98.09375 85.21875 105.96875 102.007813 C 113.84375 85.21875 140.617188 69.851563 140.75 48.597656 C 140.8125 38.574219 133.035156 30.40625 123.472656 30.386719 C 113.90625 30.367188 105.996094 38.5 105.96875 48.542969 C 105.941406 38.5 98.085938 30.367188 88.523438 30.386719 Z M 88.523438 30.386719 "/>
<path style=" stroke:none;fill-rule:nonzero;fill:rgb(90.196078%,7.843137%,3.137255%);fill-opacity:1;" d="M 31.097656 66.121094 C 28.222656 66.128906 25.882813 68.582031 25.902344 71.597656 C 25.945313 77.988281 33.976563 82.609375 36.34375 87.65625 C 38.714844 82.609375 46.761719 77.988281 46.804688 71.597656 C 46.824219 68.582031 44.484375 66.128906 41.609375 66.121094 C 38.730469 66.117188 36.355469 68.5625 36.34375 71.582031 C 36.335938 68.5625 33.976563 66.117188 31.097656 66.121094 Z M 31.097656 66.121094 "/>
<path style=" stroke:none;fill-rule:nonzero;fill:rgb(90.196078%,7.843137%,3.137255%);fill-opacity:1;" d="M 329.390625 473.199219 C 326.515625 473.195313 324.175781 470.738281 324.195313 467.726563 C 324.238281 461.335938 332.269531 456.714844 334.636719 451.664063 C 337.007813 456.714844 345.054688 461.335938 345.097656 467.726563 C 345.117188 470.738281 342.777344 473.195313 339.902344 473.199219 C 337.023438 473.207031 334.648438 470.761719 334.636719 467.742188 C 334.628906 470.761719 332.269531 473.207031 329.390625 473.199219 Z M 329.390625 473.199219 "/>
<path style=" stroke:none;fill-rule:nonzero;fill:rgb(90.196078%,7.843137%,3.137255%);fill-opacity:1;" d="M 245.441406 30.386719 C 235.875 30.40625 228.097656 38.574219 228.160156 48.597656 C 228.292969 69.851563 255.011719 85.21875 262.886719 102.007813 C 270.761719 85.21875 297.535156 69.851563 297.667969 48.597656 C 297.730469 38.574219 289.953125 30.40625 280.386719 30.386719 C 270.824219 30.367188 262.914063 38.5 262.886719 48.542969 C 262.859375 38.5 255.003906 30.367188 245.441406 30.386719 Z M 245.441406 30.386719 "/>
<path style=" stroke:none;fill-rule:nonzero;fill:rgb(90.196078%,7.843137%,3.137255%);fill-opacity:1;" d="M 168.027344 132.289063 C 158.460938 132.308594 150.683594 140.476563 150.746094 150.5 C 150.878906 171.753906 177.597656 187.121094 185.472656 203.910156 C 193.347656 187.121094 220.121094 171.753906 220.253906 150.5 C 220.316406 140.476563 212.539063 132.308594 202.972656 132.289063 C 193.410156 132.269531 185.5 140.402344 185.472656 150.445313 C 185.445313 140.402344 177.589844 132.269531 168.027344 132.289063 Z M 168.027344 132.289063 "/>
<path style=" stroke:none;fill-rule:nonzero;fill:rgb(90.196078%,7.843137%,3.137255%);fill-opacity:1;" d="M 88.523438 234.1875 C 78.957031 234.210938 71.179688 242.378906 71.242188 252.402344 C 71.378906 273.652344 98.09375 289.023438 105.96875 305.8125 C 113.84375 289.023438 140.617188 273.652344 140.75 252.402344 C 140.8125 242.378906 133.035156 234.210938 123.472656 234.1875 C 113.90625 234.167969 105.996094 242.304688 105.96875 252.34375 C 105.941406 242.304688 98.085938 234.167969 88.523438 234.1875 Z M 88.523438 234.1875 "/>
<path style=" stroke:none;fill-rule:nonzero;fill:rgb(90.196078%,7.843137%,3.137255%);fill-opacity:1;" d="M 245.441406 234.1875 C 235.875 234.210938 228.097656 242.378906 228.160156 252.402344 C 228.292969 273.652344 255.011719 289.023438 262.886719 305.8125 C 270.761719 289.023438 297.535156 273.652344 297.667969 252.402344 C 297.730469 242.378906 289.953125 234.210938 280.386719 234.1875 C 270.824219 234.167969 262.914063 242.304688 262.886719 252.34375 C 262.859375 242.304688 255.003906 234.167969 245.441406 234.1875 Z M 245.441406 234.1875 "/>
<path style=" stroke:none;fill-rule:nonzero;fill:rgb(90.196078%,7.843137%,3.137255%);fill-opacity:1;" d="M 168.027344 407.6875 C 158.460938 407.667969 150.683594 399.5 150.746094 389.476563 C 150.878906 368.222656 177.597656 352.851563 185.472656 336.066406 C 193.347656 352.851563 220.121094 368.222656 220.253906 389.476563 C 220.316406 399.5 212.539063 407.667969 202.972656 407.6875 C 193.410156 407.707031 185.5 399.574219 185.472656 389.53125 C 185.445313 399.574219 177.589844 407.707031 168.027344 407.6875 Z M 168.027344 407.6875 "/>
<path style=" stroke:none;fill-rule:nonzero;fill:rgb(90.196078%,7.843137%,3.137255%);fill-opacity:1;" d="M 88.523438 509.566406 C 78.957031 509.542969 71.179688 501.375 71.242188 491.355469 C 71.378906 470.101563 98.09375 454.730469 105.96875 437.945313 C 113.84375 454.730469 140.617188 470.101563 140.75 491.355469 C 140.8125 501.375 133.035156 509.542969 123.472656 509.566406 C 113.90625 509.585938 105.996094 501.453125 105.96875 491.410156 C 105.941406 501.453125 98.085938 509.585938 88.523438 509.566406 Z M 88.523438 509.566406 "/>
<path style=" stroke:none;fill-rule:nonzero;fill:rgb(90.196078%,7.843137%,3.137255%);fill-opacity:1;" d="M 245.441406 509.566406 C 235.875 509.542969 228.097656 501.375 228.160156 491.355469 C 228.292969 470.101563 255.011719 454.730469 262.886719 437.945313 C 270.761719 454.730469 297.535156 470.101563 297.667969 491.355469 C 297.730469 501.375 289.953125 509.542969 280.386719 509.566406 C 270.824219 509.585938 262.914063 501.453125 262.886719 491.410156 C 262.859375 501.453125 255.003906 509.585938 245.441406 509.566406 Z M 245.441406 509.566406 "/>
</g>
</svg>
