<?xml version="1.0" encoding="UTF-8"?>
<svg xmlns="http://www.w3.org/2000/svg" xmlns:xlink="http://www.w3.org/1999/xlink" width="371pt" height="540pt" viewBox="0 0 371 540" version="1.1">
<g id="surface1">
<path style="fill-rule:nonzero;fill:rgb(100%,100%,100%);fill-opacity:1;stroke-width:0.5;stroke-linecap:butt;stroke-linejoin:miter;stroke:rgb(0%,0%,0%);stroke-opacity:1;stroke-miterlimit:4;" d="M 166.836617 235.89229 C 166.836617 239.68485 163.750894 242.783692 159.966749 242.783692 L 7.110884 242.783692 C 3.335536 242.783692 0.249813 239.68485 0.249813 235.89229 L 0.249813 6.77519 C 0.249813 2.987912 3.335536 -0.116212 7.110884 -0.116212 L 159.966749 -0.116212 C 163.750894 -0.116212 166.836617 2.987912 166.836617 6.77519 Z M 166.836617 235.89229 " transform="matrix(2.220408,0,0,2.218571,0,0.812511)"/>
<path style=" stroke:none;fill-rule:nonzero;fill:rgb(0%,0%,0%);fill-opacity:1;" d="M 39.21875 36.851563 C 40.652344 37.371094 41.742188 38.542969 42.488281 40.367188 C 43.230469 42.191406 43.605469 44.582031 43.605469 47.535156 C 43.605469 51.222656 42.980469 54.050781 41.738281 56.019531 C 40.492188 57.988281 38.699219 58.972656 36.351563 58.972656 C 34.007813 58.972656 32.214844 57.988281 30.96875 56.019531 C 29.722656 54.050781 29.101563 51.222656 29.101563 47.535156 C 29.101563 44.582031 29.472656 42.191406 30.210938 40.367188 C 30.949219 38.542969 32.019531 37.371094 33.425781 36.851563 C 32.191406 36.207031 31.269531 35.132813 30.652344 33.625 C 30.035156 32.117188 29.726563 30.203125 29.726563 27.882813 C 29.726563 24.492188 30.292969 21.90625 31.421875 20.121094 C 32.554688 18.335938 34.199219 17.441406 36.351563 17.441406 C 38.492188 17.441406 40.128906 18.335938 41.269531 20.121094 C 42.410156 21.90625 42.980469 24.492188 42.980469 27.882813 C 42.980469 30.203125 42.667969 32.117188 42.046875 33.625 C 41.421875 35.132813 40.480469 36.207031 39.21875 36.851563 Z M 38.816406 47.085938 C 38.816406 43.804688 38.632813 41.542969 38.261719 40.304688 C 37.894531 39.070313 37.25 38.449219 36.332031 38.449219 C 35.414063 38.449219 34.765625 39.070313 34.386719 40.304688 C 34.007813 41.542969 33.820313 43.804688 33.820313 47.085938 C 33.820313 50.402344 34.007813 52.691406 34.386719 53.957031 C 34.765625 55.21875 35.414063 55.851563 36.332031 55.851563 C 37.230469 55.851563 37.871094 55.21875 38.25 53.957031 C 38.628906 52.691406 38.816406 50.402344 38.816406 47.085938 Z M 38.332031 27.988281 C 38.332031 25.164063 38.179688 23.222656 37.882813 22.15625 C 37.582031 21.09375 37.074219 20.5625 36.351563 20.5625 C 35.613281 20.5625 35.101563 21.09375 34.8125 22.15625 C 34.519531 23.222656 34.375 25.164063 34.375 27.988281 C 34.375 30.792969 34.519531 32.71875 34.8125 33.761719 C 35.101563 34.808594 35.613281 35.332031 36.351563 35.332031 C 37.074219 35.332031 37.582031 34.808594 37.882813 33.761719 C 38.179688 32.71875 38.332031 30.792969 38.332031 27.988281 Z M 38.332031 27.988281 "/>
<path style=" stroke:none;fill-rule:nonzero;fill:rgb(0%,0%,0%);fill-opacity:1;" d="M 331.785156 503.152344 C 330.347656 502.632813 329.257813 501.457031 328.515625 499.632813 C 327.769531 497.808594 327.394531 495.417969 327.394531 492.464844 C 327.394531 488.777344 328.019531 485.949219 329.261719 483.984375 C 330.507813 482.011719 332.300781 481.027344 334.648438 481.027344 C 336.992188 481.027344 338.789063 482.011719 340.03125 483.984375 C 341.277344 485.949219 341.898438 488.777344 341.898438 492.464844 C 341.898438 495.417969 341.527344 497.808594 340.792969 499.632813 C 340.050781 501.457031 338.980469 502.632813 337.574219 503.152344 C 338.808594 503.792969 339.734375 504.867188 340.347656 506.375 C 340.964844 507.886719 341.273438 509.796875 341.273438 512.117188 C 341.273438 515.507813 340.710938 518.097656 339.578125 519.882813 C 338.445313 521.664063 336.800781 522.558594 334.648438 522.558594 C 332.507813 522.558594 330.871094 521.664063 329.730469 519.882813 C 328.589844 518.097656 328.019531 515.507813 328.019531 512.117188 C 328.019531 509.796875 328.332031 507.886719 328.953125 506.375 C 329.578125 504.867188 330.519531 503.792969 331.785156 503.152344 Z M 332.183594 492.917969 C 332.183594 496.199219 332.371094 498.457031 332.738281 499.695313 C 333.105469 500.933594 333.75 501.550781 334.667969 501.550781 C 335.585938 501.550781 336.234375 500.933594 336.609375 499.695313 C 336.992188 498.457031 337.179688 496.199219 337.179688 492.917969 C 337.179688 489.597656 336.992188 487.308594 336.609375 486.046875 C 336.234375 484.78125 335.585938 484.148438 334.667969 484.148438 C 333.769531 484.148438 333.128906 484.78125 332.75 486.046875 C 332.375 487.308594 332.183594 489.597656 332.183594 492.917969 Z M 332.667969 512.015625 C 332.667969 514.835938 332.820313 516.78125 333.117188 517.84375 C 333.417969 518.90625 333.925781 519.4375 334.648438 519.4375 C 335.382813 519.4375 335.898438 518.90625 336.191406 517.84375 C 336.480469 516.78125 336.625 514.835938 336.625 512.015625 C 336.625 509.207031 336.480469 507.28125 336.191406 506.238281 C 335.898438 505.195313 335.382813 504.667969 334.648438 504.667969 C 333.925781 504.667969 333.417969 505.195313 333.117188 506.238281 C 332.820313 507.28125 332.667969 509.207031 332.667969 512.015625 Z M 332.667969 512.015625 "/>
<path style=" stroke:none;fill-rule:nonzero;fill:rgb(0%,0%,0%);fill-opacity:1;" d="M 105.996094 29.523438 C 98.925781 42.238281 74.828125 53.886719 74.78125 69.957031 C 74.761719 77.542969 81.769531 83.65625 90.390625 83.65625 C 95.882813 83.65625 100.761719 81.191406 103.542969 77.417969 C 102.382813 88.34375 99.265625 100.554688 87.882813 102.871094 L 124.113281 102.871094 C 112.730469 100.554688 109.613281 88.34375 108.449219 77.417969 C 111.230469 81.191406 116.113281 83.65625 121.605469 83.65625 C 130.226563 83.65625 137.234375 77.542969 137.210938 69.957031 C 137.164063 53.886719 113.066406 42.238281 105.996094 29.523438 Z M 105.996094 29.523438 "/>
<path style=" stroke:none;fill-rule:nonzero;fill:rgb(0%,0%,0%);fill-opacity:1;" d="M 36.351563 65.867188 C 34.226563 69.6875 26.992188 73.1875 26.972656 78.019531 C 26.972656 80.300781 29.070313 82.136719 31.664063 82.136719 C 33.3125 82.136719 34.78125 81.398438 35.617188 80.261719 C 35.265625 83.546875 34.328125 87.214844 30.910156 87.914063 L 41.796875 87.914063 C 38.378906 87.214844 37.441406 83.546875 37.089844 80.261719 C 37.925781 81.398438 39.394531 82.136719 41.042969 82.136719 C 43.636719 82.136719 45.734375 80.300781 45.734375 78.019531 C 45.714844 73.1875 38.480469 69.6875 36.351563 65.867188 Z M 36.351563 65.867188 "/>
<path style=" stroke:none;fill-rule:nonzero;fill:rgb(0%,0%,0%);fill-opacity:1;" d="M 334.648438 473.457031 C 332.519531 469.636719 325.285156 466.132813 325.265625 461.304688 C 325.265625 459.023438 327.363281 457.183594 329.957031 457.183594 C 331.605469 457.183594 333.074219 457.925781 333.910156 459.058594 C 333.558594 455.777344 332.621094 452.105469 329.203125 451.410156 L 340.089844 451.410156 C 336.671875 452.105469 335.734375 455.777344 335.382813 459.058594 C 336.21875 457.925781 337.6875 457.183594 339.335938 457.183594 C 341.929688 457.183594 344.027344 459.023438 344.027344 461.304688 C 344.007813 466.132813 336.773438 469.636719 334.648438 473.457031 Z M 334.648438 473.457031 "/>
<path style=" stroke:none;fill-rule:nonzero;fill:rgb(0%,0%,0%);fill-opacity:1;" d="M 262.914063 510.429688 C 255.84375 497.710938 231.746094 486.0625 231.699219 469.996094 C 231.679688 462.40625 238.6875 456.292969 247.308594 456.292969 C 252.800781 456.292969 257.679688 458.757813 260.460938 462.53125 C 259.300781 451.605469 256.183594 439.398438 244.800781 437.082031 L 281.03125 437.082031 C 269.644531 439.398438 266.527344 451.605469 265.367188 462.53125 C 268.148438 458.757813 273.027344 456.292969 278.519531 456.292969 C 287.140625 456.292969 294.148438 462.40625 294.128906 469.996094 C 294.082031 486.0625 269.984375 497.710938 262.914063 510.429688 Z M 262.914063 510.429688 "/>
<path style=" stroke:none;fill-rule:nonzero;fill:rgb(0%,0%,0%);fill-opacity:1;" d="M 105.996094 510.429688 C 98.925781 497.710938 74.828125 486.0625 74.78125 469.996094 C 74.761719 462.40625 81.769531 456.292969 90.390625 456.292969 C 95.882813 456.292969 100.761719 458.757813 103.542969 462.53125 C 102.382813 451.605469 99.265625 439.398438 87.882813 437.082031 L 124.113281 437.082031 C 112.730469 439.398438 109.613281 451.605469 108.449219 462.53125 C 111.230469 458.757813 116.113281 456.292969 121.605469 456.292969 C 130.226563 456.292969 137.234375 462.40625 137.210938 469.996094 C 137.164063 486.0625 113.066406 497.710938 105.996094 510.429688 Z M 105.996094 510.429688 "/>
<path style=" stroke:none;fill-rule:nonzero;fill:rgb(0%,0%,0%);fill-opacity:1;" d="M 185.5 408.550781 C 178.429688 395.835938 154.332031 384.1875 154.285156 368.117188 C 154.265625 360.53125 161.273438 354.417969 169.894531 354.417969 C 175.386719 354.417969 180.265625 356.878906 183.046875 360.65625 C 181.886719 349.730469 178.769531 337.519531 167.386719 335.203125 L 203.613281 335.203125 C 192.230469 337.519531 189.113281 349.730469 187.953125 360.65625 C 190.734375 356.878906 195.613281 354.417969 201.105469 354.417969 C 209.726563 354.417969 216.734375 360.53125 216.714844 368.117188 C 216.667969 384.1875 192.570313 395.835938 185.5 408.550781 Z M 185.5 408.550781 "/>
<path style=" stroke:none;fill-rule:nonzero;fill:rgb(0%,0%,0%);fill-opacity:1;" d="M 262.914063 29.523438 C 255.84375 42.238281 231.746094 53.886719 231.699219 69.957031 C 231.679688 77.542969 238.6875 83.65625 247.308594 83.65625 C 252.800781 83.65625 257.679688 81.191406 260.460938 77.417969 C 259.300781 88.34375 256.183594 100.554688 244.800781 102.871094 L 281.03125 102.871094 C 269.644531 100.554688 266.527344 88.34375 265.367188 77.417969 C 268.148438 81.191406 273.027344 83.65625 278.519531 83.65625 C 287.140625 83.65625 294.148438 77.542969 294.128906 69.957031 C 294.082031 53.886719 269.984375 42.238281 262.914063 29.523438 Z M 262.914063 29.523438 "/>
<path style=" stroke:none;fill-rule:nonzero;fill:rgb(0%,0%,0%);fill-opacity:1;" d="M 185.5 131.425781 C 178.429688 144.140625 154.332031 155.789063 154.285156 171.855469 C 154.265625 179.445313 161.273438 185.558594 169.894531 185.558594 C 175.386719 185.558594 180.265625 183.09375 183.046875 179.320313 C 181.886719 190.246094 178.769531 202.457031 167.386719 204.773438 L 203.617188 204.773438 C 192.230469 202.457031 189.113281 190.246094 187.953125 179.320313 C 190.734375 183.09375 195.613281 185.558594 201.105469 185.558594 C 209.726563 185.558594 216.734375 179.445313 216.714844 171.855469 C 216.667969 155.789063 192.570313 144.140625 185.5 131.425781 Z M 185.5 131.425781 "/>
<path style=" stroke:none;fill-rule:nonzero;fill:rgb(0%,0%,0%);fill-opacity:1;" d="M 105.996094 233.324219 C 98.925781 246.042969 74.828125 257.691406 74.78125 273.757813 C 74.761719 281.347656 81.769531 287.460938 90.390625 287.460938 C 95.882813 287.460938 100.761719 284.996094 103.542969 281.222656 C 102.382813 292.148438 99.265625 304.355469 87.882813 306.675781 L 124.113281 306.675781 C 112.730469 304.355469 109.613281 292.148438 108.449219 281.222656 C 111.230469 284.996094 116.113281 287.460938 121.605469 287.460938 C 130.226563 287.460938 137.234375 281.347656 137.210938 273.757813 C 137.164063 257.691406 113.066406 246.042969 105.996094 233.324219 Z M 105.996094 233.324219 "/>
<path style=" stroke:none;fill-rule:nonzero;fill:rgb(0%,0%,0%);fill-opacity:1;" d="M 262.914063 233.324219 C 255.84375 246.042969 231.746094 257.691406 231.699219 273.757813 C 231.679688 281.347656 238.6875 287.460938 247.308594 287.460938 C 252.800781 287.460938 257.679688 284.996094 260.460938 281.222656 C 259.300781 292.148438 256.183594 304.355469 244.800781 306.675781 L 281.03125 306.675781 C 269.644531 304.355469 266.527344 292.148438 265.367188 281.222656 C 268.148438 284.996094 273.027344 287.460938 278.519531 287.460938 C 287.140625 287.460938 294.148438 281.347656 294.128906 273.757813 C 294.082031 257.691406 269.984375 246.042969 262.914063 233.324219 Z M 262.914063 233.324219 "/>
</g>
</svg>
