<?xml version="1.0" encoding="UTF-8"?>
<svg xmlns="http://www.w3.org/2000/svg" xmlns:xlink="http://www.w3.org/1999/xlink" width="371pt" height="540pt" viewBox="0 0 371 540" version="1.1">
<g id="surface1">
<path style="fill-rule:nonzero;fill:rgb(100%,100%,100%);fill-opacity:1;stroke-width:0.5;stroke-linecap:butt;stroke-linejoin:miter;stroke:rgb(0%,0%,0%);stroke-opacity:1;stroke-miterlimit:4;" d="M 166.836617 235.89229 C 166.836617 239.68485 163.750894 242.783692 159.966749 242.783692 L 7.110884 242.783692 C 3.335536 242.783692 0.249813 239.68485 0.249813 235.89229 L 0.249813 6.77519 C 0.249813 2.987912 3.335536 -0.116212 7.110884 -0.116212 L 159.966749 -0.116212 C 163.750894 -0.116212 166.836617 2.987912 166.836617 6.77519 Z M 166.836617 235.89229 " transform="matrix(2.220408,0,0,2.218571,0,0.812511)"/>
<path style=" stroke:none;fill-rule:nonzero;fill:rgb(0%,0%,0%);fill-opacity:1;" d="M 38.957031 41.917969 C 38.417969 42.867188 37.828125 43.578125 37.183594 44.050781 C 36.539063 44.523438 35.839844 44.757813 35.089844 44.757813 C 33.285156 44.757813 31.859375 43.566406 30.8125 41.175781 C 29.765625 38.789063 29.242188 35.492188 29.242188 31.289063 C 29.242188 26.851563 29.824219 23.4375 30.988281 21.039063 C 32.152344 18.640625 33.820313 17.441406 35.992188 17.441406 C 38.445313 17.441406 40.304688 19.097656 41.570313 22.402344 C 42.835938 25.710938 43.464844 30.554688 43.464844 36.933594 C 43.464844 44.210938 42.765625 49.703125 41.363281 53.410156 C 39.964844 57.117188 37.882813 58.972656 35.121094 58.972656 C 34.402344 58.972656 33.632813 58.839844 32.808594 58.574219 C 31.980469 58.308594 31.09375 57.910156 30.144531 57.378906 L 30.144531 50.304688 L 31.601563 50.304688 C 31.816406 52.128906 32.199219 53.507813 32.753906 54.445313 C 33.308594 55.382813 34.023438 55.851563 34.902344 55.851563 C 36.316406 55.851563 37.339844 54.757813 37.976563 52.570313 C 38.609375 50.382813 38.9375 46.832031 38.957031 41.917969 Z M 36.285156 20.5625 C 35.445313 20.5625 34.847656 21.347656 34.492188 22.914063 C 34.136719 24.480469 33.960938 27.199219 33.960938 31.066406 C 33.960938 34.933594 34.136719 37.652344 34.492188 39.21875 C 34.847656 40.785156 35.445313 41.570313 36.285156 41.570313 C 37.125 41.570313 37.71875 40.785156 38.074219 39.21875 C 38.429688 37.652344 38.609375 34.933594 38.609375 31.066406 C 38.609375 27.199219 38.429688 24.480469 38.074219 22.914063 C 37.71875 21.347656 37.125 20.5625 36.285156 20.5625 Z M 36.285156 20.5625 "/>
<path style=" stroke:none;fill-rule:nonzero;fill:rgb(0%,0%,0%);fill-opacity:1;" d="M 332.042969 498.082031 C 332.582031 497.132813 333.171875 496.421875 333.816406 495.953125 C 334.460938 495.480469 335.160156 495.242188 335.910156 495.242188 C 337.71875 495.242188 339.144531 496.4375 340.1875 498.824219 C 341.238281 501.210938 341.757813 504.507813 341.757813 508.710938 C 341.757813 513.148438 341.175781 516.5625 340.011719 518.960938 C 338.847656 521.359375 337.179688 522.558594 335.011719 522.558594 C 332.554688 522.558594 330.695313 520.902344 329.429688 517.597656 C 328.167969 514.289063 327.535156 509.445313 327.535156 503.066406 C 327.535156 495.792969 328.238281 490.300781 329.632813 486.589844 C 331.035156 482.882813 333.117188 481.027344 335.878906 481.027344 C 336.597656 481.027344 337.367188 481.164063 338.195313 481.425781 C 339.019531 481.695313 339.90625 482.09375 340.855469 482.621094 L 340.855469 489.695313 L 339.398438 489.695313 C 339.1875 487.875 338.800781 486.492188 338.246094 485.554688 C 337.691406 484.617188 336.976563 484.148438 336.097656 484.148438 C 334.6875 484.148438 333.660156 485.246094 333.023438 487.433594 C 332.390625 489.621094 332.0625 493.167969 332.042969 498.082031 Z M 334.714844 519.4375 C 335.558594 519.4375 336.152344 518.652344 336.507813 517.089844 C 336.863281 515.519531 337.039063 512.804688 337.039063 508.933594 C 337.039063 505.066406 336.863281 502.347656 336.507813 500.78125 C 336.152344 499.214844 335.558594 498.429688 334.714844 498.429688 C 333.878906 498.429688 333.28125 499.214844 332.925781 500.78125 C 332.570313 502.347656 332.390625 505.066406 332.390625 508.933594 C 332.390625 512.804688 332.570313 515.519531 332.925781 517.089844 C 333.28125 518.652344 333.878906 519.4375 334.714844 519.4375 Z M 334.714844 519.4375 "/>
<path style=" stroke:none;fill-rule:nonzero;fill:rgb(0%,0%,0%);fill-opacity:1;" d="M 334.695313 473.457031 C 337.230469 473.457031 339.285156 471.402344 339.285156 468.871094 C 339.285156 467.5625 338.730469 466.386719 337.851563 465.550781 C 337.171875 464.90625 336.203125 463.441406 335.882813 462.265625 C 336.511719 462.644531 337.078125 463.078125 337.417969 463.433594 C 338.253906 464.3125 339.429688 464.851563 340.738281 464.851563 C 343.273438 464.851563 345.328125 462.796875 345.328125 460.265625 C 345.328125 457.730469 343.273438 455.679688 340.738281 455.679688 C 339.429688 455.679688 338.253906 456.234375 337.417969 457.113281 C 337.058594 457.488281 336.453125 457.964844 335.78125 458.363281 C 335.875 454.15625 337.320313 451.410156 339.953125 451.410156 C 339.953125 451.410156 329.421875 451.410156 329.421875 451.410156 C 332.0625 451.410156 333.523438 454.171875 333.613281 458.398438 C 332.90625 457.992188 332.25 457.503906 331.875 457.113281 C 331.039063 456.234375 329.863281 455.679688 328.554688 455.679688 C 326.019531 455.679688 323.964844 457.730469 323.964844 460.265625 C 323.964844 462.796875 326.019531 464.851563 328.554688 464.851563 C 329.863281 464.851563 331.039063 464.3125 331.875 463.433594 C 332.230469 463.0625 332.847656 462.621094 333.511719 462.234375 C 333.199219 463.414063 332.210938 464.898438 331.523438 465.550781 C 330.644531 466.386719 330.105469 467.5625 330.105469 468.871094 C 330.105469 471.402344 332.160156 473.457031 334.695313 473.457031 Z M 334.695313 473.457031 "/>
<path style=" stroke:none;fill-rule:nonzero;fill:rgb(0%,0%,0%);fill-opacity:1;" d="M 36.304688 65.867188 C 33.769531 65.867188 31.714844 67.917969 31.714844 70.453125 C 31.714844 71.757813 32.269531 72.933594 33.148438 73.769531 C 33.828125 74.417969 34.796875 75.882813 35.117188 77.054688 C 34.488281 76.675781 33.921875 76.246094 33.582031 75.886719 C 32.746094 75.011719 31.570313 74.472656 30.261719 74.472656 C 27.726563 74.472656 25.671875 76.523438 25.671875 79.058594 C 25.671875 81.589844 27.726563 83.644531 30.261719 83.644531 C 31.570313 83.644531 32.746094 83.085938 33.582031 82.210938 C 33.941406 81.832031 34.546875 81.355469 35.21875 80.957031 C 35.125 85.164063 33.679688 87.914063 31.046875 87.914063 C 31.046875 87.914063 41.578125 87.914063 41.578125 87.914063 C 38.9375 87.914063 37.476563 85.148438 37.386719 80.925781 C 38.09375 81.328125 38.75 81.816406 39.125 82.210938 C 39.960938 83.085938 41.136719 83.644531 42.445313 83.644531 C 44.980469 83.644531 47.035156 81.589844 47.035156 79.058594 C 47.035156 76.523438 44.980469 74.472656 42.445313 74.472656 C 41.136719 74.472656 39.960938 75.011719 39.125 75.886719 C 38.769531 76.261719 38.152344 76.703125 37.488281 77.089844 C 37.800781 75.910156 38.789063 74.421875 39.476563 73.769531 C 40.355469 72.933594 40.894531 71.757813 40.894531 70.453125 C 40.894531 67.917969 38.839844 65.867188 36.304688 65.867188 Z M 36.304688 65.867188 "/>
<path style=" stroke:none;fill-rule:nonzero;fill:rgb(0%,0%,0%);fill-opacity:1;" d="M 105.832031 510.417969 C 97.398438 510.417969 90.566406 503.589844 90.566406 495.164063 C 90.566406 490.816406 92.414063 486.90625 95.339844 484.125 C 97.597656 481.976563 100.816406 477.105469 101.890625 473.199219 C 99.796875 474.460938 97.914063 475.894531 96.78125 477.082031 C 94 480.003906 90.089844 481.796875 85.734375 481.796875 C 77.304688 481.796875 70.46875 474.96875 70.46875 466.542969 C 70.46875 458.117188 77.304688 451.292969 85.734375 451.292969 C 90.089844 451.292969 94 453.140625 96.78125 456.0625 C 97.976563 457.3125 99.992188 458.898438 102.222656 460.222656 C 101.910156 446.234375 97.105469 437.09375 88.34375 437.09375 C 88.34375 437.09375 123.371094 437.09375 123.371094 437.09375 C 114.589844 437.09375 109.726563 446.28125 109.4375 460.332031 C 111.789063 458.984375 113.972656 457.363281 115.210938 456.0625 C 117.996094 453.140625 121.90625 451.292969 126.257813 451.292969 C 134.691406 451.292969 141.523438 458.117188 141.523438 466.542969 C 141.523438 474.96875 134.691406 481.796875 126.257813 481.796875 C 121.90625 481.796875 117.996094 480.003906 115.210938 477.082031 C 114.03125 475.84375 111.984375 474.378906 109.773438 473.089844 C 110.808594 477.015625 114.09375 481.957031 116.378906 484.125 C 119.300781 486.90625 121.097656 490.816406 121.097656 495.164063 C 121.097656 503.589844 114.261719 510.417969 105.832031 510.417969 Z M 105.832031 510.417969 "/>
<path style=" stroke:none;fill-rule:nonzero;fill:rgb(0%,0%,0%);fill-opacity:1;" d="M 262.746094 29.535156 C 254.316406 29.535156 247.480469 36.359375 247.480469 44.785156 C 247.480469 49.136719 249.332031 53.042969 252.257813 55.824219 C 254.515625 57.972656 257.734375 62.84375 258.804688 66.75 C 256.714844 65.492188 254.832031 64.054688 253.699219 62.867188 C 250.917969 59.945313 247.003906 58.152344 242.652344 58.152344 C 234.21875 58.152344 227.386719 64.980469 227.386719 73.40625 C 227.386719 81.832031 234.21875 88.660156 242.652344 88.660156 C 247.003906 88.660156 250.917969 86.8125 253.699219 83.890625 C 254.894531 82.636719 256.910156 81.050781 259.140625 79.730469 C 258.828125 93.71875 254.023438 102.859375 245.261719 102.859375 C 245.261719 102.859375 280.289063 102.859375 280.289063 102.859375 C 271.503906 102.859375 266.644531 93.671875 266.355469 79.617188 C 268.707031 80.964844 270.890625 82.589844 272.128906 83.890625 C 274.914063 86.8125 278.824219 88.660156 283.175781 88.660156 C 291.609375 88.660156 298.441406 81.832031 298.441406 73.40625 C 298.441406 64.980469 291.609375 58.152344 283.175781 58.152344 C 278.824219 58.152344 274.914063 59.945313 272.128906 62.867188 C 270.949219 64.105469 268.902344 65.574219 266.6875 66.863281 C 267.726563 62.9375 271.011719 57.996094 273.292969 55.824219 C 276.21875 53.042969 278.011719 49.136719 278.011719 44.785156 C 278.011719 36.359375 271.179688 29.535156 262.746094 29.535156 Z M 262.746094 29.535156 "/>
<path style=" stroke:none;fill-rule:nonzero;fill:rgb(0%,0%,0%);fill-opacity:1;" d="M 105.832031 29.535156 C 97.398438 29.535156 90.566406 36.359375 90.566406 44.785156 C 90.566406 49.136719 92.414063 53.042969 95.339844 55.824219 C 97.597656 57.972656 100.816406 62.84375 101.890625 66.75 C 99.796875 65.492188 97.914063 64.054688 96.78125 62.867188 C 94 59.945313 90.089844 58.152344 85.734375 58.152344 C 77.304688 58.152344 70.46875 64.980469 70.46875 73.40625 C 70.46875 81.832031 77.304688 88.660156 85.734375 88.660156 C 90.089844 88.660156 94 86.8125 96.78125 83.890625 C 97.976563 82.636719 99.992188 81.050781 102.222656 79.730469 C 101.910156 93.71875 97.105469 102.859375 88.34375 102.859375 C 88.34375 102.859375 123.371094 102.859375 123.371094 102.859375 C 114.589844 102.859375 109.726563 93.671875 109.4375 79.617188 C 111.789063 80.964844 113.972656 82.589844 115.210938 83.890625 C 117.996094 86.8125 121.90625 88.660156 126.257813 88.660156 C 134.691406 88.660156 141.523438 81.832031 141.523438 73.40625 C 141.523438 64.980469 134.691406 58.152344 126.257813 58.152344 C 121.90625 58.152344 117.996094 59.945313 115.210938 62.867188 C 114.03125 64.105469 111.984375 65.574219 109.773438 66.863281 C 110.808594 62.9375 114.09375 57.996094 116.378906 55.824219 C 119.300781 53.042969 121.097656 49.136719 121.097656 44.785156 C 121.097656 36.359375 114.261719 29.535156 105.832031 29.535156 Z M 105.832031 29.535156 "/>
<path style=" stroke:none;fill-rule:nonzero;fill:rgb(0%,0%,0%);fill-opacity:1;" d="M 105.832031 165.386719 C 97.398438 165.386719 90.566406 172.214844 90.566406 180.640625 C 90.566406 184.988281 92.414063 188.894531 95.339844 191.675781 C 97.597656 193.828125 100.816406 198.695313 101.890625 202.605469 C 99.796875 201.34375 97.914063 199.910156 96.78125 198.722656 C 94 195.800781 90.089844 194.007813 85.734375 194.007813 C 77.304688 194.007813 70.46875 200.832031 70.46875 209.257813 C 70.46875 217.683594 77.304688 224.511719 85.734375 224.511719 C 90.089844 224.511719 94 222.664063 96.78125 219.742188 C 97.976563 218.488281 99.992188 216.902344 102.222656 215.582031 C 101.910156 229.570313 97.105469 238.710938 88.34375 238.710938 C 88.34375 238.710938 123.371094 238.710938 123.371094 238.710938 C 114.589844 238.710938 109.726563 229.523438 109.4375 215.472656 C 111.789063 216.820313 113.972656 218.441406 115.210938 219.742188 C 117.996094 222.664063 121.90625 224.511719 126.257813 224.511719 C 134.691406 224.511719 141.523438 217.683594 141.523438 209.257813 C 141.523438 200.832031 134.691406 194.007813 126.257813 194.007813 C 121.90625 194.007813 117.996094 195.800781 115.210938 198.722656 C 114.03125 199.957031 111.984375 201.425781 109.773438 202.714844 C 110.808594 198.789063 114.09375 193.847656 116.378906 191.675781 C 119.300781 188.894531 121.097656 184.988281 121.097656 180.640625 C 121.097656 172.214844 114.261719 165.386719 105.832031 165.386719 Z M 105.832031 165.386719 "/>
<path style=" stroke:none;fill-rule:nonzero;fill:rgb(0%,0%,0%);fill-opacity:1;" d="M 262.746094 510.417969 C 254.316406 510.417969 247.480469 503.589844 247.480469 495.164063 C 247.480469 490.816406 249.332031 486.90625 252.257813 484.125 C 254.515625 481.976563 257.734375 477.105469 258.804688 473.199219 C 256.714844 474.460938 254.832031 475.894531 253.699219 477.082031 C 250.917969 480.003906 247.003906 481.796875 242.652344 481.796875 C 234.21875 481.796875 227.386719 474.96875 227.386719 466.542969 C 227.386719 458.117188 234.21875 451.292969 242.652344 451.292969 C 247.003906 451.292969 250.917969 453.140625 253.699219 456.0625 C 254.894531 457.3125 256.910156 458.898438 259.140625 460.222656 C 258.828125 446.234375 254.023438 437.09375 245.261719 437.09375 C 245.261719 437.09375 280.289063 437.09375 280.289063 437.09375 C 271.503906 437.09375 266.644531 446.28125 266.355469 460.332031 C 268.707031 458.984375 270.890625 457.363281 272.128906 456.0625 C 274.914063 453.140625 278.824219 451.292969 283.175781 451.292969 C 291.609375 451.292969 298.441406 458.117188 298.441406 466.542969 C 298.441406 474.96875 291.609375 481.796875 283.175781 481.796875 C 278.824219 481.796875 274.914063 480.003906 272.128906 477.082031 C 270.949219 475.84375 268.902344 474.378906 266.6875 473.089844 C 267.726563 477.015625 271.011719 481.957031 273.292969 484.125 C 276.21875 486.90625 278.011719 490.816406 278.011719 495.164063 C 278.011719 503.589844 271.179688 510.417969 262.746094 510.417969 Z M 262.746094 510.417969 "/>
<path style=" stroke:none;fill-rule:nonzero;fill:rgb(0%,0%,0%);fill-opacity:1;" d="M 262.746094 165.386719 C 254.316406 165.386719 247.480469 172.214844 247.480469 180.640625 C 247.480469 184.988281 249.332031 188.894531 252.257813 191.675781 C 254.515625 193.824219 257.734375 198.695313 258.804688 202.605469 C 256.714844 201.34375 254.832031 199.910156 253.699219 198.722656 C 250.917969 195.800781 247.003906 194.007813 242.652344 194.007813 C 234.21875 194.007813 227.386719 200.832031 227.386719 209.257813 C 227.386719 217.683594 234.21875 224.511719 242.652344 224.511719 C 247.003906 224.511719 250.917969 222.664063 253.699219 219.742188 C 254.894531 218.488281 256.910156 216.902344 259.140625 215.582031 C 258.828125 229.570313 254.023438 238.710938 245.261719 238.710938 C 245.261719 238.710938 280.289063 238.710938 280.289063 238.710938 C 271.503906 238.710938 266.644531 229.523438 266.355469 215.472656 C 268.707031 216.820313 270.890625 218.441406 272.128906 219.742188 C 274.914063 222.664063 278.824219 224.511719 283.175781 224.511719 C 291.609375 224.511719 298.441406 217.683594 298.441406 209.257813 C 298.441406 200.832031 291.609375 194.007813 283.175781 194.007813 C 278.824219 194.007813 274.914063 195.800781 272.128906 198.722656 C 270.949219 199.957031 268.902344 201.425781 266.6875 202.714844 C 267.726563 198.789063 271.011719 193.847656 273.292969 191.675781 C 276.21875 188.894531 278.011719 184.988281 278.011719 180.640625 C 278.011719 172.214844 271.179688 165.386719 262.746094 165.386719 Z M 262.746094 165.386719 "/>
<path style=" stroke:none;fill-rule:nonzero;fill:rgb(0%,0%,0%);fill-opacity:1;" d="M 260.078125 374.5625 C 251.644531 374.5625 244.8125 367.738281 244.8125 359.3125 C 244.8125 354.960938 246.664063 351.054688 249.585938 348.273438 C 251.847656 346.125 255.066406 341.253906 256.136719 337.347656 C 254.046875 338.605469 252.164063 340.042969 251.03125 341.230469 C 248.246094 344.152344 244.335938 345.945313 239.984375 345.945313 C 231.550781 345.945313 224.71875 339.117188 224.71875 330.691406 C 224.71875 322.265625 231.550781 315.4375 239.984375 315.4375 C 244.335938 315.4375 248.246094 317.289063 251.03125 320.207031 C 252.222656 321.460938 254.242188 323.046875 256.46875 324.367188 C 256.15625 310.378906 251.351563 301.238281 242.59375 301.238281 C 242.59375 301.238281 277.621094 301.238281 277.621094 301.238281 C 268.835938 301.238281 263.976563 310.429688 263.6875 324.480469 C 266.035156 323.132813 268.21875 321.507813 269.460938 320.207031 C 272.242188 317.289063 276.152344 315.4375 280.507813 315.4375 C 288.9375 315.4375 295.773438 322.265625 295.773438 330.691406 C 295.773438 339.117188 288.9375 345.945313 280.507813 345.945313 C 276.152344 345.945313 272.242188 344.152344 269.460938 341.230469 C 268.28125 339.992188 266.234375 338.527344 264.019531 337.234375 C 265.058594 341.160156 268.34375 346.101563 270.625 348.273438 C 273.550781 351.054688 275.34375 354.960938 275.34375 359.3125 C 275.34375 367.738281 268.511719 374.5625 260.078125 374.5625 Z M 260.078125 374.5625 "/>
<path style=" stroke:none;fill-rule:nonzero;fill:rgb(0%,0%,0%);fill-opacity:1;" d="M 105.832031 374.5625 C 97.398438 374.5625 90.566406 367.738281 90.566406 359.3125 C 90.566406 354.960938 92.414063 351.054688 95.339844 348.273438 C 97.597656 346.125 100.816406 341.253906 101.890625 337.347656 C 99.796875 338.605469 97.914063 340.042969 96.78125 341.230469 C 94 344.152344 90.089844 345.945313 85.734375 345.945313 C 77.304688 345.945313 70.46875 339.117188 70.46875 330.691406 C 70.46875 322.265625 77.304688 315.4375 85.734375 315.4375 C 90.089844 315.4375 94 317.289063 96.78125 320.207031 C 97.976563 321.460938 99.992188 323.046875 102.222656 324.367188 C 101.910156 310.378906 97.105469 301.238281 88.34375 301.238281 C 88.34375 301.238281 123.371094 301.238281 123.371094 301.238281 C 114.589844 301.238281 109.726563 310.429688 109.4375 324.480469 C 111.789063 323.132813 113.972656 321.507813 115.210938 320.207031 C 117.996094 317.289063 121.90625 315.4375 126.257813 315.4375 C 134.691406 315.4375 141.523438 322.265625 141.523438 330.691406 C 141.523438 339.117188 134.691406 345.945313 126.257813 345.945313 C 121.90625 345.945313 117.996094 344.152344 115.210938 341.230469 C 114.03125 339.992188 111.984375 338.527344 109.773438 337.234375 C 110.808594 341.160156 114.09375 346.101563 116.378906 348.273438 C 119.300781 351.054688 121.097656 354.960938 121.097656 359.3125 C 121.097656 367.738281 114.261719 374.5625 105.832031 374.5625 Z M 105.832031 374.5625 "/>
<path style=" stroke:none;fill-rule:nonzero;fill:rgb(0%,0%,0%);fill-opacity:1;" d="M 185.332031 233.339844 C 176.902344 233.339844 170.066406 240.164063 170.066406 248.589844 C 170.066406 252.941406 171.917969 256.847656 174.84375 259.628906 C 177.101563 261.777344 180.320313 266.648438 181.390625 270.554688 C 179.300781 269.296875 177.417969 267.859375 176.285156 266.671875 C 173.503906 263.75 169.589844 261.957031 165.238281 261.957031 C 156.804688 261.957031 149.972656 268.785156 149.972656 277.210938 C 149.972656 285.636719 156.804688 292.464844 165.238281 292.464844 C 169.589844 292.464844 173.503906 290.613281 176.285156 287.691406 C 177.480469 286.441406 179.496094 284.855469 181.726563 283.535156 C 181.414063 297.523438 176.609375 306.660156 167.847656 306.660156 C 167.847656 306.660156 202.875 306.660156 202.875 306.660156 C 194.089844 306.660156 189.230469 297.472656 188.941406 283.421875 C 191.292969 284.769531 193.476563 286.390625 194.714844 287.691406 C 197.496094 290.613281 201.410156 292.464844 205.761719 292.464844 C 214.195313 292.464844 221.027344 285.636719 221.027344 277.210938 C 221.027344 268.785156 214.195313 261.957031 205.761719 261.957031 C 201.410156 261.957031 197.496094 263.75 194.714844 266.671875 C 193.535156 267.910156 191.488281 269.375 189.273438 270.664063 C 190.3125 266.738281 193.597656 261.796875 195.878906 259.628906 C 198.804688 256.847656 200.597656 252.941406 200.597656 248.589844 C 200.597656 240.164063 193.765625 233.339844 185.332031 233.339844 Z M 185.332031 233.339844 "/>
</g>
</svg>
