<?xml version="1.0" encoding="UTF-8"?>
<svg xmlns="http://www.w3.org/2000/svg" xmlns:xlink="http://www.w3.org/1999/xlink" width="371pt" height="540pt" viewBox="0 0 371 540" version="1.1">
<g id="surface1">
<path style="fill-rule:nonzero;fill:rgb(100%,100%,100%);fill-opacity:1;stroke-width:0.5;stroke-linecap:butt;stroke-linejoin:miter;stroke:rgb(0%,0%,0%);stroke-opacity:1;stroke-miterlimit:4;" d="M 166.836617 235.89229 C 166.836617 239.68485 163.750894 242.783692 159.966749 242.783692 L 7.110884 242.783692 C 3.335536 242.783692 0.249813 239.68485 0.249813 235.89229 L 0.249813 6.77519 C 0.249813 2.987912 3.335536 -0.116212 7.110884 -0.116212 L 159.966749 -0.116212 C 163.750894 -0.116212 166.836617 2.987912 166.836617 6.77519 Z M 166.836617 235.89229 " transform="matrix(2.220408,0,0,2.218571,0,0.812511)"/>
<path style=" stroke:none;fill-rule:nonzero;fill:rgb(90.196078%,7.843137%,3.137255%);fill-opacity:1;" d="M 38.957031 41.917969 C 38.417969 42.867188 37.828125 43.578125 37.183594 44.050781 C 36.539063 44.523438 35.839844 44.757813 35.089844 44.757813 C 33.285156 44.757813 31.859375 43.566406 30.8125 41.175781 C 29.765625 38.789063 29.242188 35.492188 29.242188 31.289063 C 29.242188 26.851563 29.824219 23.4375 30.988281 21.039063 C 32.152344 18.640625 33.820313 17.441406 35.992188 17.441406 C 38.445313 17.441406 40.304688 19.097656 41.570313 22.402344 C 42.835938 25.710938 43.464844 30.554688 43.464844 36.933594 C 43.464844 44.210938 42.765625 49.703125 41.363281 53.410156 C 39.964844 57.117188 37.882813 58.972656 35.121094 58.972656 C 34.402344 58.972656 33.632813 58.839844 32.808594 58.574219 C 31.980469 58.308594 31.09375 57.910156 30.144531 57.378906 L 30.144531 50.304688 L 31.601563 50.304688 C 31.816406 52.128906 32.199219 53.507813 32.753906 54.445313 C 33.308594 55.382813 34.023438 55.851563 34.902344 55.851563 C 36.316406 55.851563 37.339844 54.757813 37.976563 52.570313 C 38.609375 50.382813 38.9375 46.832031 38.957031 41.917969 Z M 36.285156 20.5625 C 35.445313 20.5625 34.847656 21.347656 34.492188 22.914063 C 34.136719 24.480469 33.960938 27.199219 33.960938 31.066406 C 33.960938 34.933594 34.136719 37.652344 34.492188 39.21875 C 34.847656 40.785156 35.445313 41.570313 36.285156 41.570313 C 37.125 41.570313 37.71875 40.785156 38.074219 39.21875 C 38.429688 37.652344 38.609375 34.933594 38.609375 31.066406 C 38.609375 27.199219 38.429688 24.480469 38.074219 22.914063 C 37.71875 21.347656 37.125 20.5625 36.285156 20.5625 Z M 36.285156 20.5625 "/>
<path style=" stroke:none;fill-rule:nonzero;fill:rgb(90.196078%,7.843137%,3.137255%);fill-opacity:1;" d="M 332.042969 498.082031 C 332.582031 497.132813 333.171875 496.421875 333.816406 495.953125 C 334.460938 495.480469 335.160156 495.242188 335.910156 495.242188 C 337.71875 495.242188 339.144531 496.4375 340.1875 498.824219 C 341.238281 501.210938 341.757813 504.507813 341.757813 508.710938 C 341.757813 513.148438 341.175781 516.5625 340.011719 518.960938 C 338.847656 521.359375 337.179688 522.558594 335.011719 522.558594 C 332.554688 522.558594 330.695313 520.902344 329.429688 517.597656 C 328.167969 514.289063 327.535156 509.445313 327.535156 503.066406 C 327.535156 495.792969 328.238281 490.300781 329.632813 486.589844 C 331.035156 482.882813 333.117188 481.027344 335.878906 481.027344 C 336.597656 481.027344 337.367188 481.164063 338.195313 481.425781 C 339.019531 481.695313 339.90625 482.09375 340.855469 482.621094 L 340.855469 489.695313 L 339.398438 489.695313 C 339.1875 487.875 338.800781 486.492188 338.246094 485.554688 C 337.691406 484.617188 336.976563 484.148438 336.097656 484.148438 C 334.6875 484.148438 333.660156 485.246094 333.023438 487.433594 C 332.390625 489.621094 332.0625 493.167969 332.042969 498.082031 Z M 334.714844 519.4375 C 335.558594 519.4375 336.152344 518.652344 336.507813 517.089844 C 336.863281 515.519531 337.039063 512.804688 337.039063 508.933594 C 337.039063 505.066406 336.863281 502.347656 336.507813 500.78125 C 336.152344 499.214844 335.558594 498.429688 334.714844 498.429688 C 333.878906 498.429688 333.28125 499.214844 332.925781 500.78125 C 332.570313 502.347656 332.390625 505.066406 332.390625 508.933594 C 332.390625 512.804688 332.570313 515.519531 332.925781 517.089844 C 333.28125 518.652344 333.878906 519.4375 334.714844 519.4375 Z M 334.714844 519.4375 "/>
<path style=" stroke:none;fill-rule:nonzero;fill:rgb(90.196078%,7.843137%,3.137255%);fill-opacity:1;" d="M 105.996094 31 C 105.9375 32.984375 104.757813 40.4375 91.894531 52.773438 C 79.515625 64.644531 73.734375 66.070313 71.996094 66.195313 C 73.734375 66.320313 79.515625 67.746094 91.894531 79.617188 C 104.757813 91.953125 105.9375 99.40625 105.996094 101.394531 C 106.054688 99.40625 107.234375 91.953125 120.097656 79.617188 C 132.480469 67.746094 138.261719 66.320313 139.996094 66.195313 C 138.261719 66.070313 132.480469 64.644531 120.097656 52.773438 C 107.234375 40.4375 106.054688 32.984375 105.996094 31 Z M 105.996094 31 "/>
<path style=" stroke:none;fill-rule:nonzero;fill:rgb(90.196078%,7.843137%,3.137255%);fill-opacity:1;" d="M 36.351563 66.304688 C 36.335938 66.902344 35.980469 69.144531 32.113281 72.851563 C 28.390625 76.421875 26.652344 76.851563 26.128906 76.890625 C 26.652344 76.925781 28.390625 77.355469 32.113281 80.925781 C 35.980469 84.632813 36.335938 86.875 36.351563 87.472656 C 36.371094 86.875 36.726563 84.632813 40.59375 80.925781 C 44.316406 77.355469 46.054688 76.925781 46.578125 76.890625 C 46.054688 76.851563 44.316406 76.421875 40.59375 72.851563 C 36.726563 69.144531 36.371094 66.902344 36.351563 66.304688 Z M 36.351563 66.304688 "/>
<path style=" stroke:none;fill-rule:nonzero;fill:rgb(90.196078%,7.843137%,3.137255%);fill-opacity:1;" d="M 334.648438 451.851563 C 334.628906 452.449219 334.273438 454.6875 330.40625 458.398438 C 326.683594 461.96875 324.945313 462.394531 324.421875 462.433594 C 324.945313 462.472656 326.683594 462.898438 330.40625 466.46875 C 334.273438 470.179688 334.628906 472.417969 334.648438 473.015625 C 334.664063 472.417969 335.019531 470.179688 338.886719 466.46875 C 342.609375 462.898438 344.347656 462.472656 344.871094 462.433594 C 344.347656 462.394531 342.609375 461.96875 338.886719 458.398438 C 335.019531 454.6875 334.664063 452.449219 334.648438 451.851563 Z M 334.648438 451.851563 "/>
<path style=" stroke:none;fill-rule:nonzero;fill:rgb(90.196078%,7.843137%,3.137255%);fill-opacity:1;" d="M 262.914063 31 C 262.855469 32.984375 261.675781 40.4375 248.8125 52.773438 C 236.433594 64.644531 230.652344 66.070313 228.914063 66.195313 C 230.652344 66.320313 236.433594 67.746094 248.8125 79.617188 C 261.675781 91.953125 262.855469 99.40625 262.914063 101.394531 C 262.972656 99.40625 264.152344 91.953125 277.015625 79.617188 C 289.394531 67.746094 295.175781 66.320313 296.914063 66.195313 C 295.175781 66.070313 289.394531 64.644531 277.015625 52.773438 C 264.152344 40.4375 262.972656 32.984375 262.914063 31 Z M 262.914063 31 "/>
<path style=" stroke:none;fill-rule:nonzero;fill:rgb(90.196078%,7.843137%,3.137255%);fill-opacity:1;" d="M 105.996094 166.851563 C 105.9375 168.839844 104.757813 176.292969 91.894531 188.625 C 79.515625 200.5 73.734375 201.925781 71.996094 202.050781 C 73.734375 202.175781 79.515625 203.597656 91.894531 215.472656 C 104.757813 227.804688 105.9375 235.257813 105.996094 237.246094 C 106.054688 235.257813 107.234375 227.804688 120.097656 215.472656 C 132.480469 203.597656 138.261719 202.175781 139.996094 202.050781 C 138.261719 201.925781 132.480469 200.5 120.097656 188.625 C 107.234375 176.292969 106.054688 168.839844 105.996094 166.851563 Z M 105.996094 166.851563 "/>
<path style=" stroke:none;fill-rule:nonzero;fill:rgb(90.196078%,7.843137%,3.137255%);fill-opacity:1;" d="M 262.914063 166.851563 C 262.855469 168.839844 261.675781 176.292969 248.8125 188.625 C 236.433594 200.5 230.652344 201.925781 228.914063 202.050781 C 230.652344 202.175781 236.433594 203.597656 248.8125 215.472656 C 261.675781 227.804688 262.855469 235.257813 262.914063 237.246094 C 262.972656 235.257813 264.152344 227.804688 277.015625 215.472656 C 289.394531 203.597656 295.175781 202.175781 296.914063 202.050781 C 295.175781 201.925781 289.394531 200.5 277.015625 188.625 C 264.152344 176.292969 262.972656 168.839844 262.914063 166.851563 Z M 262.914063 166.851563 "/>
<path style=" stroke:none;fill-rule:nonzero;fill:rgb(90.196078%,7.843137%,3.137255%);fill-opacity:1;" d="M 185.5 234.800781 C 185.441406 236.789063 184.261719 244.242188 171.398438 256.578125 C 159.019531 268.449219 153.238281 269.875 151.5 270 C 153.238281 270.125 159.019531 271.550781 171.398438 283.421875 C 184.261719 295.757813 185.441406 303.210938 185.5 305.199219 C 185.558594 303.210938 186.738281 295.757813 199.601563 283.421875 C 211.980469 271.550781 217.761719 270.125 219.5 270 C 217.761719 269.875 211.980469 268.449219 199.601563 256.578125 C 186.738281 244.242188 185.558594 236.789063 185.5 234.800781 Z M 185.5 234.800781 "/>
<path style=" stroke:none;fill-rule:nonzero;fill:rgb(90.196078%,7.843137%,3.137255%);fill-opacity:1;" d="M 105.996094 302.703125 C 105.9375 304.691406 104.757813 312.144531 91.894531 324.480469 C 79.515625 336.351563 73.734375 337.777344 71.996094 337.902344 C 73.734375 338.027344 79.515625 339.453125 91.894531 351.324219 C 104.757813 363.660156 105.9375 371.113281 105.996094 373.101563 C 106.054688 371.113281 107.234375 363.660156 120.097656 351.324219 C 132.480469 339.453125 138.261719 338.027344 139.996094 337.902344 C 138.261719 337.777344 132.480469 336.351563 120.097656 324.480469 C 107.234375 312.144531 106.054688 304.691406 105.996094 302.703125 Z M 105.996094 302.703125 "/>
<path style=" stroke:none;fill-rule:nonzero;fill:rgb(90.196078%,7.843137%,3.137255%);fill-opacity:1;" d="M 260.246094 302.703125 C 260.1875 304.691406 259.007813 312.144531 246.144531 324.480469 C 233.761719 336.351563 227.980469 337.777344 226.242188 337.902344 C 227.980469 338.027344 233.761719 339.453125 246.144531 351.324219 C 259.007813 363.660156 260.1875 371.113281 260.246094 373.101563 C 260.304688 371.113281 261.484375 363.660156 274.347656 351.324219 C 286.726563 339.453125 292.507813 338.027344 294.246094 337.902344 C 292.507813 337.777344 286.726563 336.351563 274.347656 324.480469 C 261.484375 312.144531 260.304688 304.691406 260.246094 302.703125 Z M 260.246094 302.703125 "/>
<path style=" stroke:none;fill-rule:nonzero;fill:rgb(90.196078%,7.843137%,3.137255%);fill-opacity:1;" d="M 105.996094 438.554688 C 105.9375 440.542969 104.757813 447.996094 91.894531 460.332031 C 79.515625 472.203125 73.734375 473.628906 71.996094 473.753906 C 73.734375 473.878906 79.515625 475.304688 91.894531 487.175781 C 104.757813 499.511719 105.9375 506.964844 105.996094 508.953125 C 106.054688 506.964844 107.234375 499.511719 120.097656 487.175781 C 132.480469 475.304688 138.261719 473.878906 139.996094 473.753906 C 138.261719 473.628906 132.480469 472.203125 120.097656 460.332031 C 107.234375 447.996094 106.054688 440.542969 105.996094 438.554688 Z M 105.996094 438.554688 "/>
<path style=" stroke:none;fill-rule:nonzero;fill:rgb(90.196078%,7.843137%,3.137255%);fill-opacity:1;" d="M 262.914063 438.554688 C 262.855469 440.542969 261.675781 447.996094 248.8125 460.332031 C 236.433594 472.203125 230.652344 473.628906 228.914063 473.753906 C 230.652344 473.878906 236.433594 475.304688 248.8125 487.175781 C 261.675781 499.511719 262.855469 506.964844 262.914063 508.953125 C 262.972656 506.964844 264.152344 499.511719 277.015625 487.175781 C 289.394531 475.304688 295.175781 473.878906 296.914063 473.753906 C 295.175781 473.628906 289.394531 472.203125 277.015625 460.332031 C 264.152344 447.996094 262.972656 440.542969 262.914063 438.554688 Z M 262.914063 438.554688 "/>
</g>
</svg>
