<?xml version="1.0" encoding="UTF-8"?>
<svg xmlns="http://www.w3.org/2000/svg" xmlns:xlink="http://www.w3.org/1999/xlink" width="371pt" height="540pt" viewBox="0 0 371 540" version="1.1">
<g id="surface1">
<path style="fill-rule:nonzero;fill:rgb(100%,100%,100%);fill-opacity:1;stroke-width:0.5;stroke-linecap:butt;stroke-linejoin:miter;stroke:rgb(0%,0%,0%);stroke-opacity:1;stroke-miterlimit:4;" d="M 166.836617 235.89229 C 166.836617 239.68485 163.750894 242.783692 159.966749 242.783692 L 7.110884 242.783692 C 3.335536 242.783692 0.249813 239.68485 0.249813 235.89229 L 0.249813 6.77519 C 0.249813 2.987912 3.335536 -0.116212 7.110884 -0.116212 L 159.966749 -0.116212 C 163.750894 -0.116212 166.836617 2.987912 166.836617 6.77519 Z M 166.836617 235.89229 " transform="matrix(2.220408,0,0,2.218571,0,0.812511)"/>
<path style=" stroke:none;fill-rule:nonzero;fill:rgb(90.196078%,7.843137%,3.137255%);fill-opacity:1;" d="M 38.957031 41.917969 C 38.417969 42.867188 37.828125 43.578125 37.183594 44.050781 C 36.539063 44.523438 35.839844 44.757813 35.089844 44.757813 C 33.285156 44.757813 31.859375 43.566406 30.8125 41.175781 C 29.765625 38.789063 29.242188 35.492188 29.242188 31.289063 C 29.242188 26.851563 29.824219 23.4375 30.988281 21.039063 C 32.152344 18.640625 33.820313 17.441406 35.992188 17.441406 C 38.445313 17.441406 40.304688 19.097656 41.570313 22.402344 C 42.835938 25.710938 43.464844 30.554688 43.464844 36.933594 C 43.464844 44.210938 42.765625 49.703125 41.363281 53.410156 C 39.964844 57.117188 37.882813 58.972656 35.121094 58.972656 C 34.402344 58.972656 33.632813 58.839844 32.808594 58.574219 C 31.980469 58.308594 31.09375 57.910156 30.144531 57.378906 L 30.144531 50.304688 L 31.601563 50.304688 C 31.816406 52.128906 32.199219 53.507813 32.753906 54.445313 C 33.308594 55.382813 34.023438 55.851563 34.902344 55.851563 C 36.316406 55.851563 37.339844 54.757813 37.976563 52.570313 C 38.609375 50.382813 38.9375 46.832031 38.957031 41.917969 Z M 36.285156 20.5625 C 35.445313 20.5625 34.847656 21.347656 34.492188 22.914063 C 34.136719 24.480469 33.960938 27.199219 33.960938 31.066406 C 33.960938 34.933594 34.136719 37.652344 34.492188 39.21875 C 34.847656 40.785156 35.445313 41.570313 36.285156 41.570313 C 37.125 41.570313 37.71875 40.785156 38.074219 39.21875 C 38.429688 37.652344 38.609375 34.933594 38.609375 31.066406 C 38.609375 27.199219 38.429688 24.480469 38.074219 22.914063 C 37.71875 21.347656 37.125 20.5625 36.285156 20.5625 Z M 36.285156 20.5625 "/>
<path style=" stroke:none;fill-rule:nonzero;fill:rgb(90.196078%,7.843137%,3.137255%);fill-opacity:1;" d="M 332.042969 498.082031 C 332.582031 497.132813 333.171875 496.421875 333.816406 495.953125 C 334.460938 495.480469 335.160156 495.242188 335.910156 495.242188 C 337.71875 495.242188 339.144531 496.4375 340.1875 498.824219 C 341.238281 501.210938 341.757813 504.507813 341.757813 508.710938 C 341.757813 513.148438 341.175781 516.5625 340.011719 518.960938 C 338.847656 521.359375 337.179688 522.558594 335.011719 522.558594 C 332.554688 522.558594 330.695313 520.902344 329.429688 517.597656 C 328.167969 514.289063 327.535156 509.445313 327.535156 503.066406 C 327.535156 495.792969 328.238281 490.300781 329.632813 486.589844 C 331.035156 482.882813 333.117188 481.027344 335.878906 481.027344 C 336.597656 481.027344 337.367188 481.164063 338.195313 481.425781 C 339.019531 481.695313 339.90625 482.09375 340.855469 482.621094 L 340.855469 489.695313 L 339.398438 489.695313 C 339.1875 487.875 338.800781 486.492188 338.246094 485.554688 C 337.691406 484.617188 336.976563 484.148438 336.097656 484.148438 C 334.6875 484.148438 333.660156 485.246094 333.023438 487.433594 C 332.390625 489.621094 332.0625 493.167969 332.042969 498.082031 Z M 334.714844 519.4375 C 335.558594 519.4375 336.152344 518.652344 336.507813 517.089844 C 336.863281 515.519531 337.039063 512.804688 337.039063 508.933594 C 337.039063 505.066406 336.863281 502.347656 336.507813 500.78125 C 336.152344 499.214844 335.558594 498.429688 334.714844 498.429688 C 333.878906 498.429688 333.28125 499.214844 332.925781 500.78125 C 332.570313 502.347656 332.390625 505.066406 332.390625 508.933594 C 332.390625 512.804688 332.570313 515.519531 332.925781 517.089844 C 333.28125 518.652344 333.878906 519.4375 334.714844 519.4375 Z M 334.714844 519.4375 "/>
<path style=" stroke:none;fill-rule:nonzero;fill:rgb(90.196078%,7.843137%,3.137255%);fill-opacity:1;" d="M 168.027344 234.1875 C 158.460938 234.210938 150.683594 242.378906 150.746094 252.402344 C 150.878906 273.652344 177.597656 289.023438 185.472656 305.8125 C 193.347656 289.023438 220.121094 273.652344 220.253906 252.402344 C 220.316406 242.378906 212.539063 234.210938 202.972656 234.1875 C 193.410156 234.167969 185.5 242.304688 185.472656 252.34375 C 185.445313 242.304688 177.589844 234.167969 168.027344 234.1875 Z M 168.027344 234.1875 "/>
<path style=" stroke:none;fill-rule:nonzero;fill:rgb(90.196078%,7.843137%,3.137255%);fill-opacity:1;" d="M 31.097656 66.121094 C 28.222656 66.128906 25.882813 68.582031 25.902344 71.597656 C 25.945313 77.988281 33.976563 82.609375 36.34375 87.65625 C 38.714844 82.609375 46.761719 77.988281 46.804688 71.597656 C 46.824219 68.582031 44.484375 66.128906 41.609375 66.121094 C 38.730469 66.117188 36.355469 68.5625 36.34375 71.582031 C 36.335938 68.5625 33.976563 66.117188 31.097656 66.121094 Z M 31.097656 66.121094 "/>
<path style=" stroke:none;fill-rule:nonzero;fill:rgb(90.196078%,7.843137%,3.137255%);fill-opacity:1;" d="M 329.390625 473.199219 C 326.515625 473.195313 324.175781 470.738281 324.195313 467.726563 C 324.238281 461.335938 332.269531 456.714844 334.636719 451.664063 C 337.007813 456.714844 345.054688 461.335938 345.097656 467.726563 C 345.117188 470.738281 342.777344 473.195313 339.902344 473.199219 C 337.023438 473.207031 334.648438 470.761719 334.636719 467.742188 C 334.628906 470.761719 332.269531 473.207031 329.390625 473.199219 Z M 329.390625 473.199219 "/>
<path style=" stroke:none;fill-rule:nonzero;fill:rgb(90.196078%,7.843137%,3.137255%);fill-opacity:1;" d="M 88.523438 30.386719 C 78.957031 30.40625 71.179688 38.574219 71.242188 48.597656 C 71.378906 69.851563 98.09375 85.21875 105.96875 102.007813 C 113.84375 85.21875 140.617188 69.851563 140.75 48.597656 C 140.8125 38.574219 133.035156 30.40625 123.472656 30.386719 C 113.90625 30.367188 105.996094 38.5 105.96875 48.542969 C 105.941406 38.5 98.085938 30.367188 88.523438 30.386719 Z M 88.523438 30.386719 "/>
<path style=" stroke:none;fill-rule:nonzero;fill:rgb(90.196078%,7.843137%,3.137255%);fill-opacity:1;" d="M 245.441406 30.386719 C 235.875 30.40625 228.097656 38.574219 228.160156 48.597656 C 228.292969 69.851563 255.011719 85.21875 262.886719 102.007813 C 270.761719 85.21875 297.535156 69.851563 297.667969 48.597656 C 297.730469 38.574219 289.953125 30.40625 280.386719 30.386719 C 270.824219 30.367188 262.914063 38.5 262.886719 48.542969 C 262.859375 38.5 255.003906 30.367188 245.441406 30.386719 Z M 245.441406 30.386719 "/>
<path style=" stroke:none;fill-rule:nonzero;fill:rgb(90.196078%,7.843137%,3.137255%);fill-opacity:1;" d="M 88.523438 166.238281 C 78.957031 166.257813 71.179688 174.425781 71.242188 184.449219 C 71.378906 205.703125 98.09375 221.074219 105.96875 237.859375 C 113.84375 221.074219 140.617188 205.703125 140.75 184.449219 C 140.8125 174.425781 133.035156 166.257813 123.472656 166.238281 C 113.90625 166.21875 105.996094 174.351563 105.96875 184.394531 C 105.941406 174.351563 98.085938 166.21875 88.523438 166.238281 Z M 88.523438 166.238281 "/>
<path style=" stroke:none;fill-rule:nonzero;fill:rgb(90.196078%,7.843137%,3.137255%);fill-opacity:1;" d="M 245.441406 166.238281 C 235.875 166.257813 228.097656 174.425781 228.160156 184.449219 C 228.292969 205.703125 255.011719 221.074219 262.886719 237.859375 C 270.761719 221.074219 297.535156 205.703125 297.667969 184.449219 C 297.730469 174.425781 289.953125 166.257813 280.386719 166.238281 C 270.824219 166.21875 262.914063 174.351563 262.886719 184.394531 C 262.859375 174.351563 255.003906 166.21875 245.441406 166.238281 Z M 245.441406 166.238281 "/>
<path style=" stroke:none;fill-rule:nonzero;fill:rgb(90.196078%,7.843137%,3.137255%);fill-opacity:1;" d="M 245.441406 509.566406 C 235.875 509.542969 228.097656 501.375 228.160156 491.355469 C 228.292969 470.101563 255.011719 454.730469 262.886719 437.945313 C 270.761719 454.730469 297.535156 470.101563 297.667969 491.355469 C 297.730469 501.375 289.953125 509.542969 280.386719 509.566406 C 270.824219 509.585938 262.914063 501.453125 262.886719 491.410156 C 262.859375 501.453125 255.003906 509.585938 245.441406 509.566406 Z M 245.441406 509.566406 "/>
<path style=" stroke:none;fill-rule:nonzero;fill:rgb(90.196078%,7.843137%,3.137255%);fill-opacity:1;" d="M 88.523438 509.566406 C 78.957031 509.542969 71.179688 501.375 71.242188 491.355469 C 71.378906 470.101563 98.09375 454.730469 105.96875 437.945313 C 113.84375 454.730469 140.617188 470.101563 140.75 491.355469 C 140.8125 501.375 133.035156 509.542969 123.472656 509.566406 C 113.90625 509.585938 105.996094 501.453125 105.96875 491.410156 C 105.941406 501.453125 98.085938 509.585938 88.523438 509.566406 Z M 88.523438 509.566406 "/>
<path style=" stroke:none;fill-rule:nonzero;fill:rgb(90.196078%,7.843137%,3.137255%);fill-opacity:1;" d="M 242.769531 373.710938 C 233.207031 373.691406 225.429688 365.523438 225.492188 355.5 C 225.625 334.246094 252.339844 318.878906 260.21875 302.089844 C 268.09375 318.878906 294.863281 334.246094 295 355.5 C 295.0625 365.523438 287.285156 373.691406 277.71875 373.710938 C 268.15625 373.730469 260.246094 365.597656 260.21875 355.554688 C 260.1875 365.597656 252.335938 373.730469 242.769531 373.710938 Z M 242.769531 373.710938 "/>
<path style=" stroke:none;fill-rule:nonzero;fill:rgb(90.196078%,7.843137%,3.137255%);fill-opacity:1;" d="M 88.523438 373.710938 C 78.957031 373.691406 71.179688 365.523438 71.242188 355.5 C 71.378906 334.246094 98.09375 318.878906 105.96875 302.089844 C 113.84375 318.878906 140.617188 334.246094 140.75 355.5 C 140.8125 365.523438 133.035156 373.691406 123.472656 373.710938 C 113.90625 373.730469 105.996094 365.597656 105.96875 355.554688 C 105.941406 365.597656 98.085938 373.730469 88.523438 373.710938 Z M 88.523438 373.710938 "/>
</g>
</svg>
