<?xml version="1.0" encoding="UTF-8"?>
<svg xmlns="http://www.w3.org/2000/svg" xmlns:xlink="http://www.w3.org/1999/xlink" width="371pt" height="540pt" viewBox="0 0 371 540" version="1.1">
<g id="surface1">
<path style="fill-rule:nonzero;fill:rgb(100%,100%,100%);fill-opacity:1;stroke-width:0.5;stroke-linecap:butt;stroke-linejoin:miter;stroke:rgb(0%,0%,0%);stroke-opacity:1;stroke-miterlimit:4;" d="M 166.836617 235.89229 C 166.836617 239.68485 163.750894 242.783692 159.966749 242.783692 L 7.110884 242.783692 C 3.335536 242.783692 0.249813 239.68485 0.249813 235.89229 L 0.249813 6.77519 C 0.249813 2.987912 3.335536 -0.116212 7.110884 -0.116212 L 159.966749 -0.116212 C 163.750894 -0.116212 166.836617 2.987912 166.836617 6.77519 Z M 166.836617 235.89229 " transform="matrix(2.220408,0,0,2.218571,0,0.812511)"/>
<path style=" stroke:none;fill-rule:nonzero;fill:rgb(0%,0%,0%);fill-opacity:1;" d="M 38.957031 41.917969 C 38.417969 42.867188 37.828125 43.578125 37.183594 44.050781 C 36.539063 44.523438 35.839844 44.757813 35.089844 44.757813 C 33.285156 44.757813 31.859375 43.566406 30.8125 41.175781 C 29.765625 38.789063 29.242188 35.492188 29.242188 31.289063 C 29.242188 26.851563 29.824219 23.4375 30.988281 21.039063 C 32.152344 18.640625 33.820313 17.441406 35.992188 17.441406 C 38.445313 17.441406 40.304688 19.097656 41.570313 22.402344 C 42.835938 25.710938 43.464844 30.554688 43.464844 36.933594 C 43.464844 44.210938 42.765625 49.703125 41.363281 53.410156 C 39.964844 57.117188 37.882813 58.972656 35.121094 58.972656 C 34.402344 58.972656 33.632813 58.839844 32.808594 58.574219 C 31.980469 58.308594 31.09375 57.910156 30.144531 57.378906 L 30.144531 50.304688 L 31.601563 50.304688 C 31.816406 52.128906 32.199219 53.507813 32.753906 54.445313 C 33.308594 55.382813 34.023438 55.851563 34.902344 55.851563 C 36.316406 55.851563 37.339844 54.757813 37.976563 52.570313 C 38.609375 50.382813 38.9375 46.832031 38.957031 41.917969 Z M 36.285156 20.5625 C 35.445313 20.5625 34.847656 21.347656 34.492188 22.914063 C 34.136719 24.480469 33.960938 27.199219 33.960938 31.066406 C 33.960938 34.933594 34.136719 37.652344 34.492188 39.21875 C 34.847656 40.785156 35.445313 41.570313 36.285156 41.570313 C 37.125 41.570313 37.71875 40.785156 38.074219 39.21875 C 38.429688 37.652344 38.609375 34.933594 38.609375 31.066406 C 38.609375 27.199219 38.429688 24.480469 38.074219 22.914063 C 37.71875 21.347656 37.125 20.5625 36.285156 20.5625 Z M 36.285156 20.5625 "/>
<path style=" stroke:none;fill-rule:nonzero;fill:rgb(0%,0%,0%);fill-opacity:1;" d="M 332.042969 498.082031 C 332.582031 497.132813 333.171875 496.421875 333.816406 495.953125 C 334.460938 495.480469 335.160156 495.242188 335.910156 495.242188 C 337.71875 495.242188 339.144531 496.4375 340.1875 498.824219 C 341.238281 501.210938 341.757813 504.507813 341.757813 508.710938 C 341.757813 513.148438 341.175781 516.5625 340.011719 518.960938 C 338.847656 521.359375 337.179688 522.558594 335.011719 522.558594 C 332.554688 522.558594 330.695313 520.902344 329.429688 517.597656 C 328.167969 514.289063 327.535156 509.445313 327.535156 503.066406 C 327.535156 495.792969 328.238281 490.300781 329.632813 486.589844 C 331.035156 482.882813 333.117188 481.027344 335.878906 481.027344 C 336.597656 481.027344 337.367188 481.164063 338.195313 481.425781 C 339.019531 481.695313 339.90625 482.09375 340.855469 482.621094 L 340.855469 489.695313 L 339.398438 489.695313 C 339.1875 487.875 338.800781 486.492188 338.246094 485.554688 C 337.691406 484.617188 336.976563 484.148438 336.097656 484.148438 C 334.6875 484.148438 333.660156 485.246094 333.023438 487.433594 C 332.390625 489.621094 332.0625 493.167969 332.042969 498.082031 Z M 334.714844 519.4375 C 335.558594 519.4375 336.152344 518.652344 336.507813 517.089844 C 336.863281 515.519531 337.039063 512.804688 337.039063 508.933594 C 337.039063 505.066406 336.863281 502.347656 336.507813 500.78125 C 336.152344 499.214844 335.558594 498.429688 334.714844 498.429688 C 333.878906 498.429688 333.28125 499.214844 332.925781 500.78125 C 332.570313 502.347656 332.390625 505.066406 332.390625 508.933594 C 332.390625 512.804688 332.570313 515.519531 332.925781 517.089844 C 333.28125 518.652344 333.878906 519.4375 334.714844 519.4375 Z M 334.714844 519.4375 "/>
<path style=" stroke:none;fill-rule:nonzero;fill:rgb(0%,0%,0%);fill-opacity:1;" d="M 105.996094 29.523438 C 98.925781 42.238281 74.828125 53.886719 74.78125 69.957031 C 74.761719 77.542969 81.769531 83.65625 90.390625 83.65625 C 95.882813 83.65625 100.761719 81.191406 103.542969 77.417969 C 102.382813 88.34375 99.265625 100.554688 87.882813 102.871094 L 124.113281 102.871094 C 112.730469 100.554688 109.613281 88.34375 108.449219 77.417969 C 111.230469 81.191406 116.113281 83.65625 121.605469 83.65625 C 130.226563 83.65625 137.234375 77.542969 137.210938 69.957031 C 137.164063 53.886719 113.066406 42.238281 105.996094 29.523438 Z M 105.996094 29.523438 "/>
<path style=" stroke:none;fill-rule:nonzero;fill:rgb(0%,0%,0%);fill-opacity:1;" d="M 36.351563 65.867188 C 34.226563 69.6875 26.992188 73.1875 26.972656 78.019531 C 26.972656 80.300781 29.070313 82.136719 31.664063 82.136719 C 33.3125 82.136719 34.78125 81.398438 35.617188 80.261719 C 35.265625 83.546875 34.328125 87.214844 30.910156 87.914063 L 41.796875 87.914063 C 38.378906 87.214844 37.441406 83.546875 37.089844 80.261719 C 37.925781 81.398438 39.394531 82.136719 41.042969 82.136719 C 43.636719 82.136719 45.734375 80.300781 45.734375 78.019531 C 45.714844 73.1875 38.480469 69.6875 36.351563 65.867188 Z M 36.351563 65.867188 "/>
<path style=" stroke:none;fill-rule:nonzero;fill:rgb(0%,0%,0%);fill-opacity:1;" d="M 334.648438 473.457031 C 332.519531 469.636719 325.285156 466.132813 325.265625 461.304688 C 325.265625 459.023438 327.363281 457.183594 329.957031 457.183594 C 331.605469 457.183594 333.074219 457.925781 333.910156 459.058594 C 333.558594 455.777344 332.621094 452.105469 329.203125 451.410156 L 340.089844 451.410156 C 336.671875 452.105469 335.734375 455.777344 335.382813 459.058594 C 336.21875 457.925781 337.6875 457.183594 339.335938 457.183594 C 341.929688 457.183594 344.027344 459.023438 344.027344 461.304688 C 344.007813 466.132813 336.773438 469.636719 334.648438 473.457031 Z M 334.648438 473.457031 "/>
<path style=" stroke:none;fill-rule:nonzero;fill:rgb(0%,0%,0%);fill-opacity:1;" d="M 262.914063 510.429688 C 255.84375 497.710938 231.746094 486.0625 231.699219 469.996094 C 231.679688 462.40625 238.6875 456.292969 247.308594 456.292969 C 252.800781 456.292969 257.679688 458.757813 260.460938 462.53125 C 259.300781 451.605469 256.183594 439.398438 244.800781 437.082031 L 281.03125 437.082031 C 269.644531 439.398438 266.527344 451.605469 265.367188 462.53125 C 268.148438 458.757813 273.027344 456.292969 278.519531 456.292969 C 287.140625 456.292969 294.148438 462.40625 294.128906 469.996094 C 294.082031 486.0625 269.984375 497.710938 262.914063 510.429688 Z M 262.914063 510.429688 "/>
<path style=" stroke:none;fill-rule:nonzero;fill:rgb(0%,0%,0%);fill-opacity:1;" d="M 105.996094 510.429688 C 98.925781 497.710938 74.828125 486.0625 74.78125 469.996094 C 74.761719 462.40625 81.769531 456.292969 90.390625 456.292969 C 95.882813 456.292969 100.761719 458.757813 103.542969 462.53125 C 102.382813 451.605469 99.265625 439.398438 87.882813 437.082031 L 124.113281 437.082031 C 112.730469 439.398438 109.613281 451.605469 108.449219 462.53125 C 111.230469 458.757813 116.113281 456.292969 121.605469 456.292969 C 130.226563 456.292969 137.234375 462.40625 137.210938 469.996094 C 137.164063 486.0625 113.066406 497.710938 105.996094 510.429688 Z M 105.996094 510.429688 "/>
<path style=" stroke:none;fill-rule:nonzero;fill:rgb(0%,0%,0%);fill-opacity:1;" d="M 260.246094 374.574219 C 253.175781 361.859375 229.078125 350.210938 229.03125 334.140625 C 229.007813 326.554688 236.015625 320.441406 244.636719 320.441406 C 250.128906 320.441406 255.011719 322.90625 257.792969 326.679688 C 256.628906 315.753906 253.511719 303.542969 242.128906 301.226563 L 278.359375 301.226563 C 266.976563 303.542969 263.859375 315.753906 262.699219 326.679688 C 265.480469 322.90625 270.359375 320.441406 275.851563 320.441406 C 284.472656 320.441406 291.480469 326.554688 291.457031 334.140625 C 291.414063 350.210938 267.316406 361.859375 260.246094 374.574219 Z M 260.246094 374.574219 "/>
<path style=" stroke:none;fill-rule:nonzero;fill:rgb(0%,0%,0%);fill-opacity:1;" d="M 105.996094 374.574219 C 98.925781 361.859375 74.828125 350.210938 74.78125 334.140625 C 74.761719 326.554688 81.769531 320.441406 90.390625 320.441406 C 95.882813 320.441406 100.761719 322.90625 103.542969 326.679688 C 102.382813 315.753906 99.265625 303.542969 87.882813 301.226563 L 124.113281 301.226563 C 112.730469 303.542969 109.613281 315.753906 108.449219 326.679688 C 111.230469 322.90625 116.113281 320.441406 121.605469 320.441406 C 130.226563 320.441406 137.234375 326.554688 137.210938 334.140625 C 137.164063 350.210938 113.066406 361.859375 105.996094 374.574219 Z M 105.996094 374.574219 "/>
<path style=" stroke:none;fill-rule:nonzero;fill:rgb(0%,0%,0%);fill-opacity:1;" d="M 185.5 233.324219 C 178.429688 246.042969 154.332031 257.691406 154.285156 273.757813 C 154.265625 281.347656 161.273438 287.460938 169.894531 287.460938 C 175.386719 287.460938 180.265625 284.996094 183.046875 281.222656 C 181.886719 292.148438 178.769531 304.355469 167.386719 306.675781 L 203.613281 306.675781 C 192.230469 304.355469 189.113281 292.148438 187.953125 281.222656 C 190.734375 284.996094 195.613281 287.460938 201.105469 287.460938 C 209.726563 287.460938 216.734375 281.347656 216.714844 273.757813 C 216.667969 257.691406 192.570313 246.042969 185.5 233.324219 Z M 185.5 233.324219 "/>
<path style=" stroke:none;fill-rule:nonzero;fill:rgb(0%,0%,0%);fill-opacity:1;" d="M 262.914063 165.375 C 255.84375 178.089844 231.746094 189.738281 231.699219 205.808594 C 231.679688 213.394531 238.6875 219.507813 247.308594 219.507813 C 252.800781 219.507813 257.679688 217.046875 260.460938 213.269531 C 259.300781 224.195313 256.183594 236.40625 244.800781 238.722656 L 281.03125 238.722656 C 269.644531 236.40625 266.527344 224.195313 265.367188 213.269531 C 268.148438 217.046875 273.027344 219.507813 278.519531 219.507813 C 287.140625 219.507813 294.148438 213.394531 294.128906 205.808594 C 294.082031 189.738281 269.984375 178.089844 262.914063 165.375 Z M 262.914063 165.375 "/>
<path style=" stroke:none;fill-rule:nonzero;fill:rgb(0%,0%,0%);fill-opacity:1;" d="M 105.996094 165.375 C 98.925781 178.089844 74.828125 189.738281 74.78125 205.808594 C 74.761719 213.394531 81.769531 219.507813 90.390625 219.507813 C 95.882813 219.507813 100.761719 217.046875 103.542969 213.269531 C 102.382813 224.195313 99.265625 236.40625 87.882813 238.722656 L 124.113281 238.722656 C 112.730469 236.40625 109.613281 224.195313 108.449219 213.269531 C 111.230469 217.046875 116.113281 219.507813 121.605469 219.507813 C 130.226563 219.507813 137.234375 213.394531 137.210938 205.808594 C 137.164063 189.738281 113.066406 178.089844 105.996094 165.375 Z M 105.996094 165.375 "/>
<path style=" stroke:none;fill-rule:nonzero;fill:rgb(0%,0%,0%);fill-opacity:1;" d="M 262.914063 29.523438 C 255.84375 42.238281 231.746094 53.886719 231.699219 69.957031 C 231.679688 77.542969 238.6875 83.65625 247.308594 83.65625 C 252.800781 83.65625 257.679688 81.191406 260.460938 77.417969 C 259.300781 88.34375 256.183594 100.554688 244.800781 102.871094 L 281.03125 102.871094 C 269.644531 100.554688 266.527344 88.34375 265.367188 77.417969 C 268.148438 81.191406 273.027344 83.65625 278.519531 83.65625 C 287.140625 83.65625 294.148438 77.542969 294.128906 69.957031 C 294.082031 53.886719 269.984375 42.238281 262.914063 29.523438 Z M 262.914063 29.523438 "/>
</g>
</svg>
