<?xml version="1.0" encoding="UTF-8"?>
<svg xmlns="http://www.w3.org/2000/svg" xmlns:xlink="http://www.w3.org/1999/xlink" width="386pt" height="540pt" viewBox="0 0 386 540" version="1.1">
<defs>
<clipPath id="clip1">
  <rect width="32" height="32"/>
</clipPath>
<g id="surface6" clip-path="url(#clip1)">
<path style=" stroke:none;fill-rule:nonzero;fill:rgb(7.45098%,12.156863%,40.392157%);fill-opacity:1;" d="M 0 0 L 16 0 L 16 16 L 0 16 Z M 0 0 "/>
<path style=" stroke:none;fill-rule:nonzero;fill:rgb(7.45098%,12.156863%,40.392157%);fill-opacity:1;" d="M 16 16 L 32 16 L 32 32 L 16 32 Z M 16 16 "/>
</g>
<pattern id="pattern0" patternUnits="userSpaceOnUse" width="32" height="32" patternTransform="matrix(0.418936,-0.418936,0.418936,0.418936,483.40987,-584.30113)">
<use xlink:href="#surface6"/>
</pattern>
</defs>
<g id="surface1">
<path style="fill-rule:nonzero;fill:rgb(100%,100%,100%);fill-opacity:1;stroke-width:1;stroke-linecap:butt;stroke-linejoin:miter;stroke:rgb(0%,0%,0%);stroke-opacity:1;stroke-miterlimit:4;" d="M -248.483822 501.816564 L -47.514994 501.816564 C -41.645383 501.816564 -36.88703 506.57534 -36.88703 512.446527 L -36.88703 801.996257 C -36.88703 807.867445 -41.645383 812.626221 -47.514994 812.626221 L -248.483822 812.626221 C -254.355687 812.626221 -259.11404 807.867445 -259.11404 801.996257 L -259.11404 512.446527 C -259.11404 506.57534 -254.355687 501.816564 -248.483822 501.816564 Z M -248.483822 501.816564 " transform="matrix(1.732972,0,0,1.731177,449.904675,-867.666688)"/>
<path style="fill:none;stroke-width:4.952383;stroke-linecap:round;stroke-linejoin:miter;stroke:rgb(7.45098%,12.156863%,40.392157%);stroke-opacity:1;stroke-miterlimit:4;" d="M -246.527285 513.899657 L -49.473785 513.899657 L -49.473785 800.543127 L -246.527285 800.543127 Z M -246.527285 513.899657 " transform="matrix(1.732972,0,0,1.731177,449.904675,-867.666688)"/>
<path style="fill-rule:nonzero;fill:url(#pattern0);stroke-width:1;stroke-linecap:round;stroke-linejoin:miter;stroke:rgb(7.45098%,12.156863%,40.392157%);stroke-opacity:1;stroke-miterlimit:4;" d="M -242.1386 517.769406 L -53.86247 517.769406 L -53.86247 796.675635 L -242.1386 796.675635 Z M -242.1386 517.769406 " transform="matrix(1.732972,0,0,1.731177,449.904675,-867.666688)"/>
</g>
</svg>
