<?xml version="1.0" encoding="UTF-8"?>
<svg xmlns="http://www.w3.org/2000/svg" xmlns:xlink="http://www.w3.org/1999/xlink" width="386pt" height="540pt" viewBox="0 0 386 540" version="1.1">
<g id="surface1">
<path style="fill-rule:nonzero;fill:rgb(100%,100%,100%);fill-opacity:1;stroke-width:0.996734;stroke-linecap:butt;stroke-linejoin:miter;stroke:rgb(0%,0%,0%);stroke-opacity:1;stroke-miterlimit:4;" d="M 2852.188644 -1088.369139 L 3053.161369 -1088.369139 C 3059.031113 -1088.369139 3063.790547 -1083.609252 3063.790547 -1077.738951 L 3063.790547 -788.184834 C 3063.790547 -782.314533 3059.031113 -777.556904 3053.161369 -777.556904 L 2852.188644 -777.556904 C 2846.3189 -777.556904 2841.559465 -782.314533 2841.559465 -788.184834 L 2841.559465 -1077.738951 C 2841.559465 -1083.609252 2846.3189 -1088.369139 2852.188644 -1088.369139 Z M 2852.188644 -1088.369139 " transform="matrix(1.730937,0,0,1.730773,-4917.696685,1884.582811)"/>
<path style=" stroke:none;fill-rule:nonzero;fill:rgb(0%,0%,0%);fill-opacity:1;" d="M 282.394531 57.984375 C 265.476563 58.355469 257.890625 77.402344 270.417969 92.191406 C 272.238281 94.351563 272.425781 95.585938 269.097656 93.515625 C 260.660156 87.875 244.484375 91.582031 243.65625 108.828125 C 242.632813 130.078125 272.324219 136.199219 277.898438 113.605469 C 278.195313 111.21875 280.132813 111.273438 279.664063 114.660156 C 279.15625 123.84375 276.289063 132.425781 272.34375 140.796875 C 278.992188 140.796875 286.417969 140.796875 292.457031 140.796875 C 288.515625 132.425781 285.648438 123.84375 285.140625 114.660156 C 284.671875 111.273438 286.609375 111.21875 286.902344 113.605469 C 292.480469 136.199219 322.171875 130.078125 321.148438 108.828125 C 320.320313 91.582031 304.144531 87.875 295.707031 93.515625 C 292.378906 95.585938 292.566406 94.351563 294.382813 92.191406 C 306.914063 77.402344 299.328125 58.355469 282.410156 57.984375 C 282.410156 57.984375 282.410156 57.988281 282.390625 57.984375 Z M 282.394531 57.984375 "/>
<path style=" stroke:none;fill-rule:nonzero;fill:rgb(0%,0%,0%);fill-opacity:1;" d="M 103.984375 57.984375 C 87.066406 58.355469 79.480469 77.402344 92.011719 92.191406 C 93.828125 94.351563 94.015625 95.585938 90.6875 93.515625 C 82.25 87.875 66.074219 91.582031 65.246094 108.828125 C 64.222656 130.078125 93.914063 136.199219 99.492188 113.605469 C 99.785156 111.21875 101.722656 111.273438 101.253906 114.660156 C 100.746094 123.84375 97.878906 132.425781 93.9375 140.796875 C 100.582031 140.796875 108.007813 140.796875 114.050781 140.796875 C 110.105469 132.425781 107.238281 123.84375 106.730469 114.660156 C 106.261719 111.273438 108.199219 111.21875 108.496094 113.605469 C 114.070313 136.199219 143.761719 130.078125 142.738281 108.828125 C 141.910156 91.582031 125.734375 87.875 117.296875 93.515625 C 113.96875 95.585938 114.15625 94.351563 115.976563 92.191406 C 128.503906 77.402344 120.917969 58.355469 104 57.984375 C 104 57.984375 104 57.988281 103.984375 57.984375 Z M 103.984375 57.984375 "/>
<path style=" stroke:none;fill-rule:nonzero;fill:rgb(0%,0%,0%);fill-opacity:1;" d="M 282.394531 483.121094 C 265.476563 482.753906 257.890625 463.707031 270.417969 448.914063 C 272.238281 446.757813 272.425781 445.519531 269.097656 447.59375 C 260.660156 453.234375 244.484375 449.523438 243.65625 432.28125 C 242.632813 411.03125 272.324219 404.910156 277.898438 427.503906 C 278.195313 429.886719 280.132813 429.832031 279.664063 426.449219 C 279.15625 417.265625 276.289063 408.679688 272.34375 400.308594 C 278.992188 400.308594 286.417969 400.308594 292.457031 400.308594 C 288.515625 408.679688 285.648438 417.265625 285.140625 426.449219 C 284.671875 429.832031 286.609375 429.886719 286.902344 427.503906 C 292.480469 404.910156 322.171875 411.03125 321.148438 432.28125 C 320.320313 449.523438 304.144531 453.234375 295.707031 447.59375 C 292.378906 445.519531 292.566406 446.757813 294.382813 448.914063 C 306.914063 463.707031 299.328125 482.753906 282.410156 483.121094 C 282.410156 483.121094 282.410156 483.121094 282.390625 483.121094 Z M 282.394531 483.121094 "/>
<path style=" stroke:none;fill-rule:nonzero;fill:rgb(0%,0%,0%);fill-opacity:1;" d="M 103.984375 483.121094 C 87.066406 482.753906 79.480469 463.707031 92.011719 448.914063 C 93.828125 446.757813 94.015625 445.519531 90.6875 447.59375 C 82.25 453.234375 66.074219 449.523438 65.246094 432.28125 C 64.222656 411.03125 93.914063 404.910156 99.492188 427.503906 C 99.785156 429.886719 101.722656 429.832031 101.253906 426.449219 C 100.746094 417.265625 97.878906 408.679688 93.9375 400.308594 C 100.582031 400.308594 108.007813 400.308594 114.050781 400.308594 C 110.105469 408.679688 107.238281 417.265625 106.730469 426.449219 C 106.261719 429.832031 108.199219 429.886719 108.496094 427.503906 C 114.070313 404.910156 143.761719 411.03125 142.738281 432.28125 C 141.910156 449.523438 125.734375 453.234375 117.296875 447.59375 C 113.96875 445.519531 114.15625 446.757813 115.976563 448.914063 C 128.503906 463.707031 120.917969 482.753906 104 483.121094 C 104 483.121094 104 483.121094 103.984375 483.121094 Z M 103.984375 483.121094 "/>
<path style=" stroke:none;fill-rule:nonzero;fill:rgb(0%,0%,0%);fill-opacity:1;" d="M 193.191406 115.039063 C 176.269531 115.40625 168.683594 134.457031 181.214844 149.246094 C 183.03125 151.402344 183.21875 152.640625 179.890625 150.570313 C 171.457031 144.929688 155.277344 148.636719 154.449219 165.882813 C 153.425781 187.132813 183.121094 193.253906 188.695313 170.660156 C 188.988281 168.273438 190.925781 168.328125 190.460938 171.714844 C 189.953125 180.898438 187.082031 189.480469 183.140625 197.851563 C 189.785156 197.851563 197.210938 197.851563 203.253906 197.851563 C 199.3125 189.480469 196.441406 180.898438 195.933594 171.714844 C 195.46875 168.328125 197.40625 168.273438 197.699219 170.660156 C 203.273438 193.253906 232.96875 187.132813 231.945313 165.882813 C 231.117188 148.636719 214.9375 144.929688 206.503906 150.570313 C 203.175781 152.640625 203.363281 151.402344 205.179688 149.246094 C 217.710938 134.457031 210.125 115.40625 193.203125 115.039063 C 193.203125 115.039063 193.203125 115.039063 193.1875 115.039063 Z M 193.191406 115.039063 "/>
<path style=" stroke:none;fill-rule:nonzero;fill:rgb(0%,0%,0%);fill-opacity:1;" d="M 193.191406 426.066406 C 176.273438 425.699219 168.683594 406.652344 181.214844 391.863281 C 183.03125 389.703125 183.21875 388.464844 179.890625 390.539063 C 171.457031 396.179688 155.28125 392.472656 154.449219 375.226563 C 153.429688 353.976563 183.121094 347.855469 188.695313 370.449219 C 188.988281 372.832031 190.925781 372.777344 190.460938 369.394531 C 189.953125 360.210938 187.082031 351.625 183.140625 343.257813 C 189.785156 343.257813 197.210938 343.257813 203.253906 343.257813 C 199.3125 351.625 196.441406 360.210938 195.933594 369.394531 C 195.46875 372.777344 197.40625 372.832031 197.699219 370.449219 C 203.273438 347.855469 232.96875 353.976563 231.945313 375.226563 C 231.117188 392.472656 214.9375 396.179688 206.503906 390.539063 C 203.175781 388.464844 203.363281 389.703125 205.179688 391.863281 C 217.710938 406.652344 210.125 425.699219 193.203125 426.066406 C 193.203125 426.066406 193.203125 426.066406 193.1875 426.066406 Z M 193.191406 426.066406 "/>
<path style=" stroke:none;fill-rule:nonzero;fill:rgb(0%,0%,0%);fill-opacity:1;" d="M 355.867188 452.59375 C 362.636719 452.441406 365.667969 444.503906 360.65625 438.34375 C 359.929688 437.445313 359.855469 436.925781 361.1875 437.792969 C 364.5625 440.140625 371.03125 438.597656 371.363281 431.410156 C 371.773438 422.558594 359.894531 420.007813 357.664063 429.421875 C 357.546875 430.414063 356.773438 430.390625 356.960938 428.980469 C 357.164063 425.15625 358.308594 421.578125 359.886719 418.089844 C 357.207031 418.089844 354.523438 418.089844 351.84375 418.089844 C 353.417969 421.578125 354.566406 425.15625 354.769531 428.980469 C 354.957031 430.390625 354.183594 430.414063 354.0625 429.421875 C 351.835938 420.007813 339.957031 422.558594 340.367188 431.410156 C 340.699219 438.597656 347.167969 440.140625 350.542969 437.792969 C 351.875 436.925781 351.800781 437.445313 351.074219 438.34375 C 346.058594 444.503906 349.09375 452.441406 355.863281 452.59375 Z M 355.867188 452.59375 "/>
<path style=" stroke:none;fill-rule:nonzero;fill:rgb(0%,0%,0%);fill-opacity:1;" d="M 103.984375 172.09375 C 87.066406 172.460938 79.480469 191.507813 92.011719 206.300781 C 93.828125 208.457031 94.015625 209.695313 90.6875 207.625 C 82.25 201.980469 66.074219 205.691406 65.246094 222.9375 C 64.222656 244.183594 93.914063 250.308594 99.492188 227.710938 C 99.785156 225.328125 101.722656 225.382813 101.253906 228.765625 C 100.746094 237.949219 97.878906 246.535156 93.9375 254.90625 C 100.582031 254.90625 108.007813 254.90625 114.050781 254.90625 C 110.105469 246.535156 107.238281 237.949219 106.730469 228.765625 C 106.261719 225.382813 108.199219 225.328125 108.496094 227.710938 C 114.070313 250.308594 143.761719 244.183594 142.738281 222.9375 C 141.910156 205.691406 125.734375 201.980469 117.296875 207.625 C 113.96875 209.695313 114.15625 208.457031 115.976563 206.300781 C 128.503906 191.507813 120.917969 172.460938 104 172.09375 C 104 172.09375 104 172.09375 103.984375 172.09375 Z M 103.984375 172.09375 "/>
<path style=" stroke:none;fill-rule:nonzero;fill:rgb(0%,0%,0%);fill-opacity:1;" d="M 103.984375 369.011719 C 87.066406 368.644531 79.480469 349.597656 92.011719 334.808594 C 93.828125 332.648438 94.015625 331.414063 90.6875 333.484375 C 82.25 339.125 66.074219 335.417969 65.246094 318.171875 C 64.222656 296.921875 93.914063 290.800781 99.492188 313.394531 C 99.785156 315.78125 101.722656 315.726563 101.253906 312.339844 C 100.746094 303.15625 97.878906 294.574219 93.9375 286.203125 C 100.582031 286.203125 108.007813 286.203125 114.050781 286.203125 C 110.105469 294.574219 107.238281 303.15625 106.730469 312.339844 C 106.261719 315.726563 108.199219 315.78125 108.496094 313.394531 C 114.070313 290.800781 143.761719 296.921875 142.738281 318.171875 C 141.910156 335.417969 125.734375 339.125 117.296875 333.484375 C 113.96875 331.414063 114.15625 332.648438 115.976563 334.808594 C 128.503906 349.597656 120.917969 368.644531 104 369.011719 C 104 369.011719 104 369.011719 103.984375 369.011719 Z M 103.984375 369.011719 "/>
<path style=" stroke:none;fill-rule:nonzero;fill:rgb(0%,0%,0%);fill-opacity:1;" d="M 282.394531 172.09375 C 265.476563 172.460938 257.890625 191.507813 270.417969 206.300781 C 272.238281 208.457031 272.425781 209.695313 269.097656 207.625 C 260.660156 201.980469 244.484375 205.691406 243.65625 222.9375 C 242.632813 244.183594 272.324219 250.308594 277.898438 227.710938 C 278.195313 225.328125 280.132813 225.382813 279.664063 228.765625 C 279.15625 237.949219 276.289063 246.535156 272.34375 254.90625 C 278.992188 254.90625 286.417969 254.90625 292.457031 254.90625 C 288.515625 246.535156 285.648438 237.949219 285.140625 228.765625 C 284.671875 225.382813 286.609375 225.328125 286.902344 227.710938 C 292.480469 250.308594 322.171875 244.183594 321.148438 222.9375 C 320.320313 205.691406 304.144531 201.980469 295.707031 207.625 C 292.378906 209.695313 292.566406 208.457031 294.382813 206.300781 C 306.914063 191.507813 299.328125 172.460938 282.410156 172.09375 C 282.410156 172.09375 282.410156 172.09375 282.390625 172.09375 Z M 282.394531 172.09375 "/>
<path style=" stroke:none;fill-rule:nonzero;fill:rgb(0%,0%,0%);fill-opacity:1;" d="M 282.394531 369.011719 C 265.476563 368.644531 257.890625 349.597656 270.417969 334.808594 C 272.238281 332.648438 272.425781 331.414063 269.097656 333.484375 C 260.660156 339.125 244.484375 335.417969 243.65625 318.171875 C 242.632813 296.921875 272.324219 290.800781 277.898438 313.394531 C 278.195313 315.78125 280.132813 315.726563 279.664063 312.339844 C 279.15625 303.15625 276.289063 294.574219 272.34375 286.203125 C 278.992188 286.203125 286.417969 286.203125 292.457031 286.203125 C 288.515625 294.574219 285.648438 303.15625 285.140625 312.339844 C 284.671875 315.726563 286.609375 315.78125 286.902344 313.394531 C 292.480469 290.800781 322.171875 296.921875 321.148438 318.171875 C 320.320313 335.417969 304.144531 339.125 295.707031 333.484375 C 292.378906 331.414063 292.566406 332.648438 294.382813 334.808594 C 306.914063 349.597656 299.328125 368.644531 282.410156 369.011719 C 282.410156 369.011719 282.410156 369.011719 282.390625 369.011719 Z M 282.394531 369.011719 "/>
<path style=" stroke:none;fill-rule:nonzero;fill:rgb(0%,0%,0%);fill-opacity:1;" d="M 30.53125 87.078125 C 23.761719 87.230469 20.726563 95.167969 25.738281 101.332031 C 26.464844 102.230469 26.542969 102.746094 25.210938 101.882813 C 21.835938 99.53125 15.363281 101.078125 15.035156 108.261719 C 14.625 117.117188 26.5 119.667969 28.730469 110.253906 C 28.847656 109.257813 29.625 109.28125 29.4375 110.691406 C 29.234375 114.519531 28.085938 118.09375 26.507813 121.582031 C 29.191406 121.582031 31.871094 121.582031 34.554688 121.582031 C 32.976563 118.09375 31.828125 114.519531 31.625 110.691406 C 31.441406 109.28125 32.214844 109.257813 32.332031 110.253906 C 34.5625 119.667969 46.441406 117.117188 46.03125 108.261719 C 45.699219 101.078125 39.230469 99.53125 35.855469 101.882813 C 34.523438 102.746094 34.597656 102.230469 35.324219 101.332031 C 40.335938 95.167969 37.300781 87.230469 30.535156 87.078125 C 30.53125 87.078125 30.535156 87.078125 30.535156 87.078125 Z M 30.53125 87.078125 "/>
<path style=" stroke:none;fill-rule:nonzero;fill:rgb(0%,0%,0%);fill-opacity:1;" d="M 13.265625 81.667969 L 13.265625 24.738281 L 18.777344 24.738281 L 18.777344 81.667969 Z M 13.265625 81.667969 "/>
<path style=" stroke:none;fill-rule:nonzero;fill:rgb(0%,0%,0%);fill-opacity:1;" d="M 35.117188 24.734375 C 29.808594 24.734375 25.546875 29.589844 25.546875 35.617188 L 25.546875 70.789063 C 25.546875 76.816406 29.8125 81.667969 35.117188 81.667969 L 38.214844 81.667969 C 43.519531 81.667969 47.792969 76.816406 47.792969 70.789063 L 47.792969 35.617188 C 47.792969 29.589844 43.519531 24.734375 38.214844 24.734375 Z M 36.71875 30.121094 C 39.851563 30.121094 42.371094 32.523438 42.371094 35.535156 L 42.371094 71.175781 C 42.371094 74.183594 39.851563 76.613281 36.71875 76.613281 C 33.585938 76.613281 31.058594 74.183594 31.058594 71.175781 L 31.058594 35.535156 C 31.058594 32.527344 33.585938 30.121094 36.71875 30.121094 Z M 36.71875 30.121094 "/>
<path style=" stroke:none;fill-rule:nonzero;fill:rgb(0%,0%,0%);fill-opacity:1;" d="M 373.125 458.003906 L 373.125 514.9375 L 367.613281 514.9375 L 367.613281 458.003906 Z M 373.125 458.003906 "/>
<path style=" stroke:none;fill-rule:nonzero;fill:rgb(0%,0%,0%);fill-opacity:1;" d="M 351.277344 514.9375 C 356.582031 514.9375 360.847656 510.085938 360.847656 504.058594 L 360.847656 468.882813 C 360.847656 462.855469 356.578125 458.003906 351.277344 458.003906 L 348.179688 458.003906 C 342.871094 458.003906 338.597656 462.855469 338.597656 468.882813 L 338.597656 504.058594 C 338.597656 510.085938 342.875 514.9375 348.179688 514.9375 Z M 349.671875 509.554688 C 346.539063 509.554688 344.023438 507.148438 344.023438 504.140625 L 344.023438 468.5 C 344.023438 465.488281 346.539063 463.0625 349.671875 463.0625 C 352.804688 463.0625 355.335938 465.488281 355.335938 468.5 L 355.335938 504.140625 C 355.335938 507.144531 352.804688 509.554688 349.671875 509.554688 Z M 349.671875 509.554688 "/>
</g>
</svg>
