<?xml version="1.0" encoding="UTF-8"?>
<svg xmlns="http://www.w3.org/2000/svg" xmlns:xlink="http://www.w3.org/1999/xlink" width="386pt" height="540pt" viewBox="0 0 386 540" version="1.1">
<g id="surface1">
<path style="fill-rule:nonzero;fill:rgb(100%,100%,100%);fill-opacity:1;stroke-width:1.000567;stroke-linecap:butt;stroke-linejoin:miter;stroke:rgb(0%,0%,0%);stroke-opacity:1;stroke-miterlimit:4;" d="M 271.110569 370.275663 L 472.984113 370.275663 C 478.880167 370.275663 483.660935 375.050823 483.660935 380.939961 L 483.660935 671.423224 C 483.660935 677.312362 478.880167 682.087523 472.984113 682.087523 L 271.110569 682.087523 C 265.214515 682.087523 260.433747 677.312362 260.433747 671.423224 L 260.433747 380.939961 C 260.433747 375.050823 265.214515 370.275663 271.110569 370.275663 Z M 271.110569 370.275663 " transform="matrix(1.723213,0,0,1.725237,-447.919511,-637.949828)"/>
<path style=" stroke:none;fill-rule:nonzero;fill:rgb(83.137255%,0%,0%);fill-opacity:1;" d="M 30.53125 121.582031 C 26.808594 115.425781 22.890625 109.441406 17.996094 104.332031 C 22.890625 99.21875 26.808594 93.234375 30.53125 87.078125 C 34.253906 93.234375 38.171875 99.21875 43.066406 104.332031 C 38.171875 109.441406 34.253906 115.425781 30.53125 121.582031 Z M 30.53125 121.582031 "/>
<path style=" stroke:none;fill-rule:nonzero;fill:rgb(83.137255%,0%,0%);fill-opacity:1;" d="M 282.402344 140.082031 C 273.464844 125.304688 264.0625 110.941406 252.3125 98.675781 C 264.0625 86.40625 273.464844 72.046875 282.402344 57.269531 C 291.339844 72.046875 300.742188 86.40625 312.492188 98.675781 C 300.742188 110.941406 291.339844 125.304688 282.402344 140.082031 Z M 282.402344 140.082031 "/>
<path style=" stroke:none;fill-rule:nonzero;fill:rgb(83.137255%,0%,0%);fill-opacity:1;" d="M 355.863281 452.59375 C 352.140625 446.4375 348.222656 440.453125 343.328125 435.34375 C 348.222656 430.230469 352.140625 424.246094 355.863281 418.089844 C 359.589844 424.246094 363.503906 430.230469 368.402344 435.34375 C 363.503906 440.453125 359.589844 446.4375 355.863281 452.59375 Z M 355.863281 452.59375 "/>
<path style=" stroke:none;fill-rule:nonzero;fill:rgb(83.137255%,0%,0%);fill-opacity:1;" d="M 103.992188 140.082031 C 95.054688 125.304688 85.652344 110.941406 73.902344 98.675781 C 85.652344 86.40625 95.054688 72.046875 103.992188 57.269531 C 112.929688 72.046875 122.332031 86.40625 134.082031 98.675781 C 122.332031 110.941406 112.929688 125.304688 103.992188 140.082031 Z M 103.992188 140.082031 "/>
<path style=" stroke:none;fill-rule:nonzero;fill:rgb(83.137255%,0%,0%);fill-opacity:1;" d="M 282.402344 254.199219 C 273.464844 239.425781 264.0625 225.0625 252.3125 212.796875 C 264.0625 200.527344 273.464844 186.167969 282.402344 171.390625 C 291.339844 186.167969 300.742188 200.527344 312.492188 212.796875 C 300.742188 225.0625 291.339844 239.425781 282.402344 254.199219 Z M 282.402344 254.199219 "/>
<path style=" stroke:none;fill-rule:nonzero;fill:rgb(83.137255%,0%,0%);fill-opacity:1;" d="M 103.992188 254.199219 C 95.054688 239.425781 85.652344 225.0625 73.902344 212.796875 C 85.652344 200.527344 95.054688 186.167969 103.992188 171.390625 C 112.929688 186.167969 122.332031 200.527344 134.082031 212.796875 C 122.332031 225.0625 112.929688 239.425781 103.992188 254.199219 Z M 103.992188 254.199219 "/>
<path style=" stroke:none;fill-rule:nonzero;fill:rgb(83.137255%,0%,0%);fill-opacity:1;" d="M 193.195313 197.136719 C 184.261719 182.359375 174.859375 167.996094 163.109375 155.730469 C 174.859375 143.460938 184.261719 129.101563 193.195313 114.324219 C 202.132813 129.101563 211.535156 143.460938 223.285156 155.730469 C 211.535156 167.996094 202.132813 182.359375 193.195313 197.136719 Z M 193.195313 197.136719 "/>
<path style=" stroke:none;fill-rule:nonzero;fill:rgb(83.137255%,0%,0%);fill-opacity:1;" d="M 103.992188 482.414063 C 95.054688 467.636719 85.652344 453.277344 73.902344 441.007813 C 85.652344 428.738281 95.054688 414.378906 103.992188 399.601563 C 112.929688 414.378906 122.332031 428.738281 134.082031 441.007813 C 122.332031 453.277344 112.929688 467.636719 103.992188 482.414063 Z M 103.992188 482.414063 "/>
<path style=" stroke:none;fill-rule:nonzero;fill:rgb(83.137255%,0%,0%);fill-opacity:1;" d="M 282.402344 482.425781 C 273.464844 467.648438 264.0625 453.289063 252.3125 441.019531 C 264.0625 428.75 273.464844 414.390625 282.402344 399.613281 C 291.339844 414.390625 300.742188 428.75 312.492188 441.019531 C 300.742188 453.289063 291.339844 467.648438 282.402344 482.425781 Z M 282.402344 482.425781 "/>
<path style=" stroke:none;fill-rule:nonzero;fill:rgb(83.137255%,0%,0%);fill-opacity:1;" d="M 282.402344 368.292969 C 273.464844 353.519531 264.0625 339.15625 252.3125 326.890625 C 264.0625 314.621094 273.464844 300.257813 282.402344 285.484375 C 291.339844 300.257813 300.742188 314.621094 312.492188 326.890625 C 300.742188 339.15625 291.339844 353.519531 282.402344 368.292969 Z M 282.402344 368.292969 "/>
<path style=" stroke:none;fill-rule:nonzero;fill:rgb(83.137255%,0%,0%);fill-opacity:1;" d="M 103.992188 368.238281 C 95.054688 353.460938 85.652344 339.101563 73.902344 326.832031 C 85.652344 314.566406 95.054688 300.203125 103.992188 285.425781 C 112.929688 300.203125 122.332031 314.566406 134.082031 326.832031 C 122.332031 339.101563 112.929688 353.460938 103.992188 368.238281 Z M 103.992188 368.238281 "/>
<path style=" stroke:none;fill-rule:nonzero;fill:rgb(83.137255%,0%,0%);fill-opacity:1;" d="M 193.195313 425.351563 C 184.261719 410.574219 174.859375 396.214844 163.109375 383.945313 C 174.859375 371.675781 184.261719 357.316406 193.195313 342.539063 C 202.132813 357.316406 211.535156 371.675781 223.285156 383.945313 C 211.535156 396.214844 202.132813 410.574219 193.195313 425.351563 Z M 193.195313 425.351563 "/>
<path style=" stroke:none;fill-rule:nonzero;fill:rgb(83.137255%,0%,0%);fill-opacity:1;" d="M 13.265625 81.667969 L 13.265625 24.738281 L 18.777344 24.738281 L 18.777344 81.667969 Z M 13.265625 81.667969 "/>
<path style=" stroke:none;fill-rule:nonzero;fill:rgb(83.137255%,0%,0%);fill-opacity:1;" d="M 35.117188 24.738281 C 29.808594 24.738281 25.542969 29.589844 25.542969 35.617188 L 25.542969 70.789063 C 25.542969 76.816406 29.8125 81.667969 35.117188 81.667969 L 38.214844 81.667969 C 43.519531 81.667969 47.792969 76.816406 47.792969 70.789063 L 47.792969 35.617188 C 47.792969 29.589844 43.515625 24.738281 38.214844 24.738281 Z M 36.71875 30.121094 C 39.851563 30.121094 42.371094 32.527344 42.371094 35.535156 L 42.371094 71.175781 C 42.371094 74.183594 39.851563 76.613281 36.71875 76.613281 C 33.585938 76.613281 31.058594 74.183594 31.058594 71.175781 L 31.058594 35.535156 C 31.058594 32.527344 33.585938 30.121094 36.71875 30.121094 Z M 36.71875 30.121094 "/>
<path style=" stroke:none;fill-rule:nonzero;fill:rgb(83.137255%,0%,0%);fill-opacity:1;" d="M 373.125 458.003906 L 373.125 514.9375 L 367.613281 514.9375 L 367.613281 458.003906 Z M 373.125 458.003906 "/>
<path style=" stroke:none;fill-rule:nonzero;fill:rgb(83.137255%,0%,0%);fill-opacity:1;" d="M 351.273438 514.9375 C 356.582031 514.9375 360.84375 510.085938 360.84375 504.058594 L 360.84375 468.882813 C 360.84375 462.855469 356.578125 458.007813 351.273438 458.007813 L 348.175781 458.007813 C 342.871094 458.007813 338.597656 462.855469 338.597656 468.882813 L 338.597656 504.058594 C 338.597656 510.085938 342.875 514.9375 348.175781 514.9375 Z M 349.671875 509.554688 C 346.539063 509.554688 344.019531 507.148438 344.019531 504.140625 L 344.019531 468.5 C 344.019531 465.488281 346.539063 463.0625 349.671875 463.0625 C 352.804688 463.0625 355.332031 465.488281 355.332031 468.5 L 355.332031 504.140625 C 355.332031 507.144531 352.804688 509.554688 349.671875 509.554688 Z M 349.671875 509.554688 "/>
</g>
</svg>
