<?xml version="1.0" encoding="UTF-8"?>
<svg xmlns="http://www.w3.org/2000/svg" xmlns:xlink="http://www.w3.org/1999/xlink" width="386pt" height="540pt" viewBox="0 0 386 540" version="1.1">
<g id="surface1">
<path style="fill-rule:nonzero;fill:rgb(100%,100%,100%);fill-opacity:1;stroke-width:1.000567;stroke-linecap:butt;stroke-linejoin:miter;stroke:rgb(0%,0%,0%);stroke-opacity:1;stroke-miterlimit:4;" d="M 271.11051 370.275643 L 472.98349 370.275643 C 478.881795 370.275643 483.660283 375.050813 483.660283 380.939962 L 483.660283 671.421544 C 483.660283 677.312958 478.881795 682.085864 472.98349 682.085864 L 271.11051 682.085864 C 265.214473 682.085864 260.433718 677.312958 260.433718 671.421544 L 260.433718 380.939962 C 260.433718 375.050813 265.214473 370.275643 271.11051 370.275643 Z M 271.11051 370.275643 " transform="matrix(1.723218,0,0,1.725233,-447.920714,-637.94851)"/>
<path style=" stroke:none;fill-rule:nonzero;fill:rgb(83.137255%,0%,0%);fill-opacity:1;" d="M 103.992188 254.1875 C 103.992188 254.1875 95.953125 240.980469 85.105469 225.453125 C 77.847656 215.0625 72.046875 203.808594 71.507813 194.117188 C 70.890625 183.046875 76.746094 171.9375 87.347656 171.398438 C 97.941406 170.863281 102.242188 179.9375 103.992188 187.417969 C 105.742188 179.9375 110.042969 170.863281 120.640625 171.398438 C 131.242188 171.9375 137.097656 183.046875 136.476563 194.117188 C 135.9375 203.808594 130.136719 215.0625 122.882813 225.453125 C 112.035156 240.980469 103.992188 254.1875 103.992188 254.1875 Z M 103.992188 254.1875 "/>
<path style=" stroke:none;fill-rule:nonzero;fill:rgb(83.137255%,0%,0%);fill-opacity:1;" d="M 30.53125 121.582031 C 30.53125 121.582031 26.699219 116.082031 21.527344 109.609375 C 18.066406 105.28125 15.300781 100.59375 15.042969 96.554688 C 14.75 91.941406 17.539063 87.3125 22.59375 87.089844 C 27.644531 86.863281 29.695313 90.644531 30.53125 93.761719 C 31.367188 90.644531 33.417969 86.863281 38.46875 87.089844 C 43.523438 87.3125 46.3125 91.941406 46.019531 96.554688 C 45.761719 100.59375 42.996094 105.28125 39.535156 109.609375 C 34.363281 116.082031 30.53125 121.582031 30.53125 121.582031 Z M 30.53125 121.582031 "/>
<path style=" stroke:none;fill-rule:nonzero;fill:rgb(83.137255%,0%,0%);fill-opacity:1;" d="M 355.863281 418.089844 C 355.863281 418.089844 352.03125 423.59375 346.859375 430.0625 C 343.402344 434.394531 340.632813 439.082031 340.378906 443.121094 C 340.082031 447.734375 342.875 452.359375 347.929688 452.585938 C 352.980469 452.808594 355.03125 449.027344 355.863281 445.910156 C 356.699219 449.027344 358.75 452.808594 363.800781 452.585938 C 368.855469 452.359375 371.648438 447.734375 371.351563 443.121094 C 371.097656 439.082031 368.328125 434.394531 364.871094 430.0625 C 359.699219 423.59375 355.863281 418.089844 355.863281 418.089844 Z M 355.863281 418.089844 "/>
<path style=" stroke:none;fill-rule:nonzero;fill:rgb(83.137255%,0%,0%);fill-opacity:1;" d="M 193.199219 213.644531 C 193.199219 213.644531 185.15625 200.4375 174.308594 184.910156 C 167.054688 174.519531 161.25 163.265625 160.710938 153.574219 C 160.09375 142.503906 165.949219 131.394531 176.550781 130.855469 C 187.144531 130.320313 191.445313 139.394531 193.199219 146.875 C 194.949219 139.394531 199.25 130.320313 209.84375 130.855469 C 220.445313 131.394531 226.300781 142.503906 225.683594 153.574219 C 225.144531 163.265625 219.34375 174.519531 212.085938 184.910156 C 201.238281 200.4375 193.199219 213.644531 193.199219 213.644531 Z M 193.199219 213.644531 "/>
<path style=" stroke:none;fill-rule:nonzero;fill:rgb(83.137255%,0%,0%);fill-opacity:1;" d="M 103.992188 140.082031 C 103.992188 140.082031 95.953125 126.875 85.105469 111.34375 C 77.847656 100.953125 72.046875 89.699219 71.507813 80.007813 C 70.890625 68.9375 76.746094 57.832031 87.347656 57.292969 C 97.941406 56.753906 102.242188 65.828125 103.992188 73.308594 C 105.742188 65.828125 110.042969 56.753906 120.640625 57.292969 C 131.242188 57.832031 137.097656 68.9375 136.476563 80.007813 C 135.9375 89.699219 130.136719 100.953125 122.882813 111.34375 C 112.035156 126.875 103.992188 140.082031 103.992188 140.082031 Z M 103.992188 140.082031 "/>
<path style=" stroke:none;fill-rule:nonzero;fill:rgb(83.137255%,0%,0%);fill-opacity:1;" d="M 282.402344 254.1875 C 282.402344 254.1875 274.359375 240.980469 263.515625 225.453125 C 256.257813 215.0625 250.457031 203.808594 249.917969 194.117188 C 249.296875 183.046875 255.152344 171.9375 265.753906 171.398438 C 276.351563 170.863281 280.652344 179.9375 282.402344 187.417969 C 284.152344 179.9375 288.453125 170.863281 299.050781 171.398438 C 309.652344 171.9375 315.507813 183.046875 314.886719 194.117188 C 314.347656 203.808594 308.546875 215.0625 301.289063 225.453125 C 290.445313 240.980469 282.402344 254.1875 282.402344 254.1875 Z M 282.402344 254.1875 "/>
<path style=" stroke:none;fill-rule:nonzero;fill:rgb(83.137255%,0%,0%);fill-opacity:1;" d="M 282.402344 140.082031 C 282.402344 140.082031 274.359375 126.875 263.515625 111.34375 C 256.257813 100.953125 250.457031 89.699219 249.917969 80.007813 C 249.296875 68.9375 255.152344 57.832031 265.753906 57.292969 C 276.351563 56.753906 280.652344 65.828125 282.402344 73.308594 C 284.152344 65.828125 288.453125 56.753906 299.050781 57.292969 C 309.652344 57.832031 315.507813 68.9375 314.886719 80.007813 C 314.347656 89.699219 308.546875 100.953125 301.289063 111.34375 C 290.445313 126.875 282.402344 140.082031 282.402344 140.082031 Z M 282.402344 140.082031 "/>
<path style=" stroke:none;fill-rule:nonzero;fill:rgb(83.137255%,0%,0%);fill-opacity:1;" d="M 193.199219 326.027344 C 193.199219 326.027344 185.15625 339.234375 174.308594 354.765625 C 167.054688 365.15625 161.25 376.40625 160.710938 386.097656 C 160.09375 397.171875 165.949219 408.277344 176.550781 408.816406 C 187.144531 409.355469 191.445313 400.28125 193.199219 392.796875 C 194.949219 400.28125 199.25 409.355469 209.84375 408.816406 C 220.445313 408.277344 226.300781 397.171875 225.683594 386.097656 C 225.144531 376.40625 219.34375 365.15625 212.085938 354.765625 C 201.238281 339.234375 193.199219 326.027344 193.199219 326.027344 Z M 193.199219 326.027344 "/>
<path style=" stroke:none;fill-rule:nonzero;fill:rgb(83.137255%,0%,0%);fill-opacity:1;" d="M 282.402344 285.484375 C 282.402344 285.484375 274.359375 298.691406 263.515625 314.222656 C 256.257813 324.613281 250.457031 335.863281 249.917969 345.554688 C 249.296875 356.628906 255.152344 367.734375 265.753906 368.273438 C 276.351563 368.8125 280.652344 359.738281 282.402344 352.253906 C 284.152344 359.738281 288.453125 368.8125 299.050781 368.273438 C 309.652344 367.734375 315.507813 356.628906 314.886719 345.554688 C 314.347656 335.863281 308.546875 324.613281 301.289063 314.222656 C 290.445313 298.691406 282.402344 285.484375 282.402344 285.484375 Z M 282.402344 285.484375 "/>
<path style=" stroke:none;fill-rule:nonzero;fill:rgb(83.137255%,0%,0%);fill-opacity:1;" d="M 103.992188 285.484375 C 103.992188 285.484375 95.953125 298.691406 85.105469 314.222656 C 77.847656 324.613281 72.046875 335.863281 71.507813 345.554688 C 70.890625 356.628906 76.746094 367.734375 87.347656 368.273438 C 97.941406 368.8125 102.242188 359.738281 103.992188 352.253906 C 105.742188 359.738281 110.042969 368.8125 120.640625 368.273438 C 131.242188 367.734375 137.097656 356.628906 136.476563 345.554688 C 135.9375 335.863281 130.136719 324.613281 122.882813 314.222656 C 112.035156 298.691406 103.992188 285.484375 103.992188 285.484375 Z M 103.992188 285.484375 "/>
<path style=" stroke:none;fill-rule:nonzero;fill:rgb(83.137255%,0%,0%);fill-opacity:1;" d="M 282.402344 399.59375 C 282.402344 399.59375 274.359375 412.800781 263.515625 428.328125 C 256.257813 438.71875 250.457031 449.972656 249.917969 459.664063 C 249.296875 470.734375 255.152344 481.84375 265.753906 482.378906 C 276.351563 482.917969 280.652344 473.84375 282.402344 466.363281 C 284.152344 473.84375 288.453125 482.917969 299.050781 482.378906 C 309.652344 481.84375 315.507813 470.734375 314.886719 459.664063 C 314.347656 449.972656 308.546875 438.71875 301.289063 428.328125 C 290.445313 412.800781 282.402344 399.59375 282.402344 399.59375 Z M 282.402344 399.59375 "/>
<path style=" stroke:none;fill-rule:nonzero;fill:rgb(83.137255%,0%,0%);fill-opacity:1;" d="M 103.992188 399.59375 C 103.992188 399.59375 95.953125 412.800781 85.105469 428.328125 C 77.847656 438.71875 72.046875 449.972656 71.507813 459.664063 C 70.890625 470.734375 76.746094 481.84375 87.347656 482.378906 C 97.941406 482.917969 102.242188 473.84375 103.992188 466.363281 C 105.742188 473.84375 110.042969 482.917969 120.640625 482.378906 C 131.242188 481.84375 137.097656 470.734375 136.476563 459.664063 C 135.9375 449.972656 130.136719 438.71875 122.882813 428.328125 C 112.035156 412.800781 103.992188 399.59375 103.992188 399.59375 Z M 103.992188 399.59375 "/>
<path style=" stroke:none;fill-rule:nonzero;fill:rgb(83.137255%,0%,0%);fill-opacity:1;" d="M 13.265625 81.667969 L 13.265625 24.738281 L 18.777344 24.738281 L 18.777344 81.667969 Z M 13.265625 81.667969 "/>
<path style=" stroke:none;fill-rule:nonzero;fill:rgb(83.137255%,0%,0%);fill-opacity:1;" d="M 35.117188 24.738281 C 29.808594 24.738281 25.542969 29.589844 25.542969 35.617188 L 25.542969 70.789063 C 25.542969 76.816406 29.8125 81.667969 35.117188 81.667969 L 38.214844 81.667969 C 43.519531 81.667969 47.792969 76.816406 47.792969 70.789063 L 47.792969 35.617188 C 47.792969 29.589844 43.515625 24.738281 38.214844 24.738281 Z M 36.71875 30.121094 C 39.851563 30.121094 42.371094 32.527344 42.371094 35.535156 L 42.371094 71.175781 C 42.371094 74.183594 39.851563 76.613281 36.71875 76.613281 C 33.585938 76.613281 31.058594 74.183594 31.058594 71.175781 L 31.058594 35.535156 C 31.058594 32.527344 33.585938 30.121094 36.71875 30.121094 Z M 36.71875 30.121094 "/>
<path style=" stroke:none;fill-rule:nonzero;fill:rgb(83.137255%,0%,0%);fill-opacity:1;" d="M 373.128906 458.003906 L 373.128906 514.9375 L 367.613281 514.9375 L 367.613281 458.003906 Z M 373.128906 458.003906 "/>
<path style=" stroke:none;fill-rule:nonzero;fill:rgb(83.137255%,0%,0%);fill-opacity:1;" d="M 351.277344 514.9375 C 356.582031 514.9375 360.847656 510.085938 360.847656 504.058594 L 360.847656 468.882813 C 360.847656 462.855469 356.578125 458.003906 351.277344 458.003906 L 348.179688 458.003906 C 342.871094 458.003906 338.597656 462.855469 338.597656 468.882813 L 338.597656 504.058594 C 338.597656 510.085938 342.875 514.9375 348.179688 514.9375 Z M 349.671875 509.554688 C 346.539063 509.554688 344.023438 507.148438 344.023438 504.136719 L 344.023438 468.5 C 344.023438 465.488281 346.539063 463.0625 349.671875 463.0625 C 352.804688 463.0625 355.335938 465.488281 355.335938 468.5 L 355.335938 504.136719 C 355.335938 507.144531 352.804688 509.554688 349.671875 509.554688 Z M 349.671875 509.554688 "/>
</g>
</svg>
