<?xml version="1.0" encoding="UTF-8"?>
<svg xmlns="http://www.w3.org/2000/svg" xmlns:xlink="http://www.w3.org/1999/xlink" width="386pt" height="540pt" viewBox="0 0 386 540" version="1.1">
<g id="surface1">
<path style="fill-rule:nonzero;fill:rgb(100%,100%,100%);fill-opacity:1;stroke-width:1.000567;stroke-linecap:butt;stroke-linejoin:miter;stroke:rgb(0%,0%,0%);stroke-opacity:1;stroke-miterlimit:4;" d="M 3269.236551 -471.408105 L 3471.109531 -471.408105 C 3477.007836 -471.408105 3481.786324 -466.632935 3481.786324 -460.743785 L 3481.786324 -170.262203 C 3481.786324 -164.370789 3477.007836 -159.597883 3471.109531 -159.597883 L 3269.236551 -159.597883 C 3263.340514 -159.597883 3258.559759 -164.370789 3258.559759 -170.262203 L 3258.559759 -460.743785 C 3258.559759 -466.632935 3263.340514 -471.408105 3269.236551 -471.408105 Z M 3269.236551 -471.408105 " transform="matrix(1.723218,0,0,1.725233,-5614.344597,814.152143)"/>
<path style=" stroke:none;fill-rule:nonzero;fill:rgb(0%,0%,0%);fill-opacity:1;" d="M 103.992188 57.269531 C 88.09375 79.96875 71.082031 93.03125 70.800781 110.738281 C 70.707031 116.476563 73.800781 126.222656 83.503906 128.085938 C 89.796875 129.292969 98.460938 124.191406 98.640625 113.832031 C 98.613281 111.769531 100.824219 111.824219 100.800781 114.648438 C 100.503906 122.820313 97.921875 132.335938 93.578125 140.082031 C 100.523438 140.082031 107.464844 140.082031 114.40625 140.082031 C 110.0625 132.335938 107.480469 122.820313 107.183594 114.648438 C 107.164063 111.824219 109.371094 111.769531 109.34375 113.832031 C 109.523438 124.191406 118.191406 129.292969 124.484375 128.085938 C 134.183594 126.222656 137.28125 116.476563 137.183594 110.738281 C 136.902344 93.03125 119.890625 79.96875 103.992188 57.269531 Z M 103.992188 57.269531 "/>
<path style=" stroke:none;fill-rule:nonzero;fill:rgb(0%,0%,0%);fill-opacity:1;" d="M 30.53125 87.078125 C 23.101563 96.535156 15.15625 101.980469 15.023438 109.359375 C 14.976563 111.746094 16.425781 115.808594 20.957031 116.585938 C 23.898438 117.089844 27.945313 114.964844 28.03125 110.644531 C 28.015625 109.785156 29.050781 109.808594 29.039063 110.988281 C 28.902344 114.390625 27.695313 118.355469 25.664063 121.582031 C 28.910156 121.582031 32.152344 121.582031 35.394531 121.582031 C 33.367188 118.355469 32.160156 114.390625 32.023438 110.988281 C 32.003906 109.808594 33.042969 109.785156 33.03125 110.644531 C 33.117188 114.964844 37.164063 117.089844 40.105469 116.585938 C 44.636719 115.808594 46.082031 111.746094 46.039063 109.359375 C 45.90625 101.980469 37.960938 96.535156 30.53125 87.078125 Z M 30.53125 87.078125 "/>
<path style=" stroke:none;fill-rule:nonzero;fill:rgb(0%,0%,0%);fill-opacity:1;" d="M 103.992188 368.296875 C 88.09375 345.597656 71.082031 332.535156 70.800781 314.824219 C 70.707031 309.089844 73.800781 299.34375 83.503906 297.476563 C 89.796875 296.273438 98.460938 301.371094 98.640625 311.734375 C 98.613281 313.796875 100.824219 313.742188 100.800781 310.914063 C 100.503906 302.742188 97.921875 293.230469 93.578125 285.484375 C 100.523438 285.484375 107.464844 285.484375 114.40625 285.484375 C 110.0625 293.230469 107.480469 302.742188 107.183594 310.914063 C 107.164063 313.742188 109.371094 313.796875 109.34375 311.734375 C 109.523438 301.371094 118.191406 296.273438 124.484375 297.476563 C 134.183594 299.34375 137.28125 309.089844 137.183594 314.824219 C 136.902344 332.535156 119.890625 345.597656 103.992188 368.296875 Z M 103.992188 368.296875 "/>
<path style=" stroke:none;fill-rule:nonzero;fill:rgb(0%,0%,0%);fill-opacity:1;" d="M 355.863281 452.59375 C 348.4375 443.136719 340.488281 437.695313 340.355469 430.316406 C 340.3125 427.925781 341.757813 423.863281 346.292969 423.085938 C 349.230469 422.585938 353.28125 424.710938 353.363281 429.027344 C 353.347656 429.886719 354.382813 429.863281 354.375 428.6875 C 354.238281 425.28125 353.027344 421.316406 351 418.089844 C 354.242188 418.089844 357.488281 418.089844 360.730469 418.089844 C 358.703125 421.316406 357.496094 425.28125 357.355469 428.6875 C 357.339844 429.863281 358.378906 429.886719 358.367188 429.027344 C 358.449219 424.710938 362.5 422.585938 365.4375 423.085938 C 369.96875 423.863281 371.417969 427.925781 371.375 430.316406 C 371.242188 437.695313 363.292969 443.136719 355.863281 452.59375 Z M 355.863281 452.59375 "/>
<path style=" stroke:none;fill-rule:nonzero;fill:rgb(0%,0%,0%);fill-opacity:1;" d="M 282.402344 57.269531 C 266.503906 79.96875 249.492188 93.03125 249.210938 110.738281 C 249.117188 116.476563 252.210938 126.222656 261.914063 128.085938 C 268.207031 129.292969 276.871094 124.191406 277.050781 113.832031 C 277.023438 111.769531 279.230469 111.824219 279.210938 114.648438 C 278.914063 122.820313 276.332031 132.335938 271.988281 140.082031 C 278.929688 140.082031 285.875 140.082031 292.816406 140.082031 C 288.472656 132.335938 285.890625 122.820313 285.59375 114.648438 C 285.574219 111.824219 287.78125 111.769531 287.753906 113.832031 C 287.933594 124.191406 296.597656 129.292969 302.890625 128.085938 C 312.59375 126.222656 315.6875 116.476563 315.59375 110.738281 C 315.3125 93.03125 298.300781 79.96875 282.402344 57.269531 Z M 282.402344 57.269531 "/>
<path style=" stroke:none;fill-rule:nonzero;fill:rgb(0%,0%,0%);fill-opacity:1;" d="M 103.992188 171.378906 C 88.09375 194.074219 71.082031 207.136719 70.800781 224.847656 C 70.707031 230.582031 73.800781 240.328125 83.503906 242.195313 C 89.796875 243.398438 98.460938 238.300781 98.640625 227.941406 C 98.613281 225.878906 100.824219 225.929688 100.800781 228.757813 C 100.503906 236.929688 97.921875 246.445313 93.578125 254.1875 C 100.523438 254.1875 107.464844 254.1875 114.40625 254.1875 C 110.0625 246.445313 107.480469 236.929688 107.183594 228.757813 C 107.164063 225.929688 109.371094 225.878906 109.34375 227.941406 C 109.523438 238.300781 118.191406 243.398438 124.484375 242.195313 C 134.183594 240.328125 137.28125 230.582031 137.183594 224.847656 C 136.902344 207.136719 119.890625 194.074219 103.992188 171.378906 Z M 103.992188 171.378906 "/>
<path style=" stroke:none;fill-rule:nonzero;fill:rgb(0%,0%,0%);fill-opacity:1;" d="M 193.199219 130.835938 C 177.300781 153.53125 160.289063 166.59375 160.003906 184.304688 C 159.910156 190.039063 163.007813 199.785156 172.707031 201.652344 C 179 202.855469 187.664063 197.757813 187.847656 187.398438 C 187.820313 185.335938 190.027344 185.386719 190.007813 188.214844 C 189.710938 196.386719 187.125 205.902344 182.785156 213.644531 C 189.726563 213.644531 196.667969 213.644531 203.609375 213.644531 C 199.269531 205.902344 196.683594 196.386719 196.386719 188.214844 C 196.367188 185.386719 198.578125 185.335938 198.550781 187.398438 C 198.730469 197.757813 207.394531 202.855469 213.6875 201.652344 C 223.386719 199.785156 226.484375 190.039063 226.390625 184.304688 C 226.105469 166.59375 209.097656 153.53125 193.199219 130.835938 Z M 193.199219 130.835938 "/>
<path style=" stroke:none;fill-rule:nonzero;fill:rgb(0%,0%,0%);fill-opacity:1;" d="M 282.402344 171.378906 C 266.503906 194.074219 249.492188 207.136719 249.210938 224.847656 C 249.117188 230.582031 252.210938 240.328125 261.914063 242.195313 C 268.207031 243.398438 276.871094 238.300781 277.050781 227.941406 C 277.023438 225.878906 279.230469 225.929688 279.210938 228.757813 C 278.914063 236.929688 276.332031 246.445313 271.988281 254.1875 C 278.929688 254.1875 285.875 254.1875 292.816406 254.1875 C 288.472656 246.445313 285.890625 236.929688 285.59375 228.757813 C 285.574219 225.929688 287.78125 225.878906 287.753906 227.941406 C 287.933594 238.300781 296.597656 243.398438 302.890625 242.195313 C 312.59375 240.328125 315.6875 230.582031 315.59375 224.847656 C 315.3125 207.136719 298.300781 194.074219 282.402344 171.378906 Z M 282.402344 171.378906 "/>
<path style=" stroke:none;fill-rule:nonzero;fill:rgb(0%,0%,0%);fill-opacity:1;" d="M 103.992188 482.402344 C 88.09375 459.703125 71.082031 446.640625 70.800781 428.933594 C 70.707031 423.199219 73.800781 413.453125 83.503906 411.585938 C 89.796875 410.382813 98.460938 415.480469 98.640625 425.839844 C 98.613281 427.902344 100.824219 427.851563 100.800781 425.023438 C 100.503906 416.851563 97.921875 407.335938 93.578125 399.59375 C 100.523438 399.59375 107.464844 399.59375 114.40625 399.59375 C 110.0625 407.335938 107.480469 416.851563 107.183594 425.023438 C 107.164063 427.851563 109.371094 427.902344 109.34375 425.839844 C 109.523438 415.480469 118.191406 410.382813 124.484375 411.585938 C 134.183594 413.453125 137.28125 423.199219 137.183594 428.933594 C 136.902344 446.640625 119.890625 459.703125 103.992188 482.402344 Z M 103.992188 482.402344 "/>
<path style=" stroke:none;fill-rule:nonzero;fill:rgb(0%,0%,0%);fill-opacity:1;" d="M 282.402344 482.402344 C 266.503906 459.703125 249.492188 446.640625 249.210938 428.933594 C 249.117188 423.199219 252.210938 413.453125 261.914063 411.585938 C 268.207031 410.382813 276.871094 415.480469 277.050781 425.839844 C 277.023438 427.902344 279.230469 427.851563 279.210938 425.023438 C 278.914063 416.851563 276.332031 407.335938 271.988281 399.59375 C 278.929688 399.59375 285.875 399.59375 292.816406 399.59375 C 288.472656 407.335938 285.890625 416.851563 285.59375 425.023438 C 285.574219 427.851563 287.78125 427.902344 287.753906 425.839844 C 287.933594 415.480469 296.597656 410.382813 302.890625 411.585938 C 312.59375 413.453125 315.6875 423.199219 315.59375 428.933594 C 315.3125 446.640625 298.300781 459.703125 282.402344 482.402344 Z M 282.402344 482.402344 "/>
<path style=" stroke:none;fill-rule:nonzero;fill:rgb(0%,0%,0%);fill-opacity:1;" d="M 193.199219 408.839844 C 177.300781 386.140625 160.289063 373.078125 160.003906 355.367188 C 159.910156 349.632813 163.007813 339.886719 172.707031 338.019531 C 179 336.816406 187.664063 341.917969 187.847656 352.277344 C 187.820313 354.339844 190.027344 354.285156 190.007813 351.457031 C 189.710938 343.285156 187.125 333.773438 182.785156 326.027344 C 189.726563 326.027344 196.667969 326.027344 203.609375 326.027344 C 199.269531 333.773438 196.683594 343.285156 196.386719 351.457031 C 196.367188 354.285156 198.578125 354.339844 198.550781 352.277344 C 198.730469 341.917969 207.394531 336.816406 213.6875 338.019531 C 223.386719 339.886719 226.484375 349.632813 226.390625 355.367188 C 226.105469 373.078125 209.097656 386.140625 193.199219 408.839844 Z M 193.199219 408.839844 "/>
<path style=" stroke:none;fill-rule:nonzero;fill:rgb(0%,0%,0%);fill-opacity:1;" d="M 282.402344 368.296875 C 266.503906 345.597656 249.492188 332.535156 249.210938 314.824219 C 249.117188 309.089844 252.210938 299.34375 261.914063 297.476563 C 268.207031 296.273438 276.871094 301.375 277.050781 311.734375 C 277.023438 313.796875 279.230469 313.742188 279.210938 310.914063 C 278.914063 302.742188 276.332031 293.230469 271.988281 285.484375 C 278.929688 285.484375 285.875 285.484375 292.816406 285.484375 C 288.472656 293.230469 285.890625 302.742188 285.59375 310.914063 C 285.574219 313.742188 287.78125 313.796875 287.753906 311.734375 C 287.933594 301.375 296.597656 296.273438 302.890625 297.476563 C 312.59375 299.34375 315.6875 309.089844 315.59375 314.824219 C 315.3125 332.535156 298.300781 345.597656 282.402344 368.296875 Z M 282.402344 368.296875 "/>
<path style=" stroke:none;fill-rule:nonzero;fill:rgb(0%,0%,0%);fill-opacity:1;" d="M 13.265625 81.667969 L 13.265625 24.738281 L 18.777344 24.738281 L 18.777344 81.667969 Z M 13.265625 81.667969 "/>
<path style=" stroke:none;fill-rule:nonzero;fill:rgb(0%,0%,0%);fill-opacity:1;" d="M 35.117188 24.738281 C 29.808594 24.738281 25.542969 29.589844 25.542969 35.617188 L 25.542969 70.789063 C 25.542969 76.816406 29.8125 81.667969 35.117188 81.667969 L 38.214844 81.667969 C 43.519531 81.667969 47.792969 76.816406 47.792969 70.789063 L 47.792969 35.617188 C 47.792969 29.589844 43.515625 24.738281 38.214844 24.738281 Z M 36.71875 30.121094 C 39.851563 30.121094 42.371094 32.527344 42.371094 35.535156 L 42.371094 71.175781 C 42.371094 74.183594 39.851563 76.613281 36.71875 76.613281 C 33.585938 76.613281 31.058594 74.183594 31.058594 71.175781 L 31.058594 35.535156 C 31.058594 32.527344 33.585938 30.121094 36.71875 30.121094 Z M 36.71875 30.121094 "/>
<path style=" stroke:none;fill-rule:nonzero;fill:rgb(0%,0%,0%);fill-opacity:1;" d="M 373.128906 458.003906 L 373.128906 514.9375 L 367.613281 514.9375 L 367.613281 458.003906 Z M 373.128906 458.003906 "/>
<path style=" stroke:none;fill-rule:nonzero;fill:rgb(0%,0%,0%);fill-opacity:1;" d="M 351.273438 514.9375 C 356.582031 514.9375 360.847656 510.085938 360.847656 504.058594 L 360.847656 468.882813 C 360.847656 462.855469 356.578125 458.003906 351.273438 458.003906 L 348.179688 458.003906 C 342.871094 458.003906 338.597656 462.855469 338.597656 468.882813 L 338.597656 504.058594 C 338.597656 510.085938 342.875 514.9375 348.179688 514.9375 Z M 349.671875 509.554688 C 346.539063 509.554688 344.023438 507.148438 344.023438 504.136719 L 344.023438 468.5 C 344.023438 465.488281 346.539063 463.0625 349.671875 463.0625 C 352.804688 463.0625 355.335938 465.488281 355.335938 468.5 L 355.335938 504.136719 C 355.335938 507.144531 352.804688 509.554688 349.671875 509.554688 Z M 349.671875 509.554688 "/>
</g>
</svg>
