<?xml version="1.0" encoding="UTF-8"?>
<svg xmlns="http://www.w3.org/2000/svg" xmlns:xlink="http://www.w3.org/1999/xlink" width="386pt" height="540pt" viewBox="0 0 386 540" version="1.1">
<g id="surface1">
<path style="fill-rule:nonzero;fill:rgb(100%,100%,100%);fill-opacity:1;stroke-width:0.996732;stroke-linecap:butt;stroke-linejoin:miter;stroke:rgb(0%,0%,0%);stroke-opacity:1;stroke-miterlimit:4;" d="M 474.162959 -1088.369139 L 675.135702 -1088.369139 C 681.005447 -1088.369139 685.764882 -1083.609252 685.764882 -1077.738951 L 685.764882 -788.184834 C 685.764882 -782.314533 681.005447 -777.556904 675.135702 -777.556904 L 474.162959 -777.556904 C 468.293215 -777.556904 463.533779 -782.314533 463.533779 -788.184834 L 463.533779 -1077.738951 C 463.533779 -1083.609252 468.293215 -1088.369139 474.162959 -1088.369139 Z M 474.162959 -1088.369139 " transform="matrix(1.730937,0,0,1.730773,-801.484343,1884.582811)"/>
<path style=" stroke:none;fill-rule:nonzero;fill:rgb(0%,0%,0%);fill-opacity:1;" d="M 193.191406 229.148438 C 176.269531 229.515625 168.683594 248.5625 181.214844 263.355469 C 183.03125 265.511719 183.21875 266.75 179.890625 264.675781 C 171.457031 259.035156 155.277344 262.746094 154.449219 279.988281 C 153.425781 301.238281 183.121094 307.359375 188.695313 284.765625 C 188.988281 282.382813 190.925781 282.4375 190.460938 285.820313 C 189.953125 295.003906 187.082031 303.589844 183.140625 311.960938 C 189.785156 311.960938 197.210938 311.960938 203.253906 311.960938 C 199.3125 303.589844 196.441406 295.003906 195.933594 285.820313 C 195.46875 282.4375 197.40625 282.382813 197.699219 284.765625 C 203.273438 307.359375 232.96875 301.238281 231.945313 279.988281 C 231.117188 262.746094 214.9375 259.035156 206.503906 264.675781 C 203.175781 266.75 203.363281 265.511719 205.179688 263.355469 C 217.710938 248.5625 210.125 229.515625 193.203125 229.148438 C 193.203125 229.148438 193.203125 229.148438 193.1875 229.148438 Z M 193.191406 229.148438 "/>
<path style=" stroke:none;fill-rule:nonzero;fill:rgb(0%,0%,0%);fill-opacity:1;" d="M 355.867188 452.59375 C 362.636719 452.441406 365.667969 444.503906 360.65625 438.34375 C 359.929688 437.445313 359.855469 436.925781 361.1875 437.792969 C 364.5625 440.140625 371.03125 438.597656 371.363281 431.410156 C 371.773438 422.558594 359.894531 420.007813 357.664063 429.421875 C 357.546875 430.414063 356.773438 430.390625 356.960938 428.980469 C 357.164063 425.15625 358.308594 421.578125 359.886719 418.089844 C 357.207031 418.089844 354.523438 418.089844 351.84375 418.089844 C 353.417969 421.578125 354.566406 425.15625 354.769531 428.980469 C 354.957031 430.390625 354.183594 430.414063 354.0625 429.421875 C 351.835938 420.007813 339.957031 422.558594 340.367188 431.410156 C 340.699219 438.597656 347.167969 440.140625 350.542969 437.792969 C 351.875 436.925781 351.800781 437.445313 351.070313 438.34375 C 346.058594 444.503906 349.09375 452.441406 355.863281 452.59375 Z M 355.867188 452.59375 "/>
<path style=" stroke:none;fill-rule:nonzero;fill:rgb(0%,0%,0%);fill-opacity:1;" d="M 13.136719 81.667969 L 13.136719 76.800781 L 17.777344 76.800781 L 27.660156 24.734375 L 33.285156 24.734375 L 44.171875 76.800781 L 47.921875 76.800781 L 47.921875 81.667969 L 35.152344 81.667969 L 35.152344 76.800781 L 38.597656 76.800781 L 37.222656 68.820313 L 24.34375 68.820313 L 23.351563 76.800781 L 26.796875 76.800781 L 26.796875 81.667969 Z M 36.125 63.136719 L 30.527344 35.273438 L 25.28125 63.136719 Z M 36.125 63.136719 "/>
<path style=" stroke:none;fill-rule:nonzero;fill:rgb(0%,0%,0%);fill-opacity:1;" d="M 338.472656 458.003906 L 338.472656 462.871094 L 343.109375 462.871094 L 352.996094 514.9375 L 358.621094 514.9375 L 369.507813 462.871094 L 373.253906 462.871094 L 373.253906 458.003906 L 360.488281 458.003906 L 360.488281 462.871094 L 363.933594 462.871094 L 362.554688 470.851563 L 349.679688 470.851563 L 348.683594 462.871094 L 352.128906 462.871094 L 352.128906 458.003906 Z M 361.457031 476.535156 L 355.859375 504.402344 L 350.613281 476.535156 Z M 361.457031 476.535156 "/>
<path style=" stroke:none;fill-rule:nonzero;fill:rgb(0%,0%,0%);fill-opacity:1;" d="M 30.527344 87.078125 C 23.761719 87.230469 20.726563 95.167969 25.738281 101.332031 C 26.464844 102.230469 26.539063 102.746094 25.210938 101.882813 C 21.835938 99.53125 15.363281 101.078125 15.035156 108.261719 C 14.625 117.117188 26.5 119.667969 28.730469 110.253906 C 28.847656 109.257813 29.625 109.28125 29.4375 110.691406 C 29.234375 114.519531 28.085938 118.09375 26.507813 121.582031 C 29.191406 121.582031 31.871094 121.582031 34.554688 121.582031 C 32.976563 118.09375 31.828125 114.519531 31.625 110.691406 C 31.441406 109.28125 32.214844 109.257813 32.332031 110.253906 C 34.5625 119.667969 46.4375 117.117188 46.03125 108.261719 C 45.699219 101.078125 39.226563 99.53125 35.855469 101.882813 C 34.523438 102.746094 34.597656 102.230469 35.324219 101.332031 C 40.335938 95.167969 37.300781 87.230469 30.535156 87.078125 C 30.53125 87.078125 30.535156 87.078125 30.535156 87.078125 Z M 30.527344 87.078125 "/>
</g>
</svg>
