<?xml version="1.0" encoding="UTF-8"?>
<svg xmlns="http://www.w3.org/2000/svg" xmlns:xlink="http://www.w3.org/1999/xlink" width="386pt" height="540pt" viewBox="0 0 386 540" version="1.1">
<g id="surface1">
<path style="fill-rule:nonzero;fill:rgb(100%,100%,100%);fill-opacity:1;stroke-width:1.000567;stroke-linecap:butt;stroke-linejoin:miter;stroke:rgb(0%,0%,0%);stroke-opacity:1;stroke-miterlimit:4;" d="M 473.712854 -30.444837 L 675.586397 -30.444837 C 681.482451 -30.444837 686.263219 -25.669677 686.263219 -19.780539 L 686.263219 270.702724 C 686.263219 276.591862 681.482451 281.367023 675.586397 281.367023 L 473.712854 281.367023 C 467.8168 281.367023 463.036032 276.591862 463.036032 270.702724 L 463.036032 -19.780539 C 463.036032 -25.669677 467.8168 -30.444837 473.712854 -30.444837 Z M 473.712854 -30.444837 " transform="matrix(1.723213,0,0,1.725237,-797.046381,53.387827)"/>
<path style=" stroke:none;fill-rule:nonzero;fill:rgb(83.137255%,0%,0%);fill-opacity:1;" d="M 30.53125 121.582031 C 26.808594 115.425781 22.890625 109.441406 17.996094 104.332031 C 22.890625 99.21875 26.808594 93.234375 30.53125 87.078125 C 34.253906 93.234375 38.171875 99.21875 43.066406 104.332031 C 38.171875 109.441406 34.253906 115.425781 30.53125 121.582031 Z M 30.53125 121.582031 "/>
<path style=" stroke:none;fill-rule:nonzero;fill:rgb(83.137255%,0%,0%);fill-opacity:1;" d="M 355.863281 452.59375 C 352.140625 446.4375 348.222656 440.453125 343.328125 435.34375 C 348.222656 430.230469 352.140625 424.246094 355.863281 418.089844 C 359.589844 424.246094 363.503906 430.230469 368.402344 435.34375 C 363.503906 440.453125 359.589844 446.4375 355.863281 452.59375 Z M 355.863281 452.59375 "/>
<path style=" stroke:none;fill-rule:nonzero;fill:rgb(83.137255%,0%,0%);fill-opacity:1;" d="M 193.195313 311.242188 C 184.261719 296.464844 174.859375 282.105469 163.109375 269.835938 C 174.859375 257.570313 184.261719 243.207031 193.195313 228.429688 C 202.132813 243.207031 211.535156 257.570313 223.285156 269.835938 C 211.535156 282.105469 202.132813 296.464844 193.195313 311.242188 Z M 193.195313 311.242188 "/>
<path style=" stroke:none;fill-rule:nonzero;fill:rgb(83.137255%,0%,0%);fill-opacity:1;" d="M 13.136719 81.667969 L 13.136719 76.800781 L 17.777344 76.800781 L 27.660156 24.738281 L 33.285156 24.738281 L 44.171875 76.800781 L 47.917969 76.800781 L 47.917969 81.667969 L 35.152344 81.667969 L 35.152344 76.800781 L 38.597656 76.800781 L 37.222656 68.824219 L 24.34375 68.824219 L 23.347656 76.800781 L 26.792969 76.800781 L 26.792969 81.667969 Z M 36.125 63.140625 L 30.523438 35.273438 L 25.28125 63.140625 Z M 36.125 63.140625 "/>
<path style=" stroke:none;fill-rule:nonzero;fill:rgb(83.137255%,0%,0%);fill-opacity:1;" d="M 338.472656 458.003906 L 338.472656 462.871094 L 343.109375 462.871094 L 352.992188 514.9375 L 358.617188 514.9375 L 369.507813 462.871094 L 373.253906 462.871094 L 373.253906 458.003906 L 360.488281 458.003906 L 360.488281 462.871094 L 363.933594 462.871094 L 362.554688 470.851563 L 349.675781 470.851563 L 348.683594 462.871094 L 352.128906 462.871094 L 352.128906 458.003906 Z M 361.457031 476.535156 L 355.859375 504.402344 L 350.613281 476.535156 Z M 361.457031 476.535156 "/>
</g>
</svg>
