<?xml version="1.0" encoding="UTF-8"?>
<svg xmlns="http://www.w3.org/2000/svg" xmlns:xlink="http://www.w3.org/1999/xlink" width="386pt" height="540pt" viewBox="0 0 386 540" version="1.1">
<g id="surface1">
<path style="fill-rule:nonzero;fill:rgb(100%,100%,100%);fill-opacity:1;stroke-width:1.000567;stroke-linecap:butt;stroke-linejoin:miter;stroke:rgb(0%,0%,0%);stroke-opacity:1;stroke-miterlimit:4;" d="M 271.110522 370.275643 L 472.983502 370.275643 C 478.881806 370.275643 483.660294 375.050813 483.660294 380.939962 L 483.660294 671.421544 C 483.660294 677.312958 478.881806 682.085864 472.983502 682.085864 L 271.110522 682.085864 C 265.214484 682.085864 260.433729 677.312958 260.433729 671.421544 L 260.433729 380.939962 C 260.433729 375.050813 265.214484 370.275643 271.110522 370.275643 Z M 271.110522 370.275643 " transform="matrix(1.723218,0,0,1.725233,-447.920733,-637.94851)"/>
<path style=" stroke:none;fill-rule:nonzero;fill:rgb(83.137255%,0%,0%);fill-opacity:1;" d="M 30.53125 121.582031 C 30.53125 121.582031 26.699219 116.082031 21.527344 109.609375 C 18.066406 105.28125 15.300781 100.59375 15.042969 96.554688 C 14.75 91.941406 17.539063 87.3125 22.59375 87.089844 C 27.644531 86.863281 29.695313 90.644531 30.53125 93.761719 C 31.367188 90.644531 33.417969 86.863281 38.46875 87.089844 C 43.523438 87.3125 46.3125 91.941406 46.019531 96.554688 C 45.761719 100.59375 42.996094 105.28125 39.535156 109.609375 C 34.363281 116.082031 30.53125 121.582031 30.53125 121.582031 Z M 30.53125 121.582031 "/>
<path style=" stroke:none;fill-rule:nonzero;fill:rgb(83.137255%,0%,0%);fill-opacity:1;" d="M 355.867188 418.089844 C 355.867188 418.089844 352.03125 423.59375 346.859375 430.0625 C 343.402344 434.394531 340.636719 439.082031 340.378906 443.121094 C 340.082031 447.734375 342.875 452.359375 347.929688 452.585938 C 352.980469 452.808594 355.03125 449.027344 355.867188 445.910156 C 356.699219 449.027344 358.75 452.808594 363.800781 452.585938 C 368.855469 452.359375 371.648438 447.734375 371.351563 443.121094 C 371.097656 439.082031 368.328125 434.394531 364.871094 430.0625 C 359.699219 423.59375 355.867188 418.089844 355.867188 418.089844 Z M 355.867188 418.089844 "/>
<path style=" stroke:none;fill-rule:nonzero;fill:rgb(83.137255%,0%,0%);fill-opacity:1;" d="M 193.199219 311.242188 C 193.199219 311.242188 185.15625 298.035156 174.308594 282.507813 C 167.054688 272.113281 161.25 260.863281 160.710938 251.171875 C 160.09375 240.097656 165.949219 228.992188 176.550781 228.453125 C 187.144531 227.914063 191.445313 236.992188 193.199219 244.472656 C 194.949219 236.992188 199.25 227.914063 209.84375 228.453125 C 220.445313 228.992188 226.300781 240.097656 225.683594 251.171875 C 225.144531 260.863281 219.34375 272.113281 212.085938 282.507813 C 201.238281 298.035156 193.199219 311.242188 193.199219 311.242188 Z M 193.199219 311.242188 "/>
<path style=" stroke:none;fill-rule:nonzero;fill:rgb(83.137255%,0%,0%);fill-opacity:1;" d="M 13.136719 81.667969 L 13.136719 76.800781 L 17.777344 76.800781 L 27.660156 24.738281 L 33.285156 24.738281 L 44.171875 76.800781 L 47.917969 76.800781 L 47.917969 81.667969 L 35.152344 81.667969 L 35.152344 76.800781 L 38.597656 76.800781 L 37.222656 68.824219 L 24.34375 68.824219 L 23.347656 76.800781 L 26.792969 76.800781 L 26.792969 81.667969 Z M 36.125 63.140625 L 30.523438 35.273438 L 25.28125 63.140625 Z M 36.125 63.140625 "/>
<path style=" stroke:none;fill-rule:nonzero;fill:rgb(83.137255%,0%,0%);fill-opacity:1;" d="M 338.472656 458.003906 L 338.472656 462.871094 L 343.113281 462.871094 L 352.996094 514.9375 L 358.621094 514.9375 L 369.507813 462.871094 L 373.253906 462.871094 L 373.253906 458.003906 L 360.488281 458.003906 L 360.488281 462.871094 L 363.933594 462.871094 L 362.558594 470.851563 L 349.679688 470.851563 L 348.683594 462.871094 L 352.128906 462.871094 L 352.128906 458.003906 Z M 361.457031 476.535156 L 355.859375 504.402344 L 350.617188 476.535156 Z M 361.457031 476.535156 "/>
</g>
</svg>
