<?xml version="1.0" encoding="UTF-8"?>
<svg xmlns="http://www.w3.org/2000/svg" xmlns:xlink="http://www.w3.org/1999/xlink" width="386pt" height="540pt" viewBox="0 0 386 540" version="1.1">
<g id="surface1">
<path style="fill-rule:nonzero;fill:rgb(100%,100%,100%);fill-opacity:1;stroke-width:1.000567;stroke-linecap:butt;stroke-linejoin:miter;stroke:rgb(0%,0%,0%);stroke-opacity:1;stroke-miterlimit:4;" d="M 343.285718 -471.408075 L 545.158698 -471.408075 C 551.057003 -471.408075 555.83549 -466.632905 555.83549 -460.743755 L 555.83549 -170.262173 C 555.83549 -164.370759 551.057003 -159.597854 545.158698 -159.597854 L 343.285718 -159.597854 C 337.389681 -159.597854 332.608926 -164.370759 332.608926 -170.262173 L 332.608926 -460.743755 C 332.608926 -466.632905 337.389681 -471.408075 343.285718 -471.408075 Z M 343.285718 -471.408075 " transform="matrix(1.723218,0,0,1.725233,-572.29431,814.152092)"/>
<path style=" stroke:none;fill-rule:nonzero;fill:rgb(0%,0%,0%);fill-opacity:1;" d="M 30.53125 87.078125 C 23.101563 96.535156 15.15625 101.980469 15.023438 109.359375 C 14.980469 111.746094 16.425781 115.808594 20.957031 116.585938 C 23.898438 117.089844 27.945313 114.964844 28.03125 110.644531 C 28.015625 109.785156 29.050781 109.808594 29.039063 110.988281 C 28.902344 114.390625 27.695313 118.355469 25.664063 121.582031 C 28.910156 121.582031 32.152344 121.582031 35.398438 121.582031 C 33.367188 118.355469 32.160156 114.390625 32.023438 110.988281 C 32.003906 109.808594 33.042969 109.785156 33.03125 110.644531 C 33.117188 114.964844 37.164063 117.089844 40.105469 116.585938 C 44.636719 115.808594 46.082031 111.746094 46.039063 109.359375 C 45.90625 101.980469 37.960938 96.535156 30.53125 87.078125 Z M 30.53125 87.078125 "/>
<path style=" stroke:none;fill-rule:nonzero;fill:rgb(0%,0%,0%);fill-opacity:1;" d="M 355.867188 452.59375 C 348.4375 443.136719 340.488281 437.695313 340.355469 430.316406 C 340.3125 427.925781 341.761719 423.863281 346.292969 423.085938 C 349.230469 422.585938 353.28125 424.710938 353.363281 429.027344 C 353.347656 429.886719 354.382813 429.863281 354.375 428.6875 C 354.238281 425.28125 353.027344 421.316406 351 418.089844 C 354.242188 418.089844 357.488281 418.089844 360.730469 418.089844 C 358.703125 421.316406 357.496094 425.28125 357.355469 428.6875 C 357.339844 429.863281 358.378906 429.886719 358.367188 429.027344 C 358.449219 424.710938 362.5 422.585938 365.4375 423.085938 C 369.96875 423.863281 371.417969 427.925781 371.375 430.316406 C 371.242188 437.695313 363.292969 443.136719 355.867188 452.59375 Z M 355.867188 452.59375 "/>
<path style=" stroke:none;fill-rule:nonzero;fill:rgb(0%,0%,0%);fill-opacity:1;" d="M 193.199219 228.429688 C 177.300781 251.128906 160.289063 264.191406 160.003906 281.902344 C 159.910156 287.636719 163.007813 297.382813 172.707031 299.25 C 179 300.453125 187.664063 295.355469 187.847656 284.992188 C 187.820313 282.929688 190.027344 282.984375 190.007813 285.8125 C 189.710938 293.984375 187.125 303.496094 182.785156 311.242188 C 189.726563 311.242188 196.667969 311.242188 203.609375 311.242188 C 199.269531 303.496094 196.683594 293.984375 196.386719 285.8125 C 196.367188 282.984375 198.578125 282.929688 198.550781 284.992188 C 198.730469 295.355469 207.394531 300.453125 213.6875 299.25 C 223.386719 297.382813 226.484375 287.636719 226.390625 281.902344 C 226.105469 264.191406 209.097656 251.128906 193.199219 228.429688 Z M 193.199219 228.429688 "/>
<path style=" stroke:none;fill-rule:nonzero;fill:rgb(0%,0%,0%);fill-opacity:1;" d="M 13.136719 81.667969 L 13.136719 76.800781 L 17.777344 76.800781 L 27.660156 24.738281 L 33.285156 24.738281 L 44.171875 76.800781 L 47.917969 76.800781 L 47.917969 81.667969 L 35.152344 81.667969 L 35.152344 76.800781 L 38.597656 76.800781 L 37.222656 68.824219 L 24.34375 68.824219 L 23.347656 76.800781 L 26.792969 76.800781 L 26.792969 81.667969 Z M 36.125 63.140625 L 30.527344 35.273438 L 25.28125 63.140625 Z M 36.125 63.140625 "/>
<path style=" stroke:none;fill-rule:nonzero;fill:rgb(0%,0%,0%);fill-opacity:1;" d="M 338.472656 458.003906 L 338.472656 462.871094 L 343.113281 462.871094 L 352.996094 514.9375 L 358.621094 514.9375 L 369.507813 462.871094 L 373.253906 462.871094 L 373.253906 458.003906 L 360.488281 458.003906 L 360.488281 462.871094 L 363.933594 462.871094 L 362.558594 470.851563 L 349.679688 470.851563 L 348.683594 462.871094 L 352.128906 462.871094 L 352.128906 458.003906 Z M 361.457031 476.535156 L 355.859375 504.402344 L 350.617188 476.535156 Z M 361.457031 476.535156 "/>
</g>
</svg>
