<?xml version="1.0" encoding="UTF-8"?>
<svg xmlns="http://www.w3.org/2000/svg" xmlns:xlink="http://www.w3.org/1999/xlink" width="386pt" height="540pt" viewBox="0 0 386 540" version="1.1">
<g id="surface1">
<path style="fill-rule:nonzero;fill:rgb(100%,100%,100%);fill-opacity:1;stroke-width:1.000567;stroke-linecap:butt;stroke-linejoin:miter;stroke:rgb(0%,0%,0%);stroke-opacity:1;stroke-miterlimit:4;" d="M 271.110525 370.275671 L 472.983501 370.275671 C 478.881805 370.275671 483.660293 375.050841 483.660293 380.939991 L 483.660293 671.421582 C 483.660293 677.312996 478.881805 682.085902 472.983501 682.085902 L 271.110525 682.085902 C 265.214487 682.085902 260.433733 677.312996 260.433733 671.421582 L 260.433733 380.939991 C 260.433733 375.050841 265.214487 370.275671 271.110525 370.275671 Z M 271.110525 370.275671 " transform="matrix(1.723218,0,0,1.725233,-447.920748,-637.948539)"/>
<path style=" stroke:none;fill-rule:nonzero;fill:rgb(0%,0%,0%);fill-opacity:1;" d="M 193.191406 57.988281 C 176.269531 58.355469 168.683594 77.402344 181.214844 92.191406 C 183.03125 94.351563 183.21875 95.589844 179.890625 93.515625 C 171.457031 87.875 155.277344 91.582031 154.449219 108.828125 C 153.425781 130.078125 183.121094 136.199219 188.695313 113.605469 C 188.988281 111.222656 190.925781 111.273438 190.460938 114.660156 C 189.953125 123.84375 187.082031 132.425781 183.140625 140.796875 C 189.785156 140.796875 197.210938 140.796875 203.253906 140.796875 C 199.3125 132.425781 196.441406 123.84375 195.933594 114.660156 C 195.46875 111.273438 197.40625 111.222656 197.699219 113.605469 C 203.273438 136.199219 232.96875 130.078125 231.945313 108.828125 C 231.117188 91.582031 214.9375 87.875 206.503906 93.515625 C 203.175781 95.589844 203.363281 94.351563 205.179688 92.191406 C 217.710938 77.402344 210.125 58.355469 193.203125 57.988281 C 193.203125 57.988281 193.203125 57.988281 193.1875 57.988281 Z M 193.191406 57.988281 "/>
<path style=" stroke:none;fill-rule:nonzero;fill:rgb(0%,0%,0%);fill-opacity:1;" d="M 193.191406 483.121094 C 176.269531 482.753906 168.683594 463.707031 181.214844 448.914063 C 183.03125 446.757813 183.21875 445.519531 179.890625 447.59375 C 171.457031 453.234375 155.277344 449.523438 154.449219 432.28125 C 153.425781 411.03125 183.121094 404.910156 188.695313 427.503906 C 188.988281 429.886719 190.925781 429.832031 190.460938 426.449219 C 189.953125 417.265625 187.082031 408.679688 183.140625 400.308594 C 189.785156 400.308594 197.210938 400.308594 203.253906 400.308594 C 199.3125 408.679688 196.441406 417.265625 195.933594 426.449219 C 195.46875 429.832031 197.40625 429.886719 197.699219 427.503906 C 203.273438 404.910156 232.96875 411.03125 231.945313 432.28125 C 231.117188 449.523438 214.9375 453.234375 206.503906 447.59375 C 203.175781 445.519531 203.363281 446.757813 205.179688 448.914063 C 217.710938 463.707031 210.125 482.753906 193.203125 483.121094 C 193.203125 483.121094 193.203125 483.121094 193.1875 483.121094 Z M 193.191406 483.121094 "/>
<path style=" stroke:none;fill-rule:nonzero;fill:rgb(0%,0%,0%);fill-opacity:1;" d="M 355.867188 452.59375 C 362.636719 452.441406 365.671875 444.503906 360.65625 438.34375 C 359.929688 437.441406 359.855469 436.925781 361.1875 437.789063 C 364.5625 440.140625 371.03125 438.597656 371.363281 431.410156 C 371.773438 422.558594 359.894531 420.007813 357.664063 429.421875 C 357.546875 430.414063 356.773438 430.390625 356.960938 428.980469 C 357.164063 425.15625 358.3125 421.578125 359.886719 418.089844 C 357.207031 418.089844 354.523438 418.089844 351.84375 418.089844 C 353.417969 421.578125 354.566406 425.15625 354.769531 428.980469 C 354.957031 430.390625 354.183594 430.414063 354.066406 429.421875 C 351.835938 420.007813 339.957031 422.558594 340.367188 431.410156 C 340.699219 438.597656 347.167969 440.140625 350.542969 437.789063 C 351.875 436.925781 351.800781 437.441406 351.074219 438.34375 C 346.058594 444.503906 349.09375 452.441406 355.863281 452.59375 Z M 355.867188 452.59375 "/>
<path style=" stroke:none;fill-rule:nonzero;fill:rgb(0%,0%,0%);fill-opacity:1;" d="M 30.527344 87.078125 C 23.761719 87.230469 20.726563 95.167969 25.738281 101.332031 C 26.464844 102.230469 26.539063 102.746094 25.210938 101.882813 C 21.835938 99.53125 15.363281 101.078125 15.03125 108.261719 C 14.625 117.117188 26.5 119.667969 28.730469 110.253906 C 28.847656 109.257813 29.625 109.28125 29.4375 110.691406 C 29.234375 114.519531 28.085938 118.09375 26.507813 121.582031 C 29.191406 121.582031 31.871094 121.582031 34.554688 121.582031 C 32.976563 118.09375 31.828125 114.519531 31.625 110.691406 C 31.4375 109.28125 32.214844 109.257813 32.332031 110.253906 C 34.5625 119.667969 46.4375 117.117188 46.03125 108.261719 C 45.699219 101.078125 39.226563 99.53125 35.851563 101.882813 C 34.523438 102.746094 34.597656 102.230469 35.324219 101.332031 C 40.335938 95.167969 37.300781 87.230469 30.535156 87.078125 C 30.53125 87.078125 30.535156 87.078125 30.535156 87.078125 Z M 30.527344 87.078125 "/>
<path style=" stroke:none;fill-rule:nonzero;fill:rgb(0%,0%,0%);fill-opacity:1;" d="M 13.484375 81.546875 L 13.761719 78.035156 C 14.636719 67.1875 16.964844 63.527344 30.171875 52.203125 C 36.582031 46.710938 38.683594 44.003906 38.980469 40.859375 C 39.820313 33.449219 33.265625 31.136719 29 31.101563 C 23.46875 31.050781 17.214844 34.421875 20.199219 42.25 L 13.996094 44.109375 C 12.746094 36.804688 14.03125 29.953125 19.835938 26.914063 C 27.589844 22.949219 37.535156 24.503906 42.554688 30.75 C 45.929688 34.941406 46.699219 40.738281 44.890625 45.277344 C 39.601563 56.871094 21.664063 61.972656 20.183594 75.386719 L 40.007813 75.386719 L 40.007813 67.917969 L 45.851563 67.917969 L 45.851563 81.667969 Z M 13.484375 81.546875 "/>
<path style=" stroke:none;fill-rule:nonzero;fill:rgb(0%,0%,0%);fill-opacity:1;" d="M 372.046875 458.125 L 371.769531 461.636719 C 370.894531 472.484375 368.566406 476.144531 355.359375 487.472656 C 348.949219 492.960938 346.84375 495.667969 346.550781 498.8125 C 345.710938 506.226563 352.261719 508.539063 356.53125 508.570313 C 362.058594 508.621094 368.316406 505.253906 365.328125 497.421875 L 371.535156 495.5625 C 372.78125 502.867188 371.5 509.71875 365.691406 512.761719 C 357.9375 516.726563 347.996094 515.171875 342.976563 508.925781 C 339.601563 504.734375 338.828125 498.933594 340.640625 494.394531 C 345.929688 482.800781 363.867188 477.699219 365.347656 464.285156 L 345.519531 464.285156 L 345.519531 471.753906 L 339.679688 471.753906 L 339.679688 458.003906 Z M 372.046875 458.125 "/>
</g>
</svg>
