<?xml version="1.0" encoding="UTF-8"?>
<svg xmlns="http://www.w3.org/2000/svg" xmlns:xlink="http://www.w3.org/1999/xlink" width="386pt" height="540pt" viewBox="0 0 386 540" version="1.1">
<g id="surface1">
<path style="fill-rule:nonzero;fill:rgb(100%,100%,100%);fill-opacity:1;stroke-width:1.000567;stroke-linecap:butt;stroke-linejoin:miter;stroke:rgb(0%,0%,0%);stroke-opacity:1;stroke-miterlimit:4;" d="M 737.938006 -30.444837 L 939.811549 -30.444837 C 945.707603 -30.444837 950.488371 -25.669677 950.488371 -19.780539 L 950.488371 270.702724 C 950.488371 276.591862 945.707603 281.367023 939.811549 281.367023 L 737.938006 281.367023 C 732.041952 281.367023 727.261184 276.591862 727.261184 270.702724 L 727.261184 -19.780539 C 727.261184 -25.669677 732.041952 -30.444837 737.938006 -30.444837 Z M 737.938006 -30.444837 " transform="matrix(1.723213,0,0,1.725237,-1252.362572,53.387827)"/>
<path style=" stroke:none;fill-rule:nonzero;fill:rgb(83.137255%,0%,0%);fill-opacity:1;" d="M 193.195313 140.082031 C 184.261719 125.304688 174.859375 110.941406 163.109375 98.675781 C 174.859375 86.40625 184.261719 72.046875 193.195313 57.269531 C 202.132813 72.046875 211.535156 86.40625 223.285156 98.675781 C 211.535156 110.941406 202.132813 125.304688 193.195313 140.082031 Z M 193.195313 140.082031 "/>
<path style=" stroke:none;fill-rule:nonzero;fill:rgb(83.137255%,0%,0%);fill-opacity:1;" d="M 30.53125 121.582031 C 26.808594 115.425781 22.890625 109.441406 17.992188 104.332031 C 22.890625 99.21875 26.808594 93.234375 30.53125 87.078125 C 34.253906 93.234375 38.171875 99.21875 43.066406 104.332031 C 38.171875 109.441406 34.253906 115.425781 30.53125 121.582031 Z M 30.53125 121.582031 "/>
<path style=" stroke:none;fill-rule:nonzero;fill:rgb(83.137255%,0%,0%);fill-opacity:1;" d="M 355.863281 452.59375 C 352.140625 446.4375 348.222656 440.453125 343.328125 435.34375 C 348.222656 430.230469 352.140625 424.246094 355.863281 418.089844 C 359.589844 424.246094 363.503906 430.230469 368.402344 435.34375 C 363.503906 440.453125 359.589844 446.4375 355.863281 452.59375 Z M 355.863281 452.59375 "/>
<path style=" stroke:none;fill-rule:nonzero;fill:rgb(83.137255%,0%,0%);fill-opacity:1;" d="M 193.195313 482.40625 C 184.261719 467.628906 174.859375 453.265625 163.109375 441 C 174.859375 428.730469 184.261719 414.371094 193.195313 399.59375 C 202.132813 414.371094 211.535156 428.730469 223.285156 441 C 211.535156 453.265625 202.132813 467.628906 193.195313 482.40625 Z M 193.195313 482.40625 "/>
<path style=" stroke:none;fill-rule:nonzero;fill:rgb(83.137255%,0%,0%);fill-opacity:1;" d="M 14.34375 81.546875 L 14.621094 78.035156 C 15.496094 67.1875 17.824219 63.527344 31.03125 52.203125 C 37.441406 46.710938 39.546875 44.003906 39.839844 40.859375 C 40.679688 33.449219 34.128906 31.136719 29.863281 31.101563 C 24.332031 31.050781 18.074219 34.421875 21.0625 42.25 L 14.855469 44.109375 C 13.609375 36.804688 14.890625 29.953125 20.699219 26.914063 C 28.453125 22.949219 38.394531 24.503906 43.417969 30.75 C 46.789063 34.941406 47.5625 40.738281 45.75 45.277344 C 40.464844 56.871094 22.523438 61.972656 21.042969 75.390625 L 40.871094 75.390625 L 40.871094 67.917969 L 46.714844 67.917969 L 46.714844 81.667969 Z M 14.34375 81.546875 "/>
<path style=" stroke:none;fill-rule:nonzero;fill:rgb(83.137255%,0%,0%);fill-opacity:1;" d="M 372.046875 458.125 L 371.769531 461.636719 C 370.894531 472.488281 368.566406 476.144531 355.359375 487.472656 C 348.945313 492.960938 346.84375 495.671875 346.550781 498.8125 C 345.710938 506.226563 352.261719 508.539063 356.527344 508.574219 C 362.058594 508.625 368.316406 505.253906 365.328125 497.421875 L 371.535156 495.5625 C 372.78125 502.867188 371.496094 509.71875 365.691406 512.761719 C 357.9375 516.726563 347.996094 515.171875 342.972656 508.925781 C 339.601563 504.734375 338.828125 498.933594 340.640625 494.394531 C 345.925781 482.800781 363.867188 477.699219 365.347656 464.285156 L 345.519531 464.285156 L 345.519531 471.753906 L 339.675781 471.753906 L 339.675781 458.003906 L 372.046875 458.128906 Z M 372.046875 458.125 "/>
</g>
</svg>
