<?xml version="1.0" encoding="UTF-8"?>
<svg xmlns="http://www.w3.org/2000/svg" xmlns:xlink="http://www.w3.org/1999/xlink" width="386pt" height="540pt" viewBox="0 0 386 540" version="1.1">
<g id="surface1">
<path style="fill-rule:nonzero;fill:rgb(100%,100%,100%);fill-opacity:1;stroke-width:1.000567;stroke-linecap:butt;stroke-linejoin:miter;stroke:rgb(0%,0%,0%);stroke-opacity:1;stroke-miterlimit:4;" d="M 271.11052 370.275643 L 472.9835 370.275643 C 478.881805 370.275643 483.660293 375.050813 483.660293 380.939962 L 483.660293 671.421544 C 483.660293 677.312958 478.881805 682.085864 472.9835 682.085864 L 271.11052 682.085864 C 265.214483 682.085864 260.433728 677.312958 260.433728 671.421544 L 260.433728 380.939962 C 260.433728 375.050813 265.214483 370.275643 271.11052 370.275643 Z M 271.11052 370.275643 " transform="matrix(1.723218,0,0,1.725233,-447.920731,-637.94851)"/>
<path style=" stroke:none;fill-rule:nonzero;fill:rgb(83.137255%,0%,0%);fill-opacity:1;" d="M 30.53125 121.582031 C 30.53125 121.582031 26.699219 116.082031 21.527344 109.609375 C 18.066406 105.28125 15.300781 100.59375 15.042969 96.554688 C 14.75 91.941406 17.539063 87.3125 22.59375 87.089844 C 27.644531 86.863281 29.695313 90.644531 30.53125 93.761719 C 31.367188 90.644531 33.417969 86.863281 38.46875 87.089844 C 43.523438 87.3125 46.3125 91.941406 46.019531 96.554688 C 45.761719 100.59375 42.996094 105.28125 39.535156 109.609375 C 34.363281 116.082031 30.53125 121.582031 30.53125 121.582031 Z M 30.53125 121.582031 "/>
<path style=" stroke:none;fill-rule:nonzero;fill:rgb(83.137255%,0%,0%);fill-opacity:1;" d="M 355.867188 418.089844 C 355.867188 418.089844 352.03125 423.59375 346.859375 430.0625 C 343.402344 434.394531 340.636719 439.082031 340.378906 443.121094 C 340.082031 447.734375 342.875 452.359375 347.929688 452.585938 C 352.980469 452.808594 355.03125 449.027344 355.867188 445.910156 C 356.699219 449.027344 358.75 452.808594 363.800781 452.585938 C 368.855469 452.359375 371.648438 447.734375 371.351563 443.121094 C 371.097656 439.082031 368.328125 434.394531 364.871094 430.0625 C 359.699219 423.59375 355.867188 418.089844 355.867188 418.089844 Z M 355.867188 418.089844 "/>
<path style=" stroke:none;fill-rule:nonzero;fill:rgb(83.137255%,0%,0%);fill-opacity:1;" d="M 193.199219 140.082031 C 193.199219 140.082031 185.15625 126.875 174.308594 111.34375 C 167.054688 100.953125 161.25 89.699219 160.710938 80.007813 C 160.09375 68.9375 165.949219 57.832031 176.550781 57.292969 C 187.144531 56.753906 191.445313 65.828125 193.199219 73.308594 C 194.949219 65.828125 199.25 56.753906 209.84375 57.292969 C 220.445313 57.832031 226.300781 68.9375 225.683594 80.007813 C 225.144531 89.699219 219.34375 100.953125 212.085938 111.34375 C 201.238281 126.875 193.199219 140.082031 193.199219 140.082031 Z M 193.199219 140.082031 "/>
<path style=" stroke:none;fill-rule:nonzero;fill:rgb(83.137255%,0%,0%);fill-opacity:1;" d="M 193.199219 399.59375 C 193.199219 399.59375 185.15625 412.800781 174.308594 428.328125 C 167.054688 438.71875 161.25 449.972656 160.710938 459.664063 C 160.09375 470.734375 165.949219 481.84375 176.550781 482.378906 C 187.144531 482.917969 191.445313 473.84375 193.199219 466.363281 C 194.949219 473.84375 199.25 482.917969 209.84375 482.378906 C 220.445313 481.84375 226.300781 470.734375 225.683594 459.664063 C 225.144531 449.972656 219.34375 438.71875 212.085938 428.328125 C 201.238281 412.800781 193.199219 399.59375 193.199219 399.59375 Z M 193.199219 399.59375 "/>
<path style=" stroke:none;fill-rule:nonzero;fill:rgb(83.137255%,0%,0%);fill-opacity:1;" d="M 14.34375 81.546875 L 14.621094 78.035156 C 15.496094 67.1875 17.824219 63.527344 31.03125 52.203125 C 37.445313 46.710938 39.546875 44.003906 39.839844 40.859375 C 40.679688 33.449219 34.128906 31.136719 29.863281 31.101563 C 24.332031 31.050781 18.074219 34.421875 21.0625 42.25 L 14.855469 44.109375 C 13.609375 36.804688 14.890625 29.953125 20.699219 26.914063 C 28.453125 22.949219 38.394531 24.503906 43.417969 30.75 C 46.789063 34.941406 47.5625 40.738281 45.75 45.277344 C 40.464844 56.871094 22.523438 61.972656 21.042969 75.386719 L 40.871094 75.386719 L 40.871094 67.917969 L 46.714844 67.917969 L 46.714844 81.667969 Z M 14.34375 81.546875 "/>
<path style=" stroke:none;fill-rule:nonzero;fill:rgb(83.137255%,0%,0%);fill-opacity:1;" d="M 372.046875 458.125 L 371.769531 461.636719 C 370.894531 472.484375 368.566406 476.144531 355.359375 487.472656 C 348.949219 492.960938 346.84375 495.667969 346.550781 498.8125 C 345.710938 506.226563 352.261719 508.539063 356.53125 508.570313 C 362.058594 508.621094 368.316406 505.253906 365.328125 497.421875 L 371.535156 495.5625 C 372.78125 502.867188 371.5 509.71875 365.691406 512.761719 C 357.9375 516.726563 347.996094 515.171875 342.976563 508.925781 C 339.601563 504.734375 338.828125 498.933594 340.640625 494.394531 C 345.929688 482.800781 363.867188 477.699219 365.347656 464.285156 L 345.519531 464.285156 L 345.519531 471.753906 L 339.679688 471.753906 L 339.679688 458.003906 Z M 372.046875 458.125 "/>
</g>
</svg>
