<?xml version="1.0" encoding="UTF-8"?>
<svg xmlns="http://www.w3.org/2000/svg" xmlns:xlink="http://www.w3.org/1999/xlink" width="386pt" height="540pt" viewBox="0 0 386 540" version="1.1">
<g id="surface1">
<path style="fill-rule:nonzero;fill:rgb(100%,100%,100%);fill-opacity:1;stroke-width:1.000567;stroke-linecap:butt;stroke-linejoin:miter;stroke:rgb(0%,0%,0%);stroke-opacity:1;stroke-miterlimit:4;" d="M 668.391403 -471.408075 L 870.264383 -471.408075 C 876.162687 -471.408075 880.941175 -466.632905 880.941175 -460.743755 L 880.941175 -170.262173 C 880.941175 -164.370759 876.162687 -159.597854 870.264383 -159.597854 L 668.391403 -159.597854 C 662.495365 -159.597854 657.714611 -164.370759 657.714611 -170.262173 L 657.714611 -460.743755 C 657.714611 -466.632905 662.495365 -471.408075 668.391403 -471.408075 Z M 668.391403 -471.408075 " transform="matrix(1.723218,0,0,1.725233,-1132.522182,814.152092)"/>
<path style=" stroke:none;fill-rule:nonzero;fill:rgb(0%,0%,0%);fill-opacity:1;" d="M 30.53125 87.078125 C 23.101563 96.535156 15.15625 101.980469 15.023438 109.359375 C 14.980469 111.746094 16.425781 115.808594 20.957031 116.585938 C 23.898438 117.089844 27.945313 114.964844 28.03125 110.644531 C 28.015625 109.785156 29.050781 109.808594 29.039063 110.988281 C 28.902344 114.390625 27.695313 118.355469 25.664063 121.582031 C 28.910156 121.582031 32.152344 121.582031 35.398438 121.582031 C 33.367188 118.355469 32.160156 114.390625 32.023438 110.988281 C 32.003906 109.808594 33.042969 109.785156 33.03125 110.644531 C 33.117188 114.964844 37.164063 117.089844 40.105469 116.585938 C 44.636719 115.808594 46.082031 111.746094 46.039063 109.359375 C 45.90625 101.980469 37.960938 96.535156 30.53125 87.078125 Z M 30.53125 87.078125 "/>
<path style=" stroke:none;fill-rule:nonzero;fill:rgb(0%,0%,0%);fill-opacity:1;" d="M 355.867188 452.59375 C 348.4375 443.136719 340.488281 437.695313 340.355469 430.316406 C 340.3125 427.925781 341.761719 423.863281 346.292969 423.085938 C 349.230469 422.585938 353.28125 424.710938 353.363281 429.027344 C 353.347656 429.886719 354.382813 429.863281 354.375 428.6875 C 354.238281 425.28125 353.027344 421.316406 351 418.089844 C 354.242188 418.089844 357.488281 418.089844 360.730469 418.089844 C 358.703125 421.316406 357.496094 425.28125 357.355469 428.6875 C 357.339844 429.863281 358.378906 429.886719 358.367188 429.027344 C 358.449219 424.710938 362.5 422.585938 365.4375 423.085938 C 369.972656 423.863281 371.417969 427.925781 371.375 430.316406 C 371.242188 437.695313 363.292969 443.136719 355.867188 452.59375 Z M 355.867188 452.59375 "/>
<path style=" stroke:none;fill-rule:nonzero;fill:rgb(0%,0%,0%);fill-opacity:1;" d="M 193.199219 57.269531 C 177.300781 79.96875 160.289063 93.03125 160.003906 110.738281 C 159.910156 116.472656 163.007813 126.222656 172.707031 128.085938 C 179 129.292969 187.664063 124.191406 187.847656 113.832031 C 187.820313 111.769531 190.027344 111.824219 190.007813 114.648438 C 189.710938 122.820313 187.125 132.335938 182.785156 140.082031 C 189.726563 140.082031 196.667969 140.082031 203.609375 140.082031 C 199.269531 132.335938 196.683594 122.820313 196.386719 114.648438 C 196.367188 111.824219 198.578125 111.769531 198.550781 113.832031 C 198.730469 124.191406 207.394531 129.292969 213.6875 128.085938 C 223.386719 126.222656 226.484375 116.472656 226.390625 110.738281 C 226.105469 93.03125 209.097656 79.96875 193.199219 57.269531 Z M 193.199219 57.269531 "/>
<path style=" stroke:none;fill-rule:nonzero;fill:rgb(0%,0%,0%);fill-opacity:1;" d="M 193.199219 482.402344 C 177.300781 459.703125 160.289063 446.640625 160.003906 428.933594 C 159.910156 423.199219 163.007813 413.453125 172.707031 411.585938 C 179 410.382813 187.664063 415.480469 187.847656 425.839844 C 187.820313 427.902344 190.027344 427.851563 190.007813 425.023438 C 189.710938 416.851563 187.125 407.335938 182.785156 399.59375 C 189.726563 399.59375 196.667969 399.59375 203.609375 399.59375 C 199.269531 407.335938 196.683594 416.851563 196.386719 425.023438 C 196.367188 427.851563 198.578125 427.902344 198.550781 425.839844 C 198.730469 415.480469 207.394531 410.382813 213.6875 411.585938 C 223.386719 413.453125 226.484375 423.199219 226.390625 428.933594 C 226.105469 446.640625 209.097656 459.703125 193.199219 482.402344 Z M 193.199219 482.402344 "/>
<path style=" stroke:none;fill-rule:nonzero;fill:rgb(0%,0%,0%);fill-opacity:1;" d="M 14.34375 81.546875 L 14.621094 78.035156 C 15.496094 67.1875 17.824219 63.527344 31.03125 52.203125 C 37.445313 46.710938 39.546875 44.003906 39.839844 40.859375 C 40.679688 33.449219 34.128906 31.136719 29.863281 31.101563 C 24.332031 31.050781 18.074219 34.421875 21.0625 42.25 L 14.855469 44.109375 C 13.609375 36.804688 14.890625 29.953125 20.699219 26.914063 C 28.453125 22.949219 38.394531 24.503906 43.417969 30.75 C 46.789063 34.941406 47.5625 40.738281 45.75 45.277344 C 40.464844 56.871094 22.523438 61.972656 21.042969 75.386719 L 40.871094 75.386719 L 40.871094 67.917969 L 46.714844 67.917969 L 46.714844 81.667969 Z M 14.34375 81.546875 "/>
<path style=" stroke:none;fill-rule:nonzero;fill:rgb(0%,0%,0%);fill-opacity:1;" d="M 372.046875 458.125 L 371.769531 461.636719 C 370.894531 472.484375 368.566406 476.144531 355.359375 487.472656 C 348.949219 492.960938 346.84375 495.667969 346.550781 498.8125 C 345.710938 506.222656 352.261719 508.539063 356.53125 508.570313 C 362.058594 508.621094 368.316406 505.253906 365.328125 497.421875 L 371.535156 495.5625 C 372.78125 502.867188 371.5 509.71875 365.691406 512.761719 C 357.9375 516.726563 347.996094 515.171875 342.976563 508.925781 C 339.601563 504.734375 338.828125 498.933594 340.640625 494.394531 C 345.929688 482.800781 363.867188 477.699219 365.347656 464.285156 L 345.519531 464.285156 L 345.519531 471.753906 L 339.679688 471.753906 L 339.679688 458.003906 Z M 372.046875 458.125 "/>
</g>
</svg>
