<?xml version="1.0" encoding="UTF-8"?>
<svg xmlns="http://www.w3.org/2000/svg" xmlns:xlink="http://www.w3.org/1999/xlink" width="386pt" height="540pt" viewBox="0 0 386 540" version="1.1">
<g id="surface1">
<path style="fill-rule:nonzero;fill:rgb(100%,100%,100%);fill-opacity:1;stroke-width:1.000567;stroke-linecap:butt;stroke-linejoin:miter;stroke:rgb(0%,0%,0%);stroke-opacity:1;stroke-miterlimit:4;" d="M 271.110519 370.275671 L 472.983495 370.275671 C 478.881799 370.275671 483.660287 375.050841 483.660287 380.939991 L 483.660287 671.421582 C 483.660287 677.312996 478.881799 682.085902 472.983495 682.085902 L 271.110519 682.085902 C 265.214481 682.085902 260.433727 677.312996 260.433727 671.421582 L 260.433727 380.939991 C 260.433727 375.050841 265.214481 370.275671 271.110519 370.275671 Z M 271.110519 370.275671 " transform="matrix(1.723218,0,0,1.725233,-447.920737,-637.948539)"/>
<path style=" stroke:none;fill-rule:nonzero;fill:rgb(0%,0%,0%);fill-opacity:1;" d="M 193.191406 57.988281 C 176.269531 58.355469 168.683594 77.402344 181.214844 92.191406 C 183.03125 94.351563 183.21875 95.589844 179.890625 93.515625 C 171.457031 87.875 155.277344 91.582031 154.449219 108.828125 C 153.425781 130.078125 183.121094 136.199219 188.695313 113.605469 C 188.988281 111.222656 190.925781 111.273438 190.460938 114.660156 C 189.953125 123.84375 187.082031 132.425781 183.140625 140.796875 C 189.785156 140.796875 197.210938 140.796875 203.253906 140.796875 C 199.3125 132.425781 196.441406 123.84375 195.933594 114.660156 C 195.46875 111.273438 197.40625 111.222656 197.699219 113.605469 C 203.273438 136.199219 232.96875 130.078125 231.945313 108.828125 C 231.117188 91.582031 214.9375 87.875 206.503906 93.515625 C 203.175781 95.589844 203.363281 94.351563 205.179688 92.191406 C 217.710938 77.402344 210.125 58.355469 193.203125 57.988281 C 193.203125 57.988281 193.203125 57.988281 193.1875 57.988281 Z M 193.191406 57.988281 "/>
<path style=" stroke:none;fill-rule:nonzero;fill:rgb(0%,0%,0%);fill-opacity:1;" d="M 193.191406 483.121094 C 176.269531 482.753906 168.683594 463.707031 181.214844 448.914063 C 183.03125 446.757813 183.21875 445.519531 179.890625 447.59375 C 171.457031 453.234375 155.277344 449.523438 154.449219 432.28125 C 153.425781 411.03125 183.121094 404.910156 188.695313 427.503906 C 188.988281 429.886719 190.925781 429.832031 190.460938 426.449219 C 189.953125 417.265625 187.082031 408.679688 183.140625 400.308594 C 189.785156 400.308594 197.210938 400.308594 203.253906 400.308594 C 199.3125 408.679688 196.441406 417.265625 195.933594 426.449219 C 195.46875 429.832031 197.40625 429.886719 197.699219 427.503906 C 203.273438 404.910156 232.96875 411.03125 231.945313 432.28125 C 231.117188 449.523438 214.9375 453.234375 206.503906 447.59375 C 203.175781 445.519531 203.363281 446.757813 205.179688 448.914063 C 217.710938 463.707031 210.125 482.753906 193.203125 483.121094 C 193.203125 483.121094 193.203125 483.121094 193.1875 483.121094 Z M 193.191406 483.121094 "/>
<path style=" stroke:none;fill-rule:nonzero;fill:rgb(0%,0%,0%);fill-opacity:1;" d="M 193.191406 229.148438 C 176.269531 229.515625 168.683594 248.5625 181.214844 263.355469 C 183.03125 265.511719 183.21875 266.75 179.890625 264.675781 C 171.457031 259.035156 155.277344 262.746094 154.449219 279.988281 C 153.425781 301.238281 183.121094 307.359375 188.695313 284.765625 C 188.988281 282.382813 190.925781 282.4375 190.460938 285.820313 C 189.953125 295.003906 187.082031 303.589844 183.140625 311.960938 C 189.785156 311.960938 197.210938 311.960938 203.253906 311.960938 C 199.3125 303.589844 196.441406 295.003906 195.933594 285.820313 C 195.46875 282.4375 197.40625 282.382813 197.699219 284.765625 C 203.273438 307.359375 232.96875 301.238281 231.945313 279.988281 C 231.117188 262.746094 214.9375 259.035156 206.503906 264.675781 C 203.175781 266.75 203.363281 265.511719 205.179688 263.355469 C 217.710938 248.5625 210.125 229.515625 193.203125 229.148438 C 193.203125 229.148438 193.203125 229.148438 193.1875 229.148438 Z M 193.191406 229.148438 "/>
<path style=" stroke:none;fill-rule:nonzero;fill:rgb(0%,0%,0%);fill-opacity:1;" d="M 355.867188 452.59375 C 362.636719 452.441406 365.671875 444.503906 360.65625 438.34375 C 359.929688 437.441406 359.855469 436.925781 361.1875 437.789063 C 364.5625 440.140625 371.03125 438.597656 371.363281 431.410156 C 371.773438 422.558594 359.894531 420.007813 357.664063 429.421875 C 357.546875 430.414063 356.773438 430.390625 356.960938 428.980469 C 357.164063 425.15625 358.3125 421.578125 359.886719 418.089844 C 357.207031 418.089844 354.523438 418.089844 351.84375 418.089844 C 353.417969 421.578125 354.566406 425.15625 354.769531 428.980469 C 354.957031 430.390625 354.183594 430.414063 354.066406 429.421875 C 351.835938 420.007813 339.957031 422.558594 340.367188 431.410156 C 340.699219 438.597656 347.167969 440.140625 350.542969 437.789063 C 351.875 436.925781 351.800781 437.441406 351.074219 438.34375 C 346.058594 444.503906 349.09375 452.441406 355.863281 452.59375 Z M 355.867188 452.59375 "/>
<path style=" stroke:none;fill-rule:nonzero;fill:rgb(0%,0%,0%);fill-opacity:1;" d="M 30.527344 87.078125 C 23.761719 87.230469 20.726563 95.167969 25.738281 101.332031 C 26.464844 102.230469 26.539063 102.746094 25.210938 101.882813 C 21.835938 99.53125 15.363281 101.078125 15.03125 108.261719 C 14.625 117.117188 26.5 119.667969 28.730469 110.253906 C 28.847656 109.257813 29.625 109.28125 29.4375 110.691406 C 29.234375 114.519531 28.085938 118.09375 26.507813 121.582031 C 29.191406 121.582031 31.871094 121.582031 34.554688 121.582031 C 32.976563 118.09375 31.828125 114.519531 31.625 110.691406 C 31.4375 109.28125 32.214844 109.257813 32.332031 110.253906 C 34.5625 119.667969 46.4375 117.117188 46.03125 108.261719 C 45.699219 101.078125 39.226563 99.53125 35.851563 101.882813 C 34.523438 102.746094 34.597656 102.230469 35.324219 101.332031 C 40.335938 95.167969 37.300781 87.230469 30.535156 87.078125 C 30.53125 87.078125 30.535156 87.078125 30.535156 87.078125 Z M 30.527344 87.078125 "/>
<path style=" stroke:none;fill-rule:nonzero;fill:rgb(0%,0%,0%);fill-opacity:1;" d="M 12.074219 69.1875 L 16.453125 65.964844 C 20.25 72.160156 24.5 76.238281 31 75.539063 C 40.753906 74.867188 44.796875 64.632813 42.753906 56.921875 C 40.78125 50 32.707031 46.632813 26.285156 50.320313 C 24.769531 51.195313 23.308594 51.90625 23.019531 51.90625 C 22.347656 51.90625 20.824219 48.871094 21.03125 47.945313 C 25.339844 41.644531 35.804688 30.609375 35.804688 30.609375 L 19.457031 30.609375 L 19.457031 38 L 13.183594 38 L 13.183594 24.738281 L 45.132813 24.738281 L 45.132813 29.238281 C 45.132813 29.238281 36.574219 38.125 33.746094 42.992188 C 40.710938 43.25 46.328125 47.671875 48.34375 54.660156 C 49.519531 58.339844 48.992188 66.757813 47.453125 70.382813 C 44.882813 76.433594 37.855469 81.339844 31.433594 81.621094 C 20.652344 82.347656 14.929688 74.78125 12.074219 69.1875 Z M 12.074219 69.1875 "/>
<path style=" stroke:none;fill-rule:nonzero;fill:rgb(0%,0%,0%);fill-opacity:1;" d="M 374.320313 470.484375 L 369.941406 473.707031 C 366.140625 467.511719 361.890625 463.433594 355.390625 464.132813 C 345.640625 464.804688 341.597656 475.039063 343.636719 482.753906 C 345.613281 489.671875 353.6875 493.042969 360.109375 489.351563 C 361.625 488.480469 363.085938 487.765625 363.371094 487.765625 C 364.046875 487.765625 365.570313 490.800781 365.359375 491.726563 C 361.050781 498.027344 350.589844 509.066406 350.589844 509.066406 L 366.9375 509.066406 L 366.9375 501.675781 L 373.210938 501.675781 L 373.210938 514.9375 L 341.257813 514.9375 L 341.257813 510.4375 C 341.257813 510.4375 349.820313 501.546875 352.648438 496.679688 C 345.679688 496.425781 340.0625 492.003906 338.046875 485.015625 C 336.871094 481.332031 337.398438 472.917969 338.9375 469.289063 C 341.511719 463.242188 348.535156 458.335938 354.960938 458.050781 C 365.742188 457.328125 371.460938 464.890625 374.320313 470.484375 Z M 374.320313 470.484375 "/>
</g>
</svg>
