<?xml version="1.0" encoding="UTF-8"?>
<svg xmlns="http://www.w3.org/2000/svg" xmlns:xlink="http://www.w3.org/1999/xlink" width="386pt" height="540pt" viewBox="0 0 386 540" version="1.1">
<g id="surface1">
<path style="fill-rule:nonzero;fill:rgb(100%,100%,100%);fill-opacity:1;stroke-width:1.000567;stroke-linecap:butt;stroke-linejoin:miter;stroke:rgb(0%,0%,0%);stroke-opacity:1;stroke-miterlimit:4;" d="M 1002.163107 -30.444837 L 1204.03665 -30.444837 C 1209.932704 -30.444837 1214.713472 -25.669677 1214.713472 -19.780539 L 1214.713472 270.702724 C 1214.713472 276.591862 1209.932704 281.367023 1204.03665 281.367023 L 1002.163107 281.367023 C 996.267053 281.367023 991.486285 276.591862 991.486285 270.702724 L 991.486285 -19.780539 C 991.486285 -25.669677 996.267053 -30.444837 1002.163107 -30.444837 Z M 1002.163107 -30.444837 " transform="matrix(1.723213,0,0,1.725237,-1707.678674,53.387827)"/>
<path style=" stroke:none;fill-rule:nonzero;fill:rgb(83.137255%,0%,0%);fill-opacity:1;" d="M 193.195313 140.082031 C 184.261719 125.304688 174.859375 110.941406 163.109375 98.675781 C 174.859375 86.40625 184.261719 72.046875 193.195313 57.269531 C 202.132813 72.046875 211.535156 86.40625 223.285156 98.675781 C 211.535156 110.941406 202.132813 125.304688 193.195313 140.082031 Z M 193.195313 140.082031 "/>
<path style=" stroke:none;fill-rule:nonzero;fill:rgb(83.137255%,0%,0%);fill-opacity:1;" d="M 30.53125 121.582031 C 26.808594 115.425781 22.890625 109.441406 17.992188 104.332031 C 22.890625 99.21875 26.808594 93.234375 30.53125 87.078125 C 34.253906 93.234375 38.171875 99.21875 43.066406 104.332031 C 38.171875 109.441406 34.253906 115.425781 30.53125 121.582031 Z M 30.53125 121.582031 "/>
<path style=" stroke:none;fill-rule:nonzero;fill:rgb(83.137255%,0%,0%);fill-opacity:1;" d="M 355.863281 452.59375 C 352.140625 446.4375 348.222656 440.453125 343.328125 435.34375 C 348.222656 430.230469 352.140625 424.246094 355.863281 418.089844 C 359.589844 424.246094 363.503906 430.230469 368.402344 435.34375 C 363.503906 440.453125 359.589844 446.4375 355.863281 452.59375 Z M 355.863281 452.59375 "/>
<path style=" stroke:none;fill-rule:nonzero;fill:rgb(83.137255%,0%,0%);fill-opacity:1;" d="M 193.195313 311.242188 C 184.261719 296.464844 174.859375 282.105469 163.109375 269.835938 C 174.859375 257.570313 184.261719 243.207031 193.195313 228.429688 C 202.132813 243.207031 211.535156 257.570313 223.285156 269.835938 C 211.535156 282.105469 202.132813 296.464844 193.195313 311.242188 Z M 193.195313 311.242188 "/>
<path style=" stroke:none;fill-rule:nonzero;fill:rgb(83.137255%,0%,0%);fill-opacity:1;" d="M 193.195313 482.40625 C 184.261719 467.628906 174.859375 453.265625 163.109375 441 C 174.859375 428.730469 184.261719 414.371094 193.195313 399.59375 C 202.132813 414.371094 211.535156 428.730469 223.285156 441 C 211.535156 453.265625 202.132813 467.628906 193.195313 482.40625 Z M 193.195313 482.40625 "/>
<path style=" stroke:none;fill-rule:nonzero;fill:rgb(83.137255%,0%,0%);fill-opacity:1;" d="M 12.074219 69.191406 L 16.449219 65.964844 C 20.25 72.160156 24.5 76.238281 31 75.539063 C 40.753906 74.867188 44.792969 64.632813 42.753906 56.921875 C 40.777344 50 32.703125 46.632813 26.28125 50.320313 C 24.769531 51.195313 23.304688 51.90625 23.019531 51.90625 C 22.347656 51.90625 20.820313 48.871094 21.03125 47.945313 C 25.339844 41.644531 35.804688 30.609375 35.804688 30.609375 L 19.453125 30.609375 L 19.453125 38 L 13.179688 38 L 13.179688 24.738281 L 45.132813 24.738281 L 45.132813 29.238281 C 45.132813 29.238281 36.570313 38.125 33.742188 42.992188 C 40.710938 43.25 46.328125 47.671875 48.34375 54.660156 C 49.519531 58.339844 48.992188 66.757813 47.453125 70.382813 C 44.878906 76.433594 37.855469 81.339844 31.433594 81.621094 C 20.648438 82.347656 14.929688 74.78125 12.074219 69.191406 Z M 12.074219 69.191406 "/>
<path style=" stroke:none;fill-rule:nonzero;fill:rgb(83.137255%,0%,0%);fill-opacity:1;" d="M 374.316406 470.484375 L 369.9375 473.707031 C 366.140625 467.515625 361.890625 463.433594 355.390625 464.132813 C 345.636719 464.804688 341.597656 475.042969 343.636719 482.753906 C 345.609375 489.671875 353.6875 493.042969 360.105469 489.355469 C 361.621094 488.480469 363.085938 487.765625 363.371094 487.765625 C 364.042969 487.765625 365.566406 490.800781 365.359375 491.726563 C 361.050781 498.027344 350.585938 509.066406 350.585938 509.066406 L 366.933594 509.066406 L 366.933594 501.675781 L 373.210938 501.675781 L 373.210938 514.9375 L 341.257813 514.9375 L 341.257813 510.4375 C 341.257813 510.4375 349.816406 501.546875 352.648438 496.679688 C 345.679688 496.425781 340.0625 492.003906 338.046875 485.015625 C 336.871094 481.335938 337.398438 472.917969 338.9375 469.289063 C 341.511719 463.242188 348.535156 458.335938 354.957031 458.054688 C 365.742188 457.328125 371.460938 464.890625 374.316406 470.484375 Z M 374.316406 470.484375 "/>
</g>
</svg>
