<?xml version="1.0" encoding="UTF-8"?>
<svg xmlns="http://www.w3.org/2000/svg" xmlns:xlink="http://www.w3.org/1999/xlink" width="386pt" height="540pt" viewBox="0 0 386 540" version="1.1">
<g id="surface1">
<path style="fill-rule:nonzero;fill:rgb(100%,100%,100%);fill-opacity:1;stroke-width:1.000567;stroke-linecap:butt;stroke-linejoin:miter;stroke:rgb(0%,0%,0%);stroke-opacity:1;stroke-miterlimit:4;" d="M 271.110519 370.275643 L 472.983499 370.275643 C 478.881804 370.275643 483.660291 375.050813 483.660291 380.939962 L 483.660291 671.421544 C 483.660291 677.312958 478.881804 682.085864 472.983499 682.085864 L 271.110519 682.085864 C 265.214482 682.085864 260.433727 677.312958 260.433727 671.421544 L 260.433727 380.939962 C 260.433727 375.050813 265.214482 370.275643 271.110519 370.275643 Z M 271.110519 370.275643 " transform="matrix(1.723218,0,0,1.725233,-447.920729,-637.94851)"/>
<path style=" stroke:none;fill-rule:nonzero;fill:rgb(83.137255%,0%,0%);fill-opacity:1;" d="M 30.53125 121.582031 C 30.53125 121.582031 26.699219 116.082031 21.527344 109.609375 C 18.066406 105.28125 15.300781 100.59375 15.042969 96.554688 C 14.75 91.941406 17.539063 87.3125 22.59375 87.089844 C 27.644531 86.863281 29.695313 90.644531 30.53125 93.761719 C 31.367188 90.644531 33.417969 86.863281 38.46875 87.089844 C 43.523438 87.3125 46.3125 91.941406 46.019531 96.554688 C 45.761719 100.59375 42.996094 105.28125 39.535156 109.609375 C 34.363281 116.082031 30.53125 121.582031 30.53125 121.582031 Z M 30.53125 121.582031 "/>
<path style=" stroke:none;fill-rule:nonzero;fill:rgb(83.137255%,0%,0%);fill-opacity:1;" d="M 355.867188 418.089844 C 355.867188 418.089844 352.03125 423.59375 346.859375 430.0625 C 343.402344 434.394531 340.632813 439.082031 340.378906 443.121094 C 340.082031 447.734375 342.875 452.359375 347.929688 452.585938 C 352.980469 452.808594 355.03125 449.027344 355.867188 445.910156 C 356.699219 449.027344 358.75 452.808594 363.800781 452.585938 C 368.855469 452.359375 371.648438 447.734375 371.351563 443.121094 C 371.097656 439.082031 368.328125 434.394531 364.871094 430.0625 C 359.699219 423.59375 355.867188 418.089844 355.867188 418.089844 Z M 355.867188 418.089844 "/>
<path style=" stroke:none;fill-rule:nonzero;fill:rgb(83.137255%,0%,0%);fill-opacity:1;" d="M 193.199219 140.082031 C 193.199219 140.082031 185.15625 126.875 174.308594 111.34375 C 167.054688 100.953125 161.25 89.699219 160.710938 80.007813 C 160.09375 68.9375 165.949219 57.832031 176.550781 57.292969 C 187.144531 56.753906 191.445313 65.828125 193.199219 73.308594 C 194.949219 65.828125 199.25 56.753906 209.84375 57.292969 C 220.445313 57.832031 226.300781 68.9375 225.683594 80.007813 C 225.144531 89.699219 219.34375 100.953125 212.085938 111.34375 C 201.238281 126.875 193.199219 140.082031 193.199219 140.082031 Z M 193.199219 140.082031 "/>
<path style=" stroke:none;fill-rule:nonzero;fill:rgb(83.137255%,0%,0%);fill-opacity:1;" d="M 193.199219 311.242188 C 193.199219 311.242188 185.15625 298.035156 174.308594 282.507813 C 167.054688 272.113281 161.25 260.863281 160.710938 251.171875 C 160.09375 240.097656 165.949219 228.992188 176.550781 228.453125 C 187.144531 227.914063 191.445313 236.992188 193.199219 244.472656 C 194.949219 236.992188 199.25 227.914063 209.84375 228.453125 C 220.445313 228.992188 226.300781 240.097656 225.683594 251.171875 C 225.144531 260.863281 219.34375 272.113281 212.085938 282.507813 C 201.238281 298.035156 193.199219 311.242188 193.199219 311.242188 Z M 193.199219 311.242188 "/>
<path style=" stroke:none;fill-rule:nonzero;fill:rgb(83.137255%,0%,0%);fill-opacity:1;" d="M 193.199219 399.59375 C 193.199219 399.59375 185.15625 412.800781 174.308594 428.328125 C 167.054688 438.71875 161.25 449.972656 160.710938 459.664063 C 160.09375 470.734375 165.949219 481.84375 176.550781 482.378906 C 187.144531 482.917969 191.445313 473.84375 193.199219 466.363281 C 194.949219 473.84375 199.25 482.917969 209.84375 482.378906 C 220.445313 481.84375 226.300781 470.734375 225.683594 459.664063 C 225.144531 449.972656 219.34375 438.71875 212.085938 428.328125 C 201.238281 412.800781 193.199219 399.59375 193.199219 399.59375 Z M 193.199219 399.59375 "/>
<path style=" stroke:none;fill-rule:nonzero;fill:rgb(83.137255%,0%,0%);fill-opacity:1;" d="M 12.074219 69.191406 L 16.449219 65.964844 C 20.25 72.160156 24.5 76.238281 31 75.539063 C 40.753906 74.867188 44.792969 64.632813 42.753906 56.921875 C 40.78125 50 32.703125 46.632813 26.285156 50.320313 C 24.769531 51.195313 23.304688 51.90625 23.019531 51.90625 C 22.347656 51.90625 20.820313 48.871094 21.03125 47.945313 C 25.339844 41.644531 35.804688 30.609375 35.804688 30.609375 L 19.453125 30.609375 L 19.453125 38 L 13.179688 38 L 13.179688 24.738281 L 45.132813 24.738281 L 45.132813 29.238281 C 45.132813 29.238281 36.570313 38.125 33.742188 42.992188 C 40.710938 43.25 46.328125 47.671875 48.34375 54.660156 C 49.519531 58.339844 48.992188 66.757813 47.453125 70.382813 C 44.878906 76.433594 37.855469 81.339844 31.433594 81.621094 C 20.648438 82.347656 14.929688 74.78125 12.074219 69.191406 Z M 12.074219 69.191406 "/>
<path style=" stroke:none;fill-rule:nonzero;fill:rgb(83.137255%,0%,0%);fill-opacity:1;" d="M 374.320313 470.484375 L 369.941406 473.707031 C 366.140625 467.511719 361.890625 463.433594 355.390625 464.132813 C 345.636719 464.804688 341.597656 475.039063 343.636719 482.753906 C 345.613281 489.671875 353.6875 493.042969 360.109375 489.351563 C 361.625 488.480469 363.085938 487.765625 363.371094 487.765625 C 364.046875 487.765625 365.570313 490.800781 365.359375 491.726563 C 361.050781 498.027344 350.589844 509.066406 350.589844 509.066406 L 366.9375 509.066406 L 366.9375 501.675781 L 373.210938 501.675781 L 373.210938 514.9375 L 341.257813 514.9375 L 341.257813 510.4375 C 341.257813 510.4375 349.820313 501.546875 352.648438 496.679688 C 345.679688 496.425781 340.0625 492.003906 338.046875 485.015625 C 336.871094 481.332031 337.398438 472.917969 338.9375 469.289063 C 341.511719 463.242188 348.535156 458.335938 354.960938 458.050781 C 365.742188 457.328125 371.460938 464.890625 374.320313 470.484375 Z M 374.320313 470.484375 "/>
</g>
</svg>
