<?xml version="1.0" encoding="UTF-8"?>
<svg xmlns="http://www.w3.org/2000/svg" xmlns:xlink="http://www.w3.org/1999/xlink" width="386pt" height="540pt" viewBox="0 0 386 540" version="1.1">
<g id="surface1">
<path style="fill-rule:nonzero;fill:rgb(100%,100%,100%);fill-opacity:1;stroke-width:1.000567;stroke-linecap:butt;stroke-linejoin:miter;stroke:rgb(0%,0%,0%);stroke-opacity:1;stroke-miterlimit:4;" d="M 993.496994 -471.408075 L 1195.369974 -471.408075 C 1201.268278 -471.408075 1206.046766 -466.632905 1206.046766 -460.743755 L 1206.046766 -170.262173 C 1206.046766 -164.370759 1201.268278 -159.597854 1195.369974 -159.597854 L 993.496994 -159.597854 C 987.600957 -159.597854 982.820202 -164.370759 982.820202 -170.262173 L 982.820202 -460.743755 C 982.820202 -466.632905 987.600957 -471.408075 993.496994 -471.408075 Z M 993.496994 -471.408075 " transform="matrix(1.723218,0,0,1.725233,-1692.749894,814.152092)"/>
<path style=" stroke:none;fill-rule:nonzero;fill:rgb(0%,0%,0%);fill-opacity:1;" d="M 30.53125 87.078125 C 23.101563 96.535156 15.15625 101.980469 15.023438 109.359375 C 14.976563 111.746094 16.425781 115.808594 20.957031 116.585938 C 23.898438 117.089844 27.945313 114.964844 28.03125 110.644531 C 28.015625 109.785156 29.050781 109.808594 29.039063 110.988281 C 28.902344 114.390625 27.695313 118.355469 25.664063 121.582031 C 28.910156 121.582031 32.152344 121.582031 35.398438 121.582031 C 33.367188 118.355469 32.160156 114.390625 32.023438 110.988281 C 32.003906 109.808594 33.042969 109.785156 33.03125 110.644531 C 33.117188 114.964844 37.164063 117.089844 40.105469 116.585938 C 44.636719 115.808594 46.082031 111.746094 46.039063 109.359375 C 45.90625 101.980469 37.960938 96.535156 30.53125 87.078125 Z M 30.53125 87.078125 "/>
<path style=" stroke:none;fill-rule:nonzero;fill:rgb(0%,0%,0%);fill-opacity:1;" d="M 355.867188 452.59375 C 348.4375 443.136719 340.488281 437.695313 340.355469 430.316406 C 340.3125 427.925781 341.761719 423.863281 346.292969 423.085938 C 349.230469 422.585938 353.28125 424.710938 353.363281 429.027344 C 353.347656 429.886719 354.382813 429.863281 354.375 428.6875 C 354.238281 425.28125 353.027344 421.316406 351 418.089844 C 354.242188 418.089844 357.488281 418.089844 360.730469 418.089844 C 358.703125 421.316406 357.496094 425.28125 357.355469 428.6875 C 357.339844 429.863281 358.378906 429.886719 358.367188 429.027344 C 358.449219 424.710938 362.5 422.585938 365.4375 423.085938 C 369.96875 423.863281 371.417969 427.925781 371.375 430.316406 C 371.242188 437.695313 363.292969 443.136719 355.867188 452.59375 Z M 355.867188 452.59375 "/>
<path style=" stroke:none;fill-rule:nonzero;fill:rgb(0%,0%,0%);fill-opacity:1;" d="M 193.199219 57.269531 C 177.300781 79.96875 160.289063 93.03125 160.003906 110.738281 C 159.910156 116.472656 163.007813 126.222656 172.707031 128.085938 C 179 129.292969 187.664063 124.191406 187.847656 113.832031 C 187.820313 111.769531 190.027344 111.824219 190.007813 114.648438 C 189.710938 122.820313 187.125 132.335938 182.785156 140.082031 C 189.726563 140.082031 196.667969 140.082031 203.609375 140.082031 C 199.269531 132.335938 196.683594 122.820313 196.386719 114.648438 C 196.367188 111.824219 198.578125 111.769531 198.550781 113.832031 C 198.730469 124.191406 207.394531 129.292969 213.6875 128.085938 C 223.386719 126.222656 226.484375 116.472656 226.390625 110.738281 C 226.105469 93.03125 209.097656 79.96875 193.199219 57.269531 Z M 193.199219 57.269531 "/>
<path style=" stroke:none;fill-rule:nonzero;fill:rgb(0%,0%,0%);fill-opacity:1;" d="M 193.199219 482.402344 C 177.300781 459.703125 160.289063 446.640625 160.003906 428.933594 C 159.910156 423.199219 163.007813 413.453125 172.707031 411.585938 C 179 410.382813 187.664063 415.480469 187.847656 425.839844 C 187.820313 427.902344 190.027344 427.851563 190.007813 425.023438 C 189.710938 416.851563 187.125 407.335938 182.785156 399.59375 C 189.726563 399.59375 196.667969 399.59375 203.609375 399.59375 C 199.269531 407.335938 196.683594 416.851563 196.386719 425.023438 C 196.367188 427.851563 198.578125 427.902344 198.550781 425.839844 C 198.730469 415.480469 207.394531 410.382813 213.6875 411.585938 C 223.386719 413.453125 226.484375 423.199219 226.390625 428.933594 C 226.105469 446.640625 209.097656 459.703125 193.199219 482.402344 Z M 193.199219 482.402344 "/>
<path style=" stroke:none;fill-rule:nonzero;fill:rgb(0%,0%,0%);fill-opacity:1;" d="M 193.199219 228.429688 C 177.300781 251.128906 160.289063 264.191406 160.003906 281.902344 C 159.910156 287.636719 163.007813 297.382813 172.707031 299.25 C 179 300.453125 187.664063 295.355469 187.847656 284.992188 C 187.820313 282.929688 190.027344 282.984375 190.007813 285.8125 C 189.710938 293.984375 187.125 303.496094 182.785156 311.242188 C 189.726563 311.242188 196.667969 311.242188 203.609375 311.242188 C 199.269531 303.496094 196.683594 293.984375 196.386719 285.8125 C 196.367188 282.984375 198.578125 282.929688 198.550781 284.992188 C 198.730469 295.355469 207.394531 300.453125 213.6875 299.25 C 223.386719 297.382813 226.484375 287.636719 226.390625 281.902344 C 226.105469 264.191406 209.097656 251.128906 193.199219 228.429688 Z M 193.199219 228.429688 "/>
<path style=" stroke:none;fill-rule:nonzero;fill:rgb(0%,0%,0%);fill-opacity:1;" d="M 12.074219 69.1875 L 16.449219 65.964844 C 20.25 72.160156 24.5 76.238281 31 75.539063 C 40.753906 74.867188 44.792969 64.632813 42.753906 56.921875 C 40.78125 50 32.703125 46.628906 26.285156 50.320313 C 24.769531 51.195313 23.304688 51.90625 23.019531 51.90625 C 22.347656 51.90625 20.820313 48.871094 21.03125 47.945313 C 25.339844 41.644531 35.804688 30.609375 35.804688 30.609375 L 19.457031 30.609375 L 19.457031 38 L 13.179688 38 L 13.179688 24.738281 L 45.132813 24.738281 L 45.132813 29.238281 C 45.132813 29.238281 36.570313 38.125 33.742188 42.992188 C 40.710938 43.25 46.328125 47.667969 48.34375 54.660156 C 49.519531 58.339844 48.992188 66.757813 47.453125 70.382813 C 44.878906 76.433594 37.855469 81.339844 31.433594 81.621094 C 20.648438 82.347656 14.929688 74.78125 12.074219 69.1875 Z M 12.074219 69.1875 "/>
<path style=" stroke:none;fill-rule:nonzero;fill:rgb(0%,0%,0%);fill-opacity:1;" d="M 374.320313 470.484375 L 369.941406 473.707031 C 366.140625 467.511719 361.890625 463.433594 355.390625 464.132813 C 345.636719 464.804688 341.597656 475.039063 343.636719 482.753906 C 345.613281 489.671875 353.6875 493.042969 360.109375 489.351563 C 361.625 488.480469 363.085938 487.765625 363.371094 487.765625 C 364.046875 487.765625 365.570313 490.800781 365.359375 491.726563 C 361.050781 498.027344 350.589844 509.066406 350.589844 509.066406 L 366.9375 509.066406 L 366.9375 501.675781 L 373.210938 501.675781 L 373.210938 514.9375 L 341.257813 514.9375 L 341.257813 510.4375 C 341.257813 510.4375 349.820313 501.546875 352.648438 496.679688 C 345.679688 496.425781 340.0625 492.003906 338.046875 485.015625 C 336.871094 481.332031 337.398438 472.917969 338.9375 469.289063 C 341.511719 463.242188 348.535156 458.335938 354.960938 458.050781 C 365.742188 457.328125 371.460938 464.890625 374.320313 470.484375 Z M 374.320313 470.484375 "/>
</g>
</svg>
