<?xml version="1.0" encoding="UTF-8"?>
<svg xmlns="http://www.w3.org/2000/svg" xmlns:xlink="http://www.w3.org/1999/xlink" width="386pt" height="540pt" viewBox="0 0 386 540" version="1.1">
<g id="surface1">
<path style="fill-rule:nonzero;fill:rgb(100%,100%,100%);fill-opacity:1;stroke-width:0.996734;stroke-linecap:butt;stroke-linejoin:miter;stroke:rgb(0%,0%,0%);stroke-opacity:1;stroke-miterlimit:4;" d="M 1266.838123 -1088.369139 L 1467.810848 -1088.369139 C 1473.680592 -1088.369139 1478.440027 -1083.609252 1478.440027 -1077.738951 L 1478.440027 -788.184834 C 1478.440027 -782.314533 1473.680592 -777.556904 1467.810848 -777.556904 L 1266.838123 -777.556904 C 1260.968379 -777.556904 1256.208944 -782.314533 1256.208944 -788.184834 L 1256.208944 -1077.738951 C 1256.208944 -1083.609252 1260.968379 -1088.369139 1266.838123 -1088.369139 Z M 1266.838123 -1088.369139 " transform="matrix(1.730937,0,0,1.730773,-2173.555062,1884.582811)"/>
<path style=" stroke:none;fill-rule:nonzero;fill:rgb(0%,0%,0%);fill-opacity:1;" d="M 282.394531 57.988281 C 265.476563 58.355469 257.890625 77.402344 270.417969 92.191406 C 272.238281 94.351563 272.425781 95.585938 269.097656 93.515625 C 260.660156 87.875 244.484375 91.582031 243.65625 108.828125 C 242.632813 130.078125 272.324219 136.199219 277.898438 113.605469 C 278.195313 111.21875 280.132813 111.273438 279.664063 114.660156 C 279.15625 123.84375 276.289063 132.425781 272.34375 140.796875 C 278.992188 140.796875 286.417969 140.796875 292.457031 140.796875 C 288.515625 132.425781 285.648438 123.84375 285.140625 114.660156 C 284.671875 111.273438 286.609375 111.21875 286.902344 113.605469 C 292.480469 136.199219 322.171875 130.078125 321.148438 108.828125 C 320.320313 91.582031 304.144531 87.875 295.707031 93.515625 C 292.378906 95.585938 292.566406 94.351563 294.382813 92.191406 C 306.914063 77.402344 299.328125 58.355469 282.410156 57.988281 C 282.410156 57.984375 282.410156 57.988281 282.390625 57.988281 Z M 282.394531 57.988281 "/>
<path style=" stroke:none;fill-rule:nonzero;fill:rgb(0%,0%,0%);fill-opacity:1;" d="M 103.984375 57.988281 C 87.066406 58.355469 79.480469 77.402344 92.011719 92.191406 C 93.828125 94.351563 94.015625 95.585938 90.6875 93.515625 C 82.25 87.875 66.074219 91.582031 65.246094 108.828125 C 64.222656 130.078125 93.914063 136.199219 99.492188 113.605469 C 99.785156 111.21875 101.722656 111.273438 101.253906 114.660156 C 100.746094 123.84375 97.878906 132.425781 93.9375 140.796875 C 100.582031 140.796875 108.007813 140.796875 114.050781 140.796875 C 110.105469 132.425781 107.238281 123.84375 106.730469 114.660156 C 106.261719 111.273438 108.199219 111.21875 108.496094 113.605469 C 114.070313 136.199219 143.761719 130.078125 142.738281 108.828125 C 141.910156 91.582031 125.734375 87.875 117.296875 93.515625 C 113.96875 95.585938 114.15625 94.351563 115.976563 92.191406 C 128.503906 77.402344 120.917969 58.355469 104 57.988281 C 104 57.984375 104 57.988281 103.984375 57.988281 Z M 103.984375 57.988281 "/>
<path style=" stroke:none;fill-rule:nonzero;fill:rgb(0%,0%,0%);fill-opacity:1;" d="M 282.394531 483.121094 C 265.476563 482.753906 257.890625 463.707031 270.417969 448.914063 C 272.238281 446.757813 272.425781 445.519531 269.097656 447.59375 C 260.660156 453.234375 244.484375 449.523438 243.65625 432.28125 C 242.632813 411.03125 272.324219 404.910156 277.898438 427.503906 C 278.195313 429.886719 280.132813 429.832031 279.664063 426.449219 C 279.15625 417.265625 276.289063 408.679688 272.34375 400.308594 C 278.992188 400.308594 286.417969 400.308594 292.457031 400.308594 C 288.515625 408.679688 285.648438 417.265625 285.140625 426.449219 C 284.671875 429.832031 286.609375 429.886719 286.902344 427.503906 C 292.480469 404.910156 322.171875 411.03125 321.148438 432.28125 C 320.320313 449.523438 304.144531 453.234375 295.707031 447.59375 C 292.378906 445.519531 292.566406 446.757813 294.382813 448.914063 C 306.914063 463.707031 299.328125 482.753906 282.410156 483.121094 C 282.410156 483.121094 282.410156 483.121094 282.390625 483.121094 Z M 282.394531 483.121094 "/>
<path style=" stroke:none;fill-rule:nonzero;fill:rgb(0%,0%,0%);fill-opacity:1;" d="M 103.984375 483.121094 C 87.066406 482.753906 79.480469 463.707031 92.011719 448.914063 C 93.828125 446.757813 94.015625 445.519531 90.6875 447.59375 C 82.25 453.234375 66.074219 449.523438 65.246094 432.28125 C 64.222656 411.03125 93.914063 404.910156 99.492188 427.503906 C 99.785156 429.886719 101.722656 429.832031 101.253906 426.449219 C 100.746094 417.265625 97.878906 408.679688 93.9375 400.308594 C 100.582031 400.308594 108.007813 400.308594 114.050781 400.308594 C 110.105469 408.679688 107.238281 417.265625 106.730469 426.449219 C 106.261719 429.832031 108.199219 429.886719 108.496094 427.503906 C 114.070313 404.910156 143.761719 411.03125 142.738281 432.28125 C 141.910156 449.523438 125.734375 453.234375 117.296875 447.59375 C 113.96875 445.519531 114.15625 446.757813 115.976563 448.914063 C 128.503906 463.707031 120.917969 482.753906 104 483.121094 C 104 483.121094 104 483.121094 103.984375 483.121094 Z M 103.984375 483.121094 "/>
<path style=" stroke:none;fill-rule:nonzero;fill:rgb(0%,0%,0%);fill-opacity:1;" d="M 355.867188 452.59375 C 362.636719 452.441406 365.667969 444.503906 360.65625 438.34375 C 359.929688 437.445313 359.855469 436.925781 361.1875 437.792969 C 364.5625 440.140625 371.03125 438.597656 371.363281 431.410156 C 371.773438 422.558594 359.894531 420.007813 357.664063 429.421875 C 357.546875 430.414063 356.773438 430.390625 356.960938 428.980469 C 357.164063 425.15625 358.308594 421.578125 359.886719 418.089844 C 357.207031 418.089844 354.523438 418.089844 351.84375 418.089844 C 353.417969 421.578125 354.566406 425.15625 354.769531 428.980469 C 354.957031 430.390625 354.183594 430.414063 354.0625 429.421875 C 351.835938 420.007813 339.957031 422.558594 340.367188 431.410156 C 340.699219 438.597656 347.167969 440.140625 350.542969 437.792969 C 351.875 436.925781 351.800781 437.445313 351.070313 438.34375 C 346.058594 444.503906 349.09375 452.441406 355.863281 452.59375 Z M 355.867188 452.59375 "/>
<path style=" stroke:none;fill-rule:nonzero;fill:rgb(0%,0%,0%);fill-opacity:1;" d="M 30.53125 87.078125 C 23.761719 87.230469 20.726563 95.167969 25.738281 101.332031 C 26.464844 102.230469 26.542969 102.746094 25.210938 101.882813 C 21.835938 99.53125 15.363281 101.078125 15.035156 108.261719 C 14.625 117.117188 26.5 119.667969 28.730469 110.253906 C 28.847656 109.257813 29.625 109.28125 29.4375 110.691406 C 29.234375 114.519531 28.085938 118.09375 26.507813 121.582031 C 29.191406 121.582031 31.871094 121.582031 34.554688 121.582031 C 32.976563 118.09375 31.828125 114.519531 31.625 110.691406 C 31.441406 109.28125 32.214844 109.257813 32.332031 110.253906 C 34.5625 119.667969 46.441406 117.117188 46.03125 108.261719 C 45.699219 101.078125 39.226563 99.53125 35.855469 101.882813 C 34.523438 102.746094 34.597656 102.230469 35.324219 101.332031 C 40.335938 95.167969 37.300781 87.230469 30.535156 87.078125 C 30.53125 87.078125 30.535156 87.078125 30.535156 87.078125 Z M 30.53125 87.078125 "/>
<path style=" stroke:none;fill-rule:nonzero;fill:rgb(0%,0%,0%);fill-opacity:1;" d="M 30.929688 81.660156 L 30.929688 76.632813 L 35.460938 76.632813 L 35.460938 68.339844 L 12.789063 68.339844 L 12.789063 62.484375 L 37.320313 24.734375 L 41.328125 24.757813 L 41.328125 62.484375 L 48.269531 62.484375 L 48.269531 68.339844 L 41.328125 68.339844 L 41.199219 76.632813 L 44.996094 76.632813 L 44.996094 81.667969 L 30.925781 81.667969 Z M 35.460938 38.554688 L 19.882813 62.488281 L 35.460938 62.488281 Z M 35.460938 38.554688 "/>
<path style=" stroke:none;fill-rule:nonzero;fill:rgb(0%,0%,0%);fill-opacity:1;" d="M 355.464844 458.011719 L 355.464844 463.039063 L 350.929688 463.039063 L 350.929688 471.335938 L 373.605469 471.335938 L 373.605469 477.1875 L 349.070313 514.9375 L 345.0625 514.917969 L 345.0625 477.1875 L 338.121094 477.1875 L 338.121094 471.335938 L 345.0625 471.335938 L 345.191406 463.039063 L 341.394531 463.039063 L 341.394531 458.003906 L 355.464844 458.003906 Z M 350.929688 501.117188 L 366.507813 477.183594 L 350.929688 477.183594 Z M 350.929688 501.117188 "/>
</g>
</svg>
