<?xml version="1.0" encoding="UTF-8"?>
<svg xmlns="http://www.w3.org/2000/svg" xmlns:xlink="http://www.w3.org/1999/xlink" width="386pt" height="540pt" viewBox="0 0 386 540" version="1.1">
<g id="surface1">
<path style="fill-rule:nonzero;fill:rgb(100%,100%,100%);fill-opacity:1;stroke-width:1.000567;stroke-linecap:butt;stroke-linejoin:miter;stroke:rgb(0%,0%,0%);stroke-opacity:1;stroke-miterlimit:4;" d="M 1266.388076 -30.444837 L 1468.261619 -30.444837 C 1474.157673 -30.444837 1478.938441 -25.669677 1478.938441 -19.780539 L 1478.938441 270.702724 C 1478.938441 276.591862 1474.157673 281.367023 1468.261619 281.367023 L 1266.388076 281.367023 C 1260.492022 281.367023 1255.711254 276.591862 1255.711254 270.702724 L 1255.711254 -19.780539 C 1255.711254 -25.669677 1260.492022 -30.444837 1266.388076 -30.444837 Z M 1266.388076 -30.444837 " transform="matrix(1.723213,0,0,1.725237,-2162.994549,53.387827)"/>
<path style=" stroke:none;fill-rule:nonzero;fill:rgb(83.137255%,0%,0%);fill-opacity:1;" d="M 30.53125 121.582031 C 26.808594 115.425781 22.890625 109.441406 17.992188 104.332031 C 22.890625 99.21875 26.808594 93.234375 30.53125 87.078125 C 34.253906 93.234375 38.171875 99.21875 43.066406 104.332031 C 38.171875 109.441406 34.253906 115.425781 30.53125 121.582031 Z M 30.53125 121.582031 "/>
<path style=" stroke:none;fill-rule:nonzero;fill:rgb(83.137255%,0%,0%);fill-opacity:1;" d="M 282.402344 140.082031 C 273.464844 125.304688 264.0625 110.941406 252.3125 98.675781 C 264.0625 86.40625 273.464844 72.046875 282.402344 57.269531 C 291.339844 72.046875 300.742188 86.40625 312.492188 98.675781 C 300.742188 110.941406 291.339844 125.304688 282.402344 140.082031 Z M 282.402344 140.082031 "/>
<path style=" stroke:none;fill-rule:nonzero;fill:rgb(83.137255%,0%,0%);fill-opacity:1;" d="M 355.863281 452.59375 C 352.140625 446.4375 348.222656 440.453125 343.328125 435.34375 C 348.222656 430.230469 352.140625 424.246094 355.863281 418.089844 C 359.585938 424.246094 363.503906 430.230469 368.402344 435.34375 C 363.503906 440.453125 359.585938 446.4375 355.863281 452.59375 Z M 355.863281 452.59375 "/>
<path style=" stroke:none;fill-rule:nonzero;fill:rgb(83.137255%,0%,0%);fill-opacity:1;" d="M 103.992188 140.082031 C 95.054688 125.304688 85.652344 110.941406 73.902344 98.675781 C 85.652344 86.40625 95.054688 72.046875 103.992188 57.269531 C 112.929688 72.046875 122.332031 86.40625 134.082031 98.675781 C 122.332031 110.941406 112.929688 125.304688 103.992188 140.082031 Z M 103.992188 140.082031 "/>
<path style=" stroke:none;fill-rule:nonzero;fill:rgb(83.137255%,0%,0%);fill-opacity:1;" d="M 103.992188 482.414063 C 95.054688 467.636719 85.652344 453.277344 73.902344 441.007813 C 85.652344 428.738281 95.054688 414.378906 103.992188 399.601563 C 112.929688 414.378906 122.332031 428.738281 134.082031 441.007813 C 122.332031 453.277344 112.929688 467.636719 103.992188 482.414063 Z M 103.992188 482.414063 "/>
<path style=" stroke:none;fill-rule:nonzero;fill:rgb(83.137255%,0%,0%);fill-opacity:1;" d="M 282.402344 482.425781 C 273.464844 467.648438 264.0625 453.289063 252.3125 441.019531 C 264.0625 428.75 273.464844 414.390625 282.402344 399.613281 C 291.339844 414.390625 300.742188 428.75 312.492188 441.019531 C 300.742188 453.289063 291.339844 467.648438 282.402344 482.425781 Z M 282.402344 482.425781 "/>
<path style=" stroke:none;fill-rule:nonzero;fill:rgb(83.137255%,0%,0%);fill-opacity:1;" d="M 30.925781 81.664063 L 30.925781 76.632813 L 35.460938 76.632813 L 35.460938 68.339844 L 12.785156 68.339844 L 12.785156 62.484375 L 37.320313 24.734375 L 41.328125 24.757813 L 41.328125 62.484375 L 48.269531 62.484375 L 48.269531 68.339844 L 41.328125 68.339844 L 41.199219 76.632813 L 44.996094 76.632813 L 44.996094 81.667969 L 30.925781 81.667969 Z M 35.460938 38.558594 L 19.882813 62.488281 L 35.460938 62.488281 Z M 35.460938 38.558594 "/>
<path style=" stroke:none;fill-rule:nonzero;fill:rgb(83.137255%,0%,0%);fill-opacity:1;" d="M 355.460938 458.011719 L 355.460938 463.039063 L 350.929688 463.039063 L 350.929688 471.335938 L 373.601563 471.335938 L 373.601563 477.1875 L 349.070313 514.9375 L 345.0625 514.917969 L 345.0625 477.1875 L 338.121094 477.1875 L 338.121094 471.335938 L 345.0625 471.335938 L 345.191406 463.039063 L 341.390625 463.039063 L 341.390625 458.003906 L 355.464844 458.003906 Z M 350.929688 501.117188 L 366.507813 477.1875 L 350.929688 477.1875 Z M 350.929688 501.117188 "/>
</g>
</svg>
