<?xml version="1.0" encoding="UTF-8"?>
<svg xmlns="http://www.w3.org/2000/svg" xmlns:xlink="http://www.w3.org/1999/xlink" width="386pt" height="540pt" viewBox="0 0 386 540" version="1.1">
<g id="surface1">
<path style="fill-rule:nonzero;fill:rgb(100%,100%,100%);fill-opacity:1;stroke-width:1.000567;stroke-linecap:butt;stroke-linejoin:miter;stroke:rgb(0%,0%,0%);stroke-opacity:1;stroke-miterlimit:4;" d="M 271.110485 370.275671 L 472.983461 370.275671 C 478.881765 370.275671 483.66252 375.050841 483.66252 380.939991 L 483.66252 671.421582 C 483.66252 677.312996 478.881765 682.085902 472.983461 682.085902 L 271.110485 682.085902 C 265.214448 682.085902 260.433693 677.312996 260.433693 671.421582 L 260.433693 380.939991 C 260.433693 375.050841 265.214448 370.275671 271.110485 370.275671 Z M 271.110485 370.275671 " transform="matrix(1.723218,0,0,1.725233,-447.92068,-637.948539)"/>
<path style=" stroke:none;fill-rule:nonzero;fill:rgb(0%,0%,0%);fill-opacity:1;" d="M 282.394531 57.988281 C 265.476563 58.355469 257.890625 77.402344 270.421875 92.191406 C 272.238281 94.351563 272.425781 95.589844 269.097656 93.515625 C 260.660156 87.875 244.484375 91.582031 243.65625 108.828125 C 242.632813 130.078125 272.324219 136.199219 277.898438 113.605469 C 278.195313 111.222656 280.132813 111.273438 279.664063 114.660156 C 279.15625 123.84375 276.289063 132.425781 272.34375 140.796875 C 278.992188 140.796875 286.417969 140.796875 292.457031 140.796875 C 288.515625 132.425781 285.648438 123.84375 285.140625 114.660156 C 284.671875 111.273438 286.609375 111.222656 286.902344 113.605469 C 292.480469 136.199219 322.171875 130.078125 321.148438 108.828125 C 320.320313 91.582031 304.144531 87.875 295.707031 93.515625 C 292.378906 95.589844 292.566406 94.351563 294.382813 92.191406 C 306.914063 77.402344 299.328125 58.355469 282.410156 57.988281 C 282.410156 57.988281 282.410156 57.988281 282.390625 57.988281 Z M 282.394531 57.988281 "/>
<path style=" stroke:none;fill-rule:nonzero;fill:rgb(0%,0%,0%);fill-opacity:1;" d="M 103.984375 57.988281 C 87.066406 58.355469 79.480469 77.402344 92.011719 92.191406 C 93.828125 94.351563 94.015625 95.589844 90.6875 93.515625 C 82.25 87.875 66.074219 91.582031 65.246094 108.828125 C 64.222656 130.078125 93.914063 136.199219 99.492188 113.605469 C 99.785156 111.222656 101.722656 111.273438 101.253906 114.660156 C 100.746094 123.84375 97.878906 132.425781 93.933594 140.796875 C 100.582031 140.796875 108.007813 140.796875 114.050781 140.796875 C 110.105469 132.425781 107.238281 123.84375 106.730469 114.660156 C 106.261719 111.273438 108.199219 111.222656 108.496094 113.605469 C 114.070313 136.199219 143.761719 130.078125 142.738281 108.828125 C 141.910156 91.582031 125.734375 87.875 117.296875 93.515625 C 113.96875 95.589844 114.15625 94.351563 115.972656 92.191406 C 128.503906 77.402344 120.917969 58.355469 104 57.988281 C 104 57.988281 104 57.988281 103.980469 57.988281 Z M 103.984375 57.988281 "/>
<path style=" stroke:none;fill-rule:nonzero;fill:rgb(0%,0%,0%);fill-opacity:1;" d="M 282.394531 483.121094 C 265.476563 482.753906 257.890625 463.707031 270.421875 448.914063 C 272.238281 446.757813 272.425781 445.519531 269.097656 447.59375 C 260.660156 453.234375 244.484375 449.523438 243.65625 432.28125 C 242.632813 411.03125 272.324219 404.910156 277.898438 427.503906 C 278.195313 429.886719 280.132813 429.832031 279.664063 426.449219 C 279.15625 417.265625 276.289063 408.679688 272.34375 400.308594 C 278.992188 400.308594 286.417969 400.308594 292.457031 400.308594 C 288.515625 408.679688 285.648438 417.265625 285.140625 426.449219 C 284.671875 429.832031 286.609375 429.886719 286.902344 427.503906 C 292.480469 404.910156 322.171875 411.03125 321.148438 432.28125 C 320.320313 449.523438 304.144531 453.234375 295.707031 447.59375 C 292.378906 445.519531 292.566406 446.757813 294.382813 448.914063 C 306.914063 463.707031 299.328125 482.753906 282.410156 483.121094 C 282.410156 483.121094 282.410156 483.121094 282.390625 483.121094 Z M 282.394531 483.121094 "/>
<path style=" stroke:none;fill-rule:nonzero;fill:rgb(0%,0%,0%);fill-opacity:1;" d="M 103.984375 483.121094 C 87.066406 482.753906 79.480469 463.707031 92.011719 448.914063 C 93.828125 446.757813 94.015625 445.519531 90.6875 447.59375 C 82.25 453.234375 66.074219 449.523438 65.246094 432.28125 C 64.222656 411.03125 93.914063 404.910156 99.492188 427.503906 C 99.785156 429.886719 101.722656 429.832031 101.253906 426.449219 C 100.746094 417.265625 97.878906 408.679688 93.933594 400.308594 C 100.582031 400.308594 108.007813 400.308594 114.050781 400.308594 C 110.105469 408.679688 107.238281 417.265625 106.730469 426.449219 C 106.261719 429.832031 108.199219 429.886719 108.496094 427.503906 C 114.070313 404.910156 143.761719 411.03125 142.738281 432.28125 C 141.910156 449.523438 125.734375 453.234375 117.296875 447.59375 C 113.96875 445.519531 114.15625 446.757813 115.972656 448.914063 C 128.503906 463.707031 120.917969 482.753906 104 483.121094 C 104 483.121094 104 483.121094 103.980469 483.121094 Z M 103.984375 483.121094 "/>
<path style=" stroke:none;fill-rule:nonzero;fill:rgb(0%,0%,0%);fill-opacity:1;" d="M 193.191406 229.148438 C 176.269531 229.515625 168.683594 248.5625 181.214844 263.355469 C 183.03125 265.511719 183.21875 266.75 179.890625 264.675781 C 171.457031 259.035156 155.277344 262.746094 154.449219 279.988281 C 153.425781 301.238281 183.121094 307.359375 188.695313 284.765625 C 188.988281 282.382813 190.925781 282.4375 190.460938 285.820313 C 189.953125 295.003906 187.082031 303.589844 183.140625 311.960938 C 189.785156 311.960938 197.210938 311.960938 203.253906 311.960938 C 199.3125 303.589844 196.441406 295.003906 195.933594 285.820313 C 195.46875 282.4375 197.40625 282.382813 197.699219 284.765625 C 203.273438 307.359375 232.96875 301.238281 231.945313 279.988281 C 231.117188 262.746094 214.9375 259.035156 206.503906 264.675781 C 203.175781 266.75 203.363281 265.511719 205.179688 263.355469 C 217.710938 248.5625 210.125 229.515625 193.203125 229.148438 C 193.203125 229.148438 193.203125 229.148438 193.1875 229.148438 Z M 193.191406 229.148438 "/>
<path style=" stroke:none;fill-rule:nonzero;fill:rgb(0%,0%,0%);fill-opacity:1;" d="M 355.867188 452.59375 C 362.636719 452.441406 365.671875 444.503906 360.65625 438.34375 C 359.929688 437.441406 359.855469 436.925781 361.1875 437.789063 C 364.5625 440.140625 371.03125 438.597656 371.363281 431.410156 C 371.773438 422.558594 359.894531 420.007813 357.664063 429.421875 C 357.546875 430.414063 356.773438 430.390625 356.960938 428.980469 C 357.164063 425.15625 358.3125 421.578125 359.886719 418.089844 C 357.207031 418.089844 354.523438 418.089844 351.84375 418.089844 C 353.417969 421.578125 354.566406 425.15625 354.769531 428.980469 C 354.957031 430.390625 354.183594 430.414063 354.066406 429.421875 C 351.835938 420.007813 339.957031 422.558594 340.367188 431.410156 C 340.699219 438.597656 347.167969 440.140625 350.542969 437.789063 C 351.875 436.925781 351.800781 437.441406 351.074219 438.34375 C 346.058594 444.503906 349.09375 452.441406 355.863281 452.59375 Z M 355.867188 452.59375 "/>
<path style=" stroke:none;fill-rule:nonzero;fill:rgb(0%,0%,0%);fill-opacity:1;" d="M 30.527344 87.078125 C 23.761719 87.230469 20.726563 95.167969 25.738281 101.332031 C 26.464844 102.230469 26.539063 102.746094 25.210938 101.882813 C 21.835938 99.53125 15.363281 101.078125 15.03125 108.261719 C 14.625 117.117188 26.5 119.667969 28.730469 110.253906 C 28.847656 109.257813 29.625 109.28125 29.4375 110.691406 C 29.234375 114.519531 28.085938 118.09375 26.507813 121.582031 C 29.191406 121.582031 31.871094 121.582031 34.554688 121.582031 C 32.976563 118.09375 31.828125 114.519531 31.625 110.691406 C 31.4375 109.28125 32.214844 109.257813 32.332031 110.253906 C 34.5625 119.667969 46.4375 117.117188 46.03125 108.261719 C 45.699219 101.078125 39.226563 99.53125 35.851563 101.882813 C 34.523438 102.746094 34.597656 102.230469 35.324219 101.332031 C 40.335938 95.167969 37.300781 87.230469 30.535156 87.078125 C 30.53125 87.078125 30.535156 87.078125 30.535156 87.078125 Z M 30.527344 87.078125 "/>
<path style=" stroke:none;fill-rule:nonzero;fill:rgb(0%,0%,0%);fill-opacity:1;" d="M 12.605469 66.929688 L 18.179688 66.878906 C 19.242188 70.3125 21.59375 73.804688 24.789063 74.777344 C 33.816406 76.9375 39.621094 71.792969 41.535156 65.863281 C 43.855469 58.667969 41.484375 48.566406 35.269531 44.980469 C 30.121094 42.007813 22.46875 44.515625 18.957031 50.875 L 15.054688 48.441406 L 17.148438 24.738281 L 42.652344 24.738281 L 42.652344 30.339844 L 21.984375 30.339844 L 21.65625 40.214844 C 26.105469 37.03125 32.941406 37.0625 37.390625 39.296875 C 45.8125 43.394531 49.722656 52.707031 48.089844 63.683594 C 45.820313 74.597656 40.816406 80.785156 29.535156 81.667969 C 16.984375 81.785156 12.550781 72.984375 12.605469 66.929688 Z M 12.605469 66.929688 "/>
<path style=" stroke:none;fill-rule:nonzero;fill:rgb(0%,0%,0%);fill-opacity:1;" d="M 373.785156 472.742188 L 368.210938 472.796875 C 367.148438 469.359375 364.796875 465.867188 361.601563 464.898438 C 352.574219 462.734375 346.769531 467.878906 344.855469 473.8125 C 342.535156 481.003906 344.910156 491.105469 351.121094 494.691406 C 356.269531 497.664063 363.921875 495.15625 367.433594 488.796875 L 371.339844 491.234375 L 369.242188 514.9375 L 343.738281 514.9375 L 343.738281 509.332031 L 364.40625 509.332031 L 364.734375 499.457031 C 360.285156 502.644531 353.449219 502.609375 349 500.375 C 340.582031 496.28125 336.667969 486.964844 338.304688 475.992188 C 340.570313 465.074219 345.574219 458.886719 356.859375 458.003906 C 369.410156 457.890625 373.839844 466.691406 373.785156 472.742188 Z M 373.785156 472.742188 "/>
</g>
</svg>
