<?xml version="1.0" encoding="UTF-8"?>
<svg xmlns="http://www.w3.org/2000/svg" xmlns:xlink="http://www.w3.org/1999/xlink" width="386pt" height="540pt" viewBox="0 0 386 540" version="1.1">
<g id="surface1">
<path style="fill-rule:nonzero;fill:rgb(100%,100%,100%);fill-opacity:1;stroke-width:1.000567;stroke-linecap:butt;stroke-linejoin:miter;stroke:rgb(0%,0%,0%);stroke-opacity:1;stroke-miterlimit:4;" d="M 1530.613349 -30.444837 L 1732.486892 -30.444837 C 1738.382946 -30.444837 1743.163714 -25.669677 1743.163714 -19.780539 L 1743.163714 270.702724 C 1743.163714 276.591862 1738.382946 281.367023 1732.486892 281.367023 L 1530.613349 281.367023 C 1524.717295 281.367023 1519.936527 276.591862 1519.936527 270.702724 L 1519.936527 -19.780539 C 1519.936527 -25.669677 1524.717295 -30.444837 1530.613349 -30.444837 Z M 1530.613349 -30.444837 " transform="matrix(1.723213,0,0,1.725237,-2618.310948,53.387827)"/>
<path style=" stroke:none;fill-rule:nonzero;fill:rgb(83.137255%,0%,0%);fill-opacity:1;" d="M 30.53125 121.582031 C 26.808594 115.425781 22.890625 109.441406 17.992188 104.332031 C 22.890625 99.21875 26.808594 93.234375 30.53125 87.078125 C 34.253906 93.234375 38.171875 99.21875 43.066406 104.332031 C 38.171875 109.441406 34.253906 115.425781 30.53125 121.582031 Z M 30.53125 121.582031 "/>
<path style=" stroke:none;fill-rule:nonzero;fill:rgb(83.137255%,0%,0%);fill-opacity:1;" d="M 282.402344 140.082031 C 273.464844 125.304688 264.0625 110.941406 252.3125 98.675781 C 264.0625 86.40625 273.464844 72.046875 282.402344 57.269531 C 291.339844 72.046875 300.742188 86.40625 312.492188 98.675781 C 300.742188 110.941406 291.339844 125.304688 282.402344 140.082031 Z M 282.402344 140.082031 "/>
<path style=" stroke:none;fill-rule:nonzero;fill:rgb(83.137255%,0%,0%);fill-opacity:1;" d="M 355.863281 452.59375 C 352.140625 446.4375 348.222656 440.453125 343.328125 435.34375 C 348.222656 430.230469 352.140625 424.246094 355.863281 418.089844 C 359.585938 424.246094 363.503906 430.230469 368.402344 435.34375 C 363.503906 440.453125 359.585938 446.4375 355.863281 452.59375 Z M 355.863281 452.59375 "/>
<path style=" stroke:none;fill-rule:nonzero;fill:rgb(83.137255%,0%,0%);fill-opacity:1;" d="M 103.992188 140.082031 C 95.054688 125.304688 85.652344 110.941406 73.902344 98.675781 C 85.652344 86.40625 95.054688 72.046875 103.992188 57.269531 C 112.929688 72.046875 122.332031 86.40625 134.082031 98.675781 C 122.332031 110.941406 112.929688 125.304688 103.992188 140.082031 Z M 103.992188 140.082031 "/>
<path style=" stroke:none;fill-rule:nonzero;fill:rgb(83.137255%,0%,0%);fill-opacity:1;" d="M 193.195313 311.242188 C 184.261719 296.464844 174.859375 282.105469 163.109375 269.835938 C 174.859375 257.570313 184.261719 243.207031 193.195313 228.429688 C 202.132813 243.207031 211.535156 257.570313 223.285156 269.835938 C 211.535156 282.105469 202.132813 296.464844 193.195313 311.242188 Z M 193.195313 311.242188 "/>
<path style=" stroke:none;fill-rule:nonzero;fill:rgb(83.137255%,0%,0%);fill-opacity:1;" d="M 103.992188 482.414063 C 95.054688 467.636719 85.652344 453.277344 73.902344 441.007813 C 85.652344 428.738281 95.054688 414.378906 103.992188 399.601563 C 112.929688 414.378906 122.332031 428.738281 134.082031 441.007813 C 122.332031 453.277344 112.929688 467.636719 103.992188 482.414063 Z M 103.992188 482.414063 "/>
<path style=" stroke:none;fill-rule:nonzero;fill:rgb(83.137255%,0%,0%);fill-opacity:1;" d="M 282.402344 482.425781 C 273.464844 467.648438 264.0625 453.289063 252.3125 441.019531 C 264.0625 428.75 273.464844 414.390625 282.402344 399.613281 C 291.339844 414.390625 300.742188 428.75 312.492188 441.019531 C 300.742188 453.289063 291.339844 467.648438 282.402344 482.425781 Z M 282.402344 482.425781 "/>
<path style=" stroke:none;fill-rule:nonzero;fill:rgb(83.137255%,0%,0%);fill-opacity:1;" d="M 12.605469 66.929688 L 18.179688 66.875 C 19.242188 70.3125 21.59375 73.804688 24.789063 74.773438 C 33.816406 76.9375 39.621094 71.792969 41.535156 65.863281 C 43.855469 58.667969 41.484375 48.566406 35.269531 44.980469 C 30.121094 42.007813 22.46875 44.515625 18.957031 50.875 L 15.050781 48.441406 L 17.148438 24.738281 L 42.652344 24.738281 L 42.652344 30.339844 L 21.984375 30.339844 L 21.65625 40.214844 C 26.105469 37.03125 32.941406 37.0625 37.390625 39.296875 C 45.808594 43.394531 49.722656 52.707031 48.089844 63.683594 C 45.820313 74.597656 40.816406 80.785156 29.53125 81.667969 C 16.980469 81.785156 12.550781 72.984375 12.605469 66.929688 Z M 12.605469 66.929688 "/>
<path style=" stroke:none;fill-rule:nonzero;fill:rgb(83.137255%,0%,0%);fill-opacity:1;" d="M 373.785156 472.746094 L 368.210938 472.796875 C 367.148438 469.359375 364.796875 465.867188 361.601563 464.898438 C 352.574219 462.738281 346.765625 467.882813 344.855469 473.8125 C 342.535156 481.003906 344.90625 491.105469 351.121094 494.691406 C 356.269531 497.664063 363.917969 495.15625 367.433594 488.796875 L 371.335938 491.234375 L 369.242188 514.9375 L 343.738281 514.9375 L 343.738281 509.335938 L 364.40625 509.335938 L 364.734375 499.460938 C 360.285156 502.644531 353.445313 502.609375 349 500.375 C 340.578125 496.28125 336.667969 486.96875 338.300781 475.992188 C 340.570313 465.074219 345.574219 458.890625 356.855469 458.007813 C 369.40625 457.890625 373.839844 466.691406 373.785156 472.742188 Z M 373.785156 472.746094 "/>
</g>
</svg>
