<?xml version="1.0" encoding="UTF-8"?>
<svg xmlns="http://www.w3.org/2000/svg" xmlns:xlink="http://www.w3.org/1999/xlink" width="386pt" height="540pt" viewBox="0 0 386 540" version="1.1">
<g id="surface1">
<path style="fill-rule:nonzero;fill:rgb(100%,100%,100%);fill-opacity:1;stroke-width:1.000567;stroke-linecap:butt;stroke-linejoin:miter;stroke:rgb(0%,0%,0%);stroke-opacity:1;stroke-miterlimit:4;" d="M 271.110518 370.275643 L 472.983498 370.275643 C 478.881802 370.275643 483.66029 375.050813 483.66029 380.939962 L 483.66029 671.421544 C 483.66029 677.312958 478.881802 682.085864 472.983498 682.085864 L 271.110518 682.085864 C 265.214481 682.085864 260.433726 677.312958 260.433726 671.421544 L 260.433726 380.939962 C 260.433726 375.050813 265.214481 370.275643 271.110518 370.275643 Z M 271.110518 370.275643 " transform="matrix(1.723218,0,0,1.725233,-447.920727,-637.94851)"/>
<path style=" stroke:none;fill-rule:nonzero;fill:rgb(83.137255%,0%,0%);fill-opacity:1;" d="M 30.53125 121.582031 C 30.53125 121.582031 26.699219 116.082031 21.527344 109.609375 C 18.066406 105.28125 15.300781 100.59375 15.042969 96.554688 C 14.75 91.941406 17.539063 87.3125 22.59375 87.089844 C 27.644531 86.863281 29.695313 90.644531 30.53125 93.761719 C 31.367188 90.644531 33.417969 86.863281 38.46875 87.089844 C 43.523438 87.3125 46.3125 91.941406 46.019531 96.554688 C 45.761719 100.59375 42.996094 105.28125 39.535156 109.609375 C 34.363281 116.082031 30.53125 121.582031 30.53125 121.582031 Z M 30.53125 121.582031 "/>
<path style=" stroke:none;fill-rule:nonzero;fill:rgb(83.137255%,0%,0%);fill-opacity:1;" d="M 355.863281 418.089844 C 355.863281 418.089844 352.03125 423.59375 346.859375 430.0625 C 343.402344 434.394531 340.632813 439.082031 340.378906 443.121094 C 340.082031 447.734375 342.875 452.359375 347.929688 452.585938 C 352.980469 452.808594 355.03125 449.027344 355.863281 445.910156 C 356.699219 449.027344 358.75 452.808594 363.800781 452.585938 C 368.855469 452.359375 371.648438 447.734375 371.351563 443.121094 C 371.097656 439.082031 368.328125 434.394531 364.871094 430.0625 C 359.699219 423.59375 355.863281 418.089844 355.863281 418.089844 Z M 355.863281 418.089844 "/>
<path style=" stroke:none;fill-rule:nonzero;fill:rgb(83.137255%,0%,0%);fill-opacity:1;" d="M 103.992188 140.082031 C 103.992188 140.082031 95.953125 126.875 85.105469 111.34375 C 77.847656 100.953125 72.046875 89.699219 71.507813 80.007813 C 70.890625 68.9375 76.746094 57.832031 87.347656 57.292969 C 97.941406 56.753906 102.242188 65.828125 103.992188 73.308594 C 105.742188 65.828125 110.042969 56.753906 120.640625 57.292969 C 131.242188 57.832031 137.097656 68.9375 136.476563 80.007813 C 135.9375 89.699219 130.136719 100.953125 122.882813 111.34375 C 112.035156 126.875 103.992188 140.082031 103.992188 140.082031 Z M 103.992188 140.082031 "/>
<path style=" stroke:none;fill-rule:nonzero;fill:rgb(83.137255%,0%,0%);fill-opacity:1;" d="M 282.402344 140.082031 C 282.402344 140.082031 274.359375 126.875 263.515625 111.34375 C 256.257813 100.953125 250.457031 89.699219 249.917969 80.007813 C 249.296875 68.9375 255.152344 57.832031 265.753906 57.292969 C 276.351563 56.753906 280.652344 65.828125 282.402344 73.308594 C 284.152344 65.828125 288.453125 56.753906 299.050781 57.292969 C 309.652344 57.832031 315.507813 68.9375 314.886719 80.007813 C 314.347656 89.699219 308.546875 100.953125 301.289063 111.34375 C 290.445313 126.875 282.402344 140.082031 282.402344 140.082031 Z M 282.402344 140.082031 "/>
<path style=" stroke:none;fill-rule:nonzero;fill:rgb(83.137255%,0%,0%);fill-opacity:1;" d="M 193.199219 311.242188 C 193.199219 311.242188 185.15625 298.035156 174.308594 282.507813 C 167.054688 272.113281 161.25 260.863281 160.710938 251.171875 C 160.09375 240.097656 165.949219 228.992188 176.550781 228.453125 C 187.144531 227.914063 191.445313 236.992188 193.199219 244.472656 C 194.949219 236.992188 199.25 227.914063 209.84375 228.453125 C 220.445313 228.992188 226.300781 240.097656 225.683594 251.171875 C 225.144531 260.863281 219.34375 272.113281 212.085938 282.507813 C 201.238281 298.035156 193.199219 311.242188 193.199219 311.242188 Z M 193.199219 311.242188 "/>
<path style=" stroke:none;fill-rule:nonzero;fill:rgb(83.137255%,0%,0%);fill-opacity:1;" d="M 282.402344 399.59375 C 282.402344 399.59375 274.359375 412.800781 263.515625 428.328125 C 256.257813 438.71875 250.457031 449.972656 249.917969 459.664063 C 249.296875 470.734375 255.152344 481.84375 265.753906 482.378906 C 276.351563 482.917969 280.652344 473.84375 282.402344 466.363281 C 284.152344 473.84375 288.453125 482.917969 299.050781 482.378906 C 309.652344 481.84375 315.507813 470.734375 314.886719 459.664063 C 314.347656 449.972656 308.546875 438.71875 301.289063 428.328125 C 290.445313 412.800781 282.402344 399.59375 282.402344 399.59375 Z M 282.402344 399.59375 "/>
<path style=" stroke:none;fill-rule:nonzero;fill:rgb(83.137255%,0%,0%);fill-opacity:1;" d="M 103.992188 399.59375 C 103.992188 399.59375 95.953125 412.800781 85.105469 428.328125 C 77.847656 438.71875 72.046875 449.972656 71.507813 459.664063 C 70.890625 470.734375 76.746094 481.84375 87.347656 482.378906 C 97.941406 482.917969 102.242188 473.84375 103.992188 466.363281 C 105.742188 473.84375 110.042969 482.917969 120.640625 482.378906 C 131.242188 481.84375 137.097656 470.734375 136.476563 459.664063 C 135.9375 449.972656 130.136719 438.71875 122.882813 428.328125 C 112.035156 412.800781 103.992188 399.59375 103.992188 399.59375 Z M 103.992188 399.59375 "/>
<path style=" stroke:none;fill-rule:nonzero;fill:rgb(83.137255%,0%,0%);fill-opacity:1;" d="M 12.605469 66.929688 L 18.179688 66.875 C 19.242188 70.3125 21.59375 73.804688 24.789063 74.773438 C 33.816406 76.9375 39.621094 71.792969 41.535156 65.863281 C 43.855469 58.667969 41.484375 48.566406 35.269531 44.980469 C 30.121094 42.007813 22.46875 44.515625 18.957031 50.875 L 15.054688 48.441406 L 17.148438 24.738281 L 42.652344 24.738281 L 42.652344 30.339844 L 21.984375 30.339844 L 21.65625 40.214844 C 26.105469 37.027344 32.941406 37.0625 37.390625 39.296875 C 45.8125 43.394531 49.722656 52.707031 48.089844 63.683594 C 45.820313 74.597656 40.816406 80.785156 29.535156 81.667969 C 16.984375 81.785156 12.550781 72.984375 12.605469 66.929688 Z M 12.605469 66.929688 "/>
<path style=" stroke:none;fill-rule:nonzero;fill:rgb(83.137255%,0%,0%);fill-opacity:1;" d="M 373.785156 472.742188 L 368.210938 472.796875 C 367.148438 469.359375 364.796875 465.867188 361.601563 464.898438 C 352.574219 462.734375 346.769531 467.878906 344.855469 473.8125 C 342.535156 481.003906 344.90625 491.105469 351.121094 494.691406 C 356.269531 497.664063 363.921875 495.15625 367.433594 488.796875 L 371.339844 491.234375 L 369.242188 514.9375 L 343.738281 514.9375 L 343.738281 509.332031 L 364.40625 509.332031 L 364.734375 499.457031 C 360.285156 502.644531 353.449219 502.609375 349 500.375 C 340.582031 496.28125 336.667969 486.96875 338.304688 475.992188 C 340.570313 465.074219 345.574219 458.890625 356.859375 458.003906 C 369.410156 457.890625 373.839844 466.691406 373.785156 472.742188 Z M 373.785156 472.742188 "/>
</g>
</svg>
