<?xml version="1.0" encoding="UTF-8"?>
<svg xmlns="http://www.w3.org/2000/svg" xmlns:xlink="http://www.w3.org/1999/xlink" width="386pt" height="540pt" viewBox="0 0 386 540" version="1.1">
<g id="surface1">
<path style="fill-rule:nonzero;fill:rgb(100%,100%,100%);fill-opacity:1;stroke-width:1.000567;stroke-linecap:butt;stroke-linejoin:miter;stroke:rgb(0%,0%,0%);stroke-opacity:1;stroke-miterlimit:4;" d="M 1643.708782 -471.407466 L 1845.581761 -471.407466 C 1851.477799 -471.407466 1856.258554 -466.634561 1856.258554 -460.743147 L 1856.258554 -170.261565 C 1856.258554 -164.372415 1851.477799 -159.597245 1845.581761 -159.597245 L 1643.708782 -159.597245 C 1637.810477 -159.597245 1633.031989 -164.372415 1633.031989 -170.261565 L 1633.031989 -460.743147 C 1633.031989 -466.634561 1637.810477 -471.407466 1643.708782 -471.407466 Z M 1643.708782 -471.407466 " transform="matrix(-1.723218,0.000000000000000211,-0.000000000000000211,-1.725233,3199.600891,-274.479167)"/>
<path style=" stroke:none;fill-rule:nonzero;fill:rgb(0%,0%,0%);fill-opacity:1;" d="M 282.402344 482.402344 C 298.300781 459.703125 315.3125 446.640625 315.59375 428.933594 C 315.6875 423.199219 312.59375 413.453125 302.894531 411.585938 C 296.597656 410.382813 287.933594 415.480469 287.753906 425.839844 C 287.78125 427.902344 285.574219 427.851563 285.59375 425.023438 C 285.890625 416.851563 288.472656 407.335938 292.816406 399.59375 C 285.875 399.59375 278.929688 399.59375 271.988281 399.59375 C 276.332031 407.335938 278.914063 416.851563 279.210938 425.023438 C 279.234375 427.851563 277.023438 427.902344 277.050781 425.839844 C 276.871094 415.480469 268.207031 410.382813 261.914063 411.585938 C 252.210938 413.453125 249.117188 423.199219 249.210938 428.933594 C 249.492188 446.640625 266.503906 459.703125 282.402344 482.402344 Z M 282.402344 482.402344 "/>
<path style=" stroke:none;fill-rule:nonzero;fill:rgb(0%,0%,0%);fill-opacity:1;" d="M 355.863281 452.59375 C 363.292969 443.136719 371.238281 437.695313 371.371094 430.316406 C 371.417969 427.925781 369.96875 423.863281 365.4375 423.085938 C 362.496094 422.585938 358.449219 424.710938 358.363281 429.027344 C 358.382813 429.886719 357.34375 429.863281 357.355469 428.6875 C 357.492188 425.28125 358.699219 421.316406 360.730469 418.089844 C 357.484375 418.089844 354.242188 418.089844 351 418.089844 C 353.027344 421.316406 354.234375 425.28125 354.375 428.6875 C 354.390625 429.863281 353.351563 429.886719 353.363281 429.027344 C 353.28125 424.710938 349.230469 422.585938 346.289063 423.085938 C 341.757813 423.863281 340.3125 427.925781 340.355469 430.316406 C 340.488281 437.695313 348.4375 443.136719 355.863281 452.59375 Z M 355.863281 452.59375 "/>
<path style=" stroke:none;fill-rule:nonzero;fill:rgb(0%,0%,0%);fill-opacity:1;" d="M 30.53125 87.078125 C 37.957031 96.535156 45.90625 101.980469 46.039063 109.359375 C 46.082031 111.746094 44.636719 115.808594 40.101563 116.585938 C 37.164063 117.085938 33.113281 114.964844 33.03125 110.644531 C 33.046875 109.785156 32.011719 109.808594 32.019531 110.988281 C 32.160156 114.390625 33.367188 118.355469 35.394531 121.582031 C 32.152344 121.582031 28.910156 121.582031 25.664063 121.582031 C 27.695313 118.355469 28.902344 114.390625 29.039063 110.988281 C 29.054688 109.808594 28.015625 109.785156 28.03125 110.644531 C 27.945313 114.964844 23.898438 117.085938 20.957031 116.585938 C 16.425781 115.808594 14.976563 111.746094 15.023438 109.359375 C 15.15625 101.980469 23.101563 96.535156 30.53125 87.078125 Z M 30.53125 87.078125 "/>
<path style=" stroke:none;fill-rule:nonzero;fill:rgb(0%,0%,0%);fill-opacity:1;" d="M 103.992188 482.402344 C 119.890625 459.703125 136.902344 446.640625 137.183594 428.933594 C 137.28125 423.199219 134.183594 413.453125 124.484375 411.585938 C 118.191406 410.382813 109.523438 415.480469 109.34375 425.839844 C 109.371094 427.902344 107.164063 427.851563 107.183594 425.023438 C 107.480469 416.851563 110.0625 407.335938 114.40625 399.59375 C 107.464844 399.59375 100.523438 399.59375 93.578125 399.59375 C 97.921875 407.335938 100.503906 416.851563 100.800781 425.023438 C 100.824219 427.851563 98.613281 427.902344 98.640625 425.839844 C 98.460938 415.480469 89.796875 410.382813 83.503906 411.585938 C 73.804688 413.453125 70.707031 423.199219 70.800781 428.933594 C 71.082031 446.640625 88.09375 459.703125 103.992188 482.402344 Z M 103.992188 482.402344 "/>
<path style=" stroke:none;fill-rule:nonzero;fill:rgb(0%,0%,0%);fill-opacity:1;" d="M 282.402344 57.269531 C 298.300781 79.96875 315.3125 93.03125 315.59375 110.738281 C 315.6875 116.476563 312.59375 126.222656 302.894531 128.085938 C 296.597656 129.292969 287.933594 124.191406 287.753906 113.832031 C 287.78125 111.769531 285.574219 111.824219 285.59375 114.648438 C 285.890625 122.820313 288.472656 132.335938 292.816406 140.082031 C 285.875 140.082031 278.929688 140.082031 271.988281 140.082031 C 276.332031 132.335938 278.914063 122.820313 279.210938 114.648438 C 279.234375 111.824219 277.023438 111.769531 277.050781 113.832031 C 276.871094 124.191406 268.207031 129.292969 261.914063 128.085938 C 252.210938 126.222656 249.117188 116.476563 249.210938 110.738281 C 249.492188 93.03125 266.503906 79.96875 282.402344 57.269531 Z M 282.402344 57.269531 "/>
<path style=" stroke:none;fill-rule:nonzero;fill:rgb(0%,0%,0%);fill-opacity:1;" d="M 103.992188 57.269531 C 119.890625 79.96875 136.902344 93.03125 137.183594 110.738281 C 137.28125 116.476563 134.183594 126.222656 124.484375 128.085938 C 118.191406 129.292969 109.523438 124.191406 109.34375 113.832031 C 109.371094 111.769531 107.164063 111.824219 107.183594 114.648438 C 107.480469 122.820313 110.0625 132.335938 114.40625 140.082031 C 107.464844 140.082031 100.523438 140.082031 93.578125 140.082031 C 97.921875 132.335938 100.503906 122.820313 100.800781 114.648438 C 100.824219 111.824219 98.613281 111.769531 98.640625 113.832031 C 98.460938 124.191406 89.796875 129.292969 83.503906 128.085938 C 73.804688 126.222656 70.707031 116.476563 70.800781 110.738281 C 71.082031 93.03125 88.09375 79.96875 103.992188 57.269531 Z M 103.992188 57.269531 "/>
<path style=" stroke:none;fill-rule:nonzero;fill:rgb(0%,0%,0%);fill-opacity:1;" d="M 193.199219 311.242188 C 209.097656 288.542969 226.105469 275.480469 226.390625 257.769531 C 226.484375 252.035156 223.386719 242.289063 213.6875 240.425781 C 207.394531 239.21875 198.730469 244.320313 198.550781 254.679688 C 198.578125 256.742188 196.367188 256.6875 196.386719 253.863281 C 196.683594 245.691406 199.269531 236.175781 203.609375 228.429688 C 196.667969 228.429688 189.726563 228.429688 182.785156 228.429688 C 187.125 236.175781 189.710938 245.691406 190.007813 253.863281 C 190.027344 256.6875 187.820313 256.742188 187.847656 254.679688 C 187.664063 244.320313 179 239.21875 172.707031 240.425781 C 163.007813 242.289063 159.910156 252.035156 160.003906 257.769531 C 160.289063 275.480469 177.300781 288.542969 193.199219 311.242188 Z M 193.199219 311.242188 "/>
<path style=" stroke:none;fill-rule:nonzero;fill:rgb(0%,0%,0%);fill-opacity:1;" d="M 373.789063 472.742188 L 368.214844 472.796875 C 367.152344 469.359375 364.800781 465.867188 361.605469 464.898438 C 352.578125 462.734375 346.773438 467.878906 344.859375 473.8125 C 342.539063 481.003906 344.910156 491.105469 351.125 494.691406 C 356.273438 497.664063 363.925781 495.15625 367.4375 488.796875 L 371.34375 491.230469 L 369.246094 514.9375 L 343.742188 514.9375 L 343.742188 509.332031 L 364.410156 509.332031 L 364.738281 499.457031 C 360.289063 502.644531 353.453125 502.609375 349.003906 500.375 C 340.585938 496.28125 336.671875 486.964844 338.308594 475.992188 C 340.574219 465.074219 345.578125 458.886719 356.863281 458.003906 C 369.414063 457.890625 373.84375 466.691406 373.789063 472.742188 Z M 373.789063 472.742188 "/>
<path style=" stroke:none;fill-rule:nonzero;fill:rgb(0%,0%,0%);fill-opacity:1;" d="M 12.609375 66.929688 L 18.183594 66.875 C 19.246094 70.3125 21.597656 73.804688 24.792969 74.773438 C 33.820313 76.9375 39.625 71.792969 41.539063 65.863281 C 43.859375 58.667969 41.488281 48.566406 35.273438 44.980469 C 30.125 42.007813 22.472656 44.515625 18.960938 50.875 L 15.058594 48.441406 L 17.152344 24.734375 L 42.65625 24.734375 L 42.65625 30.339844 L 21.988281 30.339844 L 21.660156 40.214844 C 26.109375 37.027344 32.945313 37.0625 37.394531 39.296875 C 45.816406 43.394531 49.726563 52.707031 48.09375 63.683594 C 45.824219 74.597656 40.820313 80.785156 29.539063 81.667969 C 16.988281 81.785156 12.554688 72.984375 12.609375 66.929688 Z M 12.609375 66.929688 "/>
</g>
</svg>
