<?xml version="1.0" encoding="UTF-8"?>
<svg xmlns="http://www.w3.org/2000/svg" xmlns:xlink="http://www.w3.org/1999/xlink" width="386pt" height="540pt" viewBox="0 0 386 540" version="1.1">
<g id="surface1">
<path style="fill-rule:nonzero;fill:rgb(100%,100%,100%);fill-opacity:1;stroke-width:0.996734;stroke-linecap:butt;stroke-linejoin:miter;stroke:rgb(0%,0%,0%);stroke-opacity:1;stroke-miterlimit:4;" d="M 1795.288404 -1088.369239 L 1996.261129 -1088.369239 C 2002.130873 -1088.369239 2006.890308 -1083.609352 2006.890308 -1077.739051 L 2006.890308 -788.184934 C 2006.890308 -782.314633 2002.130873 -777.557004 1996.261129 -777.557004 L 1795.288404 -777.557004 C 1789.41866 -777.557004 1784.659225 -782.314633 1784.659225 -788.184934 L 1784.659225 -1077.739051 C 1784.659225 -1083.609352 1789.41866 -1088.369239 1795.288404 -1088.369239 Z M 1795.288404 -1088.369239 " transform="matrix(1.730937,0,0,1.730773,-3088.269122,1884.582984)"/>
<path style=" stroke:none;fill-rule:nonzero;fill:rgb(0%,0%,0%);fill-opacity:1;" d="M 282.394531 57.988281 C 265.476563 58.355469 257.890625 77.402344 270.417969 92.191406 C 272.238281 94.351563 272.425781 95.585938 269.097656 93.515625 C 260.660156 87.875 244.484375 91.582031 243.65625 108.828125 C 242.632813 130.078125 272.324219 136.199219 277.898438 113.605469 C 278.195313 111.21875 280.132813 111.273438 279.664063 114.660156 C 279.15625 123.84375 276.289063 132.425781 272.34375 140.796875 C 278.988281 140.796875 286.417969 140.796875 292.457031 140.796875 C 288.515625 132.425781 285.648438 123.84375 285.140625 114.660156 C 284.671875 111.273438 286.609375 111.21875 286.902344 113.605469 C 292.480469 136.199219 322.171875 130.078125 321.148438 108.828125 C 320.320313 91.582031 304.144531 87.875 295.707031 93.515625 C 292.378906 95.585938 292.566406 94.351563 294.382813 92.191406 C 306.914063 77.402344 299.328125 58.355469 282.410156 57.988281 C 282.410156 57.988281 282.410156 57.988281 282.390625 57.988281 Z M 282.394531 57.988281 "/>
<path style=" stroke:none;fill-rule:nonzero;fill:rgb(0%,0%,0%);fill-opacity:1;" d="M 103.984375 57.988281 C 87.066406 58.355469 79.480469 77.402344 92.011719 92.191406 C 93.828125 94.351563 94.015625 95.585938 90.6875 93.515625 C 82.25 87.875 66.074219 91.582031 65.246094 108.828125 C 64.222656 130.078125 93.914063 136.199219 99.492188 113.605469 C 99.785156 111.21875 101.722656 111.273438 101.253906 114.660156 C 100.746094 123.84375 97.878906 132.425781 93.9375 140.796875 C 100.582031 140.796875 108.007813 140.796875 114.050781 140.796875 C 110.105469 132.425781 107.238281 123.84375 106.730469 114.660156 C 106.261719 111.273438 108.199219 111.21875 108.496094 113.605469 C 114.070313 136.199219 143.761719 130.078125 142.738281 108.828125 C 141.910156 91.582031 125.734375 87.875 117.296875 93.515625 C 113.96875 95.585938 114.15625 94.351563 115.976563 92.191406 C 128.503906 77.402344 120.917969 58.355469 104 57.988281 C 104 57.988281 104 57.988281 103.980469 57.988281 Z M 103.984375 57.988281 "/>
<path style=" stroke:none;fill-rule:nonzero;fill:rgb(0%,0%,0%);fill-opacity:1;" d="M 282.394531 483.121094 C 265.476563 482.753906 257.890625 463.707031 270.417969 448.914063 C 272.238281 446.757813 272.425781 445.519531 269.097656 447.59375 C 260.660156 453.234375 244.484375 449.523438 243.65625 432.28125 C 242.632813 411.03125 272.324219 404.910156 277.898438 427.503906 C 278.195313 429.886719 280.132813 429.832031 279.664063 426.449219 C 279.15625 417.265625 276.289063 408.679688 272.34375 400.308594 C 278.988281 400.308594 286.417969 400.308594 292.457031 400.308594 C 288.515625 408.679688 285.648438 417.265625 285.140625 426.449219 C 284.671875 429.832031 286.609375 429.886719 286.902344 427.503906 C 292.480469 404.910156 322.171875 411.03125 321.148438 432.28125 C 320.320313 449.523438 304.144531 453.234375 295.707031 447.59375 C 292.378906 445.519531 292.566406 446.757813 294.382813 448.914063 C 306.914063 463.707031 299.328125 482.753906 282.410156 483.121094 C 282.410156 483.121094 282.410156 483.121094 282.390625 483.121094 Z M 282.394531 483.121094 "/>
<path style=" stroke:none;fill-rule:nonzero;fill:rgb(0%,0%,0%);fill-opacity:1;" d="M 103.984375 483.121094 C 87.066406 482.753906 79.480469 463.707031 92.011719 448.914063 C 93.828125 446.757813 94.015625 445.519531 90.6875 447.59375 C 82.25 453.234375 66.074219 449.523438 65.246094 432.28125 C 64.222656 411.03125 93.914063 404.910156 99.492188 427.503906 C 99.785156 429.886719 101.722656 429.832031 101.253906 426.449219 C 100.746094 417.265625 97.878906 408.679688 93.9375 400.308594 C 100.582031 400.308594 108.007813 400.308594 114.050781 400.308594 C 110.105469 408.679688 107.238281 417.265625 106.730469 426.449219 C 106.261719 429.832031 108.199219 429.886719 108.496094 427.503906 C 114.070313 404.910156 143.761719 411.03125 142.738281 432.28125 C 141.910156 449.523438 125.734375 453.234375 117.296875 447.59375 C 113.96875 445.519531 114.15625 446.757813 115.976563 448.914063 C 128.503906 463.707031 120.917969 482.753906 104 483.121094 C 104 483.121094 104 483.121094 103.980469 483.121094 Z M 103.984375 483.121094 "/>
<path style=" stroke:none;fill-rule:nonzero;fill:rgb(0%,0%,0%);fill-opacity:1;" d="M 282.394531 229.148438 C 265.476563 229.515625 257.890625 248.5625 270.417969 263.355469 C 272.238281 265.511719 272.425781 266.75 269.097656 264.675781 C 260.660156 259.035156 244.484375 262.746094 243.65625 279.988281 C 242.632813 301.238281 272.324219 307.359375 277.898438 284.765625 C 278.195313 282.382813 280.132813 282.4375 279.664063 285.820313 C 279.15625 295.003906 276.289063 303.589844 272.34375 311.960938 C 278.988281 311.960938 286.417969 311.960938 292.457031 311.960938 C 288.515625 303.589844 285.648438 295.003906 285.140625 285.820313 C 284.671875 282.4375 286.609375 282.382813 286.902344 284.765625 C 292.480469 307.359375 322.171875 301.238281 321.148438 279.988281 C 320.320313 262.746094 304.144531 259.035156 295.707031 264.675781 C 292.378906 266.75 292.566406 265.511719 294.382813 263.355469 C 306.914063 248.5625 299.328125 229.515625 282.410156 229.148438 C 282.410156 229.148438 282.410156 229.148438 282.390625 229.148438 Z M 282.394531 229.148438 "/>
<path style=" stroke:none;fill-rule:nonzero;fill:rgb(0%,0%,0%);fill-opacity:1;" d="M 103.984375 229.148438 C 87.066406 229.515625 79.480469 248.5625 92.011719 263.355469 C 93.828125 265.511719 94.015625 266.75 90.6875 264.675781 C 82.25 259.035156 66.074219 262.746094 65.246094 279.988281 C 64.222656 301.238281 93.914063 307.359375 99.492188 284.765625 C 99.785156 282.382813 101.722656 282.4375 101.253906 285.820313 C 100.746094 295.003906 97.878906 303.589844 93.9375 311.960938 C 100.582031 311.960938 108.007813 311.960938 114.050781 311.960938 C 110.105469 303.589844 107.238281 295.003906 106.730469 285.820313 C 106.261719 282.4375 108.199219 282.382813 108.496094 284.765625 C 114.070313 307.359375 143.761719 301.238281 142.738281 279.988281 C 141.910156 262.746094 125.734375 259.035156 117.296875 264.675781 C 113.96875 266.75 114.15625 265.511719 115.976563 263.355469 C 128.503906 248.5625 120.917969 229.515625 104 229.148438 C 104 229.148438 104 229.148438 103.980469 229.148438 Z M 103.984375 229.148438 "/>
<path style=" stroke:none;fill-rule:nonzero;fill:rgb(0%,0%,0%);fill-opacity:1;" d="M 355.867188 452.59375 C 362.636719 452.441406 365.667969 444.503906 360.65625 438.34375 C 359.929688 437.445313 359.855469 436.929688 361.1875 437.792969 C 364.5625 440.140625 371.03125 438.597656 371.363281 431.410156 C 371.773438 422.558594 359.894531 420.007813 357.664063 429.421875 C 357.546875 430.414063 356.773438 430.390625 356.960938 428.980469 C 357.164063 425.15625 358.308594 421.578125 359.886719 418.089844 C 357.207031 418.089844 354.523438 418.089844 351.84375 418.089844 C 353.417969 421.578125 354.566406 425.15625 354.769531 428.980469 C 354.957031 430.390625 354.183594 430.414063 354.0625 429.421875 C 351.835938 420.007813 339.957031 422.558594 340.367188 431.410156 C 340.699219 438.597656 347.167969 440.140625 350.542969 437.792969 C 351.875 436.929688 351.800781 437.445313 351.070313 438.34375 C 346.058594 444.503906 349.09375 452.441406 355.863281 452.59375 Z M 355.867188 452.59375 "/>
<path style=" stroke:none;fill-rule:nonzero;fill:rgb(0%,0%,0%);fill-opacity:1;" d="M 30.527344 87.078125 C 23.761719 87.230469 20.726563 95.167969 25.738281 101.332031 C 26.464844 102.230469 26.539063 102.746094 25.210938 101.882813 C 21.835938 99.53125 15.363281 101.078125 15.035156 108.261719 C 14.625 117.117188 26.5 119.667969 28.730469 110.253906 C 28.847656 109.257813 29.625 109.28125 29.4375 110.691406 C 29.234375 114.519531 28.085938 118.09375 26.507813 121.582031 C 29.191406 121.582031 31.871094 121.582031 34.554688 121.582031 C 32.976563 118.09375 31.828125 114.519531 31.625 110.691406 C 31.441406 109.28125 32.214844 109.257813 32.332031 110.253906 C 34.5625 119.667969 46.441406 117.117188 46.03125 108.261719 C 45.699219 101.078125 39.226563 99.53125 35.855469 101.882813 C 34.523438 102.746094 34.597656 102.230469 35.324219 101.332031 C 40.335938 95.167969 37.300781 87.230469 30.535156 87.078125 C 30.53125 87.078125 30.535156 87.078125 30.535156 87.078125 Z M 30.527344 87.078125 "/>
<path style=" stroke:none;fill-rule:nonzero;fill:rgb(0%,0%,0%);fill-opacity:1;" d="M 13.828125 64.152344 C 13.128906 59.363281 13.148438 46.972656 13.71875 43.308594 C 15.484375 32.085938 19.765625 26.945313 26.941406 25.269531 C 33.910156 23.636719 43.695313 25.457031 45.84375 34.839844 L 40.019531 34.949219 C 36.867188 28.605469 28.898438 30.300781 24.40625 33.0625 C 20.824219 35.261719 19.203125 44.4375 19.898438 45.003906 C 19.898438 45.003906 26.671875 39.980469 32.015625 40.351563 C 43.429688 41.539063 48.136719 51.453125 47.738281 60.808594 C 47.375 72.066406 43.808594 81.070313 31.710938 81.667969 C 20.207031 81.222656 14.9375 74.945313 13.828125 64.152344 Z M 42.199219 61.179688 C 42.261719 53.371094 38.722656 47.515625 32.015625 46.875 C 25.316406 46.230469 18.554688 52.777344 19.023438 60.738281 C 19.488281 68.734375 22.582031 75.457031 30.707031 75.421875 C 39.449219 75.386719 42.15625 66.738281 42.199219 61.179688 Z M 42.199219 61.179688 "/>
<path style=" stroke:none;fill-rule:nonzero;fill:rgb(0%,0%,0%);fill-opacity:1;" d="M 372.5625 475.519531 C 373.261719 480.3125 373.246094 492.699219 372.671875 496.363281 C 370.90625 507.589844 366.625 512.726563 359.449219 514.402344 C 352.484375 516.035156 342.695313 514.21875 340.546875 504.835938 L 346.371094 504.722656 C 349.523438 511.066406 357.496094 509.371094 361.984375 506.613281 C 365.566406 504.414063 367.1875 495.234375 366.492188 494.667969 C 366.492188 494.667969 359.71875 499.695313 354.378906 499.324219 C 342.960938 498.132813 338.253906 488.222656 338.652344 478.863281 C 339.015625 467.605469 342.582031 458.605469 354.679688 458.003906 C 366.183594 458.449219 371.453125 464.726563 372.5625 475.519531 Z M 344.191406 478.492188 C 344.128906 486.304688 347.671875 492.15625 354.378906 492.796875 C 361.078125 493.445313 367.835938 486.898438 367.367188 478.9375 C 366.902344 470.941406 363.8125 464.214844 355.683594 464.25 C 346.945313 464.285156 344.234375 472.933594 344.191406 478.492188 Z M 344.191406 478.492188 "/>
</g>
</svg>
