<?xml version="1.0" encoding="UTF-8"?>
<svg xmlns="http://www.w3.org/2000/svg" xmlns:xlink="http://www.w3.org/1999/xlink" width="386pt" height="540pt" viewBox="0 0 386 540" version="1.1">
<g id="surface1">
<path style="fill-rule:nonzero;fill:rgb(100%,100%,100%);fill-opacity:1;stroke-width:1.000567;stroke-linecap:butt;stroke-linejoin:miter;stroke:rgb(0%,0%,0%);stroke-opacity:1;stroke-miterlimit:4;" d="M 1794.838278 -30.444837 L 1996.711821 -30.444837 C 2002.607875 -30.444837 2007.388643 -25.669677 2007.388643 -19.780539 L 2007.388643 270.702724 C 2007.388643 276.591862 2002.607875 281.367023 1996.711821 281.367023 L 1794.838278 281.367023 C 1788.942224 281.367023 1784.161456 276.591862 1784.161456 270.702724 L 1784.161456 -19.780539 C 1784.161456 -25.669677 1788.942224 -30.444837 1794.838278 -30.444837 Z M 1794.838278 -30.444837 " transform="matrix(1.723213,0,0,1.725237,-3073.626753,53.387827)"/>
<path style=" stroke:none;fill-rule:nonzero;fill:rgb(83.137255%,0%,0%);fill-opacity:1;" d="M 30.53125 121.582031 C 26.808594 115.425781 22.890625 109.441406 17.992188 104.332031 C 22.890625 99.21875 26.808594 93.234375 30.53125 87.078125 C 34.253906 93.234375 38.171875 99.21875 43.066406 104.332031 C 38.171875 109.441406 34.253906 115.425781 30.53125 121.582031 Z M 30.53125 121.582031 "/>
<path style=" stroke:none;fill-rule:nonzero;fill:rgb(83.137255%,0%,0%);fill-opacity:1;" d="M 282.402344 140.082031 C 273.464844 125.304688 264.0625 110.941406 252.3125 98.675781 C 264.0625 86.40625 273.464844 72.046875 282.402344 57.269531 C 291.339844 72.046875 300.742188 86.40625 312.492188 98.675781 C 300.742188 110.941406 291.339844 125.304688 282.402344 140.082031 Z M 282.402344 140.082031 "/>
<path style=" stroke:none;fill-rule:nonzero;fill:rgb(83.137255%,0%,0%);fill-opacity:1;" d="M 355.863281 452.59375 C 352.140625 446.4375 348.222656 440.453125 343.328125 435.34375 C 348.222656 430.230469 352.140625 424.246094 355.863281 418.089844 C 359.585938 424.246094 363.503906 430.230469 368.402344 435.34375 C 363.503906 440.453125 359.585938 446.4375 355.863281 452.59375 Z M 355.863281 452.59375 "/>
<path style=" stroke:none;fill-rule:nonzero;fill:rgb(83.137255%,0%,0%);fill-opacity:1;" d="M 103.992188 140.082031 C 95.054688 125.304688 85.652344 110.941406 73.902344 98.675781 C 85.652344 86.40625 95.054688 72.046875 103.992188 57.269531 C 112.929688 72.046875 122.332031 86.40625 134.082031 98.675781 C 122.332031 110.941406 112.929688 125.304688 103.992188 140.082031 Z M 103.992188 140.082031 "/>
<path style=" stroke:none;fill-rule:nonzero;fill:rgb(83.137255%,0%,0%);fill-opacity:1;" d="M 103.992188 311.1875 C 95.054688 296.410156 85.652344 282.050781 73.902344 269.78125 C 85.652344 257.511719 95.054688 243.152344 103.992188 228.375 C 112.929688 243.152344 122.332031 257.511719 134.082031 269.78125 C 122.332031 282.050781 112.929688 296.410156 103.992188 311.1875 Z M 103.992188 311.1875 "/>
<path style=" stroke:none;fill-rule:nonzero;fill:rgb(83.137255%,0%,0%);fill-opacity:1;" d="M 282.402344 311.214844 C 273.464844 296.4375 264.0625 282.074219 252.3125 269.808594 C 264.0625 257.539063 273.464844 243.179688 282.402344 228.402344 C 291.339844 243.179688 300.742188 257.539063 312.492188 269.808594 C 300.742188 282.074219 291.339844 296.4375 282.402344 311.214844 Z M 282.402344 311.214844 "/>
<path style=" stroke:none;fill-rule:nonzero;fill:rgb(83.137255%,0%,0%);fill-opacity:1;" d="M 103.992188 482.414063 C 95.054688 467.636719 85.652344 453.277344 73.902344 441.007813 C 85.652344 428.738281 95.054688 414.378906 103.992188 399.601563 C 112.929688 414.378906 122.332031 428.738281 134.082031 441.007813 C 122.332031 453.277344 112.929688 467.636719 103.992188 482.414063 Z M 103.992188 482.414063 "/>
<path style=" stroke:none;fill-rule:nonzero;fill:rgb(83.137255%,0%,0%);fill-opacity:1;" d="M 282.402344 482.425781 C 273.464844 467.648438 264.0625 453.289063 252.3125 441.019531 C 264.0625 428.75 273.464844 414.390625 282.402344 399.613281 C 291.339844 414.390625 300.742188 428.75 312.492188 441.019531 C 300.742188 453.289063 291.339844 467.648438 282.402344 482.425781 Z M 282.402344 482.425781 "/>
<path style=" stroke:none;fill-rule:nonzero;fill:rgb(83.137255%,0%,0%);fill-opacity:1;" d="M 13.828125 64.152344 C 13.128906 59.363281 13.148438 46.972656 13.71875 43.308594 C 15.484375 32.085938 19.765625 26.945313 26.941406 25.269531 C 33.910156 23.636719 43.695313 25.457031 45.84375 34.839844 L 40.019531 34.953125 C 36.867188 28.609375 28.898438 30.300781 24.40625 33.0625 C 20.824219 35.261719 19.203125 44.441406 19.898438 45.003906 C 19.898438 45.003906 26.671875 39.980469 32.015625 40.351563 C 43.429688 41.542969 48.136719 51.453125 47.738281 60.8125 C 47.375 72.066406 43.808594 81.070313 31.710938 81.667969 C 20.207031 81.226563 14.9375 74.945313 13.828125 64.15625 Z M 42.199219 61.179688 C 42.261719 53.371094 38.71875 47.515625 32.015625 46.875 C 25.3125 46.230469 18.554688 52.777344 19.023438 60.738281 C 19.488281 68.734375 22.582031 75.457031 30.707031 75.421875 C 39.445313 75.386719 42.15625 66.738281 42.199219 61.179688 Z M 42.199219 61.179688 "/>
<path style=" stroke:none;fill-rule:nonzero;fill:rgb(83.137255%,0%,0%);fill-opacity:1;" d="M 372.5625 475.519531 C 373.261719 480.3125 373.242188 492.699219 372.671875 496.363281 C 370.90625 507.589844 366.625 512.726563 359.449219 514.402344 C 352.480469 516.035156 342.695313 514.21875 340.546875 504.835938 L 346.371094 504.722656 C 349.523438 511.066406 357.492188 509.371094 361.984375 506.613281 C 365.566406 504.414063 367.1875 495.234375 366.492188 494.667969 C 366.492188 494.667969 359.71875 499.695313 354.375 499.324219 C 342.960938 498.132813 338.253906 488.222656 338.652344 478.863281 C 339.015625 467.605469 342.582031 458.605469 354.679688 458.003906 C 366.183594 458.449219 371.453125 464.730469 372.5625 475.519531 Z M 344.191406 478.492188 C 344.128906 486.304688 347.671875 492.15625 354.375 492.796875 C 361.074219 493.445313 367.835938 486.898438 367.367188 478.9375 C 366.902344 470.941406 363.808594 464.214844 355.683594 464.25 C 346.945313 464.285156 344.234375 472.933594 344.191406 478.492188 Z M 344.191406 478.492188 "/>
</g>
</svg>
