<?xml version="1.0" encoding="UTF-8"?>
<svg xmlns="http://www.w3.org/2000/svg" xmlns:xlink="http://www.w3.org/1999/xlink" width="386pt" height="540pt" viewBox="0 0 386 540" version="1.1">
<g id="surface1">
<path style="fill-rule:nonzero;fill:rgb(100%,100%,100%);fill-opacity:1;stroke-width:1.000567;stroke-linecap:butt;stroke-linejoin:miter;stroke:rgb(0%,0%,0%);stroke-opacity:1;stroke-miterlimit:4;" d="M 271.110477 370.275643 L 472.983457 370.275643 C 478.881761 370.275643 483.662516 375.050813 483.662516 380.939962 L 483.662516 671.421544 C 483.662516 677.312958 478.881761 682.085864 472.983457 682.085864 L 271.110477 682.085864 C 265.214439 682.085864 260.433684 677.312958 260.433684 671.421544 L 260.433684 380.939962 C 260.433684 375.050813 265.214439 370.275643 271.110477 370.275643 Z M 271.110477 370.275643 " transform="matrix(1.723218,0,0,1.725233,-447.920655,-637.94851)"/>
<path style=" stroke:none;fill-rule:nonzero;fill:rgb(83.137255%,0%,0%);fill-opacity:1;" d="M 30.53125 121.582031 C 30.53125 121.582031 26.699219 116.082031 21.527344 109.609375 C 18.066406 105.28125 15.300781 100.59375 15.042969 96.554688 C 14.75 91.941406 17.539063 87.3125 22.59375 87.089844 C 27.644531 86.863281 29.695313 90.644531 30.53125 93.761719 C 31.367188 90.644531 33.417969 86.863281 38.46875 87.089844 C 43.523438 87.3125 46.3125 91.941406 46.019531 96.554688 C 45.761719 100.59375 42.996094 105.28125 39.535156 109.609375 C 34.363281 116.082031 30.53125 121.582031 30.53125 121.582031 Z M 30.53125 121.582031 "/>
<path style=" stroke:none;fill-rule:nonzero;fill:rgb(83.137255%,0%,0%);fill-opacity:1;" d="M 355.867188 418.089844 C 355.867188 418.089844 352.03125 423.59375 346.859375 430.0625 C 343.402344 434.394531 340.636719 439.082031 340.378906 443.121094 C 340.082031 447.734375 342.875 452.359375 347.929688 452.585938 C 352.980469 452.808594 355.03125 449.027344 355.867188 445.910156 C 356.699219 449.027344 358.75 452.808594 363.800781 452.585938 C 368.855469 452.359375 371.648438 447.734375 371.351563 443.121094 C 371.097656 439.082031 368.328125 434.394531 364.871094 430.0625 C 359.699219 423.59375 355.867188 418.089844 355.867188 418.089844 Z M 355.867188 418.089844 "/>
<path style=" stroke:none;fill-rule:nonzero;fill:rgb(83.137255%,0%,0%);fill-opacity:1;" d="M 103.992188 140.082031 C 103.992188 140.082031 95.953125 126.875 85.105469 111.34375 C 77.847656 100.953125 72.046875 89.699219 71.507813 80.007813 C 70.890625 68.9375 76.746094 57.832031 87.347656 57.292969 C 97.941406 56.753906 102.242188 65.828125 103.992188 73.308594 C 105.742188 65.828125 110.042969 56.753906 120.640625 57.292969 C 131.242188 57.832031 137.097656 68.9375 136.476563 80.007813 C 135.9375 89.699219 130.136719 100.953125 122.882813 111.34375 C 112.035156 126.875 103.992188 140.082031 103.992188 140.082031 Z M 103.992188 140.082031 "/>
<path style=" stroke:none;fill-rule:nonzero;fill:rgb(83.137255%,0%,0%);fill-opacity:1;" d="M 282.402344 311.242188 C 282.402344 311.242188 274.359375 298.035156 263.515625 282.507813 C 256.257813 272.113281 250.457031 260.863281 249.917969 251.171875 C 249.296875 240.097656 255.15625 228.992188 265.757813 228.453125 C 276.351563 227.914063 280.652344 236.992188 282.402344 244.472656 C 284.152344 236.992188 288.453125 227.914063 299.050781 228.453125 C 309.652344 228.992188 315.507813 240.097656 314.886719 251.171875 C 314.347656 260.863281 308.546875 272.113281 301.289063 282.507813 C 290.445313 298.035156 282.402344 311.242188 282.402344 311.242188 Z M 282.402344 311.242188 "/>
<path style=" stroke:none;fill-rule:nonzero;fill:rgb(83.137255%,0%,0%);fill-opacity:1;" d="M 282.402344 140.082031 C 282.402344 140.082031 274.359375 126.875 263.515625 111.34375 C 256.257813 100.953125 250.457031 89.699219 249.917969 80.007813 C 249.296875 68.9375 255.15625 57.832031 265.757813 57.292969 C 276.351563 56.753906 280.652344 65.828125 282.402344 73.308594 C 284.152344 65.828125 288.453125 56.753906 299.050781 57.292969 C 309.652344 57.832031 315.507813 68.9375 314.886719 80.007813 C 314.347656 89.699219 308.546875 100.953125 301.289063 111.34375 C 290.445313 126.875 282.402344 140.082031 282.402344 140.082031 Z M 282.402344 140.082031 "/>
<path style=" stroke:none;fill-rule:nonzero;fill:rgb(83.137255%,0%,0%);fill-opacity:1;" d="M 103.992188 311.242188 C 103.992188 311.242188 95.953125 298.035156 85.105469 282.507813 C 77.847656 272.113281 72.046875 260.863281 71.507813 251.171875 C 70.890625 240.097656 76.746094 228.992188 87.347656 228.453125 C 97.941406 227.914063 102.242188 236.992188 103.992188 244.472656 C 105.742188 236.992188 110.042969 227.914063 120.640625 228.453125 C 131.242188 228.992188 137.097656 240.097656 136.476563 251.171875 C 135.9375 260.863281 130.136719 272.113281 122.882813 282.507813 C 112.035156 298.035156 103.992188 311.242188 103.992188 311.242188 Z M 103.992188 311.242188 "/>
<path style=" stroke:none;fill-rule:nonzero;fill:rgb(83.137255%,0%,0%);fill-opacity:1;" d="M 282.402344 399.59375 C 282.402344 399.59375 274.359375 412.800781 263.515625 428.328125 C 256.257813 438.71875 250.457031 449.972656 249.917969 459.664063 C 249.296875 470.734375 255.15625 481.84375 265.757813 482.378906 C 276.351563 482.917969 280.652344 473.84375 282.402344 466.363281 C 284.152344 473.84375 288.453125 482.917969 299.050781 482.378906 C 309.652344 481.84375 315.507813 470.734375 314.886719 459.664063 C 314.347656 449.972656 308.546875 438.71875 301.289063 428.328125 C 290.445313 412.800781 282.402344 399.59375 282.402344 399.59375 Z M 282.402344 399.59375 "/>
<path style=" stroke:none;fill-rule:nonzero;fill:rgb(83.137255%,0%,0%);fill-opacity:1;" d="M 103.992188 399.59375 C 103.992188 399.59375 95.953125 412.800781 85.105469 428.328125 C 77.847656 438.71875 72.046875 449.972656 71.507813 459.664063 C 70.890625 470.734375 76.746094 481.84375 87.347656 482.378906 C 97.941406 482.917969 102.242188 473.84375 103.992188 466.363281 C 105.742188 473.84375 110.042969 482.917969 120.640625 482.378906 C 131.242188 481.84375 137.097656 470.734375 136.476563 459.664063 C 135.9375 449.972656 130.136719 438.71875 122.882813 428.328125 C 112.035156 412.800781 103.992188 399.59375 103.992188 399.59375 Z M 103.992188 399.59375 "/>
<path style=" stroke:none;fill-rule:nonzero;fill:rgb(83.137255%,0%,0%);fill-opacity:1;" d="M 13.828125 64.152344 C 13.128906 59.363281 13.148438 46.976563 13.71875 43.3125 C 15.484375 32.085938 19.765625 26.949219 26.941406 25.269531 C 33.910156 23.636719 43.695313 25.457031 45.84375 34.839844 L 40.019531 34.949219 C 36.867188 28.605469 28.898438 30.300781 24.40625 33.0625 C 20.824219 35.261719 19.203125 44.441406 19.898438 45.003906 C 19.898438 45.003906 26.671875 39.980469 32.015625 40.351563 C 43.429688 41.542969 48.136719 51.453125 47.738281 60.808594 C 47.375 72.066406 43.808594 81.070313 31.710938 81.667969 C 20.207031 81.222656 14.9375 74.945313 13.828125 64.152344 Z M 42.199219 61.179688 C 42.261719 53.371094 38.71875 47.515625 32.015625 46.875 C 25.3125 46.230469 18.554688 52.777344 19.023438 60.738281 C 19.488281 68.734375 22.582031 75.460938 30.707031 75.421875 C 39.445313 75.386719 42.15625 66.742188 42.199219 61.179688 Z M 42.199219 61.179688 "/>
<path style=" stroke:none;fill-rule:nonzero;fill:rgb(83.137255%,0%,0%);fill-opacity:1;" d="M 372.5625 475.519531 C 373.261719 480.3125 373.246094 492.699219 372.671875 496.363281 C 370.90625 507.589844 366.625 512.726563 359.449219 514.402344 C 352.484375 516.035156 342.695313 514.214844 340.546875 504.835938 L 346.371094 504.722656 C 349.523438 511.066406 357.496094 509.371094 361.984375 506.609375 C 365.566406 504.414063 367.1875 495.234375 366.492188 494.667969 C 366.492188 494.667969 359.71875 499.691406 354.375 499.324219 C 342.960938 498.132813 338.253906 488.222656 338.652344 478.863281 C 339.015625 467.605469 342.582031 458.601563 354.679688 458.003906 C 366.183594 458.449219 371.453125 464.726563 372.5625 475.519531 Z M 344.191406 478.492188 C 344.132813 486.300781 347.671875 492.15625 354.378906 492.796875 C 361.078125 493.445313 367.835938 486.898438 367.371094 478.933594 C 366.902344 470.941406 363.8125 464.214844 355.683594 464.25 C 346.945313 464.285156 344.234375 472.933594 344.191406 478.492188 Z M 344.191406 478.492188 "/>
</g>
</svg>
