<?xml version="1.0" encoding="UTF-8"?>
<svg xmlns="http://www.w3.org/2000/svg" xmlns:xlink="http://www.w3.org/1999/xlink" width="386pt" height="540pt" viewBox="0 0 386 540" version="1.1">
<g id="surface1">
<path style="fill-rule:nonzero;fill:rgb(100%,100%,100%);fill-opacity:1;stroke-width:1.000567;stroke-linecap:butt;stroke-linejoin:miter;stroke:rgb(0%,0%,0%);stroke-opacity:1;stroke-miterlimit:4;" d="M 1968.814121 -471.408075 L 2170.687101 -471.408075 C 2176.585405 -471.408075 2181.363893 -466.632905 2181.363893 -460.743755 L 2181.363893 -170.262173 C 2181.363893 -164.370759 2176.585405 -159.597854 2170.687101 -159.597854 L 1968.814121 -159.597854 C 1962.918084 -159.597854 1958.137329 -164.370759 1958.137329 -170.262173 L 1958.137329 -460.743755 C 1958.137329 -466.632905 1962.918084 -471.408075 1968.814121 -471.408075 Z M 1968.814121 -471.408075 " transform="matrix(1.723218,0,0,1.725233,-3373.433638,814.152092)"/>
<path style=" stroke:none;fill-rule:nonzero;fill:rgb(0%,0%,0%);fill-opacity:1;" d="M 103.992188 57.269531 C 88.09375 79.96875 71.082031 93.03125 70.800781 110.738281 C 70.707031 116.472656 73.800781 126.222656 83.503906 128.085938 C 89.796875 129.292969 98.460938 124.191406 98.640625 113.832031 C 98.613281 111.769531 100.824219 111.824219 100.800781 114.648438 C 100.503906 122.820313 97.921875 132.335938 93.578125 140.082031 C 100.523438 140.082031 107.464844 140.082031 114.40625 140.082031 C 110.0625 132.335938 107.480469 122.820313 107.183594 114.648438 C 107.164063 111.824219 109.371094 111.769531 109.34375 113.832031 C 109.523438 124.191406 118.191406 129.292969 124.484375 128.085938 C 134.183594 126.222656 137.28125 116.472656 137.183594 110.738281 C 136.902344 93.03125 119.890625 79.96875 103.992188 57.269531 Z M 103.992188 57.269531 "/>
<path style=" stroke:none;fill-rule:nonzero;fill:rgb(0%,0%,0%);fill-opacity:1;" d="M 30.53125 87.078125 C 23.101563 96.535156 15.15625 101.980469 15.023438 109.359375 C 14.976563 111.746094 16.425781 115.808594 20.957031 116.585938 C 23.898438 117.089844 27.945313 114.964844 28.03125 110.644531 C 28.011719 109.785156 29.050781 109.808594 29.039063 110.988281 C 28.902344 114.390625 27.695313 118.355469 25.664063 121.582031 C 28.910156 121.582031 32.152344 121.582031 35.394531 121.582031 C 33.367188 118.355469 32.160156 114.390625 32.023438 110.988281 C 32.003906 109.808594 33.042969 109.785156 33.03125 110.644531 C 33.117188 114.964844 37.164063 117.089844 40.105469 116.585938 C 44.636719 115.808594 46.082031 111.746094 46.039063 109.359375 C 45.90625 101.980469 37.957031 96.535156 30.53125 87.078125 Z M 30.53125 87.078125 "/>
<path style=" stroke:none;fill-rule:nonzero;fill:rgb(0%,0%,0%);fill-opacity:1;" d="M 355.863281 452.59375 C 348.4375 443.136719 340.488281 437.695313 340.355469 430.316406 C 340.3125 427.925781 341.757813 423.863281 346.292969 423.085938 C 349.230469 422.585938 353.28125 424.710938 353.363281 429.027344 C 353.347656 429.886719 354.382813 429.863281 354.375 428.6875 C 354.238281 425.28125 353.027344 421.316406 351 418.089844 C 354.242188 418.089844 357.488281 418.089844 360.730469 418.089844 C 358.703125 421.316406 357.496094 425.28125 357.355469 428.6875 C 357.339844 429.863281 358.378906 429.886719 358.367188 429.027344 C 358.449219 424.710938 362.496094 422.585938 365.4375 423.085938 C 369.96875 423.863281 371.417969 427.925781 371.371094 430.316406 C 371.242188 437.695313 363.292969 443.136719 355.863281 452.59375 Z M 355.863281 452.59375 "/>
<path style=" stroke:none;fill-rule:nonzero;fill:rgb(0%,0%,0%);fill-opacity:1;" d="M 282.402344 57.269531 C 266.503906 79.96875 249.492188 93.03125 249.210938 110.738281 C 249.117188 116.472656 252.210938 126.222656 261.910156 128.085938 C 268.207031 129.292969 276.871094 124.191406 277.050781 113.832031 C 277.023438 111.769531 279.230469 111.824219 279.210938 114.648438 C 278.914063 122.820313 276.332031 132.335938 271.988281 140.082031 C 278.929688 140.082031 285.875 140.082031 292.816406 140.082031 C 288.472656 132.335938 285.890625 122.820313 285.59375 114.648438 C 285.570313 111.824219 287.78125 111.769531 287.753906 113.832031 C 287.933594 124.191406 296.597656 129.292969 302.890625 128.085938 C 312.59375 126.222656 315.6875 116.472656 315.59375 110.738281 C 315.3125 93.03125 298.300781 79.96875 282.402344 57.269531 Z M 282.402344 57.269531 "/>
<path style=" stroke:none;fill-rule:nonzero;fill:rgb(0%,0%,0%);fill-opacity:1;" d="M 103.992188 228.429688 C 88.09375 251.128906 71.082031 264.191406 70.800781 281.902344 C 70.707031 287.636719 73.800781 297.382813 83.503906 299.25 C 89.796875 300.453125 98.460938 295.355469 98.640625 284.992188 C 98.613281 282.929688 100.824219 282.984375 100.800781 285.8125 C 100.503906 293.984375 97.921875 303.496094 93.578125 311.242188 C 100.523438 311.242188 107.464844 311.242188 114.40625 311.242188 C 110.0625 303.496094 107.480469 293.984375 107.183594 285.8125 C 107.164063 282.984375 109.371094 282.929688 109.34375 284.992188 C 109.523438 295.355469 118.191406 300.453125 124.484375 299.25 C 134.183594 297.382813 137.28125 287.636719 137.183594 281.902344 C 136.902344 264.191406 119.890625 251.128906 103.992188 228.429688 Z M 103.992188 228.429688 "/>
<path style=" stroke:none;fill-rule:nonzero;fill:rgb(0%,0%,0%);fill-opacity:1;" d="M 103.992188 482.402344 C 88.09375 459.703125 71.082031 446.640625 70.800781 428.933594 C 70.707031 423.199219 73.800781 413.453125 83.503906 411.585938 C 89.796875 410.382813 98.460938 415.480469 98.640625 425.839844 C 98.613281 427.902344 100.824219 427.851563 100.800781 425.023438 C 100.503906 416.851563 97.921875 407.335938 93.578125 399.59375 C 100.523438 399.59375 107.464844 399.59375 114.40625 399.59375 C 110.0625 407.335938 107.480469 416.851563 107.183594 425.023438 C 107.164063 427.851563 109.371094 427.902344 109.34375 425.839844 C 109.523438 415.480469 118.191406 410.382813 124.484375 411.585938 C 134.183594 413.453125 137.28125 423.199219 137.183594 428.933594 C 136.902344 446.640625 119.890625 459.703125 103.992188 482.402344 Z M 103.992188 482.402344 "/>
<path style=" stroke:none;fill-rule:nonzero;fill:rgb(0%,0%,0%);fill-opacity:1;" d="M 282.402344 482.402344 C 266.503906 459.703125 249.492188 446.640625 249.210938 428.933594 C 249.117188 423.199219 252.210938 413.453125 261.910156 411.585938 C 268.207031 410.382813 276.871094 415.480469 277.050781 425.839844 C 277.023438 427.902344 279.230469 427.851563 279.210938 425.023438 C 278.914063 416.851563 276.332031 407.335938 271.988281 399.59375 C 278.929688 399.59375 285.875 399.59375 292.816406 399.59375 C 288.472656 407.335938 285.890625 416.851563 285.59375 425.023438 C 285.570313 427.851563 287.78125 427.902344 287.753906 425.839844 C 287.933594 415.480469 296.597656 410.382813 302.890625 411.585938 C 312.59375 413.453125 315.6875 423.199219 315.59375 428.933594 C 315.3125 446.640625 298.300781 459.703125 282.402344 482.402344 Z M 282.402344 482.402344 "/>
<path style=" stroke:none;fill-rule:nonzero;fill:rgb(0%,0%,0%);fill-opacity:1;" d="M 282.402344 228.429688 C 266.503906 251.128906 249.492188 264.191406 249.210938 281.902344 C 249.117188 287.636719 252.210938 297.382813 261.910156 299.25 C 268.207031 300.453125 276.871094 295.355469 277.050781 284.992188 C 277.023438 282.929688 279.230469 282.984375 279.210938 285.8125 C 278.914063 293.984375 276.332031 303.496094 271.988281 311.242188 C 278.929688 311.242188 285.875 311.242188 292.816406 311.242188 C 288.472656 303.496094 285.890625 293.984375 285.59375 285.8125 C 285.570313 282.984375 287.78125 282.929688 287.753906 284.992188 C 287.933594 295.355469 296.597656 300.453125 302.890625 299.25 C 312.59375 297.382813 315.6875 287.636719 315.59375 281.902344 C 315.3125 264.191406 298.300781 251.128906 282.402344 228.429688 Z M 282.402344 228.429688 "/>
<path style=" stroke:none;fill-rule:nonzero;fill:rgb(0%,0%,0%);fill-opacity:1;" d="M 13.828125 64.152344 C 13.128906 59.363281 13.148438 46.972656 13.71875 43.308594 C 15.484375 32.082031 19.765625 26.945313 26.941406 25.269531 C 33.910156 23.636719 43.695313 25.457031 45.84375 34.839844 L 40.019531 34.953125 C 36.867188 28.609375 28.898438 30.300781 24.40625 33.0625 C 20.824219 35.261719 19.203125 44.441406 19.898438 45.003906 C 19.898438 45.003906 26.671875 39.980469 32.015625 40.351563 C 43.429688 41.542969 48.136719 51.453125 47.738281 60.808594 C 47.375 72.066406 43.808594 81.070313 31.710938 81.667969 C 20.207031 81.222656 14.9375 74.945313 13.828125 64.152344 Z M 42.199219 61.179688 C 42.261719 53.371094 38.71875 47.515625 32.015625 46.875 C 25.3125 46.230469 18.554688 52.777344 19.023438 60.738281 C 19.488281 68.734375 22.582031 75.457031 30.707031 75.421875 C 39.445313 75.386719 42.15625 66.738281 42.199219 61.179688 Z M 42.199219 61.179688 "/>
<path style=" stroke:none;fill-rule:nonzero;fill:rgb(0%,0%,0%);fill-opacity:1;" d="M 372.5625 475.519531 C 373.261719 480.3125 373.246094 492.699219 372.671875 496.363281 C 370.90625 507.589844 366.625 512.726563 359.449219 514.402344 C 352.484375 516.035156 342.695313 514.21875 340.546875 504.835938 L 346.371094 504.722656 C 349.523438 511.066406 357.492188 509.371094 361.984375 506.609375 C 365.566406 504.410156 367.1875 495.234375 366.492188 494.667969 C 366.492188 494.667969 359.71875 499.691406 354.375 499.320313 C 342.960938 498.132813 338.253906 488.21875 338.652344 478.863281 C 339.015625 467.605469 342.582031 458.601563 354.679688 458.003906 C 366.183594 458.449219 371.453125 464.726563 372.5625 475.519531 Z M 344.191406 478.492188 C 344.128906 486.304688 347.671875 492.15625 354.378906 492.796875 C 361.078125 493.445313 367.835938 486.898438 367.367188 478.9375 C 366.902344 470.941406 363.8125 464.214844 355.683594 464.25 C 346.945313 464.285156 344.234375 472.933594 344.191406 478.492188 Z M 344.191406 478.492188 "/>
</g>
</svg>
