<?xml version="1.0" encoding="UTF-8"?>
<svg xmlns="http://www.w3.org/2000/svg" xmlns:xlink="http://www.w3.org/1999/xlink" width="386pt" height="540pt" viewBox="0 0 386 540" version="1.1">
<g id="surface1">
<path style="fill-rule:nonzero;fill:rgb(100%,100%,100%);fill-opacity:1;stroke-width:1.000567;stroke-linecap:butt;stroke-linejoin:miter;stroke:rgb(0%,0%,0%);stroke-opacity:1;stroke-miterlimit:4;" d="M 2059.063207 -30.444837 L 2260.93675 -30.444837 C 2266.832804 -30.444837 2271.613572 -25.669677 2271.613572 -19.780539 L 2271.613572 270.702724 C 2271.613572 276.591862 2266.832804 281.367023 2260.93675 281.367023 L 2059.063207 281.367023 C 2053.167153 281.367023 2048.386385 276.591862 2048.386385 270.702724 L 2048.386385 -19.780539 C 2048.386385 -25.669677 2053.167153 -30.444837 2059.063207 -30.444837 Z M 2059.063207 -30.444837 " transform="matrix(1.723213,0,0,1.725237,-3528.942559,53.387827)"/>
<path style=" stroke:none;fill-rule:nonzero;fill:rgb(83.137255%,0%,0%);fill-opacity:1;" d="M 30.53125 121.582031 C 26.808594 115.425781 22.890625 109.441406 17.996094 104.332031 C 22.890625 99.21875 26.808594 93.234375 30.53125 87.078125 C 34.253906 93.234375 38.171875 99.21875 43.070313 104.332031 C 38.171875 109.441406 34.253906 115.425781 30.53125 121.582031 Z M 30.53125 121.582031 "/>
<path style=" stroke:none;fill-rule:nonzero;fill:rgb(83.137255%,0%,0%);fill-opacity:1;" d="M 282.402344 140.082031 C 273.464844 125.304688 264.0625 110.941406 252.3125 98.675781 C 264.0625 86.40625 273.464844 72.046875 282.402344 57.269531 C 291.339844 72.046875 300.742188 86.40625 312.492188 98.675781 C 300.742188 110.941406 291.339844 125.304688 282.402344 140.082031 Z M 282.402344 140.082031 "/>
<path style=" stroke:none;fill-rule:nonzero;fill:rgb(83.137255%,0%,0%);fill-opacity:1;" d="M 355.863281 452.59375 C 352.140625 446.4375 348.222656 440.453125 343.328125 435.34375 C 348.222656 430.230469 352.140625 424.246094 355.863281 418.089844 C 359.589844 424.246094 363.503906 430.230469 368.402344 435.34375 C 363.503906 440.453125 359.589844 446.4375 355.863281 452.59375 Z M 355.863281 452.59375 "/>
<path style=" stroke:none;fill-rule:nonzero;fill:rgb(83.137255%,0%,0%);fill-opacity:1;" d="M 103.992188 140.082031 C 95.054688 125.304688 85.652344 110.941406 73.902344 98.675781 C 85.652344 86.40625 95.054688 72.046875 103.992188 57.269531 C 112.929688 72.046875 122.332031 86.40625 134.082031 98.675781 C 122.332031 110.941406 112.929688 125.304688 103.992188 140.082031 Z M 103.992188 140.082031 "/>
<path style=" stroke:none;fill-rule:nonzero;fill:rgb(83.137255%,0%,0%);fill-opacity:1;" d="M 193.199219 225.632813 C 184.261719 210.859375 174.859375 196.496094 163.109375 184.226563 C 174.859375 171.960938 184.261719 157.597656 193.199219 142.824219 C 202.132813 157.597656 211.535156 171.960938 223.285156 184.226563 C 211.535156 196.496094 202.132813 210.859375 193.199219 225.632813 Z M 193.199219 225.632813 "/>
<path style=" stroke:none;fill-rule:nonzero;fill:rgb(83.137255%,0%,0%);fill-opacity:1;" d="M 103.992188 311.1875 C 95.054688 296.410156 85.652344 282.050781 73.902344 269.78125 C 85.652344 257.511719 95.054688 243.152344 103.992188 228.375 C 112.929688 243.152344 122.332031 257.511719 134.082031 269.78125 C 122.332031 282.050781 112.929688 296.410156 103.992188 311.1875 Z M 103.992188 311.1875 "/>
<path style=" stroke:none;fill-rule:nonzero;fill:rgb(83.137255%,0%,0%);fill-opacity:1;" d="M 282.402344 311.214844 C 273.464844 296.4375 264.0625 282.074219 252.3125 269.808594 C 264.0625 257.539063 273.464844 243.179688 282.402344 228.402344 C 291.339844 243.179688 300.742188 257.539063 312.492188 269.808594 C 300.742188 282.074219 291.339844 296.4375 282.402344 311.214844 Z M 282.402344 311.214844 "/>
<path style=" stroke:none;fill-rule:nonzero;fill:rgb(83.137255%,0%,0%);fill-opacity:1;" d="M 103.992188 482.414063 C 95.054688 467.636719 85.652344 453.277344 73.902344 441.007813 C 85.652344 428.738281 95.054688 414.378906 103.992188 399.601563 C 112.929688 414.378906 122.332031 428.738281 134.082031 441.007813 C 122.332031 453.277344 112.929688 467.636719 103.992188 482.414063 Z M 103.992188 482.414063 "/>
<path style=" stroke:none;fill-rule:nonzero;fill:rgb(83.137255%,0%,0%);fill-opacity:1;" d="M 282.402344 482.425781 C 273.464844 467.648438 264.0625 453.289063 252.3125 441.019531 C 264.0625 428.75 273.464844 414.390625 282.402344 399.613281 C 291.339844 414.390625 300.742188 428.75 312.492188 441.019531 C 300.742188 453.289063 291.339844 467.648438 282.402344 482.425781 Z M 282.402344 482.425781 "/>
<path style=" stroke:none;fill-rule:nonzero;fill:rgb(83.137255%,0%,0%);fill-opacity:1;" d="M 21.789063 81.664063 C 25.527344 61.867188 29.507813 47.007813 39.960938 30.882813 L 18.714844 30.882813 L 18.714844 37.824219 L 13.074219 37.824219 L 13.074219 24.738281 L 44.152344 24.738281 L 47.984375 30.882813 C 36.882813 43.015625 26.722656 82.238281 28.519531 81.664063 Z M 21.789063 81.664063 "/>
<path style=" stroke:none;fill-rule:nonzero;fill:rgb(83.137255%,0%,0%);fill-opacity:1;" d="M 364.601563 458.011719 C 360.863281 477.804688 356.882813 492.664063 346.429688 508.792969 L 367.675781 508.792969 L 367.675781 501.851563 L 373.316406 501.851563 L 373.316406 514.9375 L 342.238281 514.9375 L 338.40625 508.792969 C 349.507813 496.660156 359.667969 457.4375 357.871094 458.011719 Z M 364.601563 458.011719 "/>
</g>
</svg>
