<?xml version="1.0" encoding="UTF-8"?>
<svg xmlns="http://www.w3.org/2000/svg" xmlns:xlink="http://www.w3.org/1999/xlink" width="386pt" height="540pt" viewBox="0 0 386 540" version="1.1">
<g id="surface1">
<path style="fill-rule:nonzero;fill:rgb(100%,100%,100%);fill-opacity:1;stroke-width:1.000567;stroke-linecap:butt;stroke-linejoin:miter;stroke:rgb(0%,0%,0%);stroke-opacity:1;stroke-miterlimit:4;" d="M -101.936698 -210.094347 L 99.936282 -210.094347 C 105.834586 -210.094347 110.613074 -205.319177 110.613074 -199.430027 L 110.613074 91.051555 C 110.613074 96.942969 105.834586 101.715875 99.936282 101.715875 L -101.936698 101.715875 C -107.832735 101.715875 -112.61349 96.942969 -112.61349 91.051555 L -112.61349 -199.430027 C -112.61349 -205.319177 -107.832735 -210.094347 -101.936698 -210.094347 Z M -101.936698 -210.094347 " transform="matrix(1.723218,0,0,1.725233,194.920842,363.325001)"/>
<path style=" stroke:none;fill-rule:nonzero;fill:rgb(83.137255%,0%,0%);fill-opacity:1;" d="M 30.53125 121.582031 C 30.53125 121.582031 26.699219 116.082031 21.527344 109.609375 C 18.066406 105.28125 15.300781 100.589844 15.042969 96.554688 C 14.75 91.941406 17.539063 87.3125 22.59375 87.089844 C 27.644531 86.863281 29.695313 90.644531 30.53125 93.761719 C 31.367188 90.644531 33.417969 86.863281 38.46875 87.089844 C 43.523438 87.3125 46.3125 91.941406 46.019531 96.554688 C 45.761719 100.589844 42.996094 105.28125 39.535156 109.609375 C 34.363281 116.082031 30.53125 121.582031 30.53125 121.582031 Z M 30.53125 121.582031 "/>
<path style=" stroke:none;fill-rule:nonzero;fill:rgb(83.137255%,0%,0%);fill-opacity:1;" d="M 355.867188 418.089844 C 355.867188 418.089844 352.03125 423.59375 346.859375 430.0625 C 343.402344 434.394531 340.632813 439.082031 340.378906 443.121094 C 340.082031 447.734375 342.875 452.359375 347.929688 452.585938 C 352.980469 452.808594 355.03125 449.027344 355.867188 445.910156 C 356.699219 449.027344 358.75 452.808594 363.800781 452.585938 C 368.855469 452.359375 371.648438 447.734375 371.351563 443.121094 C 371.097656 439.082031 368.328125 434.394531 364.871094 430.0625 C 359.699219 423.59375 355.867188 418.089844 355.867188 418.089844 Z M 355.867188 418.089844 "/>
<path style=" stroke:none;fill-rule:nonzero;fill:rgb(83.137255%,0%,0%);fill-opacity:1;" d="M 193.199219 225.660156 C 193.199219 225.660156 185.15625 212.453125 174.308594 196.925781 C 167.054688 186.535156 161.25 175.28125 160.710938 165.589844 C 160.09375 154.519531 165.949219 143.410156 176.550781 142.871094 C 187.144531 142.335938 191.445313 151.410156 193.199219 158.890625 C 194.949219 151.410156 199.25 142.335938 209.84375 142.871094 C 220.445313 143.410156 226.300781 154.519531 225.683594 165.589844 C 225.144531 175.28125 219.34375 186.535156 212.085938 196.925781 C 201.238281 212.453125 193.199219 225.660156 193.199219 225.660156 Z M 193.199219 225.660156 "/>
<path style=" stroke:none;fill-rule:nonzero;fill:rgb(83.137255%,0%,0%);fill-opacity:1;" d="M 103.992188 140.082031 C 103.992188 140.082031 95.953125 126.871094 85.105469 111.34375 C 77.847656 100.953125 72.046875 89.699219 71.507813 80.007813 C 70.890625 68.9375 76.746094 57.832031 87.347656 57.292969 C 97.941406 56.753906 102.242188 65.828125 103.992188 73.308594 C 105.742188 65.828125 110.042969 56.753906 120.640625 57.292969 C 131.242188 57.832031 137.097656 68.9375 136.476563 80.007813 C 135.9375 89.699219 130.136719 100.953125 122.882813 111.34375 C 112.035156 126.871094 103.992188 140.082031 103.992188 140.082031 Z M 103.992188 140.082031 "/>
<path style=" stroke:none;fill-rule:nonzero;fill:rgb(83.137255%,0%,0%);fill-opacity:1;" d="M 282.402344 311.242188 C 282.402344 311.242188 274.359375 298.035156 263.515625 282.507813 C 256.257813 272.113281 250.457031 260.863281 249.917969 251.171875 C 249.296875 240.097656 255.152344 228.992188 265.757813 228.453125 C 276.351563 227.914063 280.652344 236.988281 282.402344 244.472656 C 284.152344 236.988281 288.453125 227.914063 299.050781 228.453125 C 309.652344 228.992188 315.507813 240.097656 314.886719 251.171875 C 314.347656 260.863281 308.546875 272.113281 301.289063 282.507813 C 290.445313 298.035156 282.402344 311.242188 282.402344 311.242188 Z M 282.402344 311.242188 "/>
<path style=" stroke:none;fill-rule:nonzero;fill:rgb(83.137255%,0%,0%);fill-opacity:1;" d="M 282.402344 140.082031 C 282.402344 140.082031 274.359375 126.871094 263.515625 111.34375 C 256.257813 100.953125 250.457031 89.699219 249.917969 80.007813 C 249.296875 68.9375 255.152344 57.832031 265.757813 57.292969 C 276.351563 56.753906 280.652344 65.828125 282.402344 73.308594 C 284.152344 65.828125 288.453125 56.753906 299.050781 57.292969 C 309.652344 57.832031 315.507813 68.9375 314.886719 80.007813 C 314.347656 89.699219 308.546875 100.953125 301.289063 111.34375 C 290.445313 126.871094 282.402344 140.082031 282.402344 140.082031 Z M 282.402344 140.082031 "/>
<path style=" stroke:none;fill-rule:nonzero;fill:rgb(83.137255%,0%,0%);fill-opacity:1;" d="M 103.992188 311.242188 C 103.992188 311.242188 95.953125 298.035156 85.105469 282.507813 C 77.847656 272.113281 72.046875 260.863281 71.507813 251.171875 C 70.890625 240.097656 76.746094 228.992188 87.347656 228.453125 C 97.941406 227.914063 102.242188 236.988281 103.992188 244.472656 C 105.742188 236.988281 110.042969 227.914063 120.640625 228.453125 C 131.242188 228.992188 137.097656 240.097656 136.476563 251.171875 C 135.9375 260.863281 130.136719 272.113281 122.882813 282.507813 C 112.035156 298.035156 103.992188 311.242188 103.992188 311.242188 Z M 103.992188 311.242188 "/>
<path style=" stroke:none;fill-rule:nonzero;fill:rgb(83.137255%,0%,0%);fill-opacity:1;" d="M 282.402344 399.59375 C 282.402344 399.59375 274.359375 412.800781 263.515625 428.328125 C 256.257813 438.71875 250.457031 449.972656 249.917969 459.664063 C 249.296875 470.734375 255.152344 481.84375 265.757813 482.378906 C 276.351563 482.917969 280.652344 473.84375 282.402344 466.363281 C 284.152344 473.84375 288.453125 482.917969 299.050781 482.378906 C 309.652344 481.84375 315.507813 470.734375 314.886719 459.664063 C 314.347656 449.972656 308.546875 438.71875 301.289063 428.328125 C 290.445313 412.800781 282.402344 399.59375 282.402344 399.59375 Z M 282.402344 399.59375 "/>
<path style=" stroke:none;fill-rule:nonzero;fill:rgb(83.137255%,0%,0%);fill-opacity:1;" d="M 103.992188 399.59375 C 103.992188 399.59375 95.953125 412.800781 85.105469 428.328125 C 77.847656 438.71875 72.046875 449.972656 71.507813 459.664063 C 70.890625 470.734375 76.746094 481.84375 87.347656 482.378906 C 97.941406 482.917969 102.242188 473.84375 103.992188 466.363281 C 105.742188 473.84375 110.042969 482.917969 120.640625 482.378906 C 131.242188 481.84375 137.097656 470.734375 136.476563 459.664063 C 135.9375 449.972656 130.136719 438.71875 122.882813 428.328125 C 112.035156 412.800781 103.992188 399.59375 103.992188 399.59375 Z M 103.992188 399.59375 "/>
<path style=" stroke:none;fill-rule:nonzero;fill:rgb(83.137255%,0%,0%);fill-opacity:1;" d="M 21.789063 81.664063 C 25.527344 61.867188 29.507813 47.007813 39.960938 30.882813 L 18.714844 30.882813 L 18.714844 37.824219 L 13.074219 37.824219 L 13.074219 24.734375 L 44.152344 24.734375 L 47.984375 30.882813 C 36.882813 43.015625 26.722656 82.238281 28.519531 81.664063 Z M 21.789063 81.664063 "/>
<path style=" stroke:none;fill-rule:nonzero;fill:rgb(83.137255%,0%,0%);fill-opacity:1;" d="M 364.605469 458.011719 C 360.863281 477.804688 356.882813 492.664063 346.429688 508.792969 L 367.675781 508.792969 L 367.675781 501.851563 L 373.316406 501.851563 L 373.316406 514.9375 L 342.242188 514.9375 L 338.40625 508.792969 C 349.511719 496.660156 359.671875 457.4375 357.871094 458.011719 Z M 364.605469 458.011719 "/>
</g>
</svg>
