<?xml version="1.0" encoding="UTF-8"?>
<svg xmlns="http://www.w3.org/2000/svg" xmlns:xlink="http://www.w3.org/1999/xlink" width="386pt" height="540pt" viewBox="0 0 386 540" version="1.1">
<g id="surface1">
<path style="fill-rule:nonzero;fill:rgb(100%,100%,100%);fill-opacity:1;stroke-width:1.000567;stroke-linecap:butt;stroke-linejoin:miter;stroke:rgb(0%,0%,0%);stroke-opacity:1;stroke-miterlimit:4;" d="M 2293.919673 -471.408075 L 2495.792653 -471.408075 C 2501.690957 -471.408075 2506.469445 -466.632905 2506.469445 -460.743755 L 2506.469445 -170.262173 C 2506.469445 -164.370759 2501.690957 -159.597854 2495.792653 -159.597854 L 2293.919673 -159.597854 C 2288.023636 -159.597854 2283.242881 -164.370759 2283.242881 -170.262173 L 2283.242881 -460.743755 C 2283.242881 -466.632905 2288.023636 -471.408075 2293.919673 -471.408075 Z M 2293.919673 -471.408075 " transform="matrix(1.723218,0,0,1.725233,-3933.661282,814.152092)"/>
<path style=" stroke:none;fill-rule:nonzero;fill:rgb(0%,0%,0%);fill-opacity:1;" d="M 103.992188 57.269531 C 88.09375 79.96875 71.082031 93.03125 70.800781 110.738281 C 70.707031 116.472656 73.804688 126.222656 83.503906 128.085938 C 89.796875 129.292969 98.460938 124.191406 98.640625 113.832031 C 98.613281 111.769531 100.824219 111.824219 100.800781 114.648438 C 100.507813 122.820313 97.921875 132.335938 93.578125 140.082031 C 100.523438 140.082031 107.464844 140.082031 114.40625 140.082031 C 110.0625 132.335938 107.480469 122.820313 107.183594 114.648438 C 107.164063 111.824219 109.371094 111.769531 109.34375 113.832031 C 109.527344 124.191406 118.191406 129.292969 124.484375 128.085938 C 134.183594 126.222656 137.28125 116.472656 137.183594 110.738281 C 136.902344 93.03125 119.890625 79.96875 103.992188 57.269531 Z M 103.992188 57.269531 "/>
<path style=" stroke:none;fill-rule:nonzero;fill:rgb(0%,0%,0%);fill-opacity:1;" d="M 30.53125 87.078125 C 23.101563 96.535156 15.15625 101.980469 15.023438 109.359375 C 14.980469 111.746094 16.425781 115.808594 20.957031 116.585938 C 23.898438 117.089844 27.945313 114.964844 28.03125 110.644531 C 28.015625 109.785156 29.050781 109.808594 29.039063 110.988281 C 28.902344 114.390625 27.695313 118.355469 25.667969 121.582031 C 28.910156 121.582031 32.152344 121.582031 35.398438 121.582031 C 33.367188 118.355469 32.160156 114.390625 32.023438 110.988281 C 32.003906 109.808594 33.042969 109.785156 33.03125 110.644531 C 33.117188 114.964844 37.164063 117.089844 40.105469 116.585938 C 44.636719 115.808594 46.082031 111.746094 46.039063 109.359375 C 45.90625 101.980469 37.960938 96.535156 30.53125 87.078125 Z M 30.53125 87.078125 "/>
<path style=" stroke:none;fill-rule:nonzero;fill:rgb(0%,0%,0%);fill-opacity:1;" d="M 355.867188 452.59375 C 348.4375 443.136719 340.488281 437.695313 340.359375 430.316406 C 340.3125 427.925781 341.761719 423.863281 346.292969 423.085938 C 349.234375 422.585938 353.28125 424.710938 353.367188 429.027344 C 353.347656 429.886719 354.382813 429.863281 354.375 428.6875 C 354.238281 425.28125 353.027344 421.316406 351 418.089844 C 354.242188 418.089844 357.488281 418.089844 360.730469 418.089844 C 358.703125 421.316406 357.496094 425.28125 357.355469 428.6875 C 357.339844 429.863281 358.378906 429.886719 358.367188 429.027344 C 358.449219 424.710938 362.5 422.585938 365.4375 423.085938 C 369.972656 423.863281 371.417969 427.925781 371.375 430.316406 C 371.242188 437.695313 363.292969 443.136719 355.867188 452.59375 Z M 355.867188 452.59375 "/>
<path style=" stroke:none;fill-rule:nonzero;fill:rgb(0%,0%,0%);fill-opacity:1;" d="M 282.402344 57.269531 C 266.503906 79.96875 249.492188 93.03125 249.210938 110.738281 C 249.117188 116.472656 252.210938 126.222656 261.914063 128.085938 C 268.207031 129.292969 276.871094 124.191406 277.050781 113.832031 C 277.023438 111.769531 279.234375 111.824219 279.210938 114.648438 C 278.914063 122.820313 276.332031 132.335938 271.988281 140.082031 C 278.929688 140.082031 285.875 140.082031 292.816406 140.082031 C 288.472656 132.335938 285.890625 122.820313 285.59375 114.648438 C 285.574219 111.824219 287.78125 111.769531 287.753906 113.832031 C 287.933594 124.191406 296.597656 129.292969 302.894531 128.085938 C 312.59375 126.222656 315.691406 116.472656 315.59375 110.738281 C 315.3125 93.03125 298.300781 79.96875 282.402344 57.269531 Z M 282.402344 57.269531 "/>
<path style=" stroke:none;fill-rule:nonzero;fill:rgb(0%,0%,0%);fill-opacity:1;" d="M 193.199219 142.851563 C 177.300781 165.550781 160.289063 178.613281 160.003906 196.320313 C 159.910156 202.054688 163.007813 211.800781 172.707031 213.667969 C 179 214.871094 187.664063 209.773438 187.847656 199.414063 C 187.820313 197.351563 190.027344 197.402344 190.007813 200.230469 C 189.710938 208.402344 187.125 217.917969 182.785156 225.660156 C 189.726563 225.660156 196.667969 225.660156 203.609375 225.660156 C 199.269531 217.917969 196.683594 208.402344 196.386719 200.230469 C 196.367188 197.402344 198.578125 197.351563 198.550781 199.414063 C 198.730469 209.773438 207.394531 214.871094 213.6875 213.667969 C 223.386719 211.800781 226.484375 202.054688 226.390625 196.320313 C 226.105469 178.613281 209.097656 165.550781 193.199219 142.851563 Z M 193.199219 142.851563 "/>
<path style=" stroke:none;fill-rule:nonzero;fill:rgb(0%,0%,0%);fill-opacity:1;" d="M 103.992188 228.429688 C 88.09375 251.128906 71.082031 264.191406 70.800781 281.902344 C 70.707031 287.636719 73.804688 297.382813 83.503906 299.25 C 89.796875 300.453125 98.460938 295.355469 98.640625 284.992188 C 98.613281 282.929688 100.824219 282.984375 100.800781 285.8125 C 100.507813 293.984375 97.921875 303.496094 93.578125 311.242188 C 100.523438 311.242188 107.464844 311.242188 114.40625 311.242188 C 110.0625 303.496094 107.480469 293.984375 107.183594 285.8125 C 107.164063 282.984375 109.371094 282.929688 109.34375 284.992188 C 109.527344 295.355469 118.191406 300.453125 124.484375 299.25 C 134.183594 297.382813 137.28125 287.636719 137.183594 281.902344 C 136.902344 264.191406 119.890625 251.128906 103.992188 228.429688 Z M 103.992188 228.429688 "/>
<path style=" stroke:none;fill-rule:nonzero;fill:rgb(0%,0%,0%);fill-opacity:1;" d="M 103.992188 482.402344 C 88.09375 459.703125 71.082031 446.640625 70.800781 428.933594 C 70.707031 423.199219 73.804688 413.453125 83.503906 411.585938 C 89.796875 410.382813 98.460938 415.480469 98.640625 425.839844 C 98.613281 427.902344 100.824219 427.851563 100.800781 425.023438 C 100.507813 416.851563 97.921875 407.335938 93.578125 399.59375 C 100.523438 399.59375 107.464844 399.59375 114.40625 399.59375 C 110.0625 407.335938 107.480469 416.851563 107.183594 425.023438 C 107.164063 427.851563 109.371094 427.902344 109.34375 425.839844 C 109.527344 415.480469 118.191406 410.382813 124.484375 411.585938 C 134.183594 413.453125 137.28125 423.199219 137.183594 428.933594 C 136.902344 446.640625 119.890625 459.703125 103.992188 482.402344 Z M 103.992188 482.402344 "/>
<path style=" stroke:none;fill-rule:nonzero;fill:rgb(0%,0%,0%);fill-opacity:1;" d="M 282.402344 482.402344 C 266.503906 459.703125 249.492188 446.640625 249.210938 428.933594 C 249.117188 423.199219 252.210938 413.453125 261.914063 411.585938 C 268.207031 410.382813 276.871094 415.480469 277.050781 425.839844 C 277.023438 427.902344 279.234375 427.851563 279.210938 425.023438 C 278.914063 416.851563 276.332031 407.335938 271.988281 399.59375 C 278.929688 399.59375 285.875 399.59375 292.816406 399.59375 C 288.472656 407.335938 285.890625 416.851563 285.59375 425.023438 C 285.574219 427.851563 287.78125 427.902344 287.753906 425.839844 C 287.933594 415.480469 296.597656 410.382813 302.894531 411.585938 C 312.59375 413.453125 315.691406 423.199219 315.59375 428.933594 C 315.3125 446.640625 298.300781 459.703125 282.402344 482.402344 Z M 282.402344 482.402344 "/>
<path style=" stroke:none;fill-rule:nonzero;fill:rgb(0%,0%,0%);fill-opacity:1;" d="M 282.402344 228.429688 C 266.503906 251.128906 249.492188 264.191406 249.210938 281.902344 C 249.117188 287.636719 252.210938 297.382813 261.914063 299.25 C 268.207031 300.453125 276.871094 295.355469 277.050781 284.992188 C 277.023438 282.929688 279.234375 282.984375 279.210938 285.8125 C 278.914063 293.984375 276.332031 303.496094 271.988281 311.242188 C 278.929688 311.242188 285.875 311.242188 292.816406 311.242188 C 288.472656 303.496094 285.890625 293.984375 285.59375 285.8125 C 285.574219 282.984375 287.78125 282.929688 287.753906 284.992188 C 287.933594 295.355469 296.597656 300.453125 302.894531 299.25 C 312.59375 297.382813 315.691406 287.636719 315.59375 281.902344 C 315.3125 264.191406 298.300781 251.128906 282.402344 228.429688 Z M 282.402344 228.429688 "/>
<path style=" stroke:none;fill-rule:nonzero;fill:rgb(0%,0%,0%);fill-opacity:1;" d="M 21.789063 81.664063 C 25.527344 61.867188 29.507813 47.007813 39.960938 30.882813 L 18.714844 30.882813 L 18.714844 37.824219 L 13.074219 37.824219 L 13.074219 24.738281 L 44.152344 24.738281 L 47.984375 30.882813 C 36.882813 43.015625 26.722656 82.238281 28.519531 81.664063 Z M 21.789063 81.664063 "/>
<path style=" stroke:none;fill-rule:nonzero;fill:rgb(0%,0%,0%);fill-opacity:1;" d="M 364.605469 458.011719 C 360.863281 477.804688 356.882813 492.664063 346.429688 508.792969 L 367.675781 508.792969 L 367.675781 501.851563 L 373.316406 501.851563 L 373.316406 514.9375 L 342.242188 514.9375 L 338.40625 508.792969 C 349.511719 496.660156 359.671875 457.4375 357.871094 458.011719 Z M 364.605469 458.011719 "/>
</g>
</svg>
