<?xml version="1.0" encoding="UTF-8"?>
<svg xmlns="http://www.w3.org/2000/svg" xmlns:xlink="http://www.w3.org/1999/xlink" width="386pt" height="540pt" viewBox="0 0 386 540" version="1.1">
<g id="surface1">
<path style="fill-rule:nonzero;fill:rgb(100%,100%,100%);fill-opacity:1;stroke-width:0.996734;stroke-linecap:butt;stroke-linejoin:miter;stroke:rgb(0%,0%,0%);stroke-opacity:1;stroke-miterlimit:4;" d="M 2323.738463 -1088.369239 L 2524.711188 -1088.369239 C 2530.580932 -1088.369239 2535.340367 -1083.609352 2535.340367 -1077.739051 L 2535.340367 -788.184934 C 2535.340367 -782.314633 2530.580932 -777.557004 2524.711188 -777.557004 L 2323.738463 -777.557004 C 2317.868719 -777.557004 2313.109284 -782.314633 2313.109284 -788.184934 L 2313.109284 -1077.739051 C 2313.109284 -1083.609352 2317.868719 -1088.369239 2323.738463 -1088.369239 Z M 2323.738463 -1088.369239 " transform="matrix(1.730937,0,0,1.730773,-4002.982798,1884.582984)"/>
<path style=" stroke:none;fill-rule:nonzero;fill:rgb(0%,0%,0%);fill-opacity:1;" d="M 282.394531 57.988281 C 265.476563 58.355469 257.890625 77.402344 270.417969 92.191406 C 272.238281 94.351563 272.425781 95.585938 269.097656 93.515625 C 260.660156 87.875 244.484375 91.582031 243.65625 108.828125 C 242.632813 130.078125 272.324219 136.199219 277.898438 113.605469 C 278.195313 111.21875 280.132813 111.273438 279.664063 114.660156 C 279.15625 123.84375 276.289063 132.425781 272.34375 140.796875 C 278.988281 140.796875 286.417969 140.796875 292.457031 140.796875 C 288.515625 132.425781 285.648438 123.84375 285.140625 114.660156 C 284.671875 111.273438 286.609375 111.21875 286.902344 113.605469 C 292.480469 136.199219 322.171875 130.078125 321.148438 108.828125 C 320.320313 91.582031 304.144531 87.875 295.707031 93.515625 C 292.378906 95.585938 292.566406 94.351563 294.382813 92.191406 C 306.914063 77.402344 299.328125 58.355469 282.410156 57.988281 C 282.410156 57.988281 282.410156 57.988281 282.390625 57.988281 Z M 282.394531 57.988281 "/>
<path style=" stroke:none;fill-rule:nonzero;fill:rgb(0%,0%,0%);fill-opacity:1;" d="M 103.984375 57.988281 C 87.066406 58.355469 79.480469 77.402344 92.011719 92.191406 C 93.828125 94.351563 94.015625 95.585938 90.6875 93.515625 C 82.25 87.875 66.074219 91.582031 65.246094 108.828125 C 64.222656 130.078125 93.914063 136.199219 99.492188 113.605469 C 99.785156 111.21875 101.722656 111.273438 101.253906 114.660156 C 100.746094 123.84375 97.878906 132.425781 93.9375 140.796875 C 100.582031 140.796875 108.007813 140.796875 114.050781 140.796875 C 110.105469 132.425781 107.238281 123.84375 106.730469 114.660156 C 106.261719 111.273438 108.199219 111.21875 108.496094 113.605469 C 114.070313 136.199219 143.761719 130.078125 142.738281 108.828125 C 141.910156 91.582031 125.734375 87.875 117.296875 93.515625 C 113.96875 95.585938 114.15625 94.351563 115.976563 92.191406 C 128.503906 77.402344 120.917969 58.355469 104 57.988281 C 104 57.988281 104 57.988281 103.984375 57.988281 Z M 103.984375 57.988281 "/>
<path style=" stroke:none;fill-rule:nonzero;fill:rgb(0%,0%,0%);fill-opacity:1;" d="M 282.394531 483.121094 C 265.476563 482.753906 257.890625 463.707031 270.417969 448.914063 C 272.238281 446.757813 272.425781 445.519531 269.097656 447.59375 C 260.660156 453.234375 244.484375 449.523438 243.65625 432.28125 C 242.632813 411.03125 272.324219 404.910156 277.898438 427.503906 C 278.195313 429.886719 280.132813 429.832031 279.664063 426.449219 C 279.15625 417.265625 276.289063 408.679688 272.34375 400.308594 C 278.988281 400.308594 286.417969 400.308594 292.457031 400.308594 C 288.515625 408.679688 285.648438 417.265625 285.140625 426.449219 C 284.671875 429.832031 286.609375 429.886719 286.902344 427.503906 C 292.480469 404.910156 322.171875 411.03125 321.148438 432.28125 C 320.320313 449.523438 304.144531 453.234375 295.707031 447.59375 C 292.378906 445.519531 292.566406 446.757813 294.382813 448.914063 C 306.914063 463.707031 299.328125 482.753906 282.410156 483.121094 C 282.410156 483.121094 282.410156 483.121094 282.390625 483.121094 Z M 282.394531 483.121094 "/>
<path style=" stroke:none;fill-rule:nonzero;fill:rgb(0%,0%,0%);fill-opacity:1;" d="M 103.984375 483.121094 C 87.066406 482.753906 79.480469 463.707031 92.011719 448.914063 C 93.828125 446.757813 94.015625 445.519531 90.6875 447.59375 C 82.25 453.234375 66.074219 449.523438 65.246094 432.28125 C 64.222656 411.03125 93.914063 404.910156 99.492188 427.503906 C 99.785156 429.886719 101.722656 429.832031 101.253906 426.449219 C 100.746094 417.265625 97.878906 408.679688 93.9375 400.308594 C 100.582031 400.308594 108.007813 400.308594 114.050781 400.308594 C 110.105469 408.679688 107.238281 417.265625 106.730469 426.449219 C 106.261719 429.832031 108.199219 429.886719 108.496094 427.503906 C 114.070313 404.910156 143.761719 411.03125 142.738281 432.28125 C 141.910156 449.523438 125.734375 453.234375 117.296875 447.59375 C 113.96875 445.519531 114.15625 446.757813 115.976563 448.914063 C 128.503906 463.707031 120.917969 482.753906 104 483.121094 C 104 483.121094 104 483.121094 103.984375 483.121094 Z M 103.984375 483.121094 "/>
<path style=" stroke:none;fill-rule:nonzero;fill:rgb(0%,0%,0%);fill-opacity:1;" d="M 193.191406 143.566406 C 176.273438 143.933594 168.683594 162.980469 181.214844 177.773438 C 183.03125 179.929688 183.21875 181.167969 179.890625 179.097656 C 171.457031 173.457031 155.28125 177.164063 154.453125 194.410156 C 153.429688 215.65625 183.121094 221.78125 188.695313 199.1875 C 188.988281 196.800781 190.925781 196.855469 190.460938 200.238281 C 189.953125 209.425781 187.082031 218.007813 183.140625 226.378906 C 189.785156 226.378906 197.210938 226.378906 203.253906 226.378906 C 199.3125 218.007813 196.445313 209.425781 195.933594 200.238281 C 195.46875 196.855469 197.40625 196.800781 197.699219 199.1875 C 203.273438 221.78125 232.96875 215.65625 231.945313 194.410156 C 231.117188 177.164063 214.941406 173.457031 206.503906 179.097656 C 203.175781 181.167969 203.363281 179.929688 205.179688 177.773438 C 217.710938 162.980469 210.125 143.933594 193.203125 143.566406 C 193.203125 143.566406 193.203125 143.566406 193.1875 143.566406 Z M 193.191406 143.566406 "/>
<path style=" stroke:none;fill-rule:nonzero;fill:rgb(0%,0%,0%);fill-opacity:1;" d="M 282.394531 229.148438 C 265.476563 229.515625 257.890625 248.5625 270.417969 263.355469 C 272.238281 265.511719 272.425781 266.75 269.097656 264.675781 C 260.660156 259.035156 244.484375 262.746094 243.65625 279.988281 C 242.632813 301.238281 272.324219 307.359375 277.898438 284.765625 C 278.195313 282.382813 280.132813 282.4375 279.664063 285.820313 C 279.15625 295.003906 276.289063 303.589844 272.34375 311.960938 C 278.988281 311.960938 286.417969 311.960938 292.457031 311.960938 C 288.515625 303.589844 285.648438 295.003906 285.140625 285.820313 C 284.671875 282.4375 286.609375 282.382813 286.902344 284.765625 C 292.480469 307.359375 322.171875 301.238281 321.148438 279.988281 C 320.320313 262.746094 304.144531 259.035156 295.707031 264.675781 C 292.378906 266.75 292.566406 265.511719 294.382813 263.355469 C 306.914063 248.5625 299.328125 229.515625 282.410156 229.148438 C 282.410156 229.148438 282.410156 229.148438 282.390625 229.148438 Z M 282.394531 229.148438 "/>
<path style=" stroke:none;fill-rule:nonzero;fill:rgb(0%,0%,0%);fill-opacity:1;" d="M 103.984375 229.148438 C 87.066406 229.515625 79.480469 248.5625 92.011719 263.355469 C 93.828125 265.511719 94.015625 266.75 90.6875 264.675781 C 82.25 259.035156 66.074219 262.746094 65.246094 279.988281 C 64.222656 301.238281 93.914063 307.359375 99.492188 284.765625 C 99.785156 282.382813 101.722656 282.4375 101.253906 285.820313 C 100.746094 295.003906 97.878906 303.589844 93.9375 311.960938 C 100.582031 311.960938 108.007813 311.960938 114.050781 311.960938 C 110.105469 303.589844 107.238281 295.003906 106.730469 285.820313 C 106.261719 282.4375 108.199219 282.382813 108.496094 284.765625 C 114.070313 307.359375 143.761719 301.238281 142.738281 279.988281 C 141.910156 262.746094 125.734375 259.035156 117.296875 264.675781 C 113.96875 266.75 114.15625 265.511719 115.976563 263.355469 C 128.503906 248.5625 120.917969 229.515625 104 229.148438 C 104 229.148438 104 229.148438 103.984375 229.148438 Z M 103.984375 229.148438 "/>
<path style=" stroke:none;fill-rule:nonzero;fill:rgb(0%,0%,0%);fill-opacity:1;" d="M 193.191406 397.539063 C 176.273438 397.171875 168.683594 378.125 181.214844 363.335938 C 183.03125 361.175781 183.21875 359.9375 179.890625 362.011719 C 171.457031 367.652344 155.28125 363.945313 154.449219 346.699219 C 153.429688 325.449219 183.121094 319.328125 188.695313 341.921875 C 188.988281 344.304688 190.925781 344.253906 190.460938 340.867188 C 189.953125 331.683594 187.082031 323.101563 183.140625 314.730469 C 189.785156 314.730469 197.210938 314.730469 203.253906 314.730469 C 199.3125 323.101563 196.445313 331.683594 195.933594 340.867188 C 195.46875 344.253906 197.40625 344.304688 197.699219 341.921875 C 203.273438 319.328125 232.96875 325.449219 231.945313 346.699219 C 231.117188 363.945313 214.941406 367.652344 206.503906 362.011719 C 203.175781 359.9375 203.363281 361.175781 205.179688 363.335938 C 217.710938 378.125 210.125 397.171875 193.203125 397.539063 C 193.203125 397.539063 193.203125 397.539063 193.1875 397.539063 Z M 193.191406 397.539063 "/>
<path style=" stroke:none;fill-rule:nonzero;fill:rgb(0%,0%,0%);fill-opacity:1;" d="M 355.867188 452.59375 C 362.636719 452.441406 365.667969 444.503906 360.65625 438.34375 C 359.929688 437.445313 359.855469 436.929688 361.1875 437.792969 C 364.5625 440.140625 371.03125 438.597656 371.363281 431.410156 C 371.773438 422.558594 359.894531 420.007813 357.664063 429.421875 C 357.546875 430.414063 356.773438 430.390625 356.960938 428.980469 C 357.164063 425.15625 358.308594 421.578125 359.886719 418.089844 C 357.207031 418.089844 354.523438 418.089844 351.84375 418.089844 C 353.417969 421.578125 354.566406 425.15625 354.769531 428.980469 C 354.957031 430.390625 354.183594 430.414063 354.0625 429.421875 C 351.835938 420.007813 339.957031 422.558594 340.367188 431.410156 C 340.699219 438.597656 347.167969 440.140625 350.542969 437.792969 C 351.875 436.929688 351.800781 437.445313 351.074219 438.34375 C 346.058594 444.503906 349.09375 452.441406 355.863281 452.59375 Z M 355.867188 452.59375 "/>
<path style=" stroke:none;fill-rule:nonzero;fill:rgb(0%,0%,0%);fill-opacity:1;" d="M 30.53125 87.078125 C 23.761719 87.230469 20.726563 95.167969 25.738281 101.332031 C 26.464844 102.230469 26.539063 102.746094 25.210938 101.882813 C 21.835938 99.53125 15.363281 101.078125 15.035156 108.261719 C 14.625 117.117188 26.5 119.667969 28.730469 110.253906 C 28.847656 109.257813 29.625 109.28125 29.4375 110.691406 C 29.234375 114.519531 28.085938 118.09375 26.507813 121.582031 C 29.191406 121.582031 31.871094 121.582031 34.554688 121.582031 C 32.976563 118.09375 31.828125 114.519531 31.625 110.691406 C 31.441406 109.28125 32.214844 109.257813 32.332031 110.253906 C 34.5625 119.667969 46.441406 117.117188 46.03125 108.261719 C 45.699219 101.078125 39.226563 99.53125 35.855469 101.882813 C 34.523438 102.746094 34.597656 102.230469 35.324219 101.332031 C 40.335938 95.167969 37.300781 87.230469 30.535156 87.078125 Z M 30.53125 87.078125 "/>
<path style=" stroke:none;fill-rule:nonzero;fill:rgb(0%,0%,0%);fill-opacity:1;" d="M 12.058594 64.992188 C 12.328125 57.347656 15.085938 54.484375 20.523438 50.484375 C 16.1875 47.351563 14.359375 42.738281 14.730469 38.808594 C 15.625 29.292969 22.960938 24.539063 30.96875 24.742188 C 38.980469 24.953125 45.878906 31.3125 46.417969 38.226563 C 46.886719 44.238281 45.101563 47.136719 40.84375 50.296875 C 45.898438 54.570313 49.125 57.375 49.003906 64.90625 C 48.886719 72.433594 42.488281 81.390625 31.339844 81.664063 C 20.191406 81.9375 11.78125 72.636719 12.058594 64.992188 Z M 43.179688 65.019531 C 43.65625 58.101563 37.542969 53.433594 30.648438 53.363281 C 23.933594 53.292969 17.925781 59.03125 17.925781 65.242188 C 17.925781 71.914063 25.738281 75.542969 30.785156 75.558594 C 36.921875 75.585938 42.765625 70.976563 43.179688 65.019531 Z M 40.972656 40.265625 C 41.101563 34.445313 35.734375 30.265625 30.199219 30.433594 C 25.273438 30.585938 20.0625 34.34375 20.054688 39.214844 C 20.054688 45.3125 25.984375 48.359375 31.046875 48.476563 C 35.640625 48.578125 40.867188 44.667969 40.972656 40.265625 Z M 40.972656 40.265625 "/>
<path style=" stroke:none;fill-rule:nonzero;fill:rgb(0%,0%,0%);fill-opacity:1;" d="M 337.390625 474.679688 C 337.660156 482.324219 340.421875 485.191406 345.855469 489.191406 C 341.519531 492.320313 339.691406 496.9375 340.0625 500.867188 C 340.957031 510.378906 348.292969 515.132813 356.300781 514.929688 C 364.316406 514.71875 371.210938 508.359375 371.75 501.445313 C 372.21875 495.4375 370.433594 492.535156 366.175781 489.375 C 371.230469 485.101563 374.457031 482.296875 374.339844 474.769531 C 374.21875 467.242188 367.824219 458.285156 356.671875 458.011719 C 345.523438 457.738281 337.113281 467.039063 337.390625 474.679688 Z M 368.511719 474.652344 C 368.988281 481.574219 362.878906 486.242188 355.980469 486.308594 C 349.265625 486.382813 343.257813 480.644531 343.257813 474.429688 C 343.257813 467.757813 351.074219 464.132813 356.121094 464.117188 C 362.253906 464.089844 368.097656 468.695313 368.511719 474.652344 Z M 366.304688 499.40625 C 366.4375 505.230469 361.070313 509.40625 355.53125 509.238281 C 350.605469 509.089844 345.398438 505.328125 345.386719 500.457031 C 345.386719 494.359375 351.316406 491.316406 356.378906 491.199219 C 360.972656 491.09375 366.199219 495.003906 366.304688 499.40625 Z M 366.304688 499.40625 "/>
</g>
</svg>
