<?xml version="1.0" encoding="UTF-8"?>
<svg xmlns="http://www.w3.org/2000/svg" xmlns:xlink="http://www.w3.org/1999/xlink" width="386pt" height="540pt" viewBox="0 0 386 540" version="1.1">
<g id="surface1">
<path style="fill-rule:nonzero;fill:rgb(100%,100%,100%);fill-opacity:1;stroke-width:1.000567;stroke-linecap:butt;stroke-linejoin:miter;stroke:rgb(0%,0%,0%);stroke-opacity:1;stroke-miterlimit:4;" d="M 2323.288357 -30.444837 L 2525.161901 -30.444837 C 2531.057955 -30.444837 2535.838723 -25.669677 2535.838723 -19.780539 L 2535.838723 270.702724 C 2535.838723 276.591862 2531.057955 281.367023 2525.161901 281.367023 L 2323.288357 281.367023 C 2317.392303 281.367023 2312.611535 276.591862 2312.611535 270.702724 L 2312.611535 -19.780539 C 2312.611535 -25.669677 2317.392303 -30.444837 2323.288357 -30.444837 Z M 2323.288357 -30.444837 " transform="matrix(1.723213,0,0,1.725237,-3984.258747,53.387827)"/>
<path style=" stroke:none;fill-rule:nonzero;fill:rgb(83.137255%,0%,0%);fill-opacity:1;" d="M 30.53125 121.582031 C 26.808594 115.425781 22.890625 109.441406 17.996094 104.332031 C 22.890625 99.21875 26.808594 93.234375 30.53125 87.078125 C 34.253906 93.234375 38.171875 99.21875 43.070313 104.332031 C 38.171875 109.441406 34.253906 115.425781 30.53125 121.582031 Z M 30.53125 121.582031 "/>
<path style=" stroke:none;fill-rule:nonzero;fill:rgb(83.137255%,0%,0%);fill-opacity:1;" d="M 282.402344 140.082031 C 273.464844 125.304688 264.0625 110.941406 252.3125 98.675781 C 264.0625 86.40625 273.464844 72.046875 282.402344 57.269531 C 291.339844 72.046875 300.742188 86.40625 312.492188 98.675781 C 300.742188 110.941406 291.339844 125.304688 282.402344 140.082031 Z M 282.402344 140.082031 "/>
<path style=" stroke:none;fill-rule:nonzero;fill:rgb(83.137255%,0%,0%);fill-opacity:1;" d="M 355.863281 452.59375 C 352.140625 446.4375 348.222656 440.453125 343.328125 435.34375 C 348.222656 430.230469 352.140625 424.246094 355.863281 418.089844 C 359.589844 424.246094 363.503906 430.230469 368.402344 435.34375 C 363.503906 440.453125 359.589844 446.4375 355.863281 452.59375 Z M 355.863281 452.59375 "/>
<path style=" stroke:none;fill-rule:nonzero;fill:rgb(83.137255%,0%,0%);fill-opacity:1;" d="M 103.992188 140.082031 C 95.054688 125.304688 85.652344 110.941406 73.902344 98.675781 C 85.652344 86.40625 95.054688 72.046875 103.992188 57.269531 C 112.929688 72.046875 122.332031 86.40625 134.082031 98.675781 C 122.332031 110.941406 112.929688 125.304688 103.992188 140.082031 Z M 103.992188 140.082031 "/>
<path style=" stroke:none;fill-rule:nonzero;fill:rgb(83.137255%,0%,0%);fill-opacity:1;" d="M 193.195313 225.632813 C 184.261719 210.859375 174.859375 196.496094 163.109375 184.226563 C 174.859375 171.960938 184.261719 157.597656 193.195313 142.824219 C 202.132813 157.597656 211.535156 171.960938 223.285156 184.226563 C 211.535156 196.496094 202.132813 210.859375 193.195313 225.632813 Z M 193.195313 225.632813 "/>
<path style=" stroke:none;fill-rule:nonzero;fill:rgb(83.137255%,0%,0%);fill-opacity:1;" d="M 103.992188 311.1875 C 95.054688 296.410156 85.652344 282.050781 73.902344 269.78125 C 85.652344 257.511719 95.054688 243.152344 103.992188 228.375 C 112.929688 243.152344 122.332031 257.511719 134.082031 269.78125 C 122.332031 282.050781 112.929688 296.410156 103.992188 311.1875 Z M 103.992188 311.1875 "/>
<path style=" stroke:none;fill-rule:nonzero;fill:rgb(83.137255%,0%,0%);fill-opacity:1;" d="M 282.402344 311.214844 C 273.464844 296.4375 264.0625 282.074219 252.3125 269.808594 C 264.0625 257.539063 273.464844 243.179688 282.402344 228.402344 C 291.339844 243.179688 300.742188 257.539063 312.492188 269.808594 C 300.742188 282.074219 291.339844 296.4375 282.402344 311.214844 Z M 282.402344 311.214844 "/>
<path style=" stroke:none;fill-rule:nonzero;fill:rgb(83.137255%,0%,0%);fill-opacity:1;" d="M 103.992188 482.414063 C 95.054688 467.636719 85.652344 453.277344 73.902344 441.007813 C 85.652344 428.738281 95.054688 414.378906 103.992188 399.601563 C 112.929688 414.378906 122.332031 428.738281 134.082031 441.007813 C 122.332031 453.277344 112.929688 467.636719 103.992188 482.414063 Z M 103.992188 482.414063 "/>
<path style=" stroke:none;fill-rule:nonzero;fill:rgb(83.137255%,0%,0%);fill-opacity:1;" d="M 282.402344 482.425781 C 273.464844 467.648438 264.0625 453.289063 252.3125 441.019531 C 264.0625 428.75 273.464844 414.390625 282.402344 399.613281 C 291.339844 414.390625 300.742188 428.75 312.492188 441.019531 C 300.742188 453.289063 291.339844 467.648438 282.402344 482.425781 Z M 282.402344 482.425781 "/>
<path style=" stroke:none;fill-rule:nonzero;fill:rgb(83.137255%,0%,0%);fill-opacity:1;" d="M 193.195313 396.800781 C 184.261719 382.023438 174.859375 367.664063 163.109375 355.394531 C 174.859375 343.125 184.261719 328.765625 193.195313 313.988281 C 202.132813 328.765625 211.535156 343.125 223.285156 355.394531 C 211.535156 367.664063 202.132813 382.023438 193.195313 396.800781 Z M 193.195313 396.800781 "/>
<path style=" stroke:none;fill-rule:nonzero;fill:rgb(83.137255%,0%,0%);fill-opacity:1;" d="M 12.054688 64.992188 C 12.328125 57.351563 15.085938 54.484375 20.523438 50.484375 C 16.1875 47.351563 14.359375 42.738281 14.730469 38.808594 C 15.625 29.296875 22.960938 24.539063 30.96875 24.742188 C 38.980469 24.957031 45.878906 31.316406 46.417969 38.226563 C 46.882813 44.238281 45.101563 47.136719 40.84375 50.300781 C 45.894531 54.570313 49.125 57.378906 49.003906 64.90625 C 48.886719 72.433594 42.488281 81.390625 31.339844 81.664063 C 20.191406 81.9375 11.78125 72.636719 12.054688 64.992188 Z M 43.179688 65.019531 C 43.652344 58.101563 37.542969 53.433594 30.648438 53.363281 C 23.929688 53.292969 17.925781 59.03125 17.925781 65.246094 C 17.925781 71.914063 25.738281 75.542969 30.785156 75.558594 C 36.921875 75.585938 42.761719 70.976563 43.179688 65.019531 Z M 40.972656 40.265625 C 41.101563 34.445313 35.734375 30.265625 30.195313 30.433594 C 25.273438 30.585938 20.0625 34.34375 20.054688 39.214844 C 20.054688 45.3125 25.984375 48.359375 31.046875 48.476563 C 35.640625 48.578125 40.867188 44.667969 40.972656 40.265625 Z M 40.972656 40.265625 "/>
<path style=" stroke:none;fill-rule:nonzero;fill:rgb(83.137255%,0%,0%);fill-opacity:1;" d="M 337.390625 474.679688 C 337.660156 482.324219 340.421875 485.191406 345.855469 489.191406 C 341.519531 492.320313 339.691406 496.9375 340.0625 500.867188 C 340.957031 510.378906 348.292969 515.136719 356.300781 514.929688 C 364.316406 514.71875 371.210938 508.359375 371.75 501.445313 C 372.21875 495.4375 370.433594 492.535156 366.175781 489.375 C 371.230469 485.101563 374.457031 482.296875 374.335938 474.769531 C 374.21875 467.242188 367.820313 458.285156 356.671875 458.011719 C 345.523438 457.738281 337.113281 467.039063 337.390625 474.679688 Z M 368.511719 474.652344 C 368.988281 481.574219 362.875 486.242188 355.980469 486.308594 C 349.265625 486.382813 343.257813 480.644531 343.257813 474.429688 C 343.257813 467.757813 351.074219 464.132813 356.121094 464.117188 C 362.253906 464.089844 368.097656 468.695313 368.511719 474.652344 Z M 366.304688 499.410156 C 366.433594 505.230469 361.070313 509.40625 355.53125 509.238281 C 350.605469 509.089844 345.394531 505.328125 345.386719 500.457031 C 345.386719 494.359375 351.316406 491.316406 356.378906 491.199219 C 360.972656 491.09375 366.199219 495.003906 366.304688 499.410156 Z M 366.304688 499.410156 "/>
</g>
</svg>
