<?xml version="1.0" encoding="UTF-8"?>
<svg xmlns="http://www.w3.org/2000/svg" xmlns:xlink="http://www.w3.org/1999/xlink" width="386pt" height="540pt" viewBox="0 0 386 540" version="1.1">
<g id="surface1">
<path style="fill-rule:nonzero;fill:rgb(100%,100%,100%);fill-opacity:1;stroke-width:1.000567;stroke-linecap:butt;stroke-linejoin:miter;stroke:rgb(0%,0%,0%);stroke-opacity:1;stroke-miterlimit:4;" d="M 271.110489 370.275643 L 472.983469 370.275643 C 478.881773 370.275643 483.660261 375.050813 483.660261 380.939962 L 483.660261 671.421544 C 483.660261 677.312958 478.881773 682.085864 472.983469 682.085864 L 271.110489 682.085864 C 265.214451 682.085864 260.433697 677.312958 260.433697 671.421544 L 260.433697 380.939962 C 260.433697 375.050813 265.214451 370.275643 271.110489 370.275643 Z M 271.110489 370.275643 " transform="matrix(1.723218,0,0,1.725233,-447.920676,-637.94851)"/>
<path style=" stroke:none;fill-rule:nonzero;fill:rgb(83.137255%,0%,0%);fill-opacity:1;" d="M 30.53125 121.582031 C 30.53125 121.582031 26.699219 116.082031 21.527344 109.609375 C 18.066406 105.28125 15.300781 100.59375 15.042969 96.554688 C 14.75 91.941406 17.539063 87.3125 22.59375 87.089844 C 27.644531 86.863281 29.695313 90.644531 30.53125 93.761719 C 31.367188 90.644531 33.417969 86.863281 38.46875 87.089844 C 43.523438 87.3125 46.3125 91.941406 46.019531 96.554688 C 45.761719 100.59375 42.996094 105.28125 39.535156 109.609375 C 34.363281 116.082031 30.53125 121.582031 30.53125 121.582031 Z M 30.53125 121.582031 "/>
<path style=" stroke:none;fill-rule:nonzero;fill:rgb(83.137255%,0%,0%);fill-opacity:1;" d="M 355.867188 418.089844 C 355.867188 418.09375 352.03125 423.59375 346.859375 430.0625 C 343.402344 434.394531 340.636719 439.082031 340.378906 443.121094 C 340.082031 447.734375 342.875 452.359375 347.929688 452.585938 C 352.980469 452.808594 355.03125 449.027344 355.867188 445.910156 C 356.699219 449.027344 358.75 452.808594 363.800781 452.585938 C 368.855469 452.359375 371.648438 447.734375 371.351563 443.121094 C 371.097656 439.082031 368.328125 434.394531 364.871094 430.0625 C 359.699219 423.59375 355.867188 418.09375 355.867188 418.089844 Z M 355.867188 418.089844 "/>
<path style=" stroke:none;fill-rule:nonzero;fill:rgb(83.137255%,0%,0%);fill-opacity:1;" d="M 193.199219 225.660156 C 193.199219 225.660156 185.15625 212.453125 174.308594 196.925781 C 167.054688 186.535156 161.25 175.28125 160.710938 165.589844 C 160.09375 154.519531 165.949219 143.410156 176.550781 142.871094 C 187.144531 142.335938 191.445313 151.410156 193.199219 158.890625 C 194.949219 151.410156 199.25 142.335938 209.84375 142.871094 C 220.445313 143.410156 226.300781 154.519531 225.683594 165.589844 C 225.144531 175.28125 219.34375 186.535156 212.085938 196.925781 C 201.238281 212.453125 193.199219 225.660156 193.199219 225.660156 Z M 193.199219 225.660156 "/>
<path style=" stroke:none;fill-rule:nonzero;fill:rgb(83.137255%,0%,0%);fill-opacity:1;" d="M 103.992188 140.082031 C 103.992188 140.082031 95.953125 126.875 85.105469 111.34375 C 77.847656 100.953125 72.046875 89.699219 71.507813 80.007813 C 70.890625 68.9375 76.746094 57.832031 87.347656 57.292969 C 97.941406 56.753906 102.242188 65.828125 103.992188 73.308594 C 105.742188 65.828125 110.042969 56.753906 120.640625 57.292969 C 131.242188 57.832031 137.097656 68.9375 136.476563 80.007813 C 135.9375 89.699219 130.136719 100.953125 122.882813 111.34375 C 112.035156 126.875 103.992188 140.082031 103.992188 140.082031 Z M 103.992188 140.082031 "/>
<path style=" stroke:none;fill-rule:nonzero;fill:rgb(83.137255%,0%,0%);fill-opacity:1;" d="M 282.402344 311.242188 C 282.402344 311.242188 274.359375 298.035156 263.515625 282.507813 C 256.257813 272.113281 250.457031 260.863281 249.917969 251.171875 C 249.296875 240.097656 255.15625 228.992188 265.757813 228.453125 C 276.351563 227.914063 280.652344 236.992188 282.402344 244.472656 C 284.152344 236.992188 288.453125 227.914063 299.050781 228.453125 C 309.652344 228.992188 315.507813 240.097656 314.886719 251.171875 C 314.347656 260.863281 308.546875 272.113281 301.289063 282.507813 C 290.445313 298.035156 282.402344 311.242188 282.402344 311.242188 Z M 282.402344 311.242188 "/>
<path style=" stroke:none;fill-rule:nonzero;fill:rgb(83.137255%,0%,0%);fill-opacity:1;" d="M 282.402344 140.082031 C 282.402344 140.082031 274.359375 126.875 263.515625 111.34375 C 256.257813 100.953125 250.457031 89.699219 249.917969 80.007813 C 249.296875 68.9375 255.15625 57.832031 265.757813 57.292969 C 276.351563 56.753906 280.652344 65.828125 282.402344 73.308594 C 284.152344 65.828125 288.453125 56.753906 299.050781 57.292969 C 309.652344 57.832031 315.507813 68.9375 314.886719 80.007813 C 314.347656 89.699219 308.546875 100.953125 301.289063 111.34375 C 290.445313 126.875 282.402344 140.082031 282.402344 140.082031 Z M 282.402344 140.082031 "/>
<path style=" stroke:none;fill-rule:nonzero;fill:rgb(83.137255%,0%,0%);fill-opacity:1;" d="M 103.992188 311.242188 C 103.992188 311.242188 95.953125 298.035156 85.105469 282.507813 C 77.847656 272.113281 72.046875 260.863281 71.507813 251.171875 C 70.890625 240.097656 76.746094 228.992188 87.347656 228.453125 C 97.941406 227.914063 102.242188 236.992188 103.992188 244.472656 C 105.742188 236.992188 110.042969 227.914063 120.640625 228.453125 C 131.242188 228.992188 137.097656 240.097656 136.476563 251.171875 C 135.9375 260.863281 130.136719 272.113281 122.882813 282.507813 C 112.035156 298.035156 103.992188 311.242188 103.992188 311.242188 Z M 103.992188 311.242188 "/>
<path style=" stroke:none;fill-rule:nonzero;fill:rgb(83.137255%,0%,0%);fill-opacity:1;" d="M 193.199219 314.011719 C 193.199219 314.011719 185.15625 327.21875 174.308594 342.746094 C 167.054688 353.140625 161.25 364.390625 160.710938 374.082031 C 160.09375 385.15625 165.949219 396.261719 176.550781 396.800781 C 187.144531 397.339844 191.445313 388.261719 193.199219 380.78125 C 194.949219 388.261719 199.25 397.339844 209.84375 396.800781 C 220.445313 396.261719 226.300781 385.15625 225.683594 374.082031 C 225.144531 364.390625 219.34375 353.140625 212.085938 342.746094 C 201.238281 327.21875 193.199219 314.011719 193.199219 314.011719 Z M 193.199219 314.011719 "/>
<path style=" stroke:none;fill-rule:nonzero;fill:rgb(83.137255%,0%,0%);fill-opacity:1;" d="M 282.402344 399.59375 C 282.402344 399.59375 274.359375 412.800781 263.515625 428.328125 C 256.257813 438.71875 250.457031 449.972656 249.917969 459.664063 C 249.296875 470.734375 255.15625 481.84375 265.757813 482.378906 C 276.351563 482.917969 280.652344 473.84375 282.402344 466.363281 C 284.152344 473.84375 288.453125 482.917969 299.050781 482.378906 C 309.652344 481.84375 315.507813 470.734375 314.886719 459.664063 C 314.347656 449.972656 308.546875 438.71875 301.289063 428.328125 C 290.445313 412.800781 282.402344 399.59375 282.402344 399.59375 Z M 282.402344 399.59375 "/>
<path style=" stroke:none;fill-rule:nonzero;fill:rgb(83.137255%,0%,0%);fill-opacity:1;" d="M 103.992188 399.59375 C 103.992188 399.59375 95.953125 412.800781 85.105469 428.328125 C 77.847656 438.71875 72.046875 449.972656 71.507813 459.664063 C 70.890625 470.734375 76.746094 481.84375 87.347656 482.378906 C 97.941406 482.917969 102.242188 473.84375 103.992188 466.363281 C 105.742188 473.84375 110.042969 482.917969 120.640625 482.378906 C 131.242188 481.84375 137.097656 470.734375 136.476563 459.664063 C 135.9375 449.972656 130.136719 438.71875 122.882813 428.328125 C 112.035156 412.800781 103.992188 399.59375 103.992188 399.59375 Z M 103.992188 399.59375 "/>
<path style=" stroke:none;fill-rule:nonzero;fill:rgb(83.137255%,0%,0%);fill-opacity:1;" d="M 12.054688 64.992188 C 12.328125 57.351563 15.085938 54.484375 20.523438 50.484375 C 16.1875 47.351563 14.359375 42.738281 14.730469 38.808594 C 15.625 29.296875 22.960938 24.539063 30.96875 24.742188 C 38.980469 24.957031 45.878906 31.316406 46.417969 38.226563 C 46.882813 44.238281 45.101563 47.136719 40.84375 50.300781 C 45.894531 54.570313 49.125 57.378906 49.003906 64.90625 C 48.886719 72.433594 42.488281 81.390625 31.339844 81.664063 C 20.191406 81.9375 11.78125 72.636719 12.054688 64.992188 Z M 43.179688 65.019531 C 43.652344 58.101563 37.542969 53.433594 30.648438 53.363281 C 23.929688 53.292969 17.925781 59.03125 17.925781 65.242188 C 17.925781 71.914063 25.738281 75.542969 30.785156 75.558594 C 36.921875 75.585938 42.761719 70.976563 43.179688 65.019531 Z M 40.972656 40.265625 C 41.101563 34.445313 35.734375 30.265625 30.195313 30.433594 C 25.273438 30.585938 20.0625 34.34375 20.054688 39.214844 C 20.054688 45.3125 25.984375 48.359375 31.046875 48.476563 C 35.640625 48.578125 40.867188 44.667969 40.972656 40.265625 Z M 40.972656 40.265625 "/>
<path style=" stroke:none;fill-rule:nonzero;fill:rgb(83.137255%,0%,0%);fill-opacity:1;" d="M 337.390625 474.679688 C 337.660156 482.324219 340.421875 485.191406 345.855469 489.1875 C 341.519531 492.320313 339.691406 496.9375 340.066406 500.863281 C 340.957031 510.378906 348.296875 515.132813 356.300781 514.929688 C 364.316406 514.71875 371.210938 508.359375 371.75 501.445313 C 372.21875 495.4375 370.433594 492.535156 366.175781 489.375 C 371.230469 485.101563 374.457031 482.296875 374.339844 474.769531 C 374.21875 467.242188 367.824219 458.285156 356.675781 458.011719 C 345.527344 457.738281 337.113281 467.039063 337.390625 474.679688 Z M 368.511719 474.652344 C 368.988281 481.574219 362.878906 486.242188 355.980469 486.308594 C 349.265625 486.378906 343.257813 480.640625 343.257813 474.429688 C 343.257813 467.757813 351.074219 464.132813 356.121094 464.117188 C 362.253906 464.089844 368.097656 468.695313 368.511719 474.652344 Z M 366.304688 499.40625 C 366.4375 505.230469 361.070313 509.40625 355.53125 509.238281 C 350.605469 509.085938 345.398438 505.328125 345.386719 500.457031 C 345.386719 494.359375 351.316406 491.316406 356.378906 491.195313 C 360.972656 491.09375 366.199219 495.003906 366.304688 499.40625 Z M 366.304688 499.40625 "/>
</g>
</svg>
