<?xml version="1.0" encoding="UTF-8"?>
<svg xmlns="http://www.w3.org/2000/svg" xmlns:xlink="http://www.w3.org/1999/xlink" width="386pt" height="540pt" viewBox="0 0 386 540" version="1.1">
<g id="surface1">
<path style="fill-rule:nonzero;fill:rgb(100%,100%,100%);fill-opacity:1;stroke-width:0.996734;stroke-linecap:butt;stroke-linejoin:miter;stroke:rgb(0%,0%,0%);stroke-opacity:1;stroke-miterlimit:4;" d="M 2587.963503 -1088.369239 L 2788.936228 -1088.369239 C 2794.805972 -1088.369239 2799.565407 -1083.609352 2799.565407 -1077.739051 L 2799.565407 -788.184934 C 2799.565407 -782.314633 2794.805972 -777.557004 2788.936228 -777.557004 L 2587.963503 -777.557004 C 2582.093759 -777.557004 2577.334324 -782.314633 2577.334324 -788.184934 L 2577.334324 -1077.739051 C 2577.334324 -1083.609352 2582.093759 -1088.369239 2587.963503 -1088.369239 Z M 2587.963503 -1088.369239 " transform="matrix(1.730937,0,0,1.730773,-4460.339655,1884.582984)"/>
<path style=" stroke:none;fill-rule:nonzero;fill:rgb(0%,0%,0%);fill-opacity:1;" d="M 282.394531 57.988281 C 265.476563 58.355469 257.890625 77.402344 270.417969 92.191406 C 272.238281 94.351563 272.425781 95.585938 269.097656 93.515625 C 260.660156 87.875 244.484375 91.582031 243.65625 108.828125 C 242.632813 130.078125 272.324219 136.199219 277.898438 113.605469 C 278.195313 111.21875 280.132813 111.273438 279.664063 114.660156 C 279.15625 123.84375 276.289063 132.425781 272.34375 140.796875 C 278.988281 140.796875 286.417969 140.796875 292.457031 140.796875 C 288.515625 132.425781 285.648438 123.84375 285.140625 114.660156 C 284.671875 111.273438 286.609375 111.21875 286.902344 113.605469 C 292.480469 136.199219 322.171875 130.078125 321.148438 108.828125 C 320.320313 91.582031 304.144531 87.875 295.707031 93.515625 C 292.378906 95.585938 292.566406 94.351563 294.382813 92.191406 C 306.914063 77.402344 299.328125 58.355469 282.410156 57.988281 C 282.410156 57.988281 282.410156 57.988281 282.390625 57.988281 Z M 282.394531 57.988281 "/>
<path style=" stroke:none;fill-rule:nonzero;fill:rgb(0%,0%,0%);fill-opacity:1;" d="M 103.984375 57.988281 C 87.066406 58.355469 79.480469 77.402344 92.011719 92.191406 C 93.828125 94.351563 94.015625 95.585938 90.6875 93.515625 C 82.25 87.875 66.074219 91.582031 65.246094 108.828125 C 64.222656 130.078125 93.914063 136.199219 99.492188 113.605469 C 99.785156 111.21875 101.722656 111.273438 101.253906 114.660156 C 100.746094 123.84375 97.878906 132.425781 93.9375 140.796875 C 100.582031 140.796875 108.007813 140.796875 114.050781 140.796875 C 110.105469 132.425781 107.238281 123.84375 106.730469 114.660156 C 106.261719 111.273438 108.199219 111.21875 108.496094 113.605469 C 114.070313 136.199219 143.761719 130.078125 142.738281 108.828125 C 141.910156 91.582031 125.734375 87.875 117.296875 93.515625 C 113.96875 95.585938 114.15625 94.351563 115.976563 92.191406 C 128.503906 77.402344 120.917969 58.355469 104 57.988281 C 104 57.988281 104 57.988281 103.980469 57.988281 Z M 103.984375 57.988281 "/>
<path style=" stroke:none;fill-rule:nonzero;fill:rgb(0%,0%,0%);fill-opacity:1;" d="M 282.394531 483.121094 C 265.476563 482.753906 257.890625 463.707031 270.417969 448.914063 C 272.238281 446.757813 272.425781 445.519531 269.097656 447.59375 C 260.660156 453.234375 244.484375 449.523438 243.65625 432.28125 C 242.632813 411.03125 272.324219 404.910156 277.898438 427.503906 C 278.195313 429.886719 280.132813 429.832031 279.664063 426.449219 C 279.15625 417.265625 276.289063 408.679688 272.34375 400.308594 C 278.988281 400.308594 286.417969 400.308594 292.457031 400.308594 C 288.515625 408.679688 285.648438 417.265625 285.140625 426.449219 C 284.671875 429.832031 286.609375 429.886719 286.902344 427.503906 C 292.480469 404.910156 322.171875 411.03125 321.148438 432.28125 C 320.320313 449.523438 304.144531 453.234375 295.707031 447.59375 C 292.378906 445.519531 292.566406 446.757813 294.382813 448.914063 C 306.914063 463.707031 299.328125 482.753906 282.410156 483.121094 C 282.410156 483.121094 282.410156 483.121094 282.390625 483.121094 Z M 282.394531 483.121094 "/>
<path style=" stroke:none;fill-rule:nonzero;fill:rgb(0%,0%,0%);fill-opacity:1;" d="M 103.984375 483.121094 C 87.066406 482.753906 79.480469 463.707031 92.011719 448.914063 C 93.828125 446.757813 94.015625 445.519531 90.6875 447.59375 C 82.25 453.234375 66.074219 449.523438 65.246094 432.28125 C 64.222656 411.03125 93.914063 404.910156 99.492188 427.503906 C 99.785156 429.886719 101.722656 429.832031 101.253906 426.449219 C 100.746094 417.265625 97.878906 408.679688 93.9375 400.308594 C 100.582031 400.308594 108.007813 400.308594 114.050781 400.308594 C 110.105469 408.679688 107.238281 417.265625 106.730469 426.449219 C 106.261719 429.832031 108.199219 429.886719 108.496094 427.503906 C 114.070313 404.910156 143.761719 411.03125 142.738281 432.28125 C 141.910156 449.523438 125.734375 453.234375 117.296875 447.59375 C 113.96875 445.519531 114.15625 446.757813 115.976563 448.914063 C 128.503906 463.707031 120.917969 482.753906 104 483.121094 C 104 483.121094 104 483.121094 103.980469 483.121094 Z M 103.984375 483.121094 "/>
<path style=" stroke:none;fill-rule:nonzero;fill:rgb(0%,0%,0%);fill-opacity:1;" d="M 193.191406 229.148438 C 176.273438 229.515625 168.683594 248.5625 181.214844 263.355469 C 183.03125 265.511719 183.21875 266.75 179.890625 264.675781 C 171.457031 259.035156 155.277344 262.746094 154.449219 279.988281 C 153.429688 301.238281 183.121094 307.359375 188.695313 284.765625 C 188.988281 282.382813 190.925781 282.4375 190.460938 285.820313 C 189.953125 295.003906 187.082031 303.589844 183.140625 311.960938 C 189.785156 311.960938 197.210938 311.960938 203.253906 311.960938 C 199.3125 303.589844 196.441406 295.003906 195.933594 285.820313 C 195.46875 282.4375 197.40625 282.382813 197.699219 284.765625 C 203.273438 307.359375 232.96875 301.238281 231.945313 279.988281 C 231.117188 262.746094 214.9375 259.035156 206.503906 264.675781 C 203.175781 266.75 203.363281 265.511719 205.179688 263.355469 C 217.710938 248.5625 210.125 229.515625 193.203125 229.148438 C 193.203125 229.148438 193.203125 229.148438 193.1875 229.148438 Z M 193.191406 229.148438 "/>
<path style=" stroke:none;fill-rule:nonzero;fill:rgb(0%,0%,0%);fill-opacity:1;" d="M 355.867188 452.59375 C 362.636719 452.441406 365.671875 444.503906 360.65625 438.34375 C 359.929688 437.445313 359.855469 436.929688 361.1875 437.792969 C 364.5625 440.140625 371.03125 438.597656 371.363281 431.410156 C 371.773438 422.558594 359.894531 420.007813 357.664063 429.421875 C 357.546875 430.414063 356.773438 430.390625 356.960938 428.980469 C 357.164063 425.15625 358.308594 421.578125 359.886719 418.089844 C 357.207031 418.089844 354.523438 418.089844 351.84375 418.089844 C 353.417969 421.578125 354.566406 425.15625 354.769531 428.980469 C 354.957031 430.390625 354.183594 430.414063 354.0625 429.421875 C 351.835938 420.007813 339.957031 422.558594 340.367188 431.410156 C 340.699219 438.597656 347.167969 440.140625 350.542969 437.792969 C 351.875 436.929688 351.800781 437.445313 351.074219 438.34375 C 346.058594 444.503906 349.09375 452.441406 355.863281 452.59375 Z M 355.867188 452.59375 "/>
<path style=" stroke:none;fill-rule:nonzero;fill:rgb(0%,0%,0%);fill-opacity:1;" d="M 103.984375 172.09375 C 87.066406 172.460938 79.480469 191.507813 92.011719 206.300781 C 93.828125 208.457031 94.015625 209.695313 90.6875 207.625 C 82.25 201.984375 66.074219 205.691406 65.246094 222.9375 C 64.222656 244.183594 93.914063 250.308594 99.492188 227.710938 C 99.785156 225.328125 101.722656 225.382813 101.253906 228.765625 C 100.746094 237.949219 97.878906 246.535156 93.9375 254.90625 C 100.582031 254.90625 108.007813 254.90625 114.050781 254.90625 C 110.105469 246.535156 107.238281 237.949219 106.730469 228.765625 C 106.261719 225.382813 108.199219 225.328125 108.496094 227.710938 C 114.070313 250.308594 143.761719 244.183594 142.738281 222.9375 C 141.910156 205.691406 125.734375 201.984375 117.296875 207.625 C 113.96875 209.695313 114.15625 208.457031 115.976563 206.300781 C 128.503906 191.507813 120.917969 172.460938 104 172.09375 C 104 172.09375 104 172.09375 103.980469 172.09375 Z M 103.984375 172.09375 "/>
<path style=" stroke:none;fill-rule:nonzero;fill:rgb(0%,0%,0%);fill-opacity:1;" d="M 103.984375 369.011719 C 87.066406 368.644531 79.480469 349.597656 92.011719 334.808594 C 93.828125 332.652344 94.015625 331.414063 90.6875 333.484375 C 82.25 339.125 66.074219 335.417969 65.246094 318.171875 C 64.222656 296.921875 93.914063 290.800781 99.492188 313.394531 C 99.785156 315.78125 101.722656 315.726563 101.253906 312.339844 C 100.746094 303.15625 97.878906 294.574219 93.9375 286.203125 C 100.582031 286.203125 108.007813 286.203125 114.050781 286.203125 C 110.105469 294.574219 107.238281 303.15625 106.730469 312.339844 C 106.261719 315.726563 108.199219 315.78125 108.496094 313.394531 C 114.070313 290.800781 143.761719 296.921875 142.738281 318.171875 C 141.910156 335.417969 125.734375 339.125 117.296875 333.484375 C 113.96875 331.414063 114.15625 332.652344 115.976563 334.808594 C 128.503906 349.597656 120.917969 368.644531 104 369.011719 C 104 369.015625 104 369.011719 103.980469 369.011719 Z M 103.984375 369.011719 "/>
<path style=" stroke:none;fill-rule:nonzero;fill:rgb(0%,0%,0%);fill-opacity:1;" d="M 282.394531 172.09375 C 265.476563 172.460938 257.890625 191.507813 270.417969 206.300781 C 272.238281 208.457031 272.425781 209.695313 269.097656 207.625 C 260.660156 201.984375 244.484375 205.691406 243.65625 222.9375 C 242.632813 244.183594 272.324219 250.308594 277.898438 227.710938 C 278.195313 225.328125 280.132813 225.382813 279.664063 228.765625 C 279.15625 237.949219 276.289063 246.535156 272.34375 254.90625 C 278.988281 254.90625 286.417969 254.90625 292.457031 254.90625 C 288.515625 246.535156 285.648438 237.949219 285.140625 228.765625 C 284.671875 225.382813 286.609375 225.328125 286.902344 227.710938 C 292.480469 250.308594 322.171875 244.183594 321.148438 222.9375 C 320.320313 205.691406 304.144531 201.984375 295.707031 207.625 C 292.378906 209.695313 292.566406 208.457031 294.382813 206.300781 C 306.914063 191.507813 299.328125 172.460938 282.410156 172.09375 C 282.410156 172.09375 282.410156 172.09375 282.390625 172.09375 Z M 282.394531 172.09375 "/>
<path style=" stroke:none;fill-rule:nonzero;fill:rgb(0%,0%,0%);fill-opacity:1;" d="M 282.394531 369.011719 C 265.476563 368.644531 257.890625 349.597656 270.417969 334.808594 C 272.238281 332.652344 272.425781 331.414063 269.097656 333.484375 C 260.660156 339.125 244.484375 335.417969 243.65625 318.171875 C 242.632813 296.921875 272.324219 290.800781 277.898438 313.394531 C 278.195313 315.78125 280.132813 315.726563 279.664063 312.339844 C 279.15625 303.15625 276.289063 294.574219 272.34375 286.203125 C 278.988281 286.203125 286.417969 286.203125 292.457031 286.203125 C 288.515625 294.574219 285.648438 303.15625 285.140625 312.339844 C 284.671875 315.726563 286.609375 315.78125 286.902344 313.394531 C 292.480469 290.800781 322.171875 296.921875 321.148438 318.171875 C 320.320313 335.417969 304.144531 339.125 295.707031 333.484375 C 292.378906 331.414063 292.566406 332.652344 294.382813 334.808594 C 306.914063 349.597656 299.328125 368.644531 282.410156 369.011719 C 282.410156 369.015625 282.410156 369.011719 282.390625 369.011719 Z M 282.394531 369.011719 "/>
<path style=" stroke:none;fill-rule:nonzero;fill:rgb(0%,0%,0%);fill-opacity:1;" d="M 30.53125 87.078125 C 23.761719 87.230469 20.726563 95.167969 25.738281 101.332031 C 26.464844 102.230469 26.539063 102.746094 25.210938 101.882813 C 21.835938 99.53125 15.363281 101.078125 15.035156 108.261719 C 14.625 117.117188 26.5 119.667969 28.730469 110.253906 C 28.847656 109.257813 29.625 109.28125 29.4375 110.691406 C 29.234375 114.519531 28.085938 118.09375 26.507813 121.582031 C 29.191406 121.582031 31.871094 121.582031 34.554688 121.582031 C 32.976563 118.09375 31.828125 114.519531 31.625 110.691406 C 31.441406 109.28125 32.214844 109.257813 32.332031 110.253906 C 34.5625 119.667969 46.441406 117.117188 46.03125 108.261719 C 45.699219 101.078125 39.230469 99.53125 35.855469 101.882813 C 34.523438 102.746094 34.597656 102.230469 35.324219 101.332031 C 40.335938 95.167969 37.300781 87.230469 30.535156 87.078125 Z M 30.53125 87.078125 "/>
<path style=" stroke:none;fill-rule:nonzero;fill:rgb(0%,0%,0%);fill-opacity:1;" d="M 14.644531 70.695313 L 19.847656 69.042969 C 21.8125 74.292969 25.773438 75.847656 29.972656 75.511719 C 37.5 74.910156 40 66.484375 40.5625 59.035156 C 37.628906 62.148438 33.222656 63.730469 29.46875 63.570313 C 17.464844 62.925781 14.390625 53.308594 14.28125 43.238281 C 13.953125 34.75 17.457031 28.601563 23.472656 25.777344 C 26.65625 24.347656 33.949219 24.347656 37.152344 26.042969 C 44.507813 29.925781 47.238281 36.640625 46.742188 52.664063 C 46.742188 65.847656 43.945313 81.203125 29.832031 81.539063 C 21.679688 82.667969 15.484375 76.316406 14.644531 70.695313 Z M 35.078125 56.246094 C 37.527344 54.695313 38.902344 53.238281 40.003906 51.058594 C 40.902344 49.265625 41.214844 48.332031 40.957031 44.628906 C 40.289063 35.070313 35.285156 29.644531 28.027344 30.71875 C 23.976563 31.328125 21.761719 33.597656 20.488281 37.8125 C 18.144531 45.613281 21.121094 54.738281 26.695313 56.839844 C 29.203125 57.792969 33.078125 57.519531 35.078125 56.246094 Z M 35.078125 56.246094 "/>
<path style=" stroke:none;fill-rule:nonzero;fill:rgb(0%,0%,0%);fill-opacity:1;" d="M 371.746094 468.980469 L 366.546875 470.632813 C 364.582031 465.382813 360.617188 463.828125 356.421875 464.164063 C 348.890625 464.765625 346.390625 473.191406 345.828125 480.636719 C 348.761719 477.523438 353.167969 475.941406 356.921875 476.101563 C 368.925781 476.746094 372 486.363281 372.109375 496.433594 C 372.4375 504.921875 368.933594 511.070313 362.921875 513.894531 C 359.734375 515.324219 352.441406 515.324219 349.238281 513.632813 C 341.882813 509.746094 339.15625 503.035156 339.648438 487.007813 C 339.648438 473.824219 342.445313 458.46875 356.558594 458.136719 C 364.710938 457.007813 370.90625 463.359375 371.746094 468.980469 Z M 351.3125 483.425781 C 348.867188 484.976563 347.488281 486.433594 346.390625 488.613281 C 345.488281 490.40625 345.175781 491.339844 345.4375 495.046875 C 346.101563 504.605469 351.105469 510.03125 358.367188 508.957031 C 362.414063 508.34375 364.632813 506.078125 365.902344 501.859375 C 368.25 494.058594 365.273438 484.933594 359.695313 482.835938 C 357.1875 481.878906 353.3125 482.15625 351.3125 483.425781 Z M 351.3125 483.425781 "/>
</g>
</svg>
