<?xml version="1.0" encoding="UTF-8"?>
<svg xmlns="http://www.w3.org/2000/svg" xmlns:xlink="http://www.w3.org/1999/xlink" width="386pt" height="540pt" viewBox="0 0 386 540" version="1.1">
<g id="surface1">
<path style="fill-rule:nonzero;fill:rgb(100%,100%,100%);fill-opacity:1;stroke-width:1.000567;stroke-linecap:butt;stroke-linejoin:miter;stroke:rgb(0%,0%,0%);stroke-opacity:1;stroke-miterlimit:4;" d="M 2587.513409 -30.444837 L 2789.386952 -30.444837 C 2795.283006 -30.444837 2800.063774 -25.669677 2800.063774 -19.780539 L 2800.063774 270.702724 C 2800.063774 276.591862 2795.283006 281.367023 2789.386952 281.367023 L 2587.513409 281.367023 C 2581.617355 281.367023 2576.836587 276.591862 2576.836587 270.702724 L 2576.836587 -19.780539 C 2576.836587 -25.669677 2581.617355 -30.444837 2587.513409 -30.444837 Z M 2587.513409 -30.444837 " transform="matrix(1.723213,0,0,1.725237,-4439.574764,53.387827)"/>
<path style=" stroke:none;fill-rule:nonzero;fill:rgb(83.137255%,0%,0%);fill-opacity:1;" d="M 30.53125 121.582031 C 26.808594 115.425781 22.890625 109.441406 17.996094 104.332031 C 22.890625 99.21875 26.808594 93.234375 30.53125 87.078125 C 34.253906 93.234375 38.171875 99.21875 43.070313 104.332031 C 38.171875 109.441406 34.253906 115.425781 30.53125 121.582031 Z M 30.53125 121.582031 "/>
<path style=" stroke:none;fill-rule:nonzero;fill:rgb(83.137255%,0%,0%);fill-opacity:1;" d="M 282.402344 140.082031 C 273.464844 125.304688 264.0625 110.941406 252.3125 98.675781 C 264.0625 86.40625 273.464844 72.046875 282.402344 57.269531 C 291.339844 72.046875 300.742188 86.40625 312.492188 98.675781 C 300.742188 110.941406 291.339844 125.304688 282.402344 140.082031 Z M 282.402344 140.082031 "/>
<path style=" stroke:none;fill-rule:nonzero;fill:rgb(83.137255%,0%,0%);fill-opacity:1;" d="M 355.863281 452.59375 C 352.140625 446.4375 348.222656 440.453125 343.328125 435.34375 C 348.222656 430.230469 352.140625 424.246094 355.863281 418.089844 C 359.589844 424.246094 363.503906 430.230469 368.402344 435.34375 C 363.503906 440.453125 359.589844 446.4375 355.863281 452.59375 Z M 355.863281 452.59375 "/>
<path style=" stroke:none;fill-rule:nonzero;fill:rgb(83.137255%,0%,0%);fill-opacity:1;" d="M 103.992188 140.082031 C 95.054688 125.304688 85.652344 110.941406 73.902344 98.675781 C 85.652344 86.40625 95.054688 72.046875 103.992188 57.269531 C 112.929688 72.046875 122.332031 86.40625 134.082031 98.675781 C 122.332031 110.941406 112.929688 125.304688 103.992188 140.082031 Z M 103.992188 140.082031 "/>
<path style=" stroke:none;fill-rule:nonzero;fill:rgb(83.137255%,0%,0%);fill-opacity:1;" d="M 282.402344 254.199219 C 273.464844 239.425781 264.0625 225.0625 252.3125 212.796875 C 264.0625 200.527344 273.464844 186.167969 282.402344 171.390625 C 291.339844 186.167969 300.742188 200.527344 312.492188 212.796875 C 300.742188 225.0625 291.339844 239.425781 282.402344 254.199219 Z M 282.402344 254.199219 "/>
<path style=" stroke:none;fill-rule:nonzero;fill:rgb(83.137255%,0%,0%);fill-opacity:1;" d="M 103.992188 254.199219 C 95.054688 239.425781 85.652344 225.0625 73.902344 212.796875 C 85.652344 200.527344 95.054688 186.167969 103.992188 171.390625 C 112.929688 186.167969 122.332031 200.527344 134.082031 212.796875 C 122.332031 225.0625 112.929688 239.425781 103.992188 254.199219 Z M 103.992188 254.199219 "/>
<path style=" stroke:none;fill-rule:nonzero;fill:rgb(83.137255%,0%,0%);fill-opacity:1;" d="M 193.199219 311.242188 C 184.261719 296.464844 174.859375 282.105469 163.109375 269.835938 C 174.859375 257.570313 184.261719 243.207031 193.199219 228.429688 C 202.132813 243.207031 211.535156 257.570313 223.285156 269.835938 C 211.535156 282.105469 202.132813 296.464844 193.199219 311.242188 Z M 193.199219 311.242188 "/>
<path style=" stroke:none;fill-rule:nonzero;fill:rgb(83.137255%,0%,0%);fill-opacity:1;" d="M 103.992188 482.414063 C 95.054688 467.636719 85.652344 453.277344 73.902344 441.007813 C 85.652344 428.738281 95.054688 414.378906 103.992188 399.601563 C 112.929688 414.378906 122.332031 428.738281 134.082031 441.007813 C 122.332031 453.277344 112.929688 467.636719 103.992188 482.414063 Z M 103.992188 482.414063 "/>
<path style=" stroke:none;fill-rule:nonzero;fill:rgb(83.137255%,0%,0%);fill-opacity:1;" d="M 282.402344 482.425781 C 273.464844 467.648438 264.0625 453.289063 252.3125 441.019531 C 264.0625 428.75 273.464844 414.390625 282.402344 399.613281 C 291.339844 414.390625 300.742188 428.75 312.492188 441.019531 C 300.742188 453.289063 291.339844 467.648438 282.402344 482.425781 Z M 282.402344 482.425781 "/>
<path style=" stroke:none;fill-rule:nonzero;fill:rgb(83.137255%,0%,0%);fill-opacity:1;" d="M 282.402344 368.292969 C 273.464844 353.519531 264.0625 339.15625 252.3125 326.886719 C 264.0625 314.621094 273.464844 300.257813 282.402344 285.484375 C 291.339844 300.257813 300.742188 314.621094 312.492188 326.886719 C 300.742188 339.15625 291.339844 353.519531 282.402344 368.292969 Z M 282.402344 368.292969 "/>
<path style=" stroke:none;fill-rule:nonzero;fill:rgb(83.137255%,0%,0%);fill-opacity:1;" d="M 103.992188 368.238281 C 95.054688 353.460938 85.652344 339.101563 73.902344 326.832031 C 85.652344 314.566406 95.054688 300.203125 103.992188 285.425781 C 112.929688 300.203125 122.332031 314.566406 134.082031 326.832031 C 122.332031 339.101563 112.929688 353.460938 103.992188 368.238281 Z M 103.992188 368.238281 "/>
<path style=" stroke:none;fill-rule:nonzero;fill:rgb(83.137255%,0%,0%);fill-opacity:1;" d="M 14.644531 70.695313 L 19.84375 69.042969 C 21.8125 74.292969 25.773438 75.847656 29.96875 75.511719 C 37.5 74.910156 40 66.484375 40.5625 59.035156 C 37.628906 62.152344 33.222656 63.730469 29.46875 63.570313 C 17.464844 62.925781 14.390625 53.308594 14.28125 43.242188 C 13.953125 34.75 17.457031 28.601563 23.46875 25.777344 C 26.65625 24.347656 33.949219 24.347656 37.152344 26.042969 C 44.507813 29.929688 47.234375 36.640625 46.742188 52.664063 C 46.742188 65.847656 43.945313 81.203125 29.832031 81.539063 C 21.679688 82.667969 15.484375 76.316406 14.644531 70.695313 Z M 35.078125 56.246094 C 37.527344 54.695313 38.902344 53.238281 40.003906 51.058594 C 40.902344 49.265625 41.214844 48.332031 40.953125 44.628906 C 40.289063 35.070313 35.285156 29.644531 28.027344 30.71875 C 23.976563 31.328125 21.761719 33.597656 20.488281 37.8125 C 18.140625 45.613281 21.121094 54.738281 26.695313 56.839844 C 29.203125 57.792969 33.078125 57.519531 35.078125 56.246094 Z M 35.078125 56.246094 "/>
<path style=" stroke:none;fill-rule:nonzero;fill:rgb(83.137255%,0%,0%);fill-opacity:1;" d="M 371.746094 468.980469 L 366.546875 470.632813 C 364.578125 465.382813 360.617188 463.828125 356.421875 464.164063 C 348.890625 464.765625 346.390625 473.191406 345.828125 480.640625 C 348.761719 477.523438 353.167969 475.941406 356.921875 476.101563 C 368.925781 476.746094 372 486.367188 372.109375 496.433594 C 372.4375 504.921875 368.933594 511.074219 362.921875 513.894531 C 359.734375 515.324219 352.441406 515.324219 349.238281 513.632813 C 341.882813 509.746094 339.15625 503.035156 339.648438 487.007813 C 339.648438 473.824219 342.445313 458.472656 356.558594 458.136719 C 364.710938 457.007813 370.90625 463.359375 371.746094 468.980469 Z M 351.3125 483.425781 C 348.863281 484.976563 347.488281 486.433594 346.386719 488.617188 C 345.488281 490.40625 345.175781 491.34375 345.4375 495.046875 C 346.101563 504.605469 351.105469 510.03125 358.363281 508.957031 C 362.414063 508.347656 364.628906 506.078125 365.902344 501.859375 C 368.25 494.058594 365.269531 484.933594 359.695313 482.835938 C 357.1875 481.882813 353.3125 482.15625 351.3125 483.425781 Z M 351.3125 483.425781 "/>
</g>
</svg>
