<?xml version="1.0" encoding="UTF-8"?>
<svg xmlns="http://www.w3.org/2000/svg" xmlns:xlink="http://www.w3.org/1999/xlink" width="386pt" height="540pt" viewBox="0 0 386 540" version="1.1">
<g id="surface1">
<path style="fill-rule:nonzero;fill:rgb(100%,100%,100%);fill-opacity:1;stroke-width:1.000567;stroke-linecap:butt;stroke-linejoin:miter;stroke:rgb(0%,0%,0%);stroke-opacity:1;stroke-miterlimit:4;" d="M 271.110545 370.275643 L 472.983525 370.275643 C 478.881829 370.275643 483.660317 375.050813 483.660317 380.939962 L 483.660317 671.421544 C 483.660317 677.312958 478.881829 682.085864 472.983525 682.085864 L 271.110545 682.085864 C 265.214507 682.085864 260.433753 677.312958 260.433753 671.421544 L 260.433753 380.939962 C 260.433753 375.050813 265.214507 370.275643 271.110545 370.275643 Z M 271.110545 370.275643 " transform="matrix(1.723218,0,0,1.725233,-447.920773,-637.94851)"/>
<path style=" stroke:none;fill-rule:nonzero;fill:rgb(83.137255%,0%,0%);fill-opacity:1;" d="M 103.992188 254.1875 C 103.992188 254.1875 95.953125 240.980469 85.105469 225.453125 C 77.847656 215.0625 72.046875 203.808594 71.507813 194.117188 C 70.890625 183.046875 76.746094 171.9375 87.347656 171.398438 C 97.941406 170.863281 102.242188 179.9375 103.992188 187.417969 C 105.742188 179.9375 110.042969 170.863281 120.640625 171.398438 C 131.242188 171.9375 137.097656 183.046875 136.476563 194.117188 C 135.9375 203.808594 130.136719 215.0625 122.882813 225.453125 C 112.035156 240.980469 103.992188 254.1875 103.992188 254.1875 Z M 103.992188 254.1875 "/>
<path style=" stroke:none;fill-rule:nonzero;fill:rgb(83.137255%,0%,0%);fill-opacity:1;" d="M 30.53125 121.582031 C 30.53125 121.578125 26.699219 116.082031 21.527344 109.609375 C 18.066406 105.28125 15.300781 100.59375 15.042969 96.554688 C 14.75 91.941406 17.539063 87.3125 22.59375 87.089844 C 27.644531 86.863281 29.695313 90.644531 30.53125 93.761719 C 31.367188 90.644531 33.417969 86.863281 38.46875 87.089844 C 43.523438 87.3125 46.3125 91.941406 46.019531 96.554688 C 45.761719 100.59375 42.996094 105.28125 39.535156 109.609375 C 34.363281 116.082031 30.535156 121.578125 30.53125 121.582031 Z M 30.53125 121.582031 "/>
<path style=" stroke:none;fill-rule:nonzero;fill:rgb(83.137255%,0%,0%);fill-opacity:1;" d="M 355.863281 418.089844 C 355.863281 418.089844 352.03125 423.59375 346.859375 430.0625 C 343.402344 434.394531 340.632813 439.082031 340.378906 443.121094 C 340.082031 447.734375 342.875 452.359375 347.929688 452.585938 C 352.980469 452.808594 355.03125 449.027344 355.863281 445.910156 C 356.699219 449.027344 358.75 452.808594 363.800781 452.585938 C 368.855469 452.359375 371.648438 447.734375 371.351563 443.121094 C 371.097656 439.082031 368.328125 434.394531 364.871094 430.0625 C 359.699219 423.59375 355.863281 418.089844 355.863281 418.089844 Z M 355.863281 418.089844 "/>
<path style=" stroke:none;fill-rule:nonzero;fill:rgb(83.137255%,0%,0%);fill-opacity:1;" d="M 103.992188 140.082031 C 103.992188 140.082031 95.953125 126.875 85.105469 111.34375 C 77.847656 100.953125 72.046875 89.699219 71.507813 80.007813 C 70.890625 68.9375 76.746094 57.832031 87.347656 57.292969 C 97.941406 56.753906 102.242188 65.828125 103.992188 73.308594 C 105.742188 65.828125 110.042969 56.753906 120.640625 57.292969 C 131.242188 57.832031 137.097656 68.9375 136.476563 80.007813 C 135.9375 89.699219 130.136719 100.953125 122.882813 111.34375 C 112.035156 126.875 103.992188 140.082031 103.992188 140.082031 Z M 103.992188 140.082031 "/>
<path style=" stroke:none;fill-rule:nonzero;fill:rgb(83.137255%,0%,0%);fill-opacity:1;" d="M 282.402344 254.1875 C 282.402344 254.1875 274.359375 240.980469 263.515625 225.453125 C 256.257813 215.0625 250.457031 203.808594 249.917969 194.117188 C 249.296875 183.046875 255.152344 171.9375 265.753906 171.398438 C 276.351563 170.863281 280.652344 179.9375 282.402344 187.417969 C 284.152344 179.9375 288.453125 170.863281 299.050781 171.398438 C 309.652344 171.9375 315.507813 183.046875 314.886719 194.117188 C 314.347656 203.808594 308.546875 215.0625 301.289063 225.453125 C 290.445313 240.980469 282.402344 254.1875 282.402344 254.1875 Z M 282.402344 254.1875 "/>
<path style=" stroke:none;fill-rule:nonzero;fill:rgb(83.137255%,0%,0%);fill-opacity:1;" d="M 282.402344 140.082031 C 282.402344 140.082031 274.359375 126.875 263.515625 111.34375 C 256.257813 100.953125 250.457031 89.699219 249.917969 80.007813 C 249.296875 68.9375 255.152344 57.832031 265.753906 57.292969 C 276.351563 56.753906 280.652344 65.828125 282.402344 73.308594 C 284.152344 65.828125 288.453125 56.753906 299.050781 57.292969 C 309.652344 57.832031 315.507813 68.9375 314.886719 80.007813 C 314.347656 89.699219 308.546875 100.953125 301.289063 111.34375 C 290.445313 126.875 282.402344 140.082031 282.402344 140.082031 Z M 282.402344 140.082031 "/>
<path style=" stroke:none;fill-rule:nonzero;fill:rgb(83.137255%,0%,0%);fill-opacity:1;" d="M 193.199219 311.242188 C 193.199219 311.242188 185.15625 298.035156 174.308594 282.507813 C 167.054688 272.113281 161.25 260.863281 160.710938 251.171875 C 160.09375 240.097656 165.949219 228.992188 176.550781 228.453125 C 187.144531 227.914063 191.445313 236.992188 193.199219 244.472656 C 194.949219 236.992188 199.25 227.914063 209.84375 228.453125 C 220.445313 228.992188 226.300781 240.097656 225.683594 251.171875 C 225.144531 260.863281 219.34375 272.113281 212.085938 282.507813 C 201.238281 298.035156 193.199219 311.242188 193.199219 311.242188 Z M 193.199219 311.242188 "/>
<path style=" stroke:none;fill-rule:nonzero;fill:rgb(83.137255%,0%,0%);fill-opacity:1;" d="M 282.402344 285.484375 C 282.402344 285.484375 274.359375 298.691406 263.515625 314.222656 C 256.257813 324.613281 250.457031 335.863281 249.917969 345.554688 C 249.296875 356.628906 255.152344 367.734375 265.753906 368.273438 C 276.351563 368.8125 280.652344 359.738281 282.402344 352.253906 C 284.152344 359.738281 288.453125 368.8125 299.050781 368.273438 C 309.652344 367.734375 315.507813 356.628906 314.886719 345.554688 C 314.347656 335.863281 308.546875 324.613281 301.289063 314.222656 C 290.445313 298.691406 282.402344 285.484375 282.402344 285.484375 Z M 282.402344 285.484375 "/>
<path style=" stroke:none;fill-rule:nonzero;fill:rgb(83.137255%,0%,0%);fill-opacity:1;" d="M 103.992188 285.484375 C 103.992188 285.484375 95.953125 298.691406 85.105469 314.222656 C 77.847656 324.613281 72.046875 335.863281 71.507813 345.554688 C 70.890625 356.628906 76.746094 367.734375 87.347656 368.273438 C 97.941406 368.8125 102.242188 359.738281 103.992188 352.253906 C 105.742188 359.738281 110.042969 368.8125 120.640625 368.273438 C 131.242188 367.734375 137.097656 356.628906 136.476563 345.554688 C 135.9375 335.863281 130.136719 324.613281 122.882813 314.222656 C 112.035156 298.691406 103.992188 285.484375 103.992188 285.484375 Z M 103.992188 285.484375 "/>
<path style=" stroke:none;fill-rule:nonzero;fill:rgb(83.137255%,0%,0%);fill-opacity:1;" d="M 282.402344 399.59375 C 282.402344 399.59375 274.359375 412.800781 263.515625 428.328125 C 256.257813 438.71875 250.457031 449.972656 249.917969 459.664063 C 249.296875 470.734375 255.152344 481.84375 265.753906 482.378906 C 276.351563 482.917969 280.652344 473.84375 282.402344 466.363281 C 284.152344 473.84375 288.453125 482.917969 299.050781 482.378906 C 309.652344 481.84375 315.507813 470.734375 314.886719 459.664063 C 314.347656 449.972656 308.546875 438.71875 301.289063 428.328125 C 290.445313 412.800781 282.402344 399.59375 282.402344 399.59375 Z M 282.402344 399.59375 "/>
<path style=" stroke:none;fill-rule:nonzero;fill:rgb(83.137255%,0%,0%);fill-opacity:1;" d="M 103.992188 399.59375 C 103.992188 399.59375 95.953125 412.800781 85.105469 428.328125 C 77.847656 438.71875 72.046875 449.972656 71.507813 459.664063 C 70.890625 470.734375 76.746094 481.84375 87.347656 482.378906 C 97.941406 482.917969 102.242188 473.84375 103.992188 466.363281 C 105.742188 473.84375 110.042969 482.917969 120.640625 482.378906 C 131.242188 481.84375 137.097656 470.734375 136.476563 459.664063 C 135.9375 449.972656 130.136719 438.71875 122.882813 428.328125 C 112.035156 412.800781 103.992188 399.59375 103.992188 399.59375 Z M 103.992188 399.59375 "/>
<path style=" stroke:none;fill-rule:nonzero;fill:rgb(83.137255%,0%,0%);fill-opacity:1;" d="M 14.644531 70.695313 L 19.84375 69.042969 C 21.8125 74.292969 25.773438 75.847656 29.96875 75.511719 C 37.5 74.910156 40 66.484375 40.5625 59.035156 C 37.628906 62.152344 33.222656 63.730469 29.46875 63.570313 C 17.464844 62.925781 14.390625 53.308594 14.28125 43.242188 C 13.953125 34.75 17.457031 28.601563 23.46875 25.777344 C 26.65625 24.347656 33.949219 24.347656 37.152344 26.042969 C 44.507813 29.929688 47.234375 36.640625 46.742188 52.664063 C 46.742188 65.847656 43.945313 81.203125 29.832031 81.539063 C 21.679688 82.667969 15.484375 76.316406 14.644531 70.695313 Z M 35.078125 56.246094 C 37.523438 54.695313 38.902344 53.238281 40.003906 51.058594 C 40.902344 49.265625 41.214844 48.332031 40.953125 44.628906 C 40.289063 35.070313 35.285156 29.644531 28.023438 30.71875 C 23.976563 31.328125 21.761719 33.597656 20.488281 37.8125 C 18.140625 45.613281 21.121094 54.738281 26.695313 56.839844 C 29.203125 57.792969 33.078125 57.519531 35.078125 56.246094 Z M 35.078125 56.246094 "/>
<path style=" stroke:none;fill-rule:nonzero;fill:rgb(83.137255%,0%,0%);fill-opacity:1;" d="M 371.746094 468.980469 L 366.546875 470.628906 C 364.582031 465.378906 360.617188 463.828125 356.421875 464.164063 C 348.890625 464.765625 346.390625 473.191406 345.828125 480.636719 C 348.761719 477.523438 353.167969 475.941406 356.921875 476.101563 C 368.925781 476.746094 372 486.363281 372.109375 496.433594 C 372.4375 504.921875 368.933594 511.070313 362.921875 513.894531 C 359.734375 515.324219 352.441406 515.324219 349.238281 513.632813 C 341.882813 509.746094 339.15625 503.035156 339.648438 487.007813 C 339.648438 473.824219 342.445313 458.46875 356.558594 458.136719 C 364.710938 457.007813 370.90625 463.359375 371.746094 468.980469 Z M 351.3125 483.425781 C 348.867188 484.976563 347.488281 486.433594 346.390625 488.613281 C 345.488281 490.40625 345.175781 491.339844 345.4375 495.046875 C 346.101563 504.605469 351.105469 510.03125 358.367188 508.953125 C 362.414063 508.34375 364.632813 506.078125 365.902344 501.859375 C 368.25 494.058594 365.273438 484.933594 359.699219 482.832031 C 357.191406 481.878906 353.3125 482.152344 351.3125 483.425781 Z M 351.3125 483.425781 "/>
</g>
</svg>
