<?xml version="1.0" encoding="UTF-8"?>
<svg xmlns="http://www.w3.org/2000/svg" xmlns:xlink="http://www.w3.org/1999/xlink" width="386pt" height="540pt" viewBox="0 0 386 540" version="1.1">
<g id="surface1">
<path style="fill-rule:nonzero;fill:rgb(100%,100%,100%);fill-opacity:1;stroke-width:1.000567;stroke-linecap:butt;stroke-linejoin:miter;stroke:rgb(0%,0%,0%);stroke-opacity:1;stroke-miterlimit:4;" d="M 2944.130878 -471.408075 L 3146.003858 -471.408075 C 3151.902162 -471.408075 3156.68065 -466.632905 3156.68065 -460.743755 L 3156.68065 -170.262173 C 3156.68065 -164.370759 3151.902162 -159.597854 3146.003858 -159.597854 L 2944.130878 -159.597854 C 2938.23484 -159.597854 2933.454085 -164.370759 2933.454085 -170.262173 L 2933.454085 -460.743755 C 2933.454085 -466.632905 2938.23484 -471.408075 2944.130878 -471.408075 Z M 2944.130878 -471.408075 " transform="matrix(1.723218,0,0,1.725233,-5054.116743,814.152092)"/>
<path style=" stroke:none;fill-rule:nonzero;fill:rgb(0%,0%,0%);fill-opacity:1;" d="M 103.992188 57.269531 C 88.09375 79.96875 71.082031 93.03125 70.800781 110.738281 C 70.707031 116.472656 73.804688 126.222656 83.503906 128.085938 C 89.796875 129.292969 98.460938 124.191406 98.640625 113.832031 C 98.613281 111.769531 100.824219 111.824219 100.800781 114.648438 C 100.503906 122.820313 97.921875 132.335938 93.578125 140.082031 C 100.523438 140.082031 107.464844 140.082031 114.40625 140.082031 C 110.0625 132.335938 107.480469 122.820313 107.183594 114.648438 C 107.164063 111.824219 109.371094 111.769531 109.34375 113.832031 C 109.523438 124.191406 118.191406 129.292969 124.484375 128.085938 C 134.183594 126.222656 137.28125 116.472656 137.183594 110.738281 C 136.902344 93.03125 119.890625 79.96875 103.992188 57.269531 Z M 103.992188 57.269531 "/>
<path style=" stroke:none;fill-rule:nonzero;fill:rgb(0%,0%,0%);fill-opacity:1;" d="M 30.53125 87.078125 C 23.101563 96.535156 15.15625 101.980469 15.023438 109.359375 C 14.980469 111.746094 16.425781 115.808594 20.957031 116.585938 C 23.898438 117.089844 27.945313 114.964844 28.03125 110.644531 C 28.015625 109.785156 29.050781 109.808594 29.039063 110.988281 C 28.902344 114.390625 27.695313 118.355469 25.664063 121.582031 C 28.910156 121.582031 32.152344 121.582031 35.398438 121.582031 C 33.367188 118.355469 32.160156 114.390625 32.023438 110.988281 C 32.003906 109.808594 33.042969 109.785156 33.03125 110.644531 C 33.117188 114.964844 37.164063 117.089844 40.105469 116.585938 C 44.636719 115.808594 46.082031 111.746094 46.039063 109.359375 C 45.90625 101.980469 37.960938 96.535156 30.53125 87.078125 Z M 30.53125 87.078125 "/>
<path style=" stroke:none;fill-rule:nonzero;fill:rgb(0%,0%,0%);fill-opacity:1;" d="M 103.992188 368.296875 C 88.09375 345.597656 71.082031 332.535156 70.800781 314.824219 C 70.707031 309.089844 73.804688 299.34375 83.503906 297.476563 C 89.796875 296.273438 98.460938 301.371094 98.640625 311.734375 C 98.613281 313.796875 100.824219 313.742188 100.800781 310.914063 C 100.503906 302.742188 97.921875 293.230469 93.578125 285.484375 C 100.523438 285.484375 107.464844 285.484375 114.40625 285.484375 C 110.0625 293.230469 107.480469 302.742188 107.183594 310.914063 C 107.164063 313.742188 109.371094 313.796875 109.34375 311.734375 C 109.523438 301.371094 118.191406 296.273438 124.484375 297.476563 C 134.183594 299.34375 137.28125 309.089844 137.183594 314.824219 C 136.902344 332.535156 119.890625 345.597656 103.992188 368.296875 Z M 103.992188 368.296875 "/>
<path style=" stroke:none;fill-rule:nonzero;fill:rgb(0%,0%,0%);fill-opacity:1;" d="M 355.867188 452.59375 C 348.4375 443.136719 340.488281 437.695313 340.355469 430.316406 C 340.3125 427.925781 341.761719 423.863281 346.292969 423.085938 C 349.230469 422.585938 353.28125 424.710938 353.363281 429.027344 C 353.347656 429.886719 354.382813 429.863281 354.375 428.6875 C 354.238281 425.28125 353.027344 421.316406 351 418.089844 C 354.242188 418.089844 357.488281 418.089844 360.730469 418.089844 C 358.703125 421.316406 357.496094 425.28125 357.355469 428.6875 C 357.339844 429.863281 358.378906 429.886719 358.367188 429.027344 C 358.449219 424.710938 362.5 422.585938 365.4375 423.085938 C 369.96875 423.863281 371.417969 427.925781 371.375 430.316406 C 371.242188 437.695313 363.292969 443.136719 355.867188 452.59375 Z M 355.867188 452.59375 "/>
<path style=" stroke:none;fill-rule:nonzero;fill:rgb(0%,0%,0%);fill-opacity:1;" d="M 282.402344 57.269531 C 266.503906 79.96875 249.492188 93.03125 249.210938 110.738281 C 249.117188 116.472656 252.210938 126.222656 261.914063 128.085938 C 268.207031 129.292969 276.871094 124.191406 277.050781 113.832031 C 277.023438 111.769531 279.230469 111.824219 279.210938 114.648438 C 278.914063 122.820313 276.332031 132.335938 271.988281 140.082031 C 278.929688 140.082031 285.875 140.082031 292.816406 140.082031 C 288.472656 132.335938 285.890625 122.820313 285.59375 114.648438 C 285.574219 111.824219 287.78125 111.769531 287.753906 113.832031 C 287.933594 124.191406 296.597656 129.292969 302.890625 128.085938 C 312.59375 126.222656 315.6875 116.472656 315.59375 110.738281 C 315.3125 93.03125 298.300781 79.96875 282.402344 57.269531 Z M 282.402344 57.269531 "/>
<path style=" stroke:none;fill-rule:nonzero;fill:rgb(0%,0%,0%);fill-opacity:1;" d="M 103.992188 171.378906 C 88.09375 194.074219 71.082031 207.136719 70.800781 224.847656 C 70.707031 230.582031 73.804688 240.328125 83.503906 242.195313 C 89.796875 243.398438 98.460938 238.300781 98.640625 227.941406 C 98.613281 225.878906 100.824219 225.929688 100.800781 228.757813 C 100.503906 236.929688 97.921875 246.445313 93.578125 254.1875 C 100.523438 254.1875 107.464844 254.1875 114.40625 254.1875 C 110.0625 246.445313 107.480469 236.929688 107.183594 228.757813 C 107.164063 225.929688 109.371094 225.878906 109.34375 227.941406 C 109.523438 238.300781 118.191406 243.398438 124.484375 242.195313 C 134.183594 240.328125 137.28125 230.582031 137.183594 224.847656 C 136.902344 207.136719 119.890625 194.074219 103.992188 171.378906 Z M 103.992188 171.378906 "/>
<path style=" stroke:none;fill-rule:nonzero;fill:rgb(0%,0%,0%);fill-opacity:1;" d="M 282.402344 171.378906 C 266.503906 194.074219 249.492188 207.136719 249.210938 224.847656 C 249.117188 230.582031 252.210938 240.328125 261.914063 242.195313 C 268.207031 243.398438 276.871094 238.300781 277.050781 227.941406 C 277.023438 225.878906 279.230469 225.929688 279.210938 228.757813 C 278.914063 236.929688 276.332031 246.445313 271.988281 254.1875 C 278.929688 254.1875 285.875 254.1875 292.816406 254.1875 C 288.472656 246.445313 285.890625 236.929688 285.59375 228.757813 C 285.574219 225.929688 287.78125 225.878906 287.753906 227.941406 C 287.933594 238.300781 296.597656 243.398438 302.890625 242.195313 C 312.59375 240.328125 315.6875 230.582031 315.59375 224.847656 C 315.3125 207.136719 298.300781 194.074219 282.402344 171.378906 Z M 282.402344 171.378906 "/>
<path style=" stroke:none;fill-rule:nonzero;fill:rgb(0%,0%,0%);fill-opacity:1;" d="M 103.992188 482.402344 C 88.09375 459.703125 71.082031 446.640625 70.800781 428.933594 C 70.707031 423.199219 73.804688 413.453125 83.503906 411.585938 C 89.796875 410.382813 98.460938 415.480469 98.640625 425.839844 C 98.613281 427.902344 100.824219 427.851563 100.800781 425.023438 C 100.503906 416.851563 97.921875 407.335938 93.578125 399.59375 C 100.523438 399.59375 107.464844 399.59375 114.40625 399.59375 C 110.0625 407.335938 107.480469 416.851563 107.183594 425.023438 C 107.164063 427.851563 109.371094 427.902344 109.34375 425.839844 C 109.523438 415.480469 118.191406 410.382813 124.484375 411.585938 C 134.183594 413.453125 137.28125 423.199219 137.183594 428.933594 C 136.902344 446.640625 119.890625 459.703125 103.992188 482.402344 Z M 103.992188 482.402344 "/>
<path style=" stroke:none;fill-rule:nonzero;fill:rgb(0%,0%,0%);fill-opacity:1;" d="M 282.402344 482.402344 C 266.503906 459.703125 249.492188 446.640625 249.210938 428.933594 C 249.117188 423.199219 252.210938 413.453125 261.914063 411.585938 C 268.207031 410.382813 276.871094 415.480469 277.050781 425.839844 C 277.023438 427.902344 279.230469 427.851563 279.210938 425.023438 C 278.914063 416.851563 276.332031 407.335938 271.988281 399.59375 C 278.929688 399.59375 285.875 399.59375 292.816406 399.59375 C 288.472656 407.335938 285.890625 416.851563 285.59375 425.023438 C 285.574219 427.851563 287.78125 427.902344 287.753906 425.839844 C 287.933594 415.480469 296.597656 410.382813 302.890625 411.585938 C 312.59375 413.453125 315.6875 423.199219 315.59375 428.933594 C 315.3125 446.640625 298.300781 459.703125 282.402344 482.402344 Z M 282.402344 482.402344 "/>
<path style=" stroke:none;fill-rule:nonzero;fill:rgb(0%,0%,0%);fill-opacity:1;" d="M 282.402344 368.296875 C 266.503906 345.597656 249.492188 332.535156 249.210938 314.824219 C 249.117188 309.089844 252.210938 299.34375 261.914063 297.476563 C 268.207031 296.273438 276.871094 301.371094 277.050781 311.734375 C 277.023438 313.796875 279.230469 313.742188 279.210938 310.914063 C 278.914063 302.742188 276.332031 293.230469 271.988281 285.484375 C 278.929688 285.484375 285.875 285.484375 292.816406 285.484375 C 288.472656 293.230469 285.890625 302.742188 285.59375 310.914063 C 285.574219 313.742188 287.78125 313.796875 287.753906 311.734375 C 287.933594 301.371094 296.597656 296.273438 302.890625 297.476563 C 312.59375 299.34375 315.6875 309.089844 315.59375 314.824219 C 315.3125 332.535156 298.300781 345.597656 282.402344 368.296875 Z M 282.402344 368.296875 "/>
<path style=" stroke:none;fill-rule:nonzero;fill:rgb(0%,0%,0%);fill-opacity:1;" d="M 193.199219 228.429688 C 177.300781 251.128906 160.289063 264.191406 160.003906 281.902344 C 159.910156 287.636719 163.007813 297.382813 172.707031 299.25 C 179 300.453125 187.664063 295.355469 187.847656 284.992188 C 187.820313 282.929688 190.027344 282.984375 190.007813 285.8125 C 189.710938 293.984375 187.125 303.496094 182.785156 311.242188 C 189.726563 311.242188 196.667969 311.242188 203.609375 311.242188 C 199.269531 303.496094 196.683594 293.984375 196.386719 285.8125 C 196.367188 282.984375 198.578125 282.929688 198.550781 284.992188 C 198.730469 295.355469 207.394531 300.453125 213.6875 299.25 C 223.386719 297.382813 226.484375 287.636719 226.390625 281.902344 C 226.105469 264.191406 209.097656 251.128906 193.199219 228.429688 Z M 193.199219 228.429688 "/>
<path style=" stroke:none;fill-rule:nonzero;fill:rgb(0%,0%,0%);fill-opacity:1;" d="M 14.644531 70.695313 L 19.84375 69.042969 C 21.8125 74.292969 25.773438 75.847656 29.96875 75.511719 C 37.5 74.910156 40 66.484375 40.5625 59.035156 C 37.628906 62.152344 33.222656 63.730469 29.46875 63.570313 C 17.464844 62.925781 14.390625 53.308594 14.28125 43.242188 C 13.953125 34.75 17.457031 28.601563 23.46875 25.777344 C 26.65625 24.347656 33.949219 24.347656 37.152344 26.042969 C 44.507813 29.925781 47.234375 36.640625 46.742188 52.664063 C 46.742188 65.847656 43.945313 81.203125 29.832031 81.539063 C 21.679688 82.667969 15.484375 76.316406 14.644531 70.695313 Z M 35.078125 56.246094 C 37.527344 54.695313 38.902344 53.238281 40.003906 51.058594 C 40.902344 49.265625 41.214844 48.332031 40.953125 44.628906 C 40.289063 35.070313 35.285156 29.644531 28.023438 30.71875 C 23.976563 31.328125 21.757813 33.597656 20.488281 37.8125 C 18.140625 45.613281 21.121094 54.738281 26.695313 56.839844 C 29.203125 57.792969 33.078125 57.519531 35.078125 56.246094 Z M 35.078125 56.246094 "/>
<path style=" stroke:none;fill-rule:nonzero;fill:rgb(0%,0%,0%);fill-opacity:1;" d="M 371.746094 468.980469 L 366.546875 470.628906 C 364.582031 465.378906 360.617188 463.824219 356.421875 464.164063 C 348.890625 464.761719 346.390625 473.191406 345.828125 480.636719 C 348.761719 477.523438 353.167969 475.941406 356.921875 476.101563 C 368.925781 476.746094 372 486.363281 372.109375 496.433594 C 372.4375 504.921875 368.933594 511.070313 362.921875 513.894531 C 359.734375 515.324219 352.441406 515.324219 349.238281 513.628906 C 341.882813 509.746094 339.15625 503.035156 339.648438 487.007813 C 339.648438 473.824219 342.445313 458.46875 356.558594 458.136719 C 364.710938 457.007813 370.90625 463.359375 371.746094 468.980469 Z M 351.3125 483.425781 C 348.867188 484.976563 347.488281 486.433594 346.390625 488.613281 C 345.488281 490.40625 345.175781 491.339844 345.4375 495.046875 C 346.101563 504.605469 351.105469 510.03125 358.367188 508.953125 C 362.417969 508.34375 364.632813 506.078125 365.902344 501.859375 C 368.25 494.058594 365.273438 484.933594 359.699219 482.832031 C 357.191406 481.878906 353.3125 482.152344 351.3125 483.425781 Z M 351.3125 483.425781 "/>
</g>
</svg>
